<?xml version="1.0" encoding="utf-8"?>
<!-- Generator: Adobe Illustrator 23.0.1, SVG Export Plug-In . SVG Version: 6.00 Build 0)  -->
<svg version="1.1" id="Layer_1" xmlns="http://www.w3.org/2000/svg" xmlns:xlink="http://www.w3.org/1999/xlink" x="0px" y="0px"
	 viewBox="0 0 229.1 320.2" style="enable-background:new 0 0 229.1 320.2;" xml:space="preserve">
<style type="text/css">
	.st0{fill:none;stroke:#000000;stroke-width:0.25;stroke-linecap:round;stroke-linejoin:round;}
</style>
<title>breactor_outline_wht</title>
<g>
	<path class="st0" d="M88,297c0,1.1-1.7,0.9-1.8-0.2c0-0.5,0.5-0.8,0.9-0.7C87.6,296.1,87.9,296.5,88,297z"/>
	<path class="st0" d="M211.7,23.9c22.6,17,17.6,36.9-5,51c-17.3,10.8-41.1,16.3-60.7,18.6c-20.8,2.5-43,2.2-63.8-0.8
		C63.1,90,38.7,83.7,22.5,71.5c-22.6-17-17.6-36.9,5-51C44.9,9.7,68.6,4.2,88.2,1.9c20.8-2.5,43-2.2,63.8,0.8
		C171.1,5.5,195.5,11.7,211.7,23.9z"/>
	<line class="st0" x1="226.3" y1="47.9" x2="226.3" y2="160.1"/>
	<line class="st0" x1="7.9" y1="160.1" x2="7.9" y2="48.7"/>
	<path class="st0" d="M12.1,160.1c0,4.6,1.6,8.8,4.1,12.6c3.3,5,7.5,8.7,12.4,12c8.4,5.7,18.3,9.8,27.9,12.7
		c19.2,5.9,40.8,8.4,60.7,8.4c19.9,0,41.6-2.5,60.7-8.4c9.6-3,19.5-7,27.9-12.7c4.8-3.3,9-6.9,12.3-11.9c2.5-3.8,4.1-8.1,4.1-12.7"
		/>
	<path class="st0" d="M222.6,172.4c-2.6,4.2-5.9,7.5-9.7,10.6c-5.1,4-10.6,7.1-16.5,9.8c-10.3,4.7-21,7.8-32,10.2
		c-21.6,4.5-45.1,5.7-67,3.9c-21-1.7-45.7-6.5-64.8-16.7c-5.6-3-10.8-6.4-15.4-10.9c-3.6-3.6-6.4-7.3-8.1-12.1
		c-4.1-12,3-22.3,11.5-29.3"/>
	<path class="st0" d="M213.6,137.8c10.8,8.9,17.3,21.1,9,34.6"/>
	<path class="st0" d="M222.6,284.8c-10,16.2-35.7,25.1-51.8,29.1c-19.3,4.8-40.4,6.6-60.2,6.1c-19.7-0.5-40.9-3.4-59.7-9.7
		c-9.4-3.1-19.1-7.4-27.2-13.2c-4.7-3.4-8.7-7.1-11.9-12c-2.5-4-3.9-7.8-3.9-12.6"/>
	<path class="st0" d="M226.3,272.5c0,4.6-1.3,8.4-3.7,12.3"/>
	<path class="st0" d="M89.7,224.1c0,1.1-1.7,0.9-1.8-0.2c0-0.5,0.5-0.8,0.9-0.7C89.4,223.3,89.7,223.7,89.7,224.1z"/>
	<path class="st0" d="M89.7,224c-0.6,0.2-1.2-0.2-1.3-0.8"/>
	<path class="st0" d="M95.1,301c0,1.1-1.7,0.9-1.8-0.2c0-0.5,0.5-0.8,0.9-0.7C94.7,300.2,95.1,300.6,95.1,301z"/>
	<path class="st0" d="M95.1,300.9c-0.6,0.2-1.2-0.2-1.3-0.8"/>
	<path class="st0" d="M91.5,300.7c0,1.1-1.7,0.9-1.8-0.2c0-0.5,0.5-0.8,0.9-0.7C91.1,299.8,91.5,300.2,91.5,300.7z"/>
	<path class="st0" d="M91.5,300.6c-0.6,0.2-1.2-0.2-1.3-0.8"/>
	<path class="st0" d="M98.8,298c0,1.1-1.8,1-1.8-0.1c0-0.5,0.5-0.8,0.9-0.8C98.4,297.2,98.7,297.5,98.8,298z"/>
	<path class="st0" d="M98.8,297.9c-0.6,0.2-1.2-0.1-1.3-0.7"/>
	<path class="st0" d="M95.1,297.7c0,1.1-1.7,0.9-1.8-0.2c0-0.5,0.5-0.8,0.9-0.7C94.7,296.9,95.1,297.2,95.1,297.7z"/>
	<path class="st0" d="M95.1,297.6c-0.6,0.2-1.2-0.2-1.3-0.8"/>
	<path class="st0" d="M91.5,297.4c0,1.1-1.7,0.9-1.8-0.2c0-0.5,0.5-0.8,0.9-0.7C91.1,296.5,91.5,296.9,91.5,297.4z"/>
	<path class="st0" d="M91.5,297.3c-0.6,0.2-1.2-0.2-1.3-0.8"/>
	<path class="st0" d="M102.4,294.9c-0.1,1.1-1.8,1-1.8-0.1c0-0.5,0.5-0.8,0.9-0.8C102,294.1,102.4,294.5,102.4,294.9z"/>
	<path class="st0" d="M102.4,294.9c-0.6,0.2-1.2-0.1-1.3-0.7"/>
	<path class="st0" d="M98.8,294.7c0,1.1-1.8,1-1.8-0.1c0-0.5,0.5-0.8,0.9-0.8C98.4,293.8,98.7,294.2,98.8,294.7z"/>
	<path class="st0" d="M98.8,294.6c-0.6,0.2-1.2-0.1-1.3-0.7"/>
	<path class="st0" d="M95.1,294.4c0,1.1-1.7,0.9-1.8-0.2c0-0.5,0.5-0.8,0.9-0.7C94.7,293.5,95.1,293.9,95.1,294.4z"/>
	<path class="st0" d="M95.1,294.3c-0.6,0.2-1.2-0.2-1.3-0.8"/>
	<path class="st0" d="M91.5,294c0,1.1-1.7,0.9-1.8-0.2c0-0.5,0.5-0.8,0.9-0.7C91.1,293.2,91.5,293.6,91.5,294z"/>
	<path class="st0" d="M91.5,293.9c-0.6,0.2-1.2-0.2-1.3-0.8"/>
	<path class="st0" d="M102.4,291.6c-0.1,1.1-1.8,1-1.8-0.1c0-0.5,0.5-0.8,0.9-0.8C102,290.8,102.4,291.1,102.4,291.6z"/>
	<path class="st0" d="M102.4,291.5c-0.6,0.2-1.2-0.1-1.3-0.7"/>
	<path class="st0" d="M98.8,291.4c0,1.1-1.8,1-1.8-0.1c0-0.5,0.5-0.8,0.9-0.8C98.4,290.5,98.7,290.9,98.8,291.4z"/>
	<path class="st0" d="M98.8,291.3c-0.6,0.2-1.2-0.1-1.3-0.7"/>
	<path class="st0" d="M95.1,291.1c0,1.1-1.7,0.9-1.8-0.2c0-0.5,0.5-0.8,0.9-0.7C94.7,290.2,95.1,290.6,95.1,291.1z"/>
	<path class="st0" d="M95.1,291c-0.6,0.2-1.2-0.2-1.3-0.8"/>
	<path class="st0" d="M91.5,290.7c0,1.1-1.7,0.9-1.8-0.2c0-0.5,0.5-0.8,0.9-0.7C91.1,289.9,91.5,290.3,91.5,290.7z"/>
	<path class="st0" d="M91.5,290.6c-0.6,0.2-1.2-0.2-1.3-0.8"/>
	<path class="st0" d="M88,300.3c0,1.1-1.7,0.9-1.8-0.2c0-0.5,0.5-0.8,0.9-0.7C87.6,299.4,87.9,299.8,88,300.3z"/>
	<path class="st0" d="M87.9,300.2c-0.6,0.2-1.2-0.2-1.3-0.8"/>
	<path class="st0" d="M84.4,299.8c0,0.5-0.5,0.8-0.9,0.7c-0.5-0.1-0.8-0.5-0.8-0.9c0-0.5,0.5-0.8,0.9-0.7
		C84.1,299,84.4,299.4,84.4,299.8z"/>
	<path class="st0" d="M84.4,299.7c-0.6,0.2-1.2-0.2-1.3-0.8"/>
	<path class="st0" d="M87.9,296.9c-0.6,0.2-1.2-0.2-1.3-0.8"/>
	<path class="st0" d="M84.4,296.5c0,0.5-0.5,0.8-0.9,0.7c-0.5-0.1-0.8-0.5-0.8-0.9c0-0.5,0.5-0.8,0.9-0.7
		C84.1,295.7,84.4,296,84.4,296.5z"/>
	<path class="st0" d="M84.4,296.4c-0.6,0.2-1.2-0.2-1.3-0.8"/>
	<path class="st0" d="M80.9,296c0,0.5-0.5,0.8-0.9,0.7c-0.5-0.1-0.8-0.5-0.8-1c0-0.5,0.5-0.8,0.9-0.7
		C80.6,295.1,80.9,295.5,80.9,296z"/>
	<path class="st0" d="M80.9,295.9c-0.6,0.2-1.1-0.3-1.2-0.8"/>
	<path class="st0" d="M88,293.6c0,1.1-1.7,0.9-1.8-0.2c0-0.5,0.5-0.8,0.9-0.7C87.6,292.8,87.9,293.2,88,293.6z"/>
	<path class="st0" d="M87.9,293.5c-0.6,0.2-1.2-0.2-1.3-0.8"/>
	<path class="st0" d="M84.4,293.2c0,0.5-0.5,0.8-0.9,0.7c-0.5-0.1-0.8-0.5-0.8-0.9c0-0.5,0.5-0.8,0.9-0.7
		C84.1,292.3,84.4,292.7,84.4,293.2z"/>
	<path class="st0" d="M84.4,293.1c-0.6,0.2-1.2-0.2-1.3-0.8"/>
	<path class="st0" d="M80.9,292.7c0,0.5-0.5,0.8-0.9,0.7c-0.5-0.1-0.8-0.5-0.8-1c0-0.5,0.5-0.8,0.9-0.7
		C80.6,291.8,80.9,292.2,80.9,292.7z"/>
	<path class="st0" d="M80.9,292.6c-0.6,0.2-1.1-0.3-1.2-0.8"/>
	<path class="st0" d="M77.4,292.1c0,0.5-0.5,0.8-0.9,0.7c-0.4-0.1-0.8-0.5-0.8-1c0-0.5,0.5-0.8,0.9-0.7
		C77.1,291.3,77.4,291.7,77.4,292.1z"/>
	<path class="st0" d="M77.4,292c-0.6,0.2-1.1-0.3-1.2-0.8"/>
	<path class="st0" d="M88,290.3c0,1.1-1.7,0.9-1.8-0.2c0-0.5,0.5-0.8,0.9-0.7C87.6,289.5,87.9,289.9,88,290.3z"/>
	<path class="st0" d="M87.9,290.2c-0.6,0.2-1.2-0.2-1.3-0.8"/>
	<path class="st0" d="M84.4,289.9c0,0.5-0.5,0.8-0.9,0.7c-0.5-0.1-0.8-0.5-0.8-0.9c0-0.5,0.5-0.8,0.9-0.7
		C84.1,289,84.4,289.4,84.4,289.9z"/>
	<path class="st0" d="M84.4,289.8c-0.6,0.2-1.2-0.2-1.3-0.8"/>
	<path class="st0" d="M80.9,289.4c0,0.5-0.5,0.8-0.9,0.7c-0.5-0.1-0.8-0.5-0.8-1c0-0.5,0.5-0.8,0.9-0.7
		C80.6,288.5,80.9,288.9,80.9,289.4z"/>
	<line class="st0" x1="7.9" y1="230" x2="7.9" y2="230"/>
	<line class="st0" x1="7.9" y1="216.8" x2="7.9" y2="216.8"/>
	<line class="st0" x1="7.9" y1="220.1" x2="8" y2="220.1"/>
	<line class="st0" x1="7.9" y1="223.4" x2="8" y2="223.4"/>
	<line class="st0" x1="7.9" y1="226.7" x2="8" y2="226.7"/>
	<line class="st0" x1="7.9" y1="213.4" x2="7.9" y2="213.4"/>
	<line class="st0" x1="7.9" y1="210.1" x2="7.9" y2="210.1"/>
	<line class="st0" x1="7.9" y1="206.8" x2="7.9" y2="206.8"/>
	<line class="st0" x1="7.9" y1="203.5" x2="7.9" y2="203.5"/>
	<line class="st0" x1="7.9" y1="200.2" x2="7.9" y2="200.2"/>
	<line class="st0" x1="7.9" y1="200.8" x2="7.9" y2="160.9"/>
	<line class="st0" x1="7.9" y1="204.1" x2="7.9" y2="202"/>
	<line class="st0" x1="7.9" y1="207.4" x2="7.9" y2="205.3"/>
	<line class="st0" x1="7.9" y1="210.7" x2="7.9" y2="210"/>
	<line class="st0" x1="7.9" y1="214" x2="7.9" y2="213.3"/>
	<line class="st0" x1="7.9" y1="217.4" x2="7.9" y2="216.6"/>
	<line class="st0" x1="7.9" y1="220.7" x2="7.9" y2="219.5"/>
	<line class="st0" x1="7.9" y1="224" x2="7.9" y2="222.8"/>
	<line class="st0" x1="7.9" y1="227.3" x2="7.9" y2="226.1"/>
	<line class="st0" x1="7.9" y1="230.6" x2="7.9" y2="228.5"/>
	<line class="st0" x1="7.9" y1="272.5" x2="7.9" y2="231.8"/>
	<line class="st0" x1="226.3" y1="232.4" x2="226.3" y2="272.5"/>
	<line class="st0" x1="226.3" y1="229.1" x2="226.3" y2="230.6"/>
	<line class="st0" x1="226.3" y1="225.8" x2="226.3" y2="227.3"/>
	<line class="st0" x1="226.3" y1="222.5" x2="226.3" y2="224"/>
	<line class="st0" x1="226.3" y1="219.1" x2="226.3" y2="220.6"/>
	<line class="st0" x1="226.3" y1="215.8" x2="226.3" y2="217.3"/>
	<line class="st0" x1="226.3" y1="212.5" x2="226.3" y2="214"/>
	<line class="st0" x1="226.3" y1="209.2" x2="226.3" y2="210.7"/>
	<line class="st0" x1="226.3" y1="205.9" x2="226.3" y2="207.4"/>
	<line class="st0" x1="226.3" y1="202.5" x2="226.3" y2="204"/>
	<line class="st0" x1="226.3" y1="160.4" x2="226.3" y2="200.7"/>
	<line class="st0" x1="222.2" y1="157.4" x2="222.2" y2="160.1"/>
	<line class="st0" x1="12.1" y1="160.1" x2="12.1" y2="157.6"/>
	<path class="st0" d="M80.9,289.2c-0.6,0.2-1.1-0.3-1.2-0.8"/>
	<path class="st0" d="M77.4,288.8c0,0.5-0.5,0.8-0.9,0.7c-0.4-0.1-0.8-0.5-0.8-1c0-0.5,0.5-0.8,0.9-0.7
		C77.1,288,77.4,288.3,77.4,288.8z"/>
	<path class="st0" d="M77.4,288.7c-0.6,0.2-1.1-0.3-1.2-0.8"/>
	<path class="st0" d="M84.4,276.6c0,0.5-0.5,0.8-0.9,0.7c-0.5-0.1-0.8-0.5-0.8-0.9c0-0.5,0.5-0.8,0.9-0.7
		C84.1,275.7,84.4,276.1,84.4,276.6z"/>
	<path class="st0" d="M162.6,315.7c1.7,0.4,3.4,0.4,5.2,0.1c1.2-0.2,3.8-0.8,4.5-2.2"/>
	<path class="st0" d="M165.5,315.1c2.1,0,5.1-0.4,7-1.7"/>
	<path class="st0" d="M84.4,276.5c-0.6,0.2-1.2-0.2-1.3-0.8"/>
	<path class="st0" d="M88,277.1c0,1.1-1.7,0.9-1.8-0.2c0-0.5,0.5-0.8,0.9-0.7C87.6,276.2,87.9,276.6,88,277.1z"/>
	<path class="st0" d="M87.9,276.9c-0.6,0.2-1.2-0.2-1.3-0.8"/>
	<path class="st0" d="M80.9,279.4c0,0.5-0.5,0.8-0.9,0.7c-0.5-0.1-0.8-0.5-0.8-1c0-0.5,0.5-0.8,0.9-0.7
		C80.6,278.6,80.9,278.9,80.9,279.4z"/>
	<path class="st0" d="M80.9,279.3c-0.6,0.2-1.1-0.3-1.2-0.8"/>
	<path class="st0" d="M84.4,279.9c0,0.5-0.5,0.8-0.9,0.7c-0.5-0.1-0.8-0.5-0.8-0.9c0-0.5,0.5-0.8,0.9-0.7
		C84.1,279.1,84.4,279.5,84.4,279.9z"/>
	<path class="st0" d="M84.4,279.8c-0.6,0.2-1.2-0.2-1.3-0.8"/>
	<path class="st0" d="M88,280.4c0,1.1-1.7,0.9-1.8-0.2c0-0.5,0.5-0.8,0.9-0.7C87.6,279.5,87.9,279.9,88,280.4z"/>
	<path class="st0" d="M87.9,280.3c-0.6,0.2-1.2-0.2-1.3-0.8"/>
	<path class="st0" d="M77.4,282.2c0,0.5-0.5,0.8-0.9,0.7c-0.4-0.1-0.8-0.5-0.8-1c0-0.5,0.5-0.8,0.9-0.7
		C77.1,281.3,77.4,281.7,77.4,282.2z"/>
	<path class="st0" d="M77.4,282c-0.6,0.2-1.1-0.3-1.2-0.8"/>
	<path class="st0" d="M80.9,282.7c0,0.5-0.5,0.8-0.9,0.7c-0.5-0.1-0.8-0.5-0.8-1c0-0.5,0.5-0.8,0.9-0.7
		C80.6,281.9,80.9,282.3,80.9,282.7z"/>
	<path class="st0" d="M80.9,282.6c-0.6,0.2-1.1-0.3-1.2-0.8"/>
	<path class="st0" d="M84.4,283.2c0,0.5-0.5,0.8-0.9,0.7c-0.5-0.1-0.8-0.5-0.8-0.9c0-0.5,0.5-0.8,0.9-0.7
		C84.1,282.4,84.4,282.8,84.4,283.2z"/>
	<path class="st0" d="M84.4,283.1c-0.6,0.2-1.2-0.2-1.3-0.8"/>
	<path class="st0" d="M88,283.7c0,1.1-1.7,0.9-1.8-0.2c0-0.5,0.5-0.8,0.9-0.7C87.6,282.8,87.9,283.2,88,283.7z"/>
	<path class="st0" d="M87.9,283.6c-0.6,0.2-1.2-0.2-1.3-0.8"/>
	<path class="st0" d="M77.4,285.5c0,0.5-0.5,0.8-0.9,0.7c-0.4-0.1-0.8-0.5-0.8-1c0-0.5,0.5-0.8,0.9-0.7
		C77.1,284.6,77.4,285,77.4,285.5z"/>
	<path class="st0" d="M77.4,285.4c-0.6,0.2-1.1-0.3-1.2-0.8"/>
	<path class="st0" d="M80.9,286c0,0.5-0.5,0.8-0.9,0.7c-0.5-0.1-0.8-0.5-0.8-1c0-0.5,0.5-0.8,0.9-0.7
		C80.6,285.2,80.9,285.6,80.9,286z"/>
	<path class="st0" d="M80.9,285.9c-0.6,0.2-1.1-0.3-1.2-0.8"/>
	<path class="st0" d="M84.4,286.6c0,0.5-0.5,0.8-0.9,0.7c-0.5-0.1-0.8-0.5-0.8-0.9c0-0.5,0.5-0.8,0.9-0.7
		C84.1,285.7,84.4,286.1,84.4,286.6z"/>
	<path class="st0" d="M84.4,286.4c-0.6,0.2-1.2-0.2-1.3-0.8"/>
	<path class="st0" d="M88,287c0,1.1-1.7,0.9-1.8-0.2c0-0.5,0.5-0.8,0.9-0.7C87.6,286.2,87.9,286.5,88,287z"/>
	<path class="st0" d="M87.9,286.9c-0.6,0.2-1.2-0.2-1.3-0.8"/>
	<path class="st0" d="M91.5,277.5c0,1.1-1.7,0.9-1.8-0.2c0-0.5,0.5-0.8,0.9-0.7C91.1,276.6,91.5,277,91.5,277.5z"/>
	<path class="st0" d="M91.5,277.4c-0.6,0.2-1.2-0.2-1.3-0.8"/>
	<path class="st0" d="M95.1,277.8c0,1.1-1.7,0.9-1.8-0.2c0-0.5,0.5-0.8,0.9-0.7C94.7,276.9,95.1,277.3,95.1,277.8z"/>
	<path class="st0" d="M95.1,277.7c-0.6,0.2-1.2-0.2-1.3-0.8"/>
	<path class="st0" d="M91.5,280.8c0,1.1-1.7,0.9-1.8-0.2c0-0.5,0.5-0.8,0.9-0.7C91.1,279.9,91.5,280.3,91.5,280.8z"/>
	<path class="st0" d="M91.5,280.7c-0.6,0.2-1.2-0.2-1.3-0.8"/>
	<path class="st0" d="M95.1,281.1c0,1.1-1.7,0.9-1.8-0.2c0-0.5,0.5-0.8,0.9-0.7C94.7,280.3,95.1,280.6,95.1,281.1z"/>
	<path class="st0" d="M95.1,281c-0.6,0.2-1.2-0.2-1.3-0.8"/>
	<path class="st0" d="M98.8,281.4c0,1.1-1.8,1-1.8-0.1c0-0.5,0.5-0.8,0.9-0.8C98.4,280.6,98.7,280.9,98.8,281.4z"/>
	<path class="st0" d="M98.8,281.3c-0.6,0.2-1.2-0.1-1.3-0.7"/>
	<path class="st0" d="M91.5,284.1c0,1.1-1.7,0.9-1.8-0.2c0-0.5,0.5-0.8,0.9-0.7C91.1,283.2,91.5,283.6,91.5,284.1z"/>
	<path class="st0" d="M91.5,284c-0.6,0.2-1.2-0.2-1.3-0.8"/>
	<path class="st0" d="M95.1,284.4c0,1.1-1.7,0.9-1.8-0.2c0-0.5,0.5-0.8,0.9-0.7C94.7,283.6,95.1,284,95.1,284.4z"/>
	<path class="st0" d="M95.1,284.3c-0.6,0.2-1.2-0.2-1.3-0.8"/>
	<path class="st0" d="M98.8,284.7c0,1.1-1.8,1-1.8-0.1c0-0.5,0.5-0.8,0.9-0.8C98.4,283.9,98.7,284.3,98.8,284.7z"/>
	<path class="st0" d="M98.8,284.6c-0.6,0.2-1.2-0.1-1.3-0.7"/>
	<path class="st0" d="M102.4,285c-0.1,1.1-1.8,1-1.8-0.1c0-0.5,0.5-0.8,0.9-0.8C102,284.1,102.4,284.5,102.4,285z"/>
	<path class="st0" d="M102.4,284.9c-0.6,0.2-1.2-0.1-1.3-0.7"/>
	<path class="st0" d="M91.5,287.4c0,1.1-1.7,0.9-1.8-0.2c0-0.5,0.5-0.8,0.9-0.7C91.1,286.6,91.5,286.9,91.5,287.4z"/>
	<path class="st0" d="M91.5,287.3c-0.6,0.2-1.2-0.2-1.3-0.8"/>
	<path class="st0" d="M95.1,287.8c0,1.1-1.7,0.9-1.8-0.2c0-0.5,0.5-0.8,0.9-0.7C94.7,286.9,95.1,287.3,95.1,287.8z"/>
	<path class="st0" d="M95.1,287.7c-0.6,0.2-1.2-0.2-1.3-0.8"/>
	<path class="st0" d="M98.8,288.1c0,1.1-1.8,1-1.8-0.1c0-0.5,0.5-0.8,0.9-0.8C98.4,287.2,98.7,287.6,98.8,288.1z"/>
	<path class="st0" d="M98.8,288c-0.6,0.2-1.2-0.1-1.3-0.7"/>
	<path class="st0" d="M102.4,288.3c-0.1,1.1-1.8,1-1.8-0.1c0-0.5,0.5-0.8,0.9-0.8C102,287.4,102.4,287.8,102.4,288.3z"/>
	<path class="st0" d="M102.4,288.2c-0.6,0.2-1.2-0.1-1.3-0.7"/>
	<path class="st0" d="M7.9,200.8c0,0.4,0,0.8,0,1.2"/>
	<path class="st0" d="M8,198.5c-0.1,0.5-0.1,1.1,0,1.6"/>
	<path class="st0" d="M7.9,204.1c0,0.4,0,0.8,0,1.2"/>
	<path class="st0" d="M8,202c0,0.5,0,1,0,1.5"/>
	<path class="st0" d="M7.9,209c0-0.1,0-0.2,0-0.3"/>
	<path class="st0" d="M7.9,208.7c0,0.2,0.1,1.5,0,1.7"/>
	<path class="st0" d="M7.9,210.2c0-0.4,0-0.8,0-1.2"/>
	<path class="st0" d="M7.9,207.4c0,0.4,0,0.7,0,1.1"/>
	<path class="st0" d="M8,205.3c0,0.5,0,1,0,1.5"/>
	<path class="st0" d="M7.9,212.3c0-0.1,0-0.2,0-0.3"/>
	<path class="st0" d="M7.9,212c0,0.2,0.1,1.5,0,1.7"/>
	<path class="st0" d="M7.9,213.5c0-0.4,0-0.8,0-1.2"/>
	<path class="st0" d="M7.9,210.7c0,0.4,0,0.7,0,1.1"/>
	<path class="st0" d="M7.9,215.6c0-0.1,0-0.2,0-0.3"/>
	<path class="st0" d="M7.9,215.3c0,0.2,0.1,1.5,0,1.7"/>
	<path class="st0" d="M7.9,216.8c0-0.4,0-0.8,0-1.2"/>
	<path class="st0" d="M7.9,214.1c0,0.4,0,0.7,0,1.1"/>
	<path class="st0" d="M8,231.9c0,0.2-0.1,1.5,0,1.6"/>
	<path class="st0" d="M8,228.6c0,0.5,0,1,0,1.5"/>
	<path class="st0" d="M7.9,227.3c0,0.4,0,0.8,0,1.2"/>
	<path class="st0" d="M7.9,224c0,0.3,0,0.7,0,1"/>
	<path class="st0" d="M7.9,220.7c0,0.3,0,0.7,0,1"/>
	<path class="st0" d="M7.9,222.2c0-0.1,0-0.3,0-0.4"/>
	<path class="st0" d="M7.9,221.8c0,0.2,0.1,1.6,0,1.8"/>
	<path class="st0" d="M7.9,222.9c0-0.2,0-0.4,0-0.7"/>
	<path class="st0" d="M7.9,217.4c0,0.3,0,0.7,0,1"/>
	<path class="st0" d="M7.9,218.9c0-0.1,0-0.3,0-0.4"/>
	<path class="st0" d="M7.9,218.5c0,0.2,0.1,1.6,0,1.8"/>
	<path class="st0" d="M7.9,219.6c0-0.2,0-0.4,0-0.7"/>
	<path class="st0" d="M7.9,230.7c0,0.4,0,0.8,0,1.2"/>
	<path class="st0" d="M7.9,225.6c0-0.1,0-0.3,0-0.4"/>
	<path class="st0" d="M7.9,225.1c0,0.2,0.1,1.6,0,1.8"/>
	<path class="st0" d="M7.9,226.2c0-0.2,0-0.4,0-0.7"/>
	<path class="st0" d="M224.8,196.1c0,0.3,0,0.6-0.1,0.9c0,0.1-0.1,0.5-0.2,0.3c-0.1-0.2-0.1-0.3-0.1-0.5c0-0.3,0-0.6,0.1-0.9
		c0-0.1,0.1-0.6,0.2-0.3C224.8,195.8,224.8,195.9,224.8,196.1z"/>
	<path class="st0" d="M225.8,196.2c0,0.2,0,0.4,0,0.7c0,0.1,0,0.2,0,0.3c0,0.1,0.1,0.2-0.1,0.3"/>
	<path class="st0" d="M225.7,195.7C225.7,195.7,225.7,195.7,225.7,195.7"/>
	<path class="st0" d="M225.7,195.7c0.1,0.2,0.1,0.3,0.1,0.5"/>
	<path class="st0" d="M76.6,281.2c0,0.2-0.1,0.3-0.1,0.5"/>
	<path class="st0" d="M77,288c0.1,0.2,0.2,0.5,0.3,0.7"/>
	<path class="st0" d="M76.3,284.5c0,0.1,0,0.2,0,0.3"/>
	<path class="st0" d="M76.9,292c-0.1-0.3-0.3-0.6-0.4-0.8"/>
	<path class="st0" d="M84.4,299.6c-0.4-0.2-0.8-0.5-1.2-0.7"/>
	<path class="st0" d="M226.1,217.3c0,0.1,0,0.1,0,0.2"/>
	<path class="st0" d="M226,217.5c0-0.1,0-0.3,0.1-0.2"/>
	<path class="st0" d="M226.1,217.8c0,0.4,0.1,0.9-0.1,1.3"/>
	<path class="st0" d="M225.7,218.9c0.1,0.2,0.1,0.3,0.1,0.5"/>
	<path class="st0" d="M225.6,220.5c0-0.3,0-0.6,0-0.8c0-0.1,0-0.3,0-0.4c0-0.1,0-0.1,0-0.2c0-0.1,0-0.1,0.1-0.2"/>
	<path class="st0" d="M225.8,219.4c0,0.2,0,0.4,0,0.7c0,0.1,0,0.2,0,0.3c0,0.1,0.1,0.2-0.1,0.3"/>
	<path class="st0" d="M225.3,221c0,0.3,0,0.6-0.1,0.9c0,0.1-0.1,0.6-0.2,0.3c-0.1-0.2,0-0.3,0-0.5c0-0.3,0-0.6,0.1-0.9
		c0-0.1,0.1-0.6,0.2-0.3C225.4,220.7,225.3,220.9,225.3,221z"/>
	<path class="st0" d="M224.8,222.6c0,0.3,0,0.6-0.1,0.9c0,0.1-0.1,0.5-0.2,0.3c-0.1-0.2-0.1-0.3-0.1-0.5c0-0.3,0-0.6,0.1-0.9
		c0-0.1,0.1-0.6,0.2-0.3C224.8,222.3,224.8,222.5,224.8,222.6z"/>
	<path class="st0" d="M224.1,224.2c0,0.3,0,0.6-0.1,1c0,0.1-0.1,0.5-0.2,0.3c-0.1-0.2-0.1-0.3-0.1-0.5c0-0.3,0-0.6,0.1-1
		c0-0.1,0.1-0.5,0.2-0.3C224.1,223.9,224.1,224.1,224.1,224.2z"/>
	<path class="st0" d="M223.3,225.8c0,0.3,0,0.6-0.1,1c0,0.1-0.1,0.5-0.2,0.3c-0.1-0.2-0.1-0.3-0.1-0.5c0-0.3,0-0.6,0.1-1
		c0-0.1,0.1-0.5,0.2-0.3C223.3,225.5,223.3,225.6,223.3,225.8z"/>
	<path class="st0" d="M226.1,214c0,0.1,0,0.1,0,0.2"/>
	<path class="st0" d="M226,214.2c0-0.1,0-0.3,0.1-0.2"/>
	<path class="st0" d="M226.1,214.5c0,0.4,0.1,0.9-0.1,1.3"/>
	<path class="st0" d="M225.7,215.6c0.1,0.2,0.1,0.3,0.1,0.5"/>
	<path class="st0" d="M225.6,217.2c0-0.3,0-0.6,0-0.8c0-0.1,0-0.3,0-0.4c0-0.1,0-0.1,0-0.2c0-0.1,0-0.1,0.1-0.2"/>
	<path class="st0" d="M225.8,216.1c0,0.2,0,0.4,0,0.7c0,0.1,0,0.2,0,0.3c0,0.1,0.1,0.2-0.1,0.3"/>
	<path class="st0" d="M225.3,217.7c0,0.3,0,0.6-0.1,0.9c0,0.1-0.1,0.6-0.2,0.3c-0.1-0.2,0-0.3,0-0.5c0-0.3,0-0.6,0.1-0.9
		c0-0.1,0.1-0.6,0.2-0.3C225.4,217.4,225.3,217.6,225.3,217.7z"/>
	<path class="st0" d="M224.8,219.3c0,0.3,0,0.6-0.1,0.9c0,0.1-0.1,0.5-0.2,0.3c-0.1-0.2-0.1-0.3-0.1-0.5c0-0.3,0-0.6,0.1-0.9
		c0-0.1,0.1-0.6,0.2-0.3C224.8,219,224.8,219.2,224.8,219.3z"/>
	<path class="st0" d="M224.1,220.9c0,0.3,0,0.6-0.1,1c0,0.1-0.1,0.5-0.2,0.3c-0.1-0.2-0.1-0.3-0.1-0.5c0-0.3,0-0.6,0.1-1
		c0-0.1,0.1-0.5,0.2-0.3C224.1,220.6,224.1,220.7,224.1,220.9z"/>
	<path class="st0" d="M223.3,222.5c0,0.3,0,0.6-0.1,1c0,0.1-0.1,0.5-0.2,0.3c-0.1-0.2-0.1-0.3-0.1-0.5c0-0.3,0-0.6,0.1-1
		c0-0.1,0.1-0.5,0.2-0.3C223.3,222.1,223.3,222.3,223.3,222.5z"/>
	<path class="st0" d="M226.1,210.7c0,0.1,0,0.1,0,0.2"/>
	<path class="st0" d="M226,210.8c0-0.1,0-0.3,0.1-0.2"/>
	<path class="st0" d="M226.1,211.2c0,0.4,0.1,0.9-0.1,1.3"/>
	<path class="st0" d="M225.7,212.3c0.1,0.2,0.1,0.3,0.1,0.5"/>
	<path class="st0" d="M225.6,213.9c0-0.3,0-0.6,0-0.8c0-0.1,0-0.3,0-0.4c0-0.1,0-0.1,0-0.2c0-0.1,0-0.1,0.1-0.2"/>
	<path class="st0" d="M225.8,212.8c0,0.2,0,0.4,0,0.7c0,0.1,0,0.2,0,0.3c0,0.1,0.1,0.2-0.1,0.3"/>
	<path class="st0" d="M225.3,214.4c0,0.3,0,0.6-0.1,0.9c0,0.1-0.1,0.6-0.2,0.3c-0.1-0.2,0-0.3,0-0.5c0-0.3,0-0.6,0.1-0.9
		c0-0.1,0.1-0.6,0.2-0.3C225.4,214.1,225.3,214.2,225.3,214.4z"/>
	<path class="st0" d="M224.8,216c0,0.3,0,0.6-0.1,0.9c0,0.1-0.1,0.5-0.2,0.3c-0.1-0.2-0.1-0.3-0.1-0.5c0-0.3,0-0.6,0.1-0.9
		c0-0.1,0.1-0.6,0.2-0.3C224.8,215.7,224.8,215.8,224.8,216z"/>
	<path class="st0" d="M224.1,217.6c0,0.3,0,0.6-0.1,1c0,0.1-0.1,0.5-0.2,0.3c-0.1-0.2-0.1-0.3-0.1-0.5c0-0.3,0-0.6,0.1-1
		c0-0.1,0.1-0.5,0.2-0.3C224.1,217.3,224.1,217.4,224.1,217.6z"/>
	<path class="st0" d="M223.3,219.1c0,0.3,0,0.6-0.1,1c0,0.1-0.1,0.5-0.2,0.3c-0.1-0.2-0.1-0.3-0.1-0.5c0-0.3,0-0.6,0.1-1
		c0-0.1,0.1-0.5,0.2-0.3C223.3,218.8,223.3,219,223.3,219.1z"/>
	<path class="st0" d="M226.1,207.4c0,0.1,0,0.1,0,0.2"/>
	<path class="st0" d="M226,207.5c0-0.1,0-0.3,0.1-0.2"/>
	<path class="st0" d="M226.1,207.8c0,0.4,0.1,0.9-0.1,1.3"/>
	<path class="st0" d="M225.7,209c0.1,0.2,0.1,0.3,0.1,0.5"/>
	<path class="st0" d="M225.6,210.6c0-0.3,0-0.6,0-0.8c0-0.1,0-0.3,0-0.4c0-0.1,0-0.1,0-0.2c0-0.1,0-0.1,0.1-0.2"/>
	<path class="st0" d="M225.8,209.5c0,0.2,0,0.4,0,0.7c0,0.1,0,0.2,0,0.3c0,0.1,0.1,0.2-0.1,0.3"/>
	<path class="st0" d="M225.3,211.1c0,0.3,0,0.6-0.1,0.9c0,0.1-0.1,0.6-0.2,0.3c-0.1-0.2,0-0.3,0-0.5c0-0.3,0-0.6,0.1-0.9
		c0-0.1,0.1-0.6,0.2-0.3C225.4,210.8,225.3,210.9,225.3,211.1z"/>
	<path class="st0" d="M224.8,212.7c0,0.3,0,0.6-0.1,0.9c0,0.1-0.1,0.5-0.2,0.3c-0.1-0.2-0.1-0.3-0.1-0.5c0-0.3,0-0.6,0.1-0.9
		c0-0.1,0.1-0.6,0.2-0.3C224.8,212.4,224.8,212.5,224.8,212.7z"/>
	<path class="st0" d="M224.1,214.3c0,0.3,0,0.6-0.1,1c0,0.1-0.1,0.5-0.2,0.3c-0.1-0.2-0.1-0.3-0.1-0.5c0-0.3,0-0.6,0.1-1
		c0-0.1,0.1-0.5,0.2-0.3C224.1,213.9,224.1,214.1,224.1,214.3z"/>
	<path class="st0" d="M223.3,215.8c0,0.3,0,0.6-0.1,1c0,0.1-0.1,0.5-0.2,0.3c-0.1-0.2-0.1-0.3-0.1-0.5c0-0.3,0-0.6,0.1-1
		c0-0.1,0.1-0.5,0.2-0.3C223.3,215.5,223.3,215.7,223.3,215.8z"/>
	<path class="st0" d="M226.1,204c0,0.2,0,0.3,0,0.5"/>
	<path class="st0" d="M226,204.2c0-0.1,0-0.3,0.1-0.2"/>
	<path class="st0" d="M226.1,204.5c0,0.4,0.1,0.9-0.1,1.3"/>
	<path class="st0" d="M225.7,205.6c0.1,0.2,0.1,0.3,0.1,0.5"/>
	<path class="st0" d="M225.6,207.3c0-0.3,0-0.6,0-0.8c0-0.1,0-0.3,0-0.4c0-0.1,0-0.1,0-0.2c0-0.1,0-0.1,0.1-0.2"/>
	<path class="st0" d="M225.8,206.2c0,0.2,0,0.4,0,0.7c0,0.1,0,0.2,0,0.3c0,0.1,0.1,0.2-0.1,0.3"/>
	<path class="st0" d="M225.3,207.8c0,0.3,0,0.6-0.1,0.9c0,0.1-0.1,0.6-0.2,0.3c-0.1-0.2,0-0.3,0-0.5c0-0.3,0-0.6,0.1-0.9
		c0-0.1,0.1-0.6,0.2-0.3C225.4,207.4,225.3,207.6,225.3,207.8z"/>
	<path class="st0" d="M224.8,209.4c0,0.3,0,0.6-0.1,0.9c0,0.1-0.1,0.5-0.2,0.3c-0.1-0.2-0.1-0.3-0.1-0.5c0-0.3,0-0.6,0.1-0.9
		c0-0.1,0.1-0.6,0.2-0.3C224.8,209,224.8,209.2,224.8,209.4z"/>
	<path class="st0" d="M224.1,210.9c0,0.3,0,0.6-0.1,1c0,0.1-0.1,0.5-0.2,0.3c-0.1-0.2-0.1-0.3-0.1-0.5c0-0.3,0-0.6,0.1-1
		c0-0.1,0.1-0.5,0.2-0.3C224.1,210.6,224.1,210.8,224.1,210.9z"/>
	<path class="st0" d="M223.3,212.5c0,0.3,0,0.6-0.1,1c0,0.1-0.1,0.5-0.2,0.3c-0.1-0.2-0.1-0.3-0.1-0.5c0-0.3,0-0.6,0.1-1
		c0-0.1,0.1-0.5,0.2-0.3C223.3,212.2,223.3,212.3,223.3,212.5z"/>
	<path class="st0" d="M226.1,200.7c0,0.2,0,0.3,0,0.5"/>
	<path class="st0" d="M226,200.9c0-0.1,0-0.3,0.1-0.2"/>
	<path class="st0" d="M226.1,201.2c0,0.4,0.1,0.9-0.1,1.3"/>
	<path class="st0" d="M225.7,202.3c0.1,0.2,0.1,0.3,0.1,0.5"/>
	<path class="st0" d="M225.6,204c0-0.3,0-0.6,0-0.8c0-0.1,0-0.3,0-0.4c0-0.1,0-0.1,0-0.2c0-0.1,0-0.1,0.1-0.2"/>
	<path class="st0" d="M225.8,202.8c0,0.2,0,0.4,0,0.7c0,0.1,0,0.2,0,0.3c0,0.1,0.1,0.2-0.1,0.3"/>
	<path class="st0" d="M225.3,204.4c0,0.3,0,0.6-0.1,0.9c0,0.1-0.1,0.6-0.2,0.3c-0.1-0.2,0-0.3,0-0.5c0-0.3,0-0.6,0.1-0.9
		c0-0.1,0.1-0.6,0.2-0.3C225.4,204.1,225.3,204.3,225.3,204.4z"/>
	<path class="st0" d="M224.8,206c0,0.3,0,0.6-0.1,0.9c0,0.1-0.1,0.5-0.2,0.3c-0.1-0.2-0.1-0.3-0.1-0.5c0-0.3,0-0.6,0.1-0.9
		c0-0.1,0.1-0.6,0.2-0.3C224.8,205.7,224.8,205.9,224.8,206z"/>
	<path class="st0" d="M224.1,207.6c0,0.3,0,0.6-0.1,1c0,0.1-0.1,0.5-0.2,0.3c-0.1-0.2-0.1-0.3-0.1-0.5c0-0.3,0-0.6,0.1-1
		c0-0.1,0.1-0.5,0.2-0.3C224.1,207.3,224.1,207.5,224.1,207.6z"/>
	<path class="st0" d="M223.3,209.2c0,0.3,0,0.6-0.1,1c0,0.1-0.1,0.5-0.2,0.3c-0.1-0.2-0.1-0.3-0.1-0.5c0-0.3,0-0.6,0.1-1
		c0-0.1,0.1-0.5,0.2-0.3C223.3,208.9,223.3,209,223.3,209.2z"/>
	<path class="st0" d="M226.1,197.4c0,0.2,0,0.3,0,0.5"/>
	<path class="st0" d="M226,197.4C226,197.4,226.1,197.4,226,197.4"/>
	<path class="st0" d="M226.1,197.9c0,0.4,0.1,0.9-0.1,1.3"/>
	<path class="st0" d="M225.7,199c0.1,0.2,0.1,0.3,0.1,0.5"/>
	<path class="st0" d="M225.6,200.6c0-0.3,0-0.6,0-0.8c0-0.1,0-0.3,0-0.4c0-0.1,0-0.1,0-0.2c0-0.1,0-0.1,0.1-0.2"/>
	<path class="st0" d="M225.8,199.5c0,0.2,0,0.4,0,0.7c0,0.1,0,0.2,0,0.3c0,0.1,0.1,0.2-0.1,0.3"/>
	<path class="st0" d="M225.3,201.1c0,0.3,0,0.6-0.1,0.9c0,0.1-0.1,0.6-0.2,0.3c-0.1-0.2,0-0.3,0-0.5c0-0.3,0-0.6,0.1-0.9
		c0-0.1,0.1-0.6,0.2-0.3C225.4,200.8,225.3,201,225.3,201.1z"/>
	<path class="st0" d="M224.8,202.7c0,0.3,0,0.6-0.1,0.9c0,0.1-0.1,0.5-0.2,0.3c-0.1-0.2-0.1-0.3-0.1-0.5c0-0.3,0-0.6,0.1-0.9
		c0-0.1,0.1-0.6,0.2-0.3C224.8,202.4,224.8,202.6,224.8,202.7z"/>
	<path class="st0" d="M224.1,204.3c0,0.3,0,0.6-0.1,1c0,0.1-0.1,0.5-0.2,0.3c-0.1-0.2-0.1-0.3-0.1-0.5c0-0.3,0-0.6,0.1-1
		c0-0.1,0.1-0.5,0.2-0.3C224.1,204,224.1,204.1,224.1,204.3z"/>
	<path class="st0" d="M223.3,205.9c0,0.3,0,0.6-0.1,1c0,0.1-0.1,0.5-0.2,0.3c-0.1-0.2-0.1-0.3-0.1-0.5c0-0.3,0-0.6,0.1-1
		c0-0.1,0.1-0.5,0.2-0.3C223.3,205.5,223.3,205.7,223.3,205.9z"/>
	<path class="st0" d="M225.3,197.8c0,0.3,0,0.6-0.1,0.9c0,0.1-0.1,0.6-0.2,0.3c-0.1-0.2,0-0.3,0-0.5c0-0.3,0-0.6,0.1-0.9
		c0-0.1,0.1-0.6,0.2-0.3C225.4,197.5,225.3,197.6,225.3,197.8z"/>
	<path class="st0" d="M224.8,199.4c0,0.3,0,0.6-0.1,0.9c0,0.1-0.1,0.5-0.2,0.3c-0.1-0.2-0.1-0.3-0.1-0.5c0-0.3,0-0.6,0.1-0.9
		c0-0.1,0.1-0.6,0.2-0.3C224.8,199.1,224.8,199.2,224.8,199.4z"/>
	<path class="st0" d="M224.1,201c0,0.3,0,0.6-0.1,1c0,0.1-0.1,0.5-0.2,0.3c-0.1-0.2-0.1-0.3-0.1-0.5c0-0.3,0-0.6,0.1-1
		c0-0.1,0.1-0.5,0.2-0.3C224.1,200.7,224.1,200.8,224.1,201z"/>
	<path class="st0" d="M223.3,202.5c0,0.3,0,0.6-0.1,1c0,0.1-0.1,0.5-0.2,0.3c-0.1-0.2-0.1-0.3-0.1-0.5c0-0.3,0-0.6,0.1-1
		c0-0.1,0.1-0.5,0.2-0.3C223.3,202.2,223.3,202.4,223.3,202.5z"/>
	<path class="st0" d="M224.1,197.7c0,0.3,0,0.6-0.1,1c0,0.1-0.1,0.5-0.2,0.3c-0.1-0.2-0.1-0.3-0.1-0.5c0-0.3,0-0.6,0.1-1
		c0-0.1,0.1-0.5,0.2-0.3C224.1,197.3,224.1,197.5,224.1,197.7z"/>
	<path class="st0" d="M223.3,199.2c0,0.3,0,0.6-0.1,1c0,0.1-0.1,0.5-0.2,0.3c-0.1-0.2-0.1-0.3-0.1-0.5c0-0.3,0-0.6,0.1-1
		c0-0.1,0.1-0.5,0.2-0.3C223.3,198.9,223.3,199.1,223.3,199.2z"/>
	<path class="st0" d="M226.3,199.2c0,0.1,0,0.3,0,0.4"/>
	<path class="st0" d="M226.2,199.2C226.2,199.1,226.3,199.1,226.2,199.2"/>
	<path class="st0" d="M226.3,199.6c0,0.4,0,0.8,0,1.2"/>
	<path class="st0" d="M226.3,202.5c0,0.1,0,0.3,0,0.4"/>
	<path class="st0" d="M226.2,202.6c0-0.1,0-0.1,0-0.2"/>
	<path class="st0" d="M226.3,202.9c0,0.4,0,0.8,0,1.2"/>
	<path class="st0" d="M226.3,206c0,0.1,0,0.1,0,0.2"/>
	<path class="st0" d="M226.3,205.7c0,0.1,0,0.1,0,0.2"/>
	<path class="st0" d="M226.2,205.9c0-0.1-0.1-0.1,0-0.2"/>
	<path class="st0" d="M226.3,206.2c0,0.4,0,0.8,0,1.2"/>
	<path class="st0" d="M226.3,209.4c0,0.1,0,0.1,0,0.2"/>
	<path class="st0" d="M226.3,209c0,0.1,0,0.1,0,0.2"/>
	<path class="st0" d="M226.2,209.2c0-0.1-0.1-0.1,0-0.2"/>
	<path class="st0" d="M226.3,209.5c0,0.4,0,0.8,0,1.2"/>
	<path class="st0" d="M226.3,212.7c0,0.1,0,0.1,0,0.2"/>
	<path class="st0" d="M226.3,212.4c0,0.1,0,0.1,0,0.2"/>
	<path class="st0" d="M226.2,212.5c0-0.1-0.1-0.1,0-0.2"/>
	<path class="st0" d="M226.3,212.8c0,0.4,0,0.8,0,1.2"/>
	<path class="st0" d="M226.3,209.6c0-0.1,0-0.3,0-0.4"/>
	<path class="st0" d="M226.3,210.7c0,0,0-0.1,0-0.1"/>
	<path class="st0" d="M226.3,216c0,0.1,0,0.1,0,0.2"/>
	<path class="st0" d="M226.3,215.7c0,0.1,0,0.1,0,0.2"/>
	<path class="st0" d="M226.2,215.9c0-0.1-0.1-0.1,0-0.2"/>
	<path class="st0" d="M226.3,216.2c0,0.4,0,0.8,0,1.2"/>
	<path class="st0" d="M226.3,213c0-0.1,0-0.3,0-0.4"/>
	<path class="st0" d="M226.3,214c0,0,0-0.1,0-0.1"/>
	<path class="st0" d="M222.4,227.3c0,0.3,0,0.7-0.2,1c-0.1,0.1-0.1,0.5-0.3,0.3c-0.1-0.2-0.1-0.3-0.1-0.5c0-0.3,0-0.7,0.2-1
		c0.1-0.1,0.1-0.5,0.3-0.3C222.4,227,222.4,227.2,222.4,227.3z"/>
	<path class="st0" d="M221.3,228.9c0,0.3,0,0.7-0.2,1c-0.1,0.2-0.1,0.5-0.3,0.3c-0.1-0.2-0.1-0.3-0.1-0.5c0-0.3,0-0.7,0.2-1
		c0.1-0.1,0.1-0.5,0.3-0.3C221.4,228.5,221.3,228.7,221.3,228.9z"/>
	<path class="st0" d="M220.2,230.4c0,0.4-0.1,0.7-0.2,1c-0.1,0.2-0.1,0.5-0.3,0.3c-0.1-0.2-0.1-0.3-0.1-0.5c0-0.3,0.1-0.7,0.2-1
		c0.1-0.2,0.1-0.5,0.3-0.3C220.2,230.1,220.2,230.2,220.2,230.4"/>
	<path class="st0" d="M218.9,231.9c0,0.4-0.1,0.7-0.2,1c-0.1,0.2-0.2,0.5-0.4,0.2c-0.1-0.2-0.1-0.3-0.1-0.5c0-0.4,0.1-0.7,0.2-1
		c0.1-0.2,0.2-0.5,0.4-0.3C218.9,231.6,218.9,231.7,218.9,231.9z"/>
	<path class="st0" d="M217.5,233.4c0,0.4-0.1,0.7-0.2,1c-0.3,0.5-0.5,0.2-0.5-0.3c0-0.4,0.1-0.7,0.2-1
		C217.2,232.7,217.5,232.9,217.5,233.4z"/>
	<path class="st0" d="M215.9,234.9c0,0.4-0.1,0.7-0.3,1c-0.3,0.5-0.5,0.2-0.5-0.3c0-0.4,0.1-0.7,0.3-1
		C215.7,234.1,215.9,234.4,215.9,234.9z"/>
	<path class="st0" d="M222.4,224c0,0.3,0,0.7-0.2,1c-0.1,0.1-0.1,0.5-0.3,0.3c-0.1-0.2-0.1-0.3-0.1-0.5c0-0.3,0-0.7,0.2-1
		c0.1-0.1,0.1-0.5,0.3-0.3C222.4,223.7,222.4,223.8,222.4,224z"/>
	<path class="st0" d="M221.3,225.6c0,0.3,0,0.7-0.2,1c-0.1,0.2-0.1,0.5-0.3,0.3c-0.1-0.2-0.1-0.3-0.1-0.5c0-0.3,0-0.7,0.2-1
		c0.1-0.1,0.1-0.5,0.3-0.3C221.4,225.2,221.3,225.4,221.3,225.6z"/>
	<path class="st0" d="M220.2,227.1c0,0.4-0.1,0.7-0.2,1c-0.1,0.2-0.1,0.5-0.3,0.3c-0.1-0.2-0.1-0.3-0.1-0.5c0-0.3,0.1-0.7,0.2-1
		c0.1-0.2,0.1-0.5,0.3-0.3C220.2,226.7,220.2,226.9,220.2,227.1z"/>
	<path class="st0" d="M218.9,228.6c0,0.4-0.1,0.7-0.2,1c-0.1,0.2-0.2,0.5-0.4,0.2c-0.1-0.2-0.1-0.3-0.1-0.5c0-0.4,0.1-0.7,0.2-1
		c0.1-0.2,0.2-0.5,0.4-0.3C218.9,228.3,218.9,228.4,218.9,228.6z"/>
	<path class="st0" d="M217.5,230.1c0,0.4-0.1,0.7-0.2,1c-0.3,0.5-0.5,0.2-0.5-0.3c0-0.4,0.1-0.7,0.2-1
		C217.2,229.3,217.5,229.6,217.5,230.1z"/>
	<path class="st0" d="M215.9,231.6c0,0.4-0.1,0.7-0.3,1c-0.3,0.5-0.5,0.2-0.5-0.3c0-0.4,0.1-0.7,0.3-1
		C215.7,230.8,215.9,231.1,215.9,231.6z"/>
	<path class="st0" d="M222.4,220.7c0,0.3,0,0.7-0.2,1c-0.1,0.1-0.1,0.5-0.3,0.3c-0.1-0.2-0.1-0.3-0.1-0.5c0-0.3,0-0.7,0.2-1
		c0.1-0.1,0.1-0.5,0.3-0.3C222.4,220.4,222.4,220.5,222.4,220.7z"/>
	<path class="st0" d="M221.3,222.2c0,0.3,0,0.7-0.2,1c-0.1,0.2-0.1,0.5-0.3,0.3c-0.1-0.2-0.1-0.3-0.1-0.5c0-0.3,0-0.7,0.2-1
		c0.1-0.1,0.1-0.5,0.3-0.3C221.4,221.9,221.3,222.1,221.3,222.2z"/>
	<path class="st0" d="M220.2,223.8c0,0.4-0.1,0.7-0.2,1c-0.1,0.2-0.1,0.5-0.3,0.3c-0.1-0.2-0.1-0.3-0.1-0.5c0-0.3,0.1-0.7,0.2-1
		c0.1-0.2,0.1-0.5,0.3-0.3C220.2,223.4,220.2,223.6,220.2,223.8z"/>
	<path class="st0" d="M218.9,225.3c0,0.4-0.1,0.7-0.2,1c-0.1,0.2-0.2,0.5-0.4,0.2c-0.1-0.2-0.1-0.3-0.1-0.5c0-0.4,0.1-0.7,0.2-1
		c0.1-0.2,0.2-0.5,0.4-0.3C218.9,224.9,218.9,225.1,218.9,225.3z"/>
	<path class="st0" d="M217.5,226.8c0,0.4-0.1,0.7-0.2,1c-0.3,0.5-0.5,0.2-0.5-0.3c0-0.4,0.1-0.7,0.2-1
		C217.2,226,217.5,226.3,217.5,226.8z"/>
	<path class="st0" d="M215.9,228.3c0,0.4-0.1,0.7-0.3,1c-0.3,0.5-0.5,0.2-0.5-0.3c0-0.4,0.1-0.7,0.3-1
		C215.7,227.5,215.9,227.7,215.9,228.3z"/>
	<path class="st0" d="M222.4,217.4c0,0.3,0,0.7-0.2,1c-0.1,0.1-0.1,0.5-0.3,0.3c-0.1-0.2-0.1-0.3-0.1-0.5c0-0.3,0-0.7,0.2-1
		c0.1-0.1,0.1-0.5,0.3-0.3C222.4,217.1,222.4,217.2,222.4,217.4z"/>
	<path class="st0" d="M221.3,218.9c0,0.3,0,0.7-0.2,1c-0.1,0.2-0.1,0.5-0.3,0.3c-0.1-0.2-0.1-0.3-0.1-0.5c0-0.3,0-0.7,0.2-1
		c0.1-0.1,0.1-0.5,0.3-0.3C221.4,218.6,221.3,218.7,221.3,218.9z"/>
	<path class="st0" d="M220.2,220.4c0,0.4-0.1,0.7-0.2,1c-0.1,0.2-0.1,0.5-0.3,0.3c-0.1-0.2-0.1-0.3-0.1-0.5c0-0.3,0.1-0.7,0.2-1
		c0.1-0.2,0.1-0.5,0.3-0.3C220.2,220.1,220.2,220.3,220.2,220.4z"/>
	<path class="st0" d="M218.9,222c0,0.4-0.1,0.7-0.2,1c-0.1,0.2-0.2,0.5-0.4,0.2c-0.1-0.2-0.1-0.3-0.1-0.5c0-0.4,0.1-0.7,0.2-1
		c0.1-0.2,0.2-0.5,0.4-0.3C218.9,221.6,218.9,221.8,218.9,222z"/>
	<path class="st0" d="M217.5,223.4c0,0.4-0.1,0.7-0.2,1c-0.3,0.5-0.5,0.2-0.5-0.3c0-0.4,0.1-0.7,0.2-1
		C217.2,222.7,217.5,222.9,217.5,223.4z"/>
	<path class="st0" d="M215.9,224.9c0,0.4-0.1,0.7-0.3,1c-0.3,0.5-0.5,0.2-0.5-0.3c0-0.4,0.1-0.7,0.3-1
		C215.7,224.2,215.9,224.4,215.9,224.9z"/>
	<path class="st0" d="M222.4,214.1c0,0.3,0,0.7-0.2,1c-0.1,0.1-0.1,0.5-0.3,0.3c-0.1-0.2-0.1-0.3-0.1-0.5c0-0.3,0-0.7,0.2-1
		c0.1-0.1,0.1-0.5,0.3-0.3C222.4,213.7,222.4,213.9,222.4,214.1z"/>
	<path class="st0" d="M221.3,215.6c0,0.3,0,0.7-0.2,1c-0.1,0.2-0.1,0.5-0.3,0.3c-0.1-0.2-0.1-0.3-0.1-0.5c0-0.3,0-0.7,0.2-1
		c0.1-0.1,0.1-0.5,0.3-0.3C221.4,215.3,221.3,215.4,221.3,215.6z"/>
	<path class="st0" d="M220.2,217.1c0,0.4-0.1,0.7-0.2,1c-0.1,0.2-0.1,0.5-0.3,0.3c-0.1-0.2-0.1-0.3-0.1-0.5c0-0.3,0.1-0.7,0.2-1
		c0.1-0.2,0.1-0.5,0.3-0.3C220.2,216.8,220.2,217,220.2,217.1z"/>
	<path class="st0" d="M218.9,218.6c0,0.4-0.1,0.7-0.2,1c-0.1,0.2-0.2,0.5-0.4,0.2c-0.1-0.2-0.1-0.3-0.1-0.5c0-0.4,0.1-0.7,0.2-1
		c0.1-0.2,0.2-0.5,0.4-0.3C218.9,218.3,218.9,218.5,218.9,218.6z"/>
	<path class="st0" d="M217.5,220.1c0,0.4-0.1,0.7-0.2,1c-0.3,0.5-0.5,0.2-0.5-0.3c0-0.4,0.1-0.7,0.2-1
		C217.2,219.4,217.5,219.6,217.5,220.1z"/>
	<path class="st0" d="M215.9,221.6c0,0.4-0.1,0.7-0.3,1c-0.3,0.5-0.5,0.2-0.5-0.3c0-0.4,0.1-0.7,0.3-1
		C215.7,220.9,215.9,221.1,215.9,221.6z"/>
	<path class="st0" d="M222.4,210.7c0,0.3,0,0.7-0.2,1c-0.1,0.1-0.1,0.5-0.3,0.3c-0.1-0.2-0.1-0.3-0.1-0.5c0-0.3,0-0.7,0.2-1
		c0.1-0.1,0.1-0.5,0.3-0.3C222.4,210.4,222.4,210.6,222.4,210.7z"/>
	<path class="st0" d="M221.3,212.3c0,0.3,0,0.7-0.2,1c-0.1,0.2-0.1,0.5-0.3,0.3c-0.1-0.2-0.1-0.3-0.1-0.5c0-0.3,0-0.7,0.2-1
		c0.1-0.1,0.1-0.5,0.3-0.3C221.4,212,221.3,212.1,221.3,212.3z"/>
	<path class="st0" d="M220.2,213.8c0,0.4-0.1,0.7-0.2,1c-0.1,0.2-0.1,0.5-0.3,0.3c-0.1-0.2-0.1-0.3-0.1-0.5c0-0.3,0.1-0.7,0.2-1
		c0.1-0.2,0.1-0.5,0.3-0.3C220.2,213.5,220.2,213.6,220.2,213.8z"/>
	<path class="st0" d="M218.9,215.3c0,0.4-0.1,0.7-0.2,1c-0.1,0.2-0.2,0.5-0.4,0.2c-0.1-0.2-0.1-0.3-0.1-0.5c0-0.4,0.1-0.7,0.2-1
		c0.1-0.2,0.2-0.5,0.4-0.3C218.9,215,218.9,215.1,218.9,215.3z"/>
	<path class="st0" d="M217.5,216.8c0,0.4-0.1,0.7-0.2,1c-0.3,0.5-0.5,0.2-0.5-0.3c0-0.4,0.1-0.7,0.2-1
		C217.2,216.1,217.5,216.3,217.5,216.8z"/>
	<path class="st0" d="M215.9,218.3c0,0.4-0.1,0.7-0.3,1c-0.3,0.5-0.5,0.2-0.5-0.3c0-0.4,0.1-0.7,0.3-1
		C215.7,217.5,215.9,217.8,215.9,218.3z"/>
	<path class="st0" d="M222.4,207.4c0,0.3,0,0.7-0.2,1c-0.1,0.1-0.1,0.5-0.3,0.3c-0.1-0.2-0.1-0.3-0.1-0.5c0-0.3,0-0.7,0.2-1
		c0.1-0.1,0.1-0.5,0.3-0.3C222.4,207.1,222.4,207.3,222.4,207.4z"/>
	<path class="st0" d="M221.3,209c0,0.3,0,0.7-0.2,1c-0.1,0.2-0.1,0.5-0.3,0.3c-0.1-0.2-0.1-0.3-0.1-0.5c0-0.3,0-0.7,0.2-1
		c0.1-0.1,0.1-0.5,0.3-0.3C221.4,208.6,221.3,208.8,221.3,209z"/>
	<path class="st0" d="M220.2,210.5c0,0.4-0.1,0.7-0.2,1c-0.1,0.2-0.1,0.5-0.3,0.3c-0.1-0.2-0.1-0.3-0.1-0.5c0-0.3,0.1-0.7,0.2-1
		c0.1-0.2,0.1-0.5,0.3-0.3C220.2,210.2,220.2,210.3,220.2,210.5z"/>
	<path class="st0" d="M218.9,212c0,0.4-0.1,0.7-0.2,1c-0.1,0.2-0.2,0.5-0.4,0.2c-0.1-0.2-0.1-0.3-0.1-0.5c0-0.4,0.1-0.7,0.2-1
		c0.1-0.2,0.2-0.5,0.4-0.3C218.9,211.7,218.9,211.8,218.9,212z"/>
	<path class="st0" d="M217.5,213.5c0,0.4-0.1,0.7-0.2,1c-0.3,0.5-0.5,0.2-0.5-0.3c0-0.4,0.1-0.7,0.2-1
		C217.2,212.7,217.5,213,217.5,213.5z"/>
	<path class="st0" d="M215.9,215c0,0.4-0.1,0.7-0.3,1c-0.3,0.5-0.5,0.2-0.5-0.3c0-0.4,0.1-0.7,0.3-1
		C215.7,214.2,215.9,214.5,215.9,215z"/>
	<path class="st0" d="M222.4,204.1c0,0.3,0,0.7-0.2,1c-0.1,0.1-0.1,0.5-0.3,0.3c-0.1-0.2-0.1-0.3-0.1-0.5c0-0.3,0-0.7,0.2-1
		c0.1-0.1,0.1-0.5,0.3-0.3C222.4,203.8,222.4,203.9,222.4,204.1z"/>
	<path class="st0" d="M221.3,205.6c0,0.3,0,0.7-0.2,1c-0.1,0.2-0.1,0.5-0.3,0.3c-0.1-0.2-0.1-0.3-0.1-0.5c0-0.3,0-0.7,0.2-1
		c0.1-0.1,0.1-0.5,0.3-0.3C221.4,205.3,221.3,205.5,221.3,205.6z"/>
	<path class="st0" d="M220.2,207.2c0,0.4-0.1,0.7-0.2,1c-0.1,0.2-0.1,0.5-0.3,0.3c-0.1-0.2-0.1-0.3-0.1-0.5c0-0.3,0.1-0.7,0.2-1
		c0.1-0.2,0.1-0.5,0.3-0.3C220.2,206.8,220.2,207,220.2,207.2z"/>
	<path class="st0" d="M218.9,208.7c0,0.4-0.1,0.7-0.2,1c-0.1,0.2-0.2,0.5-0.4,0.2c-0.1-0.2-0.1-0.3-0.1-0.5c0-0.4,0.1-0.7,0.2-1
		c0.1-0.2,0.2-0.5,0.4-0.3C218.9,208.3,218.9,208.5,218.9,208.7z"/>
	<path class="st0" d="M217.5,210.2c0,0.4-0.1,0.7-0.2,1c-0.3,0.5-0.5,0.2-0.5-0.3c0-0.4,0.1-0.7,0.2-1
		C217.2,209.4,217.5,209.7,217.5,210.2z"/>
	<path class="st0" d="M222.4,200.8c0,0.3,0,0.7-0.2,1c-0.1,0.1-0.1,0.5-0.3,0.3c-0.1-0.2-0.1-0.3-0.1-0.5c0-0.3,0-0.7,0.2-1
		c0.1-0.1,0.1-0.5,0.3-0.3C222.4,200.5,222.4,200.6,222.4,200.8z"/>
	<path class="st0" d="M221.3,202.3c0,0.3,0,0.7-0.2,1c-0.1,0.2-0.1,0.5-0.3,0.3c-0.1-0.2-0.1-0.3-0.1-0.5c0-0.3,0-0.7,0.2-1
		c0.1-0.1,0.1-0.5,0.3-0.3C221.4,202,221.3,202.2,221.3,202.3z"/>
	<path class="st0" d="M220.2,203.8c0,0.4-0.1,0.7-0.2,1c-0.1,0.2-0.1,0.5-0.3,0.3c-0.1-0.2-0.1-0.3-0.1-0.5c0-0.3,0.1-0.7,0.2-1
		c0.1-0.2,0.1-0.5,0.3-0.3C220.2,203.5,220.2,203.7,220.2,203.8z"/>
	<path class="st0" d="M214.3,219.8c0,0.4-0.1,0.7-0.3,1c-0.3,0.5-0.6,0.2-0.6-0.3c0-0.4,0.1-0.7,0.3-1
		C214,219,214.3,219.3,214.3,219.8z"/>
	<path class="st0" d="M212.5,224.5c0,0.4-0.1,0.7-0.3,1c-0.3,0.4-0.6,0.2-0.6-0.3c0-0.4,0.1-0.7,0.3-1
		C212.2,223.8,212.5,224,212.5,224.5z"/>
	<path class="st0" d="M214.3,223.1c0,0.4-0.1,0.7-0.3,1c-0.3,0.5-0.6,0.2-0.6-0.3c0-0.4,0.1-0.7,0.3-1
		C214,222.3,214.3,222.6,214.3,223.1z"/>
	<path class="st0" d="M212.5,227.9c0,0.4-0.1,0.7-0.3,1c-0.3,0.4-0.6,0.2-0.6-0.3c0-0.4,0.1-0.7,0.3-1
		C212.2,227.1,212.5,227.3,212.5,227.9z"/>
	<path class="st0" d="M214.3,226.4c0,0.4-0.1,0.7-0.3,1c-0.3,0.5-0.6,0.2-0.6-0.3c0-0.4,0.1-0.7,0.3-1
		C214,225.6,214.3,225.9,214.3,226.4z"/>
	<path class="st0" d="M210.6,232.6c0,0.4-0.1,0.7-0.4,1c-0.3,0.4-0.7,0.2-0.7-0.3c0-0.4,0.1-0.7,0.4-1
		C210.3,231.9,210.6,232.1,210.6,232.6z"/>
	<path class="st0" d="M212.5,231.2c0,0.4-0.1,0.7-0.3,1c-0.3,0.4-0.6,0.2-0.6-0.3c0-0.4,0.1-0.7,0.3-1
		C212.2,230.4,212.5,230.7,212.5,231.2z"/>
	<path class="st0" d="M214.3,229.7c0,0.4-0.1,0.7-0.3,1c-0.3,0.5-0.6,0.2-0.6-0.3c0-0.4,0.1-0.7,0.3-1
		C214,229,214.3,229.2,214.3,229.7z"/>
	<path class="st0" d="M210.6,235.9c0,0.4-0.1,0.7-0.4,1c-0.3,0.4-0.7,0.2-0.7-0.3c0-0.4,0.1-0.7,0.4-1
		C210.3,235.2,210.6,235.4,210.6,235.9z"/>
	<path class="st0" d="M212.5,234.5c0,0.4-0.1,0.7-0.3,1c-0.3,0.4-0.6,0.2-0.6-0.3c0-0.4,0.1-0.7,0.3-1
		C212.2,233.7,212.5,234,212.5,234.5z"/>
	<path class="st0" d="M214.3,233c0,0.4-0.1,0.7-0.3,1c-0.3,0.5-0.6,0.2-0.6-0.3c0-0.4,0.1-0.7,0.3-1
		C214,232.3,214.3,232.5,214.3,233z"/>
	<path class="st0" d="M210.6,239.2c0,0.4-0.1,0.7-0.4,1c-0.3,0.4-0.7,0.2-0.7-0.3c0-0.4,0.1-0.7,0.4-1
		C210.3,238.5,210.6,238.7,210.6,239.2z"/>
	<path class="st0" d="M212.5,237.8c0,0.4-0.1,0.7-0.3,1c-0.3,0.4-0.6,0.2-0.6-0.3c0-0.4,0.1-0.7,0.3-1
		C212.2,237.1,212.5,237.3,212.5,237.8z"/>
	<path class="st0" d="M214.3,236.4c0,0.4-0.1,0.7-0.3,1c-0.3,0.5-0.6,0.2-0.6-0.3c0-0.4,0.1-0.7,0.3-1
		C214,235.6,214.3,235.8,214.3,236.4z"/>
	<path class="st0" d="M214.3,256.3c0,0.4-0.1,0.7-0.3,1c-0.3,0.5-0.6,0.2-0.6-0.3c0-0.4,0.1-0.7,0.3-1
		C214,255.5,214.3,255.8,214.3,256.3z"/>
	<path class="st0" d="M214.3,252.9c0,0.4-0.1,0.7-0.3,1c-0.3,0.5-0.6,0.2-0.6-0.3c0-0.4,0.1-0.7,0.3-1
		C214,252.2,214.3,252.4,214.3,252.9z"/>
	<path class="st0" d="M214.3,249.6c0,0.4-0.1,0.7-0.3,1c-0.3,0.5-0.6,0.2-0.6-0.3c0-0.4,0.1-0.7,0.3-1
		C214,248.9,214.3,249.1,214.3,249.6z"/>
	<path class="st0" d="M212.5,251.1c0,0.4-0.1,0.7-0.3,1c-0.3,0.4-0.6,0.2-0.6-0.3c0-0.4,0.1-0.7,0.3-1
		C212.2,250.3,212.5,250.6,212.5,251.1"/>
	<path class="st0" d="M214.3,246.3c0,0.4-0.1,0.7-0.3,1c-0.3,0.5-0.6,0.2-0.6-0.3c0-0.4,0.1-0.7,0.3-1
		C214,245.6,214.3,245.8,214.3,246.3z"/>
	<path class="st0" d="M212.5,247.8c0,0.4-0.1,0.7-0.3,1c-0.3,0.4-0.6,0.2-0.6-0.3c0-0.4,0.1-0.7,0.3-1
		C212.2,247,212.5,247.3,212.5,247.8z"/>
	<path class="st0" d="M214.3,243c0,0.4-0.1,0.7-0.3,1c-0.3,0.5-0.6,0.2-0.6-0.3c0-0.4,0.1-0.7,0.3-1
		C214,242.2,214.3,242.5,214.3,243z"/>
	<path class="st0" d="M212.5,244.4c0,0.4-0.1,0.7-0.3,1c-0.3,0.4-0.6,0.2-0.6-0.3c0-0.4,0.1-0.7,0.3-1
		C212.2,243.7,212.5,243.9,212.5,244.4z"/>
	<path class="st0" d="M210.6,245.9c0,0.4-0.1,0.7-0.4,1c-0.3,0.4-0.7,0.2-0.7-0.3c0-0.4,0.1-0.7,0.4-1
		C210.3,245.1,210.6,245.4,210.6,245.9z"/>
	<path class="st0" d="M214.3,239.7c0,0.4-0.1,0.7-0.3,1c-0.3,0.5-0.6,0.2-0.6-0.3c0-0.4,0.1-0.7,0.3-1
		C214,238.9,214.3,239.2,214.3,239.7z"/>
	<path class="st0" d="M212.5,241.1c0,0.4-0.1,0.7-0.3,1c-0.3,0.4-0.6,0.2-0.6-0.3c0-0.4,0.1-0.7,0.3-1
		C212.2,240.4,212.5,240.6,212.5,241.1z"/>
	<path class="st0" d="M210.6,242.6c0,0.4-0.1,0.7-0.4,1c-0.3,0.4-0.7,0.2-0.7-0.3c0-0.4,0.1-0.7,0.4-1
		C210.3,241.8,210.6,242,210.6,242.6z"/>
	<path class="st0" d="M215.9,238.2c0,0.4-0.1,0.7-0.3,1c-0.3,0.5-0.5,0.2-0.5-0.3c0-0.4,0.1-0.7,0.3-1
		C215.7,237.5,215.9,237.7,215.9,238.2z"/>
	<path class="st0" d="M217.5,236.7c0,0.4-0.1,0.7-0.2,1c-0.3,0.5-0.5,0.2-0.5-0.3c0-0.4,0.1-0.7,0.2-1
		C217.2,236,217.5,236.2,217.5,236.7z"/>
	<path class="st0" d="M218.9,235.2c0,0.4-0.1,0.7-0.2,1c-0.1,0.2-0.2,0.5-0.4,0.2c-0.1-0.2-0.1-0.3-0.1-0.5c0-0.4,0.1-0.7,0.2-1
		c0.1-0.2,0.2-0.5,0.4-0.3C218.9,234.9,218.9,235.1,218.9,235.2z"/>
	<path class="st0" d="M220.2,233.7c0,0.4-0.1,0.7-0.2,1c-0.1,0.2-0.1,0.5-0.3,0.3c-0.1-0.2-0.1-0.3-0.1-0.5c0-0.3,0.1-0.7,0.2-1
		c0.1-0.2,0.1-0.5,0.3-0.3C220.2,233.4,220.2,233.5,220.2,233.7"/>
	<path class="st0" d="M221.3,232.2c0,0.3,0,0.7-0.2,1c-0.1,0.2-0.1,0.5-0.3,0.3c-0.1-0.2-0.1-0.3-0.1-0.5c0-0.3,0-0.7,0.2-1
		c0.1-0.1,0.1-0.5,0.3-0.3C221.4,231.9,221.3,232,221.3,232.2z"/>
	<path class="st0" d="M222.4,230.7c0,0.3,0,0.7-0.2,1c-0.1,0.1-0.1,0.5-0.3,0.3c-0.1-0.2-0.1-0.3-0.1-0.5c0-0.3,0-0.7,0.2-1
		c0.1-0.1,0.1-0.5,0.3-0.3C222.4,230.3,222.4,230.5,222.4,230.7z"/>
	<path class="st0" d="M215.9,241.5c0,0.4-0.1,0.7-0.3,1c-0.3,0.5-0.5,0.2-0.5-0.3c0-0.4,0.1-0.7,0.3-1
		C215.7,240.8,215.9,241,215.9,241.5z"/>
	<path class="st0" d="M217.5,240c0,0.4-0.1,0.7-0.2,1c-0.3,0.5-0.5,0.2-0.5-0.3c0-0.4,0.1-0.7,0.2-1
		C217.2,239.3,217.5,239.5,217.5,240z"/>
	<path class="st0" d="M218.9,238.5c0,0.4-0.1,0.7-0.2,1c-0.1,0.2-0.2,0.5-0.4,0.2c-0.1-0.2-0.1-0.3-0.1-0.5c0-0.4,0.1-0.7,0.2-1
		c0.1-0.2,0.2-0.5,0.4-0.3C218.9,238.2,218.9,238.4,218.9,238.5z"/>
	<path class="st0" d="M220.2,237c0,0.4-0.1,0.7-0.2,1c-0.1,0.2-0.1,0.5-0.3,0.3c-0.1-0.2-0.1-0.3-0.1-0.5c0-0.3,0.1-0.7,0.2-1
		c0.1-0.2,0.1-0.5,0.3-0.3C220.2,236.7,220.2,236.9,220.2,237"/>
	<path class="st0" d="M221.3,235.5c0,0.3,0,0.7-0.2,1c-0.1,0.2-0.1,0.5-0.3,0.3c-0.1-0.2-0.1-0.3-0.1-0.5c0-0.3,0-0.7,0.2-1
		c0.1-0.1,0.1-0.5,0.3-0.3C221.4,235.2,221.3,235.3,221.3,235.5z"/>
	<path class="st0" d="M222.4,234c0,0.3,0,0.7-0.2,1c-0.1,0.1-0.1,0.5-0.3,0.3c-0.1-0.2-0.1-0.3-0.1-0.5c0-0.3,0-0.7,0.2-1
		c0.1-0.1,0.1-0.5,0.3-0.3C222.4,233.6,222.4,233.8,222.4,234z"/>
	<path class="st0" d="M215.9,244.8c0,0.4-0.1,0.7-0.3,1c-0.3,0.5-0.5,0.2-0.5-0.3c0-0.4,0.1-0.7,0.3-1
		C215.7,244.1,215.9,244.3,215.9,244.8z"/>
	<path class="st0" d="M217.5,243.4c0,0.4-0.1,0.7-0.2,1c-0.3,0.5-0.5,0.2-0.5-0.3c0-0.4,0.1-0.7,0.2-1
		C217.2,242.6,217.5,242.9,217.5,243.4z"/>
	<path class="st0" d="M218.9,241.9c0,0.4-0.1,0.7-0.2,1c-0.1,0.2-0.2,0.5-0.4,0.2c-0.1-0.2-0.1-0.3-0.1-0.5c0-0.4,0.1-0.7,0.2-1
		c0.1-0.2,0.2-0.5,0.4-0.3C218.9,241.5,218.9,241.7,218.9,241.9z"/>
	<path class="st0" d="M220.2,240.4c0,0.4-0.1,0.7-0.2,1c-0.1,0.2-0.1,0.5-0.3,0.3c-0.1-0.2-0.1-0.3-0.1-0.5c0-0.3,0.1-0.7,0.2-1
		c0.1-0.2,0.1-0.5,0.3-0.3C220.2,240,220.2,240.2,220.2,240.4"/>
	<path class="st0" d="M221.3,238.8c0,0.3,0,0.7-0.2,1c-0.1,0.2-0.1,0.5-0.3,0.3c-0.1-0.2-0.1-0.3-0.1-0.5c0-0.3,0-0.7,0.2-1
		c0.1-0.1,0.1-0.5,0.3-0.3C221.4,238.5,221.3,238.7,221.3,238.8z"/>
	<path class="st0" d="M222.4,237.3c0,0.3,0,0.7-0.2,1c-0.1,0.1-0.1,0.5-0.3,0.3c-0.1-0.2-0.1-0.3-0.1-0.5c0-0.3,0-0.7,0.2-1
		c0.1-0.1,0.1-0.5,0.3-0.3C222.4,237,222.4,237.1,222.4,237.3z"/>
	<path class="st0" d="M215.9,248.2c0,0.4-0.1,0.7-0.3,1c-0.3,0.5-0.5,0.2-0.5-0.3c0-0.4,0.1-0.7,0.3-1
		C215.7,247.4,215.9,247.7,215.9,248.2z"/>
	<path class="st0" d="M217.5,246.7c0,0.4-0.1,0.7-0.2,1c-0.3,0.5-0.5,0.2-0.5-0.3c0-0.4,0.1-0.7,0.2-1
		C217.2,245.9,217.5,246.2,217.5,246.7z"/>
	<path class="st0" d="M218.9,245.2c0,0.4-0.1,0.7-0.2,1c-0.1,0.2-0.2,0.5-0.4,0.2c-0.1-0.2-0.1-0.3-0.1-0.5c0-0.4,0.1-0.7,0.2-1
		c0.1-0.2,0.2-0.5,0.4-0.3C218.9,244.8,218.9,245,218.9,245.2z"/>
	<path class="st0" d="M220.2,243.7c0,0.4-0.1,0.7-0.2,1c-0.1,0.2-0.1,0.5-0.3,0.3c-0.1-0.2-0.1-0.3-0.1-0.5c0-0.3,0.1-0.7,0.2-1
		c0.1-0.2,0.1-0.5,0.3-0.3C220.2,243.3,220.2,243.5,220.2,243.7"/>
	<path class="st0" d="M221.3,242.1c0,0.3,0,0.7-0.2,1c-0.1,0.2-0.1,0.5-0.3,0.3c-0.1-0.2-0.1-0.3-0.1-0.5c0-0.3,0-0.7,0.2-1
		c0.1-0.1,0.1-0.5,0.3-0.3C221.4,241.8,221.3,242,221.3,242.1z"/>
	<path class="st0" d="M222.4,240.6c0,0.3,0,0.7-0.2,1c-0.1,0.1-0.1,0.5-0.3,0.3c-0.1-0.2-0.1-0.3-0.1-0.5c0-0.3,0-0.7,0.2-1
		c0.1-0.1,0.1-0.5,0.3-0.3C222.4,240.3,222.4,240.4,222.4,240.6z"/>
	<path class="st0" d="M215.9,251.5c0,0.4-0.1,0.7-0.3,1c-0.3,0.5-0.5,0.2-0.5-0.3c0-0.4,0.1-0.7,0.3-1
		C215.7,250.7,215.9,251,215.9,251.5z"/>
	<path class="st0" d="M217.5,250c0,0.4-0.1,0.7-0.2,1c-0.3,0.5-0.5,0.2-0.5-0.3c0-0.4,0.1-0.7,0.2-1
		C217.2,249.3,217.5,249.5,217.5,250z"/>
	<path class="st0" d="M218.9,248.5c0,0.4-0.1,0.7-0.2,1c-0.1,0.2-0.2,0.5-0.4,0.2c-0.1-0.2-0.1-0.3-0.1-0.5c0-0.4,0.1-0.7,0.2-1
		c0.1-0.2,0.2-0.5,0.4-0.3C218.9,248.2,218.9,248.3,218.9,248.5z"/>
	<path class="st0" d="M220.2,247c0,0.4-0.1,0.7-0.2,1c-0.1,0.2-0.1,0.5-0.3,0.3c-0.1-0.2-0.1-0.3-0.1-0.5c0-0.3,0.1-0.7,0.2-1
		c0.1-0.2,0.1-0.5,0.3-0.3C220.2,246.7,220.2,246.8,220.2,247"/>
	<path class="st0" d="M221.3,245.5c0,0.3,0,0.7-0.2,1c-0.1,0.2-0.1,0.5-0.3,0.3c-0.1-0.2-0.1-0.3-0.1-0.5c0-0.3,0-0.7,0.2-1
		c0.1-0.1,0.1-0.5,0.3-0.3C221.4,245.1,221.3,245.3,221.3,245.5z"/>
	<path class="st0" d="M222.4,243.9c0,0.3,0,0.7-0.2,1c-0.1,0.1-0.1,0.5-0.3,0.3c-0.1-0.2-0.1-0.3-0.1-0.5c0-0.3,0-0.7,0.2-1
		c0.1-0.1,0.1-0.5,0.3-0.3C222.4,243.6,222.4,243.8,222.4,243.9z"/>
	<path class="st0" d="M215.9,254.8c0,0.4-0.1,0.7-0.3,1c-0.3,0.5-0.5,0.2-0.5-0.3c0-0.4,0.1-0.7,0.3-1
		C215.7,254.1,215.9,254.3,215.9,254.8z"/>
	<path class="st0" d="M217.5,253.3c0,0.4-0.1,0.7-0.2,1c-0.3,0.5-0.5,0.2-0.5-0.3c0-0.4,0.1-0.7,0.2-1
		C217.2,252.6,217.5,252.8,217.5,253.3z"/>
	<path class="st0" d="M218.9,251.8c0,0.4-0.1,0.7-0.2,1c-0.1,0.2-0.2,0.5-0.4,0.2c-0.1-0.2-0.1-0.3-0.1-0.5c0-0.4,0.1-0.7,0.2-1
		c0.1-0.2,0.2-0.5,0.4-0.3C218.9,251.5,218.9,251.6,218.9,251.8z"/>
	<path class="st0" d="M220.2,250.3c0,0.4-0.1,0.7-0.2,1c-0.1,0.2-0.1,0.5-0.3,0.3c-0.1-0.2-0.1-0.3-0.1-0.5c0-0.3,0.1-0.7,0.2-1
		c0.1-0.2,0.1-0.5,0.3-0.3C220.2,250,220.2,250.1,220.2,250.3"/>
	<path class="st0" d="M221.3,248.8c0,0.3,0,0.7-0.2,1c-0.1,0.2-0.1,0.5-0.3,0.3c-0.1-0.2-0.1-0.3-0.1-0.5c0-0.3,0-0.7,0.2-1
		c0.1-0.1,0.1-0.5,0.3-0.3C221.4,248.5,221.3,248.6,221.3,248.8z"/>
	<path class="st0" d="M222.4,247.2c0,0.3,0,0.7-0.2,1c-0.1,0.1-0.1,0.5-0.3,0.3c-0.1-0.2-0.1-0.3-0.1-0.5c0-0.3,0-0.7,0.2-1
		c0.1-0.1,0.1-0.5,0.3-0.3C222.4,246.9,222.4,247.1,222.4,247.2z"/>
	<path class="st0" d="M215.9,258.1c0,0.4-0.1,0.7-0.3,1c-0.3,0.5-0.5,0.2-0.5-0.3c0-0.4,0.1-0.7,0.3-1
		C215.7,257.4,215.9,257.6,215.9,258.1z"/>
	<path class="st0" d="M217.5,256.6c0,0.4-0.1,0.7-0.2,1c-0.3,0.5-0.5,0.2-0.5-0.3c0-0.4,0.1-0.7,0.2-1
		C217.2,255.9,217.5,256.1,217.5,256.6z"/>
	<path class="st0" d="M218.9,255.1c0,0.4-0.1,0.7-0.2,1c-0.1,0.2-0.2,0.5-0.4,0.2c-0.1-0.2-0.1-0.3-0.1-0.5c0-0.4,0.1-0.7,0.2-1
		c0.1-0.2,0.2-0.5,0.4-0.3C218.9,254.8,218.9,255,218.9,255.1z"/>
	<path class="st0" d="M220.2,253.6c0,0.4-0.1,0.7-0.2,1c-0.1,0.2-0.1,0.5-0.3,0.3c-0.1-0.2-0.1-0.3-0.1-0.5c0-0.3,0.1-0.7,0.2-1
		c0.1-0.2,0.1-0.5,0.3-0.3C220.2,253.3,220.2,253.5,220.2,253.6"/>
	<path class="st0" d="M221.3,252.1c0,0.3,0,0.7-0.2,1c-0.1,0.2-0.1,0.5-0.3,0.3c-0.1-0.2-0.1-0.3-0.1-0.5c0-0.3,0-0.7,0.2-1
		c0.1-0.1,0.1-0.5,0.3-0.3C221.4,251.8,221.3,251.9,221.3,252.1z"/>
	<path class="st0" d="M222.4,250.6c0,0.3,0,0.7-0.2,1c-0.1,0.1-0.1,0.5-0.3,0.3c-0.1-0.2-0.1-0.3-0.1-0.5c0-0.3,0-0.7,0.2-1
		c0.1-0.1,0.1-0.5,0.3-0.3C222.4,250.2,222.4,250.4,222.4,250.6z"/>
	<path class="st0" d="M218.9,258.5c0,0.4-0.1,0.7-0.2,1c-0.1,0.2-0.2,0.5-0.4,0.2c-0.1-0.2-0.1-0.3-0.1-0.5c0-0.4,0.1-0.7,0.2-1
		c0.1-0.2,0.2-0.5,0.4-0.3C218.9,258.1,218.9,258.3,218.9,258.5z"/>
	<path class="st0" d="M220.2,256.9c0,0.4-0.1,0.7-0.2,1c-0.1,0.2-0.1,0.5-0.3,0.3c-0.1-0.2-0.1-0.3-0.1-0.5c0-0.3,0.1-0.7,0.2-1
		c0.1-0.2,0.1-0.5,0.3-0.3C220.2,256.6,220.2,256.8,220.2,256.9"/>
	<path class="st0" d="M221.3,255.4c0,0.3,0,0.7-0.2,1c-0.1,0.2-0.1,0.5-0.3,0.3c-0.1-0.2-0.1-0.3-0.1-0.5c0-0.3,0-0.7,0.2-1
		c0.1-0.1,0.1-0.5,0.3-0.3C221.4,255.1,221.3,255.3,221.3,255.4z"/>
	<path class="st0" d="M222.4,253.9c0,0.3,0,0.7-0.2,1c-0.1,0.1-0.1,0.5-0.3,0.3c-0.1-0.2-0.1-0.3-0.1-0.5c0-0.3,0-0.7,0.2-1
		c0.1-0.1,0.1-0.5,0.3-0.3C222.4,253.6,222.4,253.7,222.4,253.9z"/>
	<path class="st0" d="M221.3,258.7c0,0.3,0,0.7-0.2,1c-0.1,0.2-0.1,0.5-0.3,0.3c-0.1-0.2-0.1-0.3-0.1-0.5c0-0.3,0-0.7,0.2-1
		c0.1-0.1,0.1-0.5,0.3-0.3C221.4,258.4,221.3,258.6,221.3,258.7z"/>
	<path class="st0" d="M222.4,257.2c0,0.3,0,0.7-0.2,1c-0.1,0.1-0.1,0.5-0.3,0.3c-0.1-0.2-0.1-0.3-0.1-0.5c0-0.3,0-0.7,0.2-1
		c0.1-0.1,0.1-0.5,0.3-0.3C222.4,256.9,222.4,257,222.4,257.2z"/>
	<path class="st0" d="M226.3,235.7c0,0.1,0,0.3,0,0.4"/>
	<path class="st0" d="M226.2,235.7C226.2,235.6,226.3,235.6,226.2,235.7"/>
	<path class="st0" d="M226.3,236.1c0,0.4,0,0.8,0,1.2"/>
	<path class="st0" d="M226.3,229c0,0.1,0,0.3,0,0.4"/>
	<path class="st0" d="M226.2,229.1c0-0.1,0-0.1,0-0.2"/>
	<path class="st0" d="M226.3,229.4c0,0.4,0,0.8,0,1.2"/>
	<path class="st0" d="M226.3,225.7c0,0.1,0,0.3,0,0.4"/>
	<path class="st0" d="M226.2,225.8c0-0.1,0-0.1,0-0.2"/>
	<path class="st0" d="M226.3,226.1c0,0.4,0,0.8,0,1.2"/>
	<path class="st0" d="M226.3,219.8c0,0,0-0.1,0-0.1"/>
	<path class="st0" d="M226.3,222.5c0,0.1,0-0.1,0-0.2c0-0.1,0-0.2,0-0.2c0-0.2,0-0.3,0-0.5c0-0.3,0-0.6,0-0.9"/>
	<path class="st0" d="M226.3,222.6c0,0.1,0,0.1,0,0.2"/>
	<path class="st0" d="M226.3,222.3c0,0.1,0,0.1,0,0.2"/>
	<path class="st0" d="M226.2,222.5c0-0.1-0.1-0.1,0-0.2"/>
	<path class="st0" d="M226.3,222.8c0,0.4,0,0.8,0,1.2"/>
	<path class="st0" d="M226.3,216.3c0-0.1,0-0.3,0-0.4"/>
	<path class="st0" d="M226.3,217.3c0,0,0-0.1,0-0.1"/>
	<path class="st0" d="M226.3,219.1c0,0.1,0,0.3,0,0.4"/>
	<path class="st0" d="M226.2,219.2c0-0.1,0-0.1,0-0.2"/>
	<path class="st0" d="M226.3,219.5c0,0.4,0,0.8,0,1.2"/>
	<path class="st0" d="M223.3,229.1c0,0.3,0,0.6-0.1,1c0,0.1-0.1,0.5-0.2,0.3c-0.1-0.2-0.1-0.3-0.1-0.5c0-0.3,0-0.6,0.1-1
		c0-0.1,0.1-0.5,0.2-0.3C223.3,228.8,223.3,228.9,223.3,229.1z"/>
	<path class="st0" d="M224.1,227.5c0,0.3,0,0.6-0.1,1c0,0.1-0.1,0.5-0.2,0.3c-0.1-0.2-0.1-0.3-0.1-0.5c0-0.3,0-0.6,0.1-1
		c0-0.1,0.1-0.5,0.2-0.3C224.1,227.2,224.1,227.4,224.1,227.5z"/>
	<path class="st0" d="M224.8,226c0,0.3,0,0.6-0.1,0.9c0,0.1-0.1,0.5-0.2,0.3c-0.1-0.2-0.1-0.3-0.1-0.5c0-0.3,0-0.6,0.1-0.9
		c0-0.1,0.1-0.6,0.2-0.3C224.8,225.6,224.8,225.8,224.8,226z"/>
	<path class="st0" d="M225.3,224.4c0,0.3,0,0.6-0.1,0.9c0,0.1-0.1,0.6-0.2,0.3c-0.1-0.2,0-0.3,0-0.5c0-0.3,0-0.6,0.1-0.9
		c0-0.1,0.1-0.6,0.2-0.3C225.4,224,225.3,224.2,225.3,224.4z"/>
	<path class="st0" d="M225.7,222.2c0.1,0.2,0.1,0.3,0.1,0.5"/>
	<path class="st0" d="M225.6,223.9c0-0.3,0-0.6,0-0.8c0-0.1,0-0.3,0-0.4c0-0.1,0-0.1,0-0.2c0-0.1,0-0.1,0.1-0.2"/>
	<path class="st0" d="M225.8,222.7c0,0.2,0,0.4,0,0.7c0,0.1,0,0.2,0,0.3c0,0.1,0.1,0.2-0.1,0.3"/>
	<path class="st0" d="M226.1,220.6c0,0.2,0,0.3,0,0.5"/>
	<path class="st0" d="M226,220.8c0-0.1,0-0.3,0.1-0.2"/>
	<path class="st0" d="M226.1,221.1c0,0.4,0.1,0.9-0.1,1.3"/>
	<path class="st0" d="M223.3,232.4c0,0.3,0,0.6-0.1,1c0,0.1-0.1,0.5-0.2,0.3c-0.1-0.2-0.1-0.3-0.1-0.5c0-0.3,0-0.6,0.1-1
		c0-0.1,0.1-0.5,0.2-0.3C223.3,232.1,223.3,232.3,223.3,232.4z"/>
	<path class="st0" d="M224.1,230.9c0,0.3,0,0.6-0.1,1c0,0.1-0.1,0.5-0.2,0.3c-0.1-0.2-0.1-0.3-0.1-0.5c0-0.3,0-0.6,0.1-1
		c0-0.1,0.1-0.5,0.2-0.3C224.1,230.5,224.1,230.7,224.1,230.9z"/>
	<path class="st0" d="M224.8,229.3c0,0.3,0,0.6-0.1,0.9c0,0.1-0.1,0.5-0.2,0.3c-0.1-0.2-0.1-0.3-0.1-0.5c0-0.3,0-0.6,0.1-0.9
		c0-0.1,0.1-0.6,0.2-0.3C224.8,229,224.8,229.1,224.8,229.3z"/>
	<path class="st0" d="M225.3,227.7c0,0.3,0,0.6-0.1,0.9c0,0.1-0.1,0.6-0.2,0.3c-0.1-0.2,0-0.3,0-0.5c0-0.3,0-0.6,0.1-0.9
		c0-0.1,0.1-0.6,0.2-0.3C225.4,227.4,225.3,227.5,225.3,227.7z"/>
	<path class="st0" d="M225.7,225.5c0.1,0.2,0.1,0.3,0.1,0.5"/>
	<path class="st0" d="M225.6,227.2c0-0.3,0-0.6,0-0.8c0-0.1,0-0.3,0-0.4c0-0.1,0-0.1,0-0.2c0-0.1,0-0.1,0.1-0.2"/>
	<path class="st0" d="M225.8,226.1c0,0.2,0,0.4,0,0.7c0,0.1,0,0.2,0,0.3c0,0.1,0.1,0.2-0.1,0.3"/>
	<path class="st0" d="M226.1,223.9c0,0.1,0,0.1,0,0.2"/>
	<path class="st0" d="M226,224.1c0-0.1,0-0.3,0.1-0.2"/>
	<path class="st0" d="M226.1,224.4c0,0.4,0.1,0.9-0.1,1.3"/>
	<path class="st0" d="M223.3,235.7c0,0.3,0,0.6-0.1,1c0,0.1-0.1,0.5-0.2,0.3c-0.1-0.2-0.1-0.3-0.1-0.5c0-0.3,0-0.6,0.1-1
		c0-0.1,0.1-0.5,0.2-0.3C223.3,235.4,223.3,235.6,223.3,235.7z"/>
	<path class="st0" d="M224.1,234.2c0,0.3,0,0.6-0.1,1c0,0.1-0.1,0.5-0.2,0.3c-0.1-0.2-0.1-0.3-0.1-0.5c0-0.3,0-0.6,0.1-1
		c0-0.1,0.1-0.5,0.2-0.3C224.1,233.9,224.1,234,224.1,234.2z"/>
	<path class="st0" d="M224.8,232.6c0,0.3,0,0.6-0.1,0.9c0,0.1-0.1,0.5-0.2,0.3c-0.1-0.2-0.1-0.3-0.1-0.5c0-0.3,0-0.6,0.1-0.9
		c0-0.1,0.1-0.6,0.2-0.3C224.8,232.3,224.8,232.4,224.8,232.6z"/>
	<path class="st0" d="M225.3,231c0,0.3,0,0.6-0.1,0.9c0,0.1-0.1,0.6-0.2,0.3c-0.1-0.2,0-0.3,0-0.5c0-0.3,0-0.6,0.1-0.9
		c0-0.1,0.1-0.6,0.2-0.3C225.4,230.7,225.3,230.8,225.3,231z"/>
	<path class="st0" d="M225.7,228.9c0.1,0.2,0.1,0.3,0.1,0.5"/>
	<path class="st0" d="M225.6,230.5c0-0.3,0-0.6,0-0.8c0-0.1,0-0.3,0-0.4c0-0.1,0-0.1,0-0.2c0-0.1,0-0.1,0.1-0.2"/>
	<path class="st0" d="M225.8,229.4c0,0.2,0,0.4,0,0.7c0,0.1,0,0.2,0,0.3c0,0.1,0.1,0.2-0.1,0.3"/>
	<path class="st0" d="M226.1,227.3c0,0.2,0,0.3,0,0.5"/>
	<path class="st0" d="M226,227.4c0-0.1,0-0.3,0.1-0.2"/>
	<path class="st0" d="M226.1,227.8c0,0.4,0.1,0.9-0.1,1.3"/>
	<path class="st0" d="M223.3,239.1c0,0.3,0,0.6-0.1,1c0,0.1-0.1,0.5-0.2,0.3c-0.1-0.2-0.1-0.3-0.1-0.5c0-0.3,0-0.6,0.1-1
		c0-0.1,0.1-0.5,0.2-0.3C223.3,238.7,223.3,238.9,223.3,239.1z"/>
	<path class="st0" d="M224.1,237.5c0,0.3,0,0.6-0.1,1c0,0.1-0.1,0.5-0.2,0.3c-0.1-0.2-0.1-0.3-0.1-0.5c0-0.3,0-0.6,0.1-1
		c0-0.1,0.1-0.5,0.2-0.3C224.1,237.2,224.1,237.3,224.1,237.5z"/>
	<path class="st0" d="M224.8,235.9c0,0.3,0,0.6-0.1,0.9c0,0.1-0.1,0.5-0.2,0.3c-0.1-0.2-0.1-0.3-0.1-0.5c0-0.3,0-0.6,0.1-0.9
		c0-0.1,0.1-0.6,0.2-0.3C224.8,235.6,224.8,235.7,224.8,235.9z"/>
	<path class="st0" d="M225.3,234.3c0,0.3,0,0.6-0.1,0.9c0,0.1-0.1,0.6-0.2,0.3c-0.1-0.2,0-0.3,0-0.5c0-0.3,0-0.6,0.1-0.9
		c0-0.1,0.1-0.6,0.2-0.3C225.4,234,225.3,234.2,225.3,234.3z"/>
	<path class="st0" d="M225.7,232.2c0.1,0.2,0.1,0.3,0.1,0.5"/>
	<path class="st0" d="M225.6,233.8c0-0.3,0-0.6,0-0.8c0-0.1,0-0.3,0-0.4c0-0.1,0-0.1,0-0.2c0-0.1,0-0.1,0.1-0.2"/>
	<path class="st0" d="M225.8,232.7c0,0.2,0,0.4,0,0.7c0,0.1,0,0.2,0,0.3c0,0.1,0.1,0.2-0.1,0.3"/>
	<path class="st0" d="M226.1,230.6c0,0.2,0,0.3,0,0.5"/>
	<path class="st0" d="M226,230.7c0-0.1,0-0.3,0.1-0.2"/>
	<path class="st0" d="M226.1,231.1c0,0.4,0.1,0.9-0.1,1.3"/>
	<path class="st0" d="M223.3,242.4c0,0.3,0,0.6-0.1,1c0,0.1-0.1,0.5-0.2,0.3c-0.1-0.2-0.1-0.3-0.1-0.5c0-0.3,0-0.6,0.1-1
		c0-0.1,0.1-0.5,0.2-0.3C223.3,242.1,223.3,242.2,223.3,242.4z"/>
	<path class="st0" d="M224.1,240.8c0,0.3,0,0.6-0.1,1c0,0.1-0.1,0.5-0.2,0.3c-0.1-0.2-0.1-0.3-0.1-0.5c0-0.3,0-0.6,0.1-1
		c0-0.1,0.1-0.5,0.2-0.3C224.1,240.5,224.1,240.6,224.1,240.8z"/>
	<path class="st0" d="M224.8,239.2c0,0.3,0,0.6-0.1,0.9c0,0.1-0.1,0.5-0.2,0.3c-0.1-0.2-0.1-0.3-0.1-0.5c0-0.3,0-0.6,0.1-0.9
		c0-0.1,0.1-0.6,0.2-0.3C224.8,238.9,224.8,239.1,224.8,239.2z"/>
	<path class="st0" d="M225.3,237.6c0,0.3,0,0.6-0.1,0.9c0,0.1-0.1,0.6-0.2,0.3c-0.1-0.2,0-0.3,0-0.5c0-0.3,0-0.6,0.1-0.9
		c0-0.1,0.1-0.6,0.2-0.3C225.4,237.3,225.3,237.5,225.3,237.6z"/>
	<path class="st0" d="M225.7,235.5c0.1,0.2,0.1,0.3,0.1,0.5"/>
	<path class="st0" d="M225.6,237.1c0-0.3,0-0.6,0-0.8c0-0.1,0-0.3,0-0.4c0-0.1,0-0.1,0-0.2c0-0.1,0-0.1,0.1-0.2"/>
	<path class="st0" d="M225.8,236c0,0.2,0,0.4,0,0.7c0,0.1,0,0.2,0,0.3c0,0.1,0.1,0.2-0.1,0.3"/>
	<path class="st0" d="M226.1,233.9c0,0.2,0,0.3,0,0.5"/>
	<path class="st0" d="M226,234.1c0-0.1,0-0.3,0.1-0.2"/>
	<path class="st0" d="M226.1,234.4c0,0.4,0.1,0.9-0.1,1.3"/>
	<path class="st0" d="M223.3,245.7c0,0.3,0,0.6-0.1,1c0,0.1-0.1,0.5-0.2,0.3c-0.1-0.2-0.1-0.3-0.1-0.5c0-0.3,0-0.6,0.1-1
		c0-0.1,0.1-0.5,0.2-0.3C223.3,245.4,223.3,245.5,223.3,245.7z"/>
	<path class="st0" d="M224.1,244.1c0,0.3,0,0.6-0.1,1c0,0.1-0.1,0.5-0.2,0.3c-0.1-0.2-0.1-0.3-0.1-0.5c0-0.3,0-0.6,0.1-1
		c0-0.1,0.1-0.5,0.2-0.3C224.1,243.8,224.1,244,224.1,244.1z"/>
	<path class="st0" d="M224.8,242.5c0,0.3,0,0.6-0.1,0.9c0,0.1-0.1,0.5-0.2,0.3c-0.1-0.2-0.1-0.3-0.1-0.5c0-0.3,0-0.6,0.1-0.9
		c0-0.1,0.1-0.6,0.2-0.3C224.8,242.2,224.8,242.4,224.8,242.5z"/>
	<path class="st0" d="M225.3,240.9c0,0.3,0,0.6-0.1,0.9c0,0.1-0.1,0.6-0.2,0.3c-0.1-0.2,0-0.3,0-0.5c0-0.3,0-0.6,0.1-0.9
		c0-0.1,0.1-0.6,0.2-0.3C225.4,240.6,225.3,240.8,225.3,240.9z"/>
	<path class="st0" d="M225.7,238.8c0.1,0.2,0.1,0.3,0.1,0.5"/>
	<path class="st0" d="M225.6,240.5c0-0.3,0-0.6,0-0.8c0-0.1,0-0.3,0-0.4c0-0.1,0-0.1,0-0.2c0-0.1,0-0.1,0.1-0.2"/>
	<path class="st0" d="M225.8,239.3c0,0.2,0,0.4,0,0.7c0,0.1,0,0.2,0,0.3c0,0.1,0.1,0.2-0.1,0.3"/>
	<path class="st0" d="M226.1,237.2c0,0.2,0,0.3,0,0.5"/>
	<path class="st0" d="M226,239c-0.1-0.3,0-0.6,0-0.9c0-0.2,0-0.3,0-0.5c0-0.1,0-0.2,0-0.2c0-0.1,0-0.3,0.1-0.2"/>
	<path class="st0" d="M226.1,237.7c0,0.4,0.1,0.9-0.1,1.3"/>
	<path class="st0" d="M223.3,249c0,0.3,0,0.6-0.1,1c0,0.1-0.1,0.5-0.2,0.3c-0.1-0.2-0.1-0.3-0.1-0.5c0-0.3,0-0.6,0.1-1
		c0-0.1,0.1-0.5,0.2-0.3C223.3,248.7,223.3,248.8,223.3,249z"/>
	<path class="st0" d="M224.1,247.4c0,0.3,0,0.6-0.1,1c0,0.1-0.1,0.5-0.2,0.3c-0.1-0.2-0.1-0.3-0.1-0.5c0-0.3,0-0.6,0.1-1
		c0-0.1,0.1-0.5,0.2-0.3C224.1,247.1,224.1,247.3,224.1,247.4z"/>
	<path class="st0" d="M224.8,245.9c0,0.3,0,0.6-0.1,0.9c0,0.1-0.1,0.5-0.2,0.3c-0.1-0.2-0.1-0.3-0.1-0.5c0-0.3,0-0.6,0.1-0.9
		c0-0.1,0.1-0.6,0.2-0.3C224.8,245.5,224.8,245.7,224.8,245.9z"/>
	<path class="st0" d="M225.3,244.3c0,0.3,0,0.6-0.1,0.9c0,0.1-0.1,0.6-0.2,0.3c-0.1-0.2,0-0.3,0-0.5c0-0.3,0-0.6,0.1-0.9
		c0-0.1,0.1-0.6,0.2-0.3C225.4,244,225.3,244.1,225.3,244.3z"/>
	<path class="st0" d="M225.7,242.1c0.1,0.2,0.1,0.3,0.1,0.5"/>
	<path class="st0" d="M225.8,242.7c0,0.4-0.2,1.8-0.2,1.1c0-0.3,0-0.5,0-0.8c0-0.1,0-0.3,0-0.4c0-0.1,0-0.2,0.1-0.3c0,0,0-0.1,0-0.1
		"/>
	<path class="st0" d="M226.1,240.5c0,0.2,0,0.3,0,0.5"/>
	<path class="st0" d="M226,240.5C226,240.5,226.1,240.5,226,240.5"/>
	<path class="st0" d="M226.1,241c0,0.4,0.1,0.9-0.1,1.3"/>
	<path class="st0" d="M223.3,252.3c0,0.3,0,0.6-0.1,1c0,0.1-0.1,0.5-0.2,0.3c-0.1-0.2-0.1-0.3-0.1-0.5c0-0.3,0-0.6,0.1-1
		c0-0.1,0.1-0.5,0.2-0.3C223.3,252,223.3,252.2,223.3,252.3z"/>
	<path class="st0" d="M224.1,250.8c0,0.3,0,0.6-0.1,1c0,0.1-0.1,0.5-0.2,0.3c-0.1-0.2-0.1-0.3-0.1-0.5c0-0.3,0-0.6,0.1-1
		c0-0.1,0.1-0.5,0.2-0.3C224.1,250.4,224.1,250.6,224.1,250.8z"/>
	<path class="st0" d="M224.8,249.2c0,0.3,0,0.6-0.1,0.9c0,0.1-0.1,0.5-0.2,0.3c-0.1-0.2-0.1-0.3-0.1-0.5c0-0.3,0-0.6,0.1-0.9
		c0-0.1,0.1-0.6,0.2-0.3C224.8,248.9,224.8,249,224.8,249.2z"/>
	<path class="st0" d="M225.3,247.6c0,0.3,0,0.6-0.1,0.9c0,0.1-0.1,0.6-0.2,0.3c-0.1-0.2,0-0.3,0-0.5c0-0.3,0-0.6,0.1-0.9
		c0-0.1,0.1-0.6,0.2-0.3C225.4,247.3,225.3,247.4,225.3,247.6z"/>
	<path class="st0" d="M223.3,255.6c0,0.3,0,0.6-0.1,1c0,0.1-0.1,0.5-0.2,0.3c-0.1-0.2-0.1-0.3-0.1-0.5c0-0.3,0-0.6,0.1-1
		c0-0.1,0.1-0.5,0.2-0.3C223.3,255.3,223.3,255.5,223.3,255.6z"/>
	<path class="st0" d="M224.1,254.1c0,0.3,0,0.6-0.1,1c0,0.1-0.1,0.5-0.2,0.3c-0.1-0.2-0.1-0.3-0.1-0.5c0-0.3,0-0.6,0.1-1
		c0-0.1,0.1-0.5,0.2-0.3C224.1,253.8,224.1,253.9,224.1,254.1z"/>
	<path class="st0" d="M220.2,260.3c0,0.4-0.1,0.7-0.2,1c-0.1,0.2-0.1,0.5-0.3,0.3c-0.1-0.2-0.1-0.3-0.1-0.5c0-0.3,0.1-0.7,0.2-1
		c0.1-0.2,0.1-0.5,0.3-0.3C220.2,259.9,220.2,260.1,220.2,260.3z"/>
	<path class="st0" d="M217.5,260c0,0.4-0.1,0.7-0.2,1c-0.3,0.5-0.5,0.2-0.5-0.3c0-0.4,0.1-0.7,0.2-1
		C217.2,259.2,217.5,259.5,217.5,260z"/>
	<path class="st0" d="M212.5,254.4c0,0.4-0.1,0.7-0.3,1c-0.3,0.4-0.6,0.2-0.6-0.3c0-0.4,0.1-0.7,0.3-1
		C212.2,253.7,212.5,253.9,212.5,254.4z"/>
	<path class="st0" d="M210.6,249.2c0,0.4-0.1,0.7-0.4,1c-0.3,0.4-0.7,0.2-0.7-0.3c0-0.4,0.1-0.7,0.4-1
		C210.3,248.5,210.6,248.7,210.6,249.2z"/>
	<path class="st0" d="M226.3,232.4c0,0.1,0,0.3,0,0.4"/>
	<path class="st0" d="M226.2,232.4c0-0.1,0-0.1,0-0.2"/>
	<path class="st0" d="M226.3,232.8c0,0.4,0,0.8,0,1.2"/>
	<path class="st0" d="M226.3,222.9c0-0.1,0-0.3,0-0.4"/>
	<path class="st0" d="M226.3,223.9c0,0,0-0.1,0-0.1"/>
	<path class="st0" d="M225.7,245.5c0.1,0.2,0.1,0.3,0.1,0.5"/>
	<path class="st0" d="M225.8,246c0,0.4-0.2,1.8-0.2,1.1c0-0.3,0-0.5,0-0.8c0-0.1,0-0.3,0-0.4c0-0.1,0-0.2,0.1-0.3c0,0,0-0.1,0-0.1"
		/>
	<path class="st0" d="M224.8,252.5c0,0.3,0,0.6-0.1,0.9c0,0.1-0.1,0.5-0.2,0.3c-0.1-0.2-0.1-0.3-0.1-0.5c0-0.3,0-0.6,0.1-0.9
		c0-0.1,0.1-0.6,0.2-0.3C224.8,252.2,224.8,252.3,224.8,252.5z"/>
	<path class="st0" d="M226.3,206.3c0-0.1,0-0.3,0-0.4"/>
	<path class="st0" d="M226.3,207.3c0,0,0-0.1,0-0.1"/>
	<path class="st0" d="M138.2,137.1c5.1,1.4,11.3,3.9,15,8.1c4.8,5.5,2.2,10.9-3,14.6c-8.7,6.3-23.2,8.2-33.2,8.2
		c-9.9,0-24.5-1.9-33.2-8.2c-5.2-3.8-7.8-9.2-3-14.6c3.8-4.3,9.9-6.7,15-8.1"/>
	<path class="st0" d="M125.9,134.4c5.6,0.7,11.8,2.1,16.9,4.6c5.1,2.6,10.8,7.6,6.7,13.7c-1.4,2.1-3.3,3.5-5.5,4.7
		c-3,1.7-6.2,2.8-9.5,3.7c-5.8,1.5-11.5,2.1-17.4,2.1c-5.9,0-11.6-0.6-17.4-2.1c-3.3-0.9-6.4-1.9-9.3-3.6c-2.2-1.3-4.2-2.6-5.7-4.8
		c-4.1-6.1,1.6-11.1,6.7-13.7c5.1-2.6,11.3-4,16.9-4.7"/>
	<path class="st0" d="M123,119.5c-2,1.6-5.7,1.9-8,1.8c-1.4-0.1-2.7-0.3-4.1-0.8c-1-0.4-2.9-1.3-2.8-2.7"/>
	<path class="st0" d="M125.7,144.3c0.2-0.3,0.3-0.6,0.3-0.9"/>
	<path class="st0" d="M108.3,146.1c0,0.1-0.1,0.2-0.1,0.3"/>
	<path class="st0" d="M108.2,146.6c0,1.8,2.8,2.7,4,3c1.8,0.4,3.5,0.5,5.3,0.4c1.8-0.1,3.5-0.4,5.1-1.4c0.8-0.5,1.2-1.2,1.7-2
		c0.5-0.8,0.9-1.5,1.4-2.3"/>
	<path class="st0" d="M92.3,143.1c-0.9,1.4-1.1,3.2-0.5,4.7c0.6,1.7,1.7,2.7,3.1,3.8"/>
	<path class="st0" d="M94.2,142.4c-1.9,3.1-0.2,5.9,2.4,7.8"/>
	<path class="st0" d="M96.6,150.2c4.2,3.2,11.1,4.5,16,5c5.8,0.5,11.2,0.2,16.8-1.3c2.8-0.7,5.3-1.7,7.7-3.4
		c2.2-1.6,4.4-4.1,3.1-7.1c-2-4.9-10.4-7.1-14.4-7.8"/>
	<path class="st0" d="M108.2,135.5c-4.1,0.7-11.4,2.7-14,6.9"/>
	<path class="st0" d="M94.8,151.6c4.1,3.1,10.7,4.7,15.6,5.2"/>
	<path class="st0" d="M110.4,156.8c6.7,0.8,13,0.5,19.5-1.1"/>
	<path class="st0" d="M129.9,155.7c3.4-0.8,8.1-2.6,10.6-5.2c3.6-3.5,2.5-7.3-1.2-10.1"/>
	<path class="st0" d="M139.3,140.5c-2.9-2.2-6-3.3-9.5-4.1"/>
	<path class="st0" d="M104.2,136.4c-3.7,0.9-9.7,3.1-12,6.8"/>
	<path class="st0" d="M142.7,148.6c-0.1,5.2-7.2,8-10.8,9.1c-4.9,1.5-9.8,2-14.8,2c-5.1,0-9.9-0.5-14.8-2.1
		c-2.4-0.7-4.7-1.7-6.8-3.1c-1.9-1.3-4-3.3-4-6"/>
	<path class="st0" d="M132,139.8c-1.3-0.2-3.6,0-4.8,0.9c-0.9,0.7-0.7,1.4,0.2,2c0.7,0.5,1.5,0.6,2.3,0.7c1.3,0.2,3.6,0,4.8-0.9
		c0.9-0.7,0.7-1.4-0.2-2C133.6,140,132.8,139.9,132,139.8z"/>
	<path class="st0" d="M105,138.5c-0.5,0.8,0.3,1.4,1,1.7c0.7,0.3,1.4,0.5,2.2,0.5"/>
	<path class="st0" d="M108.2,137.2c-0.9,0.1-2.6,0.4-3.2,1.3"/>
	<path class="st0" d="M102.2,150.3c1.3,0.2,3.6,0,4.8-0.9c0.9-0.7,0.7-1.4-0.2-2c-0.7-0.5-1.5-0.6-2.3-0.7c-1.3-0.2-3.6,0-4.8,0.9
		c-0.9,0.7-0.7,1.4,0.2,2C100.5,150,101.3,150.2,102.2,150.3z"/>
	<path class="st0" d="M129.1,151.5c0.5-0.9-0.5-1.5-1.2-1.8c-0.8-0.3-1.6-0.5-2.4-0.5c-1.1-0.1-3.8,0.1-4.6,1.3
		c-0.5,0.9,0.5,1.5,1.2,1.8c0.8,0.3,1.6,0.5,2.4,0.5C125.7,152.9,128.4,152.8,129.1,151.5z"/>
	<path class="st0" d="M114.6,102.5C114.6,102.5,114.5,102.6,114.6,102.5"/>
	<path class="st0" d="M95.5,73.1c0.6,0.1,1.2,0.3,1.8,0.5"/>
	<line class="st0" x1="29.6" y1="125.5" x2="88.4" y2="132.3"/>
	<line class="st0" x1="70" y1="77.8" x2="29.6" y2="73.1"/>
	<line class="st0" x1="29.6" y1="73.1" x2="29.6" y2="125.5"/>
	<line class="st0" x1="90" y1="44" x2="49.6" y2="39.3"/>
	<line class="st0" x1="49.6" y1="39.3" x2="30" y2="71.2"/>
	<line class="st0" x1="70.4" y1="75.9" x2="30" y2="71.2"/>
	<line class="st0" x1="90" y1="44" x2="70.4" y2="75.9"/>
	<path class="st0" d="M49.8,39.1c-0.1,0-0.1,0.1-0.1,0.1"/>
	<path class="st0" d="M29.6,125.5c-0.3,0-1.1-0.2-1.1-0.6"/>
	<path class="st0" d="M29.6,73.1c0-0.7,0.1-1.3,0.4-1.9"/>
	<path class="st0" d="M108.6,117.5c-0.4,0.2-1.1-0.3-1.3-0.5"/>
	<line class="st0" x1="88.4" y1="132.3" x2="107.3" y2="116.9"/>
	<path class="st0" d="M88.4,132.3c0.2,0.3,0.9,0.8,1.3,0.5"/>
	<path class="st0" d="M91,44.5c0-0.1,0.2-0.2,0-0.2"/>
	<path class="st0" d="M71.4,76.4c-0.3-0.3-0.6-0.5-1-0.5"/>
	<path class="st0" d="M90,44c0.4,0,0.7,0.2,1,0.5"/>
	<path class="st0" d="M71.4,76.4c-0.4,0.6-0.9,1-1.4,1.4"/>
	<line class="st0" x1="107.3" y1="116.9" x2="70" y2="77.8"/>
	<path class="st0" d="M107.3,116.9c0.5-0.4,1-0.9,1.4-1.4"/>
	<path class="st0" d="M30,71.2c-0.5-0.1-1,0.1-1.3,0.6"/>
	<path class="st0" d="M48.4,39.8c0.3-0.4,0.8-0.6,1.3-0.6"/>
	<path class="st0" d="M90,44c0-0.1,0.1-0.1,0.1-0.1"/>
	<path class="st0" d="M29.9,126.3c-0.2,0-0.2-0.3-0.2-0.4c0-0.2,0-0.3,0-0.5"/>
	<path class="st0" d="M28.6,72.5c0,0.5,0.8,0.6,1.1,0.6"/>
	<path class="st0" d="M70.4,75.9c-0.3,0.6-0.4,1.3-0.4,1.9"/>
	<path class="st0" d="M88.4,132.3c0,0.2,0,0.3,0,0.5c0,0.1,0,0.4,0.2,0.4"/>
	<path class="st0" d="M96.1,73.2c0.6,0.1,1.3,0.3,1.9,0.6"/>
	<path class="st0" d="M115.2,102.6c0,0.1-0.1,0.2-0.1,0.3"/>
	<line class="st0" x1="121.5" y1="76.5" x2="91" y2="44.5"/>
	<line class="st0" x1="91" y1="44.5" x2="71.4" y2="76.4"/>
	<line class="st0" x1="108.7" y1="115.5" x2="71.4" y2="76.4"/>
	<line class="st0" x1="116.1" y1="103.5" x2="108.7" y2="115.5"/>
	<path class="st0" d="M109,117.1c0.3-0.5,0.2-1.2-0.2-1.6"/>
	<path class="st0" d="M98.5,73.8c-0.8-0.3-1.6-0.5-2.5-0.7"/>
	<path class="st0" d="M102.1,74.2c-0.8-0.5-1.6-0.9-2.4-1.3c-0.7-0.3-1.4-0.6-2.1-0.8c-0.6-0.1-1.2-0.2-1.8-0.2
		c-0.5,0-1,0.1-1.4,0.3c-0.4,0.2-0.7,0.5-1,0.9c-0.3,0.4-0.4,0.8-0.5,1.3c-0.1,0.6-0.1,1.2,0,1.8c0.1,0.8,0.3,1.5,0.5,2.2
		c0.4,1.1,0.8,2.3,1.3,3.3c0.6,1.3,1.4,2.6,2.1,3.8c1.7,2.7,3.6,5.2,5.7,7.5c2.2,2.4,4.5,4.6,7.1,6.6c1.1,0.8,2.2,1.6,3.4,2.3
		c1,0.6,2,1.1,3,1.5"/>
	<path class="st0" d="M115.9,103.2c0.1,0.1,0.2,0.1,0.3,0.3"/>
	<path class="st0" d="M116.2,103.5C116.2,103.5,116.2,103.5,116.2,103.5"/>
	<line class="st0" x1="141.6" y1="106.7" x2="130.2" y2="115.5"/>
	<path class="st0" d="M114.6,106.5c3.4-2.7,6.8-5.3,10.2-8"/>
	<line class="st0" x1="124.8" y1="98.5" x2="126.1" y2="96.5"/>
	<path class="st0" d="M126.1,96.5c-1.6,1.3-3.2,2.5-4.9,3.7c-0.8,0.6-1.7,1.2-2.5,1.7c-0.4,0.3-0.9,0.5-1.3,0.7
		c-0.3,0.1-1.3,0.6-1.3,0"/>
	<line class="st0" x1="124.8" y1="98.5" x2="148.5" y2="101.3"/>
	<line class="st0" x1="148.5" y1="101.3" x2="149.7" y2="99.3"/>
	<line class="st0" x1="149.7" y1="99.3" x2="126.1" y2="96.5"/>
	<path class="st0" d="M120.6,119.3c-2-0.2-3.8-0.9-5.8-1.2c-1-0.2-2-0.2-2.9-0.2c-1,0-2,0.2-3,0.1"/>
	<path class="st0" d="M108.2,117.8c0.2,1.1,1.5,1.9,2.4,2.2c1.1,0.5,2.1,0.7,3.3,0.8c2.3,0.3,4.5,0.1,6.7-0.5"/>
	<path class="st0" d="M130.2,115.5c-0.4,0.3-0.8,0.6-1.2,0.9c-0.4,0.3-0.8,0.6-1.2,0.8c-0.6,0.5-1.3,0.9-1.9,1.3
		c-0.5,0.3-1,0.6-1.5,0.8c-0.2,0.1-0.3,0.1-0.5,0.2c-0.1,0-0.2,0.1-0.4,0"/>
	<line class="st0" x1="120.6" y1="120.4" x2="120.6" y2="119.3"/>
	<path class="st0" d="M123.6,119.6c-1-0.1-2-0.2-3-0.3"/>
	<path class="st0" d="M158.5,113.5c1.2,0.1,6-3.6,6.7-4.1"/>
	<path class="st0" d="M163.7,81.4c0.8-0.6,1.7-1.2,2.6-1.7"/>
	<line class="st0" x1="166.3" y1="79.7" x2="189.9" y2="82.4"/>
	<line class="st0" x1="188.8" y1="84.3" x2="189.9" y2="82.4"/>
	<line class="st0" x1="166.3" y1="79.7" x2="165.1" y2="81.5"/>
	<path class="st0" d="M149.7,99.3c3.4-2.8,6.7-5.7,9.9-8.8"/>
	<line class="st0" x1="159.6" y1="90.5" x2="183.2" y2="93.3"/>
	<line class="st0" x1="159.6" y1="90.5" x2="158.3" y2="92.7"/>
	<line class="st0" x1="158.3" y1="92.7" x2="181.9" y2="95.4"/>
	<line class="st0" x1="181.9" y1="95.4" x2="183.2" y2="93.3"/>
	<path class="st0" d="M158.3,92.7c-3.1,3-6.4,5.9-9.8,8.6"/>
	<path class="st0" d="M171.3,104.6c3.7-2.9,7.2-6,10.6-9.2"/>
	<line class="st0" x1="165.2" y1="109.4" x2="171.3" y2="104.6"/>
	<line class="st0" x1="121" y1="119.3" x2="121" y2="120.3"/>
	<path class="st0" d="M121,120.3c0.6-0.2,1.1-0.4,1.6-0.8"/>
	<line class="st0" x1="120.6" y1="120.2" x2="121" y2="120.3"/>
	<line class="st0" x1="194.8" y1="81.4" x2="193.6" y2="81.3"/>
	<line class="st0" x1="185.1" y1="110.7" x2="166.3" y2="108.5"/>
	<line class="st0" x1="117" y1="102.8" x2="114.3" y2="102.5"/>
	<line class="st0" x1="94.3" y1="73.3" x2="191.2" y2="84.6"/>
	<line class="st0" x1="155.8" y1="151.7" x2="155.8" y2="158.3"/>
	<line class="st0" x1="78.4" y1="158.1" x2="78.4" y2="151.5"/>
	<line class="st0" x1="137.4" y1="136.8" x2="138.2" y2="137.1"/>
	<line class="st0" x1="95.9" y1="137.1" x2="98.6" y2="136.3"/>
	<line class="st0" x1="125.9" y1="118.6" x2="125.9" y2="143.4"/>
	<line class="st0" x1="108.2" y1="146.6" x2="108.2" y2="118.1"/>
	<line class="st0" x1="142.7" y1="146.5" x2="142.7" y2="146.8"/>
	<line class="st0" x1="91.4" y1="146.8" x2="91.4" y2="146.6"/>
	<line class="st0" x1="91.4" y1="148.6" x2="91.4" y2="147.2"/>
	<line class="st0" x1="142.7" y1="147.3" x2="142.7" y2="148.6"/>
	<line class="st0" x1="49.8" y1="39.1" x2="90.2" y2="43.8"/>
	<line class="st0" x1="88.6" y1="133.2" x2="29.9" y2="126.3"/>
	<line class="st0" x1="28.6" y1="124.9" x2="28.6" y2="72.6"/>
	<line class="st0" x1="108.5" y1="117.6" x2="89.8" y2="132.9"/>
	<line class="st0" x1="91.1" y1="44.3" x2="121.8" y2="76.5"/>
	<line class="st0" x1="28.8" y1="71.6" x2="48.4" y2="39.8"/>
	<path class="st0" d="M48.8,39.4c0.3-0.2,0.6-0.3,1-0.2"/>
	<path class="st0" d="M90.2,43.9c0.4,0,0.6,0.2,0.9,0.4"/>
	<path class="st0" d="M199.5,87.4c0-1.4,0.2-3.6-0.3-5c-0.1-0.3-0.2-0.6-0.7-0.6c-0.2,0-0.5,0-0.7-0.1c-0.5,0-1-0.1-1.5-0.1
		c-0.5,0-1-0.2-1.5-0.1c-0.5,0-0.9,1-1.1,1.2c-0.4,0.6-0.7,1.2-1.1,1.8c-0.4,0.7-0.9,1.3-1.2,2c-0.5,1.1-0.8,2.3-1.1,3.5
		c-0.9,3.1-1.9,6.2-2.8,9.4c-1.2,4-1.2,5.5-1.2,9.7c0,1.4-0.2,3.6,0.3,5c0.1,0.3,0.2,0.6,0.7,0.6c0.2,0,0.5,0,0.7,0.1
		c0.5,0,1,0.1,1.5,0.1c0.5,0,1,0.2,1.5,0.1c0.5,0,0.9-1,1.1-1.2c0.4-0.6,0.7-1.2,1.1-1.8c0.4-0.7,0.9-1.3,1.2-2
		c0.5-1.1,0.8-2.3,1.1-3.5c0.9-3.1,1.9-6.2,2.8-9.4C199.5,93.1,199.5,91.5,199.5,87.4z"/>
	<path class="st0" d="M29.8,126.3c-0.7-0.1-1.2-0.7-1.3-1.4"/>
	<path class="st0" d="M28.6,72.5c0-0.3,0.1-0.5,0.2-0.8"/>
	<path class="st0" d="M109,117.1c-0.1,0.1-0.2,0.3-0.3,0.4"/>
	<path class="st0" d="M89.7,132.9c-0.3,0.3-0.6,0.4-1.1,0.3"/>
	<line class="st0" x1="115.5" y1="106.6" x2="109" y2="117"/>
	<path class="st0" d="M96,73.1c-2.4-0.3-3,1-2.9,3.2c0.2,1.8,0.8,3.3,1.5,4.9c1.5,3.2,3.4,6,5.5,8.7c3.7,4.6,9.9,10.9,15.7,13.2"/>
	<path class="st0" d="M115.9,103.2c0.1,0.1,0.3,0.1,0.4,0.2"/>
	<line class="st0" x1="108.9" y1="117.9" x2="108.2" y2="117.8"/>
	<line class="st0" x1="158.5" y1="113.5" x2="136.1" y2="110.9"/>
	<path class="st0" d="M193.7,86.4c1.1,1.3,1.2,5.2,1.2,6.6"/>
	<path class="st0" d="M194.8,93c0,3-0.3,5.9-0.8,8.8c-0.3,1.8-1.4,6.8-3.1,8.1"/>
	<path class="st0" d="M196,93.1c0,3.9-0.6,8.9-1.8,12.7c-0.4,1.2-0.9,2.8-1.8,3.9c-0.6,0.7-1.2,0.7-1.7-0.1
		c-0.5-0.8-0.6-1.7-0.7-2.6c-0.2-1.2-0.2-2.5-0.2-3.8c0-3.9,0.6-8.9,1.8-12.7c0.4-1.2,0.9-2.8,1.8-3.9c0.6-0.7,1.2-0.7,1.7,0.1
		c0.5,0.8,0.6,1.7,0.7,2.6C196,90.6,196,91.9,196,93.1z"/>
	<path class="st0" d="M155.8,158.1C155.8,158.1,155.8,158.1,155.8,158.1"/>
	<path class="st0" d="M155.8,154.6c0.2,0.6,0.3,1.2,0.4,1.9"/>
	<path class="st0" d="M78.1,156.5c0-0.6,0.1-1.1,0.3-1.7"/>
	<path class="st0" d="M193.6,81.3c-0.5,0-1.1,1.2-1.2,1.5c-0.4,0.7-0.8,1.4-1.3,2.1c-0.3,0.5-0.6,1-0.9,1.5
		c-0.4,0.8-0.6,1.7-0.8,2.5c-0.8,2.8-1.7,5.6-2.5,8.5c-1,3.3-1.6,5.1-1.8,8.6c-0.1,1.5,0,2.9,0,4.4c0,0.5-0.1,4,0.9,4.1"/>
	<path class="st0" d="M78.4,155.2c-0.1,0.5-0.2,0.9-0.3,1.4"/>
	<path class="st0" d="M156.1,156.7c-0.1-0.6-0.2-1.1-0.4-1.7"/>
	<path class="st0" d="M78.1,156.5c0.1-0.2,0.2-0.3,0.3-0.5"/>
	<path class="st0" d="M155.8,155.9c0.1,0.2,0.2,0.4,0.3,0.6"/>
	<path class="st0" d="M15.6,144.1c4.6-7.4,12.7-13.1,20-17.1"/>
	<path class="st0" d="M152.1,112.8c13.9,2.1,28.7,5.8,41.5,11.8c7.4,3.4,15.1,8,20.8,14.1c4.1,4.4,7.3,9.7,7.7,16
		c0.4,6.2-2.2,11.8-5.9,16.5c-5.3,6.6-12.9,11.4-20.2,15c-12.8,6.3-27.4,10.2-41.3,12.5c-27.5,4.6-58.9,4-86.1-2.2
		c-13.5-3.1-28.4-8-40-16c-6.4-4.4-13-10.4-15.5-18.4c-2-6.4-0.8-12.5,2.6-18"/>
	<path class="st0" d="M136,125.3c-0.4,0-0.7-0.1-1,0.2c-0.4,0.3,0.2,0.5,0.6,0.6c0.4,0,0.7,0.1,1-0.2
		C136.9,125.5,136.3,125.3,136,125.3z"/>
	<path class="st0" d="M78.4,153.7c-1.3,4.4,1.4,7.9,4.5,10.4c3.3,2.6,6.8,4.1,10.7,5.4c7.4,2.5,16,3.5,23.7,3.4
		c7.8,0,16.3-1,23.7-3.5c3.9-1.3,7.4-2.8,10.6-5.5c3.1-2.5,5.6-6.1,4.2-10.4"/>
	<path class="st0" d="M83.5,142.4c-0.4,0-0.7-0.1-1,0.2c-0.4,0.3,0.1,0.5,0.5,0.6"/>
	<path class="st0" d="M83.9,142.5c-0.1,0-0.2-0.1-0.4-0.1"/>
	<path class="st0" d="M65.9,158.6c-0.4,0-0.7-0.1-1,0.2c-0.4,0.3,0.2,0.5,0.6,0.6c0.4,0,0.7,0.1,1-0.2
		C66.9,158.9,66.3,158.7,65.9,158.6z"/>
	<path class="st0" d="M69.5,159.1c-0.4,0-0.7-0.1-1,0.2c-0.4,0.3,0.2,0.5,0.6,0.6c0.4,0,0.7,0.1,1-0.2
		C70.5,159.3,69.8,159.1,69.5,159.1z"/>
	<path class="st0" d="M73,159.5c-0.4,0-0.7-0.1-1,0.2c-0.4,0.3,0.2,0.5,0.6,0.6c0.4,0,0.7,0.1,1-0.2C74,159.7,73.4,159.5,73,159.5z"
		/>
	<path class="st0" d="M82.1,144c-0.2,0-0.3,0-0.5,0.2c-0.2,0.1-0.3,0.3-0.1,0.4"/>
	<path class="st0" d="M79,143.6c-0.4,0-0.7-0.1-1,0.2c-0.4,0.3,0.2,0.5,0.6,0.6c0.4,0,0.7,0.1,1-0.2C80,143.8,79.4,143.6,79,143.6z"
		/>
	<path class="st0" d="M78,145.1c-0.4,0-0.7-0.1-1,0.2c-0.4,0.3,0.2,0.5,0.6,0.6c0.4,0,0.7,0.1,1-0.2C79,145.4,78.4,145.2,78,145.1z"
		/>
	<path class="st0" d="M77.1,146.7c-0.4,0-0.7-0.1-1,0.2c-0.4,0.3,0.2,0.5,0.6,0.6c0.4,0,0.7,0.1,1-0.2
		C78.1,146.9,77.5,146.7,77.1,146.7z"/>
	<path class="st0" d="M76.1,148.2c-0.4,0-0.7-0.1-1,0.2c-0.4,0.3,0.2,0.5,0.6,0.6c0.4,0,0.7,0.1,1-0.2
		C77.1,148.5,76.5,148.3,76.1,148.2z"/>
	<path class="st0" d="M75.2,149.8c-0.4,0-0.7-0.1-1,0.2c-0.4,0.3,0.2,0.5,0.6,0.6c0.4,0,0.7,0.1,1-0.2
		C76.2,150,75.6,149.8,75.2,149.8z"/>
	<path class="st0" d="M76.4,141.6c-0.4,0-0.7-0.1-1,0.2c-0.4,0.3,0.2,0.5,0.6,0.6c0.4,0,0.7,0.1,1-0.2
		C77.4,141.9,76.8,141.6,76.4,141.6z"/>
	<path class="st0" d="M80,142c-0.4,0-0.7-0.1-1,0.2c-0.4,0.3,0.2,0.5,0.6,0.6c0.4,0,0.7,0.1,1-0.2C80.9,142.3,80.3,142.1,80,142z"/>
	<path class="st0" d="M161.7,151.5c-0.4,0-0.7-0.1-1,0.2c-0.4,0.3,0.2,0.5,0.6,0.6c0.4,0,0.7,0.1,1-0.2
		C162.7,151.8,162.1,151.6,161.7,151.5z"/>
	<path class="st0" d="M158.3,169.4c-0.4,0-0.7-0.1-1,0.2c-0.4,0.3,0.2,0.5,0.6,0.6c0.4,0,0.7,0.1,1-0.2
		C159.3,169.7,158.7,169.5,158.3,169.4z"/>
	<path class="st0" d="M154.7,169c-0.4,0-0.7-0.1-1,0.2c-0.4,0.3,0.2,0.5,0.6,0.6c0.4,0,0.7,0.1,1-0.2
		C155.7,169.3,155.1,169,154.7,169z"/>
	<path class="st0" d="M151.2,168.6c-0.4,0-0.7-0.1-1,0.2c-0.4,0.3,0.2,0.5,0.6,0.6c0.4,0,0.7,0.1,1-0.2
		C152.2,168.8,151.6,168.6,151.2,168.6z"/>
	<path class="st0" d="M160.7,153.1c-0.4,0-0.7-0.1-1,0.2c-0.4,0.3,0.2,0.5,0.6,0.6c0.4,0,0.7,0.1,1-0.2
		C161.7,153.3,161.1,153.1,160.7,153.1z"/>
	<path class="st0" d="M165.2,152c-0.4,0-0.7-0.1-1,0.2c-0.4,0.3,0.2,0.5,0.6,0.6c0.4,0,0.7,0.1,1-0.2
		C166.2,152.2,165.6,152,165.2,152z"/>
	<path class="st0" d="M164.3,153.5c-0.4,0-0.7-0.1-1,0.2c-0.4,0.3,0.2,0.5,0.6,0.6c0.4,0,0.7,0.1,1-0.2
		C165.3,153.8,164.7,153.6,164.3,153.5z"/>
	<path class="st0" d="M163.3,155.1c-0.4,0-0.7-0.1-1,0.2c-0.4,0.3,0.2,0.5,0.6,0.6c0.4,0,0.7,0.1,1-0.2
		C164.3,155.3,163.7,155.1,163.3,155.1z"/>
	<path class="st0" d="M162.4,156.6c-0.4,0-0.7-0.1-1,0.2c-0.4,0.3,0.2,0.5,0.6,0.6c0.4,0,0.7,0.1,1-0.2
		C163.4,156.9,162.8,156.7,162.4,156.6z"/>
	<path class="st0" d="M161.4,158.2c-0.4,0-0.7-0.1-1,0.2c-0.4,0.3,0.2,0.5,0.6,0.6c0.4,0,0.7,0.1,1-0.2
		C162.4,158.4,161.8,158.2,161.4,158.2z"/>
	<path class="st0" d="M160.5,159.7c-0.4,0-0.7-0.1-1,0.2c-0.4,0.3,0.2,0.5,0.6,0.6c0.4,0,0.7,0.1,1-0.2
		C161.5,160,160.8,159.7,160.5,159.7z"/>
	<path class="st0" d="M168.8,152.4c-0.4,0-0.7-0.1-1,0.2c-0.4,0.3,0.2,0.5,0.6,0.6c0.4,0,0.7,0.1,1-0.2
		C169.8,152.6,169.2,152.4,168.8,152.4z"/>
	<path class="st0" d="M167.8,153.9c-0.4,0-0.7-0.1-1,0.2c-0.4,0.3,0.2,0.5,0.6,0.6c0.4,0,0.7,0.1,1-0.2
		C168.8,154.2,168.2,154,167.8,153.9z"/>
	<path class="st0" d="M166.9,155.5c-0.4,0-0.7-0.1-1,0.2c-0.4,0.3,0.2,0.5,0.6,0.6c0.4,0,0.7,0.1,1-0.2
		C167.9,155.7,167.3,155.5,166.9,155.5"/>
	<path class="st0" d="M165.9,157c-0.4,0-0.7-0.1-1,0.2c-0.4,0.3,0.2,0.5,0.6,0.6c0.4,0,0.7,0.1,1-0.2
		C166.9,157.3,166.3,157.1,165.9,157"/>
	<path class="st0" d="M165,158.6c-0.4,0-0.7-0.1-1,0.2c-0.4,0.3,0.2,0.5,0.6,0.6c0.4,0,0.7,0.1,1-0.2
		C166,158.8,165.4,158.6,165,158.6z"/>
	<path class="st0" d="M164,160.1c-0.4,0-0.7-0.1-1,0.2c-0.4,0.3,0.2,0.5,0.6,0.6c0.4,0,0.7,0.1,1-0.2
		C165,160.4,164.4,160.2,164,160.1z"/>
	<path class="st0" d="M152.1,167c-0.4,0-0.7-0.1-1,0.2c-0.4,0.3,0.2,0.5,0.6,0.6c0.4,0,0.7,0.1,1-0.2
		C153.1,167.3,152.5,167.1,152.1,167z"/>
	<path class="st0" d="M159.5,161.3c-0.4,0-0.7-0.1-1,0.2c-0.4,0.3,0.2,0.5,0.6,0.6c0.4,0,0.7,0.1,1-0.2
		C160.5,161.5,159.9,161.3,159.5,161.3z"/>
	<path class="st0" d="M158.6,162.8c-0.4,0-0.7-0.1-1,0.2c-0.4,0.3,0.2,0.5,0.6,0.6c0.4,0,0.7,0.1,1-0.2
		C159.6,163.1,158.9,162.8,158.6,162.8z"/>
	<path class="st0" d="M157.6,164.4c-0.4,0-0.7-0.1-1,0.2c-0.4,0.3,0.2,0.5,0.6,0.6c0.4,0,0.7,0.1,1-0.2
		C158.6,164.6,158,164.4,157.6,164.4z"/>
	<path class="st0" d="M156.7,165.9c-0.4,0-0.7-0.1-1,0.2c-0.4,0.3,0.2,0.5,0.6,0.6c0.4,0,0.7,0.1,1-0.2
		C157.6,166.2,157,166,156.7,165.9"/>
	<path class="st0" d="M155.7,167.5c-0.4,0-0.7-0.1-1,0.2c-0.4,0.3,0.2,0.5,0.6,0.6c0.4,0,0.7,0.1,1-0.2
		C156.7,167.7,156.1,167.5,155.7,167.5z"/>
	<path class="st0" d="M163.1,161.7c-0.4,0-0.7-0.1-1,0.2c-0.4,0.3,0.2,0.5,0.6,0.6c0.4,0,0.7,0.1,1-0.2
		C164.1,161.9,163.5,161.7,163.1,161.7z"/>
	<path class="st0" d="M162.1,163.2c-0.4,0-0.7-0.1-1,0.2c-0.4,0.3,0.2,0.5,0.6,0.6c0.4,0,0.7,0.1,1-0.2
		C163.1,163.5,162.5,163.3,162.1,163.2z"/>
	<path class="st0" d="M161.2,164.8c-0.4,0-0.7-0.1-1,0.2c-0.4,0.3,0.2,0.5,0.6,0.6c0.4,0,0.7,0.1,1-0.2
		C162.2,165,161.5,164.8,161.2,164.8z"/>
	<path class="st0" d="M160.2,166.3c-0.4,0-0.7-0.1-1,0.2c-0.4,0.3,0.2,0.5,0.6,0.6c0.4,0,0.7,0.1,1-0.2
		C161.2,166.6,160.6,166.4,160.2,166.3z"/>
	<path class="st0" d="M159.3,167.9c-0.4,0-0.7-0.1-1,0.2c-0.4,0.3,0.2,0.5,0.6,0.6c0.4,0,0.7,0.1,1-0.2
		C160.3,168.1,159.6,167.9,159.3,167.9z"/>
	<path class="st0" d="M169.2,164.1c-0.4,0-0.7-0.1-1,0.2c-0.4,0.3,0.2,0.5,0.6,0.6c0.4,0,0.7,0.1,1-0.2
		C170.2,164.3,169.6,164.1,169.2,164.1z"/>
	<path class="st0" d="M170.2,162.5c-0.4,0-0.7-0.1-1,0.2c-0.4,0.3,0.2,0.5,0.6,0.6c0.4,0,0.7,0.1,1-0.2
		C171.2,162.8,170.6,162.5,170.2,162.5z"/>
	<path class="st0" d="M162.8,168.3c-0.4,0-0.7-0.1-1,0.2c-0.4,0.3,0.2,0.5,0.6,0.6c0.4,0,0.7,0.1,1-0.2
		C163.8,168.5,163.2,168.3,162.8,168.3z"/>
	<path class="st0" d="M163.8,166.7c-0.4,0-0.7-0.1-1,0.2c-0.4,0.3,0.2,0.5,0.6,0.6c0.4,0,0.7,0.1,1-0.2
		C164.8,167,164.2,166.8,163.8,166.7z"/>
	<path class="st0" d="M164.7,165.2c-0.4,0-0.7-0.1-1,0.2c-0.4,0.3,0.2,0.5,0.6,0.6c0.4,0,0.7,0.1,1-0.2
		C165.7,165.4,165.1,165.2,164.7,165.2z"/>
	<path class="st0" d="M165.7,163.6c-0.4,0-0.7-0.1-1,0.2c-0.4,0.3,0.2,0.5,0.6,0.6c0.4,0,0.7,0.1,1-0.2
		C166.7,163.9,166.1,163.7,165.7,163.6z"/>
	<path class="st0" d="M166.6,162.1c-0.4,0-0.7-0.1-1,0.2c-0.4,0.3,0.2,0.5,0.6,0.6c0.4,0,0.7,0.1,1-0.2
		C167.6,162.3,167,162.1,166.6,162.1z"/>
	<path class="st0" d="M171.2,161c-0.4,0-0.7-0.1-1,0.2c-0.4,0.3,0.2,0.5,0.6,0.6c0.4,0,0.7,0.1,1-0.2
		C172.1,161.2,171.5,161,171.2,161z"/>
	<path class="st0" d="M172.1,159.4c-0.4,0-0.7-0.1-1,0.2c-0.4,0.3,0.2,0.5,0.6,0.6c0.4,0,0.7,0.1,1-0.2
		C173.1,159.7,172.5,159.4,172.1,159.4z"/>
	<path class="st0" d="M173.1,157.9c-0.4,0-0.7-0.1-1,0.2c-0.4,0.3,0.2,0.5,0.6,0.6c0.4,0,0.7,0.1,1-0.2
		C174.1,158.1,173.4,157.9,173.1,157.9z"/>
	<path class="st0" d="M167.6,160.5c-0.4,0-0.7-0.1-1,0.2c-0.4,0.3,0.2,0.5,0.6,0.6c0.4,0,0.7,0.1,1-0.2
		C168.6,160.8,168,160.6,167.6,160.5z"/>
	<path class="st0" d="M168.5,159c-0.4,0-0.7-0.1-1,0.2c-0.4,0.3,0.2,0.5,0.6,0.6c0.4,0,0.7,0.1,1-0.2
		C169.5,159.2,168.9,159,168.5,159z"/>
	<path class="st0" d="M169.5,157.4c-0.4,0-0.7-0.1-1,0.2c-0.4,0.3,0.2,0.5,0.6,0.6c0.4,0,0.7,0.1,1-0.2
		C170.5,157.7,169.9,157.5,169.5,157.4z"/>
	<path class="st0" d="M170.5,155.9c-0.4,0-0.7-0.1-1,0.2c-0.4,0.3,0.2,0.5,0.6,0.6c0.4,0,0.7,0.1,1-0.2
		C171.4,156.1,170.8,155.9,170.5,155.9z"/>
	<path class="st0" d="M171.4,154.3c-0.4,0-0.7-0.1-1,0.2c-0.4,0.3,0.2,0.5,0.6,0.6c0.4,0,0.7,0.1,1-0.2
		C172.4,154.6,171.8,154.4,171.4,154.3z"/>
	<path class="st0" d="M168.3,165.6c-0.4,0-0.7-0.1-1,0.2c-0.4,0.3,0.2,0.5,0.6,0.6c0.4,0,0.7,0.1,1-0.2
		C169.3,165.9,168.7,165.6,168.3,165.6z"/>
	<path class="st0" d="M61.6,153.2c-0.4,0-0.7-0.1-1,0.2c-0.4,0.3,0.2,0.5,0.6,0.6c0.4,0,0.7,0.1,1-0.2
		C62.6,153.4,62,153.2,61.6,153.2"/>
	<path class="st0" d="M71.9,142.7c-0.4,0-0.7-0.1-1,0.2c-0.4,0.3,0.2,0.5,0.6,0.6c0.4,0,0.7,0.1,1-0.2
		C72.9,143,72.3,142.8,71.9,142.7z"/>
	<path class="st0" d="M70.9,144.3c-0.4,0-0.7-0.1-1,0.2c-0.4,0.3,0.2,0.5,0.6,0.6c0.4,0,0.7,0.1,1-0.2
		C71.9,144.5,71.3,144.3,70.9,144.3z"/>
	<path class="st0" d="M70,145.8c-0.4,0-0.7-0.1-1,0.2c-0.4,0.3,0.2,0.5,0.6,0.6c0.4,0,0.7,0.1,1-0.2C71,146.1,70.3,145.9,70,145.8z"
		/>
	<path class="st0" d="M69,147.4c-0.4,0-0.7-0.1-1,0.2c-0.4,0.3,0.2,0.5,0.6,0.6c0.4,0,0.7,0.1,1-0.2C70,147.6,69.4,147.4,69,147.4z"
		/>
	<path class="st0" d="M68.1,148.9c-0.4,0-0.7-0.1-1,0.2c-0.4,0.3,0.2,0.5,0.6,0.6c0.4,0,0.7,0.1,1-0.2
		C69.1,149.2,68.4,149,68.1,148.9"/>
	<path class="st0" d="M66.4,145.4c-0.4,0-0.7-0.1-1,0.2c-0.4,0.3,0.2,0.5,0.6,0.6c0.4,0,0.7,0.1,1-0.2
		C67.4,145.7,66.8,145.5,66.4,145.4z"/>
	<path class="st0" d="M65.5,147c-0.4,0-0.7-0.1-1,0.2c-0.4,0.3,0.2,0.5,0.6,0.6c0.4,0,0.7,0.1,1-0.2C66.5,147.2,65.8,147,65.5,147z"
		/>
	<path class="st0" d="M64.5,148.5c-0.4,0-0.7-0.1-1,0.2c-0.4,0.3,0.2,0.5,0.6,0.6c0.4,0,0.7,0.1,1-0.2
		C65.5,148.8,64.9,148.6,64.5,148.5z"/>
	<path class="st0" d="M67.1,150.5c-0.4,0-0.7-0.1-1,0.2c-0.4,0.3,0.2,0.5,0.6,0.6c0.4,0,0.7,0.1,1-0.2
		C68.1,150.7,67.5,150.5,67.1,150.5z"/>
	<path class="st0" d="M66.2,152c-0.4,0-0.7-0.1-1,0.2c-0.4,0.3,0.2,0.5,0.6,0.6c0.4,0,0.7,0.1,1-0.2C67.1,152.3,66.5,152.1,66.2,152
		"/>
	<path class="st0" d="M65.2,153.6c-0.4,0-0.7-0.1-1,0.2c-0.4,0.3,0.2,0.5,0.6,0.6c0.4,0,0.7,0.1,1-0.2
		C66.2,153.8,65.6,153.6,65.2,153.6z"/>
	<path class="st0" d="M64.2,155.1c-0.4,0-0.7-0.1-1,0.2c-0.4,0.3,0.2,0.5,0.6,0.6c0.4,0,0.7,0.1,1-0.2
		C65.2,155.4,64.6,155.2,64.2,155.1z"/>
	<path class="st0" d="M63.3,156.7c-0.4,0-0.7-0.1-1,0.2c-0.4,0.3,0.2,0.5,0.6,0.6c0.4,0,0.7,0.1,1-0.2
		C64.3,156.9,63.7,156.7,63.3,156.7z"/>
	<path class="st0" d="M63.6,150.1c-0.4,0-0.7-0.1-1,0.2c-0.4,0.3,0.2,0.5,0.6,0.6c0.4,0,0.7,0.1,1-0.2
		C64.5,150.3,63.9,150.1,63.6,150.1z"/>
	<path class="st0" d="M62.6,151.6c-0.4,0-0.7-0.1-1,0.2c-0.4,0.3,0.2,0.5,0.6,0.6c0.4,0,0.7,0.1,1-0.2
		C63.6,151.9,63,151.7,62.6,151.6z"/>
	<path class="st0" d="M66.9,157.1c-0.4,0-0.7-0.1-1,0.2c-0.4,0.3,0.2,0.5,0.6,0.6c0.4,0,0.7,0.1,1-0.2
		C67.8,157.3,67.2,157.1,66.9,157.1z"/>
	<path class="st0" d="M67.8,155.5c-0.4,0-0.7-0.1-1,0.2c-0.4,0.3,0.2,0.5,0.6,0.6c0.4,0,0.7,0.1,1-0.2
		C68.8,155.8,68.2,155.6,67.8,155.5z"/>
	<path class="st0" d="M68.8,154c-0.4,0-0.7-0.1-1,0.2c-0.4,0.3,0.2,0.5,0.6,0.6c0.4,0,0.7,0.1,1-0.2C69.8,154.2,69.1,154,68.8,154z"
		/>
	<path class="st0" d="M69.7,152.4c-0.4,0-0.7-0.1-1,0.2c-0.4,0.3,0.2,0.5,0.6,0.6c0.4,0,0.7,0.1,1-0.2
		C70.7,152.7,70.1,152.5,69.7,152.4z"/>
	<path class="st0" d="M70.7,150.9c-0.4,0-0.7-0.1-1,0.2c-0.4,0.3,0.2,0.5,0.6,0.6c0.4,0,0.7,0.1,1-0.2
		C71.7,151.1,71,150.9,70.7,150.9z"/>
	<path class="st0" d="M70.4,157.5c-0.4,0-0.7-0.1-1,0.2c-0.4,0.3,0.2,0.5,0.6,0.6c0.4,0,0.7,0.1,1-0.2
		C71.4,157.8,70.8,157.6,70.4,157.5z"/>
	<path class="st0" d="M71.4,156c-0.4,0-0.7-0.1-1,0.2c-0.4,0.3,0.2,0.5,0.6,0.6c0.4,0,0.7,0.1,1-0.2C72.4,156.2,71.7,156,71.4,156z"
		/>
	<path class="st0" d="M72.3,154.4c-0.4,0-0.7-0.1-1,0.2c-0.4,0.3,0.2,0.5,0.6,0.6c0.4,0,0.7,0.1,1-0.2
		C73.3,154.7,72.7,154.5,72.3,154.4z"/>
	<path class="st0" d="M73.3,152.9c-0.4,0-0.7-0.1-1,0.2c-0.4,0.3,0.2,0.5,0.6,0.6c0.4,0,0.7,0.1,1-0.2
		C74.3,153.1,73.7,152.9,73.3,152.9z"/>
	<path class="st0" d="M74.2,151.3c-0.4,0-0.7-0.1-1,0.2c-0.4,0.3,0.2,0.5,0.6,0.6c0.4,0,0.7,0.1,1-0.2
		C75.2,151.6,74.6,151.4,74.2,151.3z"/>
	<path class="st0" d="M74,157.9c-0.4,0-0.7-0.1-1,0.2c-0.4,0.3,0.2,0.5,0.6,0.6c0.4,0,0.7,0.1,1-0.2C75,158.2,74.4,158,74,157.9z"/>
	<path class="st0" d="M71.6,149.3c-0.4,0-0.7-0.1-1,0.2c-0.4,0.3,0.2,0.5,0.6,0.6c0.4,0,0.7,0.1,1-0.2
		C72.6,149.6,72,149.4,71.6,149.3z"/>
	<path class="st0" d="M72.6,147.8c-0.4,0-0.7-0.1-1,0.2c-0.4,0.3,0.2,0.5,0.6,0.6c0.4,0,0.7,0.1,1-0.2C73.6,148,73,147.8,72.6,147.8
		z"/>
	<path class="st0" d="M73.5,146.2c-0.4,0-0.7-0.1-1,0.2c-0.4,0.3,0.2,0.5,0.6,0.6c0.4,0,0.7,0.1,1-0.2
		C74.5,146.5,73.9,146.3,73.5,146.2z"/>
	<path class="st0" d="M74.5,144.7c-0.4,0-0.7-0.1-1,0.2c-0.4,0.3,0.2,0.5,0.6,0.6c0.4,0,0.7,0.1,1-0.2
		C75.5,144.9,74.9,144.7,74.5,144.7z"/>
	<path class="st0" d="M75.4,143.1c-0.4,0-0.7-0.1-1,0.2c-0.4,0.3,0.2,0.5,0.6,0.6c0.4,0,0.7,0.1,1-0.2
		C76.4,143.4,75.8,143.2,75.4,143.1z"/>
</g>
</svg>
