<?xml version="1.0" encoding="utf-8"?>
<!-- Generator: Adobe Illustrator 23.0.1, SVG Export Plug-In . SVG Version: 6.00 Build 0)  -->
<svg version="1.1" id="Layer_1" xmlns="http://www.w3.org/2000/svg" xmlns:xlink="http://www.w3.org/1999/xlink" x="0px" y="0px"
	 viewBox="0 0 229.1 320.2" style="enable-background:new 0 0 229.1 320.2;" xml:space="preserve">
<style type="text/css">
	.st0{fill:none;stroke:#FFFFFF;stroke-width:0.25;stroke-linecap:round;stroke-linejoin:round;}
</style>
<title>breactor_outline_wht</title>
<g>
	<path class="st0" d="M87.9,297c0,1.1-1.7,0.9-1.8-0.2c0-0.5,0.5-0.8,0.9-0.7C87.5,296.2,87.9,296.5,87.9,297z"/>
	<path class="st0" d="M211.6,24c22.6,17,17.6,36.9-5,51c-17.3,10.8-41.1,16.3-60.7,18.6c-20.8,2.5-43,2.2-63.8-0.8
		C63,90,38.6,83.7,22.5,71.5c-22.6-17-17.6-36.9,5-51C44.8,9.7,68.6,4.2,88.2,1.9c20.8-2.5,43-2.2,63.8,0.8
		C171.1,5.5,195.5,11.8,211.6,24z"/>
	<line class="st0" x1="226.3" y1="48" x2="226.3" y2="160.1"/>
	<line class="st0" x1="7.8" y1="160.1" x2="7.8" y2="48.8"/>
	<path class="st0" d="M12,160.1c0,4.6,1.6,8.8,4.1,12.6c3.3,5,7.5,8.7,12.4,12c8.4,5.7,18.3,9.8,27.9,12.7
		c19.2,5.9,40.8,8.4,60.7,8.4c19.9,0,41.6-2.5,60.7-8.4c9.6-3,19.5-7,27.9-12.7c4.8-3.3,9-6.9,12.3-11.9c2.5-3.8,4.1-8.1,4.1-12.7"
		/>
	<path class="st0" d="M222.6,172.5c-2.6,4.2-5.9,7.5-9.7,10.6c-5.1,4-10.6,7.1-16.5,9.8c-10.3,4.7-21,7.8-32,10.2
		c-21.6,4.5-45.1,5.7-67,3.9c-21-1.7-45.7-6.5-64.8-16.7c-5.6-3-10.8-6.4-15.4-10.9c-3.6-3.6-6.4-7.3-8.1-12.1
		c-4.1-12,3-22.3,11.5-29.3"/>
	<path class="st0" d="M213.5,137.9c10.8,8.9,17.3,21.1,9,34.6"/>
	<path class="st0" d="M222.6,284.8c-10,16.2-35.7,25.1-51.8,29.1c-19.3,4.8-40.4,6.6-60.2,6.1c-19.7-0.5-40.9-3.4-59.7-9.7
		c-9.4-3.1-19.1-7.4-27.2-13.2c-4.7-3.4-8.7-7.1-11.9-12c-2.5-4-3.9-7.8-3.9-12.6"/>
	<path class="st0" d="M226.3,272.5c0,4.6-1.3,8.4-3.7,12.3"/>
	<path class="st0" d="M89.7,224.2c0,1.1-1.7,0.9-1.8-0.2c0-0.5,0.5-0.8,0.9-0.7C89.3,223.3,89.6,223.7,89.7,224.2z"/>
	<path class="st0" d="M89.7,224.1c-0.6,0.2-1.2-0.2-1.3-0.8"/>
	<path class="st0" d="M95.1,301.1c0,1.1-1.7,0.9-1.8-0.2c0-0.5,0.5-0.8,0.9-0.7C94.7,300.2,95,300.6,95.1,301.1z"/>
	<path class="st0" d="M95.1,301c-0.6,0.2-1.2-0.2-1.3-0.8"/>
	<path class="st0" d="M91.5,300.7c0,1.1-1.7,0.9-1.8-0.2c0-0.5,0.5-0.8,0.9-0.7C91.1,299.9,91.4,300.3,91.5,300.7z"/>
	<path class="st0" d="M91.5,300.6c-0.6,0.2-1.2-0.2-1.3-0.8"/>
	<path class="st0" d="M98.7,298.1c0,1.1-1.8,1-1.8-0.1c0-0.5,0.5-0.8,0.9-0.8C98.3,297.2,98.7,297.6,98.7,298.1z"/>
	<path class="st0" d="M98.7,298c-0.6,0.2-1.2-0.1-1.3-0.7"/>
	<path class="st0" d="M95.1,297.8c0,1.1-1.7,0.9-1.8-0.2c0-0.5,0.5-0.8,0.9-0.7C94.7,296.9,95,297.3,95.1,297.8z"/>
	<path class="st0" d="M95.1,297.7c-0.6,0.2-1.2-0.2-1.3-0.8"/>
	<path class="st0" d="M91.5,297.4c0,1.1-1.7,0.9-1.8-0.2c0-0.5,0.5-0.8,0.9-0.7C91.1,296.6,91.4,296.9,91.5,297.4z"/>
	<path class="st0" d="M91.5,297.3c-0.6,0.2-1.2-0.2-1.3-0.8"/>
	<path class="st0" d="M102.4,295c-0.1,1.1-1.8,1-1.8-0.1c0-0.5,0.5-0.8,0.9-0.8C101.9,294.1,102.3,294.5,102.4,295z"/>
	<path class="st0" d="M102.4,294.9c-0.6,0.2-1.2-0.1-1.3-0.7"/>
	<path class="st0" d="M98.7,294.7c0,1.1-1.8,1-1.8-0.1c0-0.5,0.5-0.8,0.9-0.8C98.3,293.9,98.7,294.3,98.7,294.7z"/>
	<path class="st0" d="M98.7,294.7c-0.6,0.2-1.2-0.1-1.3-0.7"/>
	<path class="st0" d="M95.1,294.4c0,1.1-1.7,0.9-1.8-0.2c0-0.5,0.5-0.8,0.9-0.7C94.7,293.6,95,294,95.1,294.4z"/>
	<path class="st0" d="M95.1,294.4c-0.6,0.2-1.2-0.2-1.3-0.8"/>
	<path class="st0" d="M91.5,294.1c0,1.1-1.7,0.9-1.8-0.2c0-0.5,0.5-0.8,0.9-0.7C91.1,293.2,91.4,293.6,91.5,294.1z"/>
	<path class="st0" d="M91.5,294c-0.6,0.2-1.2-0.2-1.3-0.8"/>
	<path class="st0" d="M102.4,291.7c-0.1,1.1-1.8,1-1.8-0.1c0-0.5,0.5-0.8,0.9-0.8C101.9,290.8,102.3,291.2,102.4,291.7z"/>
	<path class="st0" d="M102.4,291.6c-0.6,0.2-1.2-0.1-1.3-0.7"/>
	<path class="st0" d="M98.7,291.4c0,1.1-1.8,1-1.8-0.1c0-0.5,0.5-0.8,0.9-0.8C98.3,290.6,98.7,290.9,98.7,291.4z"/>
	<path class="st0" d="M98.7,291.3c-0.6,0.2-1.2-0.1-1.3-0.7"/>
	<path class="st0" d="M95.1,291.1c0,1.1-1.7,0.9-1.8-0.2c0-0.5,0.5-0.8,0.9-0.7C94.7,290.3,95,290.7,95.1,291.1z"/>
	<path class="st0" d="M95.1,291c-0.6,0.2-1.2-0.2-1.3-0.8"/>
	<path class="st0" d="M91.5,290.8c0,1.1-1.7,0.9-1.8-0.2c0-0.5,0.5-0.8,0.9-0.7C91.1,289.9,91.4,290.3,91.5,290.8z"/>
	<path class="st0" d="M91.5,290.7c-0.6,0.2-1.2-0.2-1.3-0.8"/>
	<path class="st0" d="M87.9,300.3c0,1.1-1.7,0.9-1.8-0.2c0-0.5,0.5-0.8,0.9-0.7C87.5,299.5,87.9,299.9,87.9,300.3z"/>
	<path class="st0" d="M87.9,300.2c-0.6,0.2-1.2-0.2-1.3-0.8"/>
	<path class="st0" d="M84.4,299.9c0,0.5-0.5,0.8-0.9,0.7c-0.5-0.1-0.8-0.5-0.8-0.9c0-0.5,0.5-0.8,0.9-0.7
		C84,299,84.3,299.4,84.4,299.9z"/>
	<path class="st0" d="M84.3,299.8c-0.6,0.2-1.2-0.2-1.3-0.8"/>
	<path class="st0" d="M87.9,296.9c-0.6,0.2-1.2-0.2-1.3-0.8"/>
	<path class="st0" d="M84.4,296.6c0,0.5-0.5,0.8-0.9,0.7c-0.5-0.1-0.8-0.5-0.8-0.9c0-0.5,0.5-0.8,0.9-0.7
		C84,295.7,84.3,296.1,84.4,296.6z"/>
	<path class="st0" d="M84.3,296.4c-0.6,0.2-1.2-0.2-1.3-0.8"/>
	<path class="st0" d="M80.9,296.1c0,0.5-0.5,0.8-0.9,0.7c-0.5-0.1-0.8-0.5-0.8-1c0-0.5,0.5-0.8,0.9-0.7
		C80.5,295.2,80.8,295.6,80.9,296.1z"/>
	<path class="st0" d="M80.8,295.9c-0.6,0.2-1.1-0.3-1.2-0.8"/>
	<path class="st0" d="M87.9,293.7c0,1.1-1.7,0.9-1.8-0.2c0-0.5,0.5-0.8,0.9-0.7C87.5,292.8,87.9,293.2,87.9,293.7z"/>
	<path class="st0" d="M87.9,293.6c-0.6,0.2-1.2-0.2-1.3-0.8"/>
	<path class="st0" d="M84.4,293.2c0,0.5-0.5,0.8-0.9,0.7c-0.5-0.1-0.8-0.5-0.8-0.9c0-0.5,0.5-0.8,0.9-0.7
		C84,292.4,84.3,292.8,84.4,293.2z"/>
	<path class="st0" d="M84.3,293.1c-0.6,0.2-1.2-0.2-1.3-0.8"/>
	<path class="st0" d="M80.9,292.7c0,0.5-0.5,0.8-0.9,0.7c-0.5-0.1-0.8-0.5-0.8-1c0-0.5,0.5-0.8,0.9-0.7
		C80.5,291.9,80.8,292.3,80.9,292.7z"/>
	<path class="st0" d="M80.8,292.6c-0.6,0.2-1.1-0.3-1.2-0.8"/>
	<path class="st0" d="M77.4,292.2c0,0.5-0.5,0.8-0.9,0.7c-0.4-0.1-0.8-0.5-0.8-1c0-0.5,0.5-0.8,0.9-0.7
		C77,291.3,77.4,291.7,77.4,292.2z"/>
	<path class="st0" d="M77.4,292c-0.6,0.2-1.1-0.3-1.2-0.8"/>
	<path class="st0" d="M87.9,290.4c0,1.1-1.7,0.9-1.8-0.2c0-0.5,0.5-0.8,0.9-0.7C87.5,289.5,87.9,289.9,87.9,290.4z"/>
	<path class="st0" d="M87.9,290.3c-0.6,0.2-1.2-0.2-1.3-0.8"/>
	<path class="st0" d="M84.4,289.9c0,0.5-0.5,0.8-0.9,0.7c-0.5-0.1-0.8-0.5-0.8-0.9c0-0.5,0.5-0.8,0.9-0.7
		C84,289.1,84.3,289.5,84.4,289.9z"/>
	<path class="st0" d="M84.3,289.8c-0.6,0.2-1.2-0.2-1.3-0.8"/>
	<path class="st0" d="M80.9,289.4c0,0.5-0.5,0.8-0.9,0.7c-0.5-0.1-0.8-0.5-0.8-1c0-0.5,0.5-0.8,0.9-0.7
		C80.5,288.6,80.8,289,80.9,289.4z"/>
	<line class="st0" x1="7.8" y1="230.1" x2="7.9" y2="230.1"/>
	<line class="st0" x1="7.8" y1="216.8" x2="7.9" y2="216.8"/>
	<line class="st0" x1="7.8" y1="220.1" x2="7.9" y2="220.1"/>
	<line class="st0" x1="7.8" y1="223.4" x2="7.9" y2="223.4"/>
	<line class="st0" x1="7.8" y1="226.8" x2="7.9" y2="226.8"/>
	<line class="st0" x1="7.8" y1="213.5" x2="7.9" y2="213.5"/>
	<line class="st0" x1="7.8" y1="210.2" x2="7.9" y2="210.2"/>
	<line class="st0" x1="7.8" y1="206.8" x2="7.9" y2="206.9"/>
	<line class="st0" x1="7.8" y1="203.5" x2="7.9" y2="203.5"/>
	<line class="st0" x1="7.8" y1="200.2" x2="7.9" y2="200.2"/>
	<line class="st0" x1="7.8" y1="200.8" x2="7.8" y2="161"/>
	<line class="st0" x1="7.8" y1="204.1" x2="7.8" y2="202"/>
	<line class="st0" x1="7.8" y1="207.4" x2="7.8" y2="205.3"/>
	<line class="st0" x1="7.8" y1="210.8" x2="7.8" y2="210"/>
	<line class="st0" x1="7.8" y1="214.1" x2="7.8" y2="213.4"/>
	<line class="st0" x1="7.8" y1="217.4" x2="7.8" y2="216.7"/>
	<line class="st0" x1="7.8" y1="220.7" x2="7.8" y2="219.5"/>
	<line class="st0" x1="7.8" y1="224" x2="7.8" y2="222.8"/>
	<line class="st0" x1="7.8" y1="227.4" x2="7.8" y2="226.2"/>
	<line class="st0" x1="7.8" y1="230.7" x2="7.8" y2="228.6"/>
	<line class="st0" x1="7.8" y1="272.5" x2="7.8" y2="231.9"/>
	<line class="st0" x1="226.3" y1="232.5" x2="226.3" y2="272.5"/>
	<line class="st0" x1="226.3" y1="229.1" x2="226.3" y2="230.6"/>
	<line class="st0" x1="226.3" y1="225.8" x2="226.3" y2="227.3"/>
	<line class="st0" x1="226.3" y1="222.5" x2="226.3" y2="224"/>
	<line class="st0" x1="226.3" y1="219.2" x2="226.3" y2="220.7"/>
	<line class="st0" x1="226.3" y1="215.9" x2="226.3" y2="217.4"/>
	<line class="st0" x1="226.3" y1="212.5" x2="226.3" y2="214"/>
	<line class="st0" x1="226.3" y1="209.2" x2="226.3" y2="210.7"/>
	<line class="st0" x1="226.3" y1="205.9" x2="226.3" y2="207.4"/>
	<line class="st0" x1="226.3" y1="202.6" x2="226.3" y2="204.1"/>
	<line class="st0" x1="226.3" y1="160.5" x2="226.3" y2="200.8"/>
	<line class="st0" x1="222.1" y1="157.4" x2="222.1" y2="160.1"/>
	<line class="st0" x1="12" y1="160.1" x2="12" y2="157.6"/>
	<path class="st0" d="M80.8,289.3c-0.6,0.2-1.1-0.3-1.2-0.8"/>
	<path class="st0" d="M77.4,288.9c0,0.5-0.5,0.8-0.9,0.7c-0.4-0.1-0.8-0.5-0.8-1c0-0.5,0.5-0.8,0.9-0.7
		C77,288,77.4,288.4,77.4,288.9z"/>
	<path class="st0" d="M77.4,288.7c-0.6,0.2-1.1-0.3-1.2-0.8"/>
	<path class="st0" d="M84.4,276.6c0,0.5-0.5,0.8-0.9,0.7c-0.5-0.1-0.8-0.5-0.8-0.9c0-0.5,0.5-0.8,0.9-0.7
		C84,275.8,84.3,276.2,84.4,276.6z"/>
	<path class="st0" d="M162.5,315.8c1.7,0.4,3.4,0.4,5.2,0.1c1.2-0.2,3.8-0.8,4.5-2.2"/>
	<path class="st0" d="M165.5,315.2c2.1,0,5.1-0.4,7-1.7"/>
	<path class="st0" d="M84.3,276.5c-0.6,0.2-1.2-0.2-1.3-0.8"/>
	<path class="st0" d="M87.9,277.1c0,1.1-1.7,0.9-1.8-0.2c0-0.5,0.5-0.8,0.9-0.7C87.5,276.2,87.9,276.6,87.9,277.1z"/>
	<path class="st0" d="M87.9,277c-0.6,0.2-1.2-0.2-1.3-0.8"/>
	<path class="st0" d="M80.9,279.5c0,0.5-0.5,0.8-0.9,0.7c-0.5-0.1-0.8-0.5-0.8-1c0-0.5,0.5-0.8,0.9-0.7
		C80.5,278.6,80.8,279,80.9,279.5z"/>
	<path class="st0" d="M80.8,279.3c-0.6,0.2-1.1-0.3-1.2-0.8"/>
	<path class="st0" d="M84.4,280c0,0.5-0.5,0.8-0.9,0.7c-0.5-0.1-0.8-0.5-0.8-0.9c0-0.5,0.5-0.8,0.9-0.7
		C84,279.1,84.3,279.5,84.4,280z"/>
	<path class="st0" d="M84.3,279.9c-0.6,0.2-1.2-0.2-1.3-0.8"/>
	<path class="st0" d="M87.9,280.4c0,1.1-1.7,0.9-1.8-0.2c0-0.5,0.5-0.8,0.9-0.7C87.5,279.6,87.9,280,87.9,280.4z"/>
	<path class="st0" d="M87.9,280.3c-0.6,0.2-1.2-0.2-1.3-0.8"/>
	<path class="st0" d="M77.4,282.2c0,0.5-0.5,0.8-0.9,0.7c-0.4-0.1-0.8-0.5-0.8-1c0-0.5,0.5-0.8,0.9-0.7
		C77,281.4,77.4,281.8,77.4,282.2z"/>
	<path class="st0" d="M77.4,282.1c-0.6,0.2-1.1-0.3-1.2-0.8"/>
	<path class="st0" d="M80.9,282.8c0,0.5-0.5,0.8-0.9,0.7c-0.5-0.1-0.8-0.5-0.8-1c0-0.5,0.5-0.8,0.9-0.7
		C80.5,281.9,80.8,282.3,80.9,282.8z"/>
	<path class="st0" d="M80.8,282.7c-0.6,0.2-1.1-0.3-1.2-0.8"/>
	<path class="st0" d="M84.4,283.3c0,0.5-0.5,0.8-0.9,0.7c-0.5-0.1-0.8-0.5-0.8-0.9c0-0.5,0.5-0.8,0.9-0.7
		C84,282.4,84.3,282.8,84.4,283.3z"/>
	<path class="st0" d="M84.3,283.2c-0.6,0.2-1.2-0.2-1.3-0.8"/>
	<path class="st0" d="M87.9,283.7c0,1.1-1.7,0.9-1.8-0.2c0-0.5,0.5-0.8,0.9-0.7C87.5,282.9,87.9,283.3,87.9,283.7z"/>
	<path class="st0" d="M87.9,283.6c-0.6,0.2-1.2-0.2-1.3-0.8"/>
	<path class="st0" d="M77.4,285.5c0,0.5-0.5,0.8-0.9,0.7c-0.4-0.1-0.8-0.5-0.8-1c0-0.5,0.5-0.8,0.9-0.7
		C77,284.7,77.4,285.1,77.4,285.5z"/>
	<path class="st0" d="M77.4,285.4c-0.6,0.2-1.1-0.3-1.2-0.8"/>
	<path class="st0" d="M80.9,286.1c0,0.5-0.5,0.8-0.9,0.7c-0.5-0.1-0.8-0.5-0.8-1c0-0.5,0.5-0.8,0.9-0.7
		C80.5,285.2,80.8,285.6,80.9,286.1z"/>
	<path class="st0" d="M80.8,286c-0.6,0.2-1.1-0.3-1.2-0.8"/>
	<path class="st0" d="M84.4,286.6c0,0.5-0.5,0.8-0.9,0.7c-0.5-0.1-0.8-0.5-0.8-0.9c0-0.5,0.5-0.8,0.9-0.7
		C84,285.7,84.3,286.1,84.4,286.6z"/>
	<path class="st0" d="M84.3,286.5c-0.6,0.2-1.2-0.2-1.3-0.8"/>
	<path class="st0" d="M87.9,287.1c0,1.1-1.7,0.9-1.8-0.2c0-0.5,0.5-0.8,0.9-0.7C87.5,286.2,87.9,286.6,87.9,287.1z"/>
	<path class="st0" d="M87.9,287c-0.6,0.2-1.2-0.2-1.3-0.8"/>
	<path class="st0" d="M91.5,277.5c0,1.1-1.7,0.9-1.8-0.2c0-0.5,0.5-0.8,0.9-0.7C91.1,276.6,91.4,277,91.5,277.5z"/>
	<path class="st0" d="M91.5,277.4c-0.6,0.2-1.2-0.2-1.3-0.8"/>
	<path class="st0" d="M95.1,277.9c0,1.1-1.7,0.9-1.8-0.2c0-0.5,0.5-0.8,0.9-0.7C94.7,277,95,277.4,95.1,277.9z"/>
	<path class="st0" d="M95.1,277.8c-0.6,0.2-1.2-0.2-1.3-0.8"/>
	<path class="st0" d="M91.5,280.8c0,1.1-1.7,0.9-1.8-0.2c0-0.5,0.5-0.8,0.9-0.7C91.1,280,91.4,280.4,91.5,280.8z"/>
	<path class="st0" d="M91.5,280.7c-0.6,0.2-1.2-0.2-1.3-0.8"/>
	<path class="st0" d="M95.1,281.2c0,1.1-1.7,0.9-1.8-0.2c0-0.5,0.5-0.8,0.9-0.7C94.7,280.3,95,280.7,95.1,281.2z"/>
	<path class="st0" d="M95.1,281.1c-0.6,0.2-1.2-0.2-1.3-0.8"/>
	<path class="st0" d="M98.7,281.5c0,1.1-1.8,1-1.8-0.1c0-0.5,0.5-0.8,0.9-0.8C98.3,280.6,98.7,281,98.7,281.5z"/>
	<path class="st0" d="M98.7,281.4c-0.6,0.2-1.2-0.1-1.3-0.7"/>
	<path class="st0" d="M91.5,284.1c0,1.1-1.7,0.9-1.8-0.2c0-0.5,0.5-0.8,0.9-0.7C91.1,283.3,91.4,283.7,91.5,284.1z"/>
	<path class="st0" d="M91.5,284c-0.6,0.2-1.2-0.2-1.3-0.8"/>
	<path class="st0" d="M95.1,284.5c0,1.1-1.7,0.9-1.8-0.2c0-0.5,0.5-0.8,0.9-0.7C94.7,283.6,95,284,95.1,284.5z"/>
	<path class="st0" d="M95.1,284.4c-0.6,0.2-1.2-0.2-1.3-0.8"/>
	<path class="st0" d="M98.7,284.8c0,1.1-1.8,1-1.8-0.1c0-0.5,0.5-0.8,0.9-0.8C98.3,283.9,98.7,284.3,98.7,284.8z"/>
	<path class="st0" d="M98.7,284.7c-0.6,0.2-1.2-0.1-1.3-0.7"/>
	<path class="st0" d="M102.4,285c-0.1,1.1-1.8,1-1.8-0.1c0-0.5,0.5-0.8,0.9-0.8C101.9,284.2,102.3,284.6,102.4,285z"/>
	<path class="st0" d="M102.4,284.9c-0.6,0.2-1.2-0.1-1.3-0.7"/>
	<path class="st0" d="M91.5,287.5c0,1.1-1.7,0.9-1.8-0.2c0-0.5,0.5-0.8,0.9-0.7C91.1,286.6,91.4,287,91.5,287.5z"/>
	<path class="st0" d="M91.5,287.4c-0.6,0.2-1.2-0.2-1.3-0.8"/>
	<path class="st0" d="M95.1,287.8c0,1.1-1.7,0.9-1.8-0.2c0-0.5,0.5-0.8,0.9-0.7C94.7,287,95,287.3,95.1,287.8z"/>
	<path class="st0" d="M95.1,287.7c-0.6,0.2-1.2-0.2-1.3-0.8"/>
	<path class="st0" d="M98.7,288.1c0,1.1-1.8,1-1.8-0.1c0-0.5,0.5-0.8,0.9-0.8C98.3,287.2,98.7,287.6,98.7,288.1z"/>
	<path class="st0" d="M98.7,288c-0.6,0.2-1.2-0.1-1.3-0.7"/>
	<path class="st0" d="M102.4,288.3c-0.1,1.1-1.8,1-1.8-0.1c0-0.5,0.5-0.8,0.9-0.8C101.9,287.5,102.3,287.9,102.4,288.3z"/>
	<path class="st0" d="M102.4,288.3c-0.6,0.2-1.2-0.1-1.3-0.7"/>
	<path class="st0" d="M7.8,200.8c0,0.4,0,0.8,0,1.2"/>
	<path class="st0" d="M7.9,198.6c-0.1,0.5-0.1,1.1,0,1.6"/>
	<path class="st0" d="M7.8,204.2c0,0.4,0,0.8,0,1.2"/>
	<path class="st0" d="M7.9,202.1c0,0.5,0,1,0,1.5"/>
	<path class="st0" d="M7.8,209c0-0.1,0-0.2,0-0.3"/>
	<path class="st0" d="M7.9,208.7c0,0.2,0.1,1.5,0,1.7"/>
	<path class="st0" d="M7.9,210.3c0-0.4,0-0.8,0-1.2"/>
	<path class="st0" d="M7.8,207.5c0,0.4,0,0.7,0,1.1"/>
	<path class="st0" d="M7.9,205.4c0,0.5,0,1,0,1.5"/>
	<path class="st0" d="M7.8,212.3c0-0.1,0-0.2,0-0.3"/>
	<path class="st0" d="M7.9,212c0,0.2,0.1,1.5,0,1.7"/>
	<path class="st0" d="M7.9,213.6c0-0.4,0-0.8,0-1.2"/>
	<path class="st0" d="M7.8,210.8c0,0.4,0,0.7,0,1.1"/>
	<path class="st0" d="M7.8,215.7c0-0.1,0-0.2,0-0.3"/>
	<path class="st0" d="M7.9,215.3c0,0.2,0.1,1.5,0,1.7"/>
	<path class="st0" d="M7.9,216.9c0-0.4,0-0.8,0-1.2"/>
	<path class="st0" d="M7.8,214.1c0,0.4,0,0.7,0,1.1"/>
	<path class="st0" d="M7.9,231.9c0,0.2-0.1,1.5,0,1.6"/>
	<path class="st0" d="M7.9,228.6c0,0.5,0,1,0,1.5"/>
	<path class="st0" d="M7.8,227.4c0,0.4,0,0.8,0,1.2"/>
	<path class="st0" d="M7.8,224.1c0,0.3,0,0.7,0,1"/>
	<path class="st0" d="M7.8,220.7c0,0.3,0,0.7,0,1"/>
	<path class="st0" d="M7.8,222.3c0-0.1,0-0.3,0-0.4"/>
	<path class="st0" d="M7.9,221.8c0,0.2,0.1,1.6,0,1.8"/>
	<path class="st0" d="M7.9,222.9c0-0.2,0-0.4,0-0.7"/>
	<path class="st0" d="M7.8,217.4c0,0.3,0,0.7,0,1"/>
	<path class="st0" d="M7.8,219c0-0.1,0-0.3,0-0.4"/>
	<path class="st0" d="M7.9,218.5c0,0.2,0.1,1.6,0,1.8"/>
	<path class="st0" d="M7.9,219.6c0-0.2,0-0.4,0-0.7"/>
	<path class="st0" d="M7.8,230.7c0,0.4,0,0.8,0,1.2"/>
	<path class="st0" d="M7.8,225.6c0-0.1,0-0.3,0-0.4"/>
	<path class="st0" d="M7.9,225.2c0,0.2,0.1,1.6,0,1.8"/>
	<path class="st0" d="M7.9,226.3c0-0.2,0-0.4,0-0.7"/>
	<path class="st0" d="M224.7,196.1c0,0.3,0,0.6-0.1,0.9c0,0.1-0.1,0.5-0.2,0.3c-0.1-0.2-0.1-0.3-0.1-0.5c0-0.3,0-0.6,0.1-0.9
		c0-0.1,0.1-0.6,0.2-0.3C224.7,195.8,224.7,196,224.7,196.1z"/>
	<path class="st0" d="M225.7,196.2c0,0.2,0,0.4,0,0.7c0,0.1,0,0.2,0,0.3c0,0.1,0.1,0.2-0.1,0.3"/>
	<path class="st0" d="M225.6,195.8C225.6,195.7,225.6,195.7,225.6,195.8"/>
	<path class="st0" d="M225.7,195.7c0.1,0.2,0.1,0.3,0.1,0.5"/>
	<path class="st0" d="M76.5,281.2c0,0.2-0.1,0.3-0.1,0.5"/>
	<path class="st0" d="M76.9,288c0.1,0.2,0.2,0.5,0.3,0.7"/>
	<path class="st0" d="M76.2,284.6c0,0.1,0,0.2,0,0.3"/>
	<path class="st0" d="M76.9,292c-0.1-0.3-0.3-0.6-0.4-0.8"/>
	<path class="st0" d="M84.3,299.7c-0.4-0.2-0.8-0.5-1.2-0.7"/>
	<path class="st0" d="M226,217.4c0,0.1,0,0.1,0,0.2"/>
	<path class="st0" d="M226,217.5c0-0.1,0-0.3,0.1-0.2"/>
	<path class="st0" d="M226,217.9c0,0.4,0.1,0.9-0.1,1.3"/>
	<path class="st0" d="M225.7,219c0.1,0.2,0.1,0.3,0.1,0.5"/>
	<path class="st0" d="M225.5,220.6c0-0.3,0-0.6,0-0.8c0-0.1,0-0.3,0-0.4c0-0.1,0-0.1,0-0.2c0-0.1,0-0.1,0.1-0.2"/>
	<path class="st0" d="M225.7,219.5c0,0.2,0,0.4,0,0.7c0,0.1,0,0.2,0,0.3c0,0.1,0.1,0.2-0.1,0.3"/>
	<path class="st0" d="M225.3,221.1c0,0.3,0,0.6-0.1,0.9c0,0.1-0.1,0.6-0.2,0.3c-0.1-0.2,0-0.3,0-0.5c0-0.3,0-0.6,0.1-0.9
		c0-0.1,0.1-0.6,0.2-0.3C225.3,220.8,225.3,220.9,225.3,221.1z"/>
	<path class="st0" d="M224.7,222.7c0,0.3,0,0.6-0.1,0.9c0,0.1-0.1,0.5-0.2,0.3c-0.1-0.2-0.1-0.3-0.1-0.5c0-0.3,0-0.6,0.1-0.9
		c0-0.1,0.1-0.6,0.2-0.3C224.7,222.4,224.7,222.5,224.7,222.7z"/>
	<path class="st0" d="M224,224.3c0,0.3,0,0.6-0.1,1c0,0.1-0.1,0.5-0.2,0.3c-0.1-0.2-0.1-0.3-0.1-0.5c0-0.3,0-0.6,0.1-1
		c0-0.1,0.1-0.5,0.2-0.3C224.1,223.9,224,224.1,224,224.3z"/>
	<path class="st0" d="M223.2,225.8c0,0.3,0,0.6-0.1,1c0,0.1-0.1,0.5-0.2,0.3c-0.1-0.2-0.1-0.3-0.1-0.5c0-0.3,0-0.6,0.1-1
		c0-0.1,0.1-0.5,0.2-0.3C223.3,225.5,223.2,225.7,223.2,225.8z"/>
	<path class="st0" d="M226,214c0,0.1,0,0.1,0,0.2"/>
	<path class="st0" d="M226,214.2c0-0.1,0-0.3,0.1-0.2"/>
	<path class="st0" d="M226,214.5c0,0.4,0.1,0.9-0.1,1.3"/>
	<path class="st0" d="M225.7,215.6c0.1,0.2,0.1,0.3,0.1,0.5"/>
	<path class="st0" d="M225.5,217.3c0-0.3,0-0.6,0-0.8c0-0.1,0-0.3,0-0.4c0-0.1,0-0.1,0-0.2c0-0.1,0-0.1,0.1-0.2"/>
	<path class="st0" d="M225.7,216.2c0,0.2,0,0.4,0,0.7c0,0.1,0,0.2,0,0.3c0,0.1,0.1,0.2-0.1,0.3"/>
	<path class="st0" d="M225.3,217.8c0,0.3,0,0.6-0.1,0.9c0,0.1-0.1,0.6-0.2,0.3c-0.1-0.2,0-0.3,0-0.5c0-0.3,0-0.6,0.1-0.9
		c0-0.1,0.1-0.6,0.2-0.3C225.3,217.5,225.3,217.6,225.3,217.8z"/>
	<path class="st0" d="M224.7,219.4c0,0.3,0,0.6-0.1,0.9c0,0.1-0.1,0.5-0.2,0.3c-0.1-0.2-0.1-0.3-0.1-0.5c0-0.3,0-0.6,0.1-0.9
		c0-0.1,0.1-0.6,0.2-0.3C224.7,219,224.7,219.2,224.7,219.4z"/>
	<path class="st0" d="M224,220.9c0,0.3,0,0.6-0.1,1c0,0.1-0.1,0.5-0.2,0.3c-0.1-0.2-0.1-0.3-0.1-0.5c0-0.3,0-0.6,0.1-1
		c0-0.1,0.1-0.5,0.2-0.3C224.1,220.6,224,220.8,224,220.9z"/>
	<path class="st0" d="M223.2,222.5c0,0.3,0,0.6-0.1,1c0,0.1-0.1,0.5-0.2,0.3c-0.1-0.2-0.1-0.3-0.1-0.5c0-0.3,0-0.6,0.1-1
		c0-0.1,0.1-0.5,0.2-0.3C223.3,222.2,223.2,222.3,223.2,222.5z"/>
	<path class="st0" d="M226,210.7c0,0.1,0,0.1,0,0.2"/>
	<path class="st0" d="M226,210.9c0-0.1,0-0.3,0.1-0.2"/>
	<path class="st0" d="M226,211.2c0,0.4,0.1,0.9-0.1,1.3"/>
	<path class="st0" d="M225.7,212.3c0.1,0.2,0.1,0.3,0.1,0.5"/>
	<path class="st0" d="M225.5,214c0-0.3,0-0.6,0-0.8c0-0.1,0-0.3,0-0.4c0-0.1,0-0.1,0-0.2c0-0.1,0-0.1,0.1-0.2"/>
	<path class="st0" d="M225.7,212.8c0,0.2,0,0.4,0,0.7c0,0.1,0,0.2,0,0.3c0,0.1,0.1,0.2-0.1,0.3"/>
	<path class="st0" d="M225.3,214.4c0,0.3,0,0.6-0.1,0.9c0,0.1-0.1,0.6-0.2,0.3c-0.1-0.2,0-0.3,0-0.5c0-0.3,0-0.6,0.1-0.9
		c0-0.1,0.1-0.6,0.2-0.3C225.3,214.1,225.3,214.3,225.3,214.4z"/>
	<path class="st0" d="M224.7,216c0,0.3,0,0.6-0.1,0.9c0,0.1-0.1,0.5-0.2,0.3c-0.1-0.2-0.1-0.3-0.1-0.5c0-0.3,0-0.6,0.1-0.9
		c0-0.1,0.1-0.6,0.2-0.3C224.7,215.7,224.7,215.9,224.7,216z"/>
	<path class="st0" d="M224,217.6c0,0.3,0,0.6-0.1,1c0,0.1-0.1,0.5-0.2,0.3c-0.1-0.2-0.1-0.3-0.1-0.5c0-0.3,0-0.6,0.1-1
		c0-0.1,0.1-0.5,0.2-0.3C224.1,217.3,224,217.5,224,217.6z"/>
	<path class="st0" d="M223.2,219.2c0,0.3,0,0.6-0.1,1c0,0.1-0.1,0.5-0.2,0.3c-0.1-0.2-0.1-0.3-0.1-0.5c0-0.3,0-0.6,0.1-1
		c0-0.1,0.1-0.5,0.2-0.3C223.3,218.9,223.2,219,223.2,219.2z"/>
	<path class="st0" d="M226,207.4c0,0.1,0,0.1,0,0.2"/>
	<path class="st0" d="M226,207.6c0-0.1,0-0.3,0.1-0.2"/>
	<path class="st0" d="M226,207.9c0,0.4,0.1,0.9-0.1,1.3"/>
	<path class="st0" d="M225.7,209c0.1,0.2,0.1,0.3,0.1,0.5"/>
	<path class="st0" d="M225.5,210.6c0-0.3,0-0.6,0-0.8c0-0.1,0-0.3,0-0.4c0-0.1,0-0.1,0-0.2c0-0.1,0-0.1,0.1-0.2"/>
	<path class="st0" d="M225.7,209.5c0,0.2,0,0.4,0,0.7c0,0.1,0,0.2,0,0.3c0,0.1,0.1,0.2-0.1,0.3"/>
	<path class="st0" d="M225.3,211.1c0,0.3,0,0.6-0.1,0.9c0,0.1-0.1,0.6-0.2,0.3c-0.1-0.2,0-0.3,0-0.5c0-0.3,0-0.6,0.1-0.9
		c0-0.1,0.1-0.6,0.2-0.3C225.3,210.8,225.3,211,225.3,211.1z"/>
	<path class="st0" d="M224.7,212.7c0,0.3,0,0.6-0.1,0.9c0,0.1-0.1,0.5-0.2,0.3c-0.1-0.2-0.1-0.3-0.1-0.5c0-0.3,0-0.6,0.1-0.9
		c0-0.1,0.1-0.6,0.2-0.3C224.7,212.4,224.7,212.6,224.7,212.7z"/>
	<path class="st0" d="M224,214.3c0,0.3,0,0.6-0.1,1c0,0.1-0.1,0.5-0.2,0.3c-0.1-0.2-0.1-0.3-0.1-0.5c0-0.3,0-0.6,0.1-1
		c0-0.1,0.1-0.5,0.2-0.3C224.1,214,224,214.1,224,214.3z"/>
	<path class="st0" d="M223.2,215.9c0,0.3,0,0.6-0.1,1c0,0.1-0.1,0.5-0.2,0.3c-0.1-0.2-0.1-0.3-0.1-0.5c0-0.3,0-0.6,0.1-1
		c0-0.1,0.1-0.5,0.2-0.3C223.3,215.6,223.2,215.7,223.2,215.9z"/>
	<path class="st0" d="M226,204.1c0,0.2,0,0.3,0,0.5"/>
	<path class="st0" d="M226,204.2c0-0.1,0-0.3,0.1-0.2"/>
	<path class="st0" d="M226,204.6c0,0.4,0.1,0.9-0.1,1.3"/>
	<path class="st0" d="M225.7,205.7c0.1,0.2,0.1,0.3,0.1,0.5"/>
	<path class="st0" d="M225.5,207.3c0-0.3,0-0.6,0-0.8c0-0.1,0-0.3,0-0.4c0-0.1,0-0.1,0-0.2c0-0.1,0-0.1,0.1-0.2"/>
	<path class="st0" d="M225.7,206.2c0,0.2,0,0.4,0,0.7c0,0.1,0,0.2,0,0.3c0,0.1,0.1,0.2-0.1,0.3"/>
	<path class="st0" d="M225.3,207.8c0,0.3,0,0.6-0.1,0.9c0,0.1-0.1,0.6-0.2,0.3c-0.1-0.2,0-0.3,0-0.5c0-0.3,0-0.6,0.1-0.9
		c0-0.1,0.1-0.6,0.2-0.3C225.3,207.5,225.3,207.7,225.3,207.8z"/>
	<path class="st0" d="M224.7,209.4c0,0.3,0,0.6-0.1,0.9c0,0.1-0.1,0.5-0.2,0.3c-0.1-0.2-0.1-0.3-0.1-0.5c0-0.3,0-0.6,0.1-0.9
		c0-0.1,0.1-0.6,0.2-0.3C224.7,209.1,224.7,209.2,224.7,209.4z"/>
	<path class="st0" d="M224,211c0,0.3,0,0.6-0.1,1c0,0.1-0.1,0.5-0.2,0.3c-0.1-0.2-0.1-0.3-0.1-0.5c0-0.3,0-0.6,0.1-1
		c0-0.1,0.1-0.5,0.2-0.3C224.1,210.7,224,210.8,224,211z"/>
	<path class="st0" d="M223.2,212.6c0,0.3,0,0.6-0.1,1c0,0.1-0.1,0.5-0.2,0.3c-0.1-0.2-0.1-0.3-0.1-0.5c0-0.3,0-0.6,0.1-1
		c0-0.1,0.1-0.5,0.2-0.3C223.3,212.2,223.2,212.4,223.2,212.6z"/>
	<path class="st0" d="M226,200.8c0,0.2,0,0.3,0,0.5"/>
	<path class="st0" d="M226,200.9c0-0.1,0-0.3,0.1-0.2"/>
	<path class="st0" d="M226,201.3c0,0.4,0.1,0.9-0.1,1.3"/>
	<path class="st0" d="M225.7,202.4c0.1,0.2,0.1,0.3,0.1,0.5"/>
	<path class="st0" d="M225.5,204c0-0.3,0-0.6,0-0.8c0-0.1,0-0.3,0-0.4c0-0.1,0-0.1,0-0.2c0-0.1,0-0.1,0.1-0.2"/>
	<path class="st0" d="M225.7,202.9c0,0.2,0,0.4,0,0.7c0,0.1,0,0.2,0,0.3c0,0.1,0.1,0.2-0.1,0.3"/>
	<path class="st0" d="M225.3,204.5c0,0.3,0,0.6-0.1,0.9c0,0.1-0.1,0.6-0.2,0.3c-0.1-0.2,0-0.3,0-0.5c0-0.3,0-0.6,0.1-0.9
		c0-0.1,0.1-0.6,0.2-0.3C225.3,204.2,225.3,204.3,225.3,204.5z"/>
	<path class="st0" d="M224.7,206.1c0,0.3,0,0.6-0.1,0.9c0,0.1-0.1,0.5-0.2,0.3c-0.1-0.2-0.1-0.3-0.1-0.5c0-0.3,0-0.6,0.1-0.9
		c0-0.1,0.1-0.6,0.2-0.3C224.7,205.8,224.7,205.9,224.7,206.1z"/>
	<path class="st0" d="M224,207.7c0,0.3,0,0.6-0.1,1c0,0.1-0.1,0.5-0.2,0.3c-0.1-0.2-0.1-0.3-0.1-0.5c0-0.3,0-0.6,0.1-1
		c0-0.1,0.1-0.5,0.2-0.3C224.1,207.4,224,207.5,224,207.7z"/>
	<path class="st0" d="M223.2,209.2c0,0.3,0,0.6-0.1,1c0,0.1-0.1,0.5-0.2,0.3c-0.1-0.2-0.1-0.3-0.1-0.5c0-0.3,0-0.6,0.1-1
		c0-0.1,0.1-0.5,0.2-0.3C223.3,208.9,223.2,209.1,223.2,209.2z"/>
	<path class="st0" d="M226,197.4c0,0.2,0,0.3,0,0.5"/>
	<path class="st0" d="M226,197.5C226,197.4,226,197.4,226,197.5"/>
	<path class="st0" d="M226,197.9c0,0.4,0.1,0.9-0.1,1.3"/>
	<path class="st0" d="M225.7,199c0.1,0.2,0.1,0.3,0.1,0.5"/>
	<path class="st0" d="M225.5,200.7c0-0.3,0-0.6,0-0.8c0-0.1,0-0.3,0-0.4c0-0.1,0-0.1,0-0.2c0-0.1,0-0.1,0.1-0.2"/>
	<path class="st0" d="M225.7,199.6c0,0.2,0,0.4,0,0.7c0,0.1,0,0.2,0,0.3c0,0.1,0.1,0.2-0.1,0.3"/>
	<path class="st0" d="M225.3,201.2c0,0.3,0,0.6-0.1,0.9c0,0.1-0.1,0.6-0.2,0.3c-0.1-0.2,0-0.3,0-0.5c0-0.3,0-0.6,0.1-0.9
		c0-0.1,0.1-0.6,0.2-0.3C225.3,200.9,225.3,201,225.3,201.2z"/>
	<path class="st0" d="M224.7,202.8c0,0.3,0,0.6-0.1,0.9c0,0.1-0.1,0.5-0.2,0.3c-0.1-0.2-0.1-0.3-0.1-0.5c0-0.3,0-0.6,0.1-0.9
		c0-0.1,0.1-0.6,0.2-0.3C224.7,202.5,224.7,202.6,224.7,202.8z"/>
	<path class="st0" d="M224,204.4c0,0.3,0,0.6-0.1,1c0,0.1-0.1,0.5-0.2,0.3c-0.1-0.2-0.1-0.3-0.1-0.5c0-0.3,0-0.6,0.1-1
		c0-0.1,0.1-0.5,0.2-0.3C224.1,204,224,204.2,224,204.4z"/>
	<path class="st0" d="M223.2,205.9c0,0.3,0,0.6-0.1,1c0,0.1-0.1,0.5-0.2,0.3c-0.1-0.2-0.1-0.3-0.1-0.5c0-0.3,0-0.6,0.1-1
		c0-0.1,0.1-0.5,0.2-0.3C223.3,205.6,223.2,205.8,223.2,205.9z"/>
	<path class="st0" d="M225.3,197.9c0,0.3,0,0.6-0.1,0.9c0,0.1-0.1,0.6-0.2,0.3c-0.1-0.2,0-0.3,0-0.5c0-0.3,0-0.6,0.1-0.9
		c0-0.1,0.1-0.6,0.2-0.3C225.3,197.5,225.3,197.7,225.3,197.9z"/>
	<path class="st0" d="M224.7,199.5c0,0.3,0,0.6-0.1,0.9c0,0.1-0.1,0.5-0.2,0.3c-0.1-0.2-0.1-0.3-0.1-0.5c0-0.3,0-0.6,0.1-0.9
		c0-0.1,0.1-0.6,0.2-0.3C224.7,199.1,224.7,199.3,224.7,199.5z"/>
	<path class="st0" d="M224,201c0,0.3,0,0.6-0.1,1c0,0.1-0.1,0.5-0.2,0.3c-0.1-0.2-0.1-0.3-0.1-0.5c0-0.3,0-0.6,0.1-1
		c0-0.1,0.1-0.5,0.2-0.3C224.1,200.7,224,200.9,224,201z"/>
	<path class="st0" d="M223.2,202.6c0,0.3,0,0.6-0.1,1c0,0.1-0.1,0.5-0.2,0.3c-0.1-0.2-0.1-0.3-0.1-0.5c0-0.3,0-0.6,0.1-1
		c0-0.1,0.1-0.5,0.2-0.3C223.3,202.3,223.2,202.4,223.2,202.6z"/>
	<path class="st0" d="M224,197.7c0,0.3,0,0.6-0.1,1c0,0.1-0.1,0.5-0.2,0.3c-0.1-0.2-0.1-0.3-0.1-0.5c0-0.3,0-0.6,0.1-1
		c0-0.1,0.1-0.5,0.2-0.3C224.1,197.4,224,197.6,224,197.7z"/>
	<path class="st0" d="M223.2,199.3c0,0.3,0,0.6-0.1,1c0,0.1-0.1,0.5-0.2,0.3c-0.1-0.2-0.1-0.3-0.1-0.5c0-0.3,0-0.6,0.1-1
		c0-0.1,0.1-0.5,0.2-0.3C223.3,199,223.2,199.1,223.2,199.3z"/>
	<path class="st0" d="M226.2,199.2c0,0.1,0,0.3,0,0.4"/>
	<path class="st0" d="M226.2,199.2C226.2,199.2,226.2,199.2,226.2,199.2"/>
	<path class="st0" d="M226.2,199.6c0,0.4,0,0.8,0,1.2"/>
	<path class="st0" d="M226.2,202.5c0,0.1,0,0.3,0,0.4"/>
	<path class="st0" d="M226.2,202.6c0-0.1,0-0.1,0-0.2"/>
	<path class="st0" d="M226.2,202.9c0,0.4,0,0.8,0,1.2"/>
	<path class="st0" d="M226.2,206.1c0,0.1,0,0.1,0,0.2"/>
	<path class="st0" d="M226.2,205.8c0,0.1,0,0.1,0,0.2"/>
	<path class="st0" d="M226.2,206c0-0.1-0.1-0.1,0-0.2"/>
	<path class="st0" d="M226.2,206.3c0,0.4,0,0.8,0,1.2"/>
	<path class="st0" d="M226.2,209.4c0,0.1,0,0.1,0,0.2"/>
	<path class="st0" d="M226.2,209.1c0,0.1,0,0.1,0,0.2"/>
	<path class="st0" d="M226.2,209.3c0-0.1-0.1-0.1,0-0.2"/>
	<path class="st0" d="M226.2,209.6c0,0.4,0,0.8,0,1.2"/>
	<path class="st0" d="M226.2,212.7c0,0.1,0,0.1,0,0.2"/>
	<path class="st0" d="M226.2,212.4c0,0.1,0,0.1,0,0.2"/>
	<path class="st0" d="M226.2,212.6c0-0.1-0.1-0.1,0-0.2"/>
	<path class="st0" d="M226.2,212.9c0,0.4,0,0.8,0,1.2"/>
	<path class="st0" d="M226.2,209.7c0-0.1,0-0.3,0-0.4"/>
	<path class="st0" d="M226.3,210.7c0,0,0-0.1,0-0.1"/>
	<path class="st0" d="M226.2,216c0,0.1,0,0.1,0,0.2"/>
	<path class="st0" d="M226.2,215.7c0,0.1,0,0.1,0,0.2"/>
	<path class="st0" d="M226.2,215.9c0-0.1-0.1-0.1,0-0.2"/>
	<path class="st0" d="M226.2,216.2c0,0.4,0,0.8,0,1.2"/>
	<path class="st0" d="M226.2,213c0-0.1,0-0.3,0-0.4"/>
	<path class="st0" d="M226.3,214c0,0,0-0.1,0-0.1"/>
	<path class="st0" d="M222.3,227.4c0,0.3,0,0.7-0.2,1c-0.1,0.1-0.1,0.5-0.3,0.3c-0.1-0.2-0.1-0.3-0.1-0.5c0-0.3,0-0.7,0.2-1
		c0.1-0.1,0.1-0.5,0.3-0.3C222.3,227.1,222.3,227.2,222.3,227.4z"/>
	<path class="st0" d="M221.3,228.9c0,0.3,0,0.7-0.2,1c-0.1,0.2-0.1,0.5-0.3,0.3c-0.1-0.2-0.1-0.3-0.1-0.5c0-0.3,0-0.7,0.2-1
		c0.1-0.1,0.1-0.5,0.3-0.3C221.3,228.6,221.3,228.8,221.3,228.9z"/>
	<path class="st0" d="M220.1,230.4c0,0.4-0.1,0.7-0.2,1c-0.1,0.2-0.1,0.5-0.3,0.3c-0.1-0.2-0.1-0.3-0.1-0.5c0-0.3,0.1-0.7,0.2-1
		c0.1-0.2,0.1-0.5,0.3-0.3C220.1,230.1,220.1,230.3,220.1,230.4"/>
	<path class="st0" d="M218.8,232c0,0.4-0.1,0.7-0.2,1c-0.1,0.2-0.2,0.5-0.4,0.2c-0.1-0.2-0.1-0.3-0.1-0.5c0-0.4,0.1-0.7,0.2-1
		c0.1-0.2,0.2-0.5,0.4-0.3C218.8,231.6,218.8,231.8,218.8,232z"/>
	<path class="st0" d="M217.4,233.5c0,0.4-0.1,0.7-0.2,1c-0.3,0.5-0.5,0.2-0.5-0.3c0-0.4,0.1-0.7,0.2-1
		C217.2,232.7,217.4,233,217.4,233.5z"/>
	<path class="st0" d="M215.9,234.9c0,0.4-0.1,0.7-0.3,1c-0.3,0.5-0.5,0.2-0.5-0.3c0-0.4,0.1-0.7,0.3-1
		C215.6,234.2,215.9,234.4,215.9,234.9z"/>
	<path class="st0" d="M222.3,224.1c0,0.3,0,0.7-0.2,1c-0.1,0.1-0.1,0.5-0.3,0.3c-0.1-0.2-0.1-0.3-0.1-0.5c0-0.3,0-0.7,0.2-1
		c0.1-0.1,0.1-0.5,0.3-0.3C222.3,223.7,222.3,223.9,222.3,224.1z"/>
	<path class="st0" d="M221.3,225.6c0,0.3,0,0.7-0.2,1c-0.1,0.2-0.1,0.5-0.3,0.3c-0.1-0.2-0.1-0.3-0.1-0.5c0-0.3,0-0.7,0.2-1
		c0.1-0.1,0.1-0.5,0.3-0.3C221.3,225.3,221.3,225.4,221.3,225.6z"/>
	<path class="st0" d="M220.1,227.1c0,0.4-0.1,0.7-0.2,1c-0.1,0.2-0.1,0.5-0.3,0.3c-0.1-0.2-0.1-0.3-0.1-0.5c0-0.3,0.1-0.7,0.2-1
		c0.1-0.2,0.1-0.5,0.3-0.3C220.1,226.8,220.1,227,220.1,227.1z"/>
	<path class="st0" d="M218.8,228.6c0,0.4-0.1,0.7-0.2,1c-0.1,0.2-0.2,0.5-0.4,0.2c-0.1-0.2-0.1-0.3-0.1-0.5c0-0.4,0.1-0.7,0.2-1
		c0.1-0.2,0.2-0.5,0.4-0.3C218.8,228.3,218.8,228.5,218.8,228.6z"/>
	<path class="st0" d="M217.4,230.1c0,0.4-0.1,0.7-0.2,1c-0.3,0.5-0.5,0.2-0.5-0.3c0-0.4,0.1-0.7,0.2-1
		C217.2,229.4,217.4,229.6,217.4,230.1z"/>
	<path class="st0" d="M215.9,231.6c0,0.4-0.1,0.7-0.3,1c-0.3,0.5-0.5,0.2-0.5-0.3c0-0.4,0.1-0.7,0.3-1
		C215.6,230.9,215.9,231.1,215.9,231.6z"/>
	<path class="st0" d="M222.3,220.7c0,0.3,0,0.7-0.2,1c-0.1,0.1-0.1,0.5-0.3,0.3c-0.1-0.2-0.1-0.3-0.1-0.5c0-0.3,0-0.7,0.2-1
		c0.1-0.1,0.1-0.5,0.3-0.3C222.3,220.4,222.3,220.6,222.3,220.7z"/>
	<path class="st0" d="M221.3,222.3c0,0.3,0,0.7-0.2,1c-0.1,0.2-0.1,0.5-0.3,0.3c-0.1-0.2-0.1-0.3-0.1-0.5c0-0.3,0-0.7,0.2-1
		c0.1-0.1,0.1-0.5,0.3-0.3C221.3,222,221.3,222.1,221.3,222.3z"/>
	<path class="st0" d="M220.1,223.8c0,0.4-0.1,0.7-0.2,1c-0.1,0.2-0.1,0.5-0.3,0.3c-0.1-0.2-0.1-0.3-0.1-0.5c0-0.3,0.1-0.7,0.2-1
		c0.1-0.2,0.1-0.5,0.3-0.3C220.1,223.5,220.1,223.6,220.1,223.8z"/>
	<path class="st0" d="M218.8,225.3c0,0.4-0.1,0.7-0.2,1c-0.1,0.2-0.2,0.5-0.4,0.2c-0.1-0.2-0.1-0.3-0.1-0.5c0-0.4,0.1-0.7,0.2-1
		c0.1-0.2,0.2-0.5,0.4-0.3C218.8,225,218.8,225.1,218.8,225.3z"/>
	<path class="st0" d="M217.4,226.8c0,0.4-0.1,0.7-0.2,1c-0.3,0.5-0.5,0.2-0.5-0.3c0-0.4,0.1-0.7,0.2-1
		C217.2,226.1,217.4,226.3,217.4,226.8z"/>
	<path class="st0" d="M215.9,228.3c0,0.4-0.1,0.7-0.3,1c-0.3,0.5-0.5,0.2-0.5-0.3c0-0.4,0.1-0.7,0.3-1
		C215.6,227.6,215.9,227.8,215.9,228.3z"/>
	<path class="st0" d="M222.3,217.4c0,0.3,0,0.7-0.2,1c-0.1,0.1-0.1,0.5-0.3,0.3c-0.1-0.2-0.1-0.3-0.1-0.5c0-0.3,0-0.7,0.2-1
		c0.1-0.1,0.1-0.5,0.3-0.3C222.3,217.1,222.3,217.3,222.3,217.4z"/>
	<path class="st0" d="M221.3,219c0,0.3,0,0.7-0.2,1c-0.1,0.2-0.1,0.5-0.3,0.3c-0.1-0.2-0.1-0.3-0.1-0.5c0-0.3,0-0.7,0.2-1
		c0.1-0.1,0.1-0.5,0.3-0.3C221.3,218.6,221.3,218.8,221.3,219z"/>
	<path class="st0" d="M220.1,220.5c0,0.4-0.1,0.7-0.2,1c-0.1,0.2-0.1,0.5-0.3,0.3c-0.1-0.2-0.1-0.3-0.1-0.5c0-0.3,0.1-0.7,0.2-1
		c0.1-0.2,0.1-0.5,0.3-0.3C220.1,220.2,220.1,220.3,220.1,220.5z"/>
	<path class="st0" d="M218.8,222c0,0.4-0.1,0.7-0.2,1c-0.1,0.2-0.2,0.5-0.4,0.2c-0.1-0.2-0.1-0.3-0.1-0.5c0-0.4,0.1-0.7,0.2-1
		c0.1-0.2,0.2-0.5,0.4-0.3C218.8,221.7,218.8,221.8,218.8,222z"/>
	<path class="st0" d="M217.4,223.5c0,0.4-0.1,0.7-0.2,1c-0.3,0.5-0.5,0.2-0.5-0.3c0-0.4,0.1-0.7,0.2-1
		C217.2,222.8,217.4,223,217.4,223.5z"/>
	<path class="st0" d="M215.9,225c0,0.4-0.1,0.7-0.3,1c-0.3,0.5-0.5,0.2-0.5-0.3c0-0.4,0.1-0.7,0.3-1
		C215.6,224.2,215.9,224.5,215.9,225z"/>
	<path class="st0" d="M222.3,214.1c0,0.3,0,0.7-0.2,1c-0.1,0.1-0.1,0.5-0.3,0.3c-0.1-0.2-0.1-0.3-0.1-0.5c0-0.3,0-0.7,0.2-1
		c0.1-0.1,0.1-0.5,0.3-0.3C222.3,213.8,222.3,213.9,222.3,214.1z"/>
	<path class="st0" d="M221.3,215.6c0,0.3,0,0.7-0.2,1c-0.1,0.2-0.1,0.5-0.3,0.3c-0.1-0.2-0.1-0.3-0.1-0.5c0-0.3,0-0.7,0.2-1
		c0.1-0.1,0.1-0.5,0.3-0.3C221.3,215.3,221.3,215.5,221.3,215.6z"/>
	<path class="st0" d="M220.1,217.2c0,0.4-0.1,0.7-0.2,1c-0.1,0.2-0.1,0.5-0.3,0.3c-0.1-0.2-0.1-0.3-0.1-0.5c0-0.3,0.1-0.7,0.2-1
		c0.1-0.2,0.1-0.5,0.3-0.3C220.1,216.8,220.1,217,220.1,217.2z"/>
	<path class="st0" d="M218.8,218.7c0,0.4-0.1,0.7-0.2,1c-0.1,0.2-0.2,0.5-0.4,0.2c-0.1-0.2-0.1-0.3-0.1-0.5c0-0.4,0.1-0.7,0.2-1
		c0.1-0.2,0.2-0.5,0.4-0.3C218.8,218.3,218.8,218.5,218.8,218.7z"/>
	<path class="st0" d="M217.4,220.2c0,0.4-0.1,0.7-0.2,1c-0.3,0.5-0.5,0.2-0.5-0.3c0-0.4,0.1-0.7,0.2-1
		C217.2,219.4,217.4,219.7,217.4,220.2z"/>
	<path class="st0" d="M215.9,221.7c0,0.4-0.1,0.7-0.3,1c-0.3,0.5-0.5,0.2-0.5-0.3c0-0.4,0.1-0.7,0.3-1
		C215.6,220.9,215.9,221.2,215.9,221.7z"/>
	<path class="st0" d="M222.3,210.8c0,0.3,0,0.7-0.2,1c-0.1,0.1-0.1,0.5-0.3,0.3c-0.1-0.2-0.1-0.3-0.1-0.5c0-0.3,0-0.7,0.2-1
		c0.1-0.1,0.1-0.5,0.3-0.3C222.3,210.5,222.3,210.6,222.3,210.8z"/>
	<path class="st0" d="M221.3,212.3c0,0.3,0,0.7-0.2,1c-0.1,0.2-0.1,0.5-0.3,0.3c-0.1-0.2-0.1-0.3-0.1-0.5c0-0.3,0-0.7,0.2-1
		c0.1-0.1,0.1-0.5,0.3-0.3C221.3,212,221.3,212.2,221.3,212.3z"/>
	<path class="st0" d="M220.1,213.9c0,0.4-0.1,0.7-0.2,1c-0.1,0.2-0.1,0.5-0.3,0.3c-0.1-0.2-0.1-0.3-0.1-0.5c0-0.3,0.1-0.7,0.2-1
		c0.1-0.2,0.1-0.5,0.3-0.3C220.1,213.5,220.1,213.7,220.1,213.9z"/>
	<path class="st0" d="M218.8,215.4c0,0.4-0.1,0.7-0.2,1c-0.1,0.2-0.2,0.5-0.4,0.2c-0.1-0.2-0.1-0.3-0.1-0.5c0-0.4,0.1-0.7,0.2-1
		c0.1-0.2,0.2-0.5,0.4-0.3C218.8,215,218.8,215.2,218.8,215.4z"/>
	<path class="st0" d="M217.4,216.9c0,0.4-0.1,0.7-0.2,1c-0.3,0.5-0.5,0.2-0.5-0.3c0-0.4,0.1-0.7,0.2-1
		C217.2,216.1,217.4,216.4,217.4,216.9z"/>
	<path class="st0" d="M215.9,218.3c0,0.4-0.1,0.7-0.3,1c-0.3,0.5-0.5,0.2-0.5-0.3c0-0.4,0.1-0.7,0.3-1
		C215.6,217.6,215.9,217.8,215.9,218.3z"/>
	<path class="st0" d="M222.3,207.5c0,0.3,0,0.7-0.2,1c-0.1,0.1-0.1,0.5-0.3,0.3c-0.1-0.2-0.1-0.3-0.1-0.5c0-0.3,0-0.7,0.2-1
		c0.1-0.1,0.1-0.5,0.3-0.3C222.3,207.1,222.3,207.3,222.3,207.5z"/>
	<path class="st0" d="M221.3,209c0,0.3,0,0.7-0.2,1c-0.1,0.2-0.1,0.5-0.3,0.3c-0.1-0.2-0.1-0.3-0.1-0.5c0-0.3,0-0.7,0.2-1
		c0.1-0.1,0.1-0.5,0.3-0.3C221.3,208.7,221.3,208.8,221.3,209z"/>
	<path class="st0" d="M220.1,210.5c0,0.4-0.1,0.7-0.2,1c-0.1,0.2-0.1,0.5-0.3,0.3c-0.1-0.2-0.1-0.3-0.1-0.5c0-0.3,0.1-0.7,0.2-1
		c0.1-0.2,0.1-0.5,0.3-0.3C220.1,210.2,220.1,210.4,220.1,210.5z"/>
	<path class="st0" d="M218.8,212c0,0.4-0.1,0.7-0.2,1c-0.1,0.2-0.2,0.5-0.4,0.2c-0.1-0.2-0.1-0.3-0.1-0.5c0-0.4,0.1-0.7,0.2-1
		c0.1-0.2,0.2-0.5,0.4-0.3C218.8,211.7,218.8,211.9,218.8,212z"/>
	<path class="st0" d="M217.4,213.5c0,0.4-0.1,0.7-0.2,1c-0.3,0.5-0.5,0.2-0.5-0.3c0-0.4,0.1-0.7,0.2-1
		C217.2,212.8,217.4,213,217.4,213.5z"/>
	<path class="st0" d="M215.9,215c0,0.4-0.1,0.7-0.3,1c-0.3,0.5-0.5,0.2-0.5-0.3c0-0.4,0.1-0.7,0.3-1
		C215.6,214.3,215.9,214.5,215.9,215z"/>
	<path class="st0" d="M222.3,204.2c0,0.3,0,0.7-0.2,1c-0.1,0.1-0.1,0.5-0.3,0.3c-0.1-0.2-0.1-0.3-0.1-0.5c0-0.3,0-0.7,0.2-1
		c0.1-0.1,0.1-0.5,0.3-0.3C222.3,203.8,222.3,204,222.3,204.2z"/>
	<path class="st0" d="M221.3,205.7c0,0.3,0,0.7-0.2,1c-0.1,0.2-0.1,0.5-0.3,0.3c-0.1-0.2-0.1-0.3-0.1-0.5c0-0.3,0-0.7,0.2-1
		c0.1-0.1,0.1-0.5,0.3-0.3C221.3,205.4,221.3,205.5,221.3,205.7z"/>
	<path class="st0" d="M220.1,207.2c0,0.4-0.1,0.7-0.2,1c-0.1,0.2-0.1,0.5-0.3,0.3c-0.1-0.2-0.1-0.3-0.1-0.5c0-0.3,0.1-0.7,0.2-1
		c0.1-0.2,0.1-0.5,0.3-0.3C220.1,206.9,220.1,207,220.1,207.2z"/>
	<path class="st0" d="M218.8,208.7c0,0.4-0.1,0.7-0.2,1c-0.1,0.2-0.2,0.5-0.4,0.2c-0.1-0.2-0.1-0.3-0.1-0.5c0-0.4,0.1-0.7,0.2-1
		c0.1-0.2,0.2-0.5,0.4-0.3C218.8,208.4,218.8,208.6,218.8,208.7z"/>
	<path class="st0" d="M217.4,210.2c0,0.4-0.1,0.7-0.2,1c-0.3,0.5-0.5,0.2-0.5-0.3c0-0.4,0.1-0.7,0.2-1
		C217.2,209.5,217.4,209.7,217.4,210.2z"/>
	<path class="st0" d="M222.3,200.8c0,0.3,0,0.7-0.2,1c-0.1,0.1-0.1,0.5-0.3,0.3c-0.1-0.2-0.1-0.3-0.1-0.5c0-0.3,0-0.7,0.2-1
		c0.1-0.1,0.1-0.5,0.3-0.3C222.3,200.5,222.3,200.7,222.3,200.8z"/>
	<path class="st0" d="M221.3,202.4c0,0.3,0,0.7-0.2,1c-0.1,0.2-0.1,0.5-0.3,0.3c-0.1-0.2-0.1-0.3-0.1-0.5c0-0.3,0-0.7,0.2-1
		c0.1-0.1,0.1-0.5,0.3-0.3C221.3,202,221.3,202.2,221.3,202.4z"/>
	<path class="st0" d="M220.1,203.9c0,0.4-0.1,0.7-0.2,1c-0.1,0.2-0.1,0.5-0.3,0.3c-0.1-0.2-0.1-0.3-0.1-0.5c0-0.3,0.1-0.7,0.2-1
		c0.1-0.2,0.1-0.5,0.3-0.3C220.1,203.6,220.1,203.7,220.1,203.9z"/>
	<path class="st0" d="M214.2,219.8c0,0.4-0.1,0.7-0.3,1c-0.3,0.5-0.6,0.2-0.6-0.3c0-0.4,0.1-0.7,0.3-1
		C214,219.1,214.2,219.3,214.2,219.8z"/>
	<path class="st0" d="M212.4,224.6c0,0.4-0.1,0.7-0.3,1c-0.3,0.4-0.6,0.2-0.6-0.3c0-0.4,0.1-0.7,0.3-1
		C212.2,223.8,212.4,224.1,212.4,224.6z"/>
	<path class="st0" d="M214.2,223.1c0,0.4-0.1,0.7-0.3,1c-0.3,0.5-0.6,0.2-0.6-0.3c0-0.4,0.1-0.7,0.3-1
		C214,222.4,214.2,222.6,214.2,223.1z"/>
	<path class="st0" d="M212.4,227.9c0,0.4-0.1,0.7-0.3,1c-0.3,0.4-0.6,0.2-0.6-0.3c0-0.4,0.1-0.7,0.3-1
		C212.2,227.2,212.4,227.4,212.4,227.9z"/>
	<path class="st0" d="M214.2,226.4c0,0.4-0.1,0.7-0.3,1c-0.3,0.5-0.6,0.2-0.6-0.3c0-0.4,0.1-0.7,0.3-1
		C214,225.7,214.2,225.9,214.2,226.4z"/>
	<path class="st0" d="M210.5,232.7c0,0.4-0.1,0.7-0.4,1c-0.3,0.4-0.7,0.2-0.7-0.3c0-0.4,0.1-0.7,0.4-1
		C210.2,231.9,210.5,232.1,210.5,232.7z"/>
	<path class="st0" d="M212.4,231.2c0,0.4-0.1,0.7-0.3,1c-0.3,0.4-0.6,0.2-0.6-0.3c0-0.4,0.1-0.7,0.3-1
		C212.2,230.5,212.4,230.7,212.4,231.2z"/>
	<path class="st0" d="M214.2,229.8c0,0.4-0.1,0.7-0.3,1c-0.3,0.5-0.6,0.2-0.6-0.3c0-0.4,0.1-0.7,0.3-1
		C214,229,214.2,229.3,214.2,229.8z"/>
	<path class="st0" d="M210.5,236c0,0.4-0.1,0.7-0.4,1c-0.3,0.4-0.7,0.2-0.7-0.3c0-0.4,0.1-0.7,0.4-1
		C210.2,235.2,210.5,235.5,210.5,236z"/>
	<path class="st0" d="M212.4,234.5c0,0.4-0.1,0.7-0.3,1c-0.3,0.4-0.6,0.2-0.6-0.3c0-0.4,0.1-0.7,0.3-1
		C212.2,233.8,212.4,234,212.4,234.5z"/>
	<path class="st0" d="M214.2,233.1c0,0.4-0.1,0.7-0.3,1c-0.3,0.5-0.6,0.2-0.6-0.3c0-0.4,0.1-0.7,0.3-1
		C214,232.3,214.2,232.6,214.2,233.1z"/>
	<path class="st0" d="M210.5,239.3c0,0.4-0.1,0.7-0.4,1c-0.3,0.4-0.7,0.2-0.7-0.3c0-0.4,0.1-0.7,0.4-1
		C210.2,238.5,210.5,238.8,210.5,239.3z"/>
	<path class="st0" d="M212.4,237.9c0,0.4-0.1,0.7-0.3,1c-0.3,0.4-0.6,0.2-0.6-0.3c0-0.4,0.1-0.7,0.3-1
		C212.2,237.1,212.4,237.3,212.4,237.9z"/>
	<path class="st0" d="M214.2,236.4c0,0.4-0.1,0.7-0.3,1c-0.3,0.5-0.6,0.2-0.6-0.3c0-0.4,0.1-0.7,0.3-1
		C214,235.7,214.2,235.9,214.2,236.4z"/>
	<path class="st0" d="M214.2,256.3c0,0.4-0.1,0.7-0.3,1c-0.3,0.5-0.6,0.2-0.6-0.3c0-0.4,0.1-0.7,0.3-1
		C214,255.6,214.2,255.8,214.2,256.3z"/>
	<path class="st0" d="M214.2,253c0,0.4-0.1,0.7-0.3,1c-0.3,0.5-0.6,0.2-0.6-0.3c0-0.4,0.1-0.7,0.3-1
		C214,252.2,214.2,252.5,214.2,253z"/>
	<path class="st0" d="M214.2,249.7c0,0.4-0.1,0.7-0.3,1c-0.3,0.5-0.6,0.2-0.6-0.3c0-0.4,0.1-0.7,0.3-1
		C214,248.9,214.2,249.2,214.2,249.7z"/>
	<path class="st0" d="M212.4,251.1c0,0.4-0.1,0.7-0.3,1c-0.3,0.4-0.6,0.2-0.6-0.3c0-0.4,0.1-0.7,0.3-1
		C212.1,250.4,212.4,250.6,212.4,251.1"/>
	<path class="st0" d="M214.2,246.4c0,0.4-0.1,0.7-0.3,1c-0.3,0.5-0.6,0.2-0.6-0.3c0-0.4,0.1-0.7,0.3-1
		C214,245.6,214.2,245.9,214.2,246.4z"/>
	<path class="st0" d="M212.4,247.8c0,0.4-0.1,0.7-0.3,1c-0.3,0.4-0.6,0.2-0.6-0.3c0-0.4,0.1-0.7,0.3-1
		C212.2,247.1,212.4,247.3,212.4,247.8z"/>
	<path class="st0" d="M214.2,243c0,0.4-0.1,0.7-0.3,1c-0.3,0.5-0.6,0.2-0.6-0.3c0-0.4,0.1-0.7,0.3-1
		C214,242.3,214.2,242.5,214.2,243z"/>
	<path class="st0" d="M212.4,244.5c0,0.4-0.1,0.7-0.3,1c-0.3,0.4-0.6,0.2-0.6-0.3c0-0.4,0.1-0.7,0.3-1
		C212.2,243.7,212.4,244,212.4,244.5z"/>
	<path class="st0" d="M210.5,245.9c0,0.4-0.1,0.7-0.4,1c-0.3,0.4-0.7,0.2-0.7-0.3c0-0.4,0.1-0.7,0.4-1
		C210.2,245.2,210.5,245.4,210.5,245.9z"/>
	<path class="st0" d="M214.2,239.7c0,0.4-0.1,0.7-0.3,1c-0.3,0.5-0.6,0.2-0.6-0.3c0-0.4,0.1-0.7,0.3-1
		C214,239,214.2,239.2,214.2,239.7z"/>
	<path class="st0" d="M212.4,241.2c0,0.4-0.1,0.7-0.3,1c-0.3,0.4-0.6,0.2-0.6-0.3c0-0.4,0.1-0.7,0.3-1
		C212.2,240.4,212.4,240.7,212.4,241.2z"/>
	<path class="st0" d="M210.5,242.6c0,0.4-0.1,0.7-0.4,1c-0.3,0.4-0.7,0.2-0.7-0.3c0-0.4,0.1-0.7,0.4-1
		C210.2,241.9,210.5,242.1,210.5,242.6z"/>
	<path class="st0" d="M215.9,238.3c0,0.4-0.1,0.7-0.3,1c-0.3,0.5-0.5,0.2-0.5-0.3c0-0.4,0.1-0.7,0.3-1
		C215.6,237.5,215.9,237.7,215.9,238.3z"/>
	<path class="st0" d="M217.4,236.8c0,0.4-0.1,0.7-0.2,1c-0.3,0.5-0.5,0.2-0.5-0.3c0-0.4,0.1-0.7,0.2-1
		C217.2,236,217.4,236.3,217.4,236.8z"/>
	<path class="st0" d="M218.8,235.3c0,0.4-0.1,0.7-0.2,1c-0.1,0.2-0.2,0.5-0.4,0.2c-0.1-0.2-0.1-0.3-0.1-0.5c0-0.4,0.1-0.7,0.2-1
		c0.1-0.2,0.2-0.5,0.4-0.3C218.8,234.9,218.8,235.1,218.8,235.3z"/>
	<path class="st0" d="M220.1,233.8c0,0.4-0.1,0.7-0.2,1c-0.1,0.2-0.1,0.5-0.3,0.3c-0.1-0.2-0.1-0.3-0.1-0.5c0-0.3,0.1-0.7,0.2-1
		c0.1-0.2,0.1-0.5,0.3-0.3C220.1,233.4,220.1,233.6,220.1,233.8"/>
	<path class="st0" d="M221.3,232.2c0,0.3,0,0.7-0.2,1c-0.1,0.2-0.1,0.5-0.3,0.3c-0.1-0.2-0.1-0.3-0.1-0.5c0-0.3,0-0.7,0.2-1
		c0.1-0.1,0.1-0.5,0.3-0.3C221.3,231.9,221.3,232.1,221.3,232.2z"/>
	<path class="st0" d="M222.3,230.7c0,0.3,0,0.7-0.2,1c-0.1,0.1-0.1,0.5-0.3,0.3c-0.1-0.2-0.1-0.3-0.1-0.5c0-0.3,0-0.7,0.2-1
		c0.1-0.1,0.1-0.5,0.3-0.3C222.3,230.4,222.3,230.5,222.3,230.7z"/>
	<path class="st0" d="M215.9,241.6c0,0.4-0.1,0.7-0.3,1c-0.3,0.5-0.5,0.2-0.5-0.3c0-0.4,0.1-0.7,0.3-1
		C215.6,240.8,215.9,241.1,215.9,241.6z"/>
	<path class="st0" d="M217.4,240.1c0,0.4-0.1,0.7-0.2,1c-0.3,0.5-0.5,0.2-0.5-0.3c0-0.4,0.1-0.7,0.2-1
		C217.2,239.3,217.4,239.6,217.4,240.1z"/>
	<path class="st0" d="M218.8,238.6c0,0.4-0.1,0.7-0.2,1c-0.1,0.2-0.2,0.5-0.4,0.2c-0.1-0.2-0.1-0.3-0.1-0.5c0-0.4,0.1-0.7,0.2-1
		c0.1-0.2,0.2-0.5,0.4-0.3C218.8,238.3,218.8,238.4,218.8,238.6z"/>
	<path class="st0" d="M220.1,237.1c0,0.4-0.1,0.7-0.2,1c-0.1,0.2-0.1,0.5-0.3,0.3c-0.1-0.2-0.1-0.3-0.1-0.5c0-0.3,0.1-0.7,0.2-1
		c0.1-0.2,0.1-0.5,0.3-0.3C220.1,236.8,220.1,236.9,220.1,237.1"/>
	<path class="st0" d="M221.3,235.6c0,0.3,0,0.7-0.2,1c-0.1,0.2-0.1,0.5-0.3,0.3c-0.1-0.2-0.1-0.3-0.1-0.5c0-0.3,0-0.7,0.2-1
		c0.1-0.1,0.1-0.5,0.3-0.3C221.3,235.2,221.3,235.4,221.3,235.6z"/>
	<path class="st0" d="M222.3,234c0,0.3,0,0.7-0.2,1c-0.1,0.1-0.1,0.5-0.3,0.3c-0.1-0.2-0.1-0.3-0.1-0.5c0-0.3,0-0.7,0.2-1
		c0.1-0.1,0.1-0.5,0.3-0.3C222.3,233.7,222.3,233.9,222.3,234z"/>
	<path class="st0" d="M215.9,244.9c0,0.4-0.1,0.7-0.3,1c-0.3,0.5-0.5,0.2-0.5-0.3c0-0.4,0.1-0.7,0.3-1
		C215.6,244.1,215.9,244.4,215.9,244.9z"/>
	<path class="st0" d="M217.4,243.4c0,0.4-0.1,0.7-0.2,1c-0.3,0.5-0.5,0.2-0.5-0.3c0-0.4,0.1-0.7,0.2-1
		C217.2,242.7,217.4,242.9,217.4,243.4z"/>
	<path class="st0" d="M218.8,241.9c0,0.4-0.1,0.7-0.2,1c-0.1,0.2-0.2,0.5-0.4,0.2c-0.1-0.2-0.1-0.3-0.1-0.5c0-0.4,0.1-0.7,0.2-1
		c0.1-0.2,0.2-0.5,0.4-0.3C218.8,241.6,218.8,241.7,218.8,241.9z"/>
	<path class="st0" d="M220.1,240.4c0,0.4-0.1,0.7-0.2,1c-0.1,0.2-0.1,0.5-0.3,0.3c-0.1-0.2-0.1-0.3-0.1-0.5c0-0.3,0.1-0.7,0.2-1
		c0.1-0.2,0.1-0.5,0.3-0.3C220.1,240.1,220.1,240.2,220.1,240.4"/>
	<path class="st0" d="M221.3,238.9c0,0.3,0,0.7-0.2,1c-0.1,0.2-0.1,0.5-0.3,0.3c-0.1-0.2-0.1-0.3-0.1-0.5c0-0.3,0-0.7,0.2-1
		c0.1-0.1,0.1-0.5,0.3-0.3C221.3,238.5,221.3,238.7,221.3,238.9z"/>
	<path class="st0" d="M222.3,237.3c0,0.3,0,0.7-0.2,1c-0.1,0.1-0.1,0.5-0.3,0.3c-0.1-0.2-0.1-0.3-0.1-0.5c0-0.3,0-0.7,0.2-1
		c0.1-0.1,0.1-0.5,0.3-0.3C222.3,237,222.3,237.2,222.3,237.3z"/>
	<path class="st0" d="M215.9,248.2c0,0.4-0.1,0.7-0.3,1c-0.3,0.5-0.5,0.2-0.5-0.3c0-0.4,0.1-0.7,0.3-1
		C215.6,247.5,215.9,247.7,215.9,248.2z"/>
	<path class="st0" d="M217.4,246.7c0,0.4-0.1,0.7-0.2,1c-0.3,0.5-0.5,0.2-0.5-0.3c0-0.4,0.1-0.7,0.2-1
		C217.2,246,217.4,246.2,217.4,246.7z"/>
	<path class="st0" d="M218.8,245.2c0,0.4-0.1,0.7-0.2,1c-0.1,0.2-0.2,0.5-0.4,0.2c-0.1-0.2-0.1-0.3-0.1-0.5c0-0.4,0.1-0.7,0.2-1
		c0.1-0.2,0.2-0.5,0.4-0.3C218.8,244.9,218.8,245.1,218.8,245.2z"/>
	<path class="st0" d="M220.1,243.7c0,0.4-0.1,0.7-0.2,1c-0.1,0.2-0.1,0.5-0.3,0.3c-0.1-0.2-0.1-0.3-0.1-0.5c0-0.3,0.1-0.7,0.2-1
		c0.1-0.2,0.1-0.5,0.3-0.3C220.1,243.4,220.1,243.5,220.1,243.7"/>
	<path class="st0" d="M221.3,242.2c0,0.3,0,0.7-0.2,1c-0.1,0.2-0.1,0.5-0.3,0.3c-0.1-0.2-0.1-0.3-0.1-0.5c0-0.3,0-0.7,0.2-1
		c0.1-0.1,0.1-0.5,0.3-0.3C221.3,241.9,221.3,242,221.3,242.2z"/>
	<path class="st0" d="M222.3,240.7c0,0.3,0,0.7-0.2,1c-0.1,0.1-0.1,0.5-0.3,0.3c-0.1-0.2-0.1-0.3-0.1-0.5c0-0.3,0-0.7,0.2-1
		c0.1-0.1,0.1-0.5,0.3-0.3C222.3,240.3,222.3,240.5,222.3,240.7z"/>
	<path class="st0" d="M215.9,251.5c0,0.4-0.1,0.7-0.3,1c-0.3,0.5-0.5,0.2-0.5-0.3c0-0.4,0.1-0.7,0.3-1
		C215.6,250.8,215.9,251,215.9,251.5z"/>
	<path class="st0" d="M217.4,250c0,0.4-0.1,0.7-0.2,1c-0.3,0.5-0.5,0.2-0.5-0.3c0-0.4,0.1-0.7,0.2-1
		C217.2,249.3,217.4,249.5,217.4,250z"/>
	<path class="st0" d="M218.8,248.6c0,0.4-0.1,0.7-0.2,1c-0.1,0.2-0.2,0.5-0.4,0.2c-0.1-0.2-0.1-0.3-0.1-0.5c0-0.4,0.1-0.7,0.2-1
		c0.1-0.2,0.2-0.5,0.4-0.3C218.8,248.2,218.8,248.4,218.8,248.6z"/>
	<path class="st0" d="M220.1,247c0,0.4-0.1,0.7-0.2,1c-0.1,0.2-0.1,0.5-0.3,0.3c-0.1-0.2-0.1-0.3-0.1-0.5c0-0.3,0.1-0.7,0.2-1
		c0.1-0.2,0.1-0.5,0.3-0.3C220.1,246.7,220.1,246.9,220.1,247"/>
	<path class="st0" d="M221.3,245.5c0,0.3,0,0.7-0.2,1c-0.1,0.2-0.1,0.5-0.3,0.3c-0.1-0.2-0.1-0.3-0.1-0.5c0-0.3,0-0.7,0.2-1
		c0.1-0.1,0.1-0.5,0.3-0.3C221.3,245.2,221.3,245.3,221.3,245.5z"/>
	<path class="st0" d="M222.3,244c0,0.3,0,0.7-0.2,1c-0.1,0.1-0.1,0.5-0.3,0.3c-0.1-0.2-0.1-0.3-0.1-0.5c0-0.3,0-0.7,0.2-1
		c0.1-0.1,0.1-0.5,0.3-0.3C222.3,243.7,222.3,243.8,222.3,244z"/>
	<path class="st0" d="M215.9,254.8c0,0.4-0.1,0.7-0.3,1c-0.3,0.5-0.5,0.2-0.5-0.3c0-0.4,0.1-0.7,0.3-1
		C215.6,254.1,215.9,254.3,215.9,254.8z"/>
	<path class="st0" d="M217.4,253.4c0,0.4-0.1,0.7-0.2,1c-0.3,0.5-0.5,0.2-0.5-0.3c0-0.4,0.1-0.7,0.2-1
		C217.2,252.6,217.4,252.9,217.4,253.4z"/>
	<path class="st0" d="M218.8,251.9c0,0.4-0.1,0.7-0.2,1c-0.1,0.2-0.2,0.5-0.4,0.2c-0.1-0.2-0.1-0.3-0.1-0.5c0-0.4,0.1-0.7,0.2-1
		c0.1-0.2,0.2-0.5,0.4-0.3C218.8,251.5,218.8,251.7,218.8,251.9z"/>
	<path class="st0" d="M220.1,250.4c0,0.4-0.1,0.7-0.2,1c-0.1,0.2-0.1,0.5-0.3,0.3c-0.1-0.2-0.1-0.3-0.1-0.5c0-0.3,0.1-0.7,0.2-1
		c0.1-0.2,0.1-0.5,0.3-0.3C220.1,250,220.1,250.2,220.1,250.4"/>
	<path class="st0" d="M221.3,248.8c0,0.3,0,0.7-0.2,1c-0.1,0.2-0.1,0.5-0.3,0.3c-0.1-0.2-0.1-0.3-0.1-0.5c0-0.3,0-0.7,0.2-1
		c0.1-0.1,0.1-0.5,0.3-0.3C221.3,248.5,221.3,248.7,221.3,248.8z"/>
	<path class="st0" d="M222.3,247.3c0,0.3,0,0.7-0.2,1c-0.1,0.1-0.1,0.5-0.3,0.3c-0.1-0.2-0.1-0.3-0.1-0.5c0-0.3,0-0.7,0.2-1
		c0.1-0.1,0.1-0.5,0.3-0.3C222.3,247,222.3,247.1,222.3,247.3z"/>
	<path class="st0" d="M215.9,258.2c0,0.4-0.1,0.7-0.3,1c-0.3,0.5-0.5,0.2-0.5-0.3c0-0.4,0.1-0.7,0.3-1
		C215.6,257.4,215.9,257.7,215.9,258.2z"/>
	<path class="st0" d="M217.4,256.7c0,0.4-0.1,0.7-0.2,1c-0.3,0.5-0.5,0.2-0.5-0.3c0-0.4,0.1-0.7,0.2-1
		C217.2,255.9,217.4,256.2,217.4,256.7z"/>
	<path class="st0" d="M218.8,255.2c0,0.4-0.1,0.7-0.2,1c-0.1,0.2-0.2,0.5-0.4,0.2c-0.1-0.2-0.1-0.3-0.1-0.5c0-0.4,0.1-0.7,0.2-1
		c0.1-0.2,0.2-0.5,0.4-0.3C218.8,254.9,218.8,255,218.8,255.2z"/>
	<path class="st0" d="M220.1,253.7c0,0.4-0.1,0.7-0.2,1c-0.1,0.2-0.1,0.5-0.3,0.3c-0.1-0.2-0.1-0.3-0.1-0.5c0-0.3,0.1-0.7,0.2-1
		c0.1-0.2,0.1-0.5,0.3-0.3C220.1,253.3,220.1,253.5,220.1,253.7"/>
	<path class="st0" d="M221.3,252.2c0,0.3,0,0.7-0.2,1c-0.1,0.2-0.1,0.5-0.3,0.3c-0.1-0.2-0.1-0.3-0.1-0.5c0-0.3,0-0.7,0.2-1
		c0.1-0.1,0.1-0.5,0.3-0.3C221.3,251.8,221.3,252,221.3,252.2z"/>
	<path class="st0" d="M222.3,250.6c0,0.3,0,0.7-0.2,1c-0.1,0.1-0.1,0.5-0.3,0.3c-0.1-0.2-0.1-0.3-0.1-0.5c0-0.3,0-0.7,0.2-1
		c0.1-0.1,0.1-0.5,0.3-0.3C222.3,250.3,222.3,250.4,222.3,250.6z"/>
	<path class="st0" d="M218.8,258.5c0,0.4-0.1,0.7-0.2,1c-0.1,0.2-0.2,0.5-0.4,0.2c-0.1-0.2-0.1-0.3-0.1-0.5c0-0.4,0.1-0.7,0.2-1
		c0.1-0.2,0.2-0.5,0.4-0.3C218.8,258.2,218.8,258.3,218.8,258.5z"/>
	<path class="st0" d="M220.1,257c0,0.4-0.1,0.7-0.2,1c-0.1,0.2-0.1,0.5-0.3,0.3c-0.1-0.2-0.1-0.3-0.1-0.5c0-0.3,0.1-0.7,0.2-1
		c0.1-0.2,0.1-0.5,0.3-0.3C220.1,256.7,220.1,256.8,220.1,257"/>
	<path class="st0" d="M221.3,255.5c0,0.3,0,0.7-0.2,1c-0.1,0.2-0.1,0.5-0.3,0.3c-0.1-0.2-0.1-0.3-0.1-0.5c0-0.3,0-0.7,0.2-1
		c0.1-0.1,0.1-0.5,0.3-0.3C221.3,255.1,221.3,255.3,221.3,255.5z"/>
	<path class="st0" d="M222.3,253.9c0,0.3,0,0.7-0.2,1c-0.1,0.1-0.1,0.5-0.3,0.3c-0.1-0.2-0.1-0.3-0.1-0.5c0-0.3,0-0.7,0.2-1
		c0.1-0.1,0.1-0.5,0.3-0.3C222.3,253.6,222.3,253.8,222.3,253.9z"/>
	<path class="st0" d="M221.3,258.8c0,0.3,0,0.7-0.2,1c-0.1,0.2-0.1,0.5-0.3,0.3c-0.1-0.2-0.1-0.3-0.1-0.5c0-0.3,0-0.7,0.2-1
		c0.1-0.1,0.1-0.5,0.3-0.3C221.3,258.5,221.3,258.6,221.3,258.8z"/>
	<path class="st0" d="M222.3,257.3c0,0.3,0,0.7-0.2,1c-0.1,0.1-0.1,0.5-0.3,0.3c-0.1-0.2-0.1-0.3-0.1-0.5c0-0.3,0-0.7,0.2-1
		c0.1-0.1,0.1-0.5,0.3-0.3C222.3,256.9,222.3,257.1,222.3,257.3z"/>
	<path class="st0" d="M226.2,235.7c0,0.1,0,0.3,0,0.4"/>
	<path class="st0" d="M226.2,235.7C226.2,235.7,226.2,235.7,226.2,235.7"/>
	<path class="st0" d="M226.2,236.1c0,0.4,0,0.8,0,1.2"/>
	<path class="st0" d="M226.2,229.1c0,0.1,0,0.3,0,0.4"/>
	<path class="st0" d="M226.2,229.2c0-0.1,0-0.1,0-0.2"/>
	<path class="st0" d="M226.2,229.5c0,0.4,0,0.8,0,1.2"/>
	<path class="st0" d="M226.2,225.8c0,0.1,0,0.3,0,0.4"/>
	<path class="st0" d="M226.2,225.8c0-0.1,0-0.1,0-0.2"/>
	<path class="st0" d="M226.2,226.2c0,0.4,0,0.8,0,1.2"/>
	<path class="st0" d="M226.2,219.8c0,0,0-0.1,0-0.1"/>
	<path class="st0" d="M226.3,222.5c0,0.1,0-0.1,0-0.2c0-0.1,0-0.2,0-0.2c0-0.2,0-0.3,0-0.5c0-0.3,0-0.6,0-0.9"/>
	<path class="st0" d="M226.2,222.7c0,0.1,0,0.1,0,0.2"/>
	<path class="st0" d="M226.2,222.4c0,0.1,0,0.1,0,0.2"/>
	<path class="st0" d="M226.2,222.5c0-0.1-0.1-0.1,0-0.2"/>
	<path class="st0" d="M226.2,222.8c0,0.4,0,0.8,0,1.2"/>
	<path class="st0" d="M226.2,216.3c0-0.1,0-0.3,0-0.4"/>
	<path class="st0" d="M226.3,217.3c0,0,0-0.1,0-0.1"/>
	<path class="st0" d="M226.2,219.1c0,0.1,0,0.3,0,0.4"/>
	<path class="st0" d="M226.2,219.2c0-0.1,0-0.1,0-0.2"/>
	<path class="st0" d="M226.2,219.5c0,0.4,0,0.8,0,1.2"/>
	<path class="st0" d="M223.2,229.1c0,0.3,0,0.6-0.1,1c0,0.1-0.1,0.5-0.2,0.3c-0.1-0.2-0.1-0.3-0.1-0.5c0-0.3,0-0.6,0.1-1
		c0-0.1,0.1-0.5,0.2-0.3C223.3,228.8,223.2,229,223.2,229.1z"/>
	<path class="st0" d="M224,227.6c0,0.3,0,0.6-0.1,1c0,0.1-0.1,0.5-0.2,0.3c-0.1-0.2-0.1-0.3-0.1-0.5c0-0.3,0-0.6,0.1-1
		c0-0.1,0.1-0.5,0.2-0.3C224.1,227.3,224,227.4,224,227.6z"/>
	<path class="st0" d="M224.7,226c0,0.3,0,0.6-0.1,0.9c0,0.1-0.1,0.5-0.2,0.3c-0.1-0.2-0.1-0.3-0.1-0.5c0-0.3,0-0.6,0.1-0.9
		c0-0.1,0.1-0.6,0.2-0.3C224.7,225.7,224.7,225.8,224.7,226z"/>
	<path class="st0" d="M225.3,224.4c0,0.3,0,0.6-0.1,0.9c0,0.1-0.1,0.6-0.2,0.3c-0.1-0.2,0-0.3,0-0.5c0-0.3,0-0.6,0.1-0.9
		c0-0.1,0.1-0.6,0.2-0.3C225.3,224.1,225.3,224.2,225.3,224.4z"/>
	<path class="st0" d="M225.7,222.3c0.1,0.2,0.1,0.3,0.1,0.5"/>
	<path class="st0" d="M225.5,223.9c0-0.3,0-0.6,0-0.8c0-0.1,0-0.3,0-0.4c0-0.1,0-0.1,0-0.2c0-0.1,0-0.1,0.1-0.2"/>
	<path class="st0" d="M225.7,222.8c0,0.2,0,0.4,0,0.7c0,0.1,0,0.2,0,0.3c0,0.1,0.1,0.2-0.1,0.3"/>
	<path class="st0" d="M226,220.7c0,0.2,0,0.3,0,0.5"/>
	<path class="st0" d="M226,220.8c0-0.1,0-0.3,0.1-0.2"/>
	<path class="st0" d="M226,221.2c0,0.4,0.1,0.9-0.1,1.3"/>
	<path class="st0" d="M223.2,232.5c0,0.3,0,0.6-0.1,1c0,0.1-0.1,0.5-0.2,0.3c-0.1-0.2-0.1-0.3-0.1-0.5c0-0.3,0-0.6,0.1-1
		c0-0.1,0.1-0.5,0.2-0.3C223.3,232.1,223.2,232.3,223.2,232.5z"/>
	<path class="st0" d="M224,230.9c0,0.3,0,0.6-0.1,1c0,0.1-0.1,0.5-0.2,0.3c-0.1-0.2-0.1-0.3-0.1-0.5c0-0.3,0-0.6,0.1-1
		c0-0.1,0.1-0.5,0.2-0.3C224.1,230.6,224,230.7,224,230.9z"/>
	<path class="st0" d="M224.7,229.3c0,0.3,0,0.6-0.1,0.9c0,0.1-0.1,0.5-0.2,0.3c-0.1-0.2-0.1-0.3-0.1-0.5c0-0.3,0-0.6,0.1-0.9
		c0-0.1,0.1-0.6,0.2-0.3C224.7,229,224.7,229.2,224.7,229.3z"/>
	<path class="st0" d="M225.3,227.7c0,0.3,0,0.6-0.1,0.9c0,0.1-0.1,0.6-0.2,0.3c-0.1-0.2,0-0.3,0-0.5c0-0.3,0-0.6,0.1-0.9
		c0-0.1,0.1-0.6,0.2-0.3C225.3,227.4,225.3,227.6,225.3,227.7z"/>
	<path class="st0" d="M225.7,225.6c0.1,0.2,0.1,0.3,0.1,0.5"/>
	<path class="st0" d="M225.5,227.2c0-0.3,0-0.6,0-0.8c0-0.1,0-0.3,0-0.4c0-0.1,0-0.1,0-0.2c0-0.1,0-0.1,0.1-0.2"/>
	<path class="st0" d="M225.7,226.1c0,0.2,0,0.4,0,0.7c0,0.1,0,0.2,0,0.3c0,0.1,0.1,0.2-0.1,0.3"/>
	<path class="st0" d="M226,224c0,0.1,0,0.1,0,0.2"/>
	<path class="st0" d="M226,224.2c0-0.1,0-0.3,0.1-0.2"/>
	<path class="st0" d="M226,224.5c0,0.4,0.1,0.9-0.1,1.3"/>
	<path class="st0" d="M223.2,235.8c0,0.3,0,0.6-0.1,1c0,0.1-0.1,0.5-0.2,0.3c-0.1-0.2-0.1-0.3-0.1-0.5c0-0.3,0-0.6,0.1-1
		c0-0.1,0.1-0.5,0.2-0.3C223.3,235.5,223.2,235.6,223.2,235.8z"/>
	<path class="st0" d="M224,234.2c0,0.3,0,0.6-0.1,1c0,0.1-0.1,0.5-0.2,0.3c-0.1-0.2-0.1-0.3-0.1-0.5c0-0.3,0-0.6,0.1-1
		c0-0.1,0.1-0.5,0.2-0.3C224.1,233.9,224,234.1,224,234.2z"/>
	<path class="st0" d="M224.7,232.6c0,0.3,0,0.6-0.1,0.9c0,0.1-0.1,0.5-0.2,0.3c-0.1-0.2-0.1-0.3-0.1-0.5c0-0.3,0-0.6,0.1-0.9
		c0-0.1,0.1-0.6,0.2-0.3C224.7,232.3,224.7,232.5,224.7,232.6z"/>
	<path class="st0" d="M225.3,231c0,0.3,0,0.6-0.1,0.9c0,0.1-0.1,0.6-0.2,0.3c-0.1-0.2,0-0.3,0-0.5c0-0.3,0-0.6,0.1-0.9
		c0-0.1,0.1-0.6,0.2-0.3C225.3,230.7,225.3,230.9,225.3,231z"/>
	<path class="st0" d="M225.7,228.9c0.1,0.2,0.1,0.3,0.1,0.5"/>
	<path class="st0" d="M225.5,230.6c0-0.3,0-0.6,0-0.8c0-0.1,0-0.3,0-0.4c0-0.1,0-0.1,0-0.2c0-0.1,0-0.1,0.1-0.2"/>
	<path class="st0" d="M225.7,229.4c0,0.2,0,0.4,0,0.7c0,0.1,0,0.2,0,0.3c0,0.1,0.1,0.2-0.1,0.3"/>
	<path class="st0" d="M226,227.3c0,0.2,0,0.3,0,0.5"/>
	<path class="st0" d="M226,227.5c0-0.1,0-0.3,0.1-0.2"/>
	<path class="st0" d="M226,227.8c0,0.4,0.1,0.9-0.1,1.3"/>
	<path class="st0" d="M223.2,239.1c0,0.3,0,0.6-0.1,1c0,0.1-0.1,0.5-0.2,0.3c-0.1-0.2-0.1-0.3-0.1-0.5c0-0.3,0-0.6,0.1-1
		c0-0.1,0.1-0.5,0.2-0.3C223.3,238.8,223.2,238.9,223.2,239.1z"/>
	<path class="st0" d="M224,237.5c0,0.3,0,0.6-0.1,1c0,0.1-0.1,0.5-0.2,0.3c-0.1-0.2-0.1-0.3-0.1-0.5c0-0.3,0-0.6,0.1-1
		c0-0.1,0.1-0.5,0.2-0.3C224.1,237.2,224,237.4,224,237.5z"/>
	<path class="st0" d="M224.7,236c0,0.3,0,0.6-0.1,0.9c0,0.1-0.1,0.5-0.2,0.3c-0.1-0.2-0.1-0.3-0.1-0.5c0-0.3,0-0.6,0.1-0.9
		c0-0.1,0.1-0.6,0.2-0.3C224.7,235.6,224.7,235.8,224.7,236z"/>
	<path class="st0" d="M225.3,234.4c0,0.3,0,0.6-0.1,0.9c0,0.1-0.1,0.6-0.2,0.3c-0.1-0.2,0-0.3,0-0.5c0-0.3,0-0.6,0.1-0.9
		c0-0.1,0.1-0.6,0.2-0.3C225.3,234,225.3,234.2,225.3,234.4z"/>
	<path class="st0" d="M225.7,232.2c0.1,0.2,0.1,0.3,0.1,0.5"/>
	<path class="st0" d="M225.5,233.9c0-0.3,0-0.6,0-0.8c0-0.1,0-0.3,0-0.4c0-0.1,0-0.1,0-0.2c0-0.1,0-0.1,0.1-0.2"/>
	<path class="st0" d="M225.7,232.8c0,0.2,0,0.4,0,0.7c0,0.1,0,0.2,0,0.3c0,0.1,0.1,0.2-0.1,0.3"/>
	<path class="st0" d="M226,230.6c0,0.2,0,0.3,0,0.5"/>
	<path class="st0" d="M226,230.8c0-0.1,0-0.3,0.1-0.2"/>
	<path class="st0" d="M226,231.1c0,0.4,0.1,0.9-0.1,1.3"/>
	<path class="st0" d="M223.2,242.4c0,0.3,0,0.6-0.1,1c0,0.1-0.1,0.5-0.2,0.3c-0.1-0.2-0.1-0.3-0.1-0.5c0-0.3,0-0.6,0.1-1
		c0-0.1,0.1-0.5,0.2-0.3C223.3,242.1,223.2,242.3,223.2,242.4z"/>
	<path class="st0" d="M224,240.9c0,0.3,0,0.6-0.1,1c0,0.1-0.1,0.5-0.2,0.3c-0.1-0.2-0.1-0.3-0.1-0.5c0-0.3,0-0.6,0.1-1
		c0-0.1,0.1-0.5,0.2-0.3C224.1,240.5,224,240.7,224,240.9z"/>
	<path class="st0" d="M224.7,239.3c0,0.3,0,0.6-0.1,0.9c0,0.1-0.1,0.5-0.2,0.3c-0.1-0.2-0.1-0.3-0.1-0.5c0-0.3,0-0.6,0.1-0.9
		c0-0.1,0.1-0.6,0.2-0.3C224.7,239,224.7,239.1,224.7,239.3z"/>
	<path class="st0" d="M225.3,237.7c0,0.3,0,0.6-0.1,0.9c0,0.1-0.1,0.6-0.2,0.3c-0.1-0.2,0-0.3,0-0.5c0-0.3,0-0.6,0.1-0.9
		c0-0.1,0.1-0.6,0.2-0.3C225.3,237.4,225.3,237.5,225.3,237.7z"/>
	<path class="st0" d="M225.7,235.6c0.1,0.2,0.1,0.3,0.1,0.5"/>
	<path class="st0" d="M225.5,237.2c0-0.3,0-0.6,0-0.8c0-0.1,0-0.3,0-0.4c0-0.1,0-0.1,0-0.2c0-0.1,0-0.1,0.1-0.2"/>
	<path class="st0" d="M225.7,236.1c0,0.2,0,0.4,0,0.7c0,0.1,0,0.2,0,0.3c0,0.1,0.1,0.2-0.1,0.3"/>
	<path class="st0" d="M226,234c0,0.2,0,0.3,0,0.5"/>
	<path class="st0" d="M226,234.1c0-0.1,0-0.3,0.1-0.2"/>
	<path class="st0" d="M226,234.4c0,0.4,0.1,0.9-0.1,1.3"/>
	<path class="st0" d="M223.2,245.7c0,0.3,0,0.6-0.1,1c0,0.1-0.1,0.5-0.2,0.3c-0.1-0.2-0.1-0.3-0.1-0.5c0-0.3,0-0.6,0.1-1
		c0-0.1,0.1-0.5,0.2-0.3C223.3,245.4,223.2,245.6,223.2,245.7z"/>
	<path class="st0" d="M224,244.2c0,0.3,0,0.6-0.1,1c0,0.1-0.1,0.5-0.2,0.3c-0.1-0.2-0.1-0.3-0.1-0.5c0-0.3,0-0.6,0.1-1
		c0-0.1,0.1-0.5,0.2-0.3C224.1,243.9,224,244,224,244.2z"/>
	<path class="st0" d="M224.7,242.6c0,0.3,0,0.6-0.1,0.9c0,0.1-0.1,0.5-0.2,0.3c-0.1-0.2-0.1-0.3-0.1-0.5c0-0.3,0-0.6,0.1-0.9
		c0-0.1,0.1-0.6,0.2-0.3C224.7,242.3,224.7,242.4,224.7,242.6z"/>
	<path class="st0" d="M225.3,241c0,0.3,0,0.6-0.1,0.9c0,0.1-0.1,0.6-0.2,0.3c-0.1-0.2,0-0.3,0-0.5c0-0.3,0-0.6,0.1-0.9
		c0-0.1,0.1-0.6,0.2-0.3C225.3,240.7,225.3,240.8,225.3,241z"/>
	<path class="st0" d="M225.7,238.9c0.1,0.2,0.1,0.3,0.1,0.5"/>
	<path class="st0" d="M225.5,240.5c0-0.3,0-0.6,0-0.8c0-0.1,0-0.3,0-0.4c0-0.1,0-0.1,0-0.2c0-0.1,0-0.1,0.1-0.2"/>
	<path class="st0" d="M225.7,239.4c0,0.2,0,0.4,0,0.7c0,0.1,0,0.2,0,0.3c0,0.1,0.1,0.2-0.1,0.3"/>
	<path class="st0" d="M226,237.3c0,0.2,0,0.3,0,0.5"/>
	<path class="st0" d="M225.9,239.1c-0.1-0.3,0-0.6,0-0.9c0-0.2,0-0.3,0-0.5c0-0.1,0-0.2,0-0.2c0-0.1,0-0.3,0.1-0.2"/>
	<path class="st0" d="M226,237.8c0,0.4,0.1,0.9-0.1,1.3"/>
	<path class="st0" d="M223.2,249.1c0,0.3,0,0.6-0.1,1c0,0.1-0.1,0.5-0.2,0.3c-0.1-0.2-0.1-0.3-0.1-0.5c0-0.3,0-0.6,0.1-1
		c0-0.1,0.1-0.5,0.2-0.3C223.3,248.7,223.2,248.9,223.2,249.1z"/>
	<path class="st0" d="M224,247.5c0,0.3,0,0.6-0.1,1c0,0.1-0.1,0.5-0.2,0.3c-0.1-0.2-0.1-0.3-0.1-0.5c0-0.3,0-0.6,0.1-1
		c0-0.1,0.1-0.5,0.2-0.3C224.1,247.2,224,247.3,224,247.5z"/>
	<path class="st0" d="M224.7,245.9c0,0.3,0,0.6-0.1,0.9c0,0.1-0.1,0.5-0.2,0.3c-0.1-0.2-0.1-0.3-0.1-0.5c0-0.3,0-0.6,0.1-0.9
		c0-0.1,0.1-0.6,0.2-0.3C224.7,245.6,224.7,245.8,224.7,245.9z"/>
	<path class="st0" d="M225.3,244.3c0,0.3,0,0.6-0.1,0.9c0,0.1-0.1,0.6-0.2,0.3c-0.1-0.2,0-0.3,0-0.5c0-0.3,0-0.6,0.1-0.9
		c0-0.1,0.1-0.6,0.2-0.3C225.3,244,225.3,244.2,225.3,244.3z"/>
	<path class="st0" d="M225.7,242.2c0.1,0.2,0.1,0.3,0.1,0.5"/>
	<path class="st0" d="M225.7,242.7c0,0.4-0.2,1.8-0.2,1.1c0-0.3,0-0.5,0-0.8c0-0.1,0-0.3,0-0.4c0-0.1,0-0.2,0.1-0.3c0,0,0-0.1,0-0.1
		"/>
	<path class="st0" d="M226,240.6c0,0.2,0,0.3,0,0.5"/>
	<path class="st0" d="M226,240.6C226,240.6,226,240.6,226,240.6"/>
	<path class="st0" d="M226,241.1c0,0.4,0.1,0.9-0.1,1.3"/>
	<path class="st0" d="M223.2,252.4c0,0.3,0,0.6-0.1,1c0,0.1-0.1,0.5-0.2,0.3c-0.1-0.2-0.1-0.3-0.1-0.5c0-0.3,0-0.6,0.1-1
		c0-0.1,0.1-0.5,0.2-0.3C223.3,252.1,223.2,252.2,223.2,252.4z"/>
	<path class="st0" d="M224,250.8c0,0.3,0,0.6-0.1,1c0,0.1-0.1,0.5-0.2,0.3c-0.1-0.2-0.1-0.3-0.1-0.5c0-0.3,0-0.6,0.1-1
		c0-0.1,0.1-0.5,0.2-0.3C224.1,250.5,224,250.6,224,250.8z"/>
	<path class="st0" d="M224.7,249.2c0,0.3,0,0.6-0.1,0.9c0,0.1-0.1,0.5-0.2,0.3c-0.1-0.2-0.1-0.3-0.1-0.5c0-0.3,0-0.6,0.1-0.9
		c0-0.1,0.1-0.6,0.2-0.3C224.7,248.9,224.7,249.1,224.7,249.2z"/>
	<path class="st0" d="M225.3,247.6c0,0.3,0,0.6-0.1,0.9c0,0.1-0.1,0.6-0.2,0.3c-0.1-0.2,0-0.3,0-0.5c0-0.3,0-0.6,0.1-0.9
		c0-0.1,0.1-0.6,0.2-0.3C225.3,247.3,225.3,247.5,225.3,247.6z"/>
	<path class="st0" d="M223.2,255.7c0,0.3,0,0.6-0.1,1c0,0.1-0.1,0.5-0.2,0.3c-0.1-0.2-0.1-0.3-0.1-0.5c0-0.3,0-0.6,0.1-1
		c0-0.1,0.1-0.5,0.2-0.3C223.3,255.4,223.2,255.5,223.2,255.7z"/>
	<path class="st0" d="M224,254.1c0,0.3,0,0.6-0.1,1c0,0.1-0.1,0.5-0.2,0.3c-0.1-0.2-0.1-0.3-0.1-0.5c0-0.3,0-0.6,0.1-1
		c0-0.1,0.1-0.5,0.2-0.3C224.1,253.8,224,254,224,254.1z"/>
	<path class="st0" d="M220.1,260.3c0,0.4-0.1,0.7-0.2,1c-0.1,0.2-0.1,0.5-0.3,0.3c-0.1-0.2-0.1-0.3-0.1-0.5c0-0.3,0.1-0.7,0.2-1
		c0.1-0.2,0.1-0.5,0.3-0.3C220.1,260,220.1,260.1,220.1,260.3z"/>
	<path class="st0" d="M217.4,260c0,0.4-0.1,0.7-0.2,1c-0.3,0.5-0.5,0.2-0.5-0.3c0-0.4,0.1-0.7,0.2-1
		C217.2,259.3,217.4,259.5,217.4,260z"/>
	<path class="st0" d="M212.4,254.4c0,0.4-0.1,0.7-0.3,1c-0.3,0.4-0.6,0.2-0.6-0.3c0-0.4,0.1-0.7,0.3-1
		C212.2,253.7,212.4,253.9,212.4,254.4z"/>
	<path class="st0" d="M210.5,249.2c0,0.4-0.1,0.7-0.4,1c-0.3,0.4-0.7,0.2-0.7-0.3c0-0.4,0.1-0.7,0.4-1
		C210.2,248.5,210.5,248.7,210.5,249.2z"/>
	<path class="st0" d="M226.2,232.4c0,0.1,0,0.3,0,0.4"/>
	<path class="st0" d="M226.2,232.5c0-0.1,0-0.1,0-0.2"/>
	<path class="st0" d="M226.2,232.8c0,0.4,0,0.8,0,1.2"/>
	<path class="st0" d="M226.2,223c0-0.1,0-0.3,0-0.4"/>
	<path class="st0" d="M226.3,224c0,0,0-0.1,0-0.1"/>
	<path class="st0" d="M225.7,245.5c0.1,0.2,0.1,0.3,0.1,0.5"/>
	<path class="st0" d="M225.7,246c0,0.4-0.2,1.8-0.2,1.1c0-0.3,0-0.5,0-0.8c0-0.1,0-0.3,0-0.4c0-0.1,0-0.2,0.1-0.3c0,0,0-0.1,0-0.1"
		/>
	<path class="st0" d="M224.7,252.5c0,0.3,0,0.6-0.1,0.9c0,0.1-0.1,0.5-0.2,0.3c-0.1-0.2-0.1-0.3-0.1-0.5c0-0.3,0-0.6,0.1-0.9
		c0-0.1,0.1-0.6,0.2-0.3C224.7,252.2,224.7,252.4,224.7,252.5z"/>
	<path class="st0" d="M226.2,206.4c0-0.1,0-0.3,0-0.4"/>
	<path class="st0" d="M226.3,207.4c0,0,0-0.1,0-0.1"/>
	<path class="st0" d="M17.8,67.1c-0.7,1.1-1,3.5-1.1,4.7c-0.1,0.8-0.1,1.6,0,2.4c0,0.4,0.1,0.8,0.2,1.2c0.2,0.5,0.5,0.6,0.9,0.1"/>
	<path class="st0" d="M18.7,67.1c-0.2-0.6-0.6-0.5-0.9,0"/>
	<path class="st0" d="M17.8,67.4c-0.6,1-0.9,3-1,4c-0.1,0.7-0.1,1.4-0.1,2.1c0,0.3,0,0.7,0.1,1c0,0.2,0.1,0.8,0.5,0.9"/>
	<path class="st0" d="M18.4,67c-0.3-0.1-0.5,0.2-0.6,0.4"/>
	<line class="st0" x1="99.4" y1="117.4" x2="67" y2="113.7"/>
	<line class="st0" x1="57.8" y1="102.9" x2="41.3" y2="100.9"/>
	<line class="st0" x1="123.4" y1="120.2" x2="116.8" y2="119.5"/>
	<line class="st0" x1="111.4" y1="118.8" x2="99.8" y2="117.5"/>
	<line class="st0" x1="158.1" y1="114.6" x2="136" y2="112"/>
	<line class="st0" x1="125.9" y1="119.3" x2="125.9" y2="143.5"/>
	<line class="st0" x1="108.2" y1="146.7" x2="108.2" y2="118.5"/>
	<line class="st0" x1="155.7" y1="151.7" x2="155.7" y2="158.4"/>
	<line class="st0" x1="78.3" y1="158.2" x2="78.3" y2="151.6"/>
	<line class="st0" x1="137.3" y1="136.9" x2="138.2" y2="137.1"/>
	<line class="st0" x1="95.9" y1="137.1" x2="98.5" y2="136.4"/>
	<line class="st0" x1="184.2" y1="108.5" x2="170" y2="106.8"/>
	<line class="st0" x1="50.5" y1="92.9" x2="33.4" y2="90.9"/>
	<line class="st0" x1="37.5" y1="55.7" x2="191.8" y2="73.7"/>
	<line class="st0" x1="31.7" y1="88.6" x2="27.7" y2="77.7"/>
	<line class="st0" x1="199.1" y1="69.4" x2="202.6" y2="69.8"/>
	<line class="st0" x1="27.9" y1="78.3" x2="19.9" y2="77.3"/>
	<line class="st0" x1="21.3" y1="65.7" x2="29.3" y2="66.7"/>
	<path class="st0" d="M18,66.6c-0.1,0-0.2,0-0.3,0.1c-0.1,0.1-0.2,0.2-0.2,0.3"/>
	<line class="st0" x1="18" y1="66.6" x2="18.3" y2="66.6"/>
	<line class="st0" x1="17.2" y1="75.8" x2="16.9" y2="75.8"/>
	<line class="st0" x1="19.1" y1="75.6" x2="17.3" y2="75.4"/>
	<line class="st0" x1="18.3" y1="67" x2="20.1" y2="67.2"/>
	<line class="st0" x1="188.7" y1="114.1" x2="185.2" y2="113.7"/>
	<path class="st0" d="M17.5,67c-0.6,1.1-1,3.2-1.1,4.4c-0.1,0.8-0.1,1.5-0.1,2.3c0,0.4,0,0.8,0.1,1.1c0,0.2,0.2,0.9,0.5,1"/>
	<path class="st0" d="M19.9,77.3c-0.4-0.1-0.6-0.9-0.7-1.2c-0.1-0.5-0.1-0.9-0.2-1.4c0-1,0-1.9,0.1-2.9c0.1-1.5,0.6-4.2,1.4-5.5"/>
	<path class="st0" d="M20.6,66.3c0.1-0.2,0.4-0.6,0.7-0.5"/>
	<path class="st0" d="M195.6,77.9c1.9,6.2,0.1,22.1-3.2,27.7"/>
	<line class="st0" x1="142.7" y1="146.1" x2="142.7" y2="148.7"/>
	<line class="st0" x1="91.3" y1="148.7" x2="91.3" y2="146.1"/>
	<path class="st0" d="M120.9,120.3c-0.1,0-0.2,0-0.4,0"/>
	<line class="st0" x1="120.9" y1="120.3" x2="120.9" y2="119.9"/>
	<path class="st0" d="M120.9,120.3c0.2-0.1,0.5-0.2,0.7-0.3"/>
	<line class="st0" x1="58.4" y1="109.6" x2="104.3" y2="114.9"/>
	<path class="st0" d="M58.4,109.6c2.2,1.6,5.7,3.7,8.6,4.1"/>
	<path class="st0" d="M99.4,117.4c1.1,0.1,4.2-2,4.9-2.5"/>
	<line class="st0" x1="58.3" y1="109.4" x2="58.4" y2="109.6"/>
	<line class="st0" x1="104.3" y1="114.9" x2="104.5" y2="114.7"/>
	<line class="st0" x1="53.7" y1="92.7" x2="70.4" y2="94.6"/>
	<line class="st0" x1="53.7" y1="92.7" x2="55.5" y2="89.7"/>
	<line class="st0" x1="72.2" y1="91.7" x2="55.5" y2="89.7"/>
	<line class="st0" x1="50.5" y1="95.1" x2="53.7" y2="92.7"/>
	<line class="st0" x1="44.8" y1="93.5" x2="41.3" y2="99.2"/>
	<path class="st0" d="M41.3,99.2c-0.1,0.2-0.3,0.4-0.4,0.7c-0.1,0.2-0.2,0.4-0.2,0.6c0,0.1,0,0.2,0,0.3c0.1,0.1,0.2,0.1,0.3,0.2
		c0.2,0,0.3,0,0.5,0c0.3-0.1,0.5-0.2,0.8-0.3c0.7-0.3,1.4-0.7,2.1-1.1c0.9-0.6,1.9-1.2,2.8-1.9c1.1-0.8,2.3-1.7,3.4-2.5"/>
	<path class="st0" d="M45.7,92.3c-0.3,0.4-0.6,0.8-0.9,1.2"/>
	<path class="st0" d="M55.5,89.7c-1.2,0.8-2.4,1.7-3.6,2.4c-0.6,0.4-1.3,0.7-1.9,1c-0.7,0.3-1.8,0.5-1.4-0.5"/>
	<path class="st0" d="M118.8,104c0.4-0.3,0.7-0.6,1.1-0.8"/>
	<path class="st0" d="M104.6,114.8c1.1-0.7,2.1-1.5,3.2-2.3"/>
	<path class="st0" d="M55.1,106.3c-0.1,0.1-0.3,0.2-0.4,0.3"/>
	<path class="st0" d="M54.7,106.6c1.1,0.9,2.2,1.8,3.4,2.7"/>
	<path class="st0" d="M65.1,98.7c-0.9,0.6-5.9,4.3-7.3,4.2"/>
	<line class="st0" x1="55.2" y1="105.8" x2="57" y2="102.8"/>
	<line class="st0" x1="66.2" y1="97.9" x2="55.1" y2="106.3"/>
	<line class="st0" x1="123.1" y1="100.8" x2="70.4" y2="94.6"/>
	<line class="st0" x1="123.1" y1="100.8" x2="124.9" y2="97.8"/>
	<line class="st0" x1="72.2" y1="91.7" x2="124.9" y2="97.8"/>
	<line class="st0" x1="119.9" y1="103.2" x2="123.1" y2="100.8"/>
	<line class="st0" x1="107.8" y1="112.5" x2="118.8" y2="104"/>
	<line class="st0" x1="58" y1="109.3" x2="104.6" y2="114.8"/>
	<line class="st0" x1="54.7" y1="106.6" x2="55.2" y2="105.8"/>
	<path class="st0" d="M108.4,118.5c1,1.6,4,2.3,5.6,2.4"/>
	<path class="st0" d="M114,120.9c2.3,0.3,4.4,0.1,6.6-0.5"/>
	<path class="st0" d="M120.3,103.2c-0.4,0.3-0.7,0.6-1.1,0.8"/>
	<path class="st0" d="M143.9,106c-0.4,0.3-0.7,0.6-1.1,0.8"/>
	<line class="st0" x1="119.2" y1="104.1" x2="108.1" y2="112.5"/>
	<line class="st0" x1="123.4" y1="100.8" x2="120.3" y2="103.2"/>
	<line class="st0" x1="123.4" y1="100.8" x2="125.2" y2="97.9"/>
	<line class="st0" x1="147" y1="103.6" x2="123.4" y2="100.8"/>
	<line class="st0" x1="147" y1="103.6" x2="148.8" y2="100.6"/>
	<line class="st0" x1="125.2" y1="97.9" x2="148.8" y2="100.6"/>
	<path class="st0" d="M124.5,98.3c0.2-0.2,0.4-0.3,0.7-0.5"/>
	<path class="st0" d="M123.4,120.2c1.6,0.2,7.4-4.3,8.3-5"/>
	<path class="st0" d="M108.1,112.5c-1.3,1-2.7,2-4,2.9c-0.5,0.3-3.6,2.4-4.4,2.1"/>
	<path class="st0" d="M116.8,119.5c-1.8-0.2-3.6-0.4-5.4-0.6"/>
	<line class="st0" x1="120.5" y1="120.4" x2="120.5" y2="119.9"/>
	<path class="st0" d="M173.3,104.2c3.6-2.8,7-5.6,10.4-8.6"/>
	<path class="st0" d="M160.1,92.9c-3.4,3-6.9,5.8-10.4,8.6"/>
	<path class="st0" d="M158.1,114.6c1.7,0.3,8.5-5.1,9.5-5.8"/>
	<line class="st0" x1="183.7" y1="95.6" x2="184.7" y2="94"/>
	<line class="st0" x1="167.5" y1="108.7" x2="173.3" y2="104.2"/>
	<line class="st0" x1="161.7" y1="90.3" x2="184.5" y2="93"/>
	<line class="st0" x1="183.7" y1="95.6" x2="160.1" y2="92.9"/>
	<line class="st0" x1="131.7" y1="115.2" x2="142.8" y2="106.8"/>
	<line class="st0" x1="149.7" y1="101.5" x2="147" y2="103.6"/>
	<line class="st0" x1="160.1" y1="92.9" x2="161.7" y2="90.3"/>
	<path class="st0" d="M148.8,100.6c4.5-3.2,8.7-6.7,12.8-10.3"/>
	<path class="st0" d="M184.9,93c-0.1,0-0.3-0.1-0.4-0.1"/>
	<path class="st0" d="M122.2,120.1c-2.1,1.1-5.1,1.4-7.3,1.3c-1.7-0.1-5.9-0.7-6.6-2.9"/>
	<path class="st0" d="M125.6,144.3c0.2-0.3,0.3-0.6,0.3-0.9"/>
	<path class="st0" d="M108.2,146.7c0,1.8,2.8,2.7,4,3c1.8,0.4,3.5,0.5,5.3,0.4c1.8-0.1,3.5-0.4,5.1-1.4c0.8-0.5,1.2-1.2,1.7-2
		c0.5-0.8,0.9-1.5,1.4-2.3"/>
	<path class="st0" d="M92.2,143.2c-0.9,1.4-1.1,3.2-0.5,4.7c0.6,1.7,1.7,2.7,3.1,3.8"/>
	<path class="st0" d="M94.2,142.4c-1.9,3.1-0.2,5.9,2.4,7.8"/>
	<path class="st0" d="M96.5,150.2c4.2,3.2,11.1,4.5,16,5c5.8,0.5,11.2,0.2,16.8-1.3c2.8-0.7,5.3-1.7,7.7-3.4
		c2.2-1.6,4.4-4.1,3.1-7.1c-2-4.9-10.4-7.1-14.4-7.8"/>
	<path class="st0" d="M108.2,135.5c-4.1,0.7-11.4,2.7-14,6.9"/>
	<path class="st0" d="M94.8,151.7c4.1,3.1,10.7,4.7,15.6,5.2"/>
	<path class="st0" d="M110.4,156.9c6.7,0.8,13,0.5,19.5-1.1"/>
	<path class="st0" d="M129.8,155.8c3.4-0.8,8.1-2.6,10.6-5.2c3.6-3.5,2.5-7.3-1.2-10.1"/>
	<path class="st0" d="M139.2,140.5c-2.9-2.2-6-3.3-9.5-4.1"/>
	<path class="st0" d="M104.2,136.4c-3.7,0.9-9.7,3.1-12,6.8"/>
	<path class="st0" d="M142.7,148.7c-0.1,5.2-7.2,8-10.8,9.1c-4.9,1.5-9.8,2-14.8,2c-5.1,0-9.9-0.5-14.8-2.1
		c-2.4-0.7-4.7-1.7-6.8-3.1c-1.9-1.3-4-3.3-4-6"/>
	<path class="st0" d="M131.9,139.8c-1.3-0.2-3.6,0-4.8,0.9c-0.9,0.7-0.7,1.4,0.2,2c0.7,0.5,1.5,0.6,2.3,0.7c1.3,0.2,3.6,0,4.8-0.9
		c0.9-0.7,0.7-1.4-0.2-2C133.5,140.1,132.8,139.9,131.9,139.8z"/>
	<path class="st0" d="M105,138.6c-0.5,0.8,0.3,1.4,1,1.7c0.7,0.3,1.4,0.5,2.2,0.5"/>
	<path class="st0" d="M108.2,137.3c-0.9,0.1-2.6,0.4-3.2,1.3"/>
	<path class="st0" d="M102.1,150.3c1.3,0.2,3.6,0,4.8-0.9c0.9-0.7,0.7-1.4-0.2-2c-0.7-0.5-1.5-0.6-2.3-0.7c-1.3-0.2-3.6,0-4.8,0.9
		c-0.9,0.7-0.7,1.4,0.2,2C100.5,150.1,101.3,150.2,102.1,150.3z"/>
	<path class="st0" d="M129.1,151.6c0.5-0.9-0.5-1.5-1.2-1.8c-0.8-0.3-1.6-0.5-2.4-0.5c-1.1-0.1-3.8,0.1-4.6,1.3
		c-0.5,0.9,0.5,1.5,1.2,1.8c0.8,0.3,1.6,0.5,2.4,0.5C125.6,153,128.3,152.8,129.1,151.6z"/>
	<path class="st0" d="M155.7,158.1C155.7,158.1,155.8,158.1,155.7,158.1"/>
	<path class="st0" d="M155.7,154.6c0.2,0.6,0.3,1.2,0.4,1.9"/>
	<path class="st0" d="M78,156.5c0-0.6,0.1-1.1,0.3-1.7"/>
	<path class="st0" d="M78.3,155.3c-0.1,0.5-0.2,0.9-0.3,1.4"/>
	<path class="st0" d="M156.1,156.7c-0.1-0.6-0.2-1.1-0.4-1.7"/>
	<path class="st0" d="M78,156.5c0.1-0.2,0.2-0.3,0.3-0.5"/>
	<path class="st0" d="M155.7,155.9c0.1,0.2,0.2,0.4,0.3,0.6"/>
	<path class="st0" d="M15.6,144.1c5.7-9.2,16.7-15.8,26-20c10.2-4.6,20.7-7.6,31.7-9.8"/>
	<path class="st0" d="M159.6,114.1c13.4,2.6,27.9,6.8,40,13.5c6.9,3.8,14.1,8.9,18.5,15.8c3.3,5.1,4.9,10.8,3.5,16.9
		c-1.3,5.8-4.8,10.6-8.9,14.5c-6,5.8-13.6,10-21.1,13.3c-12.8,5.6-27.1,9.1-40.8,11.1c-27,4-57.6,3.2-84.2-3.2
		c-13.1-3.1-27.7-8.1-38.9-16.1c-6.2-4.4-12.5-10.3-14.8-18.1c-1.9-6.3-0.6-12.3,2.7-17.7"/>
	<path class="st0" d="M135.9,125.3c-0.4,0-0.7-0.1-1,0.2c-0.4,0.3,0.2,0.5,0.6,0.6c0.4,0,0.7,0.1,1-0.2
		C136.9,125.6,136.3,125.4,135.9,125.3z"/>
	<path class="st0" d="M78.3,153.7c-1.3,4.4,1.4,7.9,4.5,10.4c3.3,2.6,6.8,4.1,10.7,5.4c7.4,2.5,16,3.5,23.7,3.4
		c7.8,0,16.3-1,23.7-3.5c3.9-1.3,7.4-2.8,10.6-5.5c3.1-2.5,5.6-6.1,4.2-10.4"/>
	<path class="st0" d="M83.5,142.5c-0.4,0-0.7-0.1-1,0.2c-0.4,0.3,0.1,0.5,0.5,0.6"/>
	<path class="st0" d="M83.8,142.6c-0.1,0-0.2-0.1-0.4-0.1"/>
	<path class="st0" d="M65.8,158.7c-0.4,0-0.7-0.1-1,0.2c-0.4,0.3,0.2,0.5,0.6,0.6c0.4,0,0.7,0.1,1-0.2
		C66.8,158.9,66.2,158.7,65.8,158.7z"/>
	<path class="st0" d="M69.4,159.1c-0.4,0-0.7-0.1-1,0.2c-0.4,0.3,0.2,0.5,0.6,0.6c0.4,0,0.7,0.1,1-0.2
		C70.4,159.4,69.8,159.2,69.4,159.1z"/>
	<path class="st0" d="M73,159.5c-0.4,0-0.7-0.1-1,0.2c-0.4,0.3,0.2,0.5,0.6,0.6c0.4,0,0.7,0.1,1-0.2C74,159.8,73.3,159.6,73,159.5z"
		/>
	<path class="st0" d="M82,144c-0.2,0-0.3,0-0.5,0.2c-0.2,0.1-0.3,0.3-0.1,0.4"/>
	<path class="st0" d="M78.9,143.6c-0.4,0-0.7-0.1-1,0.2c-0.4,0.3,0.2,0.5,0.6,0.6c0.4,0,0.7,0.1,1-0.2
		C79.9,143.9,79.3,143.7,78.9,143.6z"/>
	<path class="st0" d="M78,145.2c-0.4,0-0.7-0.1-1,0.2c-0.4,0.3,0.2,0.5,0.6,0.6c0.4,0,0.7,0.1,1-0.2C79,145.4,78.4,145.2,78,145.2z"
		/>
	<path class="st0" d="M77,146.7c-0.4,0-0.7-0.1-1,0.2c-0.4,0.3,0.2,0.5,0.6,0.6c0.4,0,0.7,0.1,1-0.2C78,147,77.4,146.8,77,146.7z"/>
	<path class="st0" d="M76.1,148.3c-0.4,0-0.7-0.1-1,0.2c-0.4,0.3,0.2,0.5,0.6,0.6c0.4,0,0.7,0.1,1-0.2
		C77.1,148.5,76.5,148.3,76.1,148.3z"/>
	<path class="st0" d="M75.1,149.8c-0.4,0-0.7-0.1-1,0.2c-0.4,0.3,0.2,0.5,0.6,0.6c0.4,0,0.7,0.1,1-0.2
		C76.1,150.1,75.5,149.9,75.1,149.8z"/>
	<path class="st0" d="M76.3,141.6c-0.4,0-0.7-0.1-1,0.2c-0.4,0.3,0.2,0.5,0.6,0.6c0.4,0,0.7,0.1,1-0.2
		C77.3,141.9,76.7,141.7,76.3,141.6z"/>
	<path class="st0" d="M75.4,143.2c-0.4,0-0.7-0.1-1,0.2c-0.4,0.3,0.2,0.5,0.6,0.6c0.4,0,0.7,0.1,1-0.2
		C76.4,143.4,75.8,143.2,75.4,143.2z"/>
	<path class="st0" d="M74.4,144.7c-0.4,0-0.7-0.1-1,0.2c-0.4,0.3,0.2,0.5,0.6,0.6c0.4,0,0.7,0.1,1-0.2
		C75.4,145,74.8,144.8,74.4,144.7z"/>
	<path class="st0" d="M73.5,146.3c-0.4,0-0.7-0.1-1,0.2c-0.4,0.3,0.2,0.5,0.6,0.6c0.4,0,0.7,0.1,1-0.2
		C74.5,146.5,73.8,146.3,73.5,146.3z"/>
	<path class="st0" d="M72.5,147.8c-0.4,0-0.7-0.1-1,0.2c-0.4,0.3,0.2,0.5,0.6,0.6c0.4,0,0.7,0.1,1-0.2
		C73.5,148.1,72.9,147.9,72.5,147.8z"/>
	<path class="st0" d="M71.6,149.4c-0.4,0-0.7-0.1-1,0.2c-0.4,0.3,0.2,0.5,0.6,0.6c0.4,0,0.7,0.1,1-0.2
		C72.6,149.6,71.9,149.4,71.6,149.4z"/>
	<path class="st0" d="M73.9,158c-0.4,0-0.7-0.1-1,0.2c-0.4,0.3,0.2,0.5,0.6,0.6c0.4,0,0.7,0.1,1-0.2C74.9,158.2,74.3,158,73.9,158z"
		/>
	<path class="st0" d="M74.2,151.4c-0.4,0-0.7-0.1-1,0.2c-0.4,0.3,0.2,0.5,0.6,0.6c0.4,0,0.7,0.1,1-0.2
		C75.2,151.6,74.5,151.4,74.2,151.4z"/>
	<path class="st0" d="M73.2,152.9c-0.4,0-0.7-0.1-1,0.2c-0.4,0.3,0.2,0.5,0.6,0.6c0.4,0,0.7,0.1,1-0.2
		C74.2,153.2,73.6,153,73.2,152.9z"/>
	<path class="st0" d="M72.3,154.5c-0.4,0-0.7-0.1-1,0.2c-0.4,0.3,0.2,0.5,0.6,0.6c0.4,0,0.7,0.1,1-0.2
		C73.3,154.7,72.6,154.5,72.3,154.5z"/>
	<path class="st0" d="M71.3,156c-0.4,0-0.7-0.1-1,0.2c-0.4,0.3,0.2,0.5,0.6,0.6c0.4,0,0.7,0.1,1-0.2C72.3,156.3,71.7,156.1,71.3,156
		z"/>
	<path class="st0" d="M70.4,157.6c-0.4,0-0.7-0.1-1,0.2c-0.4,0.3,0.2,0.5,0.6,0.6c0.4,0,0.7,0.1,1-0.2
		C71.3,157.8,70.7,157.6,70.4,157.6z"/>
	<path class="st0" d="M70.6,150.9c-0.4,0-0.7-0.1-1,0.2c-0.4,0.3,0.2,0.5,0.6,0.6c0.4,0,0.7,0.1,1-0.2C71.6,151.2,71,151,70.6,150.9
		z"/>
	<path class="st0" d="M69.7,152.5c-0.4,0-0.7-0.1-1,0.2c-0.4,0.3,0.2,0.5,0.6,0.6c0.4,0,0.7,0.1,1-0.2
		C70.6,152.7,70,152.5,69.7,152.5z"/>
	<path class="st0" d="M68.7,154c-0.4,0-0.7-0.1-1,0.2c-0.4,0.3,0.2,0.5,0.6,0.6c0.4,0,0.7,0.1,1-0.2C69.7,154.3,69.1,154.1,68.7,154
		z"/>
	<path class="st0" d="M67.7,155.6c-0.4,0-0.7-0.1-1,0.2c-0.4,0.3,0.2,0.5,0.6,0.6c0.4,0,0.7,0.1,1-0.2
		C68.7,155.8,68.1,155.6,67.7,155.6z"/>
	<path class="st0" d="M66.8,157.1c-0.4,0-0.7-0.1-1,0.2c-0.4,0.3,0.2,0.5,0.6,0.6c0.4,0,0.7,0.1,1-0.2
		C67.8,157.4,67.2,157.2,66.8,157.1z"/>
	<path class="st0" d="M62.5,151.7c-0.4,0-0.7-0.1-1,0.2c-0.4,0.3,0.2,0.5,0.6,0.6c0.4,0,0.7,0.1,1-0.2
		C63.5,151.9,62.9,151.7,62.5,151.7z"/>
	<path class="st0" d="M63.5,150.1c-0.4,0-0.7-0.1-1,0.2c-0.4,0.3,0.2,0.5,0.6,0.6c0.4,0,0.7,0.1,1-0.2
		C64.5,150.4,63.9,150.2,63.5,150.1z"/>
	<path class="st0" d="M63.2,156.7c-0.4,0-0.7-0.1-1,0.2c-0.4,0.3,0.2,0.5,0.6,0.6c0.4,0,0.7,0.1,1-0.2
		C64.2,157,63.6,156.8,63.2,156.7z"/>
	<path class="st0" d="M64.2,155.2c-0.4,0-0.7-0.1-1,0.2c-0.4,0.3,0.2,0.5,0.6,0.6c0.4,0,0.7,0.1,1-0.2
		C65.2,155.4,64.6,155.2,64.2,155.2z"/>
	<path class="st0" d="M65.1,153.6c-0.4,0-0.7-0.1-1,0.2c-0.4,0.3,0.2,0.5,0.6,0.6c0.4,0,0.7,0.1,1-0.2
		C66.1,153.9,65.5,153.7,65.1,153.6z"/>
	<path class="st0" d="M66.1,152.1c-0.4,0-0.7-0.1-1,0.2c-0.4,0.3,0.2,0.5,0.6,0.6c0.4,0,0.7,0.1,1-0.2
		C67.1,152.3,66.5,152.1,66.1,152.1"/>
	<path class="st0" d="M67,150.5c-0.4,0-0.7-0.1-1,0.2c-0.4,0.3,0.2,0.5,0.6,0.6c0.4,0,0.7,0.1,1-0.2C68,150.8,67.4,150.6,67,150.5z"
		/>
	<path class="st0" d="M64.4,148.6c-0.4,0-0.7-0.1-1,0.2c-0.4,0.3,0.2,0.5,0.6,0.6c0.4,0,0.7,0.1,1-0.2
		C65.4,148.8,64.8,148.6,64.4,148.6z"/>
	<path class="st0" d="M65.4,147c-0.4,0-0.7-0.1-1,0.2c-0.4,0.3,0.2,0.5,0.6,0.6c0.4,0,0.7,0.1,1-0.2C66.4,147.3,65.8,147.1,65.4,147
		z"/>
	<path class="st0" d="M66.3,145.5c-0.4,0-0.7-0.1-1,0.2c-0.4,0.3,0.2,0.5,0.6,0.6c0.4,0,0.7,0.1,1-0.2
		C67.3,145.7,66.7,145.5,66.3,145.5z"/>
	<path class="st0" d="M68,149c-0.4,0-0.7-0.1-1,0.2c-0.4,0.3,0.2,0.5,0.6,0.6c0.4,0,0.7,0.1,1-0.2C69,149.2,68.4,149,68,149"/>
	<path class="st0" d="M69,147.4c-0.4,0-0.7-0.1-1,0.2c-0.4,0.3,0.2,0.5,0.6,0.6c0.4,0,0.7,0.1,1-0.2C69.9,147.7,69.3,147.5,69,147.4
		z"/>
	<path class="st0" d="M69.9,145.9c-0.4,0-0.7-0.1-1,0.2c-0.4,0.3,0.2,0.5,0.6,0.6c0.4,0,0.7,0.1,1-0.2
		C70.9,146.1,70.3,145.9,69.9,145.9z"/>
	<path class="st0" d="M70.9,144.3c-0.4,0-0.7-0.1-1,0.2c-0.4,0.3,0.2,0.5,0.6,0.6c0.4,0,0.7,0.1,1-0.2
		C71.9,144.6,71.2,144.4,70.9,144.3z"/>
	<path class="st0" d="M71.8,142.8c-0.4,0-0.7-0.1-1,0.2c-0.4,0.3,0.2,0.5,0.6,0.6c0.4,0,0.7,0.1,1-0.2
		C72.8,143,72.2,142.8,71.8,142.8z"/>
	<path class="st0" d="M61.6,153.2c-0.4,0-0.7-0.1-1,0.2c-0.4,0.3,0.2,0.5,0.6,0.6c0.4,0,0.7,0.1,1-0.2
		C62.6,153.5,62,153.3,61.6,153.2"/>
	<path class="st0" d="M168.2,165.6c-0.4,0-0.7-0.1-1,0.2c-0.4,0.3,0.2,0.5,0.6,0.6c0.4,0,0.7,0.1,1-0.2
		C169.2,165.9,168.6,165.7,168.2,165.6z"/>
	<path class="st0" d="M171.3,154.4c-0.4,0-0.7-0.1-1,0.2c-0.4,0.3,0.2,0.5,0.6,0.6c0.4,0,0.7,0.1,1-0.2
		C172.3,154.6,171.7,154.4,171.3,154.4z"/>
	<path class="st0" d="M170.4,155.9c-0.4,0-0.7-0.1-1,0.2c-0.4,0.3,0.2,0.5,0.6,0.6c0.4,0,0.7,0.1,1-0.2
		C171.4,156.2,170.8,156,170.4,155.9z"/>
	<path class="st0" d="M169.4,157.5c-0.4,0-0.7-0.1-1,0.2c-0.4,0.3,0.2,0.5,0.6,0.6c0.4,0,0.7,0.1,1-0.2
		C170.4,157.7,169.8,157.5,169.4,157.5z"/>
	<path class="st0" d="M168.5,159c-0.4,0-0.7-0.1-1,0.2c-0.4,0.3,0.2,0.5,0.6,0.6c0.4,0,0.7,0.1,1-0.2
		C169.5,159.3,168.9,159.1,168.5,159z"/>
	<path class="st0" d="M167.5,160.6c-0.4,0-0.7-0.1-1,0.2c-0.4,0.3,0.2,0.5,0.6,0.6c0.4,0,0.7,0.1,1-0.2
		C168.5,160.8,167.9,160.6,167.5,160.6z"/>
	<path class="st0" d="M173,157.9c-0.4,0-0.7-0.1-1,0.2c-0.4,0.3,0.2,0.5,0.6,0.6c0.4,0,0.7,0.1,1-0.2
		C174,158.2,173.4,157.9,173,157.9z"/>
	<path class="st0" d="M172,159.5c-0.4,0-0.7-0.1-1,0.2c-0.4,0.3,0.2,0.5,0.6,0.6c0.4,0,0.7,0.1,1-0.2
		C173,159.7,172.4,159.5,172,159.5z"/>
	<path class="st0" d="M171.1,161c-0.4,0-0.7-0.1-1,0.2c-0.4,0.3,0.2,0.5,0.6,0.6c0.4,0,0.7,0.1,1-0.2
		C172.1,161.3,171.5,161,171.1,161z"/>
	<path class="st0" d="M166.6,162.1c-0.4,0-0.7-0.1-1,0.2c-0.4,0.3,0.2,0.5,0.6,0.6c0.4,0,0.7,0.1,1-0.2
		C167.6,162.4,167,162.2,166.6,162.1z"/>
	<path class="st0" d="M165.6,163.7c-0.4,0-0.7-0.1-1,0.2c-0.4,0.3,0.2,0.5,0.6,0.6c0.4,0,0.7,0.1,1-0.2
		C166.6,163.9,166,163.7,165.6,163.7z"/>
	<path class="st0" d="M164.7,165.2c-0.4,0-0.7-0.1-1,0.2c-0.4,0.3,0.2,0.5,0.6,0.6c0.4,0,0.7,0.1,1-0.2
		C165.7,165.5,165,165.3,164.7,165.2z"/>
	<path class="st0" d="M163.7,166.8c-0.4,0-0.7-0.1-1,0.2c-0.4,0.3,0.2,0.5,0.6,0.6c0.4,0,0.7,0.1,1-0.2
		C164.7,167,164.1,166.8,163.7,166.8z"/>
	<path class="st0" d="M162.8,168.3c-0.4,0-0.7-0.1-1,0.2c-0.4,0.3,0.2,0.5,0.6,0.6c0.4,0,0.7,0.1,1-0.2
		C163.8,168.6,163.1,168.4,162.8,168.3z"/>
	<path class="st0" d="M170.1,162.6c-0.4,0-0.7-0.1-1,0.2c-0.4,0.3,0.2,0.5,0.6,0.6c0.4,0,0.7,0.1,1-0.2
		C171.1,162.8,170.5,162.6,170.1,162.6z"/>
	<path class="st0" d="M169.2,164.1c-0.4,0-0.7-0.1-1,0.2c-0.4,0.3,0.2,0.5,0.6,0.6c0.4,0,0.7,0.1,1-0.2
		C170.2,164.4,169.6,164.1,169.2,164.1z"/>
	<path class="st0" d="M159.2,167.9c-0.4,0-0.7-0.1-1,0.2c-0.4,0.3,0.2,0.5,0.6,0.6c0.4,0,0.7,0.1,1-0.2
		C160.2,168.2,159.6,168,159.2,167.9z"/>
	<path class="st0" d="M160.2,166.4c-0.4,0-0.7-0.1-1,0.2c-0.4,0.3,0.2,0.5,0.6,0.6c0.4,0,0.7,0.1,1-0.2
		C161.1,166.6,160.5,166.4,160.2,166.4z"/>
	<path class="st0" d="M161.1,164.8c-0.4,0-0.7-0.1-1,0.2c-0.4,0.3,0.2,0.5,0.6,0.6c0.4,0,0.7,0.1,1-0.2
		C162.1,165.1,161.5,164.9,161.1,164.8z"/>
	<path class="st0" d="M162.1,163.3c-0.4,0-0.7-0.1-1,0.2c-0.4,0.3,0.2,0.5,0.6,0.6c0.4,0,0.7,0.1,1-0.2
		C163.1,163.5,162.4,163.3,162.1,163.3z"/>
	<path class="st0" d="M163,161.7c-0.4,0-0.7-0.1-1,0.2c-0.4,0.3,0.2,0.5,0.6,0.6c0.4,0,0.7,0.1,1-0.2C164,162,163.4,161.8,163,161.7
		z"/>
	<path class="st0" d="M155.6,167.5c-0.4,0-0.7-0.1-1,0.2c-0.4,0.3,0.2,0.5,0.6,0.6c0.4,0,0.7,0.1,1-0.2
		C156.6,167.8,156,167.5,155.6,167.5z"/>
	<path class="st0" d="M156.6,166c-0.4,0-0.7-0.1-1,0.2c-0.4,0.3,0.2,0.5,0.6,0.6c0.4,0,0.7,0.1,1-0.2C157.6,166.2,157,166,156.6,166
		"/>
	<path class="st0" d="M157.5,164.4c-0.4,0-0.7-0.1-1,0.2c-0.4,0.3,0.2,0.5,0.6,0.6c0.4,0,0.7,0.1,1-0.2
		C158.5,164.7,157.9,164.4,157.5,164.4z"/>
	<path class="st0" d="M158.5,162.9c-0.4,0-0.7-0.1-1,0.2c-0.4,0.3,0.2,0.5,0.6,0.6c0.4,0,0.7,0.1,1-0.2
		C159.5,163.1,158.9,162.9,158.5,162.9z"/>
	<path class="st0" d="M159.5,161.3c-0.4,0-0.7-0.1-1,0.2c-0.4,0.3,0.2,0.5,0.6,0.6c0.4,0,0.7,0.1,1-0.2
		C160.4,161.6,159.8,161.3,159.5,161.3z"/>
	<path class="st0" d="M152.1,167.1c-0.4,0-0.7-0.1-1,0.2c-0.4,0.3,0.2,0.5,0.6,0.6c0.4,0,0.7,0.1,1-0.2
		C153.1,167.3,152.5,167.1,152.1,167.1z"/>
	<path class="st0" d="M164,160.2c-0.4,0-0.7-0.1-1,0.2c-0.4,0.3,0.2,0.5,0.6,0.6c0.4,0,0.7,0.1,1-0.2
		C165,160.4,164.3,160.2,164,160.2z"/>
	<path class="st0" d="M164.9,158.6c-0.4,0-0.7-0.1-1,0.2c-0.4,0.3,0.2,0.5,0.6,0.6c0.4,0,0.7,0.1,1-0.2
		C165.9,158.9,165.3,158.7,164.9,158.6z"/>
	<path class="st0" d="M165.9,157.1c-0.4,0-0.7-0.1-1,0.2c-0.4,0.3,0.2,0.5,0.6,0.6c0.4,0,0.7,0.1,1-0.2
		C166.9,157.3,166.3,157.1,165.9,157.1"/>
	<path class="st0" d="M166.8,155.5c-0.4,0-0.7-0.1-1,0.2c-0.4,0.3,0.2,0.5,0.6,0.6c0.4,0,0.7,0.1,1-0.2
		C167.8,155.8,167.2,155.6,166.8,155.5"/>
	<path class="st0" d="M167.8,154c-0.4,0-0.7-0.1-1,0.2c-0.4,0.3,0.2,0.5,0.6,0.6c0.4,0,0.7,0.1,1-0.2
		C168.8,154.2,168.2,154,167.8,154z"/>
	<path class="st0" d="M168.7,152.4c-0.4,0-0.7-0.1-1,0.2c-0.4,0.3,0.2,0.5,0.6,0.6c0.4,0,0.7,0.1,1-0.2
		C169.7,152.7,169.1,152.5,168.7,152.4z"/>
	<path class="st0" d="M160.4,159.8c-0.4,0-0.7-0.1-1,0.2c-0.4,0.3,0.2,0.5,0.6,0.6c0.4,0,0.7,0.1,1-0.2
		C161.4,160,160.8,159.8,160.4,159.8z"/>
	<path class="st0" d="M161.4,158.2c-0.4,0-0.7-0.1-1,0.2c-0.4,0.3,0.2,0.5,0.6,0.6c0.4,0,0.7,0.1,1-0.2
		C162.4,158.5,161.7,158.2,161.4,158.2z"/>
	<path class="st0" d="M162.3,156.7c-0.4,0-0.7-0.1-1,0.2c-0.4,0.3,0.2,0.5,0.6,0.6c0.4,0,0.7,0.1,1-0.2
		C163.3,156.9,162.7,156.7,162.3,156.7z"/>
	<path class="st0" d="M163.3,155.1c-0.4,0-0.7-0.1-1,0.2c-0.4,0.3,0.2,0.5,0.6,0.6c0.4,0,0.7,0.1,1-0.2
		C164.3,155.4,163.6,155.1,163.3,155.1z"/>
	<path class="st0" d="M164.2,153.6c-0.4,0-0.7-0.1-1,0.2c-0.4,0.3,0.2,0.5,0.6,0.6c0.4,0,0.7,0.1,1-0.2
		C165.2,153.8,164.6,153.6,164.2,153.6z"/>
	<path class="st0" d="M165.2,152c-0.4,0-0.7-0.1-1,0.2c-0.4,0.3,0.2,0.5,0.6,0.6c0.4,0,0.7,0.1,1-0.2
		C166.2,152.3,165.6,152.1,165.2,152z"/>
	<path class="st0" d="M160.7,153.1c-0.4,0-0.7-0.1-1,0.2c-0.4,0.3,0.2,0.5,0.6,0.6c0.4,0,0.7,0.1,1-0.2
		C161.7,153.4,161,153.2,160.7,153.1z"/>
	<path class="st0" d="M151.1,168.6c-0.4,0-0.7-0.1-1,0.2c-0.4,0.3,0.2,0.5,0.6,0.6c0.4,0,0.7,0.1,1-0.2
		C152.1,168.9,151.5,168.7,151.1,168.6z"/>
	<path class="st0" d="M154.7,169.1c-0.4,0-0.7-0.1-1,0.2c-0.4,0.3,0.2,0.5,0.6,0.6c0.4,0,0.7,0.1,1-0.2
		C155.7,169.3,155.1,169.1,154.7,169.1z"/>
	<path class="st0" d="M158.2,169.5c-0.4,0-0.7-0.1-1,0.2c-0.4,0.3,0.2,0.5,0.6,0.6c0.4,0,0.7,0.1,1-0.2
		C159.2,169.7,158.6,169.5,158.2,169.5z"/>
	<path class="st0" d="M161.6,151.6c-0.4,0-0.7-0.1-1,0.2c-0.4,0.3,0.2,0.5,0.6,0.6c0.4,0,0.7,0.1,1-0.2
		C162.6,151.8,162,151.6,161.6,151.6z"/>
	<path class="st0" d="M79.9,142.1c-0.4,0-0.7-0.1-1,0.2c-0.4,0.3,0.2,0.5,0.6,0.6c0.4,0,0.7,0.1,1-0.2
		C80.9,142.3,80.3,142.1,79.9,142.1z"/>
	<path class="st0" d="M138.2,137.1c5.1,1.4,11.3,3.9,15,8.1c4.8,5.5,2.2,10.9-3,14.6c-8.7,6.3-23.2,8.2-33.2,8.2
		c-9.9,0-24.5-1.9-33.2-8.2c-5.2-3.8-7.8-9.2-3-14.6c3.8-4.3,9.9-6.7,15-8.1"/>
	<path class="st0" d="M125.9,134.5c5.6,0.7,11.8,2.1,16.9,4.6c5.1,2.6,10.8,7.6,6.7,13.7c-1.4,2.1-3.3,3.5-5.5,4.7
		c-3,1.7-6.2,2.8-9.5,3.7c-5.8,1.5-11.5,2.1-17.4,2.1c-5.9,0-11.6-0.6-17.4-2.1c-3.3-0.9-6.4-1.9-9.3-3.6c-2.2-1.3-4.2-2.6-5.7-4.8
		c-4.1-6.1,1.6-11.1,6.7-13.7c5.1-2.6,11.3-4,16.9-4.7"/>
	<line class="st0" x1="194.2" y1="71.2" x2="198.9" y2="69.5"/>
	<path class="st0" d="M198.9,69.5c0.1,0,0.1,0,0.2,0"/>
	<path class="st0" d="M185.2,113.7c-0.7-0.1-0.8-1.4-0.8-1.8c-0.1-0.7-0.1-1.4-0.1-2.1"/>
	<line class="st0" x1="184.2" y1="109.8" x2="184.2" y2="99.1"/>
	<path class="st0" d="M184.2,99.1c0-2.6,0.3-5.1,1.2-7.6"/>
	<line class="st0" x1="185.3" y1="91.6" x2="190.1" y2="77.8"/>
	<path class="st0" d="M190.1,77.8c0.4-1.3,2-6.3,4.1-6.7"/>
	<path class="st0" d="M35.5,57.3c-2.5,4-3.9,12.5-4.3,16.9C31,77,30.8,79.9,31,82.9c0.1,1.5,0.2,2.9,0.5,4.4c0.2,0.9,0.6,3.5,2,3.6"
		/>
	<path class="st0" d="M37.5,55.7c-0.9-0.1-1.6,1-2,1.6"/>
	<line class="st0" x1="35.3" y1="57.6" x2="28.9" y2="67.2"/>
	<path class="st0" d="M202.5,69.9c0.4-0.1,0.6,0.3,0.8,0.6c0.1,0.3,0.2,0.7,0.3,1.1c0.1,0.7,0.1,1.4,0.1,2.2"/>
	<line class="st0" x1="197.8" y1="71.6" x2="202.5" y2="69.9"/>
	<path class="st0" d="M193.7,78.2c0.4-1.3,2-6.3,4.1-6.7"/>
	<line class="st0" x1="188.9" y1="92" x2="193.7" y2="78.2"/>
	<path class="st0" d="M187.8,99.6c0-2.6,0.3-5.1,1.2-7.6"/>
	<line class="st0" x1="187.8" y1="110.2" x2="187.8" y2="99.6"/>
	<path class="st0" d="M188.9,114.1c-0.4,0.1-0.6-0.3-0.8-0.6c-0.1-0.3-0.2-0.7-0.3-1.1c-0.1-0.7-0.1-1.4-0.1-2.2"/>
	<line class="st0" x1="193.7" y1="112.4" x2="188.9" y2="114.1"/>
	<path class="st0" d="M197.8,105.7c-0.4,1.3-2,6.3-4.1,6.7"/>
	<line class="st0" x1="202.5" y1="92" x2="197.8" y2="105.7"/>
	<path class="st0" d="M203.7,84.4c0,2.6-0.3,5.1-1.2,7.6"/>
	<line class="st0" x1="203.7" y1="73.7" x2="203.7" y2="84.4"/>
	<path class="st0" d="M195.8,77.7c-2.4,3.8-3.6,12-3.9,16.2c-0.2,2.8-0.3,5.6,0,8.4c0.1,1.4,0.3,2.8,0.9,4.1c0.8,1.9,2,1.5,3-0.1"/>
	<path class="st0" d="M195.8,77.7c1-1.6,2.1-2.1,3-0.1c0.6,1.3,0.7,2.7,0.9,4.1c0.3,2.8,0.2,5.6,0,8.4c-0.3,4.2-1.5,12.4-3.9,16.2"
		/>
	<path class="st0" d="M28.9,67.3C28.9,67.2,28.9,67.2,28.9,67.3"/>
	<path class="st0" d="M27.7,77.7c-0.7-2.4-0.2-8.3,1.2-10.5"/>
</g>
</svg>
