<?xml version="1.0" encoding="utf-8"?>
<!-- Generator: Adobe Illustrator 16.0.4, SVG Export Plug-In . SVG Version: 6.00 Build 0)  -->
<!DOCTYPE svg PUBLIC "-//W3C//DTD SVG 1.1//EN" "http://www.w3.org/Graphics/SVG/1.1/DTD/svg11.dtd">
<svg version="1.1" id="Layer_1" xmlns="http://www.w3.org/2000/svg" xmlns:xlink="http://www.w3.org/1999/xlink" x="0px" y="0px"
	 width="360px" height="50px" viewBox="0 9.023 360 50" enable-background="new 0 9.023 360 50" xml:space="preserve">
<g>
	<path fill="#231F20" d="M43.748,25.752h5.778c1.45,0,2.549,0.371,3.295,1.119c0.746,0.748,1.118,1.705,1.118,2.879
		c0,0.612-0.151,1.204-0.449,1.767c-0.3,0.565-0.886,1.044-1.747,1.432v0.045c0.781,0.18,1.373,0.589,1.777,1.223
		c0.405,0.628,0.624,1.313,0.648,2.052c0,0.013,0,0.034,0,0.063c0,0.028,0,0.056,0,0.084c0,1.284-0.411,2.308-1.234,3.076
		c-0.823,0.768-1.791,1.152-2.907,1.152h-6.28L43.748,25.752L43.748,25.752z M46.009,27.762v4.27h3.265
		c0.823,0,1.43-0.209,1.82-0.629c0.391-0.417,0.588-0.92,0.588-1.506c0-0.571-0.197-1.072-0.588-1.497
		c-0.391-0.426-0.998-0.638-1.82-0.638H46.009z M46.009,34.037v4.473h3.476c0.837,0,1.451-0.229,1.838-0.682
		c0.391-0.452,0.588-0.975,0.588-1.56c0-0.584-0.199-1.106-0.588-1.554c-0.388-0.45-1.003-0.676-1.838-0.676h-3.476V34.037z"/>
	<path fill="#231F20" d="M56.829,25.752h2.26v14.893h-2.26V25.752z"/>
	<path fill="#231F20" d="M62.562,30.001c0.072-0.558,0.197-1.019,0.38-1.383c0.026-0.055,0.054-0.108,0.081-0.158
		c0.029-0.048,0.057-0.099,0.084-0.155c0.016-0.044,0.034-0.081,0.065-0.116c0.027-0.034,0.048-0.072,0.063-0.115
		c0.392-0.614,0.97-1.176,1.738-1.687c0.764-0.509,1.7-0.763,2.803-0.763s2.038,0.256,2.806,0.763
		c0.767,0.511,1.344,1.073,1.738,1.687c0.012,0.042,0.035,0.081,0.06,0.115c0.03,0.036,0.048,0.072,0.064,0.116
		c0.028,0.055,0.054,0.107,0.084,0.155c0.028,0.05,0.053,0.103,0.083,0.158c0.18,0.364,0.308,0.825,0.377,1.383
		c0.069,0.559,0.104,1.625,0.104,3.2c0,1.558-0.034,2.62-0.104,3.182c-0.07,0.566-0.196,1.03-0.377,1.393
		c-0.029,0.055-0.054,0.11-0.083,0.156c-0.03,0.049-0.056,0.103-0.084,0.157c-0.016,0.041-0.034,0.081-0.064,0.115
		c-0.025,0.035-0.049,0.073-0.06,0.116c-0.394,0.615-0.971,1.171-1.738,1.673c-0.768,0.504-1.703,0.756-2.806,0.756
		s-2.039-0.252-2.803-0.756c-0.767-0.502-1.346-1.058-1.738-1.673c-0.014-0.043-0.035-0.082-0.063-0.116
		c-0.03-0.034-0.048-0.074-0.065-0.115c-0.026-0.056-0.055-0.108-0.084-0.157c-0.026-0.045-0.054-0.101-0.081-0.156
		c-0.183-0.361-0.308-0.827-0.38-1.393c-0.068-0.562-0.1-1.625-0.1-3.182C62.462,31.625,62.494,30.56,62.562,30.001z M64.847,35.957
		c0.082,0.486,0.227,0.893,0.438,1.214c0.028,0.04,0.056,0.082,0.093,0.126c0.036,0.04,0.068,0.083,0.094,0.125
		c0.237,0.29,0.548,0.548,0.932,0.764c0.384,0.218,0.841,0.325,1.37,0.325c0.532,0,0.991-0.107,1.384-0.325
		c0.388-0.216,0.697-0.471,0.921-0.764c0.027-0.042,0.056-0.084,0.091-0.125c0.035-0.044,0.069-0.086,0.094-0.126
		c0.21-0.321,0.356-0.728,0.44-1.214c0.084-0.489,0.124-1.405,0.124-2.756c0-1.354-0.041-2.273-0.124-2.763
		c-0.084-0.489-0.231-0.894-0.44-1.214c-0.025-0.041-0.06-0.084-0.094-0.126c-0.035-0.042-0.065-0.083-0.091-0.124
		c-0.223-0.294-0.533-0.549-0.921-0.764c-0.393-0.218-0.852-0.324-1.384-0.324c-0.529,0-0.985,0.106-1.37,0.324
		c-0.383,0.214-0.694,0.47-0.932,0.764c-0.026,0.041-0.057,0.083-0.094,0.124c-0.037,0.043-0.064,0.086-0.093,0.126
		c-0.211,0.32-0.356,0.725-0.438,1.214c-0.086,0.488-0.127,1.409-0.127,2.763C64.72,34.551,64.76,35.467,64.847,35.957z"/>
	<path fill="#231F20" d="M76.461,25.752h5.816c0.629,0,1.193,0.076,1.697,0.229c0.502,0.152,0.949,0.404,1.337,0.754
		c0.421,0.349,0.771,0.8,1.058,1.352c0.287,0.55,0.429,1.16,0.429,1.829c0,0.962-0.254,1.812-0.762,2.544
		c-0.51,0.732-1.219,1.26-2.126,1.579l3.455,6.607h-2.681l-3.076-6.358H78.72v6.358h-2.261V25.752H76.461z M78.721,32.28h3.41
		c0.851,0,1.488-0.235,1.903-0.708c0.421-0.474,0.631-1.028,0.631-1.654c0-0.392-0.067-0.731-0.199-1.016
		c-0.133-0.285-0.32-0.514-0.556-0.679c-0.208-0.156-0.439-0.27-0.688-0.346c-0.252-0.078-0.576-0.115-0.964-0.115h-3.536V32.28
		L78.721,32.28z"/>
	<path fill="#231F20" d="M89.959,25.752h9.521v2.135h-7.263v4.248h6.197v2.007h-6.197v4.368h7.263v2.136h-9.521V25.752z"/>
	<path fill="#231F20" d="M109.967,37.316h-5.65l-1.149,3.329h-2.387l5.42-14.893h1.885l5.421,14.893h-2.387L109.967,37.316z
		 M109.318,35.306l-2.156-6.497h-0.04l-2.157,6.497H109.318z"/>
	<path fill="#231F20" d="M115.825,25.752h2.262V38.51h7.262v2.135h-9.523V25.752z"/>
	<path fill="#231F20" d="M128.195,25.752h2.261v14.893h-2.261V25.752z"/>
	<path fill="#231F20" d="M133.428,38.759l6.757-10.997h-6.487v-2.01h9.251v1.694l-6.78,11.063h6.78v2.136h-9.521V38.759
		L133.428,38.759z"/>
	<path fill="#231F20" d="M145.918,25.752h9.526v2.135h-7.267v4.248h6.198v2.007h-6.198v4.368h7.267v2.136h-9.526V25.752z"/>
	<path fill="#231F20" d="M166.504,27.565h1.361v26.16h-1.361V27.565z"/>
	<path fill="#231F20" d="M175.969,44.553h1.315c0.137,0.367,0.175,0.695,0.193,1.26c0.561-1.024,1.412-1.512,2.651-1.512
		c1.275,0,2.07,0.507,2.534,1.605c0.618-1.08,1.531-1.605,2.826-1.605c1.102,0,1.956,0.428,2.36,1.182
		c0.308,0.544,0.348,0.871,0.348,2.633v5.609h-1.333v-5.609c0-2.033-0.389-2.613-1.8-2.613c-1.45,0-2.187,0.949-2.187,2.806v5.417
		h-1.355v-5.4v-0.539c0-1.644-0.481-2.284-1.76-2.284c-1.455,0-2.203,0.983-2.203,2.882v5.342h-1.357v-6.326v-0.468
		C176.198,45.481,176.16,45.232,175.969,44.553z"/>
	<path fill="#231F20" d="M191.857,40.647h0.059c0.563,0,0.97,0.425,0.97,1.005c0,0.562-0.407,0.967-0.988,0.967
		c-0.56,0-0.989-0.404-0.989-0.967C190.908,41.112,191.319,40.647,191.857,40.647z M191.181,44.553h1.43v9.172h-1.43V44.553z"/>
	<path fill="#231F20" d="M202.287,47.534h-1.332c-0.251-1.489-0.812-2.072-1.993-2.072c-1.529,0-2.46,1.394-2.46,3.677
		c0,2.303,0.933,3.676,2.499,3.676c1.218,0,1.857-0.718,2.014-2.242h1.353c-0.173,2.203-1.353,3.38-3.367,3.38
		c-2.362,0-3.887-1.893-3.887-4.793c0-2.979,1.504-4.859,3.887-4.859C200.934,44.301,202.094,45.442,202.287,47.534z"/>
	<path fill="#231F20" d="M204.711,44.553h1.298c0.114,0.464,0.172,0.949,0.172,1.413c0,0.137-0.018,0.309-0.036,0.559
		c0.654-1.525,1.392-2.226,2.381-2.226c0.348,0,0.729,0.101,1.118,0.295v1.351c-0.615-0.29-0.868-0.367-1.219-0.367
		c-0.734,0-1.37,0.504-1.776,1.412c-0.289,0.64-0.407,1.412-0.407,2.63v4.103h-1.373v-6.014v-0.622
		C204.869,45.617,204.85,45.385,204.711,44.553z"/>
	<path fill="#231F20" d="M210.831,49.138c0-2.863,1.638-4.839,4.001-4.839c2.357,0,4.003,1.976,4.003,4.839
		c0,2.846-1.646,4.814-4.003,4.814C212.469,53.953,210.831,51.984,210.831,49.138z M212.219,49.138c0,2.187,1.045,3.653,2.613,3.653
		c1.566,0,2.612-1.467,2.612-3.653c0-2.207-1.046-3.675-2.612-3.675C213.264,45.463,212.219,46.933,212.219,49.138z"/>
	<path fill="#231F20" d="M221.32,40.764h1.354v5.125c0.692-1.102,1.488-1.588,2.63-1.588c2.105,0,3.561,1.938,3.561,4.801
		c0,2.92-1.493,4.853-3.718,4.853c-1.14,0-1.895-0.441-2.528-1.527c0,0.099,0,0.157,0,0.217c0,0.362-0.044,0.716-0.157,1.081h-1.296
		c0.136-0.542,0.155-0.988,0.155-2.591L221.32,40.764L221.32,40.764z M225.129,45.481c-1.468,0-2.479,1.473-2.479,3.68
		c0,2.185,0.95,3.614,2.4,3.614c1.471,0,2.417-1.43,2.417-3.675C227.469,46.873,226.58,45.481,225.129,45.481z"/>
	<path fill="#231F20" d="M232.02,40.647h0.059c0.558,0,0.97,0.425,0.97,1.005c0,0.562-0.414,0.967-0.992,0.967
		c-0.557,0-0.982-0.404-0.982-0.967C231.073,41.112,231.482,40.647,232.02,40.647z M231.343,44.553h1.431v9.172h-1.431V44.553z"/>
	<path fill="#231F20" d="M236.975,46.954h-1.355c0.197-1.722,1.396-2.654,3.449-2.654c1.484,0,2.571,0.564,2.918,1.512
		c0.177,0.486,0.212,0.907,0.212,2.069v3.425c0,1.509,0.021,1.779,0.25,2.419h-1.291c-0.136-0.484-0.159-0.64-0.193-1.239
		c-0.544,0.986-1.435,1.468-2.693,1.468c-1.8,0-2.959-1.022-2.959-2.628c0-1.294,0.738-2.243,2.126-2.766
		c0.832-0.309,1.778-0.58,3.137-0.755l0.287-0.036v-0.406c0-1.374-0.499-1.92-1.854-1.92
		C237.81,45.442,237.168,45.929,236.975,46.954z M240.864,48.753c-3.072,0.56-4.158,1.196-4.158,2.476
		c0,0.95,0.714,1.607,1.779,1.607c1.025,0,1.88-0.583,2.186-1.474c0.135-0.423,0.193-0.949,0.193-1.681V48.753z"/>
	<path fill="#231F20" d="M245.223,40.764h1.43v12.961h-1.43V40.764z"/>
	<path fill="#231F20" d="M261.712,40.764v10.251c0,1.629,0.038,2.168,0.193,2.71h-1.336c-0.095-0.366-0.135-0.64-0.135-0.988
		c0-0.094,0-0.174,0-0.329c-0.637,1.104-1.391,1.545-2.571,1.545c-2.228,0-3.679-1.856-3.679-4.736c0-2.941,1.451-4.917,3.601-4.917
		c1.179,0,1.951,0.468,2.591,1.549v-5.086L261.712,40.764L261.712,40.764z M257.995,45.481c-1.489,0-2.416,1.414-2.416,3.68
		c0,2.225,0.928,3.614,2.401,3.614c1.486,0,2.413-1.409,2.413-3.637C260.394,46.897,259.467,45.481,257.995,45.481z"/>
	<path fill="#231F20" d="M271.852,49.369h-6.246c0.059,2.246,0.987,3.422,2.648,3.422c1.007,0,1.608-0.384,2.13-1.391l1.258,0.155
		c-0.562,1.587-1.722,2.397-3.408,2.397c-2.456,0-4.021-1.835-4.021-4.718c0-2.999,1.547-4.938,3.949-4.938
		c2.244,0,3.713,1.842,3.713,4.685C271.875,49.061,271.875,49.2,271.852,49.369z M270.458,48.308
		c-0.155-1.857-0.984-2.866-2.36-2.866c-1.332,0-2.181,0.988-2.452,2.866H270.458z"/>
	<path fill="#231F20" d="M280.436,47.07h-1.319c-0.137-1.123-0.718-1.644-1.879-1.644c-1.044,0-1.759,0.562-1.759,1.371
		c0,0.757,0.388,1.029,2.149,1.55c1.646,0.485,2.183,0.773,2.572,1.335c0.246,0.386,0.389,0.871,0.389,1.411
		c0,1.76-1.282,2.859-3.329,2.859c-2.209,0-3.465-1.1-3.465-3.057v-0.018h1.316c0.114,1.316,0.812,1.955,2.123,1.955
		c1.205,0,1.958-0.639,1.958-1.627c0-0.909-0.234-1.062-2.628-1.799c-1.781-0.562-2.457-1.236-2.457-2.516
		c0-1.547,1.273-2.595,3.151-2.595C279.213,44.301,280.334,45.291,280.436,47.07z"/>
	<path fill="#231F20" d="M283.703,40.647h0.061c0.559,0,0.966,0.425,0.966,1.005c0,0.562-0.408,0.967-0.987,0.967
		c-0.558,0-0.989-0.404-0.989-0.967C282.754,41.112,283.164,40.647,283.703,40.647z M283.026,44.553h1.431v9.172h-1.431V44.553z"/>
	<path fill="#231F20" d="M295.003,44.553v1.026l-1.877-0.04c0.506,0.466,0.797,1.26,0.797,2.091c0,1.041-0.427,1.877-1.162,2.26
		c-0.441,0.254-0.964,0.428-1.818,0.605c-1.546,0.325-1.952,0.541-1.952,1.004c0,0.389,0.194,0.467,1.839,0.618
		c2.013,0.192,2.606,0.329,3.209,0.794c0.559,0.426,0.911,1.142,0.911,1.914c0,1.762-1.586,2.843-4.161,2.843
		c-2.518,0-4.139-1.042-4.139-2.651c0-1.103,0.579-1.777,1.937-2.261c-0.698-0.271-0.99-0.577-0.99-1.064
		c0-0.618,0.447-1.025,1.644-1.471c-1.236-0.502-1.814-1.353-1.814-2.651c0-1.897,1.328-3.133,3.363-3.133
		c0.505,0,0.892,0.059,1.429,0.214L295.003,44.553z M290.673,53.359c-1.742,0-2.786,0.577-2.786,1.586
		c0,0.965,1.159,1.604,2.919,1.604c1.744,0,2.808-0.618,2.808-1.604C293.614,53.899,292.586,53.359,290.673,53.359z M290.69,45.523
		c-1.135,0-1.966,0.849-1.966,2.012c0,1.137,0.788,1.895,1.966,1.895c1.184,0,1.953-0.758,1.953-1.895
		C292.642,46.354,291.852,45.523,290.69,45.523z"/>
	<path fill="#231F20" d="M296.806,44.553h1.305c0.153,0.447,0.174,0.695,0.174,1.336c0.618-1.062,1.564-1.588,2.802-1.588
		c1.953,0,2.925,1.086,2.925,3.271v0.89v5.263h-1.358v-5.184v-0.658c0-1.623-0.582-2.381-1.837-2.381
		c-1.548,0-2.436,1.144-2.436,3.096v5.128h-1.36v-6.054v-0.681C297.021,45.502,297.008,45.348,296.806,44.553z"/>
	<path fill="#231F20" d="M317.714,47.07h-1.316c-0.133-1.123-0.713-1.644-1.875-1.644c-1.043,0-1.76,0.562-1.76,1.371
		c0,0.757,0.385,1.029,2.146,1.55c1.645,0.485,2.188,0.773,2.576,1.335c0.249,0.386,0.384,0.871,0.384,1.411
		c0,1.76-1.275,2.859-3.33,2.859c-2.203,0-3.465-1.1-3.465-3.057v-0.018h1.319c0.113,1.316,0.813,1.955,2.128,1.955
		c1.199,0,1.952-0.639,1.952-1.627c0-0.909-0.232-1.062-2.628-1.799c-1.781-0.562-2.46-1.236-2.46-2.516
		c0-1.547,1.274-2.595,3.152-2.595C316.495,44.301,317.615,45.291,317.714,47.07z"/>
	<path fill="#231F20" d="M322.171,44.553h2.184l-0.021,1.103h-2.186l-0.095,4.646v0.696v0.211c0,1.199,0.21,1.509,1.025,1.509
		c0.402,0,0.865-0.096,1.334-0.31l-0.017,1.197c-0.582,0.214-1.049,0.31-1.633,0.31c-1.509,0-2.127-0.614-2.127-2.183
		c0-0.233,0.022-0.484,0.022-0.756c0.018-0.289,0.018-0.522,0.018-0.714l0.117-4.606h-1.37l0.022-1.103h1.388l0.059-2.648h1.316
		L322.171,44.553z"/>
	<path fill="#231F20" d="M326.548,44.553h1.333v5.609c0,1.899,0.522,2.596,1.892,2.596c0.894,0,1.647-0.485,1.996-1.317
		c0.177-0.404,0.252-0.908,0.252-1.684v-5.204h1.352v6.384v0.776c0,1.198,0.022,1.391,0.216,2.012h-1.319
		c-0.151-0.426-0.189-0.696-0.189-1.221c-0.543,1.025-1.281,1.448-2.462,1.448c-1.391,0-2.53-0.711-2.885-1.835
		c-0.15-0.503-0.188-0.909-0.188-1.955v-5.609H326.548z"/>
	<path fill="#231F20" d="M343.383,40.764v10.251c0,1.629,0.035,2.168,0.191,2.71h-1.339c-0.092-0.366-0.132-0.64-0.132-0.988
		c0-0.094,0-0.174,0-0.329c-0.638,1.104-1.392,1.545-2.57,1.545c-2.224,0-3.677-1.856-3.677-4.736c0-2.941,1.453-4.917,3.598-4.917
		c1.181,0,1.958,0.468,2.592,1.549v-5.086L343.383,40.764L343.383,40.764z M339.667,45.481c-1.491,0-2.417,1.414-2.417,3.68
		c0,2.225,0.926,3.614,2.396,3.614c1.493,0,2.418-1.409,2.418-3.637C342.065,46.897,341.14,45.481,339.667,45.481z"/>
	<path fill="#231F20" d="M347.101,40.647h0.062c0.559,0,0.966,0.425,0.966,1.005c0,0.562-0.41,0.967-0.99,0.967
		c-0.559,0-0.985-0.404-0.985-0.967C346.153,41.112,346.562,40.647,347.101,40.647z M346.428,44.553h1.431v9.172h-1.431V44.553z"/>
	<path fill="#231F20" d="M350.357,49.138c0-2.863,1.642-4.839,4.005-4.839c2.358,0,4.003,1.976,4.003,4.839
		c0,2.846-1.645,4.814-4.003,4.814C351.998,53.953,350.357,51.984,350.357,49.138z M351.744,49.138c0,2.187,1.047,3.653,2.618,3.653
		c1.566,0,2.607-1.467,2.607-3.653c0-2.207-1.041-3.675-2.607-3.675C352.791,45.463,351.744,46.933,351.744,49.138z"/>
</g>
<g id="bw0nhp_5_">
	<g>
		<path fill="#231F20" d="M10.767,35.571c-0.03,0.236-0.06,0.482-0.085,0.721l-0.011,0.007c0.046,0.059,0.089,0.122,0.13,0.194
			l-0.018-0.022c0.046,0.03,0.088,0.056,0.123,0.081c-0.034,0.108-0.071,0.215-0.109,0.321l-0.007,0.007
			c0.04,0.064,0.082,0.129,0.126,0.201l-0.011-0.007c-0.006,0.067-0.009,0.135-0.022,0.205l0.022-0.021
			c-0.058,0.253-0.104,0.513-0.16,0.802c0.8-0.232,1.669,0.504,1.887,1.287c0.434,1.601,0.816,3.21,1.31,4.784
			c0.198,0.621,0.609,1.184,0.972,1.744c0.062,0.104,0.416,0.151,0.505,0.069c0.758-0.604,1.512-1.235,1.722-2.251
			c0.045-0.23-0.033-0.475-0.033-0.718c-0.011-0.5-0.002-0.999-0.002-1.519c0.162-0.023,0.293-0.042,0.424-0.054l-0.016-0.014
			c0.002,0.044,0.012,0.091,0.024,0.143c0.062,0.11,0.125,0.223,0.188,0.336h-0.018c0.062-0.011,0.123-0.036,0.181-0.048
			c0.04,0.037,0.083,0.079,0.121,0.118c0.061,0.055,0.124,0.104,0.185,0.162h-0.02c0.084-0.011,0.173-0.02,0.252-0.033h-0.022
			c0.085,0,0.169,0,0.25,0h-0.021c0.087,0.007,0.173,0.015,0.256,0.016l-0.02-0.009c0.059-0.046,0.126-0.091,0.184-0.136
			c0.096,0.009,0.199,0.021,0.297,0.028l-0.017-0.015c0.06-0.006,0.126-0.006,0.189-0.014c0.075,0.028,0.148,0.061,0.224,0.09
			l-0.003,0.015c-0.008-0.049-0.023-0.098-0.029-0.146c0.083,0.22,0.164,0.44,0.314,0.852c0.099-0.55,0.169-0.956,0.238-1.361
			c0.075,0,0.15-0.006,0.223-0.006c0.035,0.266,0.068,0.535,0.109,0.839c0.094,0.058,0.234,0.144,0.443,0.27
			c0.178-0.953,0.901-1.037,1.663-1.01c0.089-0.45,0.282-0.514,0.642-0.278c0.084,0.057,0.239,0,0.363,0.019
			c0.716,0.08,1.437,0.162,2.299,0.26c-0.448,0.499-0.831,0.923-1.304,1.447c-0.11-0.314-0.16-0.455-0.209-0.595
			c-0.037,0.007-0.078,0.021-0.12,0.021c0.036,0.225,0.083,0.453,0.12,0.691c1.003-0.066,1.239-0.985,1.854-1.504
			c0.413,0.864,0.119,1.628-0.099,2.395c-0.034,0.107-0.097,0.212-0.134,0.324c-0.271,0.761-0.548,0.922-1.351,0.793
			c-0.18-0.032-0.365-0.041-0.558-0.059c-0.031-0.062-0.06-0.119-0.091-0.18c0,0.005,0.02,0.005,0.02,0.005
			c-0.074,0.051-0.143,0.101-0.215,0.16l0.004-0.006c-0.33-0.087-0.653-0.164-0.979-0.248c0.138-0.314,0.266-0.594,0.387-0.876
			c0.04-0.102,0.065-0.208,0.13-0.403c-0.699,0.258-1.317,0.489-1.938,0.716c-0.153-0.761-0.793-0.109-1.135-0.494
			c0.076-0.173,0.177-0.402,0.3-0.672c-0.569,0.185-0.849,0.441-0.66,1.092c0.253,0.857,0.554,1.643,1.223,2.26
			c0.576,0.526,1.231,0.785,2.002,0.812c-1.154-0.07-2.318-0.062-3.458-0.243c-1.118-0.175-1.83-0.981-2.322-1.971
			c-0.941,0.473-1.716,1.381-1.454,1.803c-0.701-0.146-0.944,0.405-1.32,0.77c-0.167,0.178-0.434,0.265-0.657,0.39
			c-0.085-0.223-0.237-0.447-0.237-0.671c-0.009-0.536-0.303-0.703-0.806-0.741c-0.361,0.929-0.698,1.884-1.083,2.815
			c-0.451,1.094-1.051,2.068-2.295,2.41c-0.118,0-0.231,0-0.353,0c-0.801-0.564-1.242-1.382-1.311-2.321
			c-0.095-1.202-0.088-2.412-0.078-3.621c0.012-1.115-0.004-2.249,0.157-3.348c0.094-0.611,0.525-1.168,0.806-1.745
			c-0.292,0.577-0.257,0.653,0.317,0.733c-0.844,0.41-0.773,1.248-0.812,1.959c-0.086,1.642-0.135,3.28-0.064,4.93
			c0.037,0.792,0.326,1.607,0.627,2.358c0.253,0.617,0.832,0.715,1.317,0.262c0.429-0.402,0.812-0.891,1.053-1.411
			c0.448-0.958,0.796-1.961,1.133-2.96c0.068-0.194-0.024-0.521-0.162-0.697c-0.648-0.823-1.186-1.678-1.186-2.785
			c0-0.237-0.119-0.467-0.213-0.807c0.534,0.137,0.968,0.258,1.408,0.362c0.528,0.118,0.641,0,0.514-0.511
			c-0.222-0.879-0.428-1.762-0.653-2.638c-0.19-0.749-1.257-1.21-1.965-0.905c-0.726,0.314-1.474,0.561-2.206,0.847
			c-0.364,0.146-0.513,0.069-0.56-0.35c-0.08-0.806-0.246-1.595-0.332-2.396c-0.01-0.127,0.156-0.36,0.299-0.41
			c0.747-0.288,1.513-0.538,2.281-0.794c0.328-0.104,0.657-0.177,1.008-0.269c0.046,0.141,0.083,0.262,0.125,0.384L10.767,35.571z"
			/>
		<path fill="#231F20" d="M26.86,31.947c-0.82,0.729-1.636,1.462-2.446,2.191c-0.065,0.06-0.105,0.148-0.158,0.217
			c-0.053-0.213-0.111-0.421-0.207-0.809c-0.241,0.242-0.421,0.424-0.602,0.603c-0.169,0.166-0.335,0.336-0.504,0.505
			c-0.05-0.031-0.104-0.06-0.158-0.093c0.081-0.666-0.172-1.076-0.838-1.193c-0.121-0.022-0.233-0.127-0.342-0.197
			c-0.552-0.34-1.52,0.043-1.747,0.698c-0.589,0.012-0.725,0.487-0.88,0.907c-0.176,0.476-0.252,0.977,0.151,1.402
			c0.105,0.11,0.228,0.203,0.341,0.306c-0.6-0.184-0.941-0.68-0.991-1.329c-0.012-0.223-0.095-0.479-0.22-0.663
			c-0.74-1.13-0.581-2.221,0.475-3.104c0,0.267,0,0.529,0,0.793c-0.032-0.031-0.069-0.054-0.105-0.076
			c0.396-0.672,0.787-1.347,1.219-2.076c-0.208-0.137-0.536-0.321-0.825-0.555c-0.491-0.38-0.763-0.87-0.783-1.531
			c-0.026-0.899-0.185-1.794-0.203-2.694c-0.013-0.839,0.504-1.417,1.154-1.892c0.203-0.154,0.545-0.251,0.387-0.639l-0.014,0.007
			c0.224,0.037,0.439,0.08,0.638,0.11c-0.033,1.035-0.044,2.057,0.371,3.026c-0.44,0.375-0.948,0.784-1.415,1.222
			c-0.471,0.447-0.755,1.068-0.408,1.626c0.321,0.499,0.879,0.876,1.392,1.226c0.125,0.088,0.469-0.144,0.628-0.196
			c0.059,0.953,0.122,1.938,0.194,3.056c0.373-0.146,0.708-0.251,1.019-0.397c0.528-0.246,0.982-0.407,1.62-0.146
			C24.695,32.707,25.807,32.434,26.86,31.947z"/>
		<path fill="#231F20" d="M22.539,37.518c1.235,0,2.468,0,3.818,0c-0.124,0.252-0.164,0.339-0.215,0.444
			c0.803,0.527,1.608,1.052,2.419,1.566c0.149,0.088,0.397,0.146,0.529,0.083c1.458-0.725,3.042-1.274,4.182-2.511
			c0.947-1.036,1.435-2.238,0.88-3.642c-0.557-1.42-1.69-2.088-3.137-2.169c-0.518-0.031-1.07,0.244-1.583,0.438
			c-0.581,0.218-1.136,0.298-1.75,0.146c-0.258-0.063-0.553,0.053-0.836,0.087c-0.479-0.112-0.945-0.409-1.38,0.181
			c-0.122,0.166-0.564,0.099-0.915,0.148c-0.059-0.938-0.117-1.79-0.167-2.54c0.663,0.516,1.317,1.078,2.028,1.533
			c0.228,0.146,0.636,0.004,0.96-0.011c0.004,0,0.013-0.002,0.021-0.002c0.056-0.01,0.137-0.05,0.165-0.022
			c0.696,0.566,1.4,0.271,1.986-0.099c1.407-0.884,4.177,0.072,4.958,1.949c0.672,1.623,0.151,3.749-1.331,4.75
			c-1.153,0.778-2.41,1.437-3.66,2.084c-0.405,0.216-0.931,0.178-1.383,0.32c-0.474,0.146-0.916,0.369-1.412,0.579
			c-1.004-0.475-1.811-1.547-3.341-1.607C23.158,38.786,22.849,38.149,22.539,37.518z"/>
		<path fill="#231F20" d="M10.48,30.21c-0.044,0.261-0.089,0.524-0.138,0.782c0.026,0.016,0.046,0.039,0.072,0.056
			c0.108-0.194,0.223-0.38,0.33-0.574c1.703,0.864,2.121,2.211,1.07,3.385c-0.681-0.703-1.545-1.033-2.478-1.205
			c-0.21-0.042-0.486,0.105-0.682,0.234c-0.653,0.441-1.363,0.586-2.132,0.556c-0.745-0.021-1.064-0.33-1.128-1.055
			c-0.067-0.727-0.153-1.444-0.176-2.205c0.5,0.648,1.139,0.76,1.845,0.559c0.2-0.063,0.338-0.272,0.528-0.382
			c0.149-0.09,0.327-0.13,0.525-0.206c-0.072-0.089-0.137-0.171-0.295-0.377c0.367,0.096,0.615,0.162,1.031,0.269
			c0.198-0.211,0.538-0.584,0.884-0.938c0.131-0.13,0.299-0.219,0.453-0.326c0.047,0.002,0.097,0.015,0.149,0.02
			c-0.017,0.062-0.03,0.129-0.045,0.192v-0.018c0.013,0.079,0.023,0.166,0.036,0.247l-0.021-0.017
			c0.007,0.089,0.011,0.168,0.014,0.253l-0.014-0.019c0.007,0.079,0.011,0.168,0.021,0.254l-0.021-0.021
			c0.007,0.086,0.011,0.169,0.014,0.251l-0.014-0.022c0.007,0.087,0.011,0.169,0.014,0.253l-0.014-0.018
			C10.368,30.165,10.424,30.186,10.48,30.21z"/>
		<path fill="#231F20" d="M2.759,25.903c0.458,0.898,1.113,1.128,2.458,0.832c0-0.336,0-0.669,0-0.933
			c-0.291-0.175-0.586-0.363-0.878-0.539c0.027-0.062,0.06-0.119,0.086-0.184c0.181,0,0.361,0,0.599,0
			c-0.1-0.118-0.177-0.216-0.296-0.359c1.419-0.499,2.785-0.524,4.064,0.291c1.007,0.648,1.348,1.648,1.186,2.902
			c-0.466-0.718-1.115-1.102-1.837-1.306c-0.738-0.199-1.508-0.257-2.35,0.039c0.462,0.291,1.123-0.232,1.371,0.555
			c-0.292,0.095-0.601,0.163-0.878,0.297c-0.642,0.312-1.257,0.661-1.895,0.989c-0.657,0.339-0.865,0.237-1.047-0.478
			c-0.123-0.488-0.311-0.955-0.452-1.438C2.829,26.355,2.806,26.128,2.759,25.903z"/>
		<path fill="#231F20" d="M27.394,31.272c-0.007,0-0.016,0.001-0.021,0.001c-0.22,0-0.439,0-0.726,0
			c0.199-0.975,0.228-1.831-0.204-2.658c-0.442-0.854-1.127-1.333-2.068-1.443c0.163-0.627,0.51-0.914,1.133-0.943
			c1.14-0.067,2.304,0.98,2.559,2.199C28.285,29.5,27.915,30.394,27.394,31.272z"/>
		<path fill="#231F20" d="M19.581,22.719c-1.53-0.129-2.414-1.03-2.526-2.392c-0.065-0.858,0.1-1.521,0.64-2.153
			c0.312-0.363,0.553-0.786,0.854-1.165c0.737-0.918,1.009-1.971,0.966-3.131c-0.021-0.524-0.014-1.046,0.01-1.567
			c0.004-0.115,0.139-0.223,0.212-0.337c0.075,0.115,0.222,0.228,0.226,0.343c0.073,1.966,0.087,3.917-1.424,5.478
			c-0.643,0.663-0.814,1.551-1.029,2.395c-0.25,0.989,0.27,1.823,1.239,2.224c0.268,0.111,0.54,0.21,0.815,0.312L19.581,22.719z"/>
		<path fill="#231F20" d="M20.792,36.884c0.584,0.212,1.176,0.432,1.765,0.646c-0.588-0.334-1.124,0.008-1.686,0.114
			c-1.205,0.227-2.345,0.56-3.346,1.334c-1.41,1.097-2.551,2.396-3.284,4.034c-0.072,0.156-0.163,0.297-0.288,0.42
			c0.171-1.791,1.27-3.023,2.51-4.167c1.26-1.156,2.696-1.971,4.504-2.056C20.872,37.046,20.834,36.967,20.792,36.884z"/>
		<path fill="#231F20" d="M8.943,40.521c0.407-0.376,0.808-0.764,1.222-1.128c0.156-0.138,0.347-0.288,0.542-0.325
			c0.302-0.054,0.731-0.123,0.905,0.036c0.155,0.135,0.08,0.593,0.027,0.891c-0.107,0.629-0.409,1.062-1.163,0.898
			c-0.135-0.028-0.289,0.067-0.44,0.104c0.232-0.149,0.456-0.302,0.686-0.453c-0.551-0.741-0.584-0.749-1.331-0.269
			C9.251,40.366,9.095,40.44,8.943,40.521z"/>
		<path fill="#231F20" d="M24.18,28.26c-0.557,0.16-1.064,0.309-1.604,0.469c-0.102-1.176,0.863-1.469,1.611-2.147
			c-0.071,0.29-0.111,0.434-0.137,0.576c-0.035,0.186-0.092,0.378-0.073,0.564C23.989,27.883,24.091,28.032,24.18,28.26z"/>
		<path fill="#231F20" d="M8.943,40.521c0.15-0.081,0.308-0.155,0.449-0.245c0.747-0.48,0.78-0.473,1.331,0.269
			c-0.231,0.151-0.455,0.303-0.687,0.453c-0.289,0.141-0.577,0.283-0.867,0.424c-0.576-0.079-0.611-0.156-0.319-0.733
			C8.883,40.631,8.913,40.577,8.943,40.521z"/>
		<path fill="#231F20" d="M23.779,21.055c-0.627,0.272-1.123,0.49-1.614,0.701c-0.078-0.295-0.157-0.568-0.252-0.931
			C22.136,20.503,22.661,20.512,23.779,21.055z"/>
		<path fill="#231F20" d="M18.025,41.192c0.65,0,1.301,0,2.108,0c-0.176,0.305-0.292,0.515-0.422,0.722
			c0.028-0.045,0.059-0.084,0.083-0.129l-0.002,0.019c-0.073-0.076-0.147-0.147-0.222-0.224l0.018,0.018
			c-0.084-0.015-0.169-0.021-0.253-0.032h0.017c-0.096,0.015-0.199,0.032-0.293,0.045c-0.06-0.059-0.125-0.108-0.184-0.168h0.017
			c-0.096,0.06-0.193,0.11-0.29,0.168c-0.067-0.013-0.127-0.03-0.192-0.045h0.017c-0.121,0-0.243-0.002-0.365-0.002h0.017
			c-0.017-0.039-0.038-0.079-0.061-0.12v-0.006c0-0.08,0-0.17,0-0.253L18.025,41.192z"/>
		<path fill="#231F20" d="M25.441,30.495c-0.395-0.553-0.785-1.106-1.176-1.66c0.053-0.037,0.104-0.076,0.162-0.108
			c0.619,0.378,0.964,0.969,1.161,1.66C25.539,30.427,25.49,30.457,25.441,30.495z"/>
		<path fill="#231F20" d="M18.025,41.192l-0.012-0.01c-0.044,0.063-0.089,0.124-0.132,0.193l0.021-0.014c-0.083,0-0.169,0-0.249,0
			l0.014,0.014c-0.009-0.042-0.014-0.086-0.021-0.127l0.021-0.003l-0.009,0.016c-0.04,0.04-0.085,0.072-0.126,0.114l-0.019,0.015
			l0.017,0.014C17.522,40.929,17.737,40.988,18.025,41.192z"/>
		<path fill="#231F20" d="M10.34,28.338c0.074,0.148,0.144,0.309,0.222,0.464l0.012,0.019c-0.047-0.044-0.093-0.083-0.138-0.119
			c-0.036-0.044-0.079-0.094-0.114-0.133l0.017,0.02c0-0.047,0-0.089,0-0.138l-0.009,0.026c0.009-0.016,0.029-0.034,0.029-0.047
			c-0.008-0.034-0.021-0.062-0.029-0.096L10.34,28.338z"/>
		<path fill="#231F20" d="M24.119,44.817c0.031,0.06,0.06,0.118,0.091,0.179l-0.013-0.012l-0.019-0.002
			C24.159,44.924,24.143,44.874,24.119,44.817z"/>
		<path fill="#231F20" d="M24.189,44.996c-0.087-0.006-0.172-0.014-0.261-0.021l-0.004,0.007c0.044-0.009,0.093-0.017,0.137-0.021
			C24.106,44.979,24.146,44.984,24.189,44.996z"/>
		<path fill="#231F20" d="M24.189,44.996c-0.043-0.012-0.083-0.021-0.127-0.034l-0.016,0.021c0.046,0,0.094,0,0.134,0l0.019,0.002
			L24.189,44.996z"/>
		<path fill="#231F20" d="M19.711,41.917l0.007-0.017c0.005,0.048,0.021,0.099,0.029,0.146c-0.038-0.037-0.081-0.068-0.12-0.106
			l0.018,0.016c-0.006-0.043-0.013-0.085-0.018-0.131c0.056-0.014,0.112-0.028,0.167-0.037
			C19.771,41.831,19.74,41.869,19.711,41.917z"/>
		<path fill="#231F20" d="M10.565,28.995l0-0.017c-0.044,0.02-0.087,0.041-0.129,0.058l0.018,0.019c0-0.047,0-0.093,0-0.139
			l-0.018,0.016C10.48,28.955,10.522,28.974,10.565,28.995z"/>
		<path fill="#231F20" d="M10.48,30.21c-0.056-0.024-0.111-0.045-0.172-0.071c0.051,0.024,0.104,0.053,0.146,0.075l0.016,0.01
			L10.48,30.21z"/>
		<path fill="#231F20" d="M10.565,30.158c-0.032,0.023-0.063,0.045-0.096,0.066l-0.016-0.01c-0.005-0.043-0.009-0.089-0.018-0.136
			C10.48,30.102,10.522,30.134,10.565,30.158z"/>
		<path fill="#231F20" d="M10.565,30.158c-0.043-0.022-0.086-0.055-0.129-0.08l0.021,0.019c-0.01-0.042-0.013-0.081-0.021-0.13
			c0.048-0.017,0.094-0.04,0.146-0.062C10.575,29.991,10.572,30.075,10.565,30.158z"/>
		<path fill="#231F20" d="M10.582,29.905c-0.051,0.023-0.098,0.044-0.145,0.062l0.017,0.017c-0.005-0.046-0.009-0.09-0.017-0.135
			c0.042,0.027,0.087,0.05,0.128,0.077L10.582,29.905z"/>
		<path fill="#231F20" d="M10.565,29.923c-0.043-0.026-0.088-0.049-0.129-0.076l0.018,0.017c0.003-0.041,0.003-0.085,0.003-0.129
			l-0.02,0.016c0.044,0,0.089,0,0.135,0l-0.021-0.009C10.562,29.804,10.562,29.863,10.565,29.923z"/>
		<path fill="#231F20" d="M10.695,29.555c-0.048,0.068-0.095,0.126-0.143,0.187l0.02,0.009c-0.007-0.045-0.01-0.09-0.02-0.133
			C10.6,29.601,10.647,29.576,10.695,29.555z"/>
		<path fill="#231F20" d="M10.695,29.555c-0.048,0.022-0.095,0.046-0.143,0.063l0.013,0.018c0-0.049-0.004-0.093-0.013-0.134
			c0.044,0.022,0.089,0.053,0.134,0.075L10.695,29.555z"/>
		<path fill="#231F20" d="M10.687,29.576c-0.045-0.023-0.089-0.053-0.134-0.075l0.013,0.02c0-0.046,0-0.093,0-0.136l-0.013,0.017
			C10.596,29.457,10.642,29.521,10.687,29.576z"/>
		<path fill="#231F20" d="M10.565,29.251c0,0.046-0.004,0.096-0.013,0.147l0.013-0.017c-0.041,0-0.087,0-0.129,0l0.021,0.015
			c-0.01-0.042-0.013-0.088-0.021-0.127C10.48,29.268,10.522,29.258,10.565,29.251z"/>
		<path fill="#231F20" d="M10.565,29.251c-0.044,0.007-0.087,0.016-0.129,0.019l0.018,0.016c-0.005-0.049-0.009-0.09-0.018-0.138
			c0.036-0.009,0.076-0.009,0.114-0.023C10.553,29.17,10.562,29.209,10.565,29.251z"/>
		<path fill="#231F20" d="M10.55,29.125c-0.037,0.014-0.078,0.014-0.114,0.022l0.021,0.018c-0.01-0.042-0.013-0.086-0.021-0.131
			c0.044-0.016,0.087-0.037,0.129-0.058C10.562,29.027,10.553,29.074,10.55,29.125z"/>
		<path fill="#231F20" d="M10.195,28.528c0.049-0.064,0.099-0.129,0.145-0.19l-0.01-0.005c0,0.05,0,0.09,0,0.145l0.009-0.027
			C10.292,28.477,10.238,28.502,10.195,28.528z"/>
		<path fill="#231F20" d="M10.195,28.528c0.042-0.026,0.097-0.051,0.143-0.079c0,0.051,0,0.091,0,0.137
			c-0.045-0.025-0.088-0.052-0.126-0.079L10.195,28.528z"/>
		<path fill="#231F20" d="M10.211,28.509c0.04,0.027,0.082,0.053,0.126,0.079l-0.017-0.02c0.007,0.039,0.009,0.089,0.017,0.134
			c-0.055,0.03-0.104,0.066-0.158,0.095C10.19,28.702,10.2,28.605,10.211,28.509z"/>
		<path fill="#231F20" d="M10.903,37.257l-0.022,0.021L10.903,37.257z"/>
		<path fill="#231F20" d="M10.18,28.798c0.053-0.031,0.104-0.064,0.158-0.095l-0.017-0.017c0,0.043,0,0.089,0,0.135l0.017-0.018
			c-0.052-0.005-0.103-0.018-0.149-0.02L10.18,28.798z"/>
		<path fill="#231F20" d="M10.914,36.952c-0.008,0.044-0.008,0.081-0.01,0.122l0.011,0.007c0.003-0.054,0.003-0.095,0.003-0.142
			L10.914,36.952z"/>
		<path fill="#231F20" d="M10.789,36.88l0.008-0.008c0.038,0.027,0.076,0.054,0.116,0.077l0.005-0.011
			C10.873,36.921,10.832,36.901,10.789,36.88z"/>
		<path fill="#231F20" d="M10.906,36.553c-0.035-0.024-0.076-0.052-0.123-0.081c0.046,0.029,0.089,0.05,0.135,0.071L10.906,36.553z"
			/>
		<path fill="#231F20" d="M10.918,36.542c-0.047-0.022-0.089-0.041-0.135-0.071l0.017,0.023c0-0.05,0.003-0.091,0.003-0.136
			l-0.004,0.016C10.836,36.437,10.873,36.489,10.918,36.542z"/>
		<path fill="#231F20" d="M10.669,36.3l0.011-0.006c0.038,0.023,0.076,0.055,0.117,0.081L10.8,36.36
			C10.765,36.34,10.716,36.318,10.669,36.3z"/>
		<path fill="#231F20" d="M10.767,35.571l0.016,0.019C10.778,35.589,10.767,35.571,10.767,35.571z"/>
		<path fill="#231F20" d="M10.565,28.995c-0.043-0.021-0.086-0.039-0.129-0.063c0-0.04,0-0.087,0-0.129
			c0.048,0.002,0.089,0.008,0.137,0.018l-0.013-0.018C10.562,28.865,10.565,28.931,10.565,28.995z"/>
		<path fill="#231F20" d="M18.406,42.07h0.022c-0.064-0.048-0.126-0.09-0.184-0.13l0.009,0.015
			c-0.049-0.038-0.089-0.075-0.135-0.118c0.004-0.04,0.01-0.08,0.016-0.126l-0.011,0.018c0.08,0.001,0.156,0.001,0.234,0.001
			l-0.009-0.018c0.04,0.037,0.087,0.076,0.134,0.119C18.454,41.911,18.433,41.994,18.406,42.07z"/>
		<path fill="#231F20" d="M17.889,41.822c-0.06,0.013-0.12,0.036-0.181,0.047c0.018-0.092,0.039-0.179,0.056-0.271
			c0.084-0.049,0.165-0.101,0.249-0.155c0.023,0.039,0.045,0.081,0.061,0.119c-0.026,0.054-0.046,0.104-0.078,0.163l0.017-0.02
			c-0.041,0.041-0.089,0.088-0.134,0.127L17.889,41.822z"/>
		<path fill="#231F20" d="M18.634,42.07h0.021c-0.021-0.079-0.05-0.16-0.075-0.239c0.087,0,0.165,0,0.249,0
			c-0.006,0.038-0.011,0.08-0.017,0.123l0.011-0.016C18.763,41.979,18.698,42.022,18.634,42.07z"/>
		<path fill="#231F20" d="M19.354,41.971c-0.098-0.011-0.202-0.023-0.297-0.031l0.005,0.015c-0.005-0.043-0.006-0.084-0.015-0.131
			c0.083,0,0.167,0.007,0.251,0.007C19.317,41.873,19.333,41.919,19.354,41.971z"/>
		<path fill="#231F20" d="M18.58,41.831c0.024,0.078,0.054,0.16,0.075,0.238c-0.081,0-0.165,0-0.25,0
			c0.027-0.075,0.048-0.158,0.076-0.238l-0.017,0.004c0.045,0,0.087,0,0.131,0L18.58,41.831z"/>
		<path fill="#231F20" d="M17.537,41.534c-0.012-0.053-0.021-0.098-0.024-0.144l0.019-0.015c0.047,0,0.092,0,0.134,0l-0.014-0.014
			c0,0.079,0,0.164,0,0.247l0.014-0.02C17.619,41.568,17.578,41.551,17.537,41.534z"/>
		<path fill="#231F20" d="M17.537,41.534c0.042,0.019,0.083,0.034,0.129,0.059c0.018,0.09,0.039,0.184,0.059,0.277
			C17.662,41.754,17.599,41.644,17.537,41.534z"/>
		<path fill="#231F20" d="M17.724,41.869c-0.021-0.093-0.042-0.187-0.06-0.276l-0.014,0.017c0.044,0,0.085,0,0.131,0l-0.019-0.014
			c-0.018,0.095-0.04,0.181-0.057,0.273H17.724L17.724,41.869z"/>
		<path fill="#231F20" d="M18.243,41.939c0.058,0.04,0.121,0.083,0.183,0.13c-0.078,0.015-0.167,0.021-0.252,0.033
			C18.193,42.045,18.221,41.994,18.243,41.939z"/>
		<path fill="#231F20" d="M18.634,42.07c0.064-0.048,0.129-0.09,0.188-0.13c0.025,0.047,0.049,0.096,0.068,0.145
			C18.807,42.083,18.721,42.075,18.634,42.07z"/>
		<path fill="#231F20" d="M18.89,42.083c-0.019-0.049-0.041-0.098-0.068-0.145l-0.011,0.016c0.042,0,0.091-0.006,0.132-0.016
			c-0.026,0.047-0.054,0.091-0.073,0.136L18.89,42.083z"/>
		<path fill="#231F20" d="M18.871,42.075c0.02-0.045,0.046-0.089,0.073-0.136l-0.016,0.016c0.043,0,0.091,0,0.132,0l-0.005-0.016
			C18.996,41.986,18.93,42.03,18.871,42.075z"/>
		<path fill="#231F20" d="M19.752,42.03c-0.076-0.029-0.149-0.062-0.224-0.089l-0.015,0.013c0.044,0,0.087,0,0.132,0l-0.018-0.016
			C19.667,41.971,19.709,42,19.752,42.03z"/>
		<path fill="#231F20" d="M19.752,42.03c-0.043-0.029-0.086-0.062-0.124-0.091c0.04,0.037,0.083,0.069,0.121,0.106L19.752,42.03z"/>
		<path fill="#231F20" d="M24.062,44.962c-0.045,0.005-0.091,0.014-0.136,0.021c0.072-0.06,0.143-0.11,0.215-0.16
			c-0.032,0.05-0.059,0.103-0.094,0.16L24.062,44.962z"/>
		<path fill="#231F20" d="M24.046,44.982c0.036-0.06,0.063-0.109,0.094-0.16c0,0-0.019,0-0.019-0.005
			c0.022,0.056,0.039,0.107,0.059,0.165C24.139,44.982,24.091,44.982,24.046,44.982z"/>
		<path fill="#231F20" d="M19.354,41.971c-0.021-0.052-0.036-0.099-0.055-0.141l-0.02,0.012c0.044-0.008,0.089-0.012,0.128-0.021
			c-0.021,0.047-0.046,0.089-0.069,0.132L19.354,41.971z"/>
		<path fill="#231F20" d="M19.338,41.954c0.023-0.043,0.049-0.085,0.069-0.132l-0.014,0.013c0.047,0,0.094-0.004,0.135-0.013
			c-0.005,0.047-0.01,0.089-0.016,0.132l0.016-0.013C19.463,41.948,19.398,41.948,19.338,41.954z"/>
		<path fill="#231F20" d="M18.01,41.939c-0.038-0.039-0.081-0.081-0.121-0.117l-0.011,0.013c0.046,0,0.093,0,0.137,0l-0.019-0.004
			c0,0.038,0,0.08,0,0.123L18.01,41.939z"/>
		<path fill="#231F20" d="M18.193,42.102c-0.061-0.057-0.124-0.108-0.185-0.163l-0.013,0.016c0.046,0,0.091,0,0.137,0l-0.016-0.016
			C18.143,41.994,18.165,42.045,18.193,42.102z"/>
		<path fill="#231F20" d="M18.193,42.102c-0.028-0.057-0.051-0.108-0.076-0.163c0.045,0.01,0.085,0.01,0.134,0.016l-0.009-0.016
			c-0.021,0.055-0.049,0.107-0.069,0.163H18.193z"/>
		<path fill="#231F20" d="M10.789,36.88c0.042,0.021,0.083,0.041,0.128,0.059c0,0.046,0,0.088-0.003,0.143
			C10.872,37.008,10.829,36.945,10.789,36.88z"/>
		<path fill="#231F20" d="M10.669,36.3c0.047,0.018,0.095,0.04,0.132,0.06c0,0.044-0.002,0.087-0.002,0.136
			C10.758,36.423,10.716,36.358,10.669,36.3z"/>
		<path fill="#231F20" d="M19.86,33.869c0.227-0.656,1.194-1.039,1.746-0.699c0.11,0.071,0.224,0.177,0.343,0.198
			c0.667,0.117,0.919,0.527,0.838,1.194c0.053,0.033,0.106,0.064,0.157,0.093c0.169-0.17,0.335-0.34,0.504-0.506
			c0.179-0.178,0.361-0.361,0.601-0.604c0.096,0.39,0.154,0.597,0.208,0.809c0,0.008-0.018,0.035-0.018,0.035
			c-0.144,0.054-0.286,0.102-0.432,0.157c-1.45,0.551-2.751,0.265-3.939-0.678L19.86,33.869L19.86,33.869z"/>
		<path fill="#231F20" d="M19.868,33.869c1.186,0.942,2.488,1.229,3.938,0.677c0.146-0.053,0.289-0.103,0.432-0.155
			c-0.349,0.327-0.711,0.64-1.034,0.998c-0.326,0.364-0.617,0.763-0.948,1.19c-0.526-0.137,0.098-0.463,0.052-0.641
			c-0.402-0.062-0.865,0.004-1.1-0.187C20.606,35.252,20.027,34.69,19.868,33.869z"/>
		<path fill="#231F20" d="M10.436,30.078c0.008,0.047,0.011,0.094,0.018,0.136c-0.043-0.022-0.095-0.05-0.146-0.074l0.015,0.018
			c0.046-0.018,0.089-0.041,0.134-0.062L10.436,30.078z"/>
		<path fill="#231F20" d="M10.456,30.097c-0.046,0.02-0.088,0.044-0.135,0.062c-0.002-0.083-0.006-0.166-0.013-0.253
			c0.05,0.026,0.102,0.052,0.145,0.079l-0.018-0.017C10.445,30.016,10.448,30.055,10.456,30.097z"/>
		<path fill="#231F20" d="M10.453,29.984c-0.044-0.027-0.096-0.051-0.146-0.079l0.014,0.023c0.046-0.023,0.089-0.043,0.132-0.063
			l-0.018-0.018C10.445,29.893,10.448,29.936,10.453,29.984z"/>
		<path fill="#231F20" d="M10.453,29.863c-0.044,0.021-0.087,0.042-0.133,0.063c-0.002-0.082-0.006-0.166-0.014-0.252
			c0.051,0.021,0.103,0.042,0.149,0.058C10.456,29.778,10.456,29.823,10.453,29.863z"/>
		<path fill="#231F20" d="M10.456,29.734c-0.046-0.016-0.099-0.037-0.149-0.058l0.021,0.021c0.04-0.033,0.082-0.055,0.125-0.08
			c-0.006,0.045-0.009,0.089-0.018,0.134L10.456,29.734z"/>
		<path fill="#231F20" d="M10.453,29.617c-0.044,0.025-0.087,0.047-0.125,0.078c-0.01-0.084-0.013-0.173-0.021-0.252
			c0.05,0.018,0.103,0.04,0.149,0.056c-0.01,0.041-0.013,0.084-0.021,0.133L10.453,29.617z"/>
		<path fill="#231F20" d="M10.456,29.5c-0.046-0.015-0.099-0.038-0.149-0.056l0.014,0.018c0.046-0.021,0.089-0.043,0.134-0.065
			l-0.02-0.015c0,0.044,0,0.09,0,0.137L10.456,29.5z"/>
		<path fill="#231F20" d="M10.456,29.397c-0.046,0.022-0.088,0.046-0.135,0.065c-0.002-0.085-0.006-0.165-0.013-0.252
			c0.05,0.025,0.102,0.05,0.145,0.077l-0.018-0.017C10.445,29.311,10.448,29.356,10.456,29.397z"/>
		<path fill="#231F20" d="M10.453,29.287c-0.044-0.027-0.096-0.052-0.146-0.077l0.021,0.017c0.04-0.017,0.082-0.037,0.128-0.059
			l-0.021-0.019C10.445,29.196,10.448,29.239,10.453,29.287z"/>
		<path fill="#231F20" d="M10.456,29.166c-0.046,0.022-0.088,0.043-0.128,0.059c-0.013-0.081-0.023-0.167-0.036-0.246
			c0.055,0.023,0.106,0.049,0.161,0.076l-0.018-0.018C10.445,29.08,10.448,29.124,10.456,29.166z"/>
		<path fill="#231F20" d="M10.437,28.801c0,0.042,0,0.09,0,0.13l0.017-0.016c-0.053,0.029-0.105,0.049-0.16,0.079
			c0.014-0.065,0.027-0.129,0.044-0.192l-0.017,0.018c0.041,0,0.089,0,0.132,0L10.437,28.801z"/>
		<path fill="#231F20" d="M10.294,28.995c0.055-0.028,0.106-0.049,0.16-0.078c0,0.045,0,0.09,0,0.138
			c-0.053-0.026-0.105-0.053-0.16-0.076V28.995z"/>
		<path fill="#231F20" d="M18.012,41.442c-0.084,0.055-0.165,0.107-0.25,0.156l0.019,0.014c0.037-0.083,0.081-0.168,0.119-0.245
			l-0.02,0.012c0.043,0.016,0.09,0.039,0.132,0.061V41.442z"/>
		<path fill="#231F20" d="M19.057,41.61c0.095-0.013,0.198-0.03,0.293-0.045c-0.017,0.051-0.033,0.104-0.052,0.16
			c-0.084,0-0.168,0-0.251,0c0.007-0.043,0.009-0.088,0.014-0.133L19.057,41.61z"/>
		<path fill="#231F20" d="M18.596,41.61c0.097-0.059,0.195-0.108,0.291-0.168c-0.017,0.06-0.04,0.11-0.056,0.168
			c-0.085-0.003-0.164-0.013-0.251-0.018L18.596,41.61z"/>
		<path fill="#231F20" d="M18.356,41.727c-0.079,0-0.156,0-0.234-0.001c-0.021-0.053-0.045-0.11-0.064-0.163
			c0.12,0,0.243,0.003,0.364,0.003C18.397,41.62,18.377,41.673,18.356,41.727z"/>
		<path fill="#231F20" d="M19.571,41.578c0.075,0.078,0.149,0.148,0.222,0.226c-0.054-0.027-0.112-0.057-0.165-0.086
			C19.607,41.673,19.588,41.625,19.571,41.578z"/>
		<path fill="#231F20" d="M19.571,41.578c0.017,0.047,0.037,0.096,0.057,0.14l0.018-0.011c-0.045,0-0.088,0-0.132,0l0.015,0.019
			c0.021-0.043,0.041-0.088,0.06-0.128L19.571,41.578z"/>
		<path fill="#231F20" d="M19.588,41.597c-0.021,0.04-0.039,0.085-0.06,0.128c-0.041-0.008-0.086-0.01-0.134-0.019l0.015,0.019
			c-0.021-0.06-0.05-0.11-0.072-0.16C19.418,41.577,19.504,41.583,19.588,41.597z"/>
		<path fill="#231F20" d="M19.333,41.565c0.024,0.051,0.054,0.104,0.074,0.16c-0.041-0.008-0.084-0.01-0.128-0.019l0.02,0.019
			c0.019-0.057,0.035-0.11,0.052-0.16H19.333z"/>
		<path fill="#231F20" d="M18.406,41.565c0.064,0.015,0.124,0.032,0.192,0.045l-0.017-0.018c0,0.045,0,0.09,0,0.134l0.017-0.02
			c-0.044,0-0.086,0-0.131,0l0.017,0.02C18.454,41.673,18.426,41.616,18.406,41.565z"/>
		<path fill="#231F20" d="M18.406,41.565c0.022,0.051,0.048,0.109,0.076,0.16c-0.045-0.008-0.094-0.01-0.134-0.018l0.008,0.02
			c0.021-0.054,0.042-0.107,0.066-0.162H18.406z"/>
		<path fill="#231F20" d="M18.058,41.561c0.018,0.055,0.042,0.113,0.064,0.164l0.01-0.019c-0.044,0.009-0.089,0.011-0.136,0.019
			c0.032-0.06,0.052-0.11,0.078-0.164H18.058z"/>
		<path fill="#231F20" d="M19.627,41.717c0.052,0.028,0.111,0.059,0.165,0.085l0.001-0.018c-0.055,0.009-0.11,0.024-0.167,0.035
			l0.018,0.014c0-0.04,0-0.079,0-0.127L19.627,41.717z"/>
		<path fill="#231F20" d="M18.871,41.442c0.059,0.06,0.125,0.11,0.184,0.168l0.005-0.018c-0.042,0.005-0.089,0.015-0.133,0.018
			C18.907,41.551,18.887,41.501,18.871,41.442z"/>
		<path fill="#231F20" d="M18.871,41.442c0.016,0.06,0.036,0.11,0.059,0.168l0.021-0.018c-0.048,0-0.096,0-0.139,0.005l0.019,0.013
			c0.017-0.058,0.041-0.108,0.056-0.167L18.871,41.442L18.871,41.442z"/>
		<path fill="#231F20" d="M18.012,41.437c-0.042-0.021-0.089-0.045-0.132-0.061c0.043-0.069,0.087-0.129,0.132-0.194
			C18.012,41.264,18.012,41.356,18.012,41.437z"/>
		<path fill="#231F20" d="M17.901,41.363c-0.038,0.079-0.082,0.165-0.118,0.246c-0.046,0-0.088,0-0.132,0c0-0.081,0-0.167,0-0.246
			C17.732,41.363,17.819,41.363,17.901,41.363z"/>
		<path fill="#231F20" d="M17.665,41.376c-0.042,0-0.087,0-0.134,0c0.042-0.042,0.088-0.074,0.126-0.114l-0.012-0.012
			C17.651,41.291,17.656,41.333,17.665,41.376z"/>
		<polygon fill="#231F20" points="17.656,41.261 17.665,41.246 17.644,41.249 		"/>
		<path fill="#231F20" d="M10.328,28.477c0-0.053,0-0.095,0-0.145c0.01,0.035,0.021,0.063,0.029,0.096
			C10.359,28.443,10.338,28.461,10.328,28.477z"/>
		<path fill="#231F20" d="M10.338,28.702c-0.007-0.044-0.01-0.094-0.017-0.134c0.036,0.039,0.078,0.09,0.114,0.134l0.018-0.016
			c-0.044,0-0.09,0-0.133,0L10.338,28.702z"/>
		<path fill="#231F20" d="M10.573,28.82c-0.048-0.01-0.089-0.017-0.137-0.019l0.018,0.019c0-0.045,0-0.091,0-0.134l-0.018,0.016
			C10.48,28.737,10.526,28.777,10.573,28.82z"/>
		<path fill="#231F20" d="M19.513,41.954c0.003-0.043,0.011-0.085,0.015-0.132l-0.015,0.013c0.044,0,0.087,0,0.132,0l-0.018-0.013
			c0.004,0.047,0.011,0.089,0.018,0.132C19.599,41.954,19.557,41.954,19.513,41.954z"/>
		<path fill="#231F20" d="M10.436,29.75c0.008-0.045,0.011-0.09,0.018-0.133l-0.018,0.019c0.044,0,0.089,0,0.129,0l-0.013-0.019
			c0.008,0.043,0.011,0.088,0.02,0.133C10.526,29.75,10.48,29.75,10.436,29.75z"/>
		<path fill="#231F20" d="M10.565,29.634c-0.041,0-0.087,0-0.129,0c0.008-0.049,0.011-0.093,0.021-0.133l-0.021,0.02
			c0.043,0,0.089,0,0.129,0l-0.013-0.02C10.562,29.541,10.565,29.585,10.565,29.634z"/>
		<path fill="#231F20" d="M10.565,29.521c-0.041,0-0.087,0-0.129,0c0-0.046,0-0.094,0-0.137c0.043,0,0.089,0,0.129,0
			C10.565,29.427,10.565,29.474,10.565,29.521z"/>
		<path fill="#231F20" d="M10.453,28.686c0,0.043,0,0.089,0,0.135c-0.044,0-0.09,0-0.133,0c0-0.045,0-0.092,0-0.135
			C10.363,28.686,10.41,28.686,10.453,28.686z"/>
		<path fill="#231F20" d="M18.252,41.954c-0.049-0.006-0.089-0.006-0.134-0.016l0.017,0.016c0-0.043,0-0.085,0-0.123l-0.017,0.004
			C18.161,41.877,18.203,41.917,18.252,41.954z"/>
		<path fill="#231F20" d="M18.348,41.71c0.04,0.005,0.088,0.008,0.134,0.016l-0.017-0.02c0,0.048,0,0.088,0,0.127l0.017-0.004
			C18.436,41.787,18.387,41.747,18.348,41.71z"/>
		<path fill="#231F20" d="M17.996,41.725c0.046-0.008,0.091-0.01,0.136-0.019c-0.005,0.046-0.01,0.087-0.015,0.125l0.015-0.003
			c-0.044,0-0.089,0-0.136,0l0.019,0.003c0-0.038,0-0.086-0.002-0.125L17.996,41.725z"/>
		<path fill="#231F20" d="M18.012,41.708c0.001,0.039,0.001,0.088,0.001,0.127c-0.044,0-0.09,0-0.137,0
			C17.924,41.793,17.971,41.747,18.012,41.708z"/>
		<path fill="#231F20" d="M18.829,41.831c-0.084,0-0.163,0-0.249,0l0.017,0.004c0-0.04,0-0.08,0-0.127l-0.017,0.019
			c0.087,0,0.165,0,0.249,0l-0.017-0.019c0,0.048,0,0.088,0,0.127L18.829,41.831z"/>
		<path fill="#231F20" d="M18.945,41.939c-0.041,0.009-0.09,0.016-0.131,0.016c0.005-0.043,0.011-0.085,0.017-0.124l-0.017,0.005
			c0.05,0,0.092-0.005,0.138-0.012c-0.01,0.046-0.014,0.088-0.021,0.131L18.945,41.939z"/>
		<path fill="#231F20" d="M19.048,41.725c0.083,0,0.167,0,0.251,0l-0.02-0.019c0,0.046,0,0.087,0,0.135l0.02-0.013
			c-0.084,0-0.168-0.009-0.251-0.009l0.015,0.012c0-0.038,0-0.079,0-0.125L19.048,41.725z"/>
		<path fill="#231F20" d="M18.93,41.954c0.007-0.043,0.011-0.085,0.021-0.132l-0.021,0.013c0.042,0,0.09,0,0.131,0l-0.014-0.013
			c0.007,0.047,0.009,0.089,0.014,0.132C19.02,41.954,18.972,41.954,18.93,41.954z"/>
		<path fill="#231F20" d="M18.596,41.708c0,0.048,0,0.088,0,0.127c-0.045,0-0.086,0-0.131,0c0-0.04,0-0.08,0-0.127
			C18.51,41.708,18.552,41.708,18.596,41.708z"/>
		<path fill="#231F20" d="M19.28,41.842c0-0.048,0-0.088,0-0.135c0.044,0.01,0.088,0.011,0.127,0.019l-0.015-0.019
			c0,0.048,0,0.088,0,0.127l0.015-0.013C19.367,41.831,19.324,41.834,19.28,41.842z"/>
		<path fill="#231F20" d="M19.394,41.834c0-0.04,0-0.08,0-0.127c0.048,0.01,0.094,0.011,0.134,0.019l-0.015-0.019
			c0,0.048,0,0.088,0,0.127l0.015-0.013C19.488,41.831,19.441,41.834,19.394,41.834z"/>
		<path fill="#231F20" d="M17.996,41.831c0.046,0,0.091,0,0.136,0c0,0.038,0,0.08,0,0.123c-0.044,0-0.089,0-0.136,0
			C17.996,41.911,17.996,41.869,17.996,41.831z"/>
		<path fill="#231F20" d="M18.93,41.61c0.042-0.003,0.09-0.013,0.131-0.018c-0.005,0.045-0.006,0.09-0.014,0.134l0.014-0.02
			c-0.041,0-0.089,0-0.131,0l0.021,0.02c0-0.044,0-0.089,0-0.134L18.93,41.61z"/>
		<path fill="#231F20" d="M18.829,41.725c-0.084,0-0.163,0-0.249,0c0-0.043,0-0.088,0-0.133c0.087,0.005,0.165,0.015,0.251,0.017
			l-0.018-0.014C18.819,41.637,18.823,41.682,18.829,41.725z"/>
		<path fill="#231F20" d="M19.513,41.834c0-0.04,0-0.08,0-0.127c0.044,0,0.087,0,0.132,0c0,0.048,0,0.088,0,0.127
			C19.599,41.834,19.557,41.834,19.513,41.834z"/>
		<path fill="#231F20" d="M18.829,41.725c-0.006-0.043-0.011-0.088-0.017-0.128c0.042-0.005,0.091-0.005,0.139-0.005
			c0,0.045,0,0.09,0,0.133c-0.046-0.008-0.089-0.01-0.139-0.019L18.829,41.725z"/>
		<path fill="#231F20" d="M18.812,41.708c0.05,0.01,0.092,0.011,0.139,0.019l-0.021-0.019c0,0.048,0,0.088,0,0.127l0.021-0.013
			c-0.046,0.009-0.089,0.013-0.139,0.013C18.812,41.794,18.812,41.754,18.812,41.708z"/>
		<path fill="#231F20" d="M18.93,41.834c0-0.04,0-0.08,0-0.127c0.042,0,0.09,0,0.131,0c0,0.048,0,0.088,0,0.127
			C19.02,41.834,18.972,41.834,18.93,41.834z"/>
	</g>
</g>
</svg>
