<?xml version="1.0" encoding="utf-8"?>
<!-- Generator: Adobe Illustrator 19.0.0, SVG Export Plug-In . SVG Version: 6.00 Build 0)  -->
<svg version="1.1" id="Layer_1" xmlns="http://www.w3.org/2000/svg" xmlns:xlink="http://www.w3.org/1999/xlink" x="0px" y="0px"
	 viewBox="0 0 75 75" style="enable-background:new 0 0 75 75;" xml:space="preserve">
<style type="text/css">
	.st0{fill:#F0F7F2;stroke:#000000;stroke-linecap:round;stroke-miterlimit:10;}
	.st1{fill:#FFFFFF;stroke:#000000;stroke-width:0.5;stroke-linecap:round;stroke-linejoin:round;stroke-miterlimit:10;}
	.st2{fill:none;stroke:#000000;stroke-width:0.709;stroke-linecap:round;stroke-linejoin:round;stroke-miterlimit:10;}
	.st3{fill:#FFFFFF;stroke:#000000;stroke-width:0.709;stroke-linecap:round;stroke-linejoin:round;stroke-miterlimit:10;}
</style>
<g id="XMLID_6_">
	<rect id="XMLID_1_" x="0" y="0" class="st0" width="75" height="75"/>
	<polyline id="XMLID_4_" class="st1" points="37.5,71.9 40.8,71.8 44,71.3 47.2,70.6 50.3,69.5 53.3,68.2 56.1,66.6 58.8,64.8 
		61.3,62.7 63.7,60.4 65.7,57.9 67.6,55.2 69.2,52.3 70.5,49.3 71.5,46.2 72.3,43 72.7,39.8 72.9,36.5 72.7,33.3 72.3,30 71.5,26.9 
		70.5,23.8 69.2,20.8 67.6,17.9 65.7,15.2 63.7,12.7 61.3,10.4 58.8,8.3 56.1,6.4 53.3,4.9 50.3,3.5 47.2,2.5 44,1.7 40.8,1.3 
		37.5,1.1 34.2,1.3 31,1.7 27.8,2.5 24.7,3.5 21.7,4.9 18.9,6.4 16.2,8.3 13.7,10.4 11.3,12.7 9.3,15.2 7.4,17.9 5.8,20.8 4.5,23.8 
		3.5,26.9 2.7,30 2.3,33.3 2.1,36.5 2.3,39.8 2.7,43 3.5,46.2 4.5,49.3 5.8,52.3 7.4,55.2 9.3,57.9 11.3,60.4 13.7,62.7 16.2,64.8 
		18.9,66.6 21.7,68.2 24.7,69.5 27.8,70.6 31,71.3 34.2,71.8 37.5,71.9 	"/>
	<path id="XMLID_3_" class="st2" d="M60.1,9.4v27.2c0,12.5-10.1,22.6-22.6,22.6c-12.5,0-22.6-10.1-22.6-22.6V9.4"/>
	<circle id="XMLID_2_" class="st3" cx="37.5" cy="36.5" r="15.4"/>
</g>
</svg>
