<?xml version="1.0" encoding="utf-8"?>
<!-- Generator: Adobe Illustrator 21.0.2, SVG Export Plug-In . SVG Version: 6.00 Build 0)  -->
<svg version="1.1" id="Layer_1" xmlns="http://www.w3.org/2000/svg" xmlns:xlink="http://www.w3.org/1999/xlink" x="0px" y="0px"
	 viewBox="0 0 245 330" style="enable-background:new 0 0 245 330;" xml:space="preserve">
<style type="text/css">
	.st0{fill:none;stroke:#000000;stroke-width:0.35;stroke-linecap:round;stroke-linejoin:round;}
</style>
<g>
	<line class="st0" x1="6.1" y1="164.1" x2="6.1" y2="40.8"/>
	<line class="st0" x1="234.8" y1="40.1" x2="234.8" y2="164.1"/>
	<path class="st0" d="M10.5,49.9c-9.3-10.2-2.4-19.4,7.3-25.7c8.6-5.5,19.4-9.1,29.2-11.7c19.7-5.2,42.2-7.6,62.4-8.2
		c21.2-0.6,42,0.4,62.9,3.7c15.3,2.4,46,8.9,58.1,22.2"/>
	<path class="st0" d="M230.4,30.2c9.3,10.2,2.4,19.4-7.3,25.7c-8.6,5.5-19.4,9.1-29.2,11.7c-19.7,5.2-42.2,7.6-62.4,8.2
		c-21.2,0.6-42-0.4-62.9-3.7c-15.3-2.4-46-8.9-58.1-22.2"/>
	<path class="st0" d="M234.8,164.1c0,4.2-2.3,7.7-5,10.5c-4.2,4.3-9.9,7.5-15.2,9.9c-9.3,4.2-18.8,6.9-28.7,9.1
		c-19.2,4.2-40.3,6.1-59.9,6.4c-20.2,0.3-40.1-0.9-60.1-4.3c-14.8-2.5-43.8-8.9-55.4-21.7"/>
</g>
<line class="st0" x1="234.8" y1="164.1" x2="234.8" y2="288.1"/>
<line class="st0" x1="6.1" y1="288.1" x2="6.1" y2="164.9"/>
<line class="st0" x1="80" y1="161.1" x2="80" y2="151.9"/>
<line class="st0" x1="161" y1="151.9" x2="161" y2="160.8"/>
<line class="st0" x1="230.4" y1="159.4" x2="230.4" y2="164.1"/>
<line class="st0" x1="10.5" y1="164.1" x2="10.5" y2="159.9"/>
<line class="st0" x1="110.3" y1="150.4" x2="110.3" y2="118.9"/>
<line class="st0" x1="130.7" y1="116.8" x2="130.7" y2="148.2"/>
<line class="st0" x1="94.7" y1="151.5" x2="94.7" y2="150.8"/>
<line class="st0" x1="146.4" y1="150.7" x2="146.4" y2="151.4"/>
<line class="st0" x1="99.3" y1="145.8" x2="100.3" y2="145.3"/>
<line class="st0" x1="140.7" y1="145.3" x2="141.7" y2="145.8"/>
<line class="st0" x1="156.9" y1="114.3" x2="134.7" y2="110.4"/>
<line class="st0" x1="110.3" y1="117.6" x2="103.1" y2="116.4"/>
<line class="st0" x1="110.3" y1="118.3" x2="110.3" y2="117.6"/>
<path class="st0" d="M115.3,101.5C115.3,101.5,115.4,101.5,115.3,101.5"/>
<path class="st0" d="M98.4,69.5c-0.8-0.1-1.5-0.2-2.3,0"/>
<path class="st0" d="M71.1,38.1c10.9,1.9,21.8,3.8,32.7,5.7"/>
<path class="st0" d="M69.2,37.9c0.2-0.1,0.4-0.1,0.7-0.1"/>
<path class="st0" d="M32.1,59.7c0-0.6,0.2-1,0.8-1.3"/>
<line class="st0" x1="33.1" y1="58.3" x2="68.9" y2="38"/>
<line class="st0" x1="70" y1="37.9" x2="71" y2="38"/>
<path class="st0" d="M100.1,68.5c-5.2-0.9-5.5,3.4-4.5,7.6c0.9,3.7,2.7,6.9,4.7,10.1c3.8,5.8,9.5,12.1,15.5,15.8"/>
<path class="st0" d="M103.9,43.8c0.4,0.1,0.7,0.2,0.9,0.5"/>
<path class="st0" d="M85.8,127.9c-0.3,0.2-0.6,0.2-1,0.2"/>
<path class="st0" d="M33.2,119c-0.7-0.2-1.1-0.8-1.1-1.4"/>
<line class="st0" x1="32.1" y1="117.6" x2="32.1" y2="60.3"/>
<line class="st0" x1="104.9" y1="44.4" x2="138.5" y2="86.8"/>
<path class="st0" d="M84.7,128.1c-17.1-3-34.3-6-51.4-9"/>
<line class="st0" x1="34.3" y1="58.4" x2="34.7" y2="58.5"/>
<line class="st0" x1="32.1" y1="60.2" x2="32.1" y2="59.8"/>
<path class="st0" d="M65.8,227.1c-0.5-0.3-0.6-0.6-0.6-1.1"/>
<path class="st0" d="M64.9,228c-0.5-0.1-0.9-0.6-0.9-1.1s0.3-1.1,0.9-0.9c0.5,0.1,0.9,0.6,0.9,1.1S65.5,228.1,64.9,228z"/>
<path class="st0" d="M200.7,240.5c-0.5,0.2-0.7,0.5-0.8,1.1c0,0.5,0.2,1.1,0.8,0.9c0.4-0.1,0.8-0.7,0.8-1.1
	C201.5,240.9,201.3,240.3,200.7,240.5"/>
<path class="st0" d="M200.7,244.5c-0.5,0.2-0.7,0.5-0.8,1.1c0,0.5,0.2,1.1,0.8,0.9c0.4-0.1,0.8-0.7,0.8-1.1
	C201.5,245,201.3,244.4,200.7,244.5"/>
<path class="st0" d="M200.7,248.6c-0.5,0.2-0.7,0.5-0.8,1.1c0,0.5,0.2,1.1,0.8,0.9c0.4-0.1,0.8-0.7,0.8-1.1
	C201.5,249,201.3,248.4,200.7,248.6"/>
<path class="st0" d="M200.7,252.7c-0.5,0.2-0.7,0.5-0.8,1.1c0,0.5,0.2,1.1,0.8,0.9c0.4-0.1,0.8-0.7,0.8-1.1
	C201.5,253.1,201.3,252.5,200.7,252.7"/>
<path class="st0" d="M200.7,256.7c-0.5,0.2-0.7,0.5-0.8,1.1c0,0.5,0.2,1.1,0.8,0.9c0.4-0.1,0.8-0.7,0.8-1.1S201.3,256.6,200.7,256.7
	"/>
<path class="st0" d="M200.7,260.8c-0.5,0.2-0.7,0.5-0.8,1.1c0,0.5,0.2,1.1,0.8,0.9c0.4-0.1,0.8-0.7,0.8-1.1
	C201.5,261.2,201.3,260.6,200.7,260.8"/>
<path class="st0" d="M203.8,231.3c-0.5,0.2-0.7,0.6-0.8,1.1c0,0.5,0.2,1.1,0.8,0.9c0.4-0.1,0.7-0.7,0.8-1.1
	C204.6,231.8,204.4,231.1,203.8,231.3z"/>
<path class="st0" d="M203.8,235.4c-0.5,0.2-0.7,0.6-0.8,1.1c0,0.5,0.2,1.1,0.8,0.9c0.4-0.1,0.7-0.7,0.8-1.1
	C204.6,235.8,204.4,235.2,203.8,235.4z"/>
<path class="st0" d="M203.8,239.5c-0.5,0.2-0.7,0.6-0.8,1.1c0,0.5,0.2,1.1,0.8,0.9c0.4-0.1,0.7-0.7,0.8-1.1
	C204.6,239.9,204.4,239.3,203.8,239.5z"/>
<path class="st0" d="M203.8,243.5c-0.5,0.2-0.7,0.6-0.8,1.1c0,0.5,0.2,1.1,0.8,0.9c0.4-0.1,0.7-0.7,0.8-1.1
	C204.6,244,204.4,243.3,203.8,243.5z"/>
<path class="st0" d="M203.8,247.6c-0.5,0.2-0.7,0.6-0.8,1.1c0,0.5,0.2,1.1,0.8,0.9c0.4-0.1,0.7-0.7,0.8-1.1
	C204.6,248,204.4,247.4,203.8,247.6z"/>
<path class="st0" d="M203.8,251.7c-0.5,0.2-0.7,0.6-0.8,1.1c0,0.5,0.2,1.1,0.8,0.9c0.4-0.1,0.7-0.7,0.8-1.1
	C204.6,252.1,204.4,251.5,203.8,251.7z"/>
<path class="st0" d="M203.8,255.7c-0.5,0.2-0.7,0.6-0.8,1.1c0,0.5,0.2,1.1,0.8,0.9c0.4-0.1,0.7-0.7,0.8-1.1
	C204.6,256.2,204.4,255.5,203.8,255.7z"/>
<path class="st0" d="M203.8,259.8c-0.5,0.2-0.7,0.6-0.8,1.1c0,0.5,0.2,1.1,0.8,0.9c0.4-0.1,0.7-0.7,0.8-1.1
	C204.6,260.2,204.4,259.6,203.8,259.8z"/>
<path class="st0" d="M203.8,263.9c-0.5,0.2-0.7,0.6-0.8,1.1c0,0.5,0.2,1.1,0.8,0.9c0.4-0.1,0.7-0.7,0.8-1.1
	C204.6,264.3,204.4,263.7,203.8,263.9z"/>
<path class="st0" d="M203.8,267.9c-0.5,0.2-0.7,0.6-0.8,1.1c0,0.5,0.2,1.1,0.8,0.9c0.4-0.1,0.7-0.7,0.8-1.1
	C204.6,268.4,204.4,267.7,203.8,267.9z"/>
<path class="st0" d="M206.7,226.3c-0.5,0.3-0.7,0.6-0.7,1.1s0.1,1.1,0.7,0.9c0.4-0.1,0.7-0.7,0.7-1.1
	C207.5,226.7,207.3,226,206.7,226.3z"/>
<path class="st0" d="M206.7,230.3c-0.5,0.3-0.7,0.6-0.7,1.1s0.1,1.1,0.7,0.9c0.4-0.1,0.7-0.7,0.7-1.1
	C207.5,230.7,207.3,230.1,206.7,230.3z"/>
<path class="st0" d="M206.7,234.4c-0.5,0.3-0.7,0.6-0.7,1.1s0.1,1.1,0.7,0.9c0.4-0.1,0.7-0.7,0.7-1.1
	C207.5,234.8,207.3,234.2,206.7,234.4z"/>
<path class="st0" d="M206.7,238.5c-0.5,0.3-0.7,0.6-0.7,1.1s0.1,1.1,0.7,0.9c0.4-0.1,0.7-0.7,0.7-1.1
	C207.5,238.9,207.3,238.2,206.7,238.5z"/>
<path class="st0" d="M206.7,242.5c-0.5,0.3-0.7,0.6-0.7,1.1s0.1,1.1,0.7,0.9c0.4-0.1,0.7-0.7,0.7-1.1
	C207.5,243,207.3,242.3,206.7,242.5z"/>
<path class="st0" d="M206.7,246.6c-0.5,0.3-0.7,0.6-0.7,1.1s0.1,1.1,0.7,0.9c0.4-0.1,0.7-0.7,0.7-1.1
	C207.5,247,207.3,246.4,206.7,246.6z"/>
<path class="st0" d="M206.7,250.7c-0.5,0.3-0.7,0.6-0.7,1.1s0.1,1.1,0.7,0.9c0.4-0.1,0.7-0.7,0.7-1.1
	C207.5,251.1,207.3,250.4,206.7,250.7z"/>
<path class="st0" d="M206.7,254.7c-0.5,0.3-0.7,0.6-0.7,1.1c0,0.5,0.1,1.1,0.7,0.9c0.4-0.1,0.7-0.7,0.7-1.1
	C207.5,255.2,207.3,254.5,206.7,254.7z"/>
<path class="st0" d="M206.7,258.8c-0.5,0.3-0.7,0.6-0.7,1.1s0.1,1.1,0.7,0.9c0.4-0.1,0.7-0.7,0.7-1.1
	C207.5,259.2,207.3,258.6,206.7,258.8z"/>
<path class="st0" d="M206.7,262.9c-0.5,0.3-0.7,0.6-0.7,1.1s0.1,1.1,0.7,0.9c0.4-0.1,0.7-0.7,0.7-1.1
	C207.5,263.3,207.3,262.6,206.7,262.9z"/>
<path class="st0" d="M206.7,266.9c-0.5,0.3-0.7,0.6-0.7,1.1s0.1,1.1,0.7,0.9c0.4-0.1,0.7-0.7,0.7-1.1
	C207.5,267.4,207.3,266.7,206.7,266.9z"/>
<path class="st0" d="M206.7,271c-0.5,0.3-0.7,0.6-0.7,1.1s0.1,1.1,0.7,0.9c0.4-0.1,0.7-0.7,0.7-1.1
	C207.5,271.4,207.3,270.8,206.7,271z"/>
<path class="st0" d="M209.5,221.1c-0.4,0.2-0.6,0.7-0.7,1.1c0,0.5,0.1,1.1,0.7,0.9c0.4-0.2,0.6-0.7,0.7-1.1
	C210.3,221.6,210.1,220.9,209.5,221.1z"/>
<path class="st0" d="M209.5,225.2c-0.4,0.2-0.6,0.7-0.7,1.1c0,0.5,0.1,1.1,0.7,0.9c0.4-0.2,0.6-0.7,0.7-1.1
	C210.3,225.6,210.1,225,209.5,225.2z"/>
<path class="st0" d="M209.5,229.3c-0.4,0.2-0.6,0.7-0.7,1.1c0,0.5,0.1,1.1,0.7,0.9c0.4-0.2,0.6-0.7,0.7-1.1
	C210.3,229.7,210.1,229,209.5,229.3z"/>
<path class="st0" d="M209.5,233.3c-0.4,0.2-0.6,0.7-0.7,1.1c0,0.5,0.1,1.1,0.7,0.9c0.4-0.2,0.6-0.7,0.7-1.1
	C210.3,233.8,210.1,233.1,209.5,233.3z"/>
<path class="st0" d="M209.5,237.4c-0.4,0.2-0.6,0.7-0.7,1.1c0,0.5,0.1,1.1,0.7,0.9c0.4-0.2,0.6-0.7,0.7-1.1
	C210.3,237.8,210.1,237.2,209.5,237.4z"/>
<path class="st0" d="M209.5,241.5c-0.4,0.2-0.6,0.7-0.7,1.1c0,0.5,0.1,1.1,0.7,0.9c0.4-0.2,0.6-0.7,0.7-1.1
	C210.3,241.9,210.1,241.2,209.5,241.5"/>
<path class="st0" d="M209.5,245.5c-0.4,0.2-0.6,0.7-0.7,1.1c0,0.5,0.1,1.1,0.7,0.9c0.4-0.2,0.6-0.7,0.7-1.1
	C210.3,246,210.1,245.3,209.5,245.5z"/>
<path class="st0" d="M209.5,249.6c-0.4,0.2-0.6,0.7-0.7,1.1c0,0.5,0.1,1.1,0.7,0.9c0.4-0.2,0.6-0.7,0.7-1.1
	C210.3,250,210.1,249.4,209.5,249.6z"/>
<path class="st0" d="M209.5,253.7c-0.4,0.2-0.6,0.7-0.7,1.1c0,0.5,0.1,1.1,0.7,0.9c0.4-0.2,0.6-0.7,0.7-1.1
	C210.3,254.1,210.1,253.4,209.5,253.7z"/>
<path class="st0" d="M209.5,257.7c-0.4,0.2-0.6,0.7-0.7,1.1c0,0.5,0.1,1.1,0.7,0.9c0.4-0.2,0.6-0.7,0.7-1.1
	C210.3,258.2,210.1,257.5,209.5,257.7z"/>
<path class="st0" d="M209.5,261.8c-0.4,0.2-0.6,0.7-0.7,1.1c0,0.5,0.1,1.1,0.7,0.9c0.4-0.2,0.6-0.7,0.7-1.1
	C210.3,262.3,210.1,261.6,209.5,261.8"/>
<path class="st0" d="M209.5,265.9c-0.4,0.2-0.6,0.7-0.7,1.1c0,0.5,0.1,1.1,0.7,0.9c0.4-0.2,0.6-0.7,0.7-1.1
	C210.3,266.3,210.1,265.6,209.5,265.9z"/>
<path class="st0" d="M209.5,269.9c-0.4,0.2-0.6,0.7-0.7,1.1c0,0.5,0.1,1.1,0.7,0.9c0.4-0.2,0.6-0.7,0.7-1.1
	C210.3,270.4,210.1,269.7,209.5,269.9z"/>
<path class="st0" d="M209.5,274c-0.4,0.2-0.6,0.7-0.7,1.1c0,0.5,0.1,1.1,0.7,0.9c0.4-0.2,0.6-0.7,0.7-1.1
	C210.3,274.5,210.1,273.8,209.5,274z"/>
<path class="st0" d="M212.2,220.1c-0.4,0.2-0.6,0.8-0.6,1.1c0,0.4,0.1,1.1,0.6,0.9c0.4-0.2,0.6-0.8,0.6-1.1
	C212.9,220.5,212.8,219.8,212.2,220.1z"/>
<path class="st0" d="M212.2,224.1c-0.4,0.2-0.6,0.8-0.6,1.1c0,0.4,0.1,1.1,0.6,0.9c0.4-0.2,0.6-0.8,0.6-1.1
	C212.9,224.6,212.8,223.9,212.2,224.1z"/>
<path class="st0" d="M212.2,228.2c-0.4,0.2-0.6,0.8-0.6,1.1c0,0.4,0.1,1.1,0.6,0.9c0.4-0.2,0.6-0.8,0.6-1.1
	C212.9,228.7,212.8,227.9,212.2,228.2z"/>
<path class="st0" d="M212.2,232.3c-0.4,0.2-0.6,0.8-0.6,1.1c0,0.4,0.1,1.1,0.6,0.9c0.4-0.2,0.6-0.8,0.6-1.1
	C212.9,232.7,212.8,232,212.2,232.3z"/>
<path class="st0" d="M212.2,236.3c-0.4,0.2-0.6,0.8-0.6,1.1c0,0.4,0.1,1.1,0.6,0.9c0.4-0.2,0.6-0.8,0.6-1.1
	C212.9,236.8,212.8,236.1,212.2,236.3z"/>
<path class="st0" d="M212.2,240.4c-0.4,0.2-0.6,0.8-0.6,1.1c0,0.4,0.1,1.1,0.6,0.9c0.4-0.2,0.6-0.8,0.6-1.1
	C212.9,240.9,212.8,240.2,212.2,240.4z"/>
<path class="st0" d="M212.2,244.5c-0.4,0.2-0.6,0.8-0.6,1.1c0,0.4,0.1,1.1,0.6,0.9c0.4-0.2,0.6-0.8,0.6-1.1
	C212.9,244.9,212.8,244.2,212.2,244.5z"/>
<path class="st0" d="M212.2,248.5c-0.4,0.2-0.6,0.8-0.6,1.1c0,0.4,0.1,1.1,0.6,0.9c0.4-0.2,0.6-0.8,0.6-1.1
	C212.9,249,212.8,248.3,212.2,248.5z"/>
<path class="st0" d="M212.2,252.6c-0.4,0.2-0.6,0.8-0.6,1.1c0,0.4,0.1,1.1,0.6,0.9c0.4-0.2,0.6-0.8,0.6-1.1
	C212.9,253.1,212.8,252.4,212.2,252.6"/>
<path class="st0" d="M212.2,256.7c-0.4,0.2-0.6,0.8-0.6,1.1c0,0.4,0.1,1.1,0.6,0.9c0.4-0.2,0.6-0.8,0.6-1.1
	C212.9,257.1,212.8,256.4,212.2,256.7z"/>
<path class="st0" d="M212.2,260.7c-0.4,0.2-0.6,0.8-0.6,1.1c0,0.4,0.1,1.1,0.6,0.9c0.4-0.2,0.6-0.8,0.6-1.1
	C212.9,261.2,212.8,260.5,212.2,260.7z"/>
<path class="st0" d="M212.2,264.8c-0.4,0.2-0.6,0.8-0.6,1.1c0,0.4,0.1,1.1,0.6,0.9c0.4-0.2,0.6-0.8,0.6-1.1
	C212.9,265.3,212.8,264.6,212.2,264.8z"/>
<path class="st0" d="M212.2,268.9c-0.4,0.2-0.6,0.8-0.6,1.1c0,0.4,0.1,1.1,0.6,0.9c0.4-0.2,0.6-0.8,0.6-1.1
	C212.9,269.3,212.8,268.6,212.2,268.9z"/>
<path class="st0" d="M212.2,272.9c-0.4,0.2-0.6,0.8-0.6,1.1c0,0.4,0.1,1.1,0.6,0.9c0.4-0.2,0.6-0.8,0.6-1.1
	C212.9,273.4,212.8,272.7,212.2,272.9z"/>
<path class="st0" d="M214.7,214.9c-0.4,0.2-0.6,0.8-0.6,1.1c0,0.4,0,1.2,0.6,0.9c0.4-0.2,0.6-0.8,0.6-1.1
	C215.3,215.4,215.3,214.6,214.7,214.9z"/>
<path class="st0" d="M214.7,219c-0.4,0.2-0.6,0.8-0.6,1.1c0,0.4,0,1.2,0.6,0.9c0.4-0.2,0.6-0.8,0.6-1.1
	C215.3,219.4,215.3,218.7,214.7,219z"/>
<path class="st0" d="M214.7,223c-0.4,0.2-0.6,0.8-0.6,1.1c0,0.4,0,1.2,0.6,0.9c0.4-0.2,0.6-0.8,0.6-1.1
	C215.3,223.5,215.3,222.8,214.7,223z"/>
<path class="st0" d="M214.7,227.1c-0.4,0.2-0.6,0.8-0.6,1.1c0,0.4,0,1.2,0.6,0.9c0.4-0.2,0.6-0.8,0.6-1.1
	C215.3,227.6,215.3,226.8,214.7,227.1z"/>
<path class="st0" d="M214.7,231.2c-0.4,0.2-0.6,0.8-0.6,1.1c0,0.4,0,1.2,0.6,0.9c0.4-0.2,0.6-0.8,0.6-1.1
	C215.3,231.6,215.3,230.9,214.7,231.2z"/>
<path class="st0" d="M214.7,235.2c-0.4,0.2-0.6,0.8-0.6,1.1c0,0.4,0,1.2,0.6,0.9c0.4-0.2,0.6-0.8,0.6-1.1
	C215.3,235.7,215.3,235,214.7,235.2z"/>
<path class="st0" d="M214.7,239.3c-0.4,0.2-0.6,0.8-0.6,1.1c0,0.4,0,1.2,0.6,0.9c0.4-0.2,0.6-0.8,0.6-1.1
	C215.3,239.8,215.3,239,214.7,239.3z"/>
<path class="st0" d="M214.7,243.4c-0.4,0.2-0.6,0.8-0.6,1.1c0,0.4,0,1.2,0.6,0.9c0.4-0.2,0.6-0.8,0.6-1.1
	C215.3,243.8,215.3,243.1,214.7,243.4z"/>
<path class="st0" d="M214.7,247.4c-0.4,0.2-0.6,0.8-0.6,1.1c0,0.4,0,1.2,0.6,0.9c0.4-0.2,0.6-0.8,0.6-1.1
	C215.3,247.9,215.3,247.2,214.7,247.4z"/>
<path class="st0" d="M214.7,251.5c-0.4,0.2-0.6,0.8-0.6,1.1c0,0.4,0,1.2,0.6,0.9c0.4-0.2,0.6-0.8,0.6-1.1
	C215.3,252,215.3,251.2,214.7,251.5z"/>
<path class="st0" d="M214.7,255.6c-0.4,0.2-0.6,0.8-0.6,1.1c0,0.4,0,1.2,0.6,0.9c0.4-0.2,0.6-0.8,0.6-1.1
	C215.3,256,215.3,255.3,214.7,255.6z"/>
<path class="st0" d="M214.7,259.6c-0.4,0.2-0.6,0.8-0.6,1.1c0,0.4,0,1.2,0.6,0.9c0.4-0.2,0.6-0.8,0.6-1.1
	C215.3,260.1,215.3,259.4,214.7,259.6z"/>
<path class="st0" d="M214.7,263.7c-0.4,0.2-0.6,0.8-0.6,1.1c0,0.4,0,1.2,0.6,0.9c0.4-0.2,0.6-0.8,0.6-1.1
	C215.3,264.2,215.3,263.4,214.7,263.7z"/>
<path class="st0" d="M214.7,267.8c-0.4,0.2-0.6,0.8-0.6,1.1c0,0.4,0,1.2,0.6,0.9c0.4-0.2,0.6-0.8,0.6-1.1
	C215.3,268.2,215.3,267.5,214.7,267.8"/>
<path class="st0" d="M214.7,271.8c-0.4,0.2-0.6,0.8-0.6,1.1c0,0.4,0,1.2,0.6,0.9c0.4-0.2,0.6-0.8,0.6-1.1
	C215.3,272.3,215.3,271.6,214.7,271.8z"/>
<path class="st0" d="M214.7,275.9c-0.4,0.2-0.6,0.8-0.6,1.1c0,0.4,0,1.2,0.6,0.9c0.4-0.2,0.6-0.8,0.6-1.1
	C215.3,276.4,215.3,275.6,214.7,275.9z"/>
<path class="st0" d="M217.1,213.8c-0.4,0.2-0.5,0.8-0.6,1.1c0,0.2,0,0.4,0.1,0.6c0.1,0.3,0.2,0.4,0.5,0.3c0.4-0.2,0.5-0.8,0.6-1.1
	c0-0.2,0-0.4-0.1-0.6C217.5,213.8,217.3,213.6,217.1,213.8z"/>
<path class="st0" d="M217.1,217.8c-0.4,0.2-0.5,0.8-0.6,1.1c0,0.2,0,0.4,0.1,0.6c0.1,0.3,0.2,0.4,0.5,0.3c0.4-0.2,0.5-0.8,0.6-1.1
	c0-0.2,0-0.4-0.1-0.6C217.5,217.8,217.3,217.7,217.1,217.8z"/>
<path class="st0" d="M217.1,221.9c-0.4,0.2-0.5,0.8-0.6,1.1c0,0.2,0,0.4,0.1,0.6c0.1,0.3,0.2,0.4,0.5,0.3c0.4-0.2,0.5-0.8,0.6-1.1
	c0-0.2,0-0.4-0.1-0.6C217.5,221.9,217.3,221.8,217.1,221.9z"/>
<path class="st0" d="M217.1,226c-0.4,0.2-0.5,0.8-0.6,1.1c0,0.2,0,0.4,0.1,0.6c0.1,0.3,0.2,0.4,0.5,0.3c0.4-0.2,0.5-0.8,0.6-1.1
	c0-0.2,0-0.4-0.1-0.6C217.5,226,217.3,225.8,217.1,226z"/>
<path class="st0" d="M217.1,230c-0.4,0.2-0.5,0.8-0.6,1.1c0,0.2,0,0.4,0.1,0.6c0.1,0.3,0.2,0.4,0.5,0.3c0.4-0.2,0.5-0.8,0.6-1.1
	c0-0.2,0-0.4-0.1-0.6C217.5,230,217.3,229.9,217.1,230z"/>
<path class="st0" d="M217.1,234.1c-0.4,0.2-0.5,0.8-0.6,1.1c0,0.2,0,0.4,0.1,0.6c0.1,0.3,0.2,0.4,0.5,0.3c0.4-0.2,0.5-0.8,0.6-1.1
	c0-0.2,0-0.4-0.1-0.6C217.5,234.1,217.3,234,217.1,234.1z"/>
<path class="st0" d="M217.1,238.2c-0.4,0.2-0.5,0.8-0.6,1.1c0,0.2,0,0.4,0.1,0.6c0.1,0.3,0.2,0.4,0.5,0.3c0.4-0.2,0.5-0.8,0.6-1.1
	c0-0.2,0-0.4-0.1-0.6C217.5,238.2,217.3,238,217.1,238.2z"/>
<path class="st0" d="M217.1,242.2c-0.4,0.2-0.5,0.8-0.6,1.1c0,0.2,0,0.4,0.1,0.6c0.1,0.3,0.2,0.4,0.5,0.3c0.4-0.2,0.5-0.8,0.6-1.1
	c0-0.2,0-0.4-0.1-0.6C217.5,242.2,217.3,242.1,217.1,242.2z"/>
<path class="st0" d="M217.1,246.3c-0.4,0.2-0.5,0.8-0.6,1.1c0,0.2,0,0.4,0.1,0.6c0.1,0.3,0.2,0.4,0.5,0.3c0.4-0.2,0.5-0.8,0.6-1.1
	c0-0.2,0-0.4-0.1-0.6C217.5,246.3,217.3,246.2,217.1,246.3z"/>
<path class="st0" d="M217.1,250.4c-0.4,0.2-0.5,0.8-0.6,1.1c0,0.2,0,0.4,0.1,0.6c0.1,0.3,0.2,0.4,0.5,0.3c0.4-0.2,0.5-0.8,0.6-1.1
	c0-0.2,0-0.4-0.1-0.6C217.5,250.4,217.3,250.2,217.1,250.4z"/>
<path class="st0" d="M217.1,254.4c-0.4,0.2-0.5,0.8-0.6,1.1c0,0.2,0,0.4,0.1,0.6c0.1,0.3,0.2,0.4,0.5,0.3c0.4-0.2,0.5-0.8,0.6-1.1
	c0-0.2,0-0.4-0.1-0.6C217.5,254.4,217.3,254.3,217.1,254.4z"/>
<path class="st0" d="M217.1,258.5c-0.4,0.2-0.5,0.8-0.6,1.1c0,0.2,0,0.4,0.1,0.6c0.1,0.3,0.2,0.4,0.5,0.3c0.4-0.2,0.5-0.8,0.6-1.1
	c0-0.2,0-0.4-0.1-0.6C217.5,258.5,217.3,258.4,217.1,258.5z"/>
<path class="st0" d="M217.1,262.6c-0.4,0.2-0.5,0.8-0.6,1.1c0,0.2,0,0.4,0.1,0.6c0.1,0.3,0.2,0.4,0.5,0.3c0.4-0.2,0.5-0.8,0.6-1.1
	c0-0.2,0-0.4-0.1-0.6C217.5,262.6,217.3,262.4,217.1,262.6z"/>
<path class="st0" d="M217.1,266.6c-0.4,0.2-0.5,0.7-0.6,1.1c0,0.2,0,0.4,0,0.6c0.1,0.2,0.1,0.4,0.4,0.4c0.4-0.1,0.6-0.7,0.6-1
	C217.6,267.4,217.6,266.7,217.1,266.6"/>
<path class="st0" d="M217.1,270.7c-0.4,0.2-0.5,0.8-0.6,1.1c0,0.2,0,0.4,0.1,0.6c0.1,0.3,0.2,0.4,0.5,0.3c0.4-0.2,0.5-0.8,0.6-1.1
	c0-0.2,0-0.4-0.1-0.6C217.5,270.7,217.4,270.6,217.1,270.7"/>
<path class="st0" d="M217.1,274.8c-0.4,0.2-0.5,0.8-0.6,1.1c0,0.2,0,0.4,0.1,0.6c0.1,0.3,0.2,0.4,0.5,0.3c0.4-0.2,0.5-0.8,0.6-1.1
	c0-0.2,0-0.4-0.1-0.6C217.5,274.8,217.3,274.6,217.1,274.8z"/>
<path class="st0" d="M219.3,212.6c-0.3,0.2-0.5,0.8-0.5,1.1c0,0.2,0,0.4,0.1,0.6c0.1,0.2,0.2,0.4,0.5,0.3c0.3-0.2,0.5-0.8,0.5-1.1
	c0-0.2,0-0.4-0.1-0.6C219.7,212.6,219.6,212.5,219.3,212.6z"/>
<path class="st0" d="M219.3,216.7c-0.3,0.2-0.5,0.8-0.5,1.1c0,0.2,0,0.4,0.1,0.6c0.1,0.2,0.2,0.4,0.5,0.3c0.3-0.2,0.5-0.8,0.5-1.1
	c0-0.2,0-0.4-0.1-0.6C219.7,216.7,219.6,216.5,219.3,216.7z"/>
<path class="st0" d="M219.3,220.7c-0.3,0.2-0.5,0.8-0.5,1.1c0,0.2,0,0.4,0.1,0.6c0.1,0.2,0.2,0.4,0.5,0.3c0.3-0.2,0.5-0.8,0.5-1.1
	c0-0.2,0-0.4-0.1-0.6C219.7,220.8,219.6,220.6,219.3,220.7z"/>
<path class="st0" d="M219.3,224.8c-0.3,0.2-0.5,0.8-0.5,1.1c0,0.2,0,0.4,0.1,0.6c0.1,0.2,0.2,0.4,0.5,0.3c0.3-0.2,0.5-0.8,0.5-1.1
	c0-0.2,0-0.4-0.1-0.6C219.7,224.8,219.6,224.7,219.3,224.8z"/>
<path class="st0" d="M219.3,228.9c-0.3,0.2-0.5,0.8-0.5,1.1c0,0.2,0,0.4,0.1,0.6c0.1,0.2,0.2,0.4,0.5,0.3c0.3-0.2,0.5-0.8,0.5-1.1
	c0-0.2,0-0.4-0.1-0.6C219.7,228.9,219.6,228.7,219.3,228.9z"/>
<path class="st0" d="M219.3,232.9c-0.3,0.2-0.5,0.8-0.5,1.1c0,0.2,0,0.4,0.1,0.6c0.1,0.2,0.2,0.4,0.5,0.3c0.3-0.2,0.5-0.8,0.5-1.1
	c0-0.2,0-0.4-0.1-0.6C219.7,233,219.6,232.8,219.3,232.9z"/>
<path class="st0" d="M219.3,237c-0.3,0.2-0.5,0.8-0.5,1.1c0,0.2,0,0.4,0.1,0.6c0.1,0.2,0.2,0.4,0.5,0.3c0.3-0.2,0.5-0.8,0.5-1.1
	c0-0.2,0-0.4-0.1-0.6C219.7,237,219.6,236.9,219.3,237z"/>
<path class="st0" d="M219.3,241.1c-0.3,0.2-0.5,0.8-0.5,1.1c0,0.2,0,0.4,0.1,0.6c0.1,0.2,0.2,0.4,0.5,0.3c0.3-0.2,0.5-0.8,0.5-1.1
	c0-0.2,0-0.4-0.1-0.6C219.7,241.1,219.6,240.9,219.3,241.1z"/>
<path class="st0" d="M219.3,245.1c-0.3,0.2-0.5,0.8-0.5,1.1c0,0.2,0,0.4,0.1,0.6c0.1,0.2,0.2,0.4,0.5,0.3c0.3-0.2,0.5-0.8,0.5-1.1
	c0-0.2,0-0.4-0.1-0.6S219.6,245,219.3,245.1z"/>
<path class="st0" d="M219.3,249.2c-0.3,0.2-0.5,0.8-0.5,1.1c0,0.2,0,0.4,0.1,0.6c0.1,0.2,0.2,0.4,0.5,0.3c0.3-0.2,0.5-0.8,0.5-1.1
	c0-0.2,0-0.4-0.1-0.6C219.7,249.2,219.6,249.1,219.3,249.2z"/>
<path class="st0" d="M219.3,253.3c-0.3,0.2-0.5,0.8-0.5,1.1c0,0.2,0,0.4,0.1,0.6c0.1,0.2,0.2,0.4,0.5,0.3c0.3-0.2,0.5-0.8,0.5-1.1
	c0-0.2,0-0.4-0.1-0.6C219.7,253.3,219.6,253.1,219.3,253.3z"/>
<path class="st0" d="M219.3,257.4c-0.3,0.2-0.5,0.8-0.5,1.1c0,0.2,0,0.4,0.1,0.6s0.2,0.4,0.5,0.3c0.3-0.2,0.5-0.8,0.5-1.1
	c0-0.2,0-0.4-0.1-0.6C219.7,257.4,219.6,257.2,219.3,257.4"/>
<path class="st0" d="M219.3,261.4c-0.3,0.2-0.5,0.8-0.5,1.1c0,0.2,0,0.4,0.1,0.6s0.2,0.4,0.5,0.3c0.3-0.2,0.5-0.8,0.5-1.1
	c0-0.2,0-0.4-0.1-0.6C219.7,261.4,219.6,261.3,219.3,261.4z"/>
<path class="st0" d="M219.3,265.5c-0.3,0.2-0.5,0.8-0.5,1.1c0,0.2,0,0.4,0.1,0.6s0.2,0.4,0.5,0.3c0.3-0.2,0.5-0.8,0.5-1.1
	c0-0.2,0-0.4-0.1-0.6C219.7,265.5,219.6,265.3,219.3,265.5z"/>
<path class="st0" d="M219.3,269.6c-0.3,0.2-0.5,0.8-0.5,1.1c0,0.2,0,0.4,0.1,0.6s0.2,0.4,0.5,0.3c0.3-0.2,0.5-0.8,0.5-1.1
	c0-0.2,0-0.4-0.1-0.6C219.7,269.6,219.6,269.4,219.3,269.6z"/>
<path class="st0" d="M219.3,273.6c-0.3,0.2-0.5,0.8-0.5,1.1c0,0.2,0,0.4,0.1,0.6s0.2,0.4,0.5,0.3c0.3-0.2,0.5-0.8,0.5-1.1
	c0-0.2,0-0.4-0.1-0.6C219.7,273.6,219.6,273.5,219.3,273.6z"/>
<path class="st0" d="M221.4,211.4c-0.3,0.2-0.5,0.8-0.5,1.1c0,0.2,0,0.4,0,0.6c0.1,0.2,0.2,0.4,0.4,0.3c0.3-0.2,0.5-0.8,0.5-1.1
	c0-0.2,0-0.4,0-0.6C221.7,211.5,221.6,211.3,221.4,211.4"/>
<path class="st0" d="M221.4,215.5c-0.3,0.2-0.5,0.8-0.5,1.1c0,0.2,0,0.4,0,0.6c0.1,0.2,0.2,0.4,0.4,0.3c0.3-0.2,0.5-0.8,0.5-1.1
	c0-0.2,0-0.4,0-0.6C221.7,215.5,221.6,215.3,221.4,215.5"/>
<path class="st0" d="M221.4,219.6c-0.3,0.2-0.5,0.8-0.5,1.1c0,0.2,0,0.4,0,0.6c0.1,0.2,0.2,0.4,0.4,0.3c0.3-0.2,0.5-0.8,0.5-1.1
	c0-0.2,0-0.4,0-0.6C221.7,219.6,221.6,219.4,221.4,219.6"/>
<path class="st0" d="M221.4,223.6c-0.3,0.2-0.5,0.8-0.5,1.1c0,0.2,0,0.4,0,0.6c0.1,0.2,0.2,0.4,0.4,0.3c0.3-0.2,0.5-0.8,0.5-1.1
	c0-0.2,0-0.4,0-0.6C221.7,223.7,221.6,223.5,221.4,223.6"/>
<path class="st0" d="M221.4,227.7c-0.3,0.2-0.5,0.8-0.5,1.1c0,0.2,0,0.4,0,0.6c0.1,0.2,0.2,0.4,0.4,0.3c0.3-0.2,0.5-0.8,0.5-1.1
	c0-0.2,0-0.4,0-0.6C221.7,227.8,221.6,227.5,221.4,227.7"/>
<path class="st0" d="M221.4,231.8c-0.3,0.2-0.5,0.8-0.5,1.1c0,0.2,0,0.4,0,0.6c0.1,0.2,0.2,0.4,0.4,0.3c0.3-0.2,0.5-0.8,0.5-1.1
	c0-0.2,0-0.4,0-0.6C221.7,231.8,221.6,231.6,221.4,231.8"/>
<path class="st0" d="M221.4,235.8c-0.3,0.2-0.5,0.8-0.5,1.1c0,0.2,0,0.4,0,0.6c0.1,0.2,0.2,0.4,0.4,0.3c0.3-0.2,0.5-0.8,0.5-1.1
	c0-0.2,0-0.4,0-0.6C221.7,235.9,221.6,235.7,221.4,235.8"/>
<path class="st0" d="M221.4,239.9c-0.3,0.2-0.5,0.8-0.5,1.1c0,0.2,0,0.4,0,0.6c0.1,0.2,0.2,0.4,0.4,0.3c0.3-0.2,0.5-0.8,0.5-1.1
	c0-0.2,0-0.4,0-0.6C221.7,240,221.6,239.7,221.4,239.9"/>
<path class="st0" d="M221.4,244c-0.3,0.2-0.5,0.8-0.5,1.1c0,0.2,0,0.4,0,0.6c0.1,0.2,0.2,0.4,0.4,0.3c0.3-0.2,0.5-0.8,0.5-1.1
	c0-0.2,0-0.4,0-0.6C221.7,244,221.6,243.8,221.4,244"/>
<path class="st0" d="M221.4,248c-0.3,0.2-0.5,0.8-0.5,1.1c0,0.2,0,0.4,0,0.6c0.1,0.2,0.2,0.4,0.4,0.3c0.3-0.2,0.5-0.8,0.5-1.1
	c0-0.2,0-0.4,0-0.6C221.7,248.1,221.7,247.9,221.4,248"/>
<path class="st0" d="M221.4,252.1c-0.3,0.2-0.5,0.8-0.5,1.1c0,0.2,0,0.4,0,0.6c0.1,0.2,0.2,0.4,0.4,0.3c0.3-0.2,0.5-0.8,0.5-1.1
	c0-0.2,0-0.4,0-0.6C221.7,252.2,221.6,251.9,221.4,252.1"/>
<path class="st0" d="M221.4,256.2c-0.3,0.2-0.5,0.8-0.5,1.1c0,0.2,0,0.4,0,0.6c0.1,0.2,0.2,0.4,0.4,0.3c0.3-0.2,0.5-0.8,0.5-1.1
	c0-0.2,0-0.4,0-0.6C221.7,256.2,221.6,256,221.4,256.2"/>
<path class="st0" d="M221.4,260.2c-0.3,0.2-0.5,0.8-0.5,1.1c0,0.2,0,0.4,0,0.6c0.1,0.2,0.2,0.4,0.4,0.3c0.3-0.2,0.5-0.8,0.5-1.1
	c0-0.2,0-0.4,0-0.6C221.7,260.3,221.6,260.1,221.4,260.2"/>
<path class="st0" d="M221.4,264.3c-0.3,0.2-0.5,0.8-0.5,1.1c0,0.2,0,0.4,0,0.6c0.1,0.2,0.2,0.4,0.4,0.3c0.3-0.2,0.5-0.8,0.5-1.1
	c0-0.2,0-0.4,0-0.6C221.7,264.4,221.6,264.1,221.4,264.3"/>
<path class="st0" d="M221.4,268.4c-0.3,0.2-0.5,0.8-0.5,1.1c0,0.2,0,0.4,0,0.6c0.1,0.2,0.2,0.4,0.4,0.3c0.3-0.2,0.5-0.8,0.5-1.1
	c0-0.2,0-0.4,0-0.6C221.7,268.4,221.6,268.2,221.4,268.4"/>
<path class="st0" d="M221.4,272.4c-0.3,0.2-0.5,0.8-0.5,1.1c0,0.2,0,0.4,0,0.6c0.1,0.2,0.2,0.4,0.4,0.3c0.3-0.2,0.5-0.8,0.5-1.1
	c0-0.2,0-0.4,0-0.6C221.7,272.5,221.6,272.3,221.4,272.4"/>
<path class="st0" d="M223.3,210.2c-0.3,0.2-0.4,0.8-0.5,1.1c0,0.2,0,0.4,0,0.6c0.1,0.2,0.1,0.5,0.4,0.3c0.3-0.2,0.4-0.8,0.5-1.1
	c0-0.2,0-0.4,0-0.6C223.7,210.3,223.6,210.1,223.3,210.2z"/>
<path class="st0" d="M223.3,214.3c-0.3,0.2-0.4,0.8-0.5,1.1c0,0.2,0,0.4,0,0.6c0.1,0.2,0.1,0.5,0.4,0.3c0.3-0.2,0.4-0.8,0.5-1.1
	c0-0.2,0-0.4,0-0.6S223.6,214.1,223.3,214.3z"/>
<path class="st0" d="M223.3,218.4c-0.3,0.2-0.4,0.8-0.5,1.1c0,0.2,0,0.4,0,0.6c0.1,0.2,0.1,0.5,0.4,0.3c0.3-0.2,0.4-0.8,0.5-1.1
	c0-0.2,0-0.4,0-0.6C223.7,218.4,223.6,218.2,223.3,218.4z"/>
<path class="st0" d="M223.3,222.4c-0.3,0.2-0.4,0.8-0.5,1.1c0,0.2,0,0.4,0,0.6c0.1,0.2,0.1,0.5,0.4,0.3c0.3-0.2,0.4-0.8,0.5-1.1
	c0-0.2,0-0.4,0-0.6C223.7,222.5,223.6,222.3,223.3,222.4z"/>
<path class="st0" d="M223.3,226.5c-0.3,0.2-0.4,0.8-0.5,1.1c0,0.2,0,0.4,0,0.6c0.1,0.2,0.1,0.5,0.4,0.3c0.3-0.2,0.4-0.8,0.5-1.1
	c0-0.2,0-0.4,0-0.6C223.7,226.6,223.6,226.3,223.3,226.5z"/>
<path class="st0" d="M223.3,230.6c-0.3,0.2-0.4,0.8-0.5,1.1c0,0.2,0,0.4,0,0.6c0.1,0.2,0.1,0.5,0.4,0.3c0.3-0.2,0.4-0.8,0.5-1.1
	c0-0.2,0-0.4,0-0.6C223.7,230.6,223.6,230.4,223.3,230.6z"/>
<path class="st0" d="M223.3,234.6c-0.3,0.2-0.4,0.8-0.5,1.1c0,0.2,0,0.4,0,0.6c0.1,0.2,0.1,0.5,0.4,0.3c0.3-0.2,0.4-0.8,0.5-1.1
	c0-0.2,0-0.4,0-0.6S223.6,234.5,223.3,234.6z"/>
<path class="st0" d="M223.3,238.7c-0.3,0.2-0.4,0.8-0.5,1.1c0,0.2,0,0.4,0,0.6c0.1,0.2,0.1,0.5,0.4,0.3c0.3-0.2,0.4-0.8,0.5-1.1
	c0-0.2,0-0.4,0-0.6C223.7,238.8,223.6,238.5,223.3,238.7z"/>
<path class="st0" d="M223.3,242.8c-0.3,0.2-0.4,0.8-0.5,1.1c0,0.2,0,0.4,0,0.6c0.1,0.2,0.1,0.5,0.4,0.3c0.3-0.2,0.4-0.8,0.5-1.1
	c0-0.2,0-0.4,0-0.6C223.7,242.8,223.6,242.6,223.3,242.8z"/>
<path class="st0" d="M223.3,246.8c-0.3,0.2-0.4,0.8-0.5,1.1c0,0.2,0,0.4,0,0.6c0.1,0.2,0.1,0.5,0.4,0.3c0.3-0.2,0.4-0.8,0.5-1.1
	c0-0.2,0-0.4,0-0.6S223.6,246.7,223.3,246.8z"/>
<path class="st0" d="M223.3,250.9c-0.3,0.2-0.4,0.8-0.5,1.1c0,0.2,0,0.4,0,0.6c0.1,0.2,0.1,0.5,0.4,0.3c0.3-0.2,0.4-0.8,0.5-1.1
	c0-0.2,0-0.4,0-0.6C223.7,251,223.6,250.7,223.3,250.9z"/>
<path class="st0" d="M223.3,255c-0.3,0.2-0.4,0.8-0.5,1.1c0,0.2,0,0.4,0,0.6c0.1,0.2,0.1,0.5,0.4,0.3c0.3-0.2,0.4-0.8,0.5-1.1
	c0-0.2,0-0.4,0-0.6C223.7,255,223.6,254.8,223.3,255z"/>
<path class="st0" d="M223.3,259c-0.3,0.2-0.4,0.8-0.5,1.1c0,0.2,0,0.4,0,0.6c0.1,0.2,0.1,0.5,0.4,0.3c0.3-0.2,0.4-0.8,0.5-1.1
	c0-0.2,0-0.4,0-0.6C223.7,259.1,223.6,258.9,223.3,259"/>
<path class="st0" d="M223.3,263.1c-0.3,0.2-0.4,0.8-0.5,1.1c0,0.2,0,0.4,0,0.6c0.1,0.2,0.1,0.5,0.4,0.3c0.3-0.2,0.4-0.8,0.5-1.1
	c0-0.2,0-0.4,0-0.6C223.7,263.2,223.6,262.9,223.3,263.1z"/>
<path class="st0" d="M32.9,60.2c-0.2,0-0.3-0.1-0.5-0.1"/>
<path class="st0" d="M32.2,59.9c-0.1,0-0.1-0.1-0.1-0.2"/>
<path class="st0" d="M101,68.7c9.8,3,20.6,16.4,23.8,25.5"/>
<path class="st0" d="M223.3,267.2c-0.3,0.2-0.4,0.8-0.5,1.1c0,0.2,0,0.4,0,0.6c0.1,0.2,0.1,0.5,0.4,0.3c0.3-0.2,0.4-0.8,0.5-1.1
	c0-0.2,0-0.4,0-0.6C223.7,267.2,223.6,267,223.3,267.2z"/>
<path class="st0" d="M223.3,271.2c-0.3,0.2-0.4,0.8-0.5,1.1c0,0.2,0,0.4,0,0.6c0.1,0.2,0.1,0.5,0.4,0.3c0.3-0.2,0.4-0.8,0.5-1.1
	c0-0.2,0-0.4,0-0.6S223.6,271.1,223.3,271.2z"/>
<path class="st0" d="M225.1,209c-0.3,0.2-0.4,0.8-0.4,1.1c0,0.2,0,0.4,0,0.6c0.1,0.2,0.1,0.5,0.4,0.3c0.3-0.2,0.4-0.8,0.4-1.1
	c0-0.2,0-0.4,0-0.6C225.5,209.1,225.4,208.8,225.1,209z"/>
<path class="st0" d="M225.1,213.1c-0.3,0.2-0.4,0.8-0.4,1.1c0,0.2,0,0.4,0,0.6c0.1,0.2,0.1,0.5,0.4,0.3c0.3-0.2,0.4-0.8,0.4-1.1
	c0-0.2,0-0.4,0-0.6S225.4,212.9,225.1,213.1z"/>
<path class="st0" d="M225.1,217.1c-0.3,0.2-0.4,0.8-0.4,1.1c0,0.2,0,0.4,0,0.6c0.1,0.2,0.1,0.5,0.4,0.3c0.3-0.2,0.4-0.8,0.4-1.1
	c0-0.2,0-0.4,0-0.6S225.4,217,225.1,217.1z"/>
<path class="st0" d="M225.1,221.2c-0.3,0.2-0.4,0.8-0.4,1.1c0,0.2,0,0.4,0,0.6c0.1,0.2,0.1,0.5,0.4,0.3c0.3-0.2,0.4-0.8,0.4-1.1
	c0-0.2,0-0.4,0-0.6C225.5,221.3,225.4,221,225.1,221.2z"/>
<path class="st0" d="M225.1,225.3c-0.3,0.2-0.4,0.8-0.4,1.1c0,0.2,0,0.4,0,0.6c0.1,0.2,0.1,0.5,0.4,0.3c0.3-0.2,0.4-0.8,0.4-1.1
	c0-0.2,0-0.4,0-0.6S225.4,225.1,225.1,225.3z"/>
<path class="st0" d="M225.1,229.3c-0.3,0.2-0.4,0.8-0.4,1.1c0,0.2,0,0.4,0,0.6c0.1,0.2,0.1,0.5,0.4,0.3c0.3-0.2,0.4-0.8,0.4-1.1
	c0-0.2,0-0.4,0-0.6S225.4,229.2,225.1,229.3z"/>
<path class="st0" d="M225.1,233.4c-0.3,0.2-0.4,0.8-0.4,1.1c0,0.2,0,0.4,0,0.6c0.1,0.2,0.1,0.5,0.4,0.3c0.3-0.2,0.4-0.8,0.4-1.1
	c0-0.2,0-0.4,0-0.6C225.5,233.5,225.4,233.2,225.1,233.4z"/>
<path class="st0" d="M225.1,237.5c-0.3,0.2-0.4,0.8-0.4,1.1c0,0.2,0,0.4,0,0.6c0.1,0.2,0.1,0.5,0.4,0.3c0.3-0.2,0.4-0.8,0.4-1.1
	c0-0.2,0-0.4,0-0.6C225.5,237.6,225.4,237.3,225.1,237.5z"/>
<path class="st0" d="M225.1,241.5c-0.3,0.2-0.4,0.8-0.4,1.1c0,0.2,0,0.4,0,0.6c0.1,0.2,0.1,0.5,0.4,0.3c0.3-0.2,0.4-0.8,0.4-1.1
	c0-0.2,0-0.4,0-0.6C225.5,241.6,225.4,241.4,225.1,241.5z"/>
<path class="st0" d="M225.1,245.6c-0.3,0.2-0.4,0.8-0.4,1.1c0,0.2,0,0.4,0,0.6c0.1,0.2,0.1,0.5,0.4,0.3c0.3-0.2,0.4-0.8,0.4-1.1
	c0-0.2,0-0.4,0-0.6S225.4,245.4,225.1,245.6z"/>
<path class="st0" d="M225.1,249.7c-0.3,0.2-0.4,0.8-0.4,1.1c0,0.2,0,0.4,0,0.6c0.1,0.2,0.1,0.5,0.4,0.3c0.3-0.2,0.4-0.8,0.4-1.1
	c0-0.2,0-0.4,0-0.6C225.5,249.8,225.4,249.5,225.1,249.7z"/>
<path class="st0" d="M225.1,253.8c-0.3,0.2-0.4,0.8-0.4,1.1c0,0.2,0,0.4,0,0.6c0.1,0.2,0.1,0.5,0.4,0.3c0.3-0.2,0.4-0.8,0.4-1.1
	c0-0.2,0-0.4,0-0.6C225.5,253.8,225.4,253.6,225.1,253.8z"/>
<path class="st0" d="M225.1,257.8c-0.3,0.2-0.4,0.8-0.4,1.1c0,0.2,0,0.4,0,0.6c0.1,0.2,0.1,0.5,0.4,0.3c0.3-0.2,0.4-0.8,0.4-1.1
	c0-0.2,0-0.4,0-0.6C225.5,257.9,225.4,257.6,225.1,257.8z"/>
<path class="st0" d="M225.1,261.9c-0.3,0.2-0.4,0.8-0.4,1.1c0,0.2,0,0.4,0,0.6c0.1,0.2,0.1,0.5,0.4,0.3c0.3-0.2,0.4-0.8,0.4-1.1
	c0-0.2,0-0.4,0-0.6C225.5,262,225.4,261.7,225.1,261.9z"/>
<path class="st0" d="M225.1,266c-0.3,0.2-0.4,0.8-0.4,1.1c0,0.2,0,0.4,0,0.6c0.1,0.2,0.1,0.5,0.4,0.3c0.3-0.2,0.4-0.8,0.4-1.1
	c0-0.2,0-0.4,0-0.6C225.5,266,225.4,265.8,225.1,266z"/>
<path class="st0" d="M32.9,60.2c0-0.3,0-0.6,0.1-0.9"/>
<path class="st0" d="M33.1,59.1c0.1-0.3,0.3-0.6,0.5-0.8"/>
<path class="st0" d="M225.1,270c-0.3,0.2-0.4,0.8-0.4,1.1c0,0.2,0,0.4,0,0.6c0.1,0.2,0.1,0.5,0.4,0.3c0.3-0.2,0.4-0.8,0.4-1.1
	c0-0.2,0-0.4,0-0.6C225.5,270.1,225.4,269.8,225.1,270z"/>
<path class="st0" d="M226.8,211.8c-0.3,0.2-0.4,0.8-0.4,1.1c0,0.2,0,0.4,0,0.6c0,0.2,0.1,0.5,0.4,0.3c0.3-0.2,0.4-0.8,0.4-1.1
	c0-0.2,0-0.4,0-0.6C227.1,211.9,227,211.6,226.8,211.8z"/>
<path class="st0" d="M226.8,215.9c-0.3,0.2-0.4,0.8-0.4,1.1c0,0.2,0,0.4,0,0.6c0,0.2,0.1,0.5,0.4,0.3c0.3-0.2,0.4-0.8,0.4-1.1
	c0-0.2,0-0.4,0-0.6C227.1,216,227,215.7,226.8,215.9z"/>
<path class="st0" d="M226.8,220c-0.3,0.2-0.4,0.8-0.4,1.1c0,0.2,0,0.4,0,0.6c0,0.2,0.1,0.5,0.4,0.3c0.3-0.2,0.4-0.8,0.4-1.1
	c0-0.2,0-0.4,0-0.6C227.1,220.1,227,219.8,226.8,220z"/>
<path class="st0" d="M226.8,224c-0.3,0.2-0.4,0.8-0.4,1.1c0,0.2,0,0.4,0,0.6c0,0.2,0.1,0.5,0.4,0.3c0.3-0.2,0.4-0.8,0.4-1.1
	c0-0.2,0-0.4,0-0.6C227.1,224.1,227,223.8,226.8,224z"/>
<path class="st0" d="M226.8,228.1c-0.3,0.2-0.4,0.8-0.4,1.1c0,0.2,0,0.4,0,0.6c0,0.2,0.1,0.5,0.4,0.3c0.3-0.2,0.4-0.8,0.4-1.1
	c0-0.2,0-0.4,0-0.6C227.1,228.2,227,227.9,226.8,228.1z"/>
<path class="st0" d="M70.9,38.1c0.1,0,0.1,0,0.2,0"/>
<path class="st0" d="M226.8,232.2c-0.3,0.2-0.4,0.8-0.4,1.1c0,0.2,0,0.4,0,0.6c0,0.2,0.1,0.5,0.4,0.3c0.3-0.2,0.4-0.8,0.4-1.1
	c0-0.2,0-0.4,0-0.6C227.1,232.3,227,232,226.8,232.2z"/>
<path class="st0" d="M226.8,236.2c-0.3,0.2-0.4,0.8-0.4,1.1c0,0.2,0,0.4,0,0.6c0,0.2,0.1,0.5,0.4,0.3c0.3-0.2,0.4-0.8,0.4-1.1
	c0-0.2,0-0.4,0-0.6C227.1,236.3,227,236,226.8,236.2z"/>
<path class="st0" d="M33.1,59.1c0,0.1-0.1,0.1-0.1,0.2"/>
<path class="st0" d="M226.8,240.3c-0.3,0.2-0.4,0.8-0.4,1.1c0,0.2,0,0.4,0,0.6c0,0.2,0.1,0.5,0.4,0.3c0.3-0.2,0.4-0.8,0.4-1.1
	c0-0.2,0-0.4,0-0.6C227.1,240.4,227,240.1,226.8,240.3z"/>
<path class="st0" d="M32.1,59.7C32.1,59.8,32.1,59.8,32.1,59.7"/>
<path class="st0" d="M32.2,59.9C32.2,59.9,32.3,59.9,32.2,59.9"/>
<path class="st0" d="M226.8,244.4c-0.3,0.2-0.4,0.8-0.4,1.1c0,0.2,0,0.4,0,0.6c0,0.2,0.1,0.5,0.4,0.3c0.3-0.2,0.4-0.8,0.4-1.1
	c0-0.2,0-0.4,0-0.6C227.1,244.5,227,244.2,226.8,244.4z"/>
<path class="st0" d="M226.8,248.4c-0.3,0.2-0.4,0.8-0.4,1.1c0,0.2,0,0.4,0,0.6c0,0.2,0.1,0.5,0.4,0.3c0.3-0.2,0.4-0.8,0.4-1.1
	c0-0.2,0-0.4,0-0.6C227.1,248.5,227,248.2,226.8,248.4z"/>
<path class="st0" d="M226.8,252.5c-0.3,0.2-0.4,0.8-0.4,1.1c0,0.2,0,0.4,0,0.6c0,0.2,0.1,0.5,0.4,0.3c0.3-0.2,0.4-0.8,0.4-1.1
	c0-0.2,0-0.4,0-0.6C227.1,252.6,227,252.3,226.8,252.5z"/>
<path class="st0" d="M226.8,256.6c-0.3,0.2-0.4,0.8-0.4,1.1c0,0.2,0,0.4,0,0.6s0.1,0.5,0.4,0.3c0.3-0.2,0.4-0.8,0.4-1.1
	c0-0.2,0-0.4,0-0.6C227.1,256.7,227,256.4,226.8,256.6z"/>
<path class="st0" d="M226.8,260.6c-0.3,0.2-0.4,0.8-0.4,1.1c0,0.2,0,0.4,0,0.6s0.1,0.5,0.4,0.3c0.3-0.2,0.4-0.8,0.4-1.1
	c0-0.2,0-0.4,0-0.6C227.1,260.7,227,260.4,226.8,260.6z"/>
<path class="st0" d="M226.8,264.7c-0.3,0.2-0.4,0.8-0.4,1.1c0,0.2,0,0.4,0,0.6s0.1,0.5,0.4,0.3c0.3-0.2,0.4-0.8,0.4-1.1
	c0-0.2,0-0.4,0-0.6C227.1,264.8,227,264.5,226.8,264.7z"/>
<path class="st0" d="M228.3,210.6c-0.2,0.2-0.3,0.8-0.4,1.1c0,0.2,0,0.4,0,0.6c0,0.2,0.1,0.5,0.3,0.3s0.3-0.9,0.4-1.1
	c0-0.2,0-0.4,0-0.6S228.5,210.3,228.3,210.6z"/>
<path class="st0" d="M70.8,38.1C70.9,38.1,70.9,38.1,70.8,38.1"/>
<path class="st0" d="M228.3,214.6c-0.2,0.2-0.3,0.8-0.4,1.1c0,0.2,0,0.4,0,0.6c0,0.2,0.1,0.5,0.3,0.3s0.3-0.9,0.4-1.1
	c0-0.2,0-0.4,0-0.6S228.5,214.4,228.3,214.6z"/>
<path class="st0" d="M228.3,218.7c-0.2,0.2-0.3,0.8-0.4,1.1c0,0.2,0,0.4,0,0.6c0,0.2,0.1,0.5,0.3,0.3s0.3-0.9,0.4-1.1
	c0-0.2,0-0.4,0-0.6C228.6,218.8,228.5,218.5,228.3,218.7z"/>
<path class="st0" d="M228.3,222.8c-0.2,0.2-0.3,0.8-0.4,1.1c0,0.2,0,0.4,0,0.6c0,0.2,0.1,0.5,0.3,0.3s0.3-0.9,0.4-1.1
	c0-0.2,0-0.4,0-0.6S228.5,222.5,228.3,222.8z"/>
<path class="st0" d="M228.3,226.8c-0.2,0.2-0.3,0.8-0.4,1.1c0,0.2,0,0.4,0,0.6c0,0.2,0.1,0.5,0.3,0.3s0.3-0.9,0.4-1.1
	c0-0.2,0-0.4,0-0.6S228.5,226.6,228.3,226.8z"/>
<path class="st0" d="M228.3,230.9c-0.2,0.2-0.3,0.8-0.4,1.1c0,0.2,0,0.4,0,0.6c0,0.2,0.1,0.5,0.3,0.3s0.3-0.9,0.4-1.1
	c0-0.2,0-0.4,0-0.6C228.6,231,228.5,230.7,228.3,230.9z"/>
<path class="st0" d="M228.3,235c-0.2,0.2-0.3,0.8-0.4,1.1c0,0.2,0,0.4,0,0.6c0,0.2,0.1,0.5,0.3,0.3s0.3-0.9,0.4-1.1
	c0-0.2,0-0.4,0-0.6C228.6,235.1,228.5,234.8,228.3,235z"/>
<path class="st0" d="M42.2,65.2C40.9,65,40,63.7,40,62.4"/>
<path class="st0" d="M228.3,239c-0.2,0.2-0.3,0.8-0.4,1.1c0,0.2,0,0.4,0,0.6c0,0.2,0.1,0.5,0.3,0.3s0.3-0.9,0.4-1.1
	c0-0.2,0-0.4,0-0.6C228.6,239.2,228.5,238.8,228.3,239z"/>
<path class="st0" d="M41.5,65.6c-1.3-0.2-2.2-1.5-2.2-2.8"/>
<path class="st0" d="M228.3,243.1c-0.2,0.2-0.3,0.8-0.4,1.1c0,0.2,0,0.4,0,0.6c0,0.2,0.1,0.5,0.3,0.3s0.3-0.9,0.4-1.1
	c0-0.2,0-0.4,0-0.6S228.5,242.9,228.3,243.1z"/>
<path class="st0" d="M48.1,66c-0.5,0.1-2.5-0.3-2.9-0.3c-1-0.2-2-0.3-2.9-0.5"/>
<path class="st0" d="M47.6,62.8c1.9,0.8,1.3,3.9-0.8,3.7c-0.9-0.1-1.8-0.3-2.6-0.4c-0.9-0.2-1.8-0.3-2.6-0.5"/>
<line class="st0" x1="40.7" y1="61.5" x2="47.3" y2="62.7"/>
<path class="st0" d="M40,62.4c0-0.3,0.1-0.6,0.3-0.9"/>
<path class="st0" d="M39.3,62.8c-0.1-0.7,0.5-1.3,1.2-1.3"/>
<line class="st0" x1="99.6" y1="80.3" x2="99.6" y2="80.7"/>
<path class="st0" d="M99.4,80.2c0.1,0.8,0.4,1.4,1.1,1.9"/>
<path class="st0" d="M100.2,82.4c0.1,0,0.1,0,0.2,0"/>
<path class="st0" d="M99.3,80.3c-0.6,0.8,0,1.9,0.9,2.1"/>
<path class="st0" d="M99.4,82.8c1.5,0.2,1.7-2.2,0.2-2.5C98.1,79.9,97.9,82.6,99.4,82.8z"/>
<path class="st0" d="M228.3,247.2c-0.2,0.2-0.3,0.8-0.4,1.1c0,0.2,0,0.4,0,0.6c0,0.2,0.1,0.5,0.3,0.3s0.3-0.9,0.4-1.1
	c0-0.2,0-0.4,0-0.6C228.6,247.3,228.5,247,228.3,247.2z"/>
<path class="st0" d="M115.6,101.8c-0.1-0.1-0.1-0.1-0.2-0.2"/>
<path class="st0" d="M228.3,251.2c-0.2,0.2-0.3,0.8-0.4,1.1c0,0.2,0,0.4,0,0.6c0,0.2,0.1,0.5,0.3,0.3s0.3-0.9,0.4-1.1
	c0-0.2,0-0.4,0-0.6C228.6,251.4,228.5,251,228.3,251.2z"/>
<path class="st0" d="M228.3,255.3c-0.2,0.2-0.3,0.8-0.4,1.1c0,0.2,0,0.4,0,0.6s0.1,0.5,0.3,0.3s0.3-0.9,0.4-1.1c0-0.2,0-0.4,0-0.6
	C228.6,255.4,228.5,255.1,228.3,255.3z"/>
<path class="st0" d="M228.3,259.4c-0.2,0.2-0.3,0.8-0.4,1.1c0,0.2,0,0.4,0,0.6s0.1,0.5,0.3,0.3s0.3-0.9,0.4-1.1c0-0.2,0-0.4,0-0.6
	C228.6,259.5,228.5,259.2,228.3,259.4z"/>
<path class="st0" d="M228.3,263.4c-0.2,0.2-0.3,0.8-0.4,1.1c0,0.2,0,0.4,0,0.6s0.1,0.5,0.3,0.3s0.3-0.9,0.4-1.1c0-0.2,0-0.4,0-0.6
	C228.6,263.6,228.5,263.2,228.3,263.4z"/>
<path class="st0" d="M229.7,213.3c-0.2,0.4-0.3,0.7-0.3,1.1c0,0.2,0,0.4,0,0.6c0,0.2,0.1,0.6,0.3,0.3c0.2-0.2,0.3-0.9,0.3-1.1
	c0-0.2,0-0.4,0-0.6C229.9,213.5,229.9,213.1,229.7,213.3z"/>
<path class="st0" d="M122,119.6c0.8,0.1,1.6,0.3,2.4,0.4"/>
<path class="st0" d="M135.3,110.6c-3.1,2.2-8.2,7-10.9,9.5"/>
<path class="st0" d="M133,115.2c1.5-1.4,3.1-2.8,4.6-4.2"/>
<line class="st0" x1="122" y1="119.6" x2="122" y2="120.7"/>
<path class="st0" d="M122,120.7c0.9-0.1,1.7-0.3,2.6-0.6"/>
<path class="st0" d="M124.4,120c0.2,0.2,0.6-0.1,0.8-0.1c0.3-0.1,0.5-0.2,0.7-0.4"/>
<path class="st0" d="M129.5,117.5c1.2-0.7,2.4-1.5,3.5-2.3"/>
<line class="st0" x1="121.5" y1="120.6" x2="122" y2="120.7"/>
<line class="st0" x1="125.9" y1="119.5" x2="129.5" y2="117.5"/>
<path class="st0" d="M137.8,106.3c-0.5,0.5-1.1,1.1-1.6,1.6c-0.2,0.2-0.4,0.5-0.6,0.7c-0.2,0.2-0.3,0.4-0.5,0.6
	c-0.1,0.2-0.3,0.3-0.4,0.5c-0.1,0.1-0.1,0.2-0.2,0.3c0,0.1-0.1,0.2,0,0.2c0,0.1,0.1,0.1,0.1,0.1"/>
<line class="st0" x1="139.2" y1="105" x2="129" y2="114.7"/>
<path class="st0" d="M113.4,104.3c3.2-3,6.4-6.1,9.6-9.1"/>
<line class="st0" x1="123" y1="95.2" x2="125.5" y2="93.9"/>
<line class="st0" x1="139.3" y1="86.1" x2="141.7" y2="84.7"/>
<line class="st0" x1="139.3" y1="86.1" x2="157.6" y2="89.3"/>
<line class="st0" x1="163.2" y1="88.5" x2="141.7" y2="84.7"/>
<path class="st0" d="M229.7,217.4c-0.2,0.4-0.3,0.7-0.3,1.1c0,0.2,0,0.4,0,0.6c0,0.2,0.1,0.6,0.3,0.3c0.2-0.2,0.3-0.9,0.3-1.1
	c0-0.2,0-0.4,0-0.6C229.9,217.5,229.9,217.2,229.7,217.4z"/>
<path class="st0" d="M229.7,221.5c-0.2,0.4-0.3,0.7-0.3,1.1c0,0.2,0,0.4,0,0.6c0,0.2,0.1,0.6,0.3,0.3c0.2-0.2,0.3-0.9,0.3-1.1
	c0-0.2,0-0.4,0-0.6C229.9,221.6,229.9,221.2,229.7,221.5z"/>
<path class="st0" d="M129.3,94.5c3.4-2.7,6.7-5.5,9.9-8.5"/>
<line class="st0" x1="123" y1="95.2" x2="145.4" y2="99.1"/>
<line class="st0" x1="147" y1="97.6" x2="125.5" y2="93.9"/>
<path class="st0" d="M121.5,119.5c-3.4-0.9-7.2-3.2-11.2-1.9"/>
<path class="st0" d="M110.3,118.3c0,1,1.6,1.6,2.2,1.8c1,0.3,1.9,0.5,2.9,0.6c2,0.3,4,0.3,6,0"/>
<path class="st0" d="M133.4,114.9c1.7-1.2,3.3-2.5,4.9-3.8"/>
<path class="st0" d="M229.7,225.5c-0.2,0.4-0.3,0.7-0.3,1.1c0,0.2,0,0.4,0,0.6c0,0.2,0.1,0.6,0.3,0.3c0.2-0.2,0.3-0.9,0.3-1.1
	c0-0.2,0-0.4,0-0.6C229.9,225.7,229.9,225.3,229.7,225.5z"/>
<path class="st0" d="M129,114.7c-0.7,0.7-1.4,1.3-2.1,2c-0.5,0.5-1,1-1.5,1.6c-0.3,0.4-0.6,0.7-0.9,1.2c-0.1,0.1-0.1,0.2-0.2,0.3
	c0,0.1,0,0.2,0,0.2"/>
<path class="st0" d="M137.7,111c-1.4,1.3-2.9,2.6-4.3,3.9"/>
<line class="st0" x1="133.3" y1="114.9" x2="133.4" y2="114.9"/>
<path class="st0" d="M124.3,120c3.5-3.2,7-6.6,10.9-9.5"/>
<line class="st0" x1="121.5" y1="120.8" x2="121.5" y2="119.5"/>
<path class="st0" d="M124.3,120c-0.9-0.2-1.9-0.3-2.8-0.5"/>
<path class="st0" d="M158.4,113.8c-0.2,0.1-0.4,0.2-0.6,0.3c-0.1,0.1-0.3,0.1-0.5,0.2c-0.1,0-0.2,0.1-0.3,0c-0.1,0-0.1-0.1-0.1-0.1
	c0-0.1,0-0.2,0-0.2c0.1-0.1,0.1-0.2,0.2-0.4c0.3-0.4,0.6-0.8,0.9-1.1c1.1-1.3,2.3-2.4,3.5-3.6"/>
<path class="st0" d="M229.7,229.6c-0.2,0.4-0.3,0.7-0.3,1.1c0,0.2,0,0.4,0,0.6c0,0.2,0.1,0.6,0.3,0.3c0.2-0.2,0.3-0.9,0.3-1.1
	c0-0.2,0-0.4,0-0.6C229.9,229.7,229.9,229.4,229.7,229.6z"/>
<path class="st0" d="M179,99.1c-0.7,0.6-1.4,1.2-2.1,1.8c-0.7,0.6-1.5,1.3-2.2,1.9c-1.4,1.1-2.8,2.2-4.2,3.3
	c-1.2,0.9-2.4,1.8-3.7,2.7c-0.9,0.6-1.7,1.2-2.7,1.7"/>
<path class="st0" d="M193.5,85.5c-1.2,1.4-2.5,2.7-3.8,4s-2.7,2.5-4.1,3.7"/>
<line class="st0" x1="171.2" y1="81.6" x2="193.5" y2="85.5"/>
<line class="st0" x1="190.9" y1="87" x2="193.5" y2="85.5"/>
<line class="st0" x1="171.2" y1="81.6" x2="168.6" y2="83.1"/>
<line class="st0" x1="168.6" y1="83.1" x2="190.9" y2="87"/>
<path class="st0" d="M164.7,109.1c6-3.4,21.8-16.8,26.2-22.1"/>
<path class="st0" d="M168.6,83.1c-2,2.4-4.3,4.5-6.6,6.6"/>
<path class="st0" d="M229.7,233.7c-0.2,0.4-0.3,0.7-0.3,1.1c0,0.2,0,0.4,0,0.6c0,0.2,0.1,0.6,0.3,0.3c0.2-0.2,0.3-0.9,0.3-1.1
	c0-0.2,0-0.4,0-0.6C229.9,233.8,229.9,233.4,229.7,233.7z"/>
<line class="st0" x1="163.2" y1="108.9" x2="164.6" y2="109.1"/>
<path class="st0" d="M229.7,237.7c-0.2,0.4-0.3,0.7-0.3,1.1c0,0.2,0,0.4,0,0.6c0,0.2,0.1,0.6,0.3,0.3c0.2-0.2,0.3-0.9,0.3-1.1
	c0-0.2,0-0.4,0-0.6C229.9,237.9,229.9,237.5,229.7,237.7z"/>
<line class="st0" x1="158.1" y1="89" x2="180.4" y2="92.9"/>
<path class="st0" d="M180.4,92.9c-3.4,2.7-6.7,5.6-10,8.5c-1.6,1.5-3.2,3-4.7,4.5c-0.8,0.8-1.5,1.6-2.2,2.4c-0.1,0.2-0.8,1-0.6,1.3
	c0.3,0.3,1.4-0.4,1.7-0.5"/>
<line class="st0" x1="158.1" y1="89" x2="155.5" y2="90.5"/>
<line class="st0" x1="155.5" y1="90.5" x2="177.8" y2="94.4"/>
<line class="st0" x1="177.8" y1="94.4" x2="180.4" y2="92.9"/>
<path class="st0" d="M155.5,90.5c-3.5,2.8-6.8,5.7-10.1,8.7"/>
<path class="st0" d="M229.7,241.8c-0.2,0.4-0.3,0.7-0.3,1.1c0,0.2,0,0.4,0,0.6c0,0.2,0.1,0.6,0.3,0.3c0.2-0.2,0.3-0.9,0.3-1.1
	c0-0.2,0-0.4,0-0.6C229.9,241.9,229.9,241.6,229.7,241.8z"/>
<path class="st0" d="M167.1,103.7c3.5-3.2,7-6.3,10.7-9.3"/>
<line class="st0" x1="185.6" y1="93.2" x2="179" y2="99.1"/>
<line class="st0" x1="164.6" y1="109.1" x2="164.7" y2="109.1"/>
<line class="st0" x1="164.6" y1="109.2" x2="164.6" y2="109.1"/>
<line class="st0" x1="161.5" y1="108.9" x2="167.1" y2="103.7"/>
<line class="st0" x1="164.1" y1="110.6" x2="158.4" y2="113.8"/>
<path class="st0" d="M97.9,146.5c-2.4,1.4-4.6,3.6-2.3,6.2"/>
<path class="st0" d="M99.7,145.7c-2.2,1.3-4.3,3.3-2.1,5.7"/>
<path class="st0" d="M97.6,151.3c3.1,3.4,11.7,4.7,15.5,5.1c5.6,0.6,11,0.5,16.5-0.2c2.8-0.4,5.4-0.9,8.1-1.7
	c1.6-0.5,3.2-1.1,4.6-2.2c0.9-0.7,1.7-1.3,1.9-2.5c0.6-2.8-3.7-4.6-5.5-5.3c-2.6-1-5.3-1.5-8-1.9"/>
<path class="st0" d="M110.3,142.5c-3.3,0.5-7.6,1.4-10.6,3.1"/>
<path class="st0" d="M95.7,152.7c2.5,2.8,9.1,4.3,12.3,4.9"/>
<path class="st0" d="M107.9,157.5c6.6,1.1,13,1.3,19.7,0.7"/>
<path class="st0" d="M127.6,158.2c3.5-0.3,8.4-1.1,11.7-2.2c1.9-0.7,3.7-1.4,5.3-2.7c1.8-1.5,2.4-3.3,0.7-5.1"/>
<path class="st0" d="M145.4,148.2c-1-1.2-2.3-1.8-3.7-2.4"/>
<path class="st0" d="M99.3,145.8c-0.5,0.2-0.9,0.4-1.4,0.7"/>
<path class="st0" d="M146.4,151.4c0,2.1-2.4,3.5-3.9,4.3c-1.8,0.9-3.7,1.5-5.7,2c-3.9,1-7.9,1.5-11.9,1.7
	c-7.4,0.4-16.6-0.1-23.8-2.6"/>
<path class="st0" d="M129.7,117.8c-4.1,2.3-4.8,3.3-9.8,3.5c-1.8,0.1-3.5,0-5.3-0.3c-0.9-0.2-1.7-0.3-2.5-0.7
	c-0.6-0.2-1.9-0.9-1.7-1.8"/>
<path class="st0" d="M130.6,116.8c-0.2,0.5-0.5,0.8-1,1"/>
<path class="st0" d="M129.7,149.5c0.4-0.2,1-0.7,1-1.3"/>
<path class="st0" d="M110.3,150.4c0,0.9,1.3,1.4,1.9,1.6c0.8,0.3,1.7,0.5,2.5,0.6c1.7,0.3,3.5,0.4,5.2,0.3c4.9-0.3,5.7-1.2,9.7-3.5"
	/>
<path class="st0" d="M229.7,245.9c-0.2,0.4-0.3,0.7-0.3,1.1c0,0.2,0,0.4,0,0.6c0,0.2,0.1,0.6,0.3,0.3c0.2-0.2,0.3-0.9,0.3-1.1
	c0-0.2,0-0.4,0-0.6C229.9,246,229.9,245.6,229.7,245.9z"/>
<path class="st0" d="M103,151.8c1.6,0.3,3.1,0.3,4.7-0.1c0.5-0.1,2.1-0.5,1.6-1.3c-0.4-0.6-1.5-0.8-2.1-0.9
	c-1.6-0.3-3.1-0.3-4.7,0.1c-0.5,0.1-2.1,0.5-1.6,1.3C101.3,151.5,102.4,151.7,103,151.8z"/>
<path class="st0" d="M229.7,249.9c-0.2,0.4-0.3,0.7-0.3,1.1c0,0.2,0,0.4,0,0.6c0,0.2,0.1,0.6,0.3,0.3c0.2-0.2,0.3-0.9,0.3-1.1
	c0-0.2,0-0.4,0-0.6C229.9,250.1,229.9,249.7,229.7,249.9z"/>
<path class="st0" d="M229.7,254c-0.2,0.4-0.3,0.7-0.3,1.1c0,0.2,0,0.4,0,0.6c0,0.2,0.1,0.6,0.3,0.3c0.2-0.2,0.3-0.9,0.3-1.1
	c0-0.2,0-0.4,0-0.6C229.9,254.1,229.9,253.8,229.7,254z"/>
<path class="st0" d="M229.7,258.1c-0.2,0.4-0.3,0.7-0.3,1.1c0,0.2,0,0.4,0,0.6s0.1,0.6,0.3,0.3c0.2-0.2,0.3-0.9,0.3-1.1s0-0.4,0-0.6
	C229.9,258.2,229.9,257.8,229.7,258.1z"/>
<path class="st0" d="M128.6,154.8c1-0.6,0.4-1.2-0.5-1.5c-0.8-0.3-1.5-0.4-2.3-0.4c-1.2-0.1-3.4,0-4.6,0.7c-1,0.6-0.4,1.2,0.5,1.5
	c0.8,0.3,1.5,0.4,2.3,0.4C125.3,155.5,127.5,155.5,128.6,154.8"/>
<path class="st0" d="M230.9,216.1c-0.2,0.4-0.3,0.7-0.3,1.1c0,0.2,0,0.4,0,0.6c0,0.2,0.1,0.6,0.3,0.4c0.2-0.2,0.3-0.9,0.3-1.1
	c0-0.2,0-0.4,0-0.6C231.1,216.2,231.1,215.8,230.9,216.1z"/>
<path class="st0" d="M230.9,220.1c-0.2,0.4-0.3,0.7-0.3,1.1c0,0.2,0,0.4,0,0.6c0,0.2,0.1,0.6,0.3,0.4c0.2-0.2,0.3-0.9,0.3-1.1
	c0-0.2,0-0.4,0-0.6C231.1,220.3,231.1,219.9,230.9,220.1z"/>
<path class="st0" d="M138,146.8c-1.6-0.3-3.1-0.3-4.7,0.1c-0.5,0.1-2.1,0.5-1.6,1.3c0.4,0.6,1.5,0.8,2.1,0.9
	c1.6,0.3,3.1,0.3,4.7-0.1c0.5-0.1,2.1-0.5,1.6-1.3C139.8,147.1,138.6,146.8,138,146.8z"/>
<path class="st0" d="M79.9,160.9c0-0.1,0.1-0.1,0.1-0.2"/>
<path class="st0" d="M230.9,224.2c-0.2,0.4-0.3,0.7-0.3,1.1c0,0.2,0,0.4,0,0.6c0,0.2,0.1,0.6,0.3,0.4c0.2-0.2,0.3-0.9,0.3-1.1
	c0-0.2,0-0.4,0-0.6C231.1,224.4,231.1,224,230.9,224.2z"/>
<path class="st0" d="M230.9,228.3c-0.2,0.4-0.3,0.7-0.3,1.1c0,0.2,0,0.4,0,0.6c0,0.2,0.1,0.6,0.3,0.4c0.2-0.2,0.3-0.9,0.3-1.1
	c0-0.2,0-0.4,0-0.6C231.1,228.4,231.1,228,230.9,228.3z"/>
<path class="st0" d="M230.9,232.3c-0.2,0.4-0.3,0.7-0.3,1.1c0,0.2,0,0.4,0,0.6c0,0.2,0.1,0.6,0.3,0.4c0.2-0.2,0.3-0.9,0.3-1.1
	c0-0.2,0-0.4,0-0.6C231.1,232.5,231.1,232.1,230.9,232.3z"/>
<path class="st0" d="M79.6,160c0.3,1.6,1.2,2.6,2.4,3.6c1.8,1.6,3.9,2.6,6.1,3.5c3.6,1.4,7.2,2.4,10.9,3.1c7.5,1.5,15,2,22.7,1.9
	s15.1-0.7,22.6-2.4c3.7-0.8,7.3-1.9,10.8-3.6c2.8-1.4,7.6-4.4,5.9-8.5"/>
<path class="st0" d="M80,157.3c-0.4,0.9-0.5,1.7-0.4,2.7"/>
<path class="st0" d="M161.2,160.2c-0.1-0.2-0.1-0.4-0.2-0.7"/>
<path class="st0" d="M80,159.2c-0.2,0.3-0.3,0.6-0.4,1"/>
<path class="st0" d="M62.6,157.5c0.4-0.1,0.8-0.2,1.2-0.2c0.4,0,1.3,0.3,0.7,0.5c-0.4,0.1-0.8,0.2-1.2,0.2
	C62.9,158,62.1,157.8,62.6,157.5z"/>
<path class="st0" d="M66.3,158.2c0.4-0.1,0.8-0.2,1.2-0.2c0.4,0,1.3,0.3,0.7,0.5c-0.4,0.1-0.8,0.2-1.2,0.2
	C66.7,158.7,65.8,158.5,66.3,158.2z"/>
<path class="st0" d="M70.1,158.8c0.4-0.1,0.8-0.2,1.2-0.2c0.4,0,1.3,0.3,0.7,0.5c-0.4,0.1-0.8,0.2-1.2,0.2S69.6,159.1,70.1,158.8z"
	/>
<path class="st0" d="M73.8,159.5c0.4-0.1,0.8-0.2,1.2-0.2c0.4,0,1.3,0.3,0.7,0.5c-0.4,0.1-0.8,0.2-1.2,0.2
	C74.2,160,73.3,159.8,73.8,159.5z"/>
<path class="st0" d="M64.7,156.4c0.4-0.1,0.8-0.2,1.2-0.2c0.4,0,1.3,0.3,0.7,0.5c-0.4,0.1-0.8,0.2-1.2,0.2
	C65,156.8,64.2,156.6,64.7,156.4z"/>
<path class="st0" d="M68.4,157c0.4-0.1,0.8-0.2,1.2-0.2c0.4,0,1.3,0.3,0.7,0.5c-0.4,0.1-0.8,0.2-1.2,0.2
	C68.8,157.5,67.9,157.3,68.4,157z"/>
<path class="st0" d="M72.2,157.7c0.4-0.1,0.8-0.2,1.2-0.2c0.4,0,1.3,0.3,0.7,0.5c-0.4,0.1-0.8,0.2-1.2,0.2
	C72.5,158.1,71.6,157.9,72.2,157.7z"/>
<path class="st0" d="M66.8,155.2c0.4-0.1,0.8-0.2,1.2-0.2c0.4,0,1.3,0.3,0.7,0.5c-0.4,0.1-0.8,0.2-1.2,0.2
	C67.1,155.6,66.2,155.5,66.8,155.2z"/>
<path class="st0" d="M70.5,155.8c0.4-0.1,0.8-0.2,1.2-0.2c0.4,0,1.3,0.3,0.7,0.5c-0.4,0.1-0.8,0.2-1.2,0.2S70,156.1,70.5,155.8z"/>
<path class="st0" d="M74.2,156.5c0.4-0.1,0.8-0.2,1.2-0.2c0.4,0,1.3,0.3,0.7,0.5c-0.4,0.1-0.8,0.2-1.2,0.2
	C74.6,157,73.7,156.8,74.2,156.5z"/>
<path class="st0" d="M68.8,154c0.4-0.1,0.8-0.2,1.2-0.2c0.4,0,1.3,0.3,0.7,0.5c-0.4,0.1-0.8,0.2-1.2,0.2
	C69.2,154.5,68.3,154.3,68.8,154z"/>
<path class="st0" d="M72.6,154.7c0.4-0.1,0.8-0.2,1.2-0.2c0.4,0,1.3,0.3,0.7,0.5c-0.4,0.1-0.8,0.2-1.2,0.2
	C72.9,155.1,72.1,154.9,72.6,154.7z"/>
<path class="st0" d="M70.9,152.8c0.4-0.1,0.8-0.2,1.2-0.2c0.4,0,1.3,0.3,0.7,0.5c-0.4,0.1-0.8,0.2-1.2,0.2
	C71.3,153.3,70.4,153.1,70.9,152.8z"/>
<path class="st0" d="M74.7,153.5c0.4-0.1,0.8-0.2,1.2-0.2c0.4,0,1.3,0.3,0.7,0.5c-0.4,0.1-0.8,0.2-1.2,0.2S74.2,153.8,74.7,153.5z"
	/>
<path class="st0" d="M73,151.7c0.4-0.1,0.8-0.2,1.2-0.2c0.4,0,1.3,0.3,0.7,0.5c-0.4,0.1-0.8,0.2-1.2,0.2
	C73.3,152.1,72.5,151.9,73,151.7z"/>
<path class="st0" d="M76.7,152.3c0.4-0.1,0.8-0.2,1.2-0.2c0.4,0,1.3,0.3,0.7,0.5c-0.4,0.1-0.8,0.2-1.2,0.2
	C77.1,152.8,76.2,152.6,76.7,152.3z"/>
<path class="st0" d="M75.1,150.5c0.4-0.1,0.8-0.2,1.2-0.2c0.4,0,1.3,0.3,0.7,0.5c-0.4,0.1-0.8,0.2-1.2,0.2
	C75.4,150.9,74.6,150.8,75.1,150.5z"/>
<path class="st0" d="M78.8,151.1c0.4-0.2,0.8-0.2,1.2-0.2"/>
<path class="st0" d="M80,151.6c-0.3,0-0.5,0-0.8,0c-0.3-0.1-0.7-0.3-0.4-0.4"/>
<path class="st0" d="M77.2,149.3c0.4-0.1,0.8-0.2,1.2-0.2c0.4,0,1.3,0.3,0.7,0.5c-0.4,0.1-0.8,0.2-1.2,0.2S76.7,149.6,77.2,149.3z"
	/>
<path class="st0" d="M79.3,148.1c0.4-0.1,0.7-0.2,1.1-0.2c0.2,0,0.4,0,0.5,0.1c0.1,0,0.5,0.1,0.4,0.3"/>
<path class="st0" d="M81.1,148.5c-0.4,0.1-0.8,0.2-1.2,0.2c-0.4,0-1.2-0.2-0.7-0.5"/>
<path class="st0" d="M81.3,147c0.5-0.2,0.9-0.2,1.5-0.1"/>
<path class="st0" d="M82.1,147.4c-0.4,0-1.3-0.2-0.7-0.5"/>
<path class="st0" d="M83.4,145.8c0.4-0.2,0.7-0.2,1.1-0.2"/>
<path class="st0" d="M83.6,146.2c-0.2-0.1-0.5-0.3-0.2-0.4"/>
<path class="st0" d="M85.5,144.6c0.4-0.2,0.8-0.2,1.2-0.2"/>
<path class="st0" d="M85.6,145c-0.2-0.1-0.4-0.3-0.1-0.4"/>
<path class="st0" d="M156,138.4c0.4-0.1,0.8-0.2,1.2-0.2s1.3,0.3,0.7,0.5c-0.4,0.1-0.8,0.2-1.2,0.2
	C156.4,138.9,155.5,138.7,156,138.4z"/>
<path class="st0" d="M167.1,158.9c0.5-0.3-0.3-0.5-0.7-0.5s-0.8,0-1.2,0.2c-0.5,0.3,0.3,0.5,0.7,0.5
	C166.4,159.1,166.7,159,167.1,158.9z"/>
<path class="st0" d="M170.9,159.5c0.5-0.3-0.3-0.5-0.7-0.5s-0.8,0-1.2,0.2c-0.5,0.3,0.3,0.5,0.7,0.5
	C170.1,159.7,170.5,159.7,170.9,159.5z"/>
<path class="st0" d="M174.6,160.2c0.5-0.3-0.3-0.5-0.7-0.5s-0.8,0-1.2,0.2c-0.5,0.3,0.3,0.5,0.7,0.5S174.2,160.3,174.6,160.2z"/>
<path class="st0" d="M178.3,160.8c0.5-0.3-0.3-0.5-0.7-0.5s-0.8,0-1.2,0.2c-0.5,0.3,0.3,0.5,0.7,0.5C177.6,161,178,161,178.3,160.8z
	"/>
<path class="st0" d="M168.8,160.7c0.5-0.3-0.3-0.5-0.7-0.5s-0.8,0-1.2,0.2c-0.5,0.3,0.3,0.5,0.7,0.5S168.4,160.8,168.8,160.7z"/>
<path class="st0" d="M172.5,161.3c0.5-0.3-0.3-0.5-0.7-0.5s-0.8,0-1.2,0.2c-0.5,0.3,0.3,0.5,0.7,0.5
	C171.8,161.5,172.1,161.5,172.5,161.3z"/>
<path class="st0" d="M176.3,162c0.5-0.3-0.3-0.5-0.7-0.5s-0.8,0-1.2,0.2c-0.5,0.3,0.3,0.5,0.7,0.5S175.9,162.1,176.3,162z"/>
<path class="st0" d="M166.7,161.9c0.5-0.3-0.3-0.5-0.7-0.5s-0.8,0-1.2,0.2c-0.5,0.3,0.3,0.5,0.7,0.5
	C165.9,162.1,166.3,162,166.7,161.9z"/>
<path class="st0" d="M170.4,162.5c0.5-0.3-0.3-0.5-0.7-0.5s-0.8,0-1.2,0.2c-0.5,0.3,0.3,0.5,0.7,0.5
	C169.7,162.7,170,162.7,170.4,162.5z"/>
<path class="st0" d="M174.2,163.2c0.5-0.3-0.3-0.5-0.7-0.5s-0.8,0-1.2,0.2c-0.5,0.3,0.3,0.5,0.7,0.5S173.8,163.3,174.2,163.2z"/>
<path class="st0" d="M168.3,163.7c0.5-0.3-0.3-0.5-0.7-0.5s-0.8,0-1.2,0.2c-0.5,0.3,0.3,0.5,0.7,0.5
	C167.6,163.9,168,163.8,168.3,163.7z"/>
<path class="st0" d="M172.1,164.4c0.5-0.3-0.3-0.5-0.7-0.5s-0.8,0-1.2,0.2c-0.5,0.3,0.3,0.5,0.7,0.5
	C171.3,164.6,171.7,164.5,172.1,164.4z"/>
<path class="st0" d="M166.3,164.9c0.5-0.3-0.3-0.5-0.7-0.5s-0.8,0-1.2,0.2c-0.5,0.3,0.3,0.5,0.7,0.5
	C165.5,165.1,165.9,165,166.3,164.9z"/>
<path class="st0" d="M170,165.5c0.5-0.3-0.3-0.5-0.7-0.5s-0.8,0-1.2,0.2c-0.5,0.3,0.3,0.5,0.7,0.5
	C169.3,165.7,169.6,165.7,170,165.5z"/>
<path class="st0" d="M164.2,166c0.5-0.3-0.3-0.5-0.7-0.5s-0.8,0-1.2,0.2c-0.5,0.3,0.3,0.5,0.7,0.5
	C163.4,166.3,163.8,166.2,164.2,166z"/>
<path class="st0" d="M167.9,166.7c0.5-0.3-0.3-0.5-0.7-0.5s-0.8,0-1.2,0.2c-0.5,0.3,0.3,0.5,0.7,0.5
	C167.2,166.9,167.5,166.9,167.9,166.7z"/>
<path class="st0" d="M162.1,167.2c0.5-0.3-0.3-0.5-0.7-0.5s-0.8,0-1.2,0.2c-0.5,0.3,0.3,0.5,0.7,0.5S161.7,167.4,162.1,167.2z"/>
<path class="st0" d="M165.8,167.9c0.5-0.3-0.3-0.5-0.7-0.5s-0.8,0-1.2,0.2c-0.5,0.3,0.3,0.5,0.7,0.5
	C165.1,168.1,165.5,168,165.8,167.9z"/>
<path class="st0" d="M160,168.4c0.5-0.3-0.3-0.5-0.7-0.5s-0.8,0-1.2,0.2c-0.5,0.3,0.3,0.5,0.7,0.5
	C159.3,168.6,159.6,168.5,160,168.4z"/>
<path class="st0" d="M163.8,169.1c0.5-0.3-0.3-0.5-0.7-0.5s-0.8,0-1.2,0.2c-0.5,0.3,0.3,0.5,0.7,0.5S163.4,169.2,163.8,169.1z"/>
<path class="st0" d="M157.9,169.6c0.5-0.3-0.3-0.5-0.7-0.5s-0.8,0-1.2,0.2c-0.5,0.3,0.3,0.5,0.7,0.5
	C157.2,169.8,157.5,169.7,157.9,169.6z"/>
<path class="st0" d="M161.7,170.2c0.5-0.3-0.3-0.5-0.7-0.5s-0.8,0-1.2,0.2c-0.5,0.2,0.3,0.5,0.7,0.5S161.3,170.4,161.7,170.2"/>
<path class="st0" d="M152.1,170.1c0.5-0.3-0.3-0.5-0.7-0.5s-0.8,0-1.2,0.2c-0.5,0.3,0.3,0.5,0.7,0.5
	C151.4,170.3,151.7,170.2,152.1,170.1z"/>
<path class="st0" d="M155.8,170.8c0.5-0.3-0.3-0.5-0.7-0.5s-0.8,0-1.2,0.2c-0.5,0.3,0.3,0.5,0.7,0.5
	C155.1,171,155.5,170.9,155.8,170.8z"/>
<path class="st0" d="M159.6,171.4c0.5-0.3-0.4-0.5-0.7-0.5c-0.4,0-0.8,0-1.2,0.2c-0.5,0.3,0.4,0.5,0.7,0.5
	C158.8,171.6,159.2,171.6,159.6,171.4"/>
<path class="st0" d="M150,171.3c0.5-0.3-0.3-0.5-0.7-0.5s-0.8,0-1.2,0.2c-0.5,0.3,0.3,0.5,0.7,0.5
	C149.3,171.5,149.6,171.4,150,171.3z"/>
<path class="st0" d="M153.8,171.9c0.5-0.3-0.3-0.5-0.7-0.5s-0.8,0-1.2,0.2c-0.5,0.3,0.3,0.5,0.7,0.5
	C153,172.1,153.4,172.1,153.8,171.9z"/>
<path class="st0" d="M157.5,172.6c0.5-0.3-0.3-0.5-0.7-0.5s-0.8,0-1.2,0.2c-0.5,0.3,0.3,0.5,0.7,0.5
	C156.8,172.8,157.1,172.7,157.5,172.6z"/>
<path class="st0" d="M144.2,171.8c0.5-0.3-0.3-0.5-0.7-0.5s-0.8,0-1.2,0.2c-0.5,0.3,0.3,0.5,0.7,0.5S143.8,171.9,144.2,171.8z"/>
<path class="st0" d="M147.9,172.4c0.5-0.3-0.3-0.5-0.7-0.5s-0.8,0-1.2,0.2c-0.5,0.3,0.3,0.5,0.7,0.5
	C147.2,172.6,147.6,172.6,147.9,172.4z"/>
<path class="st0" d="M151.7,173.1c0.5-0.3-0.3-0.5-0.7-0.5s-0.8,0-1.2,0.2c-0.5,0.2,0.3,0.5,0.7,0.5S151.3,173.3,151.7,173.1"/>
<path class="st0" d="M155.4,173.8c0.5-0.3-0.3-0.5-0.7-0.5s-0.8,0-1.2,0.2c-0.5,0.3,0.3,0.5,0.7,0.5
	C154.7,174,155,173.9,155.4,173.8z"/>
<path class="st0" d="M10.5,164.1c0,4.3,2.5,7.8,5.3,10.6c4.3,4.1,10,7.2,15.3,9.5c9.4,4.1,19,6.7,29,8.7c19.3,4,40.6,5.7,60.3,5.7
	s41-1.7,60.3-5.7c10-2.1,19.6-4.6,29-8.7c5.2-2.3,10.7-5.2,14.9-9.2c3-2.8,5.7-6.5,5.7-11"/>
<path class="st0" d="M24.4,142.4c-19.5,11-17.9,24,1.3,34.3c13.2,7.1,30.5,11,45,13.3c29.7,4.7,64.1,4.9,93.8,0.9
	c8.7-1.2,17.3-2.8,25.9-5c6.7-1.7,13.2-3.8,19.6-6.6c4.4-2,8.6-4.1,12.5-7.2c2.8-2.2,5.6-5,7-8.4c3.2-7.8-2.4-14.1-8-18.1
	c-5.6-4.1-12.4-7-18.8-9.3c-8.2-2.9-16.6-4.9-25.1-6.6c-15.5-3-31-4.4-46.8-4.9"/>
<path class="st0" d="M110.3,124.8c-7.2,0.2-14.3,0.6-21.5,1.3"/>
<path class="st0" d="M79.5,127.1c-16.8,2.1-39.8,6.6-55.1,15.2"/>
<path class="st0" d="M230.9,236.4c-0.2,0.4-0.3,0.7-0.3,1.1c0,0.2,0,0.4,0,0.6c0,0.2,0.1,0.6,0.3,0.4c0.2-0.2,0.3-0.9,0.3-1.1
	c0-0.2,0-0.4,0-0.6C231.1,236.6,231.1,236.2,230.9,236.4z"/>
<path class="st0" d="M230.9,240.5c-0.2,0.4-0.3,0.7-0.3,1.1c0,0.2,0,0.4,0,0.6c0,0.2,0.1,0.6,0.3,0.4c0.2-0.2,0.3-0.9,0.3-1.1
	c0-0.2,0-0.4,0-0.6C231.1,240.6,231.1,240.2,230.9,240.5z"/>
<path class="st0" d="M230.9,244.5c-0.2,0.4-0.3,0.7-0.3,1.1c0,0.2,0,0.4,0,0.6c0,0.2,0.1,0.6,0.3,0.4c0.2-0.2,0.3-0.9,0.3-1.1
	c0-0.2,0-0.4,0-0.6C231.1,244.7,231.1,244.3,230.9,244.5z"/>
<path class="st0" d="M230.9,248.6c-0.2,0.4-0.3,0.7-0.3,1.1c0,0.2,0,0.4,0,0.6c0,0.2,0.1,0.6,0.3,0.4c0.2-0.2,0.3-0.9,0.3-1.1
	c0-0.2,0-0.4,0-0.6C231.1,248.8,231.1,248.4,230.9,248.6z"/>
<path class="st0" d="M230.9,252.7c-0.2,0.4-0.3,0.7-0.3,1.1c0,0.2,0,0.4,0,0.6c0,0.2,0.1,0.6,0.3,0.4c0.2-0.2,0.3-0.9,0.3-1.1
	c0-0.2,0-0.4,0-0.6C231.1,252.8,231.1,252.4,230.9,252.7z"/>
<path class="st0" d="M231.9,222.8c-0.2,0.4-0.2,0.7-0.3,1.1c0,0.2,0,0.4,0,0.6c0,0.2,0.1,0.6,0.2,0.4c0.1-0.2,0.1-0.4,0.2-0.5
	c0-0.2,0.1-0.4,0.1-0.6c0-0.2,0-0.4,0-0.6C232.2,223,232.1,222.6,231.9,222.8z"/>
<path class="st0" d="M231.9,226.9c-0.2,0.4-0.2,0.7-0.3,1.1c0,0.2,0,0.4,0,0.6c0,0.2,0.1,0.6,0.2,0.4c0.1-0.2,0.1-0.4,0.2-0.5
	c0-0.2,0.1-0.4,0.1-0.6c0-0.2,0-0.4,0-0.6C232.2,227.1,232.1,226.7,231.9,226.9z"/>
<path class="st0" d="M134.9,139.6c6,0.7,13,2,18.7,4.5c7.8,3.4,10.9,8.7,2.5,13.5c-9.7,5.6-27.3,6.8-37.6,6.6
	c-6.5-0.1-12.8-0.6-19.2-1.9c-3.7-0.7-7.2-1.6-10.7-3c-2.4-1-5.1-2.3-6.9-4.2c-2-2.1-2.3-4.5-0.3-6.8c1.1-1.3,2.3-2.1,3.7-2.9
	c2-1.2,4.2-2,6.4-2.7c6.2-2,12.5-2.9,18.9-3.5"/>
<path class="st0" d="M130.7,139.2c1.4,0.1,2.8,0.3,4.2,0.4"/>
<path class="st0" d="M151.8,322.6c-25.4,2.3-53.3,1.8-78.6-1.8c-13.1-1.9-25.8-4.4-38.3-8.9c-6.2-2.2-12.2-4.7-17.7-8.4
	c-4.9-3.2-11-8.4-11-15.4"/>
<path class="st0" d="M151.8,198.6c-27.5,2.5-58.5,1.7-85.8-3c-13.3-2.3-28.9-6-41.2-11.9c-3.8-1.8-7.3-3.8-10.6-6.5
	c-2.4-1.9-4.5-3.9-6.1-6.6c-4.4-7.4-0.7-14,5.1-18.9"/>
<path class="st0" d="M227.8,151.7c8.4,7.2,9.6,15.4,1.4,23.4c-6.2,6-16.1,10.3-23.8,13c-16.5,5.8-36.3,8.9-53.6,10.5"/>
<path class="st0" d="M234.8,288.1c0,8.2-8.7,14.2-14.4,17.5c-7,3.9-14.3,6.6-22,8.8c-15.3,4.5-30.8,6.8-46.6,8.3"/>
<path class="st0" d="M231.9,243.2c-0.2,0.4-0.2,0.7-0.3,1.1c0,0.2,0,0.4,0,0.6c0,0.2,0.1,0.6,0.2,0.4c0.1-0.2,0.1-0.4,0.2-0.5
	c0-0.2,0.1-0.4,0.1-0.6c0-0.2,0-0.4,0-0.6C232.2,243.4,232.1,242.9,231.9,243.2z"/>
<path class="st0" d="M231.9,239.1c-0.2,0.4-0.2,0.7-0.3,1.1c0,0.2,0,0.4,0,0.6c0,0.2,0.1,0.6,0.2,0.4c0.1-0.2,0.1-0.4,0.2-0.5
	c0-0.2,0.1-0.4,0.1-0.6c0-0.2,0-0.4,0-0.6C232.2,239.3,232.1,238.9,231.9,239.1z"/>
<path class="st0" d="M231.9,235c-0.2,0.4-0.2,0.7-0.3,1.1c0,0.2,0,0.4,0,0.6c0,0.2,0.1,0.6,0.2,0.4c0.1-0.2,0.1-0.4,0.2-0.5
	c0-0.2,0.1-0.4,0.1-0.6c0-0.2,0-0.4,0-0.6C232.2,235.2,232.1,234.8,231.9,235z"/>
<path class="st0" d="M231.9,231c-0.2,0.4-0.2,0.7-0.3,1.1c0,0.2,0,0.4,0,0.6c0,0.2,0.1,0.6,0.2,0.4c0.1-0.2,0.1-0.4,0.2-0.5
	c0-0.2,0.1-0.4,0.1-0.6c0-0.2,0-0.4,0-0.6C232.2,231.2,232.1,230.7,231.9,231z"/>
<path class="st0" d="M110.3,125.1c-7.4,0.2-14.7,0.7-22.1,1.4"/>
<path class="st0" d="M142.1,192.7c16.8-1.1,35.2-3.5,51.5-8.2c8.2-2.3,16.7-5.4,24.1-9.9c6.9-4.2,15.2-11.7,10.5-21
	c-6.8-13.2-34.3-20.2-45.6-22.7c-17.2-3.7-34.3-5.4-51.8-5.9"/>
<path class="st0" d="M114.8,193.4c8,0.1,16,0,24-0.4"/>
<path class="st0" d="M81.7,191.2c9.7,1.1,19.4,1.8,29.1,2.1"/>
<path class="st0" d="M77.6,190.7c1.3,0.2,2.6,0.3,3.9,0.5"/>
<path class="st0" d="M25.2,142.5C5.1,153.8,8,167.1,27.6,177.1c13.3,6.8,31.4,10.8,45.9,13"/>
<path class="st0" d="M80.3,127.3c-16.9,2.1-49.2,7.8-63.3,20.9c-4.1,3.8-7.3,9-5.1,15c2,5.3,7.1,9.2,11.6,11.9
	c9.1,5.5,21.3,9.3,31.5,11.7"/>
<path class="st0" d="M110.3,125c-7.3,0.2-14.7,0.7-22,1.4"/>
<path class="st0" d="M55.1,186.6c23.2,5.4,50,7.3,73.7,6.7c22.9-0.5,51-3.6,73-11.3c35.6-12.5,38-31.8,1.8-45.1
	c-21.8-8-50.1-11.2-72.9-11.9"/>
<path class="st0" d="M139.7,148.6c0.4-0.5-0.2-0.8-0.6-1c-0.4-0.2-0.8-0.3-1.3-0.4"/>
<path class="st0" d="M137.8,147.2c-1.1-0.2-2.1-0.2-3.2-0.1c-0.5,0.1-1,0.1-1.6,0.3c-0.4,0.1-1.3,0.4-1,1"/>
<path class="st0" d="M121.5,153.9c-0.3,0.2-0.6,0.4-0.4,0.8"/>
<path class="st0" d="M128.7,154.8c0.3-0.4,0-0.6-0.3-0.8s-0.6-0.3-0.9-0.4c-0.7-0.2-1.3-0.3-2-0.3c-1.1,0-2.9,0-3.9,0.6"/>
<path class="st0" d="M106.9,150c-1.1-0.2-2.1-0.2-3.2-0.1c-0.5,0.1-1,0.1-1.6,0.3c-0.4,0.1-1.3,0.4-0.9,1"/>
<path class="st0" d="M108.8,151.3c0.4-0.5-0.2-0.8-0.6-1s-0.8-0.3-1.3-0.4"/>
<line class="st0" x1="144.7" y1="99.8" x2="167.1" y2="103.7"/>
<line class="st0" x1="163.2" y1="108.9" x2="164.6" y2="109.2"/>
<line class="st0" x1="163.2" y1="108.8" x2="164.7" y2="109.1"/>
<line class="st0" x1="139.2" y1="105" x2="161.5" y2="108.9"/>
<line class="st0" x1="108.6" y1="111.1" x2="129" y2="114.7"/>
<line class="st0" x1="144.7" y1="99.8" x2="139.2" y2="105"/>
<path class="st0" d="M145.4,99.1c-0.2,0.2-0.5,0.4-0.7,0.6"/>
<path class="st0" d="M123.1,95.2c-0.1-0.4-0.2-0.8-0.4-1.2"/>
<path class="st0" d="M123.5,93.9c-0.3-0.1-0.5,0-0.8,0.1"/>
<path class="st0" d="M123.8,94.8c-0.1-0.3-0.2-0.6-0.3-0.9"/>
<path class="st0" d="M122.8,94c-1.9-5.3-5.9-10.8-9.7-14.8c-3.3-3.5-9.4-8.8-14.6-9.7"/>
<path class="st0" d="M123.5,93.9c-0.4-1.3-0.9-2.5-1.5-3.7c-0.7-1.4-1.4-2.7-2.2-4c-1.8-2.8-3.8-5.4-6-7.9c-2.1-2.3-4.5-4.5-7-6.3
	c-1.1-0.8-2.2-1.5-3.4-2.1c-1-0.5-2-1-3.1-1.3"/>
<path class="st0" d="M115.8,101.9c0.1-0.1,0.3-0.1,0.4-0.2"/>
<line class="st0" x1="41.5" y1="65.6" x2="42.2" y2="65.2"/>
<line class="st0" x1="40" y1="62.4" x2="39.3" y2="62.8"/>
<line class="st0" x1="32.9" y1="60.2" x2="40.7" y2="61.5"/>
<line class="st0" x1="32.9" y1="118" x2="32.9" y2="60.7"/>
<line class="st0" x1="84.3" y1="127" x2="32.9" y2="118"/>
<line class="st0" x1="102.2" y1="110.7" x2="84.3" y2="127"/>
<line class="st0" x1="66.8" y1="66.1" x2="102.2" y2="110.7"/>
<line class="st0" x1="47.3" y1="62.7" x2="66.8" y2="66.1"/>
<path class="st0" d="M103.7,43.9c0.1-0.1,0.2-0.1,0.3-0.1"/>
<line class="st0" x1="70.8" y1="38.1" x2="103.7" y2="43.9"/>
<line class="st0" x1="67.6" y1="64.2" x2="103.7" y2="43.9"/>
<line class="st0" x1="34.7" y1="58.5" x2="67.6" y2="64.2"/>
<line class="st0" x1="33.6" y1="58.3" x2="69.7" y2="37.9"/>
<line class="st0" x1="69.7" y1="37.9" x2="70.8" y2="38.1"/>
<line class="st0" x1="34.7" y1="58.5" x2="70.8" y2="38.1"/>
<path class="st0" d="M69.7,37.9c0.1-0.1,0.2-0.1,0.3-0.1"/>
<path class="st0" d="M33.6,58.3c-0.3-0.1-0.5,0-0.8,0.1"/>
<path class="st0" d="M69,38c0.2-0.1,0.5-0.2,0.8-0.1"/>
<path class="st0" d="M126.1,94c-0.6-1.4-1.2-2.8-2-4.1c-0.8-1.4-1.7-2.8-2.6-4.2c-2-2.9-4.3-5.6-6.9-8.1c-2.3-2.3-4.9-4.4-7.6-6.2
	c-1.1-0.7-2.3-1.4-3.6-1.9c-1-0.5-2.1-0.8-3.2-1"/>
<path class="st0" d="M126.9,94.1c-0.7-1.8-1.5-3.5-2.4-5.2c-1-1.9-2.2-3.6-3.4-5.4c-2.6-3.6-5.6-6.9-8.9-9.8
	c-1.5-1.3-3.1-2.5-4.7-3.6c-1.4-0.9-2.8-1.7-4.4-2.2c-1.2-0.4-2.4-0.8-3.7-0.8c-1,0-2,0.2-2.7,0.8c-0.3,0.2-0.6,0.5-0.8,0.8
	c-0.3,0.5-0.6,1-0.7,1.5S95,71.3,95,71.8c0,0.6,0,1.3,0.1,1.9c0.1,0.7,0.2,1.4,0.4,2.1c0.2,0.8,0.5,1.6,0.8,2.4
	c0.7,1.8,1.5,3.5,2.4,5.2c2.1,3.8,4.8,7.3,7.7,10.5c1.5,1.6,3.1,3.1,4.7,4.6c1.5,1.3,3.1,2.5,4.7,3.5"/>
<line class="st0" x1="103.9" y1="109.4" x2="114.3" y2="103.5"/>
<line class="st0" x1="103.9" y1="111.4" x2="113.1" y2="106.2"/>
<path class="st0" d="M103.9,109.4c0.5,0.6,0.6,1.5,0,2.1"/>
<path class="st0" d="M32.9,118c-0.2,0-0.8-0.1-0.8-0.4"/>
<path class="st0" d="M67.6,64.2c-0.6,0.3-0.8,1.4-0.8,1.9"/>
<path class="st0" d="M104.9,44.4c-0.1,0-0.2,0-0.3,0.1"/>
<line class="st0" x1="104.6" y1="44.5" x2="138.3" y2="86.9"/>
<path class="st0" d="M66.8,66.1c0.5-0.5,1.1-0.9,1.7-1.3"/>
<path class="st0" d="M103.9,109.4c-0.6,0.4-1.2,0.8-1.7,1.3"/>
<line class="st0" x1="68.5" y1="64.8" x2="103.9" y2="109.4"/>
<path class="st0" d="M67.6,64.2c0.4,0.1,0.7,0.3,1,0.6"/>
<path class="st0" d="M104.6,44.5c-0.3-0.3-0.5-0.5-1-0.6"/>
<line class="st0" x1="68.5" y1="64.8" x2="104.6" y2="44.5"/>
<path class="st0" d="M102.2,110.7c0.3,0.4,1.1,1,1.7,0.8"/>
<path class="st0" d="M86,127.7c-0.6,0.3-1.4-0.4-1.7-0.8"/>
<line class="st0" x1="103.9" y1="111.4" x2="86" y2="127.7"/>
<path class="st0" d="M85.8,127.9c0.1,0,0.1-0.1,0.2-0.1"/>
<line class="st0" x1="86" y1="127.7" x2="105.4" y2="116.8"/>
<path class="st0" d="M84.3,127c0,0.3,0,1,0.5,1.1"/>
<path class="st0" d="M33.3,119.1c-0.4-0.1-0.5-0.8-0.5-1.1"/>
<line class="st0" x1="34.3" y1="58.4" x2="33.6" y2="58.3"/>
<line class="st0" x1="32.9" y1="60.7" x2="32.9" y2="60.2"/>
<path class="st0" d="M32.1,60.2c0,0.3,0.6,0.4,0.8,0.4"/>
<path class="st0" d="M80.5,127.3c-16.9,2.1-40,6.5-55.3,15.2"/>
</svg>
