<?xml version="1.0" encoding="utf-8"?>
<!-- Generator: Adobe Illustrator 19.0.0, SVG Export Plug-In . SVG Version: 6.00 Build 0)  -->
<svg version="1.1" id="Layer_1" xmlns="http://www.w3.org/2000/svg" xmlns:xlink="http://www.w3.org/1999/xlink" x="0px" y="0px"
	 viewBox="-79 216 360 50" style="enable-background:new -79 216 360 50;" xml:space="preserve">
<g>
	<path d="M32.6,232h1.8v7c0.9-1.5,2-2.2,3.6-2.2c2.9,0,4.8,2.6,4.8,6.5c0,4-2,6.6-5,6.6c-1.5,0-2.6-0.6-3.4-2.1c0,0.1,0,0.2,0,0.3
		c0,0.5-0.1,1-0.2,1.5h-1.8c0.2-0.7,0.2-1.3,0.2-3.5V232z M37.8,238.4c-2,0-3.4,2-3.4,5c0,3,1.3,4.9,3.3,4.9c2,0,3.3-1.9,3.3-5
		C40.9,240.3,39.7,238.4,37.8,238.4z"/>
	<path d="M46.8,231.8L46.8,231.8c0.8,0,1.4,0.6,1.4,1.4c0,0.8-0.6,1.3-1.3,1.3c-0.8,0-1.3-0.6-1.3-1.3
		C45.6,232.4,46.1,231.8,46.8,231.8z M45.9,237.1h1.9v12.4h-1.9V237.1z"/>
	<path d="M51,243.3c0-3.9,2.2-6.6,5.4-6.6s5.4,2.7,5.4,6.6c0,3.9-2.2,6.5-5.4,6.5S51,247.2,51,243.3z M52.9,243.3c0,3,1.4,5,3.5,5
		s3.5-2,3.5-5c0-3-1.4-5-3.5-5S52.9,240.3,52.9,243.3z"/>
	<path d="M66.4,246.8c0.9,0,1.5,0.7,1.5,1.5c0,0.8-0.7,1.5-1.5,1.5c-0.8,0-1.5-0.7-1.5-1.5C64.9,247.5,65.5,246.8,66.4,246.8z"/>
	<path d="M71.4,237.1h1.8c0.2,0.5,0.2,0.9,0.3,1.7c0.8-1.4,1.9-2,3.6-2c1.7,0,2.8,0.7,3.4,2.2c0.8-1.5,2.1-2.2,3.8-2.2
		c1.5,0,2.7,0.6,3.2,1.6c0.4,0.7,0.5,1.2,0.5,3.6v7.6h-1.8v-7.6c0-2.8-0.5-3.5-2.4-3.5c-2,0-3,1.3-3,3.8v7.4h-1.8v-7.3v-0.7
		c0-2.2-0.7-3.1-2.4-3.1c-2,0-3,1.3-3,3.9v7.2h-1.8V241v-0.6C71.7,238.4,71.6,238,71.4,237.1z"/>
	<path d="M93.3,240.4h-1.8c0.3-2.3,1.9-3.6,4.7-3.6c2,0,3.5,0.8,4,2c0.2,0.7,0.3,1.2,0.3,2.8v4.6c0,2,0,2.4,0.3,3.3H99
		c-0.2-0.7-0.2-0.9-0.3-1.7c-0.7,1.3-1.9,2-3.7,2c-2.4,0-4-1.4-4-3.6c0-1.8,1-3,2.9-3.8c1.1-0.4,2.4-0.8,4.3-1l0.4-0.1v-0.6
		c0-1.9-0.7-2.6-2.5-2.6C94.5,238.3,93.6,239,93.3,240.4z M98.6,242.8c-4.2,0.8-5.6,1.6-5.6,3.4c0,1.3,1,2.2,2.4,2.2
		c1.4,0,2.5-0.8,3-2c0.2-0.6,0.3-1.3,0.3-2.3V242.8z"/>
	<path d="M104.3,232h1.8v17.6h-1.8V232z M111.4,237.1h2.2l-5.2,5.6l5.6,6.9h-2.5l-5.3-6.8L111.4,237.1z"/>
	<path d="M126.6,243.6h-8.5c0.1,3,1.3,4.6,3.6,4.6c1.4,0,2.2-0.5,2.9-1.9l1.7,0.2c-0.8,2.2-2.3,3.3-4.6,3.3c-3.3,0-5.5-2.5-5.5-6.4
		c0-4.1,2.1-6.7,5.4-6.7c3,0,5,2.5,5,6.4C126.6,243.2,126.6,243.4,126.6,243.6z M124.7,242.2c-0.2-2.5-1.3-3.9-3.2-3.9
		c-1.8,0-3,1.3-3.3,3.9H124.7z"/>
	<path d="M129.5,237.1h1.8c0.2,0.6,0.2,1.3,0.2,1.9c0,0.2,0,0.4-0.1,0.8c0.9-2.1,1.9-3,3.2-3c0.5,0,1,0.1,1.5,0.4v1.8
		c-0.8-0.4-1.2-0.5-1.7-0.5c-1,0-1.9,0.7-2.4,1.9c-0.4,0.9-0.6,1.9-0.6,3.6v5.6h-1.9v-8.2v-0.8C129.7,238.6,129.7,238.2,129.5,237.1
		z"/>
	<path d="M139.7,246.8c0.9,0,1.5,0.7,1.5,1.5c0,0.8-0.7,1.5-1.5,1.5c-0.8,0-1.5-0.7-1.5-1.5C138.2,247.5,138.9,246.8,139.7,246.8z"
		/>
	<path d="M145,232h1.9v17.6H145V232z"/>
	<path d="M152.4,240.4h-1.8c0.3-2.3,1.9-3.6,4.7-3.6c2,0,3.5,0.8,4,2c0.2,0.7,0.3,1.2,0.3,2.8v4.6c0,2,0,2.4,0.3,3.3H158
		c-0.2-0.7-0.2-0.9-0.3-1.7c-0.7,1.3-1.9,2-3.7,2c-2.4,0-4-1.4-4-3.6c0-1.8,1-3,2.9-3.8c1.1-0.4,2.4-0.8,4.3-1l0.4-0.1v-0.6
		c0-1.9-0.7-2.6-2.5-2.6C153.5,238.3,152.6,239,152.4,240.4z M157.6,242.8c-4.2,0.8-5.6,1.6-5.6,3.4c0,1.3,1,2.2,2.4,2.2
		c1.4,0,2.5-0.8,3-2c0.2-0.6,0.3-1.3,0.3-2.3V242.8z"/>
	<path d="M163.3,232h1.8v7c0.9-1.5,2-2.2,3.6-2.2c2.9,0,4.8,2.6,4.8,6.5c0,4-2,6.6-5,6.6c-1.5,0-2.6-0.6-3.4-2.1c0,0.1,0,0.2,0,0.3
		c0,0.5-0.1,1-0.2,1.5h-1.8c0.2-0.7,0.2-1.3,0.2-3.5V232z M168.5,238.4c-2,0-3.4,2-3.4,5c0,3,1.3,4.9,3.3,4.9c2,0,3.3-1.9,3.3-5
		C171.6,240.3,170.4,238.4,168.5,238.4z"/>
</g>
</svg>
