<?xml version="1.0" encoding="utf-8"?>
<!-- Generator: Adobe Illustrator 19.0.0, SVG Export Plug-In . SVG Version: 6.00 Build 0)  -->
<svg version="1.1" id="Layer_1" xmlns="http://www.w3.org/2000/svg" xmlns:xlink="http://www.w3.org/1999/xlink" x="0px" y="0px"
	 viewBox="196 358 360 66" style="enable-background:new 196 358 360 66;" xml:space="preserve">
<style type="text/css">
	.st0{fill:#231F20;}
</style>
<g>
	<path class="st0" d="M250.1,384.3h5.4c1.4,0,2.4,0.3,3.1,1s1,1.6,1,2.7c0,0.6-0.1,1.1-0.4,1.6c-0.3,0.5-0.8,1-1.6,1.3v0
		c0.7,0.2,1.3,0.5,1.7,1.1c0.4,0.6,0.6,1.2,0.6,1.9c0,0,0,0,0,0.1c0,0,0,0.1,0,0.1c0,1.2-0.4,2.2-1.2,2.9c-0.8,0.7-1.7,1.1-2.7,1.1
		h-5.9L250.1,384.3L250.1,384.3z M252.3,386.2v4h3c0.8,0,1.3-0.2,1.7-0.6c0.4-0.4,0.5-0.9,0.5-1.4c0-0.5-0.2-1-0.5-1.4
		c-0.4-0.4-0.9-0.6-1.7-0.6H252.3z M252.3,392.1v4.2h3.2c0.8,0,1.4-0.2,1.7-0.6c0.4-0.4,0.5-0.9,0.5-1.5s-0.2-1-0.5-1.5
		c-0.4-0.4-0.9-0.6-1.7-0.6H252.3z"/>
	<path class="st0" d="M262.3,384.3h2.1v13.9h-2.1V384.3z"/>
	<path class="st0" d="M267.7,388.3c0.1-0.5,0.2-0.9,0.4-1.3c0-0.1,0.1-0.1,0.1-0.1c0,0,0.1-0.1,0.1-0.1c0,0,0-0.1,0.1-0.1
		c0,0,0-0.1,0.1-0.1c0.4-0.6,0.9-1.1,1.6-1.6c0.7-0.5,1.6-0.7,2.6-0.7c1,0,1.9,0.2,2.6,0.7c0.7,0.5,1.3,1,1.6,1.6c0,0,0,0.1,0.1,0.1
		c0,0,0,0.1,0.1,0.1c0,0.1,0.1,0.1,0.1,0.1c0,0,0,0.1,0.1,0.1c0.2,0.3,0.3,0.8,0.4,1.3c0.1,0.5,0.1,1.5,0.1,3c0,1.5,0,2.4-0.1,3
		c-0.1,0.5-0.2,1-0.4,1.3c0,0.1-0.1,0.1-0.1,0.1c0,0-0.1,0.1-0.1,0.1c0,0,0,0.1-0.1,0.1c0,0,0,0.1-0.1,0.1c-0.4,0.6-0.9,1.1-1.6,1.6
		c-0.7,0.5-1.6,0.7-2.6,0.7c-1,0-1.9-0.2-2.6-0.7c-0.7-0.5-1.3-1-1.6-1.6c0,0,0-0.1-0.1-0.1c0,0,0-0.1-0.1-0.1
		c0-0.1-0.1-0.1-0.1-0.1c0,0-0.1-0.1-0.1-0.1c-0.2-0.3-0.3-0.8-0.4-1.3c-0.1-0.5-0.1-1.5-0.1-3C267.6,389.8,267.6,388.8,267.7,388.3
		z M269.8,393.9c0.1,0.5,0.2,0.8,0.4,1.1c0,0,0.1,0.1,0.1,0.1c0,0,0.1,0.1,0.1,0.1c0.2,0.3,0.5,0.5,0.9,0.7c0.4,0.2,0.8,0.3,1.3,0.3
		c0.5,0,0.9-0.1,1.3-0.3c0.4-0.2,0.6-0.4,0.9-0.7c0,0,0.1-0.1,0.1-0.1c0,0,0.1-0.1,0.1-0.1c0.2-0.3,0.3-0.7,0.4-1.1
		c0.1-0.5,0.1-1.3,0.1-2.6c0-1.3,0-2.1-0.1-2.6c-0.1-0.5-0.2-0.8-0.4-1.1c0,0-0.1-0.1-0.1-0.1c0,0-0.1-0.1-0.1-0.1
		c-0.2-0.3-0.5-0.5-0.9-0.7c-0.4-0.2-0.8-0.3-1.3-0.3c-0.5,0-0.9,0.1-1.3,0.3c-0.4,0.2-0.6,0.4-0.9,0.7c0,0-0.1,0.1-0.1,0.1
		c0,0-0.1,0.1-0.1,0.1c-0.2,0.3-0.3,0.7-0.4,1.1c-0.1,0.5-0.1,1.3-0.1,2.6C269.7,392.6,269.7,393.4,269.8,393.9z"/>
	<path class="st0" d="M280.6,384.3h5.4c0.6,0,1.1,0.1,1.6,0.2c0.5,0.1,0.9,0.4,1.2,0.7c0.4,0.3,0.7,0.7,1,1.3
		c0.3,0.5,0.4,1.1,0.4,1.7c0,0.9-0.2,1.7-0.7,2.4c-0.5,0.7-1.1,1.2-2,1.5l3.2,6.2h-2.5l-2.9-5.9h-2.7v5.9h-2.1L280.6,384.3
		L280.6,384.3z M282.7,390.4h3.2c0.8,0,1.4-0.2,1.8-0.7c0.4-0.4,0.6-1,0.6-1.5c0-0.4-0.1-0.7-0.2-0.9c-0.1-0.3-0.3-0.5-0.5-0.6
		c-0.2-0.1-0.4-0.3-0.6-0.3c-0.2-0.1-0.5-0.1-0.9-0.1h-3.3L282.7,390.4L282.7,390.4z"/>
	<path class="st0" d="M293.2,384.3h8.9v2h-6.8v4h5.8v1.9h-5.8v4.1h6.8v2h-8.9V384.3z"/>
	<path class="st0" d="M311.9,395.1h-5.3l-1.1,3.1h-2.2l5.1-13.9h1.8l5.1,13.9h-2.2L311.9,395.1z M311.2,393.3l-2-6.1h0l-2,6.1H311.2
		z"/>
	<path class="st0" d="M317.3,384.3h2.1v11.9h6.8v2h-8.9V384.3z"/>
	<path class="st0" d="M328.8,384.3h2.1v13.9h-2.1V384.3z"/>
	<path class="st0" d="M333.7,396.5l6.3-10.3h-6v-1.9h8.6v1.6l-6.3,10.3h6.3v2h-8.9L333.7,396.5L333.7,396.5z"/>
	<path class="st0" d="M345.4,384.3h8.9v2h-6.8v4h5.8v1.9h-5.8v4.1h6.8v2h-8.9V384.3z"/>
	<path class="st0" d="M364.5,386h1.3v24.4h-1.3V386z"/>
	<path class="st0" d="M373.4,401.9h1.2c0.1,0.3,0.2,0.6,0.2,1.2c0.5-1,1.3-1.4,2.5-1.4c1.2,0,1.9,0.5,2.4,1.5c0.6-1,1.4-1.5,2.6-1.5
		c1,0,1.8,0.4,2.2,1.1c0.3,0.5,0.3,0.8,0.3,2.5v5.2h-1.2v-5.2c0-1.9-0.4-2.4-1.7-2.4c-1.4,0-2,0.9-2,2.6v5h-1.3v-5v-0.5
		c0-1.5-0.4-2.1-1.6-2.1c-1.4,0-2.1,0.9-2.1,2.7v5h-1.3v-5.9v-0.4C373.6,402.7,373.5,402.5,373.4,401.9z"/>
	<path class="st0" d="M388.2,398.2L388.2,398.2c0.6,0,1,0.4,1,0.9c0,0.5-0.4,0.9-0.9,0.9c-0.5,0-0.9-0.4-0.9-0.9
		C387.3,398.7,387.7,398.2,388.2,398.2z M387.5,401.9h1.3v8.5h-1.3V401.9z"/>
	<path class="st0" d="M397.9,404.7h-1.2c-0.2-1.4-0.8-1.9-1.9-1.9c-1.4,0-2.3,1.3-2.3,3.4c0,2.1,0.9,3.4,2.3,3.4
		c1.1,0,1.7-0.7,1.9-2.1h1.3c-0.2,2.1-1.3,3.2-3.1,3.2c-2.2,0-3.6-1.8-3.6-4.5c0-2.8,1.4-4.5,3.6-4.5
		C396.6,401.6,397.7,402.7,397.9,404.7z"/>
	<path class="st0" d="M400.1,401.9h1.2c0.1,0.4,0.2,0.9,0.2,1.3c0,0.1,0,0.3,0,0.5c0.6-1.4,1.3-2.1,2.2-2.1c0.3,0,0.7,0.1,1,0.3v1.3
		c-0.6-0.3-0.8-0.3-1.1-0.3c-0.7,0-1.3,0.5-1.7,1.3c-0.3,0.6-0.4,1.3-0.4,2.5v3.8h-1.3v-5.6v-0.6
		C400.3,402.9,400.3,402.7,400.1,401.9z"/>
	<path class="st0" d="M405.8,406.1c0-2.7,1.5-4.5,3.7-4.5c2.2,0,3.7,1.8,3.7,4.5c0,2.6-1.5,4.5-3.7,4.5
		C407.4,410.6,405.8,408.8,405.8,406.1z M407.1,406.1c0,2,1,3.4,2.4,3.4c1.5,0,2.4-1.4,2.4-3.4c0-2.1-1-3.4-2.4-3.4
		C408.1,402.7,407.1,404.1,407.1,406.1z"/>
	<path class="st0" d="M415.6,398.3h1.3v4.8c0.6-1,1.4-1.5,2.5-1.5c2,0,3.3,1.8,3.3,4.5c0,2.7-1.4,4.5-3.5,4.5
		c-1.1,0-1.8-0.4-2.4-1.4c0,0.1,0,0.1,0,0.2c0,0.3,0,0.7-0.1,1h-1.2c0.1-0.5,0.1-0.9,0.1-2.4V398.3z M419.2,402.7
		c-1.4,0-2.3,1.4-2.3,3.4c0,2,0.9,3.4,2.2,3.4c1.4,0,2.3-1.3,2.3-3.4C421.3,404,420.5,402.7,419.2,402.7z"/>
	<path class="st0" d="M425.6,398.2L425.6,398.2c0.6,0,1,0.4,1,0.9c0,0.5-0.4,0.9-0.9,0.9c-0.5,0-0.9-0.4-0.9-0.9
		C424.7,398.7,425.1,398.2,425.6,398.2z M425,401.9h1.3v8.5H425V401.9z"/>
	<path class="st0" d="M430.2,404.1h-1.3c0.2-1.6,1.3-2.5,3.2-2.5c1.4,0,2.4,0.5,2.7,1.4c0.2,0.5,0.2,0.8,0.2,1.9v3.2
		c0,1.4,0,1.7,0.2,2.3h-1.2c-0.1-0.5-0.1-0.6-0.2-1.2c-0.5,0.9-1.3,1.4-2.5,1.4c-1.7,0-2.8-1-2.8-2.4c0-1.2,0.7-2.1,2-2.6
		c0.8-0.3,1.7-0.5,2.9-0.7l0.3,0v-0.4c0-1.3-0.5-1.8-1.7-1.8C431,402.7,430.4,403.2,430.2,404.1z M433.8,405.8
		c-2.9,0.5-3.9,1.1-3.9,2.3c0,0.9,0.7,1.5,1.7,1.5c1,0,1.8-0.5,2-1.4c0.1-0.4,0.2-0.9,0.2-1.6V405.8z"/>
	<path class="st0" d="M437.9,398.3h1.3v12.1h-1.3V398.3z"/>
	<path class="st0" d="M453.3,398.3v9.6c0,1.5,0,2,0.2,2.5h-1.2c-0.1-0.3-0.1-0.6-0.1-0.9c0-0.1,0-0.2,0-0.3c-0.6,1-1.3,1.4-2.4,1.4
		c-2.1,0-3.4-1.7-3.4-4.4c0-2.7,1.4-4.6,3.4-4.6c1.1,0,1.8,0.4,2.4,1.4v-4.7L453.3,398.3L453.3,398.3z M449.8,402.7
		c-1.4,0-2.3,1.3-2.3,3.4c0,2.1,0.9,3.4,2.2,3.4c1.4,0,2.2-1.3,2.2-3.4C452,404.1,451.2,402.7,449.8,402.7z"/>
	<path class="st0" d="M462.7,406.4h-5.8c0.1,2.1,0.9,3.2,2.5,3.2c0.9,0,1.5-0.4,2-1.3l1.2,0.1c-0.5,1.5-1.6,2.2-3.2,2.2
		c-2.3,0-3.7-1.7-3.7-4.4c0-2.8,1.4-4.6,3.7-4.6c2.1,0,3.5,1.7,3.5,4.4C462.7,406.1,462.7,406.2,462.7,406.4z M461.4,405.4
		c-0.1-1.7-0.9-2.7-2.2-2.7c-1.2,0-2,0.9-2.3,2.7H461.4z"/>
	<path class="st0" d="M470.7,404.2h-1.2c-0.1-1-0.7-1.5-1.8-1.5c-1,0-1.6,0.5-1.6,1.3c0,0.7,0.4,1,2,1.4c1.5,0.5,2,0.7,2.4,1.2
		c0.2,0.4,0.4,0.8,0.4,1.3c0,1.6-1.2,2.7-3.1,2.7c-2.1,0-3.2-1-3.2-2.8v0h1.2c0.1,1.2,0.8,1.8,2,1.8c1.1,0,1.8-0.6,1.8-1.5
		c0-0.8-0.2-1-2.5-1.7c-1.7-0.5-2.3-1.2-2.3-2.3c0-1.4,1.2-2.4,2.9-2.4C469.6,401.6,470.6,402.6,470.7,404.2z"/>
	<path class="st0" d="M473.7,398.2L473.7,398.2c0.6,0,1,0.4,1,0.9c0,0.5-0.4,0.9-0.9,0.9c-0.5,0-0.9-0.4-0.9-0.9
		C472.9,398.7,473.2,398.2,473.7,398.2z M473.1,401.9h1.3v8.5h-1.3V401.9z"/>
	<path class="st0" d="M484.3,401.9v1l-1.7,0c0.5,0.4,0.7,1.2,0.7,1.9c0,1-0.4,1.7-1.1,2.1c-0.4,0.2-0.9,0.4-1.7,0.6
		c-1.4,0.3-1.8,0.5-1.8,0.9c0,0.4,0.2,0.4,1.7,0.6c1.9,0.2,2.4,0.3,3,0.7c0.5,0.4,0.9,1.1,0.9,1.8c0,1.6-1.5,2.6-3.9,2.6
		c-2.3,0-3.9-1-3.9-2.5c0-1,0.5-1.7,1.8-2.1c-0.6-0.3-0.9-0.5-0.9-1c0-0.6,0.4-1,1.5-1.4c-1.2-0.5-1.7-1.3-1.7-2.5
		c0-1.8,1.2-2.9,3.1-2.9c0.5,0,0.8,0.1,1.3,0.2L484.3,401.9z M480.2,410.1c-1.6,0-2.6,0.5-2.6,1.5c0,0.9,1.1,1.5,2.7,1.5
		c1.6,0,2.6-0.6,2.6-1.5C483,410.6,482,410.1,480.2,410.1z M480.3,402.8c-1.1,0-1.8,0.8-1.8,1.9c0,1.1,0.7,1.8,1.8,1.8
		c1.1,0,1.8-0.7,1.8-1.8C482.1,403.6,481.3,402.8,480.3,402.8z"/>
	<path class="st0" d="M486,401.9h1.2c0.1,0.4,0.2,0.6,0.2,1.2c0.6-1,1.5-1.5,2.6-1.5c1.8,0,2.7,1,2.7,3v0.8v4.9h-1.3v-4.8V405
		c0-1.5-0.5-2.2-1.7-2.2c-1.4,0-2.3,1.1-2.3,2.9v4.8h-1.3v-5.6v-0.6C486.2,402.8,486.1,402.6,486,401.9z"/>
	<path class="st0" d="M505.4,404.2h-1.2c-0.1-1-0.7-1.5-1.7-1.5c-1,0-1.6,0.5-1.6,1.3c0,0.7,0.4,1,2,1.4c1.5,0.5,2,0.7,2.4,1.2
		c0.2,0.4,0.4,0.8,0.4,1.3c0,1.6-1.2,2.7-3.1,2.7c-2.1,0-3.2-1-3.2-2.8v0h1.2c0.1,1.2,0.8,1.8,2,1.8c1.1,0,1.8-0.6,1.8-1.5
		c0-0.8-0.2-1-2.4-1.7c-1.7-0.5-2.3-1.2-2.3-2.3c0-1.4,1.2-2.4,2.9-2.4C504.3,401.6,505.3,402.6,505.4,404.2z"/>
	<path class="st0" d="M509.6,401.9h2l0,1h-2l-0.1,4.3v0.6v0.2c0,1.1,0.2,1.4,1,1.4c0.4,0,0.8-0.1,1.2-0.3l0,1.1
		c-0.5,0.2-1,0.3-1.5,0.3c-1.4,0-2-0.6-2-2c0-0.2,0-0.5,0-0.7c0-0.3,0-0.5,0-0.7l0.1-4.3H507l0-1h1.3l0.1-2.5h1.2L509.6,401.9z"/>
	<path class="st0" d="M513.7,401.9h1.2v5.2c0,1.8,0.5,2.4,1.8,2.4c0.8,0,1.5-0.5,1.9-1.2c0.2-0.4,0.2-0.8,0.2-1.6v-4.9h1.3v6v0.7
		c0,1.1,0,1.3,0.2,1.9H519c-0.1-0.4-0.2-0.6-0.2-1.1c-0.5,1-1.2,1.4-2.3,1.4c-1.3,0-2.4-0.7-2.7-1.7c-0.1-0.5-0.2-0.8-0.2-1.8
		L513.7,401.9L513.7,401.9z"/>
	<path class="st0" d="M529.4,398.3v9.6c0,1.5,0,2,0.2,2.5h-1.2c-0.1-0.3-0.1-0.6-0.1-0.9c0-0.1,0-0.2,0-0.3c-0.6,1-1.3,1.4-2.4,1.4
		c-2.1,0-3.4-1.7-3.4-4.4c0-2.7,1.4-4.6,3.4-4.6c1.1,0,1.8,0.4,2.4,1.4v-4.7L529.4,398.3L529.4,398.3z M525.9,402.7
		c-1.4,0-2.3,1.3-2.3,3.4c0,2.1,0.9,3.4,2.2,3.4c1.4,0,2.3-1.3,2.3-3.4C528.1,404.1,527.3,402.7,525.9,402.7z"/>
	<path class="st0" d="M532.8,398.2L532.8,398.2c0.6,0,1,0.4,1,0.9c0,0.5-0.4,0.9-0.9,0.9c-0.5,0-0.9-0.4-0.9-0.9
		C531.9,398.7,532.3,398.2,532.8,398.2z M532.2,401.9h1.3v8.5h-1.3V401.9z"/>
	<path class="st0" d="M535.9,406.1c0-2.7,1.5-4.5,3.7-4.5c2.2,0,3.7,1.8,3.7,4.5c0,2.6-1.5,4.5-3.7,4.5
		C537.4,410.6,535.9,408.8,535.9,406.1z M537.1,406.1c0,2,1,3.4,2.4,3.4c1.5,0,2.4-1.4,2.4-3.4c0-2.1-1-3.4-2.4-3.4
		C538.1,402.7,537.1,404.1,537.1,406.1z"/>
</g>
<g id="bw0nhp_5_">
	<g>
		<path class="st0" d="M219.4,393.5c0,0.2-0.1,0.4-0.1,0.7l0,0c0,0.1,0.1,0.1,0.1,0.2l0,0c0,0,0.1,0.1,0.1,0.1
			c0,0.1-0.1,0.2-0.1,0.3l0,0c0,0.1,0.1,0.1,0.1,0.2l0,0c0,0.1,0,0.1,0,0.2l0,0c-0.1,0.2-0.1,0.5-0.1,0.7c0.7-0.2,1.6,0.5,1.8,1.2
			c0.4,1.5,0.8,3,1.2,4.5c0.2,0.6,0.6,1.1,0.9,1.6c0.1,0.1,0.4,0.1,0.5,0.1c0.7-0.6,1.4-1.2,1.6-2.1c0-0.2,0-0.4,0-0.7
			c0-0.5,0-0.9,0-1.4c0.2,0,0.3,0,0.4,0l0,0c0,0,0,0.1,0,0.1c0.1,0.1,0.1,0.2,0.2,0.3h0c0.1,0,0.1,0,0.2,0c0,0,0.1,0.1,0.1,0.1
			c0.1,0.1,0.1,0.1,0.2,0.2h0c0.1,0,0.2,0,0.2,0h0c0.1,0,0.2,0,0.2,0h0c0.1,0,0.2,0,0.2,0l0,0c0.1,0,0.1-0.1,0.2-0.1
			c0.1,0,0.2,0,0.3,0l0,0c0.1,0,0.1,0,0.2,0c0.1,0,0.1,0.1,0.2,0.1l0,0c0,0,0-0.1,0-0.1c0.1,0.2,0.2,0.4,0.3,0.8
			c0.1-0.5,0.2-0.9,0.2-1.3c0.1,0,0.1,0,0.2,0c0,0.2,0.1,0.5,0.1,0.8c0.1,0.1,0.2,0.1,0.4,0.3c0.2-0.9,0.8-1,1.5-0.9
			c0.1-0.4,0.3-0.5,0.6-0.3c0.1,0.1,0.2,0,0.3,0c0.7,0.1,1.3,0.2,2.1,0.2c-0.4,0.5-0.8,0.9-1.2,1.3c-0.1-0.3-0.1-0.4-0.2-0.6
			c0,0-0.1,0-0.1,0c0,0.2,0.1,0.4,0.1,0.6c0.9-0.1,1.2-0.9,1.7-1.4c0.4,0.8,0.1,1.5-0.1,2.2c0,0.1-0.1,0.2-0.1,0.3
			c-0.3,0.7-0.5,0.9-1.3,0.7c-0.2,0-0.3,0-0.5-0.1c0-0.1-0.1-0.1-0.1-0.2c0,0,0,0,0,0c-0.1,0-0.1,0.1-0.2,0.1l0,0
			c-0.3-0.1-0.6-0.2-0.9-0.2c0.1-0.3,0.2-0.6,0.4-0.8c0-0.1,0.1-0.2,0.1-0.4c-0.7,0.2-1.2,0.5-1.8,0.7c-0.1-0.7-0.7-0.1-1.1-0.5
			c0.1-0.2,0.2-0.4,0.3-0.6c-0.5,0.2-0.8,0.4-0.6,1c0.2,0.8,0.5,1.5,1.1,2.1c0.5,0.5,1.1,0.7,1.9,0.8c-1.1-0.1-2.2-0.1-3.2-0.2
			c-1-0.2-1.7-0.9-2.2-1.8c-0.9,0.4-1.6,1.3-1.4,1.7c-0.7-0.1-0.9,0.4-1.2,0.7c-0.2,0.2-0.4,0.2-0.6,0.4c-0.1-0.2-0.2-0.4-0.2-0.6
			c0-0.5-0.3-0.7-0.8-0.7c-0.3,0.9-0.6,1.8-1,2.6c-0.4,1-1,1.9-2.1,2.2c-0.1,0-0.2,0-0.3,0c-0.7-0.5-1.2-1.3-1.2-2.2
			c-0.1-1.1-0.1-2.2-0.1-3.4c0-1,0-2.1,0.1-3.1c0.1-0.6,0.5-1.1,0.8-1.6c-0.3,0.5-0.2,0.6,0.3,0.7c-0.8,0.4-0.7,1.2-0.8,1.8
			c-0.1,1.5-0.1,3.1-0.1,4.6c0,0.7,0.3,1.5,0.6,2.2c0.2,0.6,0.8,0.7,1.2,0.2c0.4-0.4,0.8-0.8,1-1.3c0.4-0.9,0.7-1.8,1.1-2.8
			c0.1-0.2,0-0.5-0.1-0.6c-0.6-0.8-1.1-1.6-1.1-2.6c0-0.2-0.1-0.4-0.2-0.8c0.5,0.1,0.9,0.2,1.3,0.3c0.5,0.1,0.6,0,0.5-0.5
			c-0.2-0.8-0.4-1.6-0.6-2.5c-0.2-0.7-1.2-1.1-1.8-0.8c-0.7,0.3-1.4,0.5-2.1,0.8c-0.3,0.1-0.5,0.1-0.5-0.3c-0.1-0.7-0.2-1.5-0.3-2.2
			c0-0.1,0.1-0.3,0.3-0.4c0.7-0.3,1.4-0.5,2.1-0.7c0.3-0.1,0.6-0.2,0.9-0.2C219.4,393.3,219.4,393.4,219.4,393.5L219.4,393.5z"/>
		<path class="st0" d="M234.4,390.1c-0.8,0.7-1.5,1.4-2.3,2c-0.1,0.1-0.1,0.1-0.1,0.2c-0.1-0.2-0.1-0.4-0.2-0.8
			c-0.2,0.2-0.4,0.4-0.6,0.6c-0.2,0.2-0.3,0.3-0.5,0.5c0,0-0.1-0.1-0.1-0.1c0.1-0.6-0.2-1-0.8-1.1c-0.1,0-0.2-0.1-0.3-0.2
			c-0.5-0.3-1.4,0-1.6,0.7c-0.6,0-0.7,0.5-0.8,0.9c-0.2,0.4-0.2,0.9,0.1,1.3c0.1,0.1,0.2,0.2,0.3,0.3c-0.6-0.2-0.9-0.6-0.9-1.2
			c0-0.2-0.1-0.4-0.2-0.6c-0.7-1.1-0.5-2.1,0.4-2.9c0,0.2,0,0.5,0,0.7c0,0-0.1,0-0.1-0.1c0.4-0.6,0.7-1.3,1.1-1.9
			c-0.2-0.1-0.5-0.3-0.8-0.5c-0.5-0.4-0.7-0.8-0.7-1.4c0-0.8-0.2-1.7-0.2-2.5c0-0.8,0.5-1.3,1.1-1.8c0.2-0.1,0.5-0.2,0.4-0.6l0,0
			c0.2,0,0.4,0.1,0.6,0.1c0,1,0,1.9,0.3,2.8c-0.4,0.3-0.9,0.7-1.3,1.1c-0.4,0.4-0.7,1-0.4,1.5c0.3,0.5,0.8,0.8,1.3,1.1
			c0.1,0.1,0.4-0.1,0.6-0.2c0.1,0.9,0.1,1.8,0.2,2.8c0.3-0.1,0.7-0.2,0.9-0.4c0.5-0.2,0.9-0.4,1.5-0.1
			C232.4,390.8,233.4,390.6,234.4,390.1z"/>
		<path class="st0" d="M230.4,395.3c1.1,0,2.3,0,3.6,0c-0.1,0.2-0.2,0.3-0.2,0.4c0.7,0.5,1.5,1,2.3,1.5c0.1,0.1,0.4,0.1,0.5,0.1
			c1.4-0.7,2.8-1.2,3.9-2.3c0.9-1,1.3-2.1,0.8-3.4c-0.5-1.3-1.6-1.9-2.9-2c-0.5,0-1,0.2-1.5,0.4c-0.5,0.2-1.1,0.3-1.6,0.1
			c-0.2-0.1-0.5,0-0.8,0.1c-0.4-0.1-0.9-0.4-1.3,0.2c-0.1,0.2-0.5,0.1-0.9,0.1c-0.1-0.9-0.1-1.7-0.2-2.4c0.6,0.5,1.2,1,1.9,1.4
			c0.2,0.1,0.6,0,0.9,0c0,0,0,0,0,0c0.1,0,0.1,0,0.2,0c0.6,0.5,1.3,0.3,1.9-0.1c1.3-0.8,3.9,0.1,4.6,1.8c0.6,1.5,0.1,3.5-1.2,4.4
			c-1.1,0.7-2.2,1.3-3.4,1.9c-0.4,0.2-0.9,0.2-1.3,0.3c-0.4,0.1-0.9,0.3-1.3,0.5c-0.9-0.4-1.7-1.4-3.1-1.5
			C231,396.5,230.7,395.9,230.4,395.3z"/>
		<path class="st0" d="M219.1,388.5c0,0.2-0.1,0.5-0.1,0.7c0,0,0,0,0.1,0.1c0.1-0.2,0.2-0.4,0.3-0.5c1.6,0.8,2,2.1,1,3.2
			c-0.6-0.7-1.4-1-2.3-1.1c-0.2,0-0.5,0.1-0.6,0.2c-0.6,0.4-1.3,0.5-2,0.5c-0.7,0-1-0.3-1.1-1c-0.1-0.7-0.1-1.3-0.2-2.1
			c0.5,0.6,1.1,0.7,1.7,0.5c0.2-0.1,0.3-0.3,0.5-0.4c0.1-0.1,0.3-0.1,0.5-0.2c-0.1-0.1-0.1-0.2-0.3-0.4c0.3,0.1,0.6,0.2,1,0.2
			c0.2-0.2,0.5-0.5,0.8-0.9c0.1-0.1,0.3-0.2,0.4-0.3c0,0,0.1,0,0.1,0c0,0.1,0,0.1,0,0.2v0c0,0.1,0,0.2,0,0.2l0,0c0,0.1,0,0.2,0,0.2
			l0,0c0,0.1,0,0.2,0,0.2l0,0c0,0.1,0,0.2,0,0.2l0,0c0,0.1,0,0.2,0,0.2l0,0C219,388.5,219.1,388.5,219.1,388.5z"/>
		<path class="st0" d="M212,384.5c0.4,0.8,1,1.1,2.3,0.8c0-0.3,0-0.6,0-0.9c-0.3-0.2-0.5-0.3-0.8-0.5c0-0.1,0.1-0.1,0.1-0.2
			c0.2,0,0.3,0,0.6,0c-0.1-0.1-0.2-0.2-0.3-0.3c1.3-0.5,2.6-0.5,3.8,0.3c0.9,0.6,1.3,1.5,1.1,2.7c-0.4-0.7-1-1-1.7-1.2
			c-0.7-0.2-1.4-0.2-2.2,0c0.4,0.3,1-0.2,1.3,0.5c-0.3,0.1-0.6,0.2-0.8,0.3c-0.6,0.3-1.2,0.6-1.8,0.9c-0.6,0.3-0.8,0.2-1-0.4
			c-0.1-0.5-0.3-0.9-0.4-1.3C212,384.9,212,384.7,212,384.5z"/>
		<path class="st0" d="M234.9,389.5C234.9,389.5,234.9,389.5,234.9,389.5c-0.2,0-0.4,0-0.7,0c0.2-0.9,0.2-1.7-0.2-2.5
			c-0.4-0.8-1.1-1.2-1.9-1.3c0.2-0.6,0.5-0.9,1.1-0.9c1.1-0.1,2.1,0.9,2.4,2C235.7,387.8,235.4,388.7,234.9,389.5z"/>
		<path class="st0" d="M227.6,381.5c-1.4-0.1-2.2-1-2.4-2.2c-0.1-0.8,0.1-1.4,0.6-2c0.3-0.3,0.5-0.7,0.8-1.1
			c0.7-0.9,0.9-1.8,0.9-2.9c0-0.5,0-1,0-1.5c0-0.1,0.1-0.2,0.2-0.3c0.1,0.1,0.2,0.2,0.2,0.3c0.1,1.8,0.1,3.6-1.3,5.1
			c-0.6,0.6-0.8,1.4-1,2.2c-0.2,0.9,0.3,1.7,1.2,2.1C227.1,381.3,227.4,381.4,227.6,381.5L227.6,381.5z"/>
		<path class="st0" d="M228.8,394.7c0.5,0.2,1.1,0.4,1.6,0.6c-0.5-0.3-1,0-1.6,0.1c-1.1,0.2-2.2,0.5-3.1,1.2c-1.3,1-2.4,2.2-3.1,3.8
			c-0.1,0.1-0.2,0.3-0.3,0.4c0.2-1.7,1.2-2.8,2.3-3.9c1.2-1.1,2.5-1.8,4.2-1.9C228.8,394.9,228.8,394.8,228.8,394.7z"/>
		<path class="st0" d="M217.7,398.1c0.4-0.4,0.8-0.7,1.1-1.1c0.1-0.1,0.3-0.3,0.5-0.3c0.3,0,0.7-0.1,0.8,0c0.1,0.1,0.1,0.6,0,0.8
			c-0.1,0.6-0.4,1-1.1,0.8c-0.1,0-0.3,0.1-0.4,0.1c0.2-0.1,0.4-0.3,0.6-0.4c-0.5-0.7-0.5-0.7-1.2-0.2C218,398,217.9,398,217.7,398.1
			z"/>
		<path class="st0" d="M231.9,386.7c-0.5,0.1-1,0.3-1.5,0.4c-0.1-1.1,0.8-1.4,1.5-2c-0.1,0.3-0.1,0.4-0.1,0.5c0,0.2-0.1,0.4-0.1,0.5
			C231.7,386.3,231.8,386.5,231.9,386.7z"/>
		<path class="st0" d="M217.7,398.1c0.1-0.1,0.3-0.1,0.4-0.2c0.7-0.4,0.7-0.4,1.2,0.2c-0.2,0.1-0.4,0.3-0.6,0.4
			c-0.3,0.1-0.5,0.3-0.8,0.4c-0.5-0.1-0.6-0.1-0.3-0.7C217.7,398.2,217.7,398.2,217.7,398.1z"/>
		<path class="st0" d="M231.5,380c-0.6,0.3-1,0.5-1.5,0.7c-0.1-0.3-0.1-0.5-0.2-0.9C230,379.5,230.5,379.5,231.5,380z"/>
		<path class="st0" d="M226.2,398.7c0.6,0,1.2,0,2,0c-0.2,0.3-0.3,0.5-0.4,0.7c0,0,0.1-0.1,0.1-0.1l0,0c-0.1-0.1-0.1-0.1-0.2-0.2
			l0,0c-0.1,0-0.2,0-0.2,0h0c-0.1,0-0.2,0-0.3,0c-0.1-0.1-0.1-0.1-0.2-0.2h0c-0.1,0.1-0.2,0.1-0.3,0.2c-0.1,0-0.1,0-0.2,0h0
			c-0.1,0-0.2,0-0.3,0h0c0,0,0-0.1-0.1-0.1v0C226.2,398.9,226.2,398.8,226.2,398.7L226.2,398.7z"/>
		<path class="st0" d="M233.1,388.8c-0.4-0.5-0.7-1-1.1-1.5c0,0,0.1-0.1,0.2-0.1c0.6,0.4,0.9,0.9,1.1,1.5
			C233.2,388.7,233.1,388.7,233.1,388.8z"/>
		<path class="st0" d="M226.2,398.7L226.2,398.7c-0.1,0.1-0.1,0.1-0.1,0.2l0,0c-0.1,0-0.2,0-0.2,0l0,0c0,0,0-0.1,0-0.1l0,0l0,0
			c0,0-0.1,0.1-0.1,0.1l0,0l0,0C225.7,398.5,225.9,398.6,226.2,398.7z"/>
		<path class="st0" d="M219,386.8c0.1,0.1,0.1,0.3,0.2,0.4l0,0c0,0-0.1-0.1-0.1-0.1c0,0-0.1-0.1-0.1-0.1l0,0c0,0,0-0.1,0-0.1l0,0
			C219,386.9,219,386.9,219,386.8C219,386.8,219,386.8,219,386.8L219,386.8z"/>
		<path class="st0" d="M231.9,402.1c0,0.1,0.1,0.1,0.1,0.2l0,0l0,0C231.9,402.2,231.9,402.2,231.9,402.1z"/>
		<path class="st0" d="M231.9,402.3c-0.1,0-0.2,0-0.2,0l0,0c0,0,0.1,0,0.1,0C231.8,402.3,231.9,402.3,231.9,402.3z"/>
		<path class="st0" d="M231.9,402.3c0,0-0.1,0-0.1,0l0,0C231.8,402.3,231.9,402.3,231.9,402.3L231.9,402.3L231.9,402.3z"/>
		<path class="st0" d="M227.8,399.4L227.8,399.4c0,0,0,0.1,0,0.1C227.8,399.5,227.7,399.5,227.8,399.4L227.8,399.4
			C227.7,399.4,227.7,399.4,227.8,399.4c0-0.1,0-0.1,0.1-0.1C227.8,399.3,227.8,399.4,227.8,399.4z"/>
		<path class="st0" d="M219.2,387.4L219.2,387.4c0,0-0.1,0-0.1,0l0,0c0,0,0-0.1,0-0.1l0,0C219.1,387.3,219.2,387.4,219.2,387.4z"/>
		<path class="st0" d="M219.1,388.5c-0.1,0-0.1,0-0.2-0.1C219,388.5,219.1,388.5,219.1,388.5L219.1,388.5L219.1,388.5z"/>
		<path class="st0" d="M219.2,388.5C219.2,388.5,219.2,388.5,219.2,388.5l-0.1,0.1c0,0,0-0.1,0-0.1
			C219.1,388.4,219.2,388.4,219.2,388.5z"/>
		<path class="st0" d="M219.2,388.5c0,0-0.1,0-0.1-0.1l0,0c0,0,0-0.1,0-0.1c0,0,0.1,0,0.1-0.1C219.2,388.3,219.2,388.4,219.2,388.5z
			"/>
		<path class="st0" d="M219.2,388.2c0,0-0.1,0-0.1,0.1l0,0c0,0,0-0.1,0-0.1C219.1,388.2,219.2,388.2,219.2,388.2L219.2,388.2z"/>
		<path class="st0" d="M219.2,388.2c0,0-0.1,0-0.1-0.1l0,0c0,0,0-0.1,0-0.1l0,0c0,0,0.1,0,0.1,0l0,0
			C219.2,388.1,219.2,388.2,219.2,388.2z"/>
		<path class="st0" d="M219.4,387.9c0,0.1-0.1,0.1-0.1,0.2l0,0c0,0,0-0.1,0-0.1C219.3,387.9,219.3,387.9,219.4,387.9z"/>
		<path class="st0" d="M219.4,387.9c0,0-0.1,0-0.1,0.1l0,0c0,0,0-0.1,0-0.1C219.3,387.9,219.3,387.9,219.4,387.9L219.4,387.9z"/>
		<path class="st0" d="M219.3,387.9c0,0-0.1,0-0.1-0.1l0,0c0,0,0-0.1,0-0.1l0,0C219.3,387.8,219.3,387.9,219.3,387.9z"/>
		<path class="st0" d="M219.2,387.6c0,0,0,0.1,0,0.1l0,0c0,0-0.1,0-0.1,0l0,0c0,0,0-0.1,0-0.1C219.1,387.6,219.2,387.6,219.2,387.6z
			"/>
		<path class="st0" d="M219.2,387.6c0,0-0.1,0-0.1,0l0,0c0,0,0-0.1,0-0.1c0,0,0.1,0,0.1,0C219.2,387.5,219.2,387.6,219.2,387.6z"/>
		<path class="st0" d="M219.2,387.5c0,0-0.1,0-0.1,0L219.2,387.5c-0.1,0-0.1,0-0.1-0.1c0,0,0.1,0,0.1-0.1
			C219.2,387.4,219.2,387.4,219.2,387.5z"/>
		<path class="st0" d="M218.9,386.9c0-0.1,0.1-0.1,0.1-0.2l0,0c0,0,0,0.1,0,0.1l0,0C219,386.9,218.9,386.9,218.9,386.9z"/>
		<path class="st0" d="M218.9,386.9c0,0,0.1,0,0.1-0.1c0,0,0,0.1,0,0.1C219,387,218.9,386.9,218.9,386.9L218.9,386.9z"/>
		<path class="st0" d="M218.9,386.9c0,0,0.1,0,0.1,0.1l0,0c0,0,0,0.1,0,0.1c-0.1,0-0.1,0.1-0.1,0.1
			C218.9,387.1,218.9,387,218.9,386.9z"/>
		<path class="st0" d="M219.5,395.1L219.5,395.1L219.5,395.1z"/>
		<path class="st0" d="M218.9,387.2c0.1,0,0.1-0.1,0.1-0.1l0,0c0,0,0,0.1,0,0.1l0,0C219,387.2,218.9,387.2,218.9,387.2L218.9,387.2z
			"/>
		<path class="st0" d="M219.6,394.8c0,0,0,0.1,0,0.1l0,0C219.6,394.9,219.6,394.8,219.6,394.8L219.6,394.8z"/>
		<path class="st0" d="M219.4,394.7L219.4,394.7c0,0,0.1,0,0.1,0.1l0,0C219.5,394.8,219.5,394.7,219.4,394.7z"/>
		<path class="st0" d="M219.5,394.4c0,0-0.1,0-0.1-0.1C219.5,394.4,219.5,394.4,219.5,394.4L219.5,394.4z"/>
		<path class="st0" d="M219.6,394.4c0,0-0.1,0-0.1-0.1l0,0c0,0,0-0.1,0-0.1l0,0C219.5,394.3,219.5,394.4,219.6,394.4z"/>
		<path class="st0" d="M219.3,394.2L219.3,394.2c0,0,0.1,0,0.1,0.1l0,0C219.4,394.2,219.4,394.2,219.3,394.2z"/>
		<path class="st0" d="M219.4,393.5L219.4,393.5C219.4,393.5,219.4,393.5,219.4,393.5z"/>
		<path class="st0" d="M219.2,387.4c0,0-0.1,0-0.1-0.1c0,0,0-0.1,0-0.1c0,0,0.1,0,0.1,0l0,0C219.2,387.2,219.2,387.3,219.2,387.4z"
			/>
		<path class="st0" d="M226.5,399.6L226.5,399.6c0,0-0.1-0.1-0.2-0.1l0,0c0,0-0.1-0.1-0.1-0.1c0,0,0-0.1,0-0.1l0,0
			c0.1,0,0.1,0,0.2,0l0,0c0,0,0.1,0.1,0.1,0.1C226.6,399.4,226.6,399.5,226.5,399.6z"/>
		<path class="st0" d="M226.1,399.3c-0.1,0-0.1,0-0.2,0c0-0.1,0-0.2,0.1-0.3c0.1,0,0.2-0.1,0.2-0.1c0,0,0,0.1,0.1,0.1
			C226.2,399.1,226.2,399.2,226.1,399.3l0.1-0.1C226.1,399.3,226.1,399.3,226.1,399.3L226.1,399.3z"/>
		<path class="st0" d="M226.7,399.6L226.7,399.6c0-0.1,0-0.1-0.1-0.2c0.1,0,0.2,0,0.2,0c0,0,0,0.1,0,0.1l0,0
			C226.9,399.5,226.8,399.5,226.7,399.6z"/>
		<path class="st0" d="M227.4,399.5c-0.1,0-0.2,0-0.3,0l0,0c0,0,0-0.1,0-0.1c0.1,0,0.2,0,0.2,0C227.4,399.4,227.4,399.4,227.4,399.5
			z"/>
		<path class="st0" d="M226.7,399.3c0,0.1,0.1,0.1,0.1,0.2c-0.1,0-0.2,0-0.2,0C226.6,399.5,226.6,399.4,226.7,399.3l-0.1,0
			C226.6,399.3,226.7,399.3,226.7,399.3L226.7,399.3z"/>
		<path class="st0" d="M225.7,399.1c0,0,0-0.1,0-0.1l0,0c0,0,0.1,0,0.1,0l0,0c0,0.1,0,0.2,0,0.2l0,0
			C225.8,399.1,225.8,399.1,225.7,399.1z"/>
		<path class="st0" d="M225.7,399.1c0,0,0.1,0,0.1,0.1c0,0.1,0,0.2,0.1,0.3C225.8,399.3,225.8,399.2,225.7,399.1z"/>
		<path class="st0" d="M225.9,399.4c0-0.1,0-0.2-0.1-0.3l0,0c0,0,0.1,0,0.1,0l0,0C225.9,399.2,225.9,399.3,225.9,399.4L225.9,399.4z
			"/>
		<path class="st0" d="M226.4,399.4c0.1,0,0.1,0.1,0.2,0.1c-0.1,0-0.2,0-0.2,0C226.3,399.5,226.4,399.5,226.4,399.4z"/>
		<path class="st0" d="M226.7,399.6c0.1,0,0.1-0.1,0.2-0.1c0,0,0,0.1,0.1,0.1C226.9,399.6,226.8,399.6,226.7,399.6z"/>
		<path class="st0" d="M227,399.6c0,0,0-0.1-0.1-0.1l0,0c0,0,0.1,0,0.1,0C227,399.5,227,399.5,227,399.6L227,399.6z"/>
		<path class="st0" d="M227,399.6c0,0,0-0.1,0.1-0.1l0,0c0,0,0.1,0,0.1,0l0,0C227.1,399.5,227,399.5,227,399.6z"/>
		<path class="st0" d="M227.8,399.5c-0.1,0-0.1-0.1-0.2-0.1l0,0C227.6,399.5,227.6,399.5,227.8,399.5l-0.1-0.1
			C227.7,399.5,227.8,399.5,227.8,399.5z"/>
		<path class="st0" d="M227.8,399.5c0,0-0.1-0.1-0.1-0.1C227.7,399.5,227.8,399.5,227.8,399.5L227.8,399.5z"/>
		<path class="st0" d="M231.8,402.3c0,0-0.1,0-0.1,0c0.1-0.1,0.1-0.1,0.2-0.1C231.8,402.2,231.8,402.2,231.8,402.3L231.8,402.3z"/>
		<path class="st0" d="M231.8,402.3c0-0.1,0.1-0.1,0.1-0.1c0,0,0,0,0,0c0,0.1,0,0.1,0.1,0.2C231.9,402.3,231.8,402.3,231.8,402.3z"
			/>
		<path class="st0" d="M227.4,399.5c0,0,0-0.1-0.1-0.1l0,0c0,0,0.1,0,0.1,0C227.4,399.4,227.4,399.4,227.4,399.5L227.4,399.5z"/>
		<path class="st0" d="M227.4,399.5c0,0,0-0.1,0.1-0.1l0,0c0,0,0.1,0,0.1,0c0,0,0,0.1,0,0.1l0,0
			C227.5,399.4,227.5,399.4,227.4,399.5z"/>
		<path class="st0" d="M226.2,399.4c0,0-0.1-0.1-0.1-0.1l0,0C226.1,399.3,226.1,399.3,226.2,399.4l0-0.1
			C226.2,399.4,226.2,399.4,226.2,399.4L226.2,399.4z"/>
		<path class="st0" d="M226.3,399.6c-0.1-0.1-0.1-0.1-0.2-0.2l0,0c0,0,0.1,0,0.1,0l0,0C226.3,399.5,226.3,399.5,226.3,399.6z"/>
		<path class="st0" d="M226.3,399.6c0-0.1,0-0.1-0.1-0.2c0,0,0.1,0,0.1,0l0,0C226.4,399.5,226.3,399.5,226.3,399.6L226.3,399.6z"/>
		<path class="st0" d="M219.4,394.7c0,0,0.1,0,0.1,0.1c0,0,0,0.1,0,0.1C219.5,394.8,219.5,394.8,219.4,394.7z"/>
		<path class="st0" d="M219.3,394.2c0,0,0.1,0,0.1,0.1c0,0,0,0.1,0,0.1C219.4,394.3,219.4,394.2,219.3,394.2z"/>
		<path class="st0" d="M227.9,391.9c0.2-0.6,1.1-1,1.6-0.7c0.1,0.1,0.2,0.2,0.3,0.2c0.6,0.1,0.9,0.5,0.8,1.1c0.1,0,0.1,0.1,0.1,0.1
			c0.2-0.2,0.3-0.3,0.5-0.5c0.2-0.2,0.3-0.3,0.6-0.6c0.1,0.4,0.1,0.6,0.2,0.8c0,0,0,0,0,0c-0.1,0-0.3,0.1-0.4,0.1
			C230.2,393.1,229,392.8,227.9,391.9L227.9,391.9L227.9,391.9z"/>
		<path class="st0" d="M227.9,391.9c1.1,0.9,2.3,1.2,3.7,0.6c0.1-0.1,0.3-0.1,0.4-0.1c-0.3,0.3-0.7,0.6-1,0.9
			c-0.3,0.3-0.6,0.7-0.9,1.1c-0.5-0.1,0.1-0.4,0-0.6c-0.4-0.1-0.8,0-1-0.2C228.6,393.2,228,392.7,227.9,391.9z"/>
		<path class="st0" d="M219.1,388.4c0,0,0,0.1,0,0.1c0,0-0.1,0-0.1-0.1l0,0C219,388.4,219.1,388.4,219.1,388.4L219.1,388.4z"/>
		<path class="st0" d="M219.1,388.4c0,0-0.1,0-0.1,0.1c0-0.1,0-0.2,0-0.2c0,0,0.1,0,0.1,0.1l0,0
			C219.1,388.3,219.1,388.4,219.1,388.4z"/>
		<path class="st0" d="M219.1,388.3c0,0-0.1,0-0.1-0.1l0,0c0,0,0.1,0,0.1-0.1l0,0C219.1,388.2,219.1,388.2,219.1,388.3z"/>
		<path class="st0" d="M219.1,388.2c0,0-0.1,0-0.1,0.1c0-0.1,0-0.2,0-0.2c0,0,0.1,0,0.1,0.1C219.1,388.1,219.1,388.1,219.1,388.2z"
			/>
		<path class="st0" d="M219.1,388.1c0,0-0.1,0-0.1-0.1l0,0c0,0,0.1,0,0.1-0.1C219.1,388,219.1,388,219.1,388.1L219.1,388.1z"/>
		<path class="st0" d="M219.1,388c0,0-0.1,0-0.1,0.1c0-0.1,0-0.2,0-0.2c0,0,0.1,0,0.1,0.1C219.1,387.9,219.1,387.9,219.1,388
			L219.1,388z"/>
		<path class="st0" d="M219.1,387.8c0,0-0.1,0-0.1-0.1l0,0C219,387.8,219.1,387.8,219.1,387.8l0-0.1
			C219.1,387.8,219.1,387.8,219.1,387.8L219.1,387.8z"/>
		<path class="st0" d="M219.1,387.7c0,0-0.1,0-0.1,0.1c0-0.1,0-0.2,0-0.2c0,0,0.1,0,0.1,0.1l0,0
			C219.1,387.7,219.1,387.7,219.1,387.7z"/>
		<path class="st0" d="M219.1,387.6c0,0-0.1,0-0.1-0.1l0,0c0,0,0.1,0,0.1-0.1l0,0C219.1,387.6,219.1,387.6,219.1,387.6z"/>
		<path class="st0" d="M219.1,387.5c0,0-0.1,0-0.1,0.1c0-0.1,0-0.2,0-0.2c0.1,0,0.1,0,0.1,0.1l0,0
			C219.1,387.5,219.1,387.5,219.1,387.5z"/>
		<path class="st0" d="M219.1,387.2c0,0,0,0.1,0,0.1l0,0c-0.1,0-0.1,0-0.1,0.1C219,387.3,219,387.2,219.1,387.2l-0.1,0
			C219,387.2,219.1,387.2,219.1,387.2L219.1,387.2z"/>
		<path class="st0" d="M219,387.4c0.1,0,0.1,0,0.1-0.1c0,0,0,0.1,0,0.1C219.1,387.4,219,387.4,219,387.4L219,387.4z"/>
		<path class="st0" d="M226.2,399c-0.1,0.1-0.2,0.1-0.2,0.1l0,0c0-0.1,0.1-0.2,0.1-0.2l0,0C226.1,398.9,226.1,399,226.2,399
			L226.2,399z"/>
		<path class="st0" d="M227.1,399.1c0.1,0,0.2,0,0.3,0c0,0,0,0.1,0,0.1c-0.1,0-0.2,0-0.2,0C227.1,399.2,227.1,399.2,227.1,399.1
			L227.1,399.1z"/>
		<path class="st0" d="M226.7,399.1c0.1-0.1,0.2-0.1,0.3-0.2c0,0.1,0,0.1-0.1,0.2C226.9,399.1,226.8,399.1,226.7,399.1L226.7,399.1z
			"/>
		<path class="st0" d="M226.5,399.2c-0.1,0-0.1,0-0.2,0c0,0,0-0.1-0.1-0.2c0.1,0,0.2,0,0.3,0C226.5,399.1,226.5,399.2,226.5,399.2z"
			/>
		<path class="st0" d="M227.6,399.1c0.1,0.1,0.1,0.1,0.2,0.2c-0.1,0-0.1-0.1-0.2-0.1C227.7,399.2,227.6,399.1,227.6,399.1z"/>
		<path class="st0" d="M227.6,399.1c0,0,0,0.1,0.1,0.1l0,0c0,0-0.1,0-0.1,0l0,0C227.6,399.2,227.6,399.2,227.6,399.1L227.6,399.1z"
			/>
		<path class="st0" d="M227.6,399.1c0,0,0,0.1-0.1,0.1c0,0-0.1,0-0.1,0l0,0c0-0.1,0-0.1-0.1-0.1
			C227.5,399.1,227.6,399.1,227.6,399.1z"/>
		<path class="st0" d="M227.4,399.1c0,0,0.1,0.1,0.1,0.1c0,0-0.1,0-0.1,0l0,0C227.4,399.2,227.4,399.1,227.4,399.1L227.4,399.1z"/>
		<path class="st0" d="M226.5,399.1c0.1,0,0.1,0,0.2,0l0,0c0,0,0,0.1,0,0.1l0,0c0,0-0.1,0-0.1,0l0,0
			C226.6,399.2,226.6,399.1,226.5,399.1z"/>
		<path class="st0" d="M226.5,399.1c0,0,0,0.1,0.1,0.1c0,0-0.1,0-0.1,0l0,0C226.5,399.2,226.5,399.1,226.5,399.1L226.5,399.1z"/>
		<path class="st0" d="M226.2,399.1c0,0,0,0.1,0.1,0.2l0,0c0,0-0.1,0-0.1,0C226.2,399.2,226.2,399.1,226.2,399.1L226.2,399.1z"/>
		<path class="st0" d="M227.7,399.2c0,0,0.1,0.1,0.2,0.1l0,0C227.8,399.3,227.7,399.3,227.7,399.2l0,0.1
			C227.7,399.3,227.7,399.3,227.7,399.2L227.7,399.2z"/>
		<path class="st0" d="M227,399c0.1,0.1,0.1,0.1,0.2,0.2l0,0c0,0-0.1,0-0.1,0C227,399.1,227,399,227,399z"/>
		<path class="st0" d="M227,399c0,0.1,0,0.1,0.1,0.2l0,0c0,0-0.1,0-0.1,0l0,0C226.9,399.1,227,399,227,399L227,399z"/>
		<path class="st0" d="M226.2,399c0,0-0.1,0-0.1-0.1c0-0.1,0.1-0.1,0.1-0.2C226.2,398.8,226.2,398.9,226.2,399z"/>
		<path class="st0" d="M226.1,398.9c0,0.1-0.1,0.2-0.1,0.2c0,0-0.1,0-0.1,0c0-0.1,0-0.2,0-0.2C225.9,398.9,226,398.9,226.1,398.9z"
			/>
		<path class="st0" d="M225.8,398.9c0,0-0.1,0-0.1,0c0,0,0.1-0.1,0.1-0.1l0,0C225.8,398.8,225.8,398.9,225.8,398.9z"/>
		<polygon class="st0" points="225.8,398.8 225.8,398.8 225.8,398.8 		"/>
		<path class="st0" d="M219,386.9c0,0,0-0.1,0-0.1C219,386.8,219,386.8,219,386.9C219,386.9,219,386.9,219,386.9z"/>
		<path class="st0" d="M219,387.1c0,0,0-0.1,0-0.1C219,387,219.1,387.1,219,387.1l0.1,0C219.1,387.1,219,387.1,219,387.1L219,387.1z
			"/>
		<path class="st0" d="M219.2,387.2c0,0-0.1,0-0.1,0l0,0c0,0,0-0.1,0-0.1l0,0C219.1,387.1,219.2,387.2,219.2,387.2z"/>
		<path class="st0" d="M227.6,399.5c0,0,0-0.1,0-0.1l0,0c0,0,0.1,0,0.1,0l0,0c0,0,0,0.1,0,0.1C227.6,399.5,227.6,399.5,227.6,399.5z
			"/>
		<path class="st0" d="M219.1,388.1c0,0,0-0.1,0-0.1l0,0c0,0,0.1,0,0.1,0l0,0c0,0,0,0.1,0,0.1C219.2,388.1,219.1,388.1,219.1,388.1z
			"/>
		<path class="st0" d="M219.2,388c0,0-0.1,0-0.1,0c0,0,0-0.1,0-0.1l0,0c0,0,0.1,0,0.1,0l0,0C219.2,387.9,219.2,387.9,219.2,388z"/>
		<path class="st0" d="M219.2,387.9c0,0-0.1,0-0.1,0c0,0,0-0.1,0-0.1c0,0,0.1,0,0.1,0C219.2,387.8,219.2,387.8,219.2,387.9z"/>
		<path class="st0" d="M219.1,387.1c0,0,0,0.1,0,0.1c0,0-0.1,0-0.1,0c0,0,0-0.1,0-0.1C219,387.1,219.1,387.1,219.1,387.1z"/>
		<path class="st0" d="M226.4,399.5c0,0-0.1,0-0.1,0l0,0c0,0,0-0.1,0-0.1l0,0C226.3,399.4,226.3,399.4,226.4,399.5z"/>
		<path class="st0" d="M226.5,399.2c0,0,0.1,0,0.1,0l0,0c0,0,0,0.1,0,0.1l0,0C226.6,399.3,226.5,399.3,226.5,399.2z"/>
		<path class="st0" d="M226.2,399.2c0,0,0.1,0,0.1,0c0,0,0,0.1,0,0.1l0,0C226.2,399.3,226.2,399.3,226.2,399.2l0,0.1
			C226.2,399.3,226.2,399.3,226.2,399.2L226.2,399.2z"/>
		<path class="st0" d="M226.2,399.2c0,0,0,0.1,0,0.1c0,0-0.1,0-0.1,0C226.1,399.3,226.1,399.3,226.2,399.2z"/>
		<path class="st0" d="M226.9,399.3c-0.1,0-0.2,0-0.2,0l0,0c0,0,0-0.1,0-0.1l0,0C226.8,399.2,226.9,399.2,226.9,399.3l0-0.1
			C226.9,399.3,226.9,399.3,226.9,399.3L226.9,399.3z"/>
		<path class="st0" d="M227,399.4c0,0-0.1,0-0.1,0c0,0,0-0.1,0-0.1l0,0c0,0,0.1,0,0.1,0C227,399.4,227,399.4,227,399.4L227,399.4z"
			/>
		<path class="st0" d="M227.1,399.2c0.1,0,0.2,0,0.2,0l0,0c0,0,0,0.1,0,0.1l0,0C227.3,399.3,227.2,399.3,227.1,399.2l0,0.1
			C227.1,399.3,227.1,399.3,227.1,399.2L227.1,399.2z"/>
		<path class="st0" d="M227,399.5c0,0,0-0.1,0-0.1l0,0c0,0,0.1,0,0.1,0l0,0c0,0,0,0.1,0,0.1C227.1,399.5,227.1,399.5,227,399.5z"/>
		<path class="st0" d="M226.7,399.2c0,0,0,0.1,0,0.1c0,0-0.1,0-0.1,0c0,0,0-0.1,0-0.1C226.6,399.2,226.7,399.2,226.7,399.2z"/>
		<path class="st0" d="M227.4,399.4c0,0,0-0.1,0-0.1c0,0,0.1,0,0.1,0l0,0c0,0,0,0.1,0,0.1l0,0C227.4,399.3,227.4,399.3,227.4,399.4z
			"/>
		<path class="st0" d="M227.5,399.3c0,0,0-0.1,0-0.1c0,0,0.1,0,0.1,0l0,0c0,0,0,0.1,0,0.1l0,0C227.5,399.3,227.5,399.3,227.5,399.3z
			"/>
		<path class="st0" d="M226.2,399.3c0,0,0.1,0,0.1,0c0,0,0,0.1,0,0.1c0,0-0.1,0-0.1,0C226.2,399.4,226.2,399.4,226.2,399.3z"/>
		<path class="st0" d="M227,399.1c0,0,0.1,0,0.1,0c0,0,0,0.1,0,0.1l0,0C227.1,399.2,227.1,399.2,227,399.1l0,0.1
			C227,399.2,227,399.2,227,399.1L227,399.1z"/>
		<path class="st0" d="M226.9,399.2c-0.1,0-0.2,0-0.2,0c0,0,0-0.1,0-0.1c0.1,0,0.2,0,0.2,0l0,0C226.9,399.2,226.9,399.2,226.9,399.2
			z"/>
		<path class="st0" d="M227.6,399.3c0,0,0-0.1,0-0.1c0,0,0.1,0,0.1,0c0,0,0,0.1,0,0.1C227.6,399.3,227.6,399.3,227.6,399.3z"/>
		<path class="st0" d="M226.9,399.2c0,0,0-0.1,0-0.1c0,0,0.1,0,0.1,0c0,0,0,0.1,0,0.1C227,399.2,227,399.2,226.9,399.2L226.9,399.2z
			"/>
		<path class="st0" d="M226.9,399.2c0,0,0.1,0,0.1,0l0,0c0,0,0,0.1,0,0.1l0,0c0,0-0.1,0-0.1,0C226.9,399.3,226.9,399.3,226.9,399.2z
			"/>
		<path class="st0" d="M227,399.3c0,0,0-0.1,0-0.1c0,0,0.1,0,0.1,0c0,0,0,0.1,0,0.1C227.1,399.3,227.1,399.3,227,399.3z"/>
	</g>
</g>
</svg>
