<?xml version="1.0" encoding="utf-8"?>
<!-- Generator: Adobe Illustrator 19.0.0, SVG Export Plug-In . SVG Version: 6.00 Build 0)  -->
<svg version="1.1" id="Layer_1" xmlns="http://www.w3.org/2000/svg" xmlns:xlink="http://www.w3.org/1999/xlink" x="0px" y="0px"
	 viewBox="0 0 75 75" style="enable-background:new 0 0 75 75;" xml:space="preserve">
<style type="text/css">
	.st0{fill:none;stroke:#000000;stroke-width:0.25;stroke-linecap:round;stroke-linejoin:round;stroke-miterlimit:10;}
	.st1{fill:none;stroke:#000000;stroke-width:0.1;stroke-linecap:round;stroke-linejoin:round;stroke-miterlimit:10;}
	.st2{fill:none;stroke:#000000;stroke-width:0.35;stroke-miterlimit:10;}
	.st3{font-family:'CorporateS-Bold';}
	.st4{font-size:9px;}
</style>
<line id="XMLID_111_" class="st0" x1="74.7" y1="-0.5" x2="74.7" y2="-0.5"/>
<rect id="XMLID_110_" x="4" y="33.1" class="st0" width="10.7" height="10.7"/>
<circle id="XMLID_109_" class="st0" cx="9.3" cy="38.4" r="4.9"/>
<rect id="XMLID_108_" x="7.9" y="31.3" class="st0" width="3" height="1.8"/>
<rect id="XMLID_107_" x="12.8" y="53.3" transform="matrix(0.7071 -0.7071 0.7071 0.7071 -36.1502 29.9916)" class="st0" width="10.7" height="10.7"/>
<circle id="XMLID_106_" class="st0" cx="18.1" cy="58.6" r="4.9"/>
<rect id="XMLID_105_" x="12.3" y="53.3" transform="matrix(0.7071 -0.7071 0.7071 0.7071 -34.2938 25.6023)" class="st0" width="3" height="1.8"/>
<rect id="XMLID_104_" x="33.3" y="61.4" class="st0" width="10.7" height="10.7"/>
<circle id="XMLID_103_" class="st0" cx="38.6" cy="66.7" r="4.9"/>
<rect id="XMLID_102_" x="31.5" y="65.2" class="st0" width="1.8" height="3"/>
<rect id="XMLID_101_" x="53.5" y="52.6" transform="matrix(-0.707 -0.7072 0.7072 -0.707 59.4487 140.4421)" class="st0" width="10.7" height="10.7"/>
<circle id="XMLID_100_" class="st0" cx="58.8" cy="57.9" r="4.9"/>
<rect id="XMLID_99_" x="52.9" y="61.4" transform="matrix(-0.7071 -0.7071 0.7071 -0.7071 48.7978 144.7656)" class="st0" width="3" height="1.8"/>
<rect id="XMLID_98_" x="61.5" y="32.1" class="st0" width="10.7" height="10.7"/>
<path id="XMLID_97_" class="st0" d="M62,37.4c0-2.7,2.2-4.9,4.9-4.9c2.7,0,4.9,2.2,4.9,4.9c0,2.7-2.2,4.9-4.9,4.9
	C64.2,42.3,62,40.1,62,37.4z"/>
<rect id="XMLID_96_" x="65.3" y="42.7" class="st0" width="3" height="1.8"/>
<rect id="XMLID_95_" x="52.8" y="11.9" transform="matrix(-0.7073 0.7069 -0.7069 -0.7073 111.3467 -11.667)" class="st0" width="10.7" height="10.7"/>
<path id="XMLID_94_" class="st0" d="M54.6,20.7c-1.9-1.9-1.9-5,0-6.9c1.9-1.9,5-1.9,6.9,0c1.9,1.9,1.9,5,0,6.9
	C59.6,22.6,56.5,22.6,54.6,20.7z"/>
<rect id="XMLID_93_" x="61" y="20.8" transform="matrix(-0.7073 0.7069 -0.7069 -0.7073 121.9462 -7.1872)" class="st0" width="3" height="1.8"/>
<rect id="XMLID_92_" x="32.3" y="3.8" class="st0" width="10.7" height="10.7"/>
<path id="XMLID_91_" class="st0" d="M37.6,14c-2.7,0-4.9-2.2-4.9-4.9c0-2.7,2.2-4.9,4.9-4.9c2.7,0,4.9,2.2,4.9,4.9
	C42.5,11.9,40.3,14,37.6,14z"/>
<rect id="XMLID_90_" x="42.9" y="7.7" class="st0" width="1.8" height="3"/>
<rect id="XMLID_89_" x="12.1" y="12.6" transform="matrix(0.7071 0.7071 -0.7071 0.7071 17.787 -7.0494)" class="st0" width="10.7" height="10.7"/>
<path id="XMLID_88_" class="st0" d="M20.9,21.4c-1.9,1.9-5,1.9-6.9,0c-1.9-1.9-1.9-5,0-6.9c1.9-1.9,5-1.9,6.9,0
	C22.8,16.4,22.8,19.5,20.9,21.4z"/>
<rect id="XMLID_87_" x="20.3" y="12.7" transform="matrix(0.7075 0.7067 -0.7067 0.7075 15.9804 -11.4631)" class="st0" width="3" height="1.8"/>
<circle id="XMLID_41_" class="st0" cx="37.5" cy="37.5" r="37"/>
<circle id="XMLID_40_" class="st1" cx="37.5" cy="37.5" r="36.4"/>
<circle id="XMLID_83_" class="st0" cx="37.4" cy="37.4" r="20.7"/>
<circle id="XMLID_82_" class="st2" cx="37.4" cy="37.4" r="13.5"/>
<circle id="XMLID_81_" class="st0" cx="37.4" cy="37.4" r="5.4"/>
<circle id="XMLID_80_" class="st0" cx="37.4" cy="37.4" r="0.9"/>
<line id="XMLID_79_" class="st0" x1="39.6" y1="42.6" x2="42.8" y2="50"/>
<line id="XMLID_78_" class="st0" x1="32" y1="25" x2="35.1" y2="32.2"/>
<text id="XMLID_77_" transform="matrix(1 0 0 1 34.4937 11.8897)" class="st3 st4">1</text>
<text id="XMLID_76_" transform="matrix(1 0 0 1 55.7464 19.9668)" class="st3 st4">2</text>
<text id="XMLID_75_" transform="matrix(1 0 0 1 64.1632 40.4608)" class="st3 st4">3</text>
<text id="XMLID_74_" transform="matrix(1 0 0 1 56.2651 60.3887)" class="st3 st4">4</text>
<text id="XMLID_73_" transform="matrix(1 0 0 1 36.0724 69.7465)" class="st3 st4">5</text>
<text id="XMLID_72_" transform="matrix(1 0 0 1 15.3191 61.3174)" class="st3 st4">6</text>
<text id="XMLID_71_" transform="matrix(1 0 0 1 6.5753 41.0277)" class="st3 st4">7</text>
<text id="XMLID_70_" transform="matrix(1 0 0 1 14.639 21.1015)" class="st3 st4">8</text>
</svg>
