<?xml version="1.0" encoding="utf-8"?>
<!-- Generator: Adobe Illustrator 19.0.0, SVG Export Plug-In . SVG Version: 6.00 Build 0)  -->
<svg version="1.1" id="Layer_1" xmlns="http://www.w3.org/2000/svg" xmlns:xlink="http://www.w3.org/1999/xlink" x="0px" y="0px"
	 viewBox="-9 91 500 300" style="enable-background:new -9 91 500 300;" xml:space="preserve">
<style type="text/css">
	.st0{fill:none;stroke:#000000;stroke-linecap:round;stroke-linejoin:round;}
</style>
<line class="st0" x1="295.5" y1="208.3" x2="296.9" y2="179.8"/>
<line class="st0" x1="473.2" y1="219.8" x2="462.7" y2="293.6"/>
<line class="st0" x1="97" y1="179.9" x2="98.4" y2="208.9"/>
<line class="st0" x1="46.1" y1="324" x2="46" y2="323"/>
<line class="st0" x1="46" y1="323" x2="46" y2="322.5"/>
<line class="st0" x1="462.7" y1="293.6" x2="462.6" y2="294.1"/>
<line class="st0" x1="462.6" y1="294.1" x2="462.4" y2="295"/>
<path class="st0" d="M55.3,335.2c-4.2-2.2-8.7-5.8-9.2-11.2"/>
<path class="st0" d="M462.4,295c-0.6,3.7-3.9,6.4-7,7.8"/>
<path class="st0" d="M55.3,335.2c1.2,0.6,2.5,1.2,3.7,1.6c1.4,0.5,2.8,0.9,4.2,1.3c3.3,0.8,6.6,1.4,10,1.7c3.5,0.3,7,0.4,10.5,0.3
	c1.6-0.1,3.2-0.1,4.8-0.3c0.5,0,1.1-0.1,1.6-0.1c2.3-0.2,4.6-0.5,6.9-0.7"/>
<path class="st0" d="M436.3,306.5c2.5-0.3,5-0.4,7.4-0.7c0.7-0.1,1.5-0.2,2.2-0.3c0.6-0.1,1.2-0.2,1.9-0.3c2.7-0.5,5.3-1.2,7.7-2.4"
	/>
<line class="st0" x1="436.3" y1="306.5" x2="97" y2="339.1"/>
<path class="st0" d="M46,322.5c-2.2-25.7-4.5-51.4-6.7-77.1"/>
<line class="st0" x1="440.2" y1="211.3" x2="439.5" y2="211.2"/>
<path class="st0" d="M111,235.8c1.8-0.5,7.3-2.4,7-5.2c-0.3-2.8-5.8-4-7.7-4.3c-5.6-1-12.9-0.6-18.4,1c-1.8,0.5-7.3,2.4-7,5.2
	c0.1,1.2,1.3,2.1,2.2,2.6c1.7,1,3.5,1.4,5.4,1.7C98.3,237.8,105.5,237.4,111,235.8z"/>
<path class="st0" d="M286.3,185c1.9-0.6,2.1-2.9,1.7-4.5c-0.4-1.6-1.9-3.5-3.8-2.9"/>
<path class="st0" d="M284.3,185.6c1.9-0.6,2.1-3,1.6-4.5c-0.4-1.5-1.9-3.5-3.8-3"/>
<path class="st0" d="M300.3,180.6c1.7-0.5,2-2.7,1.6-4.1c-0.4-1.4-1.8-3.2-3.5-2.7"/>
<path class="st0" d="M282.9,186.7c2.2-0.7,2.4-3.4,1.9-5.3c-0.5-1.8-2.2-4.1-4.4-3.4"/>
<path class="st0" d="M280.2,178c-0.2,0.1-0.3,0.1-0.4,0.2"/>
<path class="st0" d="M275.1,180.4c-1,1.8-0.5,4.3,0.7,5.9c1.4,1.9,3.8,2.4,5.1,0.2c1-1.8,0.5-4.3-0.7-5.9
	C278.8,178.7,276.4,178.1,275.1,180.4z"/>
<path class="st0" d="M282.6,178.3c3.1-0.2,4.8,5.4,2,6.9"/>
<path class="st0" d="M292.3,191.3c0,0-0.1,0-0.1,0.1"/>
<path class="st0" d="M294,191.3c-0.5-0.2-1-0.3-1.6-0.1"/>
<path class="st0" d="M292,192c-0.5-0.2-1-0.3-1.5-0.1"/>
<path class="st0" d="M307.6,187.2c-0.4-0.1-0.7-0.1-1,0.1"/>
<path class="st0" d="M291.2,192.2c-0.6-0.4-1.2-0.6-2-0.6"/>
<path class="st0" d="M290.9,192c0.3,0,0.5,0,0.7,0"/>
<path class="st0" d="M289.2,209.2c-0.2-0.1-0.5-0.1-0.7-0.1"/>
<path class="st0" d="M286.5,215.9c0.1,0.1,0.2,0.2,0.2,0.3"/>
<path class="st0" d="M290.1,209.6c-0.3-0.2-0.6-0.3-0.9-0.4"/>
<path class="st0" d="M268.5,182.4c1.2-0.4,1.6-1.8,1.6-2.9"/>
<path class="st0" d="M263,178.4c0.3-0.1,0.5-0.2,0.7-0.4"/>
<path class="st0" d="M263.8,172.5c-0.6-0.9-1.7-1.7-2.8-1.4"/>
<path class="st0" d="M260.9,178.9c1.9-0.4,2.1-2.9,1.7-4.4c-0.4-1.5-1.8-3.5-3.6-2.9"/>
<path class="st0" d="M278,169.1c-0.5-0.9-1.6-1.8-2.8-1.5"/>
<path class="st0" d="M259.7,179.9c2-0.8,2.1-3.4,1.6-5.1c-0.5-1.7-2-3.9-4.1-3.3"/>
<path class="st0" d="M257.7,175.7c-0.4-1.3-1.4-2.9-3-3.3c-1.8-0.4-2.8,1.1-3.1,2.7"/>
<path class="st0" d="M259.3,171.9c3-0.4,4.6,5.6,1.8,6.7"/>
<path class="st0" d="M274.6,177.6c1.9-0.5,2.1-2.9,1.7-4.4c-0.4-1.5-1.8-3.5-3.7-3"/>
<path class="st0" d="M272.6,178.2c1.9-0.5,2.1-2.9,1.7-4.4c-0.4-1.5-1.8-3.5-3.7-3"/>
<path class="st0" d="M288.6,173.4c1.7-0.5,2-2.6,1.6-4c-0.4-1.4-1.7-3.1-3.4-2.7"/>
<path class="st0" d="M271.1,179.2c2.2-0.6,2.4-3.4,1.9-5.2c-0.5-1.8-2.1-4-4.3-3.5"/>
<path class="st0" d="M263,175c-0.1,1.9,0.9,4.2,2.8,5.1c2.3,1.1,3.8-1,3.9-3.2c0.1-1.9-0.9-4.2-2.8-5.1
	C264.5,170.7,263.1,172.8,263,175z"/>
<path class="st0" d="M270.9,171c3.1-0.3,4.7,5.6,1.9,6.8"/>
<path class="st0" d="M383.7,215.5c2-1.5,1.7-3.3-0.1-4.8c-1.5-1.3-3.2-2.1-5-2.8c-3.6-1.4-7.4-2.2-11.2-2.7
	c-6.5-0.9-16.4-1.2-22.9,1.1"/>
<path class="st0" d="M344.6,206.2c-1.4,0.5-2.6,1-3.7,2.1c-1.2,1.3-0.9,2.6,0.2,3.8"/>
<path class="st0" d="M378.8,213.2c0.6,0.4,0.6,0.9,0.3,1.5c-0.2,0.5-0.5,1-0.9,1.4c-0.8,0.8-1.6,1.5-2.6,2"/>
<path class="st0" d="M371.9,218.1c-0.8-1.6,0.9-3.4,2.1-4.2c1.1-0.7,3.5-1.6,4.8-0.7"/>
<path class="st0" d="M373.1,218.1c0.8-2.2,3.8-4,6.1-3.6"/>
<path class="st0" d="M363.9,209c2,0.2,4.2,1.5,3.7,3.8c-0.5,2-2.8,3.2-4.7,3c-2-0.2-3.9-1.9-3.7-4
	C359.5,209.6,362.1,208.8,363.9,209z"/>
<path class="st0" d="M363.9,210.2c1.5,0.1,3.3,1,3.6,2.6"/>
<path class="st0" d="M359.3,212.8c0.5-2.1,2.8-2.8,4.6-2.6"/>
<path class="st0" d="M347.6,210.1c1.7-0.6,3.9,0.7,4.9,1.8c0.7,0.7,1.1,1.4,1.2,2.4c0.1,0.9-0.3,1.9-1.3,2.2"/>
<path class="st0" d="M350.4,216.3c-1.3-0.7-2.2-1.5-3-2.7c-0.4-0.6-0.7-1.1-0.8-1.8c-0.1-0.8,0.1-1.3,0.9-1.6"/>
<path class="st0" d="M346.6,211.4c2.6-0.5,6.3,2.4,5.7,5.2"/>
<line class="st0" x1="339.2" y1="218.8" x2="340.9" y2="218.2"/>
<line class="st0" x1="340.9" y1="218.2" x2="316.4" y2="210.6"/>
<line class="st0" x1="316.4" y1="210.6" x2="299.5" y2="216.4"/>
<path class="st0" d="M314.7,215.1c-0.6-0.2-2.1-0.7-1.5-1.5c0.4-0.6,1.6-0.8,2.3-0.8c1.7-0.2,3.2-0.1,4.9,0.4
	c0.6,0.2,2.1,0.7,1.5,1.5c-0.4,0.6-1.6,0.8-2.3,0.8C317.9,215.7,316.4,215.6,314.7,215.1z"/>
<path class="st0" d="M311.2,218.7c-1.4,0.5-3.5,0.4-4.9,0.2c-0.8-0.1-1.6-0.3-2.4-0.7c-1.1-0.6-0.7-1.3,0.4-1.7
	c1.4-0.5,3.5-0.4,4.9-0.2c0.8,0.1,1.6,0.3,2.4,0.7C312.6,217.6,312.2,218.3,311.2,218.7z"/>
<path class="st0" d="M322.8,220.5c0.5,0.2,2.1,0.7,1.7,1.5c-0.4,0.7-1.7,0.9-2.3,0.9c-1.7,0.2-3.4,0.1-5-0.4
	c-0.5-0.2-2.1-0.7-1.7-1.5c0.4-0.7,1.7-0.9,2.3-0.9C319.5,219.8,321.1,219.9,322.8,220.5z"/>
<path class="st0" d="M326.2,216.9c1.4-0.5,3.6-0.4,5-0.2c0.8,0.1,1.6,0.3,2.4,0.7c1.1,0.6,0.9,1.3-0.2,1.7c-1.4,0.5-3.6,0.4-5,0.2
	c-0.8-0.1-1.6-0.3-2.4-0.7C324.9,217.9,325.1,217.3,326.2,216.9z"/>
<path class="st0" d="M438.7,212.5c-0.7-0.1-1.4-0.2-2.1-0.4c-0.4-0.1-1.6-0.5-1.8-1c-0.1-0.4,0.4-0.6,0.7-0.7c0.3-0.1,0.7-0.2,1-0.2
	c0.7-0.1,1.4-0.1,2.1,0"/>
<path class="st0" d="M438.7,210.2c0.7,0.1,1.4,0.2,2.1,0.4c0.4,0.1,1.6,0.5,1.8,1c0.1,0.4-0.4,0.6-0.7,0.7c-0.3,0.1-0.7,0.2-1,0.2
	c-0.7,0.1-1.4,0.1-2.1,0"/>
<line class="st0" x1="436.2" y1="211.2" x2="437.2" y2="211.3"/>
<path class="st0" d="M436.2,210.9c-0.1,0.1-0.1,0.2,0,0.3"/>
<line class="st0" x1="437.2" y1="211" x2="436.2" y2="210.9"/>
<line class="st0" x1="437.9" y1="211" x2="437.2" y2="211"/>
<line class="st0" x1="438.2" y1="210.8" x2="437.9" y2="211"/>
<line class="st0" x1="438.2" y1="210.5" x2="438.2" y2="210.8"/>
<path class="st0" d="M439.2,210.6c-0.3-0.1-0.7-0.1-1-0.1"/>
<line class="st0" x1="439.2" y1="210.9" x2="439.2" y2="210.6"/>
<line class="st0" x1="439.5" y1="211.2" x2="439.2" y2="210.9"/>
<line class="st0" x1="441.2" y1="211.4" x2="440.2" y2="211.3"/>
<path class="st0" d="M441.2,211.7c0.1-0.1,0.1-0.2,0-0.3"/>
<line class="st0" x1="440.2" y1="211.6" x2="441.2" y2="211.7"/>
<line class="st0" x1="439.5" y1="211.7" x2="440.2" y2="211.6"/>
<line class="st0" x1="439.2" y1="211.8" x2="439.5" y2="211.7"/>
<line class="st0" x1="439.2" y1="212.1" x2="439.2" y2="211.8"/>
<path class="st0" d="M438.2,212c0.3,0.1,0.7,0.1,1,0.1"/>
<line class="st0" x1="438.2" y1="211.7" x2="438.2" y2="212"/>
<line class="st0" x1="437.9" y1="211.5" x2="438.2" y2="211.7"/>
<line class="st0" x1="437.2" y1="211.3" x2="437.9" y2="211.5"/>
<line class="st0" x1="437.1" y1="211.3" x2="437.2" y2="211"/>
<line class="st0" x1="437.9" y1="211.5" x2="437.9" y2="211"/>
<line class="st0" x1="438.2" y1="211.7" x2="438.2" y2="210.8"/>
<path class="st0" d="M439,211.9C439,211.9,439,212,439,211.9"/>
<line class="st0" x1="439.2" y1="212" x2="439.2" y2="211.8"/>
<line class="st0" x1="439" y1="211.9" x2="439.2" y2="210.9"/>
<line class="st0" x1="439.4" y1="211.7" x2="439.5" y2="211.2"/>
<line class="st0" x1="440.2" y1="211.6" x2="440.2" y2="211.3"/>
<path class="st0" d="M74.8,237.3c1.5-0.4,3-0.5,4.6-0.2c0.4,0.1,0.7,0.2,1.1,0.3c0.3,0.2,0.7,0.4,0.6,0.9c-0.2,0.7-1.4,1.1-1.9,1.2"
	/>
<path class="st0" d="M79.3,239.5c-1.6,0.4-3,0.5-4.6,0.2c-0.4-0.1-0.8-0.2-1.1-0.3c-0.3-0.2-0.7-0.4-0.6-0.9
	c0.2-0.7,1.4-1.1,1.9-1.2"/>
<line class="st0" x1="79" y1="237.6" x2="78.1" y2="237.8"/>
<path class="st0" d="M79.6,237.9c-0.2-0.1-0.4-0.2-0.6-0.3"/>
<line class="st0" x1="78.7" y1="238.1" x2="79.6" y2="237.9"/>
<line class="st0" x1="78.2" y1="238.4" x2="78.7" y2="238.1"/>
<line class="st0" x1="78.4" y1="238.7" x2="78.2" y2="238.4"/>
<line class="st0" x1="79" y1="238.9" x2="78.4" y2="238.7"/>
<path class="st0" d="M78,239.2c0.3-0.1,0.6-0.1,0.9-0.3"/>
<line class="st0" x1="77.5" y1="238.9" x2="78" y2="239.2"/>
<line class="st0" x1="76.8" y1="238.8" x2="77.5" y2="238.9"/>
<line class="st0" x1="76" y1="238.9" x2="76.8" y2="238.8"/>
<line class="st0" x1="75.1" y1="239.2" x2="76" y2="238.9"/>
<path class="st0" d="M74.5,238.9c0.2,0.1,0.4,0.2,0.6,0.3"/>
<line class="st0" x1="75.4" y1="238.6" x2="74.5" y2="238.9"/>
<line class="st0" x1="75.9" y1="238.3" x2="75.4" y2="238.6"/>
<line class="st0" x1="75.7" y1="238.1" x2="75.9" y2="238.3"/>
<line class="st0" x1="75.1" y1="237.8" x2="75.7" y2="238.1"/>
<path class="st0" d="M76.1,237.5c-0.3,0.1-0.6,0.1-0.9,0.3"/>
<line class="st0" x1="76.6" y1="237.8" x2="76.1" y2="237.5"/>
<line class="st0" x1="77.3" y1="237.9" x2="76.6" y2="237.8"/>
<line class="st0" x1="78.1" y1="237.8" x2="77.3" y2="237.9"/>
<line class="st0" x1="78.2" y1="239" x2="78.2" y2="238.4"/>
<line class="st0" x1="78.4" y1="238.9" x2="78.4" y2="238.7"/>
<path class="st0" d="M78.1,239C78.2,239,78.2,239,78.1,239"/>
<line class="st0" x1="76.6" y1="238.8" x2="76.6" y2="237.8"/>
<line class="st0" x1="77.3" y1="238.9" x2="77.3" y2="237.9"/>
<line class="st0" x1="78.2" y1="238.9" x2="78.1" y2="237.8"/>
<line class="st0" x1="75.4" y1="239.1" x2="75.4" y2="238.6"/>
<line class="st0" x1="75.9" y1="238.9" x2="75.9" y2="238.3"/>
<line class="st0" x1="183.1" y1="166.4" x2="183.1" y2="165.9"/>
<line class="st0" x1="191.2" y1="168.3" x2="191.2" y2="168.7"/>
<path class="st0" d="M241.4,154.2c0.8-0.2,1.5,0.2,1.9,0.9c0.4,0.7,0.5,1.4,0.4,2.2c-0.1,1.3-1,3.2-2.5,3.6
	c-0.8,0.2-1.5-0.2-1.9-0.9c-0.4-0.7-0.5-1.4-0.4-2.2C239,156.5,239.8,154.6,241.4,154.2z"/>
<path class="st0" d="M234.3,157.1c0-1.7,0.5-3.2,1.5-4.6c0.9-1.2,2.4-2.5,4.1-2.1"/>
<line class="st0" x1="234.1" y1="169.9" x2="234.3" y2="157.1"/>
<path class="st0" d="M333.6,212c1.2-0.3,2.3-0.6,3.5-0.8"/>
<path class="st0" d="M388,215.2c1.2,0.4,2.3,0.9,3.4,1.4"/>
<path class="st0" d="M384.2,201c0.7,0.2,1.4,0.4,2.1,0.6"/>
<path class="st0" d="M402.8,212.4c0-0.1-0.1-0.2-0.1-0.4"/>
<path class="st0" d="M402.6,211.8c0-0.1-0.1-0.2-0.1-0.3"/>
<path class="st0" d="M402.3,211.1c-1.9-3.5-7.6-6.1-10.8-7.3"/>
<path class="st0" d="M390.3,203.4c-14.6-5.2-36.2-6.9-51.4-4.4"/>
<path class="st0" d="M331.4,200.8c-2.5,0.8-7.1,2.7-8,5.8"/>
<path class="st0" d="M321.1,196.2c-4.3,2.6-6,6.1-2.1,10c2.8,2.9,7.1,4.8,10.7,6.2c7.9,3,15.8,4.6,24.1,5.7
	c13.4,1.8,35.8,2.5,49.2-2.8"/>
<path class="st0" d="M403,215.3c7.8-3.1,10.6-8.1,3.1-13.5"/>
<line class="st0" x1="388" y1="199.7" x2="385.1" y2="198.9"/>
<line class="st0" x1="383.5" y1="199.5" x2="383.3" y2="201.3"/>
<path class="st0" d="M338.9,199c-2.5,0.4-5,1-7.5,1.8"/>
<path class="st0" d="M383.5,199.5c-10-2.5-21.7-3.6-32-3.4c-5.4,0.1-10.7,0.6-16,1.8c-2.6,0.6-5.2,1.3-7.6,2.6
	c-2.1,1.1-5,3.1-4.4,6.1"/>
<line class="st0" x1="386.4" y1="200.3" x2="388" y2="199.7"/>
<line class="st0" x1="386.3" y1="202.1" x2="386.4" y2="200.3"/>
<line class="st0" x1="385.1" y1="198.9" x2="383.5" y2="199.5"/>
<path class="st0" d="M402.8,212.6c0.7-1.9-0.3-3.7-1.6-5c-1.3-1.4-2.8-2.4-4.5-3.3c-3.3-1.8-6.8-3-10.3-4.1"/>
<path class="st0" d="M402.8,212.6c0-0.1,0-0.2,0-0.2"/>
<path class="st0" d="M402.7,212.1c0-0.1-0.1-0.2-0.1-0.3"/>
<path class="st0" d="M402.4,211.4c0-0.1-0.1-0.2-0.2-0.3"/>
<path class="st0" d="M391.5,203.8c-0.4-0.1-0.8-0.3-1.2-0.4"/>
<line class="st0" x1="385.1" y1="198.9" x2="384.9" y2="200.7"/>
<line class="st0" x1="384.9" y1="200.7" x2="383.3" y2="201.3"/>
<line class="st0" x1="386.3" y1="201.1" x2="384.9" y2="200.7"/>
<path class="st0" d="M385.2,197.9c1.1,0.3,1.2-1.5,0.2-1.8c-0.5-0.1-0.9,0.3-0.9,0.8C384.4,197.4,384.6,197.7,385.2,197.9z"/>
<path class="st0" d="M386.9,195.5c0.8,0.2,1.1,1.5,0.3,1.8"/>
<path class="st0" d="M386.5,195.6c0.1,0,0.2,0,0.3,0"/>
<path class="st0" d="M339.9,214c0.2-0.7-0.4-1.6-1.2-1.4"/>
<path class="st0" d="M399.4,214.3c-8.8,3.5-22,4-31.1,3.7c-10-0.3-21.4-1.8-31-4.7"/>
<path class="st0" d="M321.1,203.6c2.4-4.2,10.9-6.2,14.6-6.9c5.5-1,10.9-1.4,16.5-1.5c10.6-0.1,22.5,1.1,32.8,3.7"/>
<path class="st0" d="M388,199.7c4.3,1.2,15.6,4.9,17.7,10.3"/>
<path class="st0" d="M386.9,195.5c3.9,1,7.6,2.2,11.3,4c2.6,1.2,8,4.2,8.3,8"/>
<path class="st0" d="M406.3,208.4c-0.5,3.1-4.6,5-6.9,5.9"/>
<path class="st0" d="M337.3,213.3c-3.7-1.1-7.2-2.4-10.5-4.3c-2.6-1.5-7.4-4.8-5.7-8.7c2.5-5.7,16.1-7.6,20.5-8.1
	c14-1.6,31.6-0.3,45.2,3.3"/>
<path class="st0" d="M249.7,214.8c0,1,0.3,2.5,1.5,2.8"/>
<path class="st0" d="M253.8,210.3c-1.2-0.5-2.3,0.5-2.9,1.3c-0.7,1-1.1,2-1.1,3.2"/>
<path class="st0" d="M249.2,215c-0.1,2.3,1.3,4.4,3.7,3.1"/>
<path class="st0" d="M255.3,210.9c-0.9-2-2.8-1.8-4.2-0.5c-1.2,1.1-1.9,3-2,4.6"/>
<path class="st0" d="M242.8,214.9c-0.1,2.6,0.8,6.2,3.9,6.8"/>
<path class="st0" d="M253.5,204.8c-0.2-0.1-0.3-0.2-0.5-0.4"/>
<path class="st0" d="M252.7,204.2c-2.8-1.3-5.6,0.9-7.2,2.9c-1.6,2.2-2.6,5.1-2.7,7.8"/>
<path class="st0" d="M204.8,202.5c0,2.7,0.9,6,3.6,7.3"/>
<path class="st0" d="M215.7,190.6c-0.2-0.1-0.3-0.1-0.5-0.1"/>
<path class="st0" d="M215,190.4c-3.1-0.6-5.9,1.6-7.5,3.8c-1.7,2.3-2.7,5.4-2.7,8.3"/>
<path class="st0" d="M235.9,219.9c-4.5-1.1-9-2.4-13.3-4"/>
<path class="st0" d="M205.6,210.6c-1.1,0.2-4.4,0.3-5.4-0.6"/>
<path class="st0" d="M200.1,209.9C200.1,209.9,200.1,209.8,200.1,209.9"/>
<path class="st0" d="M209.2,210.2c-1.2,0-2.4,0.2-3.6,0.4"/>
<path class="st0" d="M262,217.5c0,0.4,0.2,0.8,0.6,0.5c0.3-0.2,0.4-0.5,0.4-0.8C263.1,216.3,262,216.7,262,217.5z"/>
<path class="st0" d="M202,202.4c0,2.9,0.9,6.5,3.6,8.2"/>
<path class="st0" d="M218.1,191c-2.9-4.4-7.8-3.5-11.2-0.3c-3.1,2.9-4.9,7.5-4.9,11.7"/>
<path class="st0" d="M136.6,215.7c0.9-0.2,1.2-1.2,1.3-1.9c0.1-0.8,0-1.6-0.2-2.4c-0.2-0.8-0.5-1.5-1.1-2.2c-0.5-0.6-1.3-1.2-2.1-1"
	/>
<path class="st0" d="M134.4,208.2c-0.1,0-0.2,0.1-0.2,0.1"/>
<path class="st0" d="M135.2,216c1.3,0.9,2.5,0.4,3-1c0.5-1.3,0.3-2.5,0-3.7c-0.4-1.3-0.8-2.3-1.9-3.2c-1.2-1-2.5-0.8-3.1,0.7"/>
<path class="st0" d="M141.2,219.9c2.1-0.4,3-2.7,3.3-4.5c0.3-2,0.1-3.9-0.4-5.9c-0.5-2-1.3-3.7-2.7-5.3c-1.2-1.4-3.1-2.9-5.1-2.1"/>
<path class="st0" d="M183,209.6c2.1-0.8,3-3.2,3.3-5.1c0.4-2.2,0.2-4.2-0.4-6.3c-0.6-2.1-1.4-3.9-2.9-5.6c-1.3-1.5-3.3-3-5.5-2.7"/>
<path class="st0" d="M169.8,214.3c-6,1.9-12,3.3-18.2,4.4"/>
<path class="st0" d="M186.1,210.3c-1.2-0.3-2.4-0.5-3.6-0.6"/>
<path class="st0" d="M191.9,209.8c-1.1,1-4.6,0.8-5.7,0.6"/>
<path class="st0" d="M124.1,214.8c0,0.4,0.1,0.6,0.4,0.8c0.3,0.3,0.5-0.1,0.5-0.4c0-0.4-0.1-0.6-0.4-0.8
	C124.3,214,124.1,214.4,124.1,214.8z"/>
<path class="st0" d="M186.1,210.3c2.3-1.6,3.1-4.9,3.2-7.5c0.1-2.9-0.4-5.5-1.6-8.2c-1.1-2.4-2.9-5-5.3-6.3
	c-2.8-1.5-5.6-0.9-7.3,1.8"/>
<line class="st0" x1="193.3" y1="185" x2="193.5" y2="185"/>
<line class="st0" x1="193.5" y1="193.7" x2="193.5" y2="185"/>
<line class="st0" x1="193.5" y1="185" x2="188" y2="186.5"/>
<line class="st0" x1="189.9" y1="188.1" x2="191.8" y2="187.6"/>
<line class="st0" x1="191.8" y1="187.6" x2="191.8" y2="190.5"/>
<path class="st0" d="M148,186.8c-2.9-2-3-6.1-2-9c1-2.9,3.6-6.1,7.1-5.9"/>
<line class="st0" x1="193.6" y1="193.9" x2="193.5" y2="192.6"/>
<line class="st0" x1="193.5" y1="189" x2="193.5" y2="184.9"/>
<line class="st0" x1="193.5" y1="184.9" x2="187.9" y2="186.4"/>
<path class="st0" d="M195,190.4c0-0.8-0.5-1.7-1.4-1.5"/>
<path class="st0" d="M193.5,189C193.5,189,193.5,188.9,193.5,189"/>
<path class="st0" d="M193.5,192.6C193.5,192.6,193.5,192.6,193.5,192.6"/>
<path class="st0" d="M193.5,192.6c0.9-0.3,1.4-1.4,1.4-2.2"/>
<line class="st0" x1="202" y1="185.2" x2="202" y2="188.7"/>
<line class="st0" x1="202" y1="185.2" x2="202.1" y2="185.1"/>
<line class="st0" x1="205.4" y1="186.3" x2="202" y2="185.2"/>
<path class="st0" d="M196.9,200c-0.2,0-0.6,0-0.5-0.3c0-0.2,0.5-0.2,0.6-0.3"/>
<path class="st0" d="M196.5,204.5c-0.4,0-1.3-0.3-0.7-0.5c0.5-0.2,0.9-0.2,1.3-0.1"/>
<path class="st0" d="M197.2,204.4c-0.2,0.1-0.5,0.1-0.7,0.1"/>
<path class="st0" d="M193.8,206.8c1.4,0.2,2.8,0.2,4.3,0.2"/>
<path class="st0" d="M180.8,153.5c0-1.9,0.2-4.3,1.3-6c1.4-2.1,3.7-1.7,5.5-0.6c3.5,2.1,5.7,6.4,5.7,10.5c0,2.1-0.8,4.1-2.2,5.7
	c-1.4,1.6-3.6,2.3-5.6,1.4C181.8,162.7,180.8,156.7,180.8,153.5z"/>
<path class="st0" d="M182.1,153.2c0,2.5,0.4,4.8,1.4,7.2c0.9,2.2,2.7,4.4,5.5,4.1"/>
<path class="st0" d="M184.8,146.1c-2.4,1.2-2.7,5.1-2.7,7.2"/>
<path class="st0" d="M179.7,152.9c0-2-0.3-4-0.7-6c-0.2-1-0.5-2-0.7-2.9c-0.1-0.4-0.7-2.5-0.7-2.9"/>
<path class="st0" d="M179.6,151c-0.4,1.6-1.9,6.2-1.9,7.9c0,0.2,0,0.9,0.3,0.8c0.3-0.1,0.5-0.6,0.7-0.8c0.3-0.6,0.5-1.3,0.6-1.9
	c0.3-1.3,0.4-2.7,0.4-4.1"/>
<path class="st0" d="M182.4,150.1c0.2-0.7,0.4-1.3,0.6-2"/>
<path class="st0" d="M203.4,149.1c-3.8,1.1-6.2,4-6.2,8.1"/>
<path class="st0" d="M195.9,157.4c0-3,1.4-5.6,4-7.2c2.5-1.5,5.7-1.6,8.4-1.2c2.9,0.4,5.5,1.3,8.1,2.7c2.1,1.1,5.3,3.4,5.2,6.4"/>
<path class="st0" d="M221.6,158.2c-0.1,3-3.1,5.5-5.2,6.8c-2.7,1.6-5.3,2.5-8.4,2.7c-3,0.2-6-0.5-8.4-2.4c-2.3-1.9-3.7-4.8-3.7-7.8"
	/>
<path class="st0" d="M197.2,157.1c0,3.4,1.8,6.6,4.7,8.4c2.9,1.8,6.5,2,9.7,1.5"/>
<path class="st0" d="M241.4,154.3c0.8-0.2,1.5,0.2,1.9,0.9c0.4,0.7,0.5,1.4,0.4,2.2c-0.1,1.3-0.9,3.1-2.4,3.5
	c-0.8,0.2-1.5-0.2-1.9-0.9c-0.4-0.7-0.5-1.4-0.4-2.2C239.1,156.5,239.9,154.7,241.4,154.3z"/>
<path class="st0" d="M234.3,157.2c0,0.2,0,0.3,0,0.5"/>
<path class="st0" d="M182.4,156.5c2.9-1.6,7.1-2.6,10.3-3.2"/>
<path class="st0" d="M198.5,152.5c3-0.3,6.1-0.5,9.1-0.6"/>
<line class="st0" x1="207.7" y1="151.9" x2="207.7" y2="151.9"/>
<path class="st0" d="M212.4,151.9c1.5,0,2.9,0.1,4.4,0.1"/>
<line class="st0" x1="211.1" y1="152.9" x2="207.7" y2="151.9"/>
<line class="st0" x1="212.2" y1="152.8" x2="212" y2="152.9"/>
<path class="st0" d="M202.5,144.7c2.3-0.7,6.1-0.6,8.4,0"/>
<path class="st0" d="M212.1,144.2c-0.8,1-4.7,1-5.6,1c-1,0-1.9-0.1-2.9-0.2c-0.7-0.1-1.3-0.2-1.9-0.6c-0.3-0.2-0.5-0.4-0.3-0.7
	c0.8-1,4.7-1,5.6-1c1,0,1.9,0.1,2.9,0.2c0.7,0.1,1.3,0.2,1.9,0.6C212.1,143.7,212.3,143.9,212.1,144.2z"/>
<path class="st0" d="M218.9,144.3c2.2-0.6,6.1-0.6,8.4,0.1"/>
<path class="st0" d="M228,143c1.4,0.7-0.1,1.3-1.2,1.5c-1,0.2-1.9,0.3-2.9,0.3c-1.4,0-4.3-0.1-5.7-0.7c-1.4-0.7,0.1-1.3,1.2-1.5
	c0.9-0.2,1.9-0.3,2.9-0.3C223.7,142.2,226.6,142.3,228,143z"/>
<path class="st0" d="M237.2,141.5c0.6,0.1,1.1,0.2,1.7,0.3"/>
<path class="st0" d="M230.7,141.7c1.8-0.5,4.6-0.5,6.5-0.2"/>
<path class="st0" d="M237.2,139.9c0.7,0.1,2,0.3,2.7,0.8c0.3,0.3,0.3,0.5-0.1,0.7c-0.6,0.4-1.2,0.5-1.8,0.6
	c-1.9,0.3-3.8,0.3-5.7,0.1c-0.8-0.1-2-0.3-2.7-0.8c-0.3-0.3-0.3-0.5,0.1-0.8c0.6-0.4,1.2-0.4,1.8-0.6
	C233.5,139.6,235.3,139.7,237.2,139.9z"/>
<path class="st0" d="M236.5,137.8c1.6-0.1,3.2,0.1,4.7,0.4"/>
<path class="st0" d="M233.4,138.1c1-0.2,2-0.3,3.1-0.3"/>
<path class="st0" d="M236.5,136.2c1.4,0,4.1,0.1,5.5,0.7c1.4,0.6,0,1.2-1.1,1.4c-0.9,0.2-1.8,0.2-2.8,0.3c-1.4,0-4.1-0.1-5.5-0.7
	c-1.4-0.6,0-1.2,1.1-1.4C234.7,136.3,235.6,136.2,236.5,136.2z"/>
<path class="st0" d="M226.7,134.8c2.2-0.4,5.2-0.4,7.4,0.1"/>
<path class="st0" d="M226.5,134.9c0.1,0,0.1,0,0.2,0"/>
<path class="st0" d="M226.7,133.3c1.8-0.3,3.6-0.4,5.4-0.2c0.9,0.1,1.8,0.2,2.7,0.5c1.4,0.6,0.2,1.2-0.9,1.4
	c-1.8,0.3-3.6,0.4-5.4,0.2c-0.9-0.1-1.8-0.2-2.7-0.5C224.4,134.1,225.6,133.5,226.7,133.3z"/>
<path class="st0" d="M212.9,133.2c2.5-0.5,4.9-0.5,7.4,0"/>
<path class="st0" d="M211.6,132.2c0.7-0.8,4.4-0.9,5.2-0.9c0.9,0,1.8,0.1,2.7,0.2c0.6,0.1,1.2,0.2,1.8,0.5c0.3,0.2,0.5,0.3,0.2,0.6
	c-0.7,0.8-4.4,0.9-5.2,0.9c-0.9,0-1.8-0.1-2.7-0.2c-0.6-0.1-1.2-0.2-1.8-0.5C211.6,132.7,211.3,132.5,211.6,132.2z"/>
<path class="st0" d="M197.5,133.6c2.5-0.6,4.9-0.5,7.4,0"/>
<path class="st0" d="M196.6,133.3c-1.2-0.6,0.4-1.1,1.3-1.3c0.9-0.2,1.8-0.2,2.7-0.3c1.3,0,4.1,0,5.3,0.7c1.2,0.6-0.4,1.1-1.3,1.3
	c-0.9,0.2-1.8,0.2-2.7,0.3C200.6,133.9,197.8,133.9,196.6,133.3z"/>
<path class="st0" d="M185.8,135.9c2.1-0.5,5.6-0.5,7.6,0"/>
<path class="st0" d="M187,136.1c-0.4-0.1-2.3-0.3-2.5-0.9c-0.1-0.3,0.4-0.5,0.6-0.6c0.6-0.3,1.2-0.4,1.8-0.4c1.8-0.3,3.6-0.3,5.4,0
	c0.4,0.1,2.3,0.3,2.5,0.9c0.1,0.3-0.4,0.5-0.6,0.6c-0.6,0.3-1.2,0.4-1.8,0.4C190.6,136.3,188.8,136.3,187,136.1z"/>
<path class="st0" d="M182.1,139.4c2.7-0.6,5.2-0.6,7.9,0"/>
<path class="st0" d="M186.6,139.8c-1.1,0-4.4,0-5.5-0.8c-0.3-0.2-0.4-0.4-0.1-0.7c0.6-0.5,1.2-0.5,1.8-0.6c0.9-0.2,1.8-0.2,2.8-0.3
	c1.1,0,4.4,0,5.5,0.8c0.3,0.2,0.4,0.4,0.1,0.7c-0.6,0.5-1.2,0.5-1.8,0.6C188.4,139.7,187.5,139.8,186.6,139.8z"/>
<path class="st0" d="M213.3,141.5c2.2-0.6,5.9-0.6,8.1,0.1"/>
<path class="st0" d="M222.2,140.2c1.3,0.6-0.2,1.2-1.2,1.4c-0.9,0.2-1.9,0.3-2.8,0.3c-1.4,0-4.2-0.1-5.6-0.7
	c-1.3-0.6,0.2-1.2,1.2-1.4c0.9-0.2,1.9-0.3,2.8-0.3C218,139.5,220.8,139.6,222.2,140.2z"/>
<path class="st0" d="M223.9,138.1c1.6-0.1,3.1,0.1,4.7,0.4"/>
<path class="st0" d="M220.7,138.4c1.1-0.2,2.1-0.4,3.2-0.4"/>
<path class="st0" d="M223.9,136.5c1.4,0,4.2,0.1,5.5,0.7c1.3,0.6-0.3,1.2-1.3,1.4c-0.9,0.2-1.8,0.2-2.8,0.3c-1.4,0-4.2-0.1-5.5-0.7
	c-1.3-0.6,0.3-1.2,1.3-1.4C222,136.6,222.9,136.5,223.9,136.5z"/>
<path class="st0" d="M210.4,135.9c2.6-0.5,5-0.6,7.6,0"/>
<path class="st0" d="M209.2,134.9c0.8-0.9,4.5-0.9,5.3-0.9c0.9,0,1.8,0.1,2.7,0.2c0.6,0.1,1.3,0.2,1.8,0.5c0.3,0.2,0.5,0.3,0.2,0.6
	c-0.8,0.9-4.5,0.9-5.3,0.9c-0.9,0-1.8-0.1-2.7-0.2c-0.6-0.1-1.3-0.2-1.8-0.5C209.1,135.4,208.9,135.2,209.2,134.9z"/>
<path class="st0" d="M196.7,137.3c2.1-0.5,5.7-0.5,7.8,0"/>
<path class="st0" d="M198,137.6c-0.5-0.1-2.2-0.2-2.6-0.9c-0.2-0.3,0.2-0.5,0.5-0.6c0.6-0.3,1.2-0.4,1.8-0.5c1.8-0.3,3.6-0.3,5.5,0
	c0.5,0.1,2.2,0.2,2.6,0.9c0.2,0.3-0.2,0.5-0.5,0.6c-0.6,0.3-1.2,0.4-1.8,0.5C201.7,137.8,199.9,137.8,198,137.6z"/>
<path class="st0" d="M188.4,142.8c2.1-0.6,6.1-0.6,8.2,0"/>
<path class="st0" d="M196.1,142.9c-1.9,0.4-3.8,0.4-5.7,0.2c-1-0.1-1.9-0.2-2.8-0.6c-1.3-0.7,0.4-1.3,1.3-1.5
	c1.9-0.4,3.8-0.4,5.7-0.2c1,0.1,1.9,0.2,2.8,0.6C198.7,142.1,197,142.7,196.1,142.9z"/>
<path class="st0" d="M198.2,140.8c2.1-0.6,5.9-0.6,8.1,0"/>
<path class="st0" d="M205.9,140.9c-1.9,0.4-3.7,0.4-5.6,0.2c-0.9-0.1-1.9-0.2-2.7-0.6c-1.3-0.6,0.2-1.2,1.2-1.4
	c1.9-0.4,3.7-0.4,5.6-0.2c0.9,0.1,1.9,0.2,2.7,0.6C208.4,140.1,206.9,140.7,205.9,140.9z"/>
<path class="st0" d="M207.9,138.8c2.1-0.5,5.8-0.5,7.9,0"/>
<path class="st0" d="M215.4,138.9c-1.9,0.4-3.7,0.4-5.5,0.2c-0.9-0.1-1.8-0.2-2.7-0.6c-1.4-0.6,0-1.2,1.1-1.4
	c1.9-0.4,3.7-0.4,5.5-0.2c0.9,0.1,1.8,0.2,2.7,0.6C217.8,138.1,216.4,138.7,215.4,138.9z"/>
<path class="st0" d="M207.6,166.6c0.3-0.2,0.2-0.5-0.1-0.7c-0.2-0.2-0.5-0.2-0.8-0.3c-0.5-0.2-1.1-0.2-1.6-0.3
	c-1.1-0.1-2.2-0.1-3.3,0.1"/>
<path class="st0" d="M206.2,167.1c0.5-0.1,1-0.2,1.4-0.5"/>
<path class="st0" d="M205.7,167C205.7,167,205.7,167,205.7,167"/>
<path class="st0" d="M215.5,153.5c-0.5,0.4,0.2,0.7,0.6,0.8c0.4,0.1,0.9,0.2,1.3,0.3c0.9,0.1,1.8,0.1,2.6,0"/>
<path class="st0" d="M218.2,152.9c-0.6,0-2.1,0.1-2.7,0.6"/>
<path class="st0" d="M220,154.5c-1-0.1-1.9-0.1-2.9,0.1"/>
<path class="st0" d="M202.7,153.8c0.6,0.6,3,0.7,3.6,0.7c0.6,0,1.3-0.1,1.9-0.2c0.4-0.1,0.8-0.1,1.2-0.4c0.2-0.1,0.3-0.3,0.1-0.5
	c-0.6-0.6-3-0.7-3.6-0.7c-0.6,0-1.3,0.1-1.9,0.2c-0.4,0.1-0.8,0.1-1.2,0.4C202.6,153.4,202.5,153.6,202.7,153.8z"/>
<path class="st0" d="M207.9,154.4c-1.2-0.2-2.4-0.2-3.6,0"/>
<path class="st0" d="M192,155.7c0.4,0.1,0.8,0.2,1.2,0.2"/>
<path class="st0" d="M197.3,155.7c0.9-0.3,1.3-0.7,0.3-1.1"/>
<path class="st0" d="M193,154.3c-0.5,0.1-1,0.1-1.5,0.4c-0.6,0.4,0.1,0.8,0.6,0.9"/>
<path class="st0" d="M193.2,155.8c-0.1,0-0.3,0-0.4,0.1"/>
<path class="st0" d="M186.3,158.7c1.3,0.1,2.5,0.1,3.8-0.3c0.8-0.2,1.4-0.7,0.4-1.1c-0.6-0.3-1.2-0.3-1.9-0.4
	c-1.3-0.1-2.5-0.1-3.8,0.3c-0.8,0.2-1.4,0.7-0.4,1.1C185.1,158.6,185.7,158.6,186.3,158.7z"/>
<path class="st0" d="M189.5,158.6c-1.3-0.2-2.6-0.2-4,0"/>
<path class="st0" d="M187.3,162.1c0.9,0,1.7-0.1,2.5-0.5c0.5-0.3,0.6-0.6,0.1-0.9c-0.4-0.2-0.8-0.3-1.2-0.4
	c-1.7-0.3-3.3-0.3-5.1,0.3"/>
<path class="st0" d="M184.3,161.9c1,0.2,2,0.2,3,0.2"/>
<path class="st0" d="M188.6,161.9c-1.4-0.2-2.7-0.2-4,0"/>
<path class="st0" d="M218.2,162.9c-0.6-0.7-3.1-0.8-3.8-0.8c-0.7,0-1.3,0.1-2,0.2c-0.5,0.1-1.9,0.4-1.4,1c0.6,0.7,3.1,0.8,3.8,0.8
	c0.7,0,1.3-0.1,2-0.2C217.3,163.8,218.8,163.5,218.2,162.9z"/>
<path class="st0" d="M216.8,163.9c-1.5-0.3-2.9-0.3-4.3,0"/>
<path class="st0" d="M221.1,160.2c-0.5,0.1-1.1,0.5-0.5,0.9"/>
<path class="st0" d="M218.4,157c-0.2,0.1-0.5,0.1-0.7,0.2c-0.2,0.1-0.5,0.3-0.4,0.5c0.2,0.4,1,0.5,1.3,0.6c1,0.2,1.9,0.3,2.9,0.2"/>
<path class="st0" d="M221.4,156.8c-1-0.1-2,0-3,0.2"/>
<path class="st0" d="M221.6,158.3c-0.9-0.1-1.8,0-2.7,0.1"/>
<path class="st0" d="M205.4,156.9c0.6,0.7,3,0.7,3.7,0.7c0.6,0,1.3-0.1,1.9-0.2c0.4-0.1,0.9-0.1,1.2-0.4c0.2-0.1,0.3-0.3,0.1-0.5
	c-0.6-0.7-3-0.7-3.7-0.7c-0.6,0-1.3,0.1-1.9,0.2c-0.4,0.1-0.9,0.1-1.2,0.4C205.3,156.5,205.2,156.6,205.4,156.9z"/>
<path class="st0" d="M210.8,157.4c-1.3-0.2-2.5-0.2-3.8,0"/>
<path class="st0" d="M198.4,159.7c0.9,0.1,1.9,0.1,2.8-0.1c0.8-0.1,2.8-0.6,1.6-1.2c-1.3-0.7-4.2-0.6-5.5-0.3"/>
<path class="st0" d="M197.5,159.6c0.3,0,0.6,0.1,0.9,0.1"/>
<path class="st0" d="M201.5,159.6c-1.3-0.2-2.6-0.2-4,0"/>
<path class="st0" d="M190.7,163.5c-0.4,0.1-0.8,0.1-1.1,0.3c-0.3,0.1-1,0.4-0.6,0.8"/>
<path class="st0" d="M204.7,162.8c0.4-0.1,0.8-0.2,1.1-0.5c0.4-0.4-0.1-0.6-0.5-0.8c-0.8-0.3-1.5-0.3-2.3-0.4c-0.8,0-1.6,0-2.3,0.1
	c-0.4,0.1-0.8,0.1-1.1,0.2c-0.2,0.1-0.9,0.3-0.9,0.6"/>
<path class="st0" d="M198.6,162.2c1.1,1.1,5,0.8,6.1,0.6"/>
<path class="st0" d="M204.4,162.8c-1.4-0.2-2.8-0.2-4.3,0"/>
<path class="st0" d="M214.2,160.5c0.6-0.1,1.6-0.6,0.9-1c-0.6-0.3-1.2-0.4-1.8-0.5c-1.3-0.2-2.5-0.1-3.8,0.1
	c-0.5,0.1-1.8,0.4-1.3,0.9c0.5,0.5,1.2,0.5,1.8,0.6c1.3,0.2,2.5,0.2,3.8,0"/>
<path class="st0" d="M213.7,160.6c-1.4-0.2-2.7-0.2-4.1,0"/>
<path class="st0" d="M211.1,152.9c0.3,0.1,0.6,0.1,0.9,0"/>
<path class="st0" d="M212.2,152.8c0.1,0,0.3,0,0.2-0.1"/>
<line class="st0" x1="207.7" y1="144.3" x2="207.7" y2="145.2"/>
<line class="st0" x1="207.7" y1="149" x2="207.7" y2="151.9"/>
<path class="st0" d="M207.1,157.4C207.1,157.4,207.1,157.4,207.1,157.4"/>
<path class="st0" d="M178.8,163C178.8,163.1,178.8,163.1,178.8,163"/>
<line class="st0" x1="178.4" y1="163.4" x2="178.8" y2="163.1"/>
<path class="st0" d="M179.6,164.5C179.6,164.5,179.6,164.4,179.6,164.5"/>
<line class="st0" x1="180" y1="164.1" x2="179.7" y2="164.4"/>
<line class="st0" x1="180.8" y1="164.7" x2="180.8" y2="165.3"/>
<line class="st0" x1="181.2" y1="165.3" x2="181" y2="165.4"/>
<line class="st0" x1="209.8" y1="157.5" x2="209.9" y2="157.3"/>
<line class="st0" x1="207.4" y1="157.4" x2="207.4" y2="157.5"/>
<line class="st0" x1="219.2" y1="158.4" x2="219.2" y2="158.4"/>
<path class="st0" d="M253.6,182.9c-0.1,2-0.8,4.6-2.8,5.7"/>
<path class="st0" d="M246.6,173.2c2.3,0,4.2,1.7,5.3,3.4c1.3,2,1.8,3.9,1.7,6.3"/>
<line class="st0" x1="205.5" y1="186.2" x2="201.9" y2="185"/>
<path class="st0" d="M217.2,183.8c1.8,2.3,2.7,4.7,3,7.7"/>
<path class="st0" d="M238.1,194.4c-1.2,0.4-2.4,0.9-3.7,1.2"/>
<line class="st0" x1="201.9" y1="185" x2="201.9" y2="188.8"/>
<path class="st0" d="M200.6,190.2c0.1-0.5,0.4-1.2,1-1.2"/>
<path class="st0" d="M283,186.7c-0.1,0.7-0.9,0.8-1.4,0.4"/>
<path class="st0" d="M297,190.2c0.1-0.9,1-1.2,1.6-0.5"/>
<line class="st0" x1="307.7" y1="187.1" x2="307.7" y2="186"/>
<line class="st0" x1="304.9" y1="187.7" x2="305" y2="186"/>
<path class="st0" d="M305,186c0-0.3,0-0.5-0.1-0.8"/>
<path class="st0" d="M276.2,177.2c-0.1,0.2-0.1,0.4-0.2,0.7"/>
<line class="st0" x1="276" y1="177.9" x2="275.9" y2="179.4"/>
<line class="st0" x1="275.7" y1="186.1" x2="275.6" y2="187.7"/>
<line class="st0" x1="294.3" y1="217.3" x2="299.6" y2="215.5"/>
<line class="st0" x1="327.2" y1="213.3" x2="328.7" y2="213.7"/>
<line class="st0" x1="343.1" y1="218.2" x2="343.2" y2="218.2"/>
<line class="st0" x1="343.2" y1="218.2" x2="321.5" y2="226.2"/>
<line class="st0" x1="321.5" y1="226.2" x2="294.3" y2="217.3"/>
<line class="st0" x1="321.2" y1="225.4" x2="296.7" y2="217.4"/>
<line class="st0" x1="339.2" y1="218.8" x2="321.2" y2="225.4"/>
<line class="st0" x1="296.7" y1="217.4" x2="299.5" y2="216.4"/>
<path class="st0" d="M263.8,227.8c-31.2,10.7-76.5,11.3-108.2,6.2c-9-1.5-17.9-3.4-26.5-6.5c-5-1.8-9.8-3.8-14.2-6.7
	c-3.1-2-6.3-4.6-8.2-8c-5.2-9.6,5.8-17,12.8-20.6c8.1-4.1,17.1-6.7,25.9-8.6"/>
<path class="st0" d="M181.3,178.9c0.6,0,1.2-0.1,1.7-0.1"/>
<path class="st0" d="M190.6,178.6c5-0.1,10-0.1,15,0"/>
<path class="st0" d="M211.2,178.8c1.6,0.1,3.3,0.2,4.9,0.3"/>
<path class="st0" d="M254,184.8c8.9,2.2,28,8,33.2,18c3.6,6.9-1,12.6-6.2,16.4c-5,3.7-11.5,6.5-17.3,8.5"/>
<path class="st0" d="M109.1,218.3c-1.9-2.1-3.5-4.8-3.6-7.8"/>
<path class="st0" d="M288.4,209.3c0,0.2,0,0.5,0,0.7"/>
<path class="st0" d="M288.4,210.4c-0.1,3-1.7,5.6-3.6,7.8"/>
<line class="st0" x1="246.6" y1="224.5" x2="239.4" y2="221.9"/>
<line class="st0" x1="239.4" y1="221.9" x2="237.7" y2="222.5"/>
<line class="st0" x1="237.7" y1="222.5" x2="245" y2="225.1"/>
<line class="st0" x1="245" y1="225.1" x2="246.6" y2="224.5"/>
<line class="st0" x1="235.3" y1="219.8" x2="244" y2="222.9"/>
<line class="st0" x1="241.4" y1="193.2" x2="248.6" y2="191.1"/>
<line class="st0" x1="252.6" y1="190.5" x2="246.4" y2="192.3"/>
<line class="st0" x1="246.4" y1="192.3" x2="247.9" y2="192.7"/>
<line class="st0" x1="247.9" y1="192.7" x2="254.1" y2="190.9"/>
<line class="st0" x1="254.1" y1="190.9" x2="252.6" y2="190.5"/>
<line class="st0" x1="150.5" y1="189.6" x2="156.3" y2="191.6"/>
<line class="st0" x1="144.2" y1="221.1" x2="153.8" y2="218.3"/>
<line class="st0" x1="133.9" y1="219.7" x2="136.5" y2="218.9"/>
<line class="st0" x1="135.6" y1="218.2" x2="132.6" y2="219.1"/>
<line class="st0" x1="132.6" y1="219.1" x2="133.9" y2="219.7"/>
<line class="st0" x1="250.1" y1="223.2" x2="245.7" y2="221.7"/>
<line class="st0" x1="144.4" y1="219.7" x2="138.9" y2="221.2"/>
<path class="st0" d="M208.1,224.5c1,0.3,1.9,0.4,2.9,0.2c0.5-0.1,1-0.1,1.4-0.4c0.6-0.4,0.1-0.8-0.4-1c-1-0.4-1.9-0.4-2.9-0.2
	c-0.5,0.1-1,0.1-1.4,0.4C207.1,223.9,207.6,224.3,208.1,224.5z"/>
<path class="st0" d="M191.1,224.8c0.7,0.5,2.1,0.5,2.9,0.5c0.5,0,1-0.1,1.5-0.3c0.5-0.2,1-0.6,0.4-1c-0.7-0.5-2.1-0.5-2.9-0.5
	c-0.5,0-1,0.1-1.5,0.3C191,224,190.5,224.4,191.1,224.8z"/>
<path class="st0" d="M174.6,223.5c0.4,0.7,2.2,0.7,2.8,0.7c0.5,0,1-0.1,1.5-0.2c0.3-0.1,1.2-0.4,1-0.9c-0.4-0.7-2.2-0.7-2.8-0.7
	c-0.5,0-1,0.1-1.5,0.2C175.3,222.7,174.4,223,174.6,223.5z"/>
<path class="st0" d="M142.3,197.8c-0.4,0-0.8,0.1-1.2,0.2c-0.2,0.1-0.4,0.1-0.6,0.2c-0.2,0.1-0.4,0.2-0.3,0.5
	c0.3,0.5,1.9,0.6,2.3,0.6"/>
<path class="st0" d="M144.9,198.3c-0.4-0.5-2.1-0.5-2.6-0.5"/>
<path class="st0" d="M199.2,186.3c-0.3,0-1.3,0.2-1.5,0.5c-0.2,0.3,0.3,0.5,0.5,0.5c0.3,0.1,0.5,0.2,0.8,0.2"/>
<path class="st0" d="M257.1,205.8c0.3,0,0.5-0.1,0.8-0.2c0.3-0.1,0.6-0.3,0.3-0.6c-0.3-0.4-1.1-0.5-1.5-0.6
	c-0.9-0.1-2.3-0.2-3.2,0.3"/>
<path class="st0" d="M254.9,205.8c0.7,0.1,1.5,0.1,2.2,0"/>
<path class="st0" d="M255.2,200.9c0.5-0.1,0.9-0.5,0.4-0.8c-0.4-0.3-0.8-0.3-1.3-0.4c-0.9-0.1-1.7-0.2-2.6,0.1
	c-0.5,0.1-0.9,0.5-0.4,0.8c0.4,0.3,0.8,0.3,1.3,0.4C253.4,201.2,254.3,201.1,255.2,200.9z"/>
<path class="st0" d="M224.1,228.8c-0.8-0.1-1.6-0.1-2.4,0"/>
<path class="st0" d="M221.4,228.7c1.4,0.2,2.7,0.2,4.1-0.2c0.7-0.2,1.6-0.7,0.8-1.4c-0.6-0.5-1.2-0.6-1.9-0.7
	c-1.4-0.2-2.7-0.2-4.1,0.2c-0.7,0.2-1.6,0.7-0.8,1.4C220.1,228.5,220.7,228.6,221.4,228.7z"/>
<path class="st0" d="M204.3,230.2c-0.9-0.1-1.7-0.1-2.6,0"/>
<path class="st0" d="M200.6,230c1.4,0.4,2.7,0.4,4.1,0.2c0.5-0.1,1.5-0.3,1.9-0.8c0.5-0.7-0.7-1.1-1.2-1.3c-1.4-0.4-2.7-0.4-4.1-0.2
	c-0.5,0.1-1.5,0.3-1.9,0.8C198.9,229.4,200.1,229.9,200.6,230z"/>
<path class="st0" d="M183.8,229.9c-0.9-0.1-1.7-0.1-2.5,0"/>
<path class="st0" d="M179.4,229.4c1.1,0.6,2.9,0.6,4,0.5c0.7-0.1,1.4-0.2,2-0.5c0.8-0.4,1-1,0.1-1.5c-1.1-0.6-2.9-0.6-4-0.5
	c-0.7,0.1-1.4,0.2-2,0.5C178.7,228.3,178.5,228.9,179.4,229.4z"/>
<path class="st0" d="M164.5,227.6c-0.7-0.1-1.4-0.1-2.2,0"/>
<path class="st0" d="M162.3,227.7C162.3,227.7,162.2,227.7,162.3,227.7"/>
<path class="st0" d="M159.8,226.9c0.7,0.8,3,0.9,3.9,0.8c0.7,0,1.3-0.1,2-0.3c0.5-0.2,1.6-0.7,1.1-1.3c-0.7-0.8-3-0.9-3.9-0.8
	c-0.7,0-1.3,0.1-2,0.3C160.4,225.7,159.3,226.2,159.8,226.9z"/>
<path class="st0" d="M123.3,205.3c-0.4,0.1-0.7,0.2-1,0.6c-0.2,0.3-0.1,0.5,0.1,0.6c0.6,0.4,1.1,0.4,1.8,0.5
	c1.3,0.2,2.5,0.1,3.7-0.3c0.6-0.2,1.5-0.7,0.8-1.2c-0.6-0.4-1.1-0.4-1.8-0.5C125.7,204.8,124.5,204.9,123.3,205.3z"/>
<path class="st0" d="M126.8,199.3c-0.4,0.1-1.3,0.3-1.6,0.7c-0.4,0.6,0.8,0.9,1.2,1c1.2,0.3,2.4,0.2,3.6,0c0.4-0.1,1.3-0.3,1.6-0.7
	c0.4-0.6-0.8-0.9-1.2-1C129.2,199,128,199,126.8,199.3z"/>
<path class="st0" d="M134.7,193.9c-0.6,0.1-1.2,0.2-1.7,0.4c-0.8,0.3-1,0.8-0.2,1.1c1.2,0.5,2.3,0.4,3.5,0.3
	c0.6-0.1,1.2-0.2,1.7-0.4c0.8-0.3,1-0.8,0.2-1.1C137,193.7,135.9,193.8,134.7,193.9z"/>
<path class="st0" d="M265.2,215.4c0.5-0.1,1.6-0.2,2-0.7c0.2-0.4-0.1-0.7-0.4-0.8c-0.3-0.2-0.7-0.3-1-0.4c-1.4-0.4-2.8-0.4-4.2,0"/>
<path class="st0" d="M264,215.4c0.4,0,0.8,0,1.3-0.1"/>
<path class="st0" d="M270.2,209.2c0.5-0.1,1.6-0.5,1.1-1.1c-0.4-0.4-1.2-0.6-1.7-0.7c-1.3-0.2-2.5-0.3-3.7,0
	c-0.5,0.1-1.6,0.5-1.1,1.1c0.4,0.4,1.2,0.6,1.7,0.7C267.7,209.5,268.9,209.6,270.2,209.2z"/>
<path class="st0" d="M270,203.1c0.9-0.4,0.8-0.8-0.1-1.2c-0.6-0.3-1.2-0.4-1.8-0.4c-1.2-0.1-2.4-0.2-3.6,0.3
	c-0.9,0.4-0.8,0.8,0.1,1.2c0.6,0.3,1.2,0.4,1.8,0.4C267.6,203.5,268.7,203.6,270,203.1z"/>
<path class="st0" d="M264.9,197.3c0.6-0.5-0.3-0.9-0.9-1.1c-0.6-0.2-1.2-0.3-1.7-0.3c-0.8-0.1-2.7,0-3.5,0.5
	c-0.6,0.5,0.3,0.9,0.9,1.1c0.6,0.2,1.2,0.3,1.7,0.3C262.2,197.9,264.2,197.9,264.9,197.3z"/>
<path class="st0" d="M199.1,220c0.8,0.2,1.5,0.3,2.3,0.2c0.4-0.1,0.8-0.1,1.1-0.3c0.5-0.3,0.1-0.6-0.3-0.8c-0.8-0.3-1.5-0.3-2.3-0.2
	c-0.4,0.1-0.8,0.1-1.1,0.3C198.3,219.5,198.7,219.8,199.1,220z"/>
<path class="st0" d="M186.2,219.6c0.5,0.4,1.7,0.4,2.3,0.4c0.4,0,0.8-0.1,1.1-0.2c0.4-0.2,0.8-0.5,0.3-0.8c-0.5-0.4-1.7-0.4-2.3-0.4
	c-0.4,0-0.8,0.1-1.1,0.2C186.1,218.9,185.7,219.3,186.2,219.6z"/>
<path class="st0" d="M193.8,216.1c0.6,0.2,1.1,0.2,1.7,0.1c0.3,0,0.6-0.1,0.8-0.2c0.3-0.2,0.1-0.5-0.2-0.6c-0.6-0.2-1.1-0.2-1.7-0.1
	c-0.3,0-0.6,0.1-0.8,0.2C193.3,215.7,193.5,216,193.8,216.1z"/>
<path class="st0" d="M198.8,193.2c-0.5,0-0.9,0-1.3,0.3c-0.3,0.2,0,0.4,0.2,0.4c0.2,0.1,0.4,0.1,0.6,0.1"/>
<line class="st0" x1="239.3" y1="223" x2="239.4" y2="221.9"/>
<path class="st0" d="M250.1,223.2C250.1,223.2,250.1,223.2,250.1,223.2"/>
<path class="st0" d="M244,222.9c1.5,0.5,3,0.7,4.6,0.6c0.8,0,1.5-0.1,2.3-0.4c1-0.4,1.1-1.1,0.2-1.7"/>
<path class="st0" d="M247.9,191.3c-0.6-0.1-1.3-0.2-1.9-0.2"/>
<path class="st0" d="M248.6,191.1c1.1-0.3,1.9-1.1,0.6-1.6"/>
<line class="st0" x1="252.6" y1="191.4" x2="252.6" y2="190.5"/>
<path class="st0" d="M152.7,189.7c-0.5,0-0.9,0.1-1.4,0.2"/>
<path class="st0" d="M150.1,188.1c-1,0.5-0.5,1.1,0.4,1.4"/>
<path class="st0" d="M138.9,221.2c-0.1,0-0.3,0.1-0.4,0.1"/>
<path class="st0" d="M137.5,219.4c-0.9,0.5-0.9,1.2,0,1.6c0.7,0.3,1.4,0.4,2.2,0.5c1.5,0.1,3,0,4.5-0.4"/>
<line class="st0" x1="174.7" y1="176.4" x2="192.6" y2="172"/>
<line class="st0" x1="192.6" y1="172" x2="191.2" y2="171.6"/>
<line class="st0" x1="177.6" y1="167.4" x2="177.4" y2="167.4"/>
<line class="st0" x1="153.3" y1="171.4" x2="153.2" y2="171.4"/>
<line class="st0" x1="153.2" y1="171.4" x2="155.2" y2="172.1"/>
<line class="st0" x1="153.6" y1="190.2" x2="153.6" y2="190.7"/>
<line class="st0" x1="155.1" y1="171.5" x2="174.4" y2="167"/>
<line class="st0" x1="174.4" y1="167" x2="190.7" y2="172"/>
<line class="st0" x1="157.6" y1="172.3" x2="155.1" y2="171.5"/>
<path class="st0" d="M179,172.5c1.3,0.4,2.6,0.4,3.9,0.3c0.7-0.1,1.3-0.1,1.9-0.4c1-0.4,0.6-0.9-0.3-1.2c-1.3-0.4-2.6-0.4-3.9-0.3
	c-0.7,0.1-1.3,0.1-1.9,0.4C177.7,171.8,178.1,172.3,179,172.5z"/>
<path class="st0" d="M169.7,173.4c-0.3,0.1-0.6,0.2-0.9,0.3c-0.3,0.2-0.6,0.4-0.3,0.7"/>
<path class="st0" d="M170.9,175.2c1,0.1,1.9,0.1,2.9-0.1c0.9-0.1,2.8-0.7,1.6-1.3c-1.3-0.7-4.3-0.6-5.6-0.3"/>
<path class="st0" d="M166.8,171c-1.3-0.4-2.6-0.4-3.9-0.3c-0.7,0.1-1.3,0.2-1.9,0.4c-1,0.4-0.7,0.9,0.2,1.2c1.3,0.4,2.6,0.4,3.9,0.3
	c0.7-0.1,1.3-0.2,1.9-0.4C168,171.7,167.7,171.2,166.8,171z"/>
<path class="st0" d="M175.9,170.1c0.6-0.1,1.8-0.5,1.1-1.1c-0.6-0.4-1.2-0.5-1.8-0.5c-1.3-0.2-2.6-0.1-3.8,0.2
	c-0.6,0.1-1.8,0.5-1.1,1.1c0.6,0.4,1.2,0.5,1.8,0.5C173.4,170.4,174.7,170.4,175.9,170.1z"/>
<line class="st0" x1="190.7" y1="172" x2="173.8" y2="176.1"/>
<path class="st0" d="M258.6,166.5c-0.4,0.1-0.9,0.2-1.3,0.4"/>
<path class="st0" d="M275.4,167.4c-4.2-1.9-12.5-2-16.8-0.9"/>
<path class="st0" d="M258.7,163.6c-2.4,0.6-4.3,1.9-1.5,3.3c1.8,0.9,3.6,1.1,5.5,1.4c3.4,0.4,8,0.4,11.4-0.4
	c2.4-0.6,4.3-1.9,1.5-3.3c-1.8-0.9-3.6-1.1-5.5-1.4C266.8,162.8,262.1,162.8,258.7,163.6z"/>
<path class="st0" d="M267.6,169.6c-3.1,0-6.1-0.2-9.1-0.8c-1.5-0.3-3-0.6-4.4-1.3c-1.4-0.6-3.4-1.8-1.7-3.2"/>
<path class="st0" d="M280.7,165.2c0.9,0.9,0.4,1.7-0.5,2.3c-0.8,0.5-1.7,0.8-2.6,1.1"/>
<path class="st0" d="M258.9,167.6c0.3,0,0.7,0.3,0.4,0.5c-0.3,0.2-0.6,0.2-0.9,0.2c-0.6,0.1-1.2,0-1.8-0.1"/>
<path class="st0" d="M256.6,168.2c-0.3-0.1-0.7-0.3-0.4-0.5c0.3-0.2,0.6-0.2,0.9-0.2c0.6-0.1,1.2,0,1.8,0.1"/>
<path class="st0" d="M258.4,163.5c-0.6,0.1-1.1,0.1-1.7,0.1c-0.3,0-0.6,0-0.8-0.2c-0.4-0.2-0.1-0.4,0.2-0.5"/>
<path class="st0" d="M256.1,162.9c0.6-0.1,1.1-0.1,1.7-0.1c0.3,0,0.6,0,0.8,0.2c0.4,0.2,0.1,0.4-0.2,0.5"/>
<path class="st0" d="M273.9,163.7c-0.3,0-0.8-0.3-0.4-0.5c0.3-0.2,0.6-0.2,0.8-0.2c0.6-0.1,1.2,0,1.7,0.1"/>
<path class="st0" d="M276,163.2c0.3,0,0.8,0.3,0.4,0.5c-0.3,0.2-0.6,0.2-0.8,0.2c-0.6,0.1-1.2,0-1.7-0.1"/>
<path class="st0" d="M276.8,167.8c0.2,0,0.4,0,0.5,0.1c0.2,0.1,0.4,0.3,0.2,0.4"/>
<path class="st0" d="M290.2,210.3c-0.3-1.8-0.9-3.4-2-4.9"/>
<path class="st0" d="M105.7,205.5c-1,1.5-1.7,3.1-2,4.9"/>
<path class="st0" d="M265.4,228.3c5.9-2,12.8-5,17.9-8.8c5.4-4.1,9.8-10.1,5.7-17.1c-5.9-10.1-25.4-15.9-34.7-18.1"/>
<path class="st0" d="M217.4,178.7c-9.5-0.7-18.9-0.9-28.4-0.6"/>
<path class="st0" d="M184.7,178.3c-1.5,0.1-3,0.1-4.5,0.2"/>
<path class="st0" d="M145.2,183c-10.8,2.3-26.9,6.8-35.9,14.5c-5.4,4.6-8.2,10.6-3.6,17.1c3.6,5.1,10.5,8.8,15.8,11.1"/>
<line class="st0" x1="442.1" y1="203.3" x2="245.8" y2="152.9"/>
<line class="st0" x1="256.3" y1="182" x2="291.2" y2="192.2"/>
<line class="st0" x1="315.9" y1="184.6" x2="300.7" y2="180.5"/>
<line class="st0" x1="287.6" y1="176.9" x2="281.9" y2="175.3"/>
<line class="st0" x1="233.9" y1="169.9" x2="236.9" y2="170.7"/>
<line class="st0" x1="236.9" y1="170.7" x2="245.2" y2="168.6"/>
<line class="st0" x1="245.2" y1="168.6" x2="244.6" y2="168.4"/>
<line class="st0" x1="234.1" y1="169.9" x2="233.9" y2="169.9"/>
<line class="st0" x1="343.1" y1="218.2" x2="316.1" y2="209.9"/>
<line class="st0" x1="316.1" y1="209.9" x2="294.4" y2="217.3"/>
<line class="st0" x1="308.5" y1="221.9" x2="310.4" y2="222.5"/>
<line class="st0" x1="335.6" y1="221" x2="343.1" y2="218.2"/>
<line class="st0" x1="192.5" y1="172" x2="174.5" y2="166.5"/>
<line class="st0" x1="174.5" y1="166.5" x2="153.3" y2="171.4"/>
<line class="st0" x1="153.3" y1="171.4" x2="155.1" y2="172"/>
<line class="st0" x1="309.6" y1="186.5" x2="294.5" y2="182.3"/>
<line class="st0" x1="279.6" y1="178.2" x2="275.6" y2="177.1"/>
<line class="st0" x1="83.4" y1="248.6" x2="448.8" y2="220.2"/>
<path class="st0" d="M448.8,220.2c0.5,0,1.1-0.1,1.6-0.1"/>
<path class="st0" d="M451,220c3.1-0.4,7.7-1.1,10.5-3"/>
<path class="st0" d="M461.9,216.7c0.2-0.1,0.4-0.3,0.6-0.5"/>
<path class="st0" d="M463.4,214.8C463.4,214.8,463.4,214.8,463.4,214.8"/>
<path class="st0" d="M463.5,214.3c0-0.1,0-0.1,0-0.2"/>
<path class="st0" d="M463.5,213.7c-0.1-0.9-0.5-1.6-1.1-2.2"/>
<path class="st0" d="M450.1,205.4c-0.2,0-0.3-0.1-0.5-0.1"/>
<path class="st0" d="M448.1,204.9C448.1,204.8,448.1,204.8,448.1,204.9"/>
<line class="st0" x1="178.8" y1="148" x2="57.5" y2="231.1"/>
<path class="st0" d="M53.8,233.6C53.8,233.6,53.8,233.6,53.8,233.6"/>
<path class="st0" d="M52.9,234.3c-0.9,0.7-1.7,1.5-2.3,2.4"/>
<path class="st0" d="M50.1,237.6c0,0.1-0.1,0.2-0.1,0.3"/>
<path class="st0" d="M50,238.1c0,0.1,0,0.1-0.1,0.2"/>
<path class="st0" d="M49.8,238.5c0,0,0,0.1,0,0.1"/>
<path class="st0" d="M49.8,239.9c0.1,0.4,0.1,0.7,0.3,1"/>
<path class="st0" d="M54.3,244.8c0.9,0.5,1.8,0.9,2.8,1.2"/>
<path class="st0" d="M57.4,246.2c1.9,0.7,3.8,1.2,5.8,1.5"/>
<path class="st0" d="M63.7,247.8c0.5,0.1,1,0.2,1.4,0.2"/>
<path class="st0" d="M66.1,248.2c0.5,0.1,0.9,0.1,1.4,0.2"/>
<path class="st0" d="M68.5,248.5c0.5,0.1,1,0.1,1.5,0.1"/>
<path class="st0" d="M70.3,248.6c1.7,0.1,3.4,0.2,5.1,0.2"/>
<path class="st0" d="M76.3,248.9c0.6,0,1.1,0,1.7,0"/>
<path class="st0" d="M79,248.8c0.3,0,0.7,0,1,0"/>
<path class="st0" d="M81.3,248.7c0.7,0,1.4-0.1,2.1-0.1"/>
<line class="st0" x1="251.6" y1="174.8" x2="251.3" y2="174.9"/>
<line class="st0" x1="291.2" y1="192.2" x2="315.9" y2="184.6"/>
<path class="st0" d="M403,215.3c4.8-1.9,10.3-5.7,5.9-10.9c-3.1-3.7-8.8-6-12.9-7.5c-9.1-3.2-20-5.1-29.5-5.9
	c-10.1-0.9-20-0.9-30.1,0.6c-4.7,0.7-10.1,1.8-14.4,4.2c-5.9,3.2-6.7,7.4-1.4,11.7"/>
<path class="st0" d="M336.6,214.7c0.4,0.1,0.9,0.2,1.3,0.4"/>
<path class="st0" d="M401.9,215.7c0.3-0.1,0.7-0.3,1-0.4"/>
<path class="st0" d="M280.2,167.4c1.7-1.2,0.6-2.4-0.9-3.2c-1.3-0.7-2.7-1-4.1-1.3c-2.8-0.6-5.7-0.9-8.6-1c-2.9-0.1-5.8,0-8.6,0.5
	c-1.4,0.2-2.8,0.5-4.2,1.1c-1.5,0.7-2.8,1.8-1.2,3.1"/>
<path class="st0" d="M245,163.6c-0.1-0.1-0.2-0.3-0.3-0.4"/>
<path class="st0" d="M188.2,158.5c-0.4,0.1-0.7,0.2-1.1,0.3"/>
<path class="st0" d="M178.7,162.8c-0.1,0.1-0.2,0.3-0.3,0.4"/>
<path class="st0" d="M244.7,164c0.7-0.8,1.2-1.4,0.9-2.6"/>
<path class="st0" d="M177.8,161.1c-0.6,2.5,3.1,4.3,4.7,5.1c2.3,1,4.7,1.7,7.1,2.2c4.9,1.1,9.8,1.7,14.8,2
	c9.2,0.6,20.6,0.2,29.7-1.8"/>
<path class="st0" d="M349.5,215.7c1-0.1,1.9-0.1,2.9-0.2"/>
<path class="st0" d="M373.4,217.3c0.8,0.2,1.6,0.4,2.4,0.6"/>
<line class="st0" x1="274.4" y1="177.7" x2="276" y2="178.1"/>
<path class="st0" d="M179.2,147.8c-0.1,0.1-0.2,0.2-0.4,0.2"/>
<path class="st0" d="M450.4,220.1c0.2,0,0.3,0,0.5-0.1"/>
<path class="st0" d="M461.4,217c0.1-0.1,0.3-0.2,0.4-0.3"/>
<path class="st0" d="M462.4,216.3c0.4-0.4,0.7-0.9,0.9-1.4"/>
<path class="st0" d="M463.4,214.8c0.1-0.2,0.1-0.3,0.1-0.5"/>
<path class="st0" d="M463.5,214.1c0-0.1,0-0.2,0-0.4"/>
<path class="st0" d="M462.4,211.5c-0.2-0.3-0.5-0.5-0.7-0.7c-0.4-0.3-0.7-0.6-1.1-0.9c-0.8-0.6-1.7-1.1-2.7-1.6
	c-2.5-1.2-5.1-2.1-7.7-2.9"/>
<path class="st0" d="M449.6,205.3c-0.5-0.1-1-0.3-1.5-0.4"/>
<path class="st0" d="M448.1,204.8c-2-0.5-4-1-6-1.5"/>
<path class="st0" d="M57.5,231.1c-1.2,0.8-2.4,1.6-3.6,2.5"/>
<path class="st0" d="M53.8,233.6c-0.3,0.2-0.6,0.4-0.9,0.6"/>
<path class="st0" d="M50.6,236.7c-0.2,0.3-0.3,0.6-0.5,0.9"/>
<path class="st0" d="M50,237.9c0,0.1,0,0.1-0.1,0.2"/>
<path class="st0" d="M49.9,238.3c0,0.1,0,0.2-0.1,0.2"/>
<path class="st0" d="M49.8,238.7c-0.1,0.4-0.1,0.8,0,1.2"/>
<path class="st0" d="M50.1,240.9c0.8,1.8,2.7,3.1,4.2,3.9"/>
<path class="st0" d="M57.1,246.1c0.1,0,0.2,0.1,0.3,0.1"/>
<path class="st0" d="M59.6,246.9c0.5,0.2,1.1,0.3,1.6,0.4"/>
<path class="st0" d="M63.2,247.7c0.2,0,0.3,0.1,0.5,0.1"/>
<path class="st0" d="M65.1,248c0.3,0.1,0.6,0.1,1,0.1"/>
<path class="st0" d="M67.4,248.4c0.3,0,0.7,0.1,1,0.1"/>
<path class="st0" d="M70,248.6c0.1,0,0.2,0,0.2,0"/>
<path class="st0" d="M75.4,248.9c0.3,0,0.6,0,0.9,0"/>
<path class="st0" d="M76.7,248.9c0.8,0,1.5,0,2.3,0"/>
<path class="st0" d="M80,248.8c0.4,0,0.9,0,1.3-0.1"/>
<line class="st0" x1="272.5" y1="178.3" x2="275.9" y2="179.3"/>
<line class="st0" x1="269.1" y1="182.1" x2="274.7" y2="183.7"/>
<line class="st0" x1="268.5" y1="182.4" x2="274.8" y2="184.2"/>
<line class="st0" x1="408.8" y1="180.3" x2="406.3" y2="208.4"/>
<line class="st0" x1="322.6" y1="174.1" x2="321.1" y2="203.6"/>
<path class="st0" d="M447.3,228.2c4.8-0.4,9.5-0.6,14.2-1.6c2.4-0.5,4.6-1.1,6.8-2.1c1.8-0.8,4.6-2.4,4.9-4.8"/>
<line class="st0" x1="447.3" y1="228.2" x2="92.2" y2="256.7"/>
<path class="st0" d="M39.2,245.1c0.4,4.8,6.8,7.7,10.3,8.9c4.6,1.6,9.2,2.5,14,3c10.8,1.2,18,0.4,28.7-0.4"/>
<path class="st0" d="M266.2,228.6c6-2.1,13-5.1,18.1-9c5.6-4.3,9.8-10.4,5.5-17.4c-6.2-10.1-25.9-15.9-35.5-18.2"/>
<path class="st0" d="M218,178.5c-10.3-0.7-20.5-0.9-30.8-0.6"/>
<path class="st0" d="M186.6,178c-2.3,0.1-4.6,0.2-6.9,0.3"/>
<path class="st0" d="M145.1,182.8c-9.3,2-18.3,4.4-27,8.6c-7,3.4-19.2,10.9-14.8,20.9c1.6,3.7,4.9,6.5,8,8.6
	c4.6,3.2,9.6,5.3,14.8,7.2c9,3.2,18.1,5.3,27.5,6.8c32.9,5.4,80.2,4.8,112.6-6.4"/>
<path class="st0" d="M265.4,228.3c-21.6,7.4-49.7,9.8-72.2,9.5c-21.7-0.3-51.2-3.2-71.7-12.2"/>
<path class="st0" d="M278.3,222.7c-0.2,0.1-0.3,0.2-0.5,0.3"/>
<path class="st0" d="M274.2,224.8C274.2,224.8,274.2,224.8,274.2,224.8"/>
<path class="st0" d="M402.1,185c2.3-0.8,7.7-3,6.9-6.5c-0.4-1.7-1.9-3-3.2-3.9c-2.2-1.6-4.6-2.6-7.1-3.5c-7.4-2.8-15-4.1-22.8-5.1
	c-12.6-1.6-33.8-2.3-46.4,2.1c-2.3,0.8-7.5,2.9-6.9,6.4c0.3,1.7,1.8,3,3.1,3.9c2.2,1.6,4.7,2.7,7.3,3.6c7.4,2.8,15,4.1,22.8,5.1
	C368.3,188.7,389.5,189.4,402.1,185z"/>
<path class="st0" d="M270.4,198.9c-31.4,9.6-75.8,10.7-107.8,7.4c-10.7-1.1-21.2-2.7-31.7-5.3c-7.2-1.8-14.2-3.9-20.9-7.2
	c-5.9-2.9-16.2-9.3-12.1-17.7c1.8-3.8,5.8-6.6,9.1-8.5c5.2-3,10.7-5,16.4-6.8c31.4-9.6,75.9-10.7,107.9-7.4
	c10.2,1,20.2,2.6,30.2,4.9c7.7,1.8,15.2,4,22.4,7.6c5.5,2.7,15.5,8.8,12.5,16.9c-1.5,3.9-5.3,6.8-8.6,8.8
	C282.3,194.9,276.5,197,270.4,198.9z"/>
<path class="st0" d="M269.4,229.7c6.4-2.2,13.9-5.5,19.3-9.8c6.1-5,9.6-11.5,4.3-18.8c-7.5-10.3-27.9-16-38.5-18.5"/>
<path class="st0" d="M220.6,177.7c-14.4-1.1-28.7-1.2-43.1-0.3"/>
<path class="st0" d="M144.8,181.6c-9.8,2-19.4,4.5-28.6,8.7c-7,3.2-20.6,10.7-17.5,21.2c1.2,4,4.5,7.2,7.6,9.5
	c4.8,3.6,10,5.9,15.5,8c9.4,3.5,19,5.7,28.9,7.4c34.6,5.8,84.5,5.2,118.5-6.6"/>
<path class="st0" d="M259.2,168.9c0,0-0.1,0-0.1,0"/>
<path class="st0" d="M274.6,182.7c-2.9,0.5-5.9,0.6-8.8,0.5"/>
<path class="st0" d="M234.1,166.9c-9,2-20.3,2.4-29.4,1.8c-4.9-0.3-9.8-0.8-14.6-1.9c-2.4-0.5-4.8-1.2-7.1-2.1
	c-1.6-0.7-5.2-2.2-5.3-4.7"/>
<path class="st0" d="M245.7,160.4c0,0.9-0.4,1.4-1,2"/>
<line class="st0" x1="203.8" y1="162.8" x2="203.9" y2="162.9"/>
<line class="st0" x1="205.7" y1="167" x2="205.7" y2="167"/>
<line class="st0" x1="207" y1="170.2" x2="207.2" y2="170.5"/>
<line class="st0" x1="270.1" y1="179.8" x2="274.8" y2="181.1"/>
<line class="st0" x1="286.3" y1="185" x2="284.7" y2="185.5"/>
<line class="st0" x1="282.3" y1="178.1" x2="284.2" y2="177.6"/>
<line class="st0" x1="300.3" y1="180.6" x2="287.3" y2="184.5"/>
<line class="st0" x1="285.3" y1="177.5" x2="298.4" y2="173.8"/>
<line class="st0" x1="282.9" y1="186.7" x2="279.4" y2="187.7"/>
<line class="st0" x1="276.9" y1="179" x2="280.4" y2="178"/>
<line class="st0" x1="290.8" y1="191.8" x2="292.5" y2="191.3"/>
<line class="st0" x1="293.6" y1="191.2" x2="306.6" y2="187.2"/>
<line class="st0" x1="288.5" y1="208.9" x2="289.8" y2="208.4"/>
<line class="st0" x1="268.5" y1="182.4" x2="263.1" y2="184"/>
<line class="st0" x1="263" y1="178.4" x2="261.3" y2="178.8"/>
<line class="st0" x1="259.4" y1="171.5" x2="261" y2="171.1"/>
<line class="st0" x1="262" y1="171.1" x2="275.2" y2="167.6"/>
<line class="st0" x1="253.8" y1="172.4" x2="257.2" y2="171.5"/>
<line class="st0" x1="274.6" y1="177.6" x2="272.8" y2="178.1"/>
<line class="st0" x1="270.9" y1="170.7" x2="272.6" y2="170.2"/>
<line class="st0" x1="288.6" y1="173.4" x2="275.5" y2="177.1"/>
<line class="st0" x1="273.6" y1="170.2" x2="286.8" y2="166.7"/>
<line class="st0" x1="271.1" y1="179.2" x2="267.7" y2="180.2"/>
<line class="st0" x1="265.5" y1="171.5" x2="268.8" y2="170.6"/>
<line class="st0" x1="336.4" y1="213" x2="337.9" y2="209.3"/>
<line class="st0" x1="387.5" y1="213.1" x2="388.4" y2="217.1"/>
<path class="st0" d="M377.7,216.6c-0.9-0.3-1.9-0.6-2.8-0.8"/>
<path class="st0" d="M366.8,214.2c-2.4-0.3-4.8-0.5-7.3-0.7"/>
<path class="st0" d="M351.5,213.6c-1.2,0.1-2.5,0.2-3.7,0.4"/>
<path class="st0" d="M343,205.5c10.2-3.5,30.7-2.1,40.3,3.3"/>
<path class="st0" d="M341.1,212.2c1.6,1.7,5,3,7.1,3.7"/>
<path class="st0" d="M376,218.1c2.2-0.3,5.8-1.1,7.7-2.6"/>
<path class="st0" d="M342.5,205.7c0.2-0.1,0.4-0.1,0.5-0.2"/>
<path class="st0" d="M383.3,208.8c1.6,0.9,3.7,2.3,4.2,4.4"/>
<path class="st0" d="M337.9,209.3c0.8-1.9,3-3,4.6-3.6"/>
<line class="st0" x1="181.2" y1="165.5" x2="181.2" y2="164.9"/>
<line class="st0" x1="239.9" y1="150.5" x2="241.8" y2="151"/>
<path class="st0" d="M241.8,151c2.2,0.6,3.1,2.9,3,4.9"/>
<line class="st0" x1="244.9" y1="155.9" x2="244.6" y2="168.8"/>
<line class="st0" x1="244.1" y1="192" x2="244.1" y2="192.4"/>
<line class="st0" x1="243.4" y1="221.4" x2="243.4" y2="222.7"/>
<line class="st0" x1="385" y1="196.1" x2="386.5" y2="195.6"/>
<line class="st0" x1="387.1" y1="197.3" x2="385.8" y2="197.8"/>
<line class="st0" x1="337.1" y1="213.2" x2="338.7" y2="212.6"/>
<path class="st0" d="M252.7,204.2c2.9,1.4,4.3,4.3,4.3,7.3"/>
<path class="st0" d="M254.5,218.6c-1.8,2.4-4.8,3.9-7.9,3.2"/>
<path class="st0" d="M246.7,221.8c-3.6-0.4-7.2-1.1-10.8-1.9"/>
<path class="st0" d="M218.1,214.2c-3.3-1.3-6.5-2.8-9.7-4.4"/>
<path class="st0" d="M215,190.4c13.4,2.6,25.8,6.7,37.7,13.8"/>
<line class="st0" x1="260.3" y1="220.2" x2="251.2" y2="217.7"/>
<line class="st0" x1="253.8" y1="210.3" x2="262.5" y2="213.7"/>
<path class="st0" d="M262.5,213.7c3.3,1.3,1.2,7.4-2.2,6.5"/>
<path class="st0" d="M200.2,210c-2.3-2.4-3.3-5.7-3.3-8.9"/>
<path class="st0" d="M207.4,185.5c4.8-1.3,9.3,1.3,11.3,5.7"/>
<path class="st0" d="M196.9,201.1c0-6.3,3.9-13.8,10.5-15.6"/>
<path class="st0" d="M131.9,209.1c0.1-2.9,1.5-5.8,4.4-6.9"/>
<path class="st0" d="M141.2,219.9c-3.1,0.5-5.8-1.2-7.4-3.7"/>
<path class="st0" d="M136.3,202.1c13.2-6.6,26.8-10.2,41.3-12.4"/>
<path class="st0" d="M183,209.6c-2.3,0.9-4.6,1.8-7,2.7"/>
<path class="st0" d="M151.6,218.7c-3.4,0.6-6.8,1-10.2,1.2"/>
<line class="st0" x1="125" y1="211.3" x2="134.5" y2="208.2"/>
<line class="st0" x1="136.6" y1="215.7" x2="126.7" y2="217.9"/>
<path class="st0" d="M123.2,214.2c-0.1-1.2,0.5-2.5,1.7-2.9"/>
<path class="st0" d="M126.7,217.9c-2.1,0.5-3.4-1.8-3.5-3.6"/>
<path class="st0" d="M194.9,200.9c0,3.1-0.8,6.4-3,8.8"/>
<path class="st0" d="M185.4,185.2c6.3,2.2,9.4,9.8,9.5,15.8"/>
<path class="st0" d="M174.7,190.2c1.9-4.1,6.2-6.6,10.7-5"/>
<path class="st0" d="M147.4,186.4c-5.5-4.5-1.8-14.8,5.4-14.5"/>
<path class="st0" d="M153.1,171.9c10.4,0.6,19.6,3.4,29,7.4"/>
<path class="st0" d="M160,193.4c-4.2-1.8-8.2-4-12-6.6"/>
<line class="st0" x1="143.9" y1="174.1" x2="146.7" y2="174.8"/>
<line class="st0" x1="144.8" y1="180.6" x2="142.1" y2="179.5"/>
<path class="st0" d="M142.1,179.5c-2.9-1.2-1.2-6.2,1.8-5.4"/>
<path class="st0" d="M197,189.4c0,3.2-0.8,5.8-2.4,8.6"/>
<path class="st0" d="M174.7,190.3c0.9-5.3,4.5-10.6,10.1-12"/>
<path class="st0" d="M184.7,178.3c3.2-0.8,6.6,0,8.9,2.3c2.3,2.3,3.4,5.6,3.3,8.8"/>
<path class="st0" d="M194.9,199.4c0.7-0.1,1.4-0.1,2.1-0.1"/>
<line class="st0" x1="240.4" y1="160.8" x2="239.8" y2="160.7"/>
<line class="st0" x1="241.6" y1="154.2" x2="242.2" y2="154.3"/>
<line class="st0" x1="177.7" y1="160.1" x2="177.7" y2="160.1"/>
<line class="st0" x1="245.7" y1="160.4" x2="245.7" y2="160.4"/>
<line class="st0" x1="177.5" y1="139.8" x2="177.5" y2="139.8"/>
<line class="st0" x1="246.1" y1="140.1" x2="246.1" y2="140.2"/>
<line class="st0" x1="222.8" y1="144.8" x2="222.8" y2="143.9"/>
<line class="st0" x1="222.9" y1="138.8" x2="222.9" y2="138.1"/>
<line class="st0" x1="177.7" y1="160.1" x2="177.7" y2="159.3"/>
<line class="st0" x1="177.6" y1="141" x2="177.5" y2="139.8"/>
<line class="st0" x1="246.1" y1="140.2" x2="245.7" y2="160.4"/>
<line class="st0" x1="212.5" y1="135.6" x2="212.5" y2="136.3"/>
<line class="st0" x1="212.5" y1="138.4" x2="212.5" y2="139.2"/>
<line class="st0" x1="212.4" y1="150.1" x2="212.4" y2="152.7"/>
<line class="st0" x1="177.5" y1="139.8" x2="177.5" y2="139.5"/>
<line class="st0" x1="246.1" y1="139.8" x2="246.1" y2="140.1"/>
<path class="st0" d="M177.5,139.5c-0.1-11.8,68.9-11.5,68.6,0.3"/>
<path class="st0" d="M234.1,168.1c-9.2,2.1-20.3,2.5-29.7,1.9c-5-0.3-9.9-0.9-14.8-2.1c-2.4-0.6-4.8-1.2-7.1-2.3
	c-1.9-0.9-4.8-2.6-4.8-5.2"/>
<path class="st0" d="M245.7,160.7c0,1-0.3,1.7-1,2.4"/>
<line class="st0" x1="231.7" y1="169" x2="231.7" y2="168.6"/>
<line class="st0" x1="219.6" y1="170.4" x2="219.6" y2="170"/>
<line class="st0" x1="222.8" y1="169.8" x2="222.8" y2="170.1"/>
<line class="st0" x1="224.3" y1="170" x2="224.3" y2="169.7"/>
<line class="st0" x1="230.1" y1="168.9" x2="230.1" y2="169.2"/>
<line class="st0" x1="203.8" y1="162.8" x2="200.8" y2="162.9"/>
<line class="st0" x1="153.2" y1="218.5" x2="153.3" y2="218.4"/>
<path class="st0" d="M254.5,182.2c-0.1,2.4-1.1,4.8-3.2,6.1"/>
<path class="st0" d="M246.8,173.2c4.8-0.1,7.8,4.7,7.7,9"/>
<path class="st0" d="M250.8,188.6c-4.1,2.3-8.3,4.2-12.7,5.8"/>
<path class="st0" d="M213.5,180.1c10.8-3.9,21.4-6.6,33-6.8"/>
<line class="st0" x1="258.4" y1="181.3" x2="254.5" y2="182.6"/>
<line class="st0" x1="252.8" y1="176.5" x2="256.8" y2="175.7"/>
<path class="st0" d="M260,178.9c0,1-0.6,2-1.6,2.4"/>
<path class="st0" d="M256.8,175.7c1.9-0.4,3.2,1.5,3.1,3.2"/>
<path class="st0" d="M199.1,192.5c-0.2-1-0.2-1.9-0.2-2.9"/>
<path class="st0" d="M198.9,189.6c0-3.1,0.9-6.4,3.1-8.7c2.3-2.4,5.6-3.2,8.7-2.2"/>
<path class="st0" d="M210.7,178.7c5.5,1.7,8.6,7.6,9.3,12.8"/>
<line class="st0" x1="288.5" y1="208.9" x2="288.4" y2="210.4"/>
<line class="st0" x1="105.5" y1="210.5" x2="105.4" y2="208.7"/>
<line class="st0" x1="105.8" y1="212.8" x2="104.9" y2="213.5"/>
<line class="st0" x1="106.3" y1="215.5" x2="106.8" y2="215.2"/>
<line class="st0" x1="245.9" y1="151.4" x2="445.5" y2="202.1"/>
<line class="st0" x1="50" y1="230.9" x2="173.4" y2="148.1"/>
<path class="st0" d="M173.4,148.1c0.8-0.6,1.6-1.1,2.5-1.6c0.9-0.5,1.8-0.9,2.7-1.2"/>
<path class="st0" d="M445.5,202.1c5.7,1.5,11.5,2.8,16.9,5.2c4.5,2,11.7,5.9,10.8,12.4"/>
<path class="st0" d="M39.2,245.1c-0.6-7.4,6-11,10.7-14.2"/>
</svg>
