<?xml version="1.0" encoding="utf-8"?>
<!-- Generator: Adobe Illustrator 21.0.2, SVG Export Plug-In . SVG Version: 6.00 Build 0)  -->
<svg version="1.1" id="Layer_1" xmlns="http://www.w3.org/2000/svg" xmlns:xlink="http://www.w3.org/1999/xlink" x="0px" y="0px"
	 viewBox="0 0 162 50" style="enable-background:new 0 0 162 50;" xml:space="preserve">
<style type="text/css">
	.st0{fill:#FFFFFF;}
</style>
<path class="st0" d="M43.6,16.7h5.8c1.5,0,2.5,0.4,3.3,1.1s1.1,1.7,1.1,2.9c0,0.6-0.2,1.2-0.4,1.8c-0.3,0.6-0.9,1-1.7,1.4l0,0
	c0.8,0.2,1.4,0.6,1.8,1.2c0.4,0.6,0.6,1.3,0.6,2.1c0,0,0,0,0,0.1v0.1c0,1.3-0.4,2.3-1.2,3.1s-1.8,1.2-2.9,1.2h-6.3L43.6,16.7
	L43.6,16.7z M45.8,18.7V23h3.3c0.8,0,1.4-0.2,1.8-0.6c0.4-0.4,0.6-0.9,0.6-1.5s-0.2-1.1-0.6-1.5c-0.4-0.4-1-0.6-1.8-0.6
	C49.1,18.7,45.8,18.7,45.8,18.7z M45.8,25v4.5h3.5c0.8,0,1.5-0.2,1.8-0.7c0.4-0.5,0.6-1,0.6-1.6s-0.2-1.1-0.6-1.6
	c-0.4-0.5-1-0.7-1.8-0.7L45.8,25L45.8,25z"/>
<path class="st0" d="M56.7,16.7H59v14.9h-2.3V16.7z"/>
<path class="st0" d="M62.4,21c0.1-0.6,0.2-1,0.4-1.4c0-0.1,0.1-0.1,0.1-0.2c0,0,0.1-0.1,0.1-0.2c0,0,0-0.1,0.1-0.1
	c0,0,0-0.1,0.1-0.1c0.4-0.6,1-1.2,1.7-1.7c0.8-0.5,1.7-0.8,2.8-0.8s2,0.3,2.8,0.8s1.3,1.1,1.7,1.7c0,0,0,0.1,0.1,0.1
	c0,0,0,0.1,0.1,0.1c0,0.1,0.1,0.1,0.1,0.2c0,0,0.1,0.1,0.1,0.2c0.2,0.4,0.3,0.8,0.4,1.4s0.1,1.6,0.1,3.2s0,2.6-0.1,3.2
	s-0.2,1-0.4,1.4c0,0.1-0.1,0.1-0.1,0.2c0,0-0.1,0.1-0.1,0.2c0,0,0,0.1-0.1,0.1c0,0,0,0.1-0.1,0.1c-0.4,0.6-1,1.2-1.7,1.7
	c-0.8,0.5-1.7,0.8-2.8,0.8s-2-0.3-2.8-0.8s-1.3-1.1-1.7-1.7c0,0,0-0.1-0.1-0.1c0,0,0-0.1-0.1-0.1c0-0.1-0.1-0.1-0.1-0.2
	c0,0-0.1-0.1-0.1-0.2c-0.2-0.4-0.3-0.8-0.4-1.4c-0.1-0.6-0.1-1.6-0.1-3.2S62.3,21.5,62.4,21z M64.7,26.9c0.1,0.5,0.2,0.9,0.4,1.2
	l0.1,0.1l0.1,0.1c0.2,0.3,0.5,0.5,0.9,0.8c0.4,0.2,0.8,0.3,1.4,0.3c0.5,0,1-0.1,1.4-0.3c0.4-0.2,0.7-0.5,0.9-0.8l0.1-0.1l0.1-0.1
	c0.2-0.3,0.4-0.7,0.4-1.2c0.1-0.5,0.1-1.4,0.1-2.8s0-2.3-0.1-2.8s-0.2-0.9-0.4-1.2L70,20l-0.1-0.1c-0.2-0.3-0.5-0.5-0.9-0.8
	c-0.4-0.2-0.9-0.3-1.4-0.3s-1,0.1-1.4,0.3c-0.4,0.2-0.7,0.5-0.9,0.8L65.2,20l-0.1,0.1c-0.2,0.3-0.4,0.7-0.4,1.2
	c-0.1,0.5-0.1,1.4-0.1,2.8S64.6,26.4,64.7,26.9z"/>
<path class="st0" d="M76.3,16.7h5.8c0.6,0,1.2,0.1,1.7,0.2c0.5,0.2,0.9,0.4,1.3,0.8c0.4,0.3,0.8,0.8,1.1,1.4
	c0.3,0.5,0.4,1.2,0.4,1.8c0,1-0.3,1.8-0.8,2.5s-1.2,1.3-2.1,1.6l3.5,6.6h-2.7l-3.1-6.4h-2.9v6.4h-2.3L76.3,16.7L76.3,16.7z
	 M78.6,23.3H82c0.9,0,1.5-0.2,1.9-0.7s0.6-1,0.6-1.7c0-0.4-0.1-0.7-0.2-1s-0.3-0.5-0.6-0.7c-0.2-0.2-0.4-0.3-0.7-0.3
	c-0.3-0.1-0.6-0.1-1-0.1h-3.5L78.6,23.3L78.6,23.3z"/>
<path class="st0" d="M89.8,16.7h9.5v2.1H92V23h6.2v2H92v4.4h7.3v2.1h-9.5V16.7z"/>
<path class="st0" d="M109.8,28.3h-5.7l-1.1,3.3h-2.4l5.4-14.9h1.9l5.4,14.9H111L109.8,28.3z M109.2,26.3l-2.2-6.5l0,0l-2.2,6.5
	H109.2z"/>
<path class="st0" d="M115.7,16.7h2.3v12.8h7.3v2.1h-9.5L115.7,16.7L115.7,16.7z"/>
<path class="st0" d="M128,16.7h2.3v14.9H128V16.7z"/>
<path class="st0" d="M133.3,29.7l6.8-11h-6.5v-2h9.3v1.7L136,29.5h6.8v2.1h-9.5V29.7L133.3,29.7z"/>
<path class="st0" d="M145.8,16.7h9.5v2.1H148V23h6.2v2H148v4.4h7.3v2.1h-9.5V16.7z"/>
<g id="bw0nhp_5_">
	<g>
		<path class="st0" d="M10.6,26.5c0,0.2-0.1,0.5-0.1,0.7l0,0c0,0.1,0.1,0.1,0.1,0.2l0,0l0.1,0.1c0,0.1-0.1,0.2-0.1,0.3l0,0
			c0,0.1,0.1,0.1,0.1,0.2l0,0c0,0.1,0,0.1,0,0.2l0,0c-0.1,0.3-0.1,0.5-0.2,0.8c0.8-0.2,1.7,0.5,1.9,1.3c0.4,1.6,0.8,3.2,1.3,4.8
			c0.2,0.6,0.6,1.2,1,1.7c0.1,0.1,0.4,0.2,0.5,0.1c0.8-0.6,1.5-1.2,1.7-2.3c0-0.2,0-0.5,0-0.7c0-0.5,0-1,0-1.5c0.2,0,0.3,0,0.4-0.1
			l0,0v0.1c0.1,0.1,0.1,0.2,0.2,0.3l0,0c0.1,0,0.1,0,0.2,0l0.1,0.1C17.9,33,18,33,18,33.1l0,0c0.1,0,0.2,0,0.3,0l0,0
			c0.1,0,0.2,0,0.2,0l0,0c0.1,0,0.2,0,0.3,0l0,0c0.1,0,0.1-0.1,0.2-0.1s0.2,0,0.3,0l0,0c0.1,0,0.1,0,0.2,0s0.1,0.1,0.2,0.1l0,0V33
			c0.1,0.2,0.2,0.4,0.3,0.9c0.1-0.5,0.2-1,0.2-1.4c0.1,0,0.1,0,0.2,0c0,0.3,0.1,0.5,0.1,0.8c0.1,0.1,0.2,0.1,0.4,0.3
			c0.2-1,0.9-1,1.7-1c0.1-0.4,0.3-0.5,0.6-0.3c0.1,0.1,0.2,0,0.4,0c0.7,0.1,1.4,0.2,2.3,0.3c-0.4,0.5-0.8,0.9-1.3,1.4
			c-0.1-0.3-0.2-0.5-0.2-0.6h-0.1c0,0.2,0.1,0.5,0.1,0.7c1-0.1,1.2-1,1.9-1.5c0.4,0.9,0.1,1.6-0.1,2.4c0,0.1-0.1,0.2-0.1,0.3
			c-0.3,0.8-0.5,0.9-1.4,0.8c-0.2,0-0.4,0-0.6-0.1c0-0.1-0.1-0.1-0.1-0.2l0,0c-0.1,0.1-0.1,0.1-0.2,0.2l0,0c-0.3-0.1-0.7-0.2-1-0.2
			c0.1-0.3,0.3-0.6,0.4-0.9c0-0.1,0.1-0.2,0.1-0.4c-0.7,0.3-1.3,0.5-1.9,0.7c-0.2-0.8-0.8-0.1-1.1-0.5c0.1-0.2,0.2-0.4,0.3-0.7
			c-0.6,0.2-0.8,0.4-0.7,1.1c0.3,0.9,0.6,1.6,1.2,2.3c0.6,0.5,1.2,0.8,2,0.8c-1.2-0.1-2.3-0.1-3.5-0.2c-1.1-0.2-1.8-1-2.3-2
			c-0.9,0.5-1.7,1.4-1.5,1.8c-0.7-0.1-0.9,0.4-1.3,0.8c-0.2,0.2-0.4,0.3-0.7,0.4c-0.1-0.2-0.2-0.4-0.2-0.7c0-0.5-0.3-0.7-0.8-0.7
			c-0.4,0.9-0.7,1.9-1.1,2.8c-0.5,1.1-1.1,2.1-2.3,2.4c-0.1,0-0.2,0-0.4,0c-0.8-0.6-1.2-1.4-1.3-2.3c-0.1-1.2-0.1-2.4-0.1-3.6
			c0-1.1,0-2.2,0.2-3.3c0.1-0.6,0.5-1.2,0.8-1.7c-0.3,0.6-0.3,0.7,0.3,0.7c-0.8,0.4-0.8,1.2-0.8,2c0,1.4-0.1,3,0,4.7
			c0,0.8,0.3,1.6,0.6,2.4C9,42.3,9.5,42.4,10,42c0.4-0.4,0.8-0.9,1.1-1.4c0.4-1,0.8-2,1.1-3c0.1-0.2,0-0.5-0.2-0.7
			c-0.6-0.8-1.2-1.7-1.2-2.8c0-0.2-0.1-0.5-0.2-0.8c0.5,0.1,1,0.3,1.4,0.4c0.5,0.1,0.6,0,0.5-0.5c-0.2-0.9-0.4-1.8-0.7-2.6
			c-0.2-0.7-1.3-1.2-2-0.9c-0.7,0.3-1.5,0.6-2.2,0.8c-0.4,0.1-0.5,0.1-0.6-0.3c-0.1-0.8-0.2-1.6-0.3-2.4c0-0.1,0.2-0.4,0.3-0.4
			c0.7-0.3,1.5-0.5,2.3-0.8c0.3-0.1,0.7-0.2,1-0.3C10.5,26.3,10.6,26.4,10.6,26.5L10.6,26.5z"/>
		<path class="st0" d="M26.7,22.9c-0.8,0.7-1.6,1.5-2.4,2.2c-0.1,0.1-0.1,0.1-0.2,0.2c-0.1-0.2-0.1-0.4-0.2-0.8
			c-0.2,0.2-0.4,0.4-0.6,0.6s-0.3,0.3-0.5,0.5c0,0-0.1-0.1-0.2-0.1c0.1-0.7-0.2-1.1-0.8-1.2c-0.1,0-0.2-0.1-0.3-0.2
			c-0.6-0.3-1.5,0-1.7,0.7c-0.6,0-0.7,0.5-0.9,0.9c-0.2,0.5-0.3,1,0.2,1.4c0.1,0.1,0.2,0.2,0.3,0.3c-0.6-0.2-0.9-0.7-1-1.3
			c0-0.2-0.1-0.5-0.2-0.7c-0.7-1.1-0.6-2.2,0.5-3.1c0,0.3,0,0.5,0,0.8L18.6,23c0.4-0.7,0.8-1.3,1.2-2.1c-0.2-0.1-0.5-0.3-0.8-0.6
			c-0.5-0.4-0.8-0.9-0.8-1.5c0-0.9-0.2-1.8-0.2-2.7c0-0.8,0.5-1.4,1.2-1.9c0.2-0.2,0.5-0.3,0.4-0.6l0,0c0.2,0,0.4,0.1,0.6,0.1
			c0,1,0,2.1,0.4,3c-0.4,0.4-0.9,0.8-1.4,1.2c-0.5,0.4-0.8,1.1-0.4,1.6c0.3,0.5,0.9,0.9,1.4,1.2c0.1,0.1,0.5-0.1,0.6-0.2
			c0.1,1,0.1,1.9,0.2,3.1c0.4-0.1,0.7-0.3,1-0.4c0.5-0.2,1-0.4,1.6-0.1C24.5,23.7,25.6,23.4,26.7,22.9z"/>
		<path class="st0" d="M22.4,28.5c1.2,0,2.5,0,3.8,0c-0.1,0.3-0.2,0.3-0.2,0.4c0.8,0.5,1.6,1.1,2.4,1.6c0.1,0.1,0.4,0.1,0.5,0.1
			c1.5-0.7,3-1.3,4.2-2.5c0.9-1,1.4-2.2,0.9-3.6c-0.6-1.4-1.7-2.1-3.1-2.2c-0.5,0-1.1,0.2-1.6,0.4c-0.6,0.2-1.1,0.3-1.8,0.1
			c-0.3-0.1-0.6,0.1-0.8,0.1c-0.5-0.1-0.9-0.4-1.4,0.2c-0.1,0.2-0.6,0.1-0.9,0.1c-0.1-0.9-0.1-1.8-0.2-2.5c0.7,0.5,1.3,1.1,2,1.5
			c0.2,0.1,0.6,0,1,0l0,0c0.1,0,0.1,0,0.2,0c0.7,0.6,1.4,0.3,2-0.1c1.4-0.9,4.2,0.1,5,1.9c0.7,1.6,0.2,3.7-1.3,4.8
			c-1.2,0.8-2.4,1.4-3.7,2.1c-0.4,0.2-0.9,0.2-1.4,0.3c-0.5,0.1-0.9,0.4-1.4,0.6c-1-0.5-1.8-1.5-3.3-1.6
			C23,29.8,22.7,29.1,22.4,28.5z"/>
		<path class="st0" d="M10.3,21.2c0,0.3-0.1,0.5-0.1,0.8c0,0,0,0,0.1,0.1c0.1-0.2,0.2-0.4,0.3-0.6c1.7,0.9,2.1,2.2,1.1,3.4
			c-0.7-0.7-1.5-1-2.5-1.2c-0.2,0-0.5,0.1-0.7,0.2c-0.7,0.4-1.4,0.6-2.1,0.6s-1.1-0.3-1.1-1.1c-0.1-0.7-0.2-1.4-0.2-2.2
			c0.5,0.6,1.1,0.8,1.8,0.6c0.2-0.1,0.3-0.3,0.5-0.4c0.1-0.1,0.3-0.1,0.5-0.2c0-0.2-0.1-0.2-0.2-0.4c0.4,0.1,0.6,0.2,1,0.3
			c0.2-0.2,0.5-0.6,0.9-0.9c0.1-0.1,0.3-0.2,0.5-0.3h0.1c0,0.1,0,0.1,0,0.2l0,0c0,0.1,0,0.2,0,0.2l0,0c0,0.1,0,0.2,0,0.3l0,0
			c0,0.1,0,0.2,0,0.3l0,0c0,0.1,0,0.2,0,0.3l0,0c0,0.1,0,0.2,0,0.3l0,0C10.2,21.1,10.3,21.2,10.3,21.2z"/>
		<path class="st0" d="M2.6,16.9c0.5,0.9,1.1,1.1,2.5,0.8c0-0.3,0-0.7,0-0.9c-0.3-0.2-0.6-0.4-0.9-0.5c0-0.1,0.1-0.1,0.1-0.2
			c0.2,0,0.4,0,0.6,0c-0.1-0.1-0.2-0.2-0.3-0.4c1.4-0.5,2.7-0.5,4,0.3c1,0.6,1.3,1.6,1.2,2.9c-0.5-0.7-1.1-1.1-1.8-1.3
			c-0.7-0.2-1.5-0.3-2.3,0c0.5,0.3,1.1-0.2,1.4,0.6c-0.3,0.1-0.6,0.2-0.9,0.3c-0.6,0.3-1.3,0.7-1.9,1c-0.7,0.3-0.9,0.2-1-0.5
			c-0.1-0.5-0.3-1-0.5-1.4C2.7,17.3,2.6,17.1,2.6,16.9z"/>
		<path class="st0" d="M27.2,22.2C27.2,22.2,27.2,22.3,27.2,22.2c-0.2,0-0.5,0-0.7,0c0.2-1,0.2-1.8-0.2-2.7
			c-0.4-0.9-1.1-1.3-2.1-1.4c0.2-0.6,0.5-0.9,1.1-0.9c1.1-0.1,2.3,1,2.6,2.2C28.1,20.5,27.7,21.4,27.2,22.2z"/>
		<path class="st0" d="M19.4,13.7c-1.5-0.1-2.4-1-2.5-2.4c-0.1-0.9,0.1-1.5,0.6-2.2c0.3-0.4,0.6-0.8,0.9-1.2c0.7-0.9,1-2,1-3.1
			c0-0.5,0-1,0-1.6c0-0.1,0.1-0.2,0.2-0.3c0.1,0.1,0.2,0.2,0.2,0.3c0.1,2,0.1,3.9-1.4,5.5c-0.6,0.7-0.8,1.6-1,2.4
			c-0.2,1,0.3,1.8,1.2,2.2C18.9,13.5,19.1,13.6,19.4,13.7L19.4,13.7z"/>
		<path class="st0" d="M20.6,27.9c0.6,0.2,1.2,0.4,1.8,0.6c-0.6-0.3-1.1,0-1.7,0.1c-1.2,0.2-2.3,0.6-3.3,1.3c-1.4,1.1-2.6,2.4-3.3,4
			c-0.1,0.2-0.2,0.3-0.3,0.4c0.2-1.8,1.3-3,2.5-4.2c1.3-1.2,2.7-2,4.5-2.1C20.7,28,20.7,27.9,20.6,27.9z"/>
		<path class="st0" d="M8.8,31.5c0.4-0.4,0.8-0.8,1.2-1.1c0.2-0.1,0.3-0.3,0.5-0.3c0.3-0.1,0.7-0.1,0.9,0s0.1,0.6,0,0.9
			c-0.1,0.6-0.4,1.1-1.2,0.9c-0.1,0-0.3,0.1-0.4,0.1c0.2-0.1,0.5-0.3,0.7-0.5c-0.6-0.7-0.6-0.7-1.3-0.3C9.1,31.3,8.9,31.4,8.8,31.5z
			"/>
		<path class="st0" d="M24,19.2c-0.6,0.2-1.1,0.3-1.6,0.5c-0.1-1.2,0.9-1.5,1.6-2.1c-0.1,0.3-0.1,0.4-0.1,0.6s-0.1,0.4-0.1,0.6
			C23.8,18.9,23.9,19,24,19.2z"/>
		<path class="st0" d="M8.8,31.5c0.1-0.1,0.3-0.2,0.4-0.2c0.7-0.5,0.8-0.5,1.3,0.3c-0.2,0.2-0.5,0.3-0.7,0.5
			c-0.3,0.1-0.6,0.3-0.9,0.4c-0.6-0.1-0.6-0.2-0.3-0.7C8.7,31.6,8.7,31.6,8.8,31.5z"/>
		<path class="st0" d="M23.6,12c-0.6,0.3-1.1,0.5-1.6,0.7c-0.1-0.3-0.2-0.6-0.3-0.9C22,11.5,22.5,11.5,23.6,12z"/>
		<path class="st0" d="M17.9,32.2c0.6,0,1.3,0,2.1,0c-0.2,0.3-0.3,0.5-0.4,0.7l0.1-0.1l0,0c-0.1-0.1-0.1-0.1-0.2-0.2l0,0
			c-0.1,0-0.2,0-0.3,0l0,0c-0.1,0-0.2,0-0.3,0c-0.1-0.1-0.1-0.1-0.2-0.2l0,0c-0.1,0.1-0.2,0.1-0.3,0.2c-0.1,0-0.1,0-0.2,0l0,0
			c-0.1,0-0.2,0-0.4,0l0,0c0,0,0-0.1-0.1-0.1l0,0C17.9,32.3,17.9,32.2,17.9,32.2L17.9,32.2z"/>
		<path class="st0" d="M25.3,21.5c-0.4-0.6-0.8-1.1-1.2-1.7c0.1,0,0.1-0.1,0.2-0.1c0.6,0.4,1,1,1.2,1.7
			C25.4,21.4,25.3,21.4,25.3,21.5z"/>
		<path class="st0" d="M17.9,32.2L17.9,32.2c-0.1,0.1-0.1,0.1-0.1,0.2l0,0c-0.1,0-0.2,0-0.2,0l0,0v-0.1l0,0l0,0l-0.1,0.1l0,0l0,0
			C17.4,31.9,17.6,32,17.9,32.2z"/>
		<path class="st0" d="M10.2,19.3c0.1,0.1,0.1,0.3,0.2,0.5l0,0l-0.1-0.1l-0.1-0.1l0,0v-0.1l0,0C10.2,19.4,10.2,19.4,10.2,19.3
			C10.2,19.4,10.2,19.3,10.2,19.3L10.2,19.3z"/>
		<path class="st0" d="M24,35.8c0,0.1,0.1,0.1,0.1,0.2l0,0l0,0C24,35.9,24,35.9,24,35.8z"/>
		<path class="st0" d="M24,36c-0.1,0-0.2,0-0.3,0l0,0h0.1C23.9,36,24,36,24,36z"/>
		<path class="st0" d="M24,36h-0.1l0,0H24L24,36L24,36z"/>
		<path class="st0" d="M19.5,32.9L19.5,32.9L19.5,32.9C19.5,33,19.5,33,19.5,32.9L19.5,32.9C19.5,32.9,19.5,32.8,19.5,32.9
			c0-0.1,0-0.1,0.1-0.1C19.6,32.8,19.6,32.8,19.5,32.9z"/>
		<path class="st0" d="M10.4,20L10.4,20h-0.1l0,0v-0.1l0,0C10.3,19.9,10.4,20,10.4,20z"/>
		<path class="st0" d="M10.3,21.2c-0.1,0-0.1,0-0.2-0.1C10.2,21.1,10.2,21.2,10.3,21.2L10.3,21.2L10.3,21.2z"/>
		<path class="st0" d="M10.4,21.1C10.4,21.2,10.3,21.2,10.4,21.1l-0.1,0.1v-0.1C10.3,21.1,10.4,21.1,10.4,21.1z"/>
		<path class="st0" d="M10.4,21.1L10.3,21l0,0v-0.1c0,0,0.1,0,0.1-0.1C10.4,21,10.4,21.1,10.4,21.1z"/>
		<path class="st0" d="M10.4,20.9c-0.1,0-0.1,0-0.1,0.1l0,0v-0.1C10.3,20.9,10.4,20.9,10.4,20.9L10.4,20.9z"/>
		<path class="st0" d="M10.4,20.9c0,0-0.1,0-0.1-0.1l0,0v-0.1l0,0h0.1l0,0C10.4,20.8,10.4,20.8,10.4,20.9z"/>
		<path class="st0" d="M10.5,20.5c0,0.1-0.1,0.1-0.1,0.2l0,0v-0.1C10.4,20.6,10.5,20.6,10.5,20.5z"/>
		<path class="st0" d="M10.5,20.5c0,0-0.1,0-0.1,0.1l0,0v-0.1H10.5L10.5,20.5z"/>
		<path class="st0" d="M10.5,20.6l-0.1-0.1l0,0v-0.1l0,0C10.4,20.4,10.5,20.5,10.5,20.6z"/>
		<path class="st0" d="M10.4,20.2v0.1l0,0h-0.1l0,0v-0.1C10.3,20.2,10.4,20.2,10.4,20.2z"/>
		<path class="st0" d="M10.4,20.2h-0.1l0,0v-0.1h0.1V20.2z"/>
		<path class="st0" d="M10.4,20.1h-0.1H10.4c-0.1,0-0.1,0-0.1-0.1c0,0,0.1,0,0.1-0.1C10.4,20,10.4,20.1,10.4,20.1z"/>
		<path class="st0" d="M10,19.5c0-0.1,0.1-0.1,0.1-0.2l0,0v0.1l0,0C10.1,19.5,10.1,19.5,10,19.5z"/>
		<path class="st0" d="M10,19.5l0.1-0.1c0,0.1,0,0.1,0,0.1S10.1,19.5,10,19.5L10,19.5z"/>
		<path class="st0" d="M10,19.5l0.1,0.1l0,0v0.1c-0.1,0-0.1,0.1-0.2,0.1C10,19.7,10,19.6,10,19.5z"/>
		<path class="st0" d="M10.7,28.2L10.7,28.2L10.7,28.2z"/>
		<path class="st0" d="M10,19.8c0.1,0,0.1-0.1,0.2-0.1l0,0v0.1l0,0C10.1,19.8,10.1,19.8,10,19.8L10,19.8z"/>
		<path class="st0" d="M10.7,27.9V28l0,0C10.8,28,10.8,28,10.7,27.9L10.7,27.9z"/>
		<path class="st0" d="M10.6,27.9L10.6,27.9c0,0,0.1,0,0.1,0.1l0,0C10.7,27.9,10.7,27.9,10.6,27.9z"/>
		<path class="st0" d="M10.7,27.5l-0.1-0.1C10.7,27.5,10.7,27.5,10.7,27.5L10.7,27.5z"/>
		<path class="st0" d="M10.8,27.5c0,0-0.1,0-0.1-0.1l0,0v-0.1l0,0C10.7,27.4,10.7,27.5,10.8,27.5z"/>
		<path class="st0" d="M10.5,27.3L10.5,27.3c0,0,0.1,0,0.1,0.1l0,0C10.6,27.3,10.5,27.3,10.5,27.3z"/>
		<path class="st0" d="M10.6,26.5L10.6,26.5C10.6,26.6,10.6,26.5,10.6,26.5z"/>
		<path class="st0" d="M10.4,20c0,0-0.1,0-0.1-0.1v-0.1h0.1l0,0C10.4,19.8,10.4,19.9,10.4,20z"/>
		<path class="st0" d="M18.2,33L18.2,33c0,0-0.1-0.1-0.2-0.1l0,0l-0.1-0.1v-0.1l0,0c0.1,0,0.2,0,0.2,0l0,0l0.1,0.1
			C18.3,32.9,18.3,33,18.2,33z"/>
		<path class="st0" d="M17.7,32.8c-0.1,0-0.1,0-0.2,0c0-0.1,0-0.2,0.1-0.3c0.1,0,0.2-0.1,0.2-0.2c0,0,0,0.1,0.1,0.1
			c0,0.1,0,0.1-0.1,0.2l0,0C17.8,32.7,17.8,32.8,17.7,32.8L17.7,32.8z"/>
		<path class="st0" d="M18.5,33L18.5,33c0-0.1,0-0.2-0.1-0.2c0.1,0,0.2,0,0.2,0v0.1l0,0C18.6,33,18.5,33,18.5,33z"/>
		<path class="st0" d="M19.2,32.9c-0.1,0-0.2,0-0.3,0l0,0v-0.1C19,32.8,19.1,32.8,19.2,32.9C19.2,32.9,19.2,32.9,19.2,32.9z"/>
		<path class="st0" d="M18.4,32.8c0,0.1,0.1,0.2,0.1,0.2c-0.1,0-0.2,0-0.2,0S18.3,32.9,18.4,32.8h-0.1H18.4L18.4,32.8z"/>
		<path class="st0" d="M17.4,32.5C17.4,32.4,17.4,32.4,17.4,32.5L17.4,32.5l0.1-0.1l0,0c0,0.1,0,0.2,0,0.2l0,0
			C17.5,32.5,17.4,32.5,17.4,32.5z"/>
		<path class="st0" d="M17.4,32.5c0,0,0.1,0,0.1,0.1s0,0.2,0.1,0.3C17.5,32.7,17.4,32.6,17.4,32.5z"/>
		<path class="st0" d="M17.6,32.8c0-0.1,0-0.2-0.1-0.3l0,0h0.1l0,0C17.6,32.7,17.6,32.8,17.6,32.8L17.6,32.8L17.6,32.8z"/>
		<path class="st0" d="M18.1,32.9c0.1,0,0.1,0.1,0.2,0.1C18.2,33,18.1,33,18.1,32.9C18,33,18.1,33,18.1,32.9z"/>
		<path class="st0" d="M18.5,33c0.1,0,0.1-0.1,0.2-0.1c0,0,0,0.1,0.1,0.1C18.6,33.1,18.6,33.1,18.5,33z"/>
		<path class="st0" d="M18.7,33.1c0,0,0-0.1-0.1-0.1l0,0L18.7,33.1C18.8,33,18.7,33,18.7,33.1L18.7,33.1z"/>
		<path class="st0" d="M18.7,33.1c0,0,0-0.1,0.1-0.1l0,0h0.1l0,0C18.8,33,18.8,33,18.7,33.1z"/>
		<path class="st0" d="M19.6,33c-0.1,0-0.1-0.1-0.2-0.1l0,0h0.1l0,0C19.5,32.9,19.5,33,19.6,33z"/>
		<path class="st0" d="M19.6,33l-0.1-0.1C19.5,33,19.5,33,19.6,33L19.6,33z"/>
		<path class="st0" d="M23.9,35.9h-0.1c0.1-0.1,0.1-0.1,0.2-0.2C23.9,35.9,23.9,35.9,23.9,35.9L23.9,35.9z"/>
		<path class="st0" d="M23.9,36c0-0.1,0.1-0.1,0.1-0.2l0,0c0,0.1,0,0.1,0.1,0.2C24,36,23.9,36,23.9,36z"/>
		<path class="st0" d="M19.2,32.9c0-0.1,0-0.1-0.1-0.1l0,0L19.2,32.9C19.2,32.8,19.2,32.9,19.2,32.9L19.2,32.9z"/>
		<path class="st0" d="M19.2,32.9c0,0,0-0.1,0.1-0.1l0,0h0.1v0.1l0,0C19.3,32.9,19.2,32.9,19.2,32.9z"/>
		<path class="st0" d="M17.8,32.9l-0.1-0.1l0,0L17.8,32.9L17.8,32.9C17.8,32.8,17.8,32.9,17.8,32.9L17.8,32.9z"/>
		<path class="st0" d="M18,33.1c0-0.1-0.1-0.1-0.2-0.2l0,0h0.1l0,0C18,33,18,33,18,33.1z"/>
		<path class="st0" d="M18,33.1c0-0.1,0-0.1,0-0.2h0.1l0,0C18.1,33,18,33,18,33.1L18,33.1z"/>
		<path class="st0" d="M10.6,27.9c0,0,0.1,0,0.1,0.1v0.1C10.7,28,10.7,27.9,10.6,27.9z"/>
		<path class="st0" d="M10.5,27.3c0,0,0.1,0,0.1,0.1v0.1C10.6,27.4,10.5,27.3,10.5,27.3z"/>
		<path class="st0" d="M19.7,24.8c0.2-0.7,1.2-1,1.7-0.7c0.1,0.1,0.2,0.2,0.3,0.2c0.7,0.1,0.9,0.5,0.8,1.2c0.1,0,0.1,0.1,0.2,0.1
			c0.2-0.2,0.3-0.3,0.5-0.5s0.4-0.4,0.6-0.6c0.1,0.4,0.2,0.6,0.2,0.8l0,0c-0.1,0.1-0.3,0.1-0.4,0.2C22.2,26.1,20.9,25.8,19.7,24.8
			L19.7,24.8L19.7,24.8z"/>
		<path class="st0" d="M19.7,24.8c1.2,0.9,2.5,1.2,3.9,0.7c0.1-0.1,0.3-0.1,0.4-0.2c-0.3,0.3-0.7,0.6-1,1s-0.6,0.8-0.9,1.2
			c-0.5-0.1,0.1-0.5,0.1-0.6c-0.4-0.1-0.9,0-1.1-0.2C20.4,26.2,19.9,25.7,19.7,24.8z"/>
		<path class="st0" d="M10.3,21.1v0.1c0,0-0.1,0-0.1-0.1l0,0C10.2,21.1,10.2,21.1,10.3,21.1L10.3,21.1z"/>
		<path class="st0" d="M10.3,21.1c0,0-0.1,0-0.1,0.1c0-0.1,0-0.2,0-0.3C10.3,20.9,10.3,21,10.3,21.1L10.3,21.1
			C10.3,21,10.3,21,10.3,21.1z"/>
		<path class="st0" d="M10.3,21l-0.1-0.1l0,0c0,0,0.1,0,0.1-0.1l0,0C10.3,20.9,10.3,20.9,10.3,21z"/>
		<path class="st0" d="M10.3,20.8c0,0-0.1,0-0.1,0.1c0-0.1,0-0.2,0-0.3C10.3,20.6,10.3,20.6,10.3,20.8
			C10.3,20.8,10.3,20.8,10.3,20.8z"/>
		<path class="st0" d="M10.3,20.7c0,0-0.1,0-0.1-0.1l0,0l0.1-0.1C10.3,20.6,10.3,20.7,10.3,20.7L10.3,20.7z"/>
		<path class="st0" d="M10.3,20.6c0,0-0.1,0-0.1,0.1c0-0.1,0-0.2,0-0.3C10.3,20.4,10.3,20.4,10.3,20.6
			C10.3,20.5,10.3,20.6,10.3,20.6L10.3,20.6z"/>
		<path class="st0" d="M10.3,20.5c0,0-0.1,0-0.1-0.1l0,0c0,0,0.1,0,0.1-0.1l0,0C10.3,20.4,10.3,20.4,10.3,20.5L10.3,20.5z"/>
		<path class="st0" d="M10.3,20.4c0,0-0.1,0-0.1,0.1c0-0.1,0-0.2,0-0.3C10.3,20.2,10.3,20.2,10.3,20.4L10.3,20.4
			C10.3,20.3,10.3,20.3,10.3,20.4z"/>
		<path class="st0" d="M10.3,20.3l-0.1-0.1l0,0c0,0,0.1,0,0.1-0.1l0,0C10.3,20.2,10.3,20.2,10.3,20.3z"/>
		<path class="st0" d="M10.3,20.1c0,0-0.1,0-0.1,0.1c0-0.1,0-0.2,0-0.2C10.3,20,10.3,20,10.3,20.1L10.3,20.1
			C10.3,20.1,10.3,20.1,10.3,20.1z"/>
		<path class="st0" d="M10.3,19.8v0.1l0,0c-0.1,0-0.1,0-0.2,0.1C10.1,19.9,10.2,19.8,10.3,19.8h-0.1C10.2,19.8,10.2,19.8,10.3,19.8
			L10.3,19.8z"/>
		<path class="st0" d="M10.1,20c0.1,0,0.1,0,0.2-0.1V20C10.2,20,10.2,20,10.1,20L10.1,20z"/>
		<path class="st0" d="M17.8,32.4c-0.1,0.1-0.2,0.1-0.2,0.2l0,0c0-0.1,0.1-0.2,0.1-0.2l0,0C17.8,32.4,17.8,32.4,17.8,32.4L17.8,32.4
			z"/>
		<path class="st0" d="M18.9,32.6c0.1,0,0.2,0,0.3,0c0,0.1,0,0.1-0.1,0.2c-0.1,0-0.2,0-0.3,0C18.9,32.7,18.9,32.6,18.9,32.6
			L18.9,32.6z"/>
		<path class="st0" d="M18.4,32.6c0.1-0.1,0.2-0.1,0.3-0.2c0,0.1,0,0.1-0.1,0.2C18.6,32.6,18.5,32.6,18.4,32.6L18.4,32.6z"/>
		<path class="st0" d="M18.2,32.7c-0.1,0-0.2,0-0.2,0c0-0.1,0-0.1-0.1-0.2c0.1,0,0.2,0,0.4,0C18.2,32.6,18.2,32.7,18.2,32.7z"/>
		<path class="st0" d="M19.4,32.6c0.1,0.1,0.1,0.1,0.2,0.2c-0.1,0-0.1-0.1-0.2-0.1V32.6z"/>
		<path class="st0" d="M19.4,32.6c0,0,0,0.1,0.1,0.1l0,0L19.4,32.6L19.4,32.6C19.4,32.7,19.4,32.6,19.4,32.6L19.4,32.6z"/>
		<path class="st0" d="M19.4,32.6c0,0,0,0.1-0.1,0.1h-0.1l0,0c0-0.1,0-0.1-0.1-0.2C19.3,32.6,19.3,32.6,19.4,32.6z"/>
		<path class="st0" d="M19.2,32.5c0,0.1,0.1,0.1,0.1,0.2h-0.1l0,0C19.2,32.6,19.2,32.6,19.2,32.5L19.2,32.5z"/>
		<path class="st0" d="M18.2,32.5c0.1,0,0.1,0,0.2,0l0,0v0.1l0,0h-0.1l0,0C18.3,32.7,18.3,32.6,18.2,32.5z"/>
		<path class="st0" d="M18.2,32.5c0,0.1,0,0.1,0.1,0.2h-0.1l0,0C18.2,32.7,18.2,32.6,18.2,32.5L18.2,32.5z"/>
		<path class="st0" d="M17.9,32.5c0,0.1,0,0.1,0.1,0.2l0,0h-0.1C17.9,32.6,17.9,32.6,17.9,32.5L17.9,32.5z"/>
		<path class="st0" d="M19.5,32.7c0.1,0,0.1,0.1,0.2,0.1l0,0C19.6,32.8,19.6,32.8,19.5,32.7L19.5,32.7L19.5,32.7L19.5,32.7z"/>
		<path class="st0" d="M18.7,32.4c0.1,0.1,0.1,0.1,0.2,0.2l0,0h-0.1C18.7,32.5,18.7,32.5,18.7,32.4z"/>
		<path class="st0" d="M18.7,32.4c0,0.1,0,0.1,0.1,0.2l0,0h-0.1l0,0C18.7,32.5,18.7,32.5,18.7,32.4L18.7,32.4L18.7,32.4z"/>
		<path class="st0" d="M17.8,32.4c0,0-0.1,0-0.1-0.1s0.1-0.1,0.1-0.2C17.8,32.2,17.8,32.3,17.8,32.4z"/>
		<path class="st0" d="M17.7,32.3c0,0.1-0.1,0.2-0.1,0.2h-0.1c0-0.1,0-0.2,0-0.2C17.6,32.3,17.7,32.3,17.7,32.3z"/>
		<path class="st0" d="M17.5,32.4h-0.1H17.5L17.5,32.4C17.5,32.3,17.5,32.3,17.5,32.4z"/>
		<path class="st0" d="M17.5,32.2L17.5,32.2L17.5,32.2z"/>
		<path class="st0" d="M10.2,19.5c0-0.1,0-0.1,0-0.1C10.2,19.3,10.2,19.4,10.2,19.5C10.2,19.4,10.2,19.4,10.2,19.5z"/>
		<path class="st0" d="M10.2,19.7v-0.1C10.2,19.6,10.2,19.6,10.2,19.7h0.1C10.2,19.7,10.2,19.7,10.2,19.7L10.2,19.7z"/>
		<path class="st0" d="M10.4,19.8h-0.1l0,0v-0.1l0,0C10.3,19.7,10.4,19.8,10.4,19.8z"/>
		<path class="st0" d="M19.3,32.9L19.3,32.9L19.3,32.9l0.1-0.1l0,0v0.1C19.4,32.9,19.4,32.9,19.3,32.9z"/>
		<path class="st0" d="M10.3,20.7v-0.1l0,0h0.1l0,0v0.1C10.4,20.7,10.3,20.7,10.3,20.7z"/>
		<path class="st0" d="M10.4,20.6h-0.1v-0.1l0,0h0.1l0,0V20.6z"/>
		<path class="st0" d="M10.4,20.5h-0.1v-0.1h0.1V20.5z"/>
		<path class="st0" d="M10.3,19.7v0.1h-0.1v-0.1C10.2,19.7,10.2,19.7,10.3,19.7z"/>
		<path class="st0" d="M18.1,32.9H18l0,0v-0.1l0,0C18,32.9,18,32.9,18.1,32.9z"/>
		<path class="st0" d="M18.2,32.7h0.1l0,0v0.1l0,0C18.3,32.8,18.2,32.7,18.2,32.7z"/>
		<path class="st0" d="M17.8,32.7h0.1v0.1l0,0L17.8,32.7L17.8,32.7L17.8,32.7L17.8,32.7z"/>
		<path class="st0" d="M17.8,32.7L17.8,32.7l-0.1,0.1C17.8,32.8,17.8,32.7,17.8,32.7z"/>
		<path class="st0" d="M18.7,32.8c-0.1,0-0.2,0-0.2,0l0,0v-0.1l0,0C18.6,32.7,18.7,32.7,18.7,32.8L18.7,32.8
			C18.6,32.7,18.6,32.8,18.7,32.8L18.7,32.8z"/>
		<path class="st0" d="M18.8,32.9h-0.1v-0.1l0,0L18.8,32.9C18.8,32.8,18.8,32.9,18.8,32.9L18.8,32.9z"/>
		<path class="st0" d="M18.9,32.7c0.1,0,0.2,0,0.3,0l0,0v0.1l0,0C19,32.8,19,32.8,18.9,32.7L18.9,32.7L18.9,32.7L18.9,32.7z"/>
		<path class="st0" d="M18.8,32.9L18.8,32.9L18.8,32.9l0.1-0.1l0,0v0.1H18.8z"/>
		<path class="st0" d="M18.4,32.7L18.4,32.7l-0.1,0.1v-0.1H18.4z"/>
		<path class="st0" d="M19.1,32.8L19.1,32.8l0.1-0.1l0,0v0.1l0,0C19.2,32.8,19.2,32.8,19.1,32.8z"/>
		<path class="st0" d="M19.2,32.8L19.2,32.8l0.1-0.1l0,0v0.1l0,0C19.3,32.8,19.3,32.8,19.2,32.8z"/>
		<path class="st0" d="M17.8,32.8h0.1v0.1L17.8,32.8C17.8,32.9,17.8,32.8,17.8,32.8z"/>
		<path class="st0" d="M18.8,32.6h0.1v0.1l0,0C18.9,32.7,18.8,32.7,18.8,32.6L18.8,32.6C18.8,32.7,18.8,32.6,18.8,32.6L18.8,32.6z"
			/>
		<path class="st0" d="M18.7,32.7c-0.1,0-0.2,0-0.2,0v-0.1C18.6,32.6,18.7,32.6,18.7,32.7L18.7,32.7C18.7,32.6,18.7,32.7,18.7,32.7z
			"/>
		<path class="st0" d="M19.3,32.8L19.3,32.8l0.1-0.1v0.1C19.4,32.8,19.4,32.8,19.3,32.8z"/>
		<path class="st0" d="M18.7,32.7L18.7,32.7l0.1-0.1v0.1C18.7,32.7,18.7,32.7,18.7,32.7L18.7,32.7z"/>
		<path class="st0" d="M18.6,32.7h0.1l0,0v0.1l0,0L18.6,32.7L18.6,32.7z"/>
		<path class="st0" d="M18.8,32.8L18.8,32.8l0.1-0.1v0.1H18.8z"/>
	</g>
</g>
</svg>
