<?xml version="1.0" encoding="utf-8"?>
<svg version="1.1" id="Layer_1" data-name="Layer 1" xmlns="http://www.w3.org/2000/svg" width="229.05" height="320.21" viewBox="0 0 229.05 320.21">
<style type="text/css">
	.st0{fill:none;stroke:#000000;stroke-width:0.25;stroke-linecap:round;stroke-linejoin:round;}
</style>
<title>breactor_outline_wht</title>
<g>
	<path class="st0" d="M88,297c0,1.1-1.7,0.9-1.8-0.2c0-0.5,0.5-0.8,0.9-0.7C87.6,296.2,87.9,296.5,88,297z"/>
	<path class="st0" d="M211.7,24c22.6,17,17.6,36.9-5,51c-17.3,10.8-41.1,16.3-60.7,18.6c-20.8,2.5-43,2.2-63.8-0.8
		C63.1,90,38.7,83.7,22.5,71.5c-22.6-17-17.6-36.9,5-51C44.9,9.7,68.6,4.2,88.2,1.9c20.8-2.5,43-2.2,63.8,0.8
		C171.1,5.5,195.5,11.8,211.7,24z"/>
	<line class="st0" x1="226.3" y1="48" x2="226.3" y2="160.1"/>
	<line class="st0" x1="7.9" y1="160.1" x2="7.9" y2="48.8"/>
	<path class="st0" d="M222.6,172.5c-2.6,4.2-5.9,7.5-9.7,10.6c-5.1,4-10.6,7.1-16.5,9.8c-10.3,4.7-21,7.8-32,10.2
		c-21.6,4.5-45.1,5.7-67,3.9c-21-1.7-45.7-6.5-64.8-16.7c-5.6-3-10.8-6.4-15.4-10.9c-3.6-3.6-6.4-7.3-8.1-12.1
		c-4.1-12,3-22.3,11.5-29.3"/>
	<path class="st0" d="M222.6,147.8c-2.6-4.2-5.9-7.5-9.7-10.6c-5.1-4-10.6-7.1-16.5-9.8c-10.3-4.7-21-7.8-32-10.2
		c-21.6-4.5-45.1-5.7-67-3.9c-21,1.7-45.7,6.5-64.8,16.7c-5.6,3-10.8,6.4-15.4,10.9c-3.6,3.6-6.4,7.3-8.1,12.1
		c-4.1,12,3,22.3,11.5,29.3"/>
	<path class="st0" d="M213.6,137.9c10.8,8.9,17.3,21.1,9,34.6"/>
	<path class="st0" d="M222.6,284.8c-10,16.2-35.7,25.1-51.8,29.1c-19.3,4.8-40.4,6.6-60.2,6.1c-19.7-0.5-40.9-3.4-59.7-9.7
		c-9.4-3.1-19.1-7.4-27.2-13.2c-4.7-3.4-8.7-7.1-11.9-12c-2.5-4-3.9-7.8-3.9-12.6"/>
	<path class="st0" d="M226.3,272.5c0,4.6-1.3,8.4-3.7,12.3"/>
	<path class="st0" d="M89.7,224.2c0,1.1-1.7,0.9-1.8-0.2c0-0.5,0.5-0.8,0.9-0.7C89.4,223.3,89.7,223.7,89.7,224.2z"/>
	<path class="st0" d="M89.7,224.1c-0.6,0.2-1.2-0.2-1.3-0.8"/>
	<path class="st0" d="M95.1,301.1c0,1.1-1.7,0.9-1.8-0.2c0-0.5,0.5-0.8,0.9-0.7C94.7,300.2,95.1,300.6,95.1,301.1z"/>
	<path class="st0" d="M95.1,301c-0.6,0.2-1.2-0.2-1.3-0.8"/>
	<path class="st0" d="M91.5,300.7c0,1.1-1.7,0.9-1.8-0.2c0-0.5,0.5-0.8,0.9-0.7C91.1,299.9,91.5,300.3,91.5,300.7z"/>
	<path class="st0" d="M91.5,300.6c-0.6,0.2-1.2-0.2-1.3-0.8"/>
	<path class="st0" d="M98.8,298.1c0,1.1-1.8,1-1.8-0.1c0-0.5,0.5-0.8,0.9-0.8C98.4,297.2,98.7,297.6,98.8,298.1z"/>
	<path class="st0" d="M98.8,298c-0.6,0.2-1.2-0.1-1.3-0.7"/>
	<path class="st0" d="M95.1,297.8c0,1.1-1.7,0.9-1.8-0.2c0-0.5,0.5-0.8,0.9-0.7C94.7,296.9,95.1,297.3,95.1,297.8z"/>
	<path class="st0" d="M95.1,297.7c-0.6,0.2-1.2-0.2-1.3-0.8"/>
	<path class="st0" d="M91.5,297.4c0,1.1-1.7,0.9-1.8-0.2c0-0.5,0.5-0.8,0.9-0.7C91.1,296.6,91.5,296.9,91.5,297.4z"/>
	<path class="st0" d="M91.5,297.3c-0.6,0.2-1.2-0.2-1.3-0.8"/>
	<path class="st0" d="M102.4,295c-0.1,1.1-1.8,1-1.8-0.1c0-0.5,0.5-0.8,0.9-0.8C102,294.1,102.4,294.5,102.4,295z"/>
	<path class="st0" d="M102.4,294.9c-0.6,0.2-1.2-0.1-1.3-0.7"/>
	<path class="st0" d="M98.8,294.7c0,1.1-1.8,1-1.8-0.1c0-0.5,0.5-0.8,0.9-0.8C98.4,293.9,98.7,294.3,98.8,294.7z"/>
	<path class="st0" d="M98.8,294.7c-0.6,0.2-1.2-0.1-1.3-0.7"/>
	<path class="st0" d="M95.1,294.4c0,1.1-1.7,0.9-1.8-0.2c0-0.5,0.5-0.8,0.9-0.7C94.7,293.6,95.1,294,95.1,294.4z"/>
	<path class="st0" d="M95.1,294.4c-0.6,0.2-1.2-0.2-1.3-0.8"/>
	<path class="st0" d="M91.5,294.1c0,1.1-1.7,0.9-1.8-0.2c0-0.5,0.5-0.8,0.9-0.7C91.1,293.2,91.5,293.6,91.5,294.1z"/>
	<path class="st0" d="M91.5,294c-0.6,0.2-1.2-0.2-1.3-0.8"/>
	<path class="st0" d="M102.4,291.7c-0.1,1.1-1.8,1-1.8-0.1c0-0.5,0.5-0.8,0.9-0.8C102,290.8,102.4,291.2,102.4,291.7z"/>
	<path class="st0" d="M102.4,291.6c-0.6,0.2-1.2-0.1-1.3-0.7"/>
	<path class="st0" d="M98.8,291.4c0,1.1-1.8,1-1.8-0.1c0-0.5,0.5-0.8,0.9-0.8C98.4,290.6,98.7,290.9,98.8,291.4z"/>
	<path class="st0" d="M98.8,291.3c-0.6,0.2-1.2-0.1-1.3-0.7"/>
	<path class="st0" d="M95.1,291.1c0,1.1-1.7,0.9-1.8-0.2c0-0.5,0.5-0.8,0.9-0.7C94.7,290.3,95.1,290.7,95.1,291.1z"/>
	<path class="st0" d="M95.1,291c-0.6,0.2-1.2-0.2-1.3-0.8"/>
	<path class="st0" d="M91.5,290.8c0,1.1-1.7,0.9-1.8-0.2c0-0.5,0.5-0.8,0.9-0.7C91.1,289.9,91.5,290.3,91.5,290.8z"/>
	<path class="st0" d="M91.5,290.7c-0.6,0.2-1.2-0.2-1.3-0.8"/>
	<path class="st0" d="M88,300.3c0,1.1-1.7,0.9-1.8-0.2c0-0.5,0.5-0.8,0.9-0.7C87.6,299.5,87.9,299.9,88,300.3z"/>
	<path class="st0" d="M87.9,300.2c-0.6,0.2-1.2-0.2-1.3-0.8"/>
	<path class="st0" d="M84.4,299.9c0,0.5-0.5,0.8-0.9,0.7c-0.5-0.1-0.8-0.5-0.8-0.9c0-0.5,0.5-0.8,0.9-0.7
		C84.1,299,84.4,299.4,84.4,299.9z"/>
	<path class="st0" d="M84.4,299.8c-0.6,0.2-1.2-0.2-1.3-0.8"/>
	<path class="st0" d="M87.9,296.9c-0.6,0.2-1.2-0.2-1.3-0.8"/>
	<path class="st0" d="M84.4,296.6c0,0.5-0.5,0.8-0.9,0.7c-0.5-0.1-0.8-0.5-0.8-0.9c0-0.5,0.5-0.8,0.9-0.7
		C84.1,295.7,84.4,296.1,84.4,296.6z"/>
	<path class="st0" d="M84.4,296.4c-0.6,0.2-1.2-0.2-1.3-0.8"/>
	<path class="st0" d="M80.9,296.1c0,0.5-0.5,0.8-0.9,0.7c-0.5-0.1-0.8-0.5-0.8-1c0-0.5,0.5-0.8,0.9-0.7
		C80.6,295.2,80.9,295.6,80.9,296.1z"/>
	<path class="st0" d="M80.9,295.9c-0.6,0.2-1.1-0.3-1.2-0.8"/>
	<path class="st0" d="M88,293.7c0,1.1-1.7,0.9-1.8-0.2c0-0.5,0.5-0.8,0.9-0.7C87.6,292.8,87.9,293.2,88,293.7z"/>
	<path class="st0" d="M87.9,293.6c-0.6,0.2-1.2-0.2-1.3-0.8"/>
	<path class="st0" d="M84.4,293.2c0,0.5-0.5,0.8-0.9,0.7c-0.5-0.1-0.8-0.5-0.8-0.9c0-0.5,0.5-0.8,0.9-0.7
		C84.1,292.4,84.4,292.8,84.4,293.2z"/>
	<path class="st0" d="M84.4,293.1c-0.6,0.2-1.2-0.2-1.3-0.8"/>
	<path class="st0" d="M80.9,292.7c0,0.5-0.5,0.8-0.9,0.7c-0.5-0.1-0.8-0.5-0.8-1c0-0.5,0.5-0.8,0.9-0.7
		C80.6,291.9,80.9,292.3,80.9,292.7z"/>
	<path class="st0" d="M80.9,292.6c-0.6,0.2-1.1-0.3-1.2-0.8"/>
	<path class="st0" d="M77.4,292.2c0,0.5-0.5,0.8-0.9,0.7c-0.4-0.1-0.8-0.5-0.8-1c0-0.5,0.5-0.8,0.9-0.7
		C77.1,291.3,77.4,291.7,77.4,292.2z"/>
	<path class="st0" d="M77.4,292c-0.6,0.2-1.1-0.3-1.2-0.8"/>
	<path class="st0" d="M88,290.4c0,1.1-1.7,0.9-1.8-0.2c0-0.5,0.5-0.8,0.9-0.7C87.6,289.5,87.9,289.9,88,290.4z"/>
	<path class="st0" d="M87.9,290.3c-0.6,0.2-1.2-0.2-1.3-0.8"/>
	<path class="st0" d="M84.4,289.9c0,0.5-0.5,0.8-0.9,0.7c-0.5-0.1-0.8-0.5-0.8-0.9c0-0.5,0.5-0.8,0.9-0.7
		C84.1,289.1,84.4,289.5,84.4,289.9z"/>
	<path class="st0" d="M84.4,289.8c-0.6,0.2-1.2-0.2-1.3-0.8"/>
	<path class="st0" d="M80.9,289.4c0,0.5-0.5,0.8-0.9,0.7c-0.5-0.1-0.8-0.5-0.8-1c0-0.5,0.5-0.8,0.9-0.7
		C80.6,288.6,80.9,289,80.9,289.4z"/>
	<line class="st0" x1="7.9" y1="230.1" x2="7.9" y2="230.1"/>
	<line class="st0" x1="7.9" y1="216.8" x2="7.9" y2="216.8"/>
	<line class="st0" x1="7.9" y1="220.1" x2="8" y2="220.1"/>
	<line class="st0" x1="7.9" y1="223.4" x2="8" y2="223.4"/>
	<line class="st0" x1="7.9" y1="226.8" x2="8" y2="226.8"/>
	<line class="st0" x1="7.9" y1="213.5" x2="7.9" y2="213.5"/>
	<line class="st0" x1="7.9" y1="210.2" x2="7.9" y2="210.2"/>
	<line class="st0" x1="7.9" y1="206.8" x2="7.9" y2="206.9"/>
	<line class="st0" x1="7.9" y1="203.5" x2="7.9" y2="203.5"/>
	<line class="st0" x1="7.9" y1="200.2" x2="7.9" y2="200.2"/>
	<line class="st0" x1="7.9" y1="200.8" x2="7.9" y2="161"/>
	<line class="st0" x1="7.9" y1="204.1" x2="7.9" y2="202"/>
	<line class="st0" x1="7.9" y1="207.4" x2="7.9" y2="205.3"/>
	<line class="st0" x1="7.9" y1="210.8" x2="7.9" y2="210"/>
	<line class="st0" x1="7.9" y1="214.1" x2="7.9" y2="213.4"/>
	<line class="st0" x1="7.9" y1="217.4" x2="7.9" y2="216.7"/>
	<line class="st0" x1="7.9" y1="220.7" x2="7.9" y2="219.5"/>
	<line class="st0" x1="7.9" y1="224" x2="7.9" y2="222.8"/>
	<line class="st0" x1="7.9" y1="227.4" x2="7.9" y2="226.2"/>
	<line class="st0" x1="7.9" y1="230.7" x2="7.9" y2="228.6"/>
	<line class="st0" x1="7.9" y1="272.5" x2="7.9" y2="231.9"/>
	<line class="st0" x1="226.3" y1="232.5" x2="226.3" y2="272.5"/>
	<line class="st0" x1="226.3" y1="229.1" x2="226.3" y2="230.6"/>
	<line class="st0" x1="226.3" y1="225.8" x2="226.3" y2="227.3"/>
	<line class="st0" x1="226.3" y1="222.5" x2="226.3" y2="224"/>
	<line class="st0" x1="226.3" y1="219.2" x2="226.3" y2="220.7"/>
	<line class="st0" x1="226.3" y1="215.9" x2="226.3" y2="217.4"/>
	<line class="st0" x1="226.3" y1="212.5" x2="226.3" y2="214"/>
	<line class="st0" x1="226.3" y1="209.2" x2="226.3" y2="210.7"/>
	<line class="st0" x1="226.3" y1="205.9" x2="226.3" y2="207.4"/>
	<line class="st0" x1="226.3" y1="202.6" x2="226.3" y2="204.1"/>
	<line class="st0" x1="226.3" y1="160.5" x2="226.3" y2="200.8"/>
	<path class="st0" d="M80.9,289.3c-0.6,0.2-1.1-0.3-1.2-0.8"/>
	<path class="st0" d="M77.4,288.9c0,0.5-0.5,0.8-0.9,0.7c-0.4-0.1-0.8-0.5-0.8-1c0-0.5,0.5-0.8,0.9-0.7
		C77.1,288,77.4,288.4,77.4,288.9z"/>
	<path class="st0" d="M77.4,288.7c-0.6,0.2-1.1-0.3-1.2-0.8"/>
	<path class="st0" d="M84.4,276.6c0,0.5-0.5,0.8-0.9,0.7c-0.5-0.1-0.8-0.5-0.8-0.9c0-0.5,0.5-0.8,0.9-0.7
		C84.1,275.8,84.4,276.2,84.4,276.6z"/>
	<path class="st0" d="M162.6,315.8c1.7,0.4,3.4,0.4,5.2,0.1c1.2-0.2,3.8-0.8,4.5-2.2"/>
	<path class="st0" d="M165.5,315.2c2.1,0,5.1-0.4,7-1.7"/>
	<path class="st0" d="M84.4,276.5c-0.6,0.2-1.2-0.2-1.3-0.8"/>
	<path class="st0" d="M88,277.1c0,1.1-1.7,0.9-1.8-0.2c0-0.5,0.5-0.8,0.9-0.7C87.6,276.2,87.9,276.6,88,277.1z"/>
	<path class="st0" d="M87.9,277c-0.6,0.2-1.2-0.2-1.3-0.8"/>
	<path class="st0" d="M80.9,279.5c0,0.5-0.5,0.8-0.9,0.7c-0.5-0.1-0.8-0.5-0.8-1c0-0.5,0.5-0.8,0.9-0.7
		C80.6,278.6,80.9,279,80.9,279.5z"/>
	<path class="st0" d="M80.9,279.3c-0.6,0.2-1.1-0.3-1.2-0.8"/>
	<path class="st0" d="M84.4,280c0,0.5-0.5,0.8-0.9,0.7c-0.5-0.1-0.8-0.5-0.8-0.9c0-0.5,0.5-0.8,0.9-0.7
		C84.1,279.1,84.4,279.5,84.4,280z"/>
	<path class="st0" d="M84.4,279.9c-0.6,0.2-1.2-0.2-1.3-0.8"/>
	<path class="st0" d="M88,280.4c0,1.1-1.7,0.9-1.8-0.2c0-0.5,0.5-0.8,0.9-0.7C87.6,279.6,87.9,280,88,280.4z"/>
	<path class="st0" d="M87.9,280.3c-0.6,0.2-1.2-0.2-1.3-0.8"/>
	<path class="st0" d="M77.4,282.2c0,0.5-0.5,0.8-0.9,0.7c-0.4-0.1-0.8-0.5-0.8-1c0-0.5,0.5-0.8,0.9-0.7
		C77.1,281.4,77.4,281.8,77.4,282.2z"/>
	<path class="st0" d="M77.4,282.1c-0.6,0.2-1.1-0.3-1.2-0.8"/>
	<path class="st0" d="M80.9,282.8c0,0.5-0.5,0.8-0.9,0.7c-0.5-0.1-0.8-0.5-0.8-1c0-0.5,0.5-0.8,0.9-0.7
		C80.6,281.9,80.9,282.3,80.9,282.8z"/>
	<path class="st0" d="M80.9,282.7c-0.6,0.2-1.1-0.3-1.2-0.8"/>
	<path class="st0" d="M84.4,283.3c0,0.5-0.5,0.8-0.9,0.7c-0.5-0.1-0.8-0.5-0.8-0.9c0-0.5,0.5-0.8,0.9-0.7
		C84.1,282.4,84.4,282.8,84.4,283.3z"/>
	<path class="st0" d="M84.4,283.2c-0.6,0.2-1.2-0.2-1.3-0.8"/>
	<path class="st0" d="M88,283.7c0,1.1-1.7,0.9-1.8-0.2c0-0.5,0.5-0.8,0.9-0.7C87.6,282.9,87.9,283.3,88,283.7z"/>
	<path class="st0" d="M87.9,283.6c-0.6,0.2-1.2-0.2-1.3-0.8"/>
	<path class="st0" d="M77.4,285.5c0,0.5-0.5,0.8-0.9,0.7c-0.4-0.1-0.8-0.5-0.8-1c0-0.5,0.5-0.8,0.9-0.7
		C77.1,284.7,77.4,285.1,77.4,285.5z"/>
	<path class="st0" d="M77.4,285.4c-0.6,0.2-1.1-0.3-1.2-0.8"/>
	<path class="st0" d="M80.9,286.1c0,0.5-0.5,0.8-0.9,0.7c-0.5-0.1-0.8-0.5-0.8-1c0-0.5,0.5-0.8,0.9-0.7
		C80.6,285.2,80.9,285.6,80.9,286.1z"/>
	<path class="st0" d="M80.9,286c-0.6,0.2-1.1-0.3-1.2-0.8"/>
	<path class="st0" d="M84.4,286.6c0,0.5-0.5,0.8-0.9,0.7c-0.5-0.1-0.8-0.5-0.8-0.9c0-0.5,0.5-0.8,0.9-0.7
		C84.1,285.7,84.4,286.1,84.4,286.6z"/>
	<path class="st0" d="M84.4,286.5c-0.6,0.2-1.2-0.2-1.3-0.8"/>
	<path class="st0" d="M88,287.1c0,1.1-1.7,0.9-1.8-0.2c0-0.5,0.5-0.8,0.9-0.7C87.6,286.2,87.9,286.6,88,287.1z"/>
	<path class="st0" d="M87.9,287c-0.6,0.2-1.2-0.2-1.3-0.8"/>
	<path class="st0" d="M91.5,277.5c0,1.1-1.7,0.9-1.8-0.2c0-0.5,0.5-0.8,0.9-0.7C91.1,276.6,91.5,277,91.5,277.5z"/>
	<path class="st0" d="M91.5,277.4c-0.6,0.2-1.2-0.2-1.3-0.8"/>
	<path class="st0" d="M95.1,277.9c0,1.1-1.7,0.9-1.8-0.2c0-0.5,0.5-0.8,0.9-0.7C94.7,277,95.1,277.4,95.1,277.9z"/>
	<path class="st0" d="M95.1,277.8c-0.6,0.2-1.2-0.2-1.3-0.8"/>
	<path class="st0" d="M91.5,280.8c0,1.1-1.7,0.9-1.8-0.2c0-0.5,0.5-0.8,0.9-0.7C91.1,280,91.5,280.4,91.5,280.8z"/>
	<path class="st0" d="M91.5,280.7c-0.6,0.2-1.2-0.2-1.3-0.8"/>
	<path class="st0" d="M95.1,281.2c0,1.1-1.7,0.9-1.8-0.2c0-0.5,0.5-0.8,0.9-0.7C94.7,280.3,95.1,280.7,95.1,281.2z"/>
	<path class="st0" d="M95.1,281.1c-0.6,0.2-1.2-0.2-1.3-0.8"/>
	<path class="st0" d="M98.8,281.5c0,1.1-1.8,1-1.8-0.1c0-0.5,0.5-0.8,0.9-0.8C98.4,280.6,98.7,281,98.8,281.5z"/>
	<path class="st0" d="M98.8,281.4c-0.6,0.2-1.2-0.1-1.3-0.7"/>
	<path class="st0" d="M91.5,284.1c0,1.1-1.7,0.9-1.8-0.2c0-0.5,0.5-0.8,0.9-0.7C91.1,283.3,91.5,283.7,91.5,284.1z"/>
	<path class="st0" d="M91.5,284c-0.6,0.2-1.2-0.2-1.3-0.8"/>
	<path class="st0" d="M95.1,284.5c0,1.1-1.7,0.9-1.8-0.2c0-0.5,0.5-0.8,0.9-0.7C94.7,283.6,95.1,284,95.1,284.5z"/>
	<path class="st0" d="M95.1,284.4c-0.6,0.2-1.2-0.2-1.3-0.8"/>
	<path class="st0" d="M98.8,284.8c0,1.1-1.8,1-1.8-0.1c0-0.5,0.5-0.8,0.9-0.8C98.4,283.9,98.7,284.3,98.8,284.8z"/>
	<path class="st0" d="M98.8,284.7c-0.6,0.2-1.2-0.1-1.3-0.7"/>
	<path class="st0" d="M102.4,285c-0.1,1.1-1.8,1-1.8-0.1c0-0.5,0.5-0.8,0.9-0.8C102,284.2,102.4,284.6,102.4,285z"/>
	<path class="st0" d="M102.4,284.9c-0.6,0.2-1.2-0.1-1.3-0.7"/>
	<path class="st0" d="M91.5,287.5c0,1.1-1.7,0.9-1.8-0.2c0-0.5,0.5-0.8,0.9-0.7C91.1,286.6,91.5,287,91.5,287.5z"/>
	<path class="st0" d="M91.5,287.4c-0.6,0.2-1.2-0.2-1.3-0.8"/>
	<path class="st0" d="M95.1,287.8c0,1.1-1.7,0.9-1.8-0.2c0-0.5,0.5-0.8,0.9-0.7C94.7,287,95.1,287.3,95.1,287.8z"/>
	<path class="st0" d="M95.1,287.7c-0.6,0.2-1.2-0.2-1.3-0.8"/>
	<path class="st0" d="M98.8,288.1c0,1.1-1.8,1-1.8-0.1c0-0.5,0.5-0.8,0.9-0.8C98.4,287.2,98.7,287.6,98.8,288.1z"/>
	<path class="st0" d="M98.8,288c-0.6,0.2-1.2-0.1-1.3-0.7"/>
	<path class="st0" d="M102.4,288.3c-0.1,1.1-1.8,1-1.8-0.1c0-0.5,0.5-0.8,0.9-0.8C102,287.5,102.4,287.9,102.4,288.3z"/>
	<path class="st0" d="M102.4,288.3c-0.6,0.2-1.2-0.1-1.3-0.7"/>
	<path class="st0" d="M7.9,200.8c0,0.4,0,0.8,0,1.2"/>
	<path class="st0" d="M8,198.6c-0.1,0.5-0.1,1.1,0,1.6"/>
	<path class="st0" d="M7.9,204.2c0,0.4,0,0.8,0,1.2"/>
	<path class="st0" d="M8,202.1c0,0.5,0,1,0,1.5"/>
	<path class="st0" d="M7.9,209c0-0.1,0-0.2,0-0.3"/>
	<path class="st0" d="M7.9,208.7c0,0.2,0.1,1.5,0,1.7"/>
	<path class="st0" d="M7.9,210.3c0-0.4,0-0.8,0-1.2"/>
	<path class="st0" d="M7.9,207.5c0,0.4,0,0.7,0,1.1"/>
	<path class="st0" d="M8,205.4c0,0.5,0,1,0,1.5"/>
	<path class="st0" d="M7.9,212.3c0-0.1,0-0.2,0-0.3"/>
	<path class="st0" d="M7.9,212c0,0.2,0.1,1.5,0,1.7"/>
	<path class="st0" d="M7.9,213.6c0-0.4,0-0.8,0-1.2"/>
	<path class="st0" d="M7.9,210.8c0,0.4,0,0.7,0,1.1"/>
	<path class="st0" d="M7.9,215.7c0-0.1,0-0.2,0-0.3"/>
	<path class="st0" d="M7.9,215.3c0,0.2,0.1,1.5,0,1.7"/>
	<path class="st0" d="M7.9,216.9c0-0.4,0-0.8,0-1.2"/>
	<path class="st0" d="M7.9,214.1c0,0.4,0,0.7,0,1.1"/>
	<path class="st0" d="M8,231.9c0,0.2-0.1,1.5,0,1.6"/>
	<path class="st0" d="M8,228.6c0,0.5,0,1,0,1.5"/>
	<path class="st0" d="M7.9,227.4c0,0.4,0,0.8,0,1.2"/>
	<path class="st0" d="M7.9,224.1c0,0.3,0,0.7,0,1"/>
	<path class="st0" d="M7.9,220.7c0,0.3,0,0.7,0,1"/>
	<path class="st0" d="M7.9,222.3c0-0.1,0-0.3,0-0.4"/>
	<path class="st0" d="M7.9,221.8c0,0.2,0.1,1.6,0,1.8"/>
	<path class="st0" d="M7.9,222.9c0-0.2,0-0.4,0-0.7"/>
	<path class="st0" d="M7.9,217.4c0,0.3,0,0.7,0,1"/>
	<path class="st0" d="M7.9,219c0-0.1,0-0.3,0-0.4"/>
	<path class="st0" d="M7.9,218.5c0,0.2,0.1,1.6,0,1.8"/>
	<path class="st0" d="M7.9,219.6c0-0.2,0-0.4,0-0.7"/>
	<path class="st0" d="M7.9,230.7c0,0.4,0,0.8,0,1.2"/>
	<path class="st0" d="M7.9,225.6c0-0.1,0-0.3,0-0.4"/>
	<path class="st0" d="M7.9,225.2c0,0.2,0.1,1.6,0,1.8"/>
	<path class="st0" d="M7.9,226.3c0-0.2,0-0.4,0-0.7"/>
	<path class="st0" d="M224.8,196.1c0,0.3,0,0.6-0.1,0.9c0,0.1-0.1,0.5-0.2,0.3c-0.1-0.2-0.1-0.3-0.1-0.5c0-0.3,0-0.6,0.1-0.9
		c0-0.1,0.1-0.6,0.2-0.3C224.8,195.8,224.8,196,224.8,196.1z"/>
	<path class="st0" d="M225.8,196.2c0,0.2,0,0.4,0,0.7c0,0.1,0,0.2,0,0.3c0,0.1,0.1,0.2-0.1,0.3"/>
	<path class="st0" d="M225.7,195.8C225.7,195.7,225.7,195.7,225.7,195.8"/>
	<path class="st0" d="M225.7,195.7c0.1,0.2,0.1,0.3,0.1,0.5"/>
	<path class="st0" d="M76.6,281.2c0,0.2-0.1,0.3-0.1,0.5"/>
	<path class="st0" d="M77,288c0.1,0.2,0.2,0.5,0.3,0.7"/>
	<path class="st0" d="M76.3,284.6c0,0.1,0,0.2,0,0.3"/>
	<path class="st0" d="M76.9,292c-0.1-0.3-0.3-0.6-0.4-0.8"/>
	<path class="st0" d="M84.4,299.7c-0.4-0.2-0.8-0.5-1.2-0.7"/>
	<path class="st0" d="M226.1,217.4c0,0.1,0,0.1,0,0.2"/>
	<path class="st0" d="M226,217.5c0-0.1,0-0.3,0.1-0.2"/>
	<path class="st0" d="M226.1,217.9c0,0.4,0.1,0.9-0.1,1.3"/>
	<path class="st0" d="M225.7,219c0.1,0.2,0.1,0.3,0.1,0.5"/>
	<path class="st0" d="M225.6,220.6c0-0.3,0-0.6,0-0.8c0-0.1,0-0.3,0-0.4c0-0.1,0-0.1,0-0.2c0-0.1,0-0.1,0.1-0.2"/>
	<path class="st0" d="M225.8,219.5c0,0.2,0,0.4,0,0.7c0,0.1,0,0.2,0,0.3c0,0.1,0.1,0.2-0.1,0.3"/>
	<path class="st0" d="M225.3,221.1c0,0.3,0,0.6-0.1,0.9c0,0.1-0.1,0.6-0.2,0.3c-0.1-0.2,0-0.3,0-0.5c0-0.3,0-0.6,0.1-0.9
		c0-0.1,0.1-0.6,0.2-0.3C225.4,220.8,225.3,220.9,225.3,221.1z"/>
	<path class="st0" d="M224.8,222.7c0,0.3,0,0.6-0.1,0.9c0,0.1-0.1,0.5-0.2,0.3c-0.1-0.2-0.1-0.3-0.1-0.5c0-0.3,0-0.6,0.1-0.9
		c0-0.1,0.1-0.6,0.2-0.3C224.8,222.4,224.8,222.5,224.8,222.7z"/>
	<path class="st0" d="M224.1,224.3c0,0.3,0,0.6-0.1,1c0,0.1-0.1,0.5-0.2,0.3c-0.1-0.2-0.1-0.3-0.1-0.5c0-0.3,0-0.6,0.1-1
		c0-0.1,0.1-0.5,0.2-0.3C224.1,223.9,224.1,224.1,224.1,224.3z"/>
	<path class="st0" d="M223.3,225.8c0,0.3,0,0.6-0.1,1c0,0.1-0.1,0.5-0.2,0.3c-0.1-0.2-0.1-0.3-0.1-0.5c0-0.3,0-0.6,0.1-1
		c0-0.1,0.1-0.5,0.2-0.3C223.3,225.5,223.3,225.7,223.3,225.8z"/>
	<path class="st0" d="M226.1,214c0,0.1,0,0.1,0,0.2"/>
	<path class="st0" d="M226,214.2c0-0.1,0-0.3,0.1-0.2"/>
	<path class="st0" d="M226.1,214.5c0,0.4,0.1,0.9-0.1,1.3"/>
	<path class="st0" d="M225.7,215.6c0.1,0.2,0.1,0.3,0.1,0.5"/>
	<path class="st0" d="M225.6,217.3c0-0.3,0-0.6,0-0.8c0-0.1,0-0.3,0-0.4c0-0.1,0-0.1,0-0.2c0-0.1,0-0.1,0.1-0.2"/>
	<path class="st0" d="M225.8,216.2c0,0.2,0,0.4,0,0.7c0,0.1,0,0.2,0,0.3c0,0.1,0.1,0.2-0.1,0.3"/>
	<path class="st0" d="M225.3,217.8c0,0.3,0,0.6-0.1,0.9c0,0.1-0.1,0.6-0.2,0.3c-0.1-0.2,0-0.3,0-0.5c0-0.3,0-0.6,0.1-0.9
		c0-0.1,0.1-0.6,0.2-0.3C225.4,217.5,225.3,217.6,225.3,217.8z"/>
	<path class="st0" d="M224.8,219.4c0,0.3,0,0.6-0.1,0.9c0,0.1-0.1,0.5-0.2,0.3c-0.1-0.2-0.1-0.3-0.1-0.5c0-0.3,0-0.6,0.1-0.9
		c0-0.1,0.1-0.6,0.2-0.3C224.8,219,224.8,219.2,224.8,219.4z"/>
	<path class="st0" d="M224.1,220.9c0,0.3,0,0.6-0.1,1c0,0.1-0.1,0.5-0.2,0.3c-0.1-0.2-0.1-0.3-0.1-0.5c0-0.3,0-0.6,0.1-1
		c0-0.1,0.1-0.5,0.2-0.3C224.1,220.6,224.1,220.8,224.1,220.9z"/>
	<path class="st0" d="M223.3,222.5c0,0.3,0,0.6-0.1,1c0,0.1-0.1,0.5-0.2,0.3c-0.1-0.2-0.1-0.3-0.1-0.5c0-0.3,0-0.6,0.1-1
		c0-0.1,0.1-0.5,0.2-0.3C223.3,222.2,223.3,222.3,223.3,222.5z"/>
	<path class="st0" d="M226.1,210.7c0,0.1,0,0.1,0,0.2"/>
	<path class="st0" d="M226,210.9c0-0.1,0-0.3,0.1-0.2"/>
	<path class="st0" d="M226.1,211.2c0,0.4,0.1,0.9-0.1,1.3"/>
	<path class="st0" d="M225.7,212.3c0.1,0.2,0.1,0.3,0.1,0.5"/>
	<path class="st0" d="M225.6,214c0-0.3,0-0.6,0-0.8c0-0.1,0-0.3,0-0.4c0-0.1,0-0.1,0-0.2c0-0.1,0-0.1,0.1-0.2"/>
	<path class="st0" d="M225.8,212.8c0,0.2,0,0.4,0,0.7c0,0.1,0,0.2,0,0.3c0,0.1,0.1,0.2-0.1,0.3"/>
	<path class="st0" d="M225.3,214.4c0,0.3,0,0.6-0.1,0.9c0,0.1-0.1,0.6-0.2,0.3c-0.1-0.2,0-0.3,0-0.5c0-0.3,0-0.6,0.1-0.9
		c0-0.1,0.1-0.6,0.2-0.3C225.4,214.1,225.3,214.3,225.3,214.4z"/>
	<path class="st0" d="M224.8,216c0,0.3,0,0.6-0.1,0.9c0,0.1-0.1,0.5-0.2,0.3c-0.1-0.2-0.1-0.3-0.1-0.5c0-0.3,0-0.6,0.1-0.9
		c0-0.1,0.1-0.6,0.2-0.3C224.8,215.7,224.8,215.9,224.8,216z"/>
	<path class="st0" d="M224.1,217.6c0,0.3,0,0.6-0.1,1c0,0.1-0.1,0.5-0.2,0.3c-0.1-0.2-0.1-0.3-0.1-0.5c0-0.3,0-0.6,0.1-1
		c0-0.1,0.1-0.5,0.2-0.3C224.1,217.3,224.1,217.5,224.1,217.6z"/>
	<path class="st0" d="M223.3,219.2c0,0.3,0,0.6-0.1,1c0,0.1-0.1,0.5-0.2,0.3c-0.1-0.2-0.1-0.3-0.1-0.5c0-0.3,0-0.6,0.1-1
		c0-0.1,0.1-0.5,0.2-0.3C223.3,218.9,223.3,219,223.3,219.2z"/>
	<path class="st0" d="M226.1,207.4c0,0.1,0,0.1,0,0.2"/>
	<path class="st0" d="M226,207.6c0-0.1,0-0.3,0.1-0.2"/>
	<path class="st0" d="M226.1,207.9c0,0.4,0.1,0.9-0.1,1.3"/>
	<path class="st0" d="M225.7,209c0.1,0.2,0.1,0.3,0.1,0.5"/>
	<path class="st0" d="M225.6,210.6c0-0.3,0-0.6,0-0.8c0-0.1,0-0.3,0-0.4c0-0.1,0-0.1,0-0.2c0-0.1,0-0.1,0.1-0.2"/>
	<path class="st0" d="M225.8,209.5c0,0.2,0,0.4,0,0.7c0,0.1,0,0.2,0,0.3c0,0.1,0.1,0.2-0.1,0.3"/>
	<path class="st0" d="M225.3,211.1c0,0.3,0,0.6-0.1,0.9c0,0.1-0.1,0.6-0.2,0.3c-0.1-0.2,0-0.3,0-0.5c0-0.3,0-0.6,0.1-0.9
		c0-0.1,0.1-0.6,0.2-0.3C225.4,210.8,225.3,211,225.3,211.1z"/>
	<path class="st0" d="M224.8,212.7c0,0.3,0,0.6-0.1,0.9c0,0.1-0.1,0.5-0.2,0.3c-0.1-0.2-0.1-0.3-0.1-0.5c0-0.3,0-0.6,0.1-0.9
		c0-0.1,0.1-0.6,0.2-0.3C224.8,212.4,224.8,212.6,224.8,212.7z"/>
	<path class="st0" d="M224.1,214.3c0,0.3,0,0.6-0.1,1c0,0.1-0.1,0.5-0.2,0.3c-0.1-0.2-0.1-0.3-0.1-0.5c0-0.3,0-0.6,0.1-1
		c0-0.1,0.1-0.5,0.2-0.3C224.1,214,224.1,214.1,224.1,214.3z"/>
	<path class="st0" d="M223.3,215.9c0,0.3,0,0.6-0.1,1c0,0.1-0.1,0.5-0.2,0.3c-0.1-0.2-0.1-0.3-0.1-0.5c0-0.3,0-0.6,0.1-1
		c0-0.1,0.1-0.5,0.2-0.3C223.3,215.6,223.3,215.7,223.3,215.9z"/>
	<path class="st0" d="M226.1,204.1c0,0.2,0,0.3,0,0.5"/>
	<path class="st0" d="M226,204.2c0-0.1,0-0.3,0.1-0.2"/>
	<path class="st0" d="M226.1,204.6c0,0.4,0.1,0.9-0.1,1.3"/>
	<path class="st0" d="M225.7,205.7c0.1,0.2,0.1,0.3,0.1,0.5"/>
	<path class="st0" d="M225.6,207.3c0-0.3,0-0.6,0-0.8c0-0.1,0-0.3,0-0.4c0-0.1,0-0.1,0-0.2c0-0.1,0-0.1,0.1-0.2"/>
	<path class="st0" d="M225.8,206.2c0,0.2,0,0.4,0,0.7c0,0.1,0,0.2,0,0.3c0,0.1,0.1,0.2-0.1,0.3"/>
	<path class="st0" d="M225.3,207.8c0,0.3,0,0.6-0.1,0.9c0,0.1-0.1,0.6-0.2,0.3c-0.1-0.2,0-0.3,0-0.5c0-0.3,0-0.6,0.1-0.9
		c0-0.1,0.1-0.6,0.2-0.3C225.4,207.5,225.3,207.7,225.3,207.8z"/>
	<path class="st0" d="M224.8,209.4c0,0.3,0,0.6-0.1,0.9c0,0.1-0.1,0.5-0.2,0.3c-0.1-0.2-0.1-0.3-0.1-0.5c0-0.3,0-0.6,0.1-0.9
		c0-0.1,0.1-0.6,0.2-0.3C224.8,209.1,224.8,209.2,224.8,209.4z"/>
	<path class="st0" d="M224.1,211c0,0.3,0,0.6-0.1,1c0,0.1-0.1,0.5-0.2,0.3c-0.1-0.2-0.1-0.3-0.1-0.5c0-0.3,0-0.6,0.1-1
		c0-0.1,0.1-0.5,0.2-0.3C224.1,210.7,224.1,210.8,224.1,211z"/>
	<path class="st0" d="M223.3,212.6c0,0.3,0,0.6-0.1,1c0,0.1-0.1,0.5-0.2,0.3c-0.1-0.2-0.1-0.3-0.1-0.5c0-0.3,0-0.6,0.1-1
		c0-0.1,0.1-0.5,0.2-0.3C223.3,212.2,223.3,212.4,223.3,212.6z"/>
	<path class="st0" d="M226.1,200.8c0,0.2,0,0.3,0,0.5"/>
	<path class="st0" d="M226,200.9c0-0.1,0-0.3,0.1-0.2"/>
	<path class="st0" d="M226.1,201.3c0,0.4,0.1,0.9-0.1,1.3"/>
	<path class="st0" d="M225.7,202.4c0.1,0.2,0.1,0.3,0.1,0.5"/>
	<path class="st0" d="M225.6,204c0-0.3,0-0.6,0-0.8c0-0.1,0-0.3,0-0.4c0-0.1,0-0.1,0-0.2c0-0.1,0-0.1,0.1-0.2"/>
	<path class="st0" d="M225.8,202.9c0,0.2,0,0.4,0,0.7c0,0.1,0,0.2,0,0.3c0,0.1,0.1,0.2-0.1,0.3"/>
	<path class="st0" d="M225.3,204.5c0,0.3,0,0.6-0.1,0.9c0,0.1-0.1,0.6-0.2,0.3c-0.1-0.2,0-0.3,0-0.5c0-0.3,0-0.6,0.1-0.9
		c0-0.1,0.1-0.6,0.2-0.3C225.4,204.2,225.3,204.3,225.3,204.5z"/>
	<path class="st0" d="M224.8,206.1c0,0.3,0,0.6-0.1,0.9c0,0.1-0.1,0.5-0.2,0.3c-0.1-0.2-0.1-0.3-0.1-0.5c0-0.3,0-0.6,0.1-0.9
		c0-0.1,0.1-0.6,0.2-0.3C224.8,205.8,224.8,205.9,224.8,206.1z"/>
	<path class="st0" d="M224.1,207.7c0,0.3,0,0.6-0.1,1c0,0.1-0.1,0.5-0.2,0.3c-0.1-0.2-0.1-0.3-0.1-0.5c0-0.3,0-0.6,0.1-1
		c0-0.1,0.1-0.5,0.2-0.3C224.1,207.4,224.1,207.5,224.1,207.7z"/>
	<path class="st0" d="M223.3,209.2c0,0.3,0,0.6-0.1,1c0,0.1-0.1,0.5-0.2,0.3c-0.1-0.2-0.1-0.3-0.1-0.5c0-0.3,0-0.6,0.1-1
		c0-0.1,0.1-0.5,0.2-0.3C223.3,208.9,223.3,209.1,223.3,209.2z"/>
	<path class="st0" d="M226.1,197.4c0,0.2,0,0.3,0,0.5"/>
	<path class="st0" d="M226,197.5C226,197.4,226.1,197.4,226,197.5"/>
	<path class="st0" d="M226.1,197.9c0,0.4,0.1,0.9-0.1,1.3"/>
	<path class="st0" d="M225.7,199c0.1,0.2,0.1,0.3,0.1,0.5"/>
	<path class="st0" d="M225.6,200.7c0-0.3,0-0.6,0-0.8c0-0.1,0-0.3,0-0.4c0-0.1,0-0.1,0-0.2c0-0.1,0-0.1,0.1-0.2"/>
	<path class="st0" d="M225.8,199.6c0,0.2,0,0.4,0,0.7c0,0.1,0,0.2,0,0.3c0,0.1,0.1,0.2-0.1,0.3"/>
	<path class="st0" d="M225.3,201.2c0,0.3,0,0.6-0.1,0.9c0,0.1-0.1,0.6-0.2,0.3c-0.1-0.2,0-0.3,0-0.5c0-0.3,0-0.6,0.1-0.9
		c0-0.1,0.1-0.6,0.2-0.3C225.4,200.9,225.3,201,225.3,201.2z"/>
	<path class="st0" d="M224.8,202.8c0,0.3,0,0.6-0.1,0.9c0,0.1-0.1,0.5-0.2,0.3c-0.1-0.2-0.1-0.3-0.1-0.5c0-0.3,0-0.6,0.1-0.9
		c0-0.1,0.1-0.6,0.2-0.3C224.8,202.5,224.8,202.6,224.8,202.8z"/>
	<path class="st0" d="M224.1,204.4c0,0.3,0,0.6-0.1,1c0,0.1-0.1,0.5-0.2,0.3c-0.1-0.2-0.1-0.3-0.1-0.5c0-0.3,0-0.6,0.1-1
		c0-0.1,0.1-0.5,0.2-0.3C224.1,204,224.1,204.2,224.1,204.4z"/>
	<path class="st0" d="M223.3,205.9c0,0.3,0,0.6-0.1,1c0,0.1-0.1,0.5-0.2,0.3c-0.1-0.2-0.1-0.3-0.1-0.5c0-0.3,0-0.6,0.1-1
		c0-0.1,0.1-0.5,0.2-0.3C223.3,205.6,223.3,205.8,223.3,205.9z"/>
	<path class="st0" d="M225.3,197.9c0,0.3,0,0.6-0.1,0.9c0,0.1-0.1,0.6-0.2,0.3c-0.1-0.2,0-0.3,0-0.5c0-0.3,0-0.6,0.1-0.9
		c0-0.1,0.1-0.6,0.2-0.3C225.4,197.5,225.3,197.7,225.3,197.9z"/>
	<path class="st0" d="M224.8,199.5c0,0.3,0,0.6-0.1,0.9c0,0.1-0.1,0.5-0.2,0.3c-0.1-0.2-0.1-0.3-0.1-0.5c0-0.3,0-0.6,0.1-0.9
		c0-0.1,0.1-0.6,0.2-0.3C224.8,199.1,224.8,199.3,224.8,199.5z"/>
	<path class="st0" d="M224.1,201c0,0.3,0,0.6-0.1,1c0,0.1-0.1,0.5-0.2,0.3c-0.1-0.2-0.1-0.3-0.1-0.5c0-0.3,0-0.6,0.1-1
		c0-0.1,0.1-0.5,0.2-0.3C224.1,200.7,224.1,200.9,224.1,201z"/>
	<path class="st0" d="M223.3,202.6c0,0.3,0,0.6-0.1,1c0,0.1-0.1,0.5-0.2,0.3c-0.1-0.2-0.1-0.3-0.1-0.5c0-0.3,0-0.6,0.1-1
		c0-0.1,0.1-0.5,0.2-0.3C223.3,202.3,223.3,202.4,223.3,202.6z"/>
	<path class="st0" d="M224.1,197.7c0,0.3,0,0.6-0.1,1c0,0.1-0.1,0.5-0.2,0.3c-0.1-0.2-0.1-0.3-0.1-0.5c0-0.3,0-0.6,0.1-1
		c0-0.1,0.1-0.5,0.2-0.3C224.1,197.4,224.1,197.6,224.1,197.7z"/>
	<path class="st0" d="M223.3,199.3c0,0.3,0,0.6-0.1,1c0,0.1-0.1,0.5-0.2,0.3c-0.1-0.2-0.1-0.3-0.1-0.5c0-0.3,0-0.6,0.1-1
		c0-0.1,0.1-0.5,0.2-0.3C223.3,199,223.3,199.1,223.3,199.3z"/>
	<path class="st0" d="M226.3,199.2c0,0.1,0,0.3,0,0.4"/>
	<path class="st0" d="M226.2,199.2C226.2,199.2,226.3,199.2,226.2,199.2"/>
	<path class="st0" d="M226.3,199.6c0,0.4,0,0.8,0,1.2"/>
	<path class="st0" d="M226.3,202.5c0,0.1,0,0.3,0,0.4"/>
	<path class="st0" d="M226.2,202.6c0-0.1,0-0.1,0-0.2"/>
	<path class="st0" d="M226.3,202.9c0,0.4,0,0.8,0,1.2"/>
	<path class="st0" d="M226.3,206.1c0,0.1,0,0.1,0,0.2"/>
	<path class="st0" d="M226.3,205.8c0,0.1,0,0.1,0,0.2"/>
	<path class="st0" d="M226.2,206c0-0.1-0.1-0.1,0-0.2"/>
	<path class="st0" d="M226.3,206.3c0,0.4,0,0.8,0,1.2"/>
	<path class="st0" d="M226.3,209.4c0,0.1,0,0.1,0,0.2"/>
	<path class="st0" d="M226.3,209.1c0,0.1,0,0.1,0,0.2"/>
	<path class="st0" d="M226.2,209.3c0-0.1-0.1-0.1,0-0.2"/>
	<path class="st0" d="M226.3,209.6c0,0.4,0,0.8,0,1.2"/>
	<path class="st0" d="M226.3,212.7c0,0.1,0,0.1,0,0.2"/>
	<path class="st0" d="M226.3,212.4c0,0.1,0,0.1,0,0.2"/>
	<path class="st0" d="M226.2,212.6c0-0.1-0.1-0.1,0-0.2"/>
	<path class="st0" d="M226.3,212.9c0,0.4,0,0.8,0,1.2"/>
	<path class="st0" d="M226.3,209.7c0-0.1,0-0.3,0-0.4"/>
	<path class="st0" d="M226.3,210.7c0,0,0-0.1,0-0.1"/>
	<path class="st0" d="M226.3,216c0,0.1,0,0.1,0,0.2"/>
	<path class="st0" d="M226.3,215.7c0,0.1,0,0.1,0,0.2"/>
	<path class="st0" d="M226.2,215.9c0-0.1-0.1-0.1,0-0.2"/>
	<path class="st0" d="M226.3,216.2c0,0.4,0,0.8,0,1.2"/>
	<path class="st0" d="M226.3,213c0-0.1,0-0.3,0-0.4"/>
	<path class="st0" d="M226.3,214c0,0,0-0.1,0-0.1"/>
	<path class="st0" d="M222.4,227.4c0,0.3,0,0.7-0.2,1c-0.1,0.1-0.1,0.5-0.3,0.3c-0.1-0.2-0.1-0.3-0.1-0.5c0-0.3,0-0.7,0.2-1
		c0.1-0.1,0.1-0.5,0.3-0.3C222.4,227.1,222.4,227.2,222.4,227.4z"/>
	<path class="st0" d="M221.3,228.9c0,0.3,0,0.7-0.2,1c-0.1,0.2-0.1,0.5-0.3,0.3c-0.1-0.2-0.1-0.3-0.1-0.5c0-0.3,0-0.7,0.2-1
		c0.1-0.1,0.1-0.5,0.3-0.3C221.4,228.6,221.3,228.8,221.3,228.9z"/>
	<path class="st0" d="M220.2,230.4c0,0.4-0.1,0.7-0.2,1c-0.1,0.2-0.1,0.5-0.3,0.3c-0.1-0.2-0.1-0.3-0.1-0.5c0-0.3,0.1-0.7,0.2-1
		c0.1-0.2,0.1-0.5,0.3-0.3C220.2,230.1,220.2,230.3,220.2,230.4"/>
	<path class="st0" d="M218.9,232c0,0.4-0.1,0.7-0.2,1c-0.1,0.2-0.2,0.5-0.4,0.2c-0.1-0.2-0.1-0.3-0.1-0.5c0-0.4,0.1-0.7,0.2-1
		c0.1-0.2,0.2-0.5,0.4-0.3C218.9,231.6,218.9,231.8,218.9,232z"/>
	<path class="st0" d="M217.5,233.5c0,0.4-0.1,0.7-0.2,1c-0.3,0.5-0.5,0.2-0.5-0.3c0-0.4,0.1-0.7,0.2-1
		C217.2,232.7,217.5,233,217.5,233.5z"/>
	<path class="st0" d="M215.9,234.9c0,0.4-0.1,0.7-0.3,1c-0.3,0.5-0.5,0.2-0.5-0.3c0-0.4,0.1-0.7,0.3-1
		C215.7,234.2,215.9,234.4,215.9,234.9z"/>
	<path class="st0" d="M222.4,224.1c0,0.3,0,0.7-0.2,1c-0.1,0.1-0.1,0.5-0.3,0.3c-0.1-0.2-0.1-0.3-0.1-0.5c0-0.3,0-0.7,0.2-1
		c0.1-0.1,0.1-0.5,0.3-0.3C222.4,223.7,222.4,223.9,222.4,224.1z"/>
	<path class="st0" d="M221.3,225.6c0,0.3,0,0.7-0.2,1c-0.1,0.2-0.1,0.5-0.3,0.3c-0.1-0.2-0.1-0.3-0.1-0.5c0-0.3,0-0.7,0.2-1
		c0.1-0.1,0.1-0.5,0.3-0.3C221.4,225.3,221.3,225.4,221.3,225.6z"/>
	<path class="st0" d="M220.2,227.1c0,0.4-0.1,0.7-0.2,1c-0.1,0.2-0.1,0.5-0.3,0.3c-0.1-0.2-0.1-0.3-0.1-0.5c0-0.3,0.1-0.7,0.2-1
		c0.1-0.2,0.1-0.5,0.3-0.3C220.2,226.8,220.2,227,220.2,227.1z"/>
	<path class="st0" d="M218.9,228.6c0,0.4-0.1,0.7-0.2,1c-0.1,0.2-0.2,0.5-0.4,0.2c-0.1-0.2-0.1-0.3-0.1-0.5c0-0.4,0.1-0.7,0.2-1
		c0.1-0.2,0.2-0.5,0.4-0.3C218.9,228.3,218.9,228.5,218.9,228.6z"/>
	<path class="st0" d="M217.5,230.1c0,0.4-0.1,0.7-0.2,1c-0.3,0.5-0.5,0.2-0.5-0.3c0-0.4,0.1-0.7,0.2-1
		C217.2,229.4,217.5,229.6,217.5,230.1z"/>
	<path class="st0" d="M215.9,231.6c0,0.4-0.1,0.7-0.3,1c-0.3,0.5-0.5,0.2-0.5-0.3c0-0.4,0.1-0.7,0.3-1
		C215.7,230.9,215.9,231.1,215.9,231.6z"/>
	<path class="st0" d="M222.4,220.7c0,0.3,0,0.7-0.2,1c-0.1,0.1-0.1,0.5-0.3,0.3c-0.1-0.2-0.1-0.3-0.1-0.5c0-0.3,0-0.7,0.2-1
		c0.1-0.1,0.1-0.5,0.3-0.3C222.4,220.4,222.4,220.6,222.4,220.7z"/>
	<path class="st0" d="M221.3,222.3c0,0.3,0,0.7-0.2,1c-0.1,0.2-0.1,0.5-0.3,0.3c-0.1-0.2-0.1-0.3-0.1-0.5c0-0.3,0-0.7,0.2-1
		c0.1-0.1,0.1-0.5,0.3-0.3C221.4,222,221.3,222.1,221.3,222.3z"/>
	<path class="st0" d="M220.2,223.8c0,0.4-0.1,0.7-0.2,1c-0.1,0.2-0.1,0.5-0.3,0.3c-0.1-0.2-0.1-0.3-0.1-0.5c0-0.3,0.1-0.7,0.2-1
		c0.1-0.2,0.1-0.5,0.3-0.3C220.2,223.5,220.2,223.6,220.2,223.8z"/>
	<path class="st0" d="M218.9,225.3c0,0.4-0.1,0.7-0.2,1c-0.1,0.2-0.2,0.5-0.4,0.2c-0.1-0.2-0.1-0.3-0.1-0.5c0-0.4,0.1-0.7,0.2-1
		c0.1-0.2,0.2-0.5,0.4-0.3C218.9,225,218.9,225.1,218.9,225.3z"/>
	<path class="st0" d="M217.5,226.8c0,0.4-0.1,0.7-0.2,1c-0.3,0.5-0.5,0.2-0.5-0.3c0-0.4,0.1-0.7,0.2-1
		C217.2,226.1,217.5,226.3,217.5,226.8z"/>
	<path class="st0" d="M215.9,228.3c0,0.4-0.1,0.7-0.3,1c-0.3,0.5-0.5,0.2-0.5-0.3c0-0.4,0.1-0.7,0.3-1
		C215.7,227.6,215.9,227.8,215.9,228.3z"/>
	<path class="st0" d="M222.4,217.4c0,0.3,0,0.7-0.2,1c-0.1,0.1-0.1,0.5-0.3,0.3c-0.1-0.2-0.1-0.3-0.1-0.5c0-0.3,0-0.7,0.2-1
		c0.1-0.1,0.1-0.5,0.3-0.3C222.4,217.1,222.4,217.3,222.4,217.4z"/>
	<path class="st0" d="M221.3,219c0,0.3,0,0.7-0.2,1c-0.1,0.2-0.1,0.5-0.3,0.3c-0.1-0.2-0.1-0.3-0.1-0.5c0-0.3,0-0.7,0.2-1
		c0.1-0.1,0.1-0.5,0.3-0.3C221.4,218.6,221.3,218.8,221.3,219z"/>
	<path class="st0" d="M220.2,220.5c0,0.4-0.1,0.7-0.2,1c-0.1,0.2-0.1,0.5-0.3,0.3c-0.1-0.2-0.1-0.3-0.1-0.5c0-0.3,0.1-0.7,0.2-1
		c0.1-0.2,0.1-0.5,0.3-0.3C220.2,220.2,220.2,220.3,220.2,220.5z"/>
	<path class="st0" d="M218.9,222c0,0.4-0.1,0.7-0.2,1c-0.1,0.2-0.2,0.5-0.4,0.2c-0.1-0.2-0.1-0.3-0.1-0.5c0-0.4,0.1-0.7,0.2-1
		c0.1-0.2,0.2-0.5,0.4-0.3C218.9,221.7,218.9,221.8,218.9,222z"/>
	<path class="st0" d="M217.5,223.5c0,0.4-0.1,0.7-0.2,1c-0.3,0.5-0.5,0.2-0.5-0.3c0-0.4,0.1-0.7,0.2-1
		C217.2,222.8,217.5,223,217.5,223.5z"/>
	<path class="st0" d="M215.9,225c0,0.4-0.1,0.7-0.3,1c-0.3,0.5-0.5,0.2-0.5-0.3c0-0.4,0.1-0.7,0.3-1
		C215.7,224.2,215.9,224.5,215.9,225z"/>
	<path class="st0" d="M222.4,214.1c0,0.3,0,0.7-0.2,1c-0.1,0.1-0.1,0.5-0.3,0.3c-0.1-0.2-0.1-0.3-0.1-0.5c0-0.3,0-0.7,0.2-1
		c0.1-0.1,0.1-0.5,0.3-0.3C222.4,213.8,222.4,213.9,222.4,214.1z"/>
	<path class="st0" d="M221.3,215.6c0,0.3,0,0.7-0.2,1c-0.1,0.2-0.1,0.5-0.3,0.3c-0.1-0.2-0.1-0.3-0.1-0.5c0-0.3,0-0.7,0.2-1
		c0.1-0.1,0.1-0.5,0.3-0.3C221.4,215.3,221.3,215.5,221.3,215.6z"/>
	<path class="st0" d="M220.2,217.2c0,0.4-0.1,0.7-0.2,1c-0.1,0.2-0.1,0.5-0.3,0.3c-0.1-0.2-0.1-0.3-0.1-0.5c0-0.3,0.1-0.7,0.2-1
		c0.1-0.2,0.1-0.5,0.3-0.3C220.2,216.8,220.2,217,220.2,217.2z"/>
	<path class="st0" d="M218.9,218.7c0,0.4-0.1,0.7-0.2,1c-0.1,0.2-0.2,0.5-0.4,0.2c-0.1-0.2-0.1-0.3-0.1-0.5c0-0.4,0.1-0.7,0.2-1
		c0.1-0.2,0.2-0.5,0.4-0.3C218.9,218.3,218.9,218.5,218.9,218.7z"/>
	<path class="st0" d="M217.5,220.2c0,0.4-0.1,0.7-0.2,1c-0.3,0.5-0.5,0.2-0.5-0.3c0-0.4,0.1-0.7,0.2-1
		C217.2,219.4,217.5,219.7,217.5,220.2z"/>
	<path class="st0" d="M215.9,221.7c0,0.4-0.1,0.7-0.3,1c-0.3,0.5-0.5,0.2-0.5-0.3c0-0.4,0.1-0.7,0.3-1
		C215.7,220.9,215.9,221.2,215.9,221.7z"/>
	<path class="st0" d="M222.4,210.8c0,0.3,0,0.7-0.2,1c-0.1,0.1-0.1,0.5-0.3,0.3c-0.1-0.2-0.1-0.3-0.1-0.5c0-0.3,0-0.7,0.2-1
		c0.1-0.1,0.1-0.5,0.3-0.3C222.4,210.5,222.4,210.6,222.4,210.8z"/>
	<path class="st0" d="M221.3,212.3c0,0.3,0,0.7-0.2,1c-0.1,0.2-0.1,0.5-0.3,0.3c-0.1-0.2-0.1-0.3-0.1-0.5c0-0.3,0-0.7,0.2-1
		c0.1-0.1,0.1-0.5,0.3-0.3C221.4,212,221.3,212.2,221.3,212.3z"/>
	<path class="st0" d="M220.2,213.9c0,0.4-0.1,0.7-0.2,1c-0.1,0.2-0.1,0.5-0.3,0.3c-0.1-0.2-0.1-0.3-0.1-0.5c0-0.3,0.1-0.7,0.2-1
		c0.1-0.2,0.1-0.5,0.3-0.3C220.2,213.5,220.2,213.7,220.2,213.9z"/>
	<path class="st0" d="M218.9,215.4c0,0.4-0.1,0.7-0.2,1c-0.1,0.2-0.2,0.5-0.4,0.2c-0.1-0.2-0.1-0.3-0.1-0.5c0-0.4,0.1-0.7,0.2-1
		c0.1-0.2,0.2-0.5,0.4-0.3C218.9,215,218.9,215.2,218.9,215.4z"/>
	<path class="st0" d="M217.5,216.9c0,0.4-0.1,0.7-0.2,1c-0.3,0.5-0.5,0.2-0.5-0.3c0-0.4,0.1-0.7,0.2-1
		C217.2,216.1,217.5,216.4,217.5,216.9z"/>
	<path class="st0" d="M215.9,218.3c0,0.4-0.1,0.7-0.3,1c-0.3,0.5-0.5,0.2-0.5-0.3c0-0.4,0.1-0.7,0.3-1
		C215.7,217.6,215.9,217.8,215.9,218.3z"/>
	<path class="st0" d="M222.4,207.5c0,0.3,0,0.7-0.2,1c-0.1,0.1-0.1,0.5-0.3,0.3c-0.1-0.2-0.1-0.3-0.1-0.5c0-0.3,0-0.7,0.2-1
		c0.1-0.1,0.1-0.5,0.3-0.3C222.4,207.1,222.4,207.3,222.4,207.5z"/>
	<path class="st0" d="M221.3,209c0,0.3,0,0.7-0.2,1c-0.1,0.2-0.1,0.5-0.3,0.3c-0.1-0.2-0.1-0.3-0.1-0.5c0-0.3,0-0.7,0.2-1
		c0.1-0.1,0.1-0.5,0.3-0.3C221.4,208.7,221.3,208.8,221.3,209z"/>
	<path class="st0" d="M220.2,210.5c0,0.4-0.1,0.7-0.2,1c-0.1,0.2-0.1,0.5-0.3,0.3c-0.1-0.2-0.1-0.3-0.1-0.5c0-0.3,0.1-0.7,0.2-1
		c0.1-0.2,0.1-0.5,0.3-0.3C220.2,210.2,220.2,210.4,220.2,210.5z"/>
	<path class="st0" d="M218.9,212c0,0.4-0.1,0.7-0.2,1c-0.1,0.2-0.2,0.5-0.4,0.2c-0.1-0.2-0.1-0.3-0.1-0.5c0-0.4,0.1-0.7,0.2-1
		c0.1-0.2,0.2-0.5,0.4-0.3C218.9,211.7,218.9,211.9,218.9,212z"/>
	<path class="st0" d="M217.5,213.5c0,0.4-0.1,0.7-0.2,1c-0.3,0.5-0.5,0.2-0.5-0.3c0-0.4,0.1-0.7,0.2-1
		C217.2,212.8,217.5,213,217.5,213.5z"/>
	<path class="st0" d="M215.9,215c0,0.4-0.1,0.7-0.3,1c-0.3,0.5-0.5,0.2-0.5-0.3c0-0.4,0.1-0.7,0.3-1
		C215.7,214.3,215.9,214.5,215.9,215z"/>
	<path class="st0" d="M222.4,204.2c0,0.3,0,0.7-0.2,1c-0.1,0.1-0.1,0.5-0.3,0.3c-0.1-0.2-0.1-0.3-0.1-0.5c0-0.3,0-0.7,0.2-1
		c0.1-0.1,0.1-0.5,0.3-0.3C222.4,203.8,222.4,204,222.4,204.2z"/>
	<path class="st0" d="M221.3,205.7c0,0.3,0,0.7-0.2,1c-0.1,0.2-0.1,0.5-0.3,0.3c-0.1-0.2-0.1-0.3-0.1-0.5c0-0.3,0-0.7,0.2-1
		c0.1-0.1,0.1-0.5,0.3-0.3C221.4,205.4,221.3,205.5,221.3,205.7z"/>
	<path class="st0" d="M220.2,207.2c0,0.4-0.1,0.7-0.2,1c-0.1,0.2-0.1,0.5-0.3,0.3c-0.1-0.2-0.1-0.3-0.1-0.5c0-0.3,0.1-0.7,0.2-1
		c0.1-0.2,0.1-0.5,0.3-0.3C220.2,206.9,220.2,207,220.2,207.2z"/>
	<path class="st0" d="M218.9,208.7c0,0.4-0.1,0.7-0.2,1c-0.1,0.2-0.2,0.5-0.4,0.2c-0.1-0.2-0.1-0.3-0.1-0.5c0-0.4,0.1-0.7,0.2-1
		c0.1-0.2,0.2-0.5,0.4-0.3C218.9,208.4,218.9,208.6,218.9,208.7z"/>
	<path class="st0" d="M217.5,210.2c0,0.4-0.1,0.7-0.2,1c-0.3,0.5-0.5,0.2-0.5-0.3c0-0.4,0.1-0.7,0.2-1
		C217.2,209.5,217.5,209.7,217.5,210.2z"/>
	<path class="st0" d="M222.4,200.8c0,0.3,0,0.7-0.2,1c-0.1,0.1-0.1,0.5-0.3,0.3c-0.1-0.2-0.1-0.3-0.1-0.5c0-0.3,0-0.7,0.2-1
		c0.1-0.1,0.1-0.5,0.3-0.3C222.4,200.5,222.4,200.7,222.4,200.8z"/>
	<path class="st0" d="M221.3,202.4c0,0.3,0,0.7-0.2,1c-0.1,0.2-0.1,0.5-0.3,0.3c-0.1-0.2-0.1-0.3-0.1-0.5c0-0.3,0-0.7,0.2-1
		c0.1-0.1,0.1-0.5,0.3-0.3C221.4,202,221.3,202.2,221.3,202.4z"/>
	<path class="st0" d="M220.2,203.9c0,0.4-0.1,0.7-0.2,1c-0.1,0.2-0.1,0.5-0.3,0.3c-0.1-0.2-0.1-0.3-0.1-0.5c0-0.3,0.1-0.7,0.2-1
		c0.1-0.2,0.1-0.5,0.3-0.3C220.2,203.6,220.2,203.7,220.2,203.9z"/>
	<path class="st0" d="M214.3,219.8c0,0.4-0.1,0.7-0.3,1c-0.3,0.5-0.6,0.2-0.6-0.3c0-0.4,0.1-0.7,0.3-1
		C214,219.1,214.3,219.3,214.3,219.8z"/>
	<path class="st0" d="M212.5,224.6c0,0.4-0.1,0.7-0.3,1c-0.3,0.4-0.6,0.2-0.6-0.3c0-0.4,0.1-0.7,0.3-1
		C212.2,223.8,212.5,224.1,212.5,224.6z"/>
	<path class="st0" d="M214.3,223.1c0,0.4-0.1,0.7-0.3,1c-0.3,0.5-0.6,0.2-0.6-0.3c0-0.4,0.1-0.7,0.3-1
		C214,222.4,214.3,222.6,214.3,223.1z"/>
	<path class="st0" d="M212.5,227.9c0,0.4-0.1,0.7-0.3,1c-0.3,0.4-0.6,0.2-0.6-0.3c0-0.4,0.1-0.7,0.3-1
		C212.2,227.2,212.5,227.4,212.5,227.9z"/>
	<path class="st0" d="M214.3,226.4c0,0.4-0.1,0.7-0.3,1c-0.3,0.5-0.6,0.2-0.6-0.3c0-0.4,0.1-0.7,0.3-1
		C214,225.7,214.3,225.9,214.3,226.4z"/>
	<path class="st0" d="M210.6,232.7c0,0.4-0.1,0.7-0.4,1c-0.3,0.4-0.7,0.2-0.7-0.3c0-0.4,0.1-0.7,0.4-1
		C210.3,231.9,210.6,232.1,210.6,232.7z"/>
	<path class="st0" d="M212.5,231.2c0,0.4-0.1,0.7-0.3,1c-0.3,0.4-0.6,0.2-0.6-0.3c0-0.4,0.1-0.7,0.3-1
		C212.2,230.5,212.5,230.7,212.5,231.2z"/>
	<path class="st0" d="M214.3,229.8c0,0.4-0.1,0.7-0.3,1c-0.3,0.5-0.6,0.2-0.6-0.3c0-0.4,0.1-0.7,0.3-1
		C214,229,214.3,229.3,214.3,229.8z"/>
	<path class="st0" d="M210.6,236c0,0.4-0.1,0.7-0.4,1c-0.3,0.4-0.7,0.2-0.7-0.3c0-0.4,0.1-0.7,0.4-1
		C210.3,235.2,210.6,235.5,210.6,236z"/>
	<path class="st0" d="M212.5,234.5c0,0.4-0.1,0.7-0.3,1c-0.3,0.4-0.6,0.2-0.6-0.3c0-0.4,0.1-0.7,0.3-1
		C212.2,233.8,212.5,234,212.5,234.5z"/>
	<path class="st0" d="M214.3,233.1c0,0.4-0.1,0.7-0.3,1c-0.3,0.5-0.6,0.2-0.6-0.3c0-0.4,0.1-0.7,0.3-1
		C214,232.3,214.3,232.6,214.3,233.1z"/>
	<path class="st0" d="M210.6,239.3c0,0.4-0.1,0.7-0.4,1c-0.3,0.4-0.7,0.2-0.7-0.3c0-0.4,0.1-0.7,0.4-1
		C210.3,238.5,210.6,238.8,210.6,239.3z"/>
	<path class="st0" d="M212.5,237.9c0,0.4-0.1,0.7-0.3,1c-0.3,0.4-0.6,0.2-0.6-0.3c0-0.4,0.1-0.7,0.3-1
		C212.2,237.1,212.5,237.3,212.5,237.9z"/>
	<path class="st0" d="M214.3,236.4c0,0.4-0.1,0.7-0.3,1c-0.3,0.5-0.6,0.2-0.6-0.3c0-0.4,0.1-0.7,0.3-1
		C214,235.7,214.3,235.9,214.3,236.4z"/>
	<path class="st0" d="M214.3,256.3c0,0.4-0.1,0.7-0.3,1c-0.3,0.5-0.6,0.2-0.6-0.3c0-0.4,0.1-0.7,0.3-1
		C214,255.6,214.3,255.8,214.3,256.3z"/>
	<path class="st0" d="M214.3,253c0,0.4-0.1,0.7-0.3,1c-0.3,0.5-0.6,0.2-0.6-0.3c0-0.4,0.1-0.7,0.3-1
		C214,252.2,214.3,252.5,214.3,253z"/>
	<path class="st0" d="M214.3,249.7c0,0.4-0.1,0.7-0.3,1c-0.3,0.5-0.6,0.2-0.6-0.3c0-0.4,0.1-0.7,0.3-1
		C214,248.9,214.3,249.2,214.3,249.7z"/>
	<path class="st0" d="M212.5,251.1c0,0.4-0.1,0.7-0.3,1c-0.3,0.4-0.6,0.2-0.6-0.3c0-0.4,0.1-0.7,0.3-1
		C212.2,250.4,212.5,250.6,212.5,251.1"/>
	<path class="st0" d="M214.3,246.4c0,0.4-0.1,0.7-0.3,1c-0.3,0.5-0.6,0.2-0.6-0.3c0-0.4,0.1-0.7,0.3-1
		C214,245.6,214.3,245.9,214.3,246.4z"/>
	<path class="st0" d="M212.5,247.8c0,0.4-0.1,0.7-0.3,1c-0.3,0.4-0.6,0.2-0.6-0.3c0-0.4,0.1-0.7,0.3-1
		C212.2,247.1,212.5,247.3,212.5,247.8z"/>
	<path class="st0" d="M214.3,243c0,0.4-0.1,0.7-0.3,1c-0.3,0.5-0.6,0.2-0.6-0.3c0-0.4,0.1-0.7,0.3-1
		C214,242.3,214.3,242.5,214.3,243z"/>
	<path class="st0" d="M212.5,244.5c0,0.4-0.1,0.7-0.3,1c-0.3,0.4-0.6,0.2-0.6-0.3c0-0.4,0.1-0.7,0.3-1
		C212.2,243.7,212.5,244,212.5,244.5z"/>
	<path class="st0" d="M210.6,245.9c0,0.4-0.1,0.7-0.4,1c-0.3,0.4-0.7,0.2-0.7-0.3c0-0.4,0.1-0.7,0.4-1
		C210.3,245.2,210.6,245.4,210.6,245.9z"/>
	<path class="st0" d="M214.3,239.7c0,0.4-0.1,0.7-0.3,1c-0.3,0.5-0.6,0.2-0.6-0.3c0-0.4,0.1-0.7,0.3-1
		C214,239,214.3,239.2,214.3,239.7z"/>
	<path class="st0" d="M212.5,241.2c0,0.4-0.1,0.7-0.3,1c-0.3,0.4-0.6,0.2-0.6-0.3c0-0.4,0.1-0.7,0.3-1
		C212.2,240.4,212.5,240.7,212.5,241.2z"/>
	<path class="st0" d="M210.6,242.6c0,0.4-0.1,0.7-0.4,1c-0.3,0.4-0.7,0.2-0.7-0.3c0-0.4,0.1-0.7,0.4-1
		C210.3,241.9,210.6,242.1,210.6,242.6z"/>
	<path class="st0" d="M215.9,238.3c0,0.4-0.1,0.7-0.3,1c-0.3,0.5-0.5,0.2-0.5-0.3c0-0.4,0.1-0.7,0.3-1
		C215.7,237.5,215.9,237.7,215.9,238.3z"/>
	<path class="st0" d="M217.5,236.8c0,0.4-0.1,0.7-0.2,1c-0.3,0.5-0.5,0.2-0.5-0.3c0-0.4,0.1-0.7,0.2-1
		C217.2,236,217.5,236.3,217.5,236.8z"/>
	<path class="st0" d="M218.9,235.3c0,0.4-0.1,0.7-0.2,1c-0.1,0.2-0.2,0.5-0.4,0.2c-0.1-0.2-0.1-0.3-0.1-0.5c0-0.4,0.1-0.7,0.2-1
		c0.1-0.2,0.2-0.5,0.4-0.3C218.9,234.9,218.9,235.1,218.9,235.3z"/>
	<path class="st0" d="M220.2,233.8c0,0.4-0.1,0.7-0.2,1c-0.1,0.2-0.1,0.5-0.3,0.3c-0.1-0.2-0.1-0.3-0.1-0.5c0-0.3,0.1-0.7,0.2-1
		c0.1-0.2,0.1-0.5,0.3-0.3C220.2,233.4,220.2,233.6,220.2,233.8"/>
	<path class="st0" d="M221.3,232.2c0,0.3,0,0.7-0.2,1c-0.1,0.2-0.1,0.5-0.3,0.3c-0.1-0.2-0.1-0.3-0.1-0.5c0-0.3,0-0.7,0.2-1
		c0.1-0.1,0.1-0.5,0.3-0.3C221.4,231.9,221.3,232.1,221.3,232.2z"/>
	<path class="st0" d="M222.4,230.7c0,0.3,0,0.7-0.2,1c-0.1,0.1-0.1,0.5-0.3,0.3c-0.1-0.2-0.1-0.3-0.1-0.5c0-0.3,0-0.7,0.2-1
		c0.1-0.1,0.1-0.5,0.3-0.3C222.4,230.4,222.4,230.5,222.4,230.7z"/>
	<path class="st0" d="M215.9,241.6c0,0.4-0.1,0.7-0.3,1c-0.3,0.5-0.5,0.2-0.5-0.3c0-0.4,0.1-0.7,0.3-1
		C215.7,240.8,215.9,241.1,215.9,241.6z"/>
	<path class="st0" d="M217.5,240.1c0,0.4-0.1,0.7-0.2,1c-0.3,0.5-0.5,0.2-0.5-0.3c0-0.4,0.1-0.7,0.2-1
		C217.2,239.3,217.5,239.6,217.5,240.1z"/>
	<path class="st0" d="M218.9,238.6c0,0.4-0.1,0.7-0.2,1c-0.1,0.2-0.2,0.5-0.4,0.2c-0.1-0.2-0.1-0.3-0.1-0.5c0-0.4,0.1-0.7,0.2-1
		c0.1-0.2,0.2-0.5,0.4-0.3C218.9,238.3,218.9,238.4,218.9,238.6z"/>
	<path class="st0" d="M220.2,237.1c0,0.4-0.1,0.7-0.2,1c-0.1,0.2-0.1,0.5-0.3,0.3c-0.1-0.2-0.1-0.3-0.1-0.5c0-0.3,0.1-0.7,0.2-1
		c0.1-0.2,0.1-0.5,0.3-0.3C220.2,236.8,220.2,236.9,220.2,237.1"/>
	<path class="st0" d="M221.3,235.6c0,0.3,0,0.7-0.2,1c-0.1,0.2-0.1,0.5-0.3,0.3c-0.1-0.2-0.1-0.3-0.1-0.5c0-0.3,0-0.7,0.2-1
		c0.1-0.1,0.1-0.5,0.3-0.3C221.4,235.2,221.3,235.4,221.3,235.6z"/>
	<path class="st0" d="M222.4,234c0,0.3,0,0.7-0.2,1c-0.1,0.1-0.1,0.5-0.3,0.3c-0.1-0.2-0.1-0.3-0.1-0.5c0-0.3,0-0.7,0.2-1
		c0.1-0.1,0.1-0.5,0.3-0.3C222.4,233.7,222.4,233.9,222.4,234z"/>
	<path class="st0" d="M215.9,244.9c0,0.4-0.1,0.7-0.3,1c-0.3,0.5-0.5,0.2-0.5-0.3c0-0.4,0.1-0.7,0.3-1
		C215.7,244.1,215.9,244.4,215.9,244.9z"/>
	<path class="st0" d="M217.5,243.4c0,0.4-0.1,0.7-0.2,1c-0.3,0.5-0.5,0.2-0.5-0.3c0-0.4,0.1-0.7,0.2-1
		C217.2,242.7,217.5,242.9,217.5,243.4z"/>
	<path class="st0" d="M218.9,241.9c0,0.4-0.1,0.7-0.2,1c-0.1,0.2-0.2,0.5-0.4,0.2c-0.1-0.2-0.1-0.3-0.1-0.5c0-0.4,0.1-0.7,0.2-1
		c0.1-0.2,0.2-0.5,0.4-0.3C218.9,241.6,218.9,241.7,218.9,241.9z"/>
	<path class="st0" d="M220.2,240.4c0,0.4-0.1,0.7-0.2,1c-0.1,0.2-0.1,0.5-0.3,0.3c-0.1-0.2-0.1-0.3-0.1-0.5c0-0.3,0.1-0.7,0.2-1
		c0.1-0.2,0.1-0.5,0.3-0.3C220.2,240.1,220.2,240.2,220.2,240.4"/>
	<path class="st0" d="M221.3,238.9c0,0.3,0,0.7-0.2,1c-0.1,0.2-0.1,0.5-0.3,0.3c-0.1-0.2-0.1-0.3-0.1-0.5c0-0.3,0-0.7,0.2-1
		c0.1-0.1,0.1-0.5,0.3-0.3C221.4,238.5,221.3,238.7,221.3,238.9z"/>
	<path class="st0" d="M222.4,237.3c0,0.3,0,0.7-0.2,1c-0.1,0.1-0.1,0.5-0.3,0.3c-0.1-0.2-0.1-0.3-0.1-0.5c0-0.3,0-0.7,0.2-1
		c0.1-0.1,0.1-0.5,0.3-0.3C222.4,237,222.4,237.2,222.4,237.3z"/>
	<path class="st0" d="M215.9,248.2c0,0.4-0.1,0.7-0.3,1c-0.3,0.5-0.5,0.2-0.5-0.3c0-0.4,0.1-0.7,0.3-1
		C215.7,247.5,215.9,247.7,215.9,248.2z"/>
	<path class="st0" d="M217.5,246.7c0,0.4-0.1,0.7-0.2,1c-0.3,0.5-0.5,0.2-0.5-0.3c0-0.4,0.1-0.7,0.2-1
		C217.2,246,217.5,246.2,217.5,246.7z"/>
	<path class="st0" d="M218.9,245.2c0,0.4-0.1,0.7-0.2,1c-0.1,0.2-0.2,0.5-0.4,0.2c-0.1-0.2-0.1-0.3-0.1-0.5c0-0.4,0.1-0.7,0.2-1
		c0.1-0.2,0.2-0.5,0.4-0.3C218.9,244.9,218.9,245.1,218.9,245.2z"/>
	<path class="st0" d="M220.2,243.7c0,0.4-0.1,0.7-0.2,1c-0.1,0.2-0.1,0.5-0.3,0.3c-0.1-0.2-0.1-0.3-0.1-0.5c0-0.3,0.1-0.7,0.2-1
		c0.1-0.2,0.1-0.5,0.3-0.3C220.2,243.4,220.2,243.5,220.2,243.7"/>
	<path class="st0" d="M221.3,242.2c0,0.3,0,0.7-0.2,1c-0.1,0.2-0.1,0.5-0.3,0.3c-0.1-0.2-0.1-0.3-0.1-0.5c0-0.3,0-0.7,0.2-1
		c0.1-0.1,0.1-0.5,0.3-0.3C221.4,241.9,221.3,242,221.3,242.2z"/>
	<path class="st0" d="M222.4,240.7c0,0.3,0,0.7-0.2,1c-0.1,0.1-0.1,0.5-0.3,0.3c-0.1-0.2-0.1-0.3-0.1-0.5c0-0.3,0-0.7,0.2-1
		c0.1-0.1,0.1-0.5,0.3-0.3C222.4,240.3,222.4,240.5,222.4,240.7z"/>
	<path class="st0" d="M215.9,251.5c0,0.4-0.1,0.7-0.3,1c-0.3,0.5-0.5,0.2-0.5-0.3c0-0.4,0.1-0.7,0.3-1
		C215.7,250.8,215.9,251,215.9,251.5z"/>
	<path class="st0" d="M217.5,250c0,0.4-0.1,0.7-0.2,1c-0.3,0.5-0.5,0.2-0.5-0.3c0-0.4,0.1-0.7,0.2-1
		C217.2,249.3,217.5,249.5,217.5,250z"/>
	<path class="st0" d="M218.9,248.6c0,0.4-0.1,0.7-0.2,1c-0.1,0.2-0.2,0.5-0.4,0.2c-0.1-0.2-0.1-0.3-0.1-0.5c0-0.4,0.1-0.7,0.2-1
		c0.1-0.2,0.2-0.5,0.4-0.3C218.9,248.2,218.9,248.4,218.9,248.6z"/>
	<path class="st0" d="M220.2,247c0,0.4-0.1,0.7-0.2,1c-0.1,0.2-0.1,0.5-0.3,0.3c-0.1-0.2-0.1-0.3-0.1-0.5c0-0.3,0.1-0.7,0.2-1
		c0.1-0.2,0.1-0.5,0.3-0.3C220.2,246.7,220.2,246.9,220.2,247"/>
	<path class="st0" d="M221.3,245.5c0,0.3,0,0.7-0.2,1c-0.1,0.2-0.1,0.5-0.3,0.3c-0.1-0.2-0.1-0.3-0.1-0.5c0-0.3,0-0.7,0.2-1
		c0.1-0.1,0.1-0.5,0.3-0.3C221.4,245.2,221.3,245.3,221.3,245.5z"/>
	<path class="st0" d="M222.4,244c0,0.3,0,0.7-0.2,1c-0.1,0.1-0.1,0.5-0.3,0.3c-0.1-0.2-0.1-0.3-0.1-0.5c0-0.3,0-0.7,0.2-1
		c0.1-0.1,0.1-0.5,0.3-0.3C222.4,243.7,222.4,243.8,222.4,244z"/>
	<path class="st0" d="M215.9,254.8c0,0.4-0.1,0.7-0.3,1c-0.3,0.5-0.5,0.2-0.5-0.3c0-0.4,0.1-0.7,0.3-1
		C215.7,254.1,215.9,254.3,215.9,254.8z"/>
	<path class="st0" d="M217.5,253.4c0,0.4-0.1,0.7-0.2,1c-0.3,0.5-0.5,0.2-0.5-0.3c0-0.4,0.1-0.7,0.2-1
		C217.2,252.6,217.5,252.9,217.5,253.4z"/>
	<path class="st0" d="M218.9,251.9c0,0.4-0.1,0.7-0.2,1c-0.1,0.2-0.2,0.5-0.4,0.2c-0.1-0.2-0.1-0.3-0.1-0.5c0-0.4,0.1-0.7,0.2-1
		c0.1-0.2,0.2-0.5,0.4-0.3C218.9,251.5,218.9,251.7,218.9,251.9z"/>
	<path class="st0" d="M220.2,250.4c0,0.4-0.1,0.7-0.2,1c-0.1,0.2-0.1,0.5-0.3,0.3c-0.1-0.2-0.1-0.3-0.1-0.5c0-0.3,0.1-0.7,0.2-1
		c0.1-0.2,0.1-0.5,0.3-0.3C220.2,250,220.2,250.2,220.2,250.4"/>
	<path class="st0" d="M221.3,248.8c0,0.3,0,0.7-0.2,1c-0.1,0.2-0.1,0.5-0.3,0.3c-0.1-0.2-0.1-0.3-0.1-0.5c0-0.3,0-0.7,0.2-1
		c0.1-0.1,0.1-0.5,0.3-0.3C221.4,248.5,221.3,248.7,221.3,248.8z"/>
	<path class="st0" d="M222.4,247.3c0,0.3,0,0.7-0.2,1c-0.1,0.1-0.1,0.5-0.3,0.3c-0.1-0.2-0.1-0.3-0.1-0.5c0-0.3,0-0.7,0.2-1
		c0.1-0.1,0.1-0.5,0.3-0.3C222.4,247,222.4,247.1,222.4,247.3z"/>
	<path class="st0" d="M215.9,258.2c0,0.4-0.1,0.7-0.3,1c-0.3,0.5-0.5,0.2-0.5-0.3c0-0.4,0.1-0.7,0.3-1
		C215.7,257.4,215.9,257.7,215.9,258.2z"/>
	<path class="st0" d="M217.5,256.7c0,0.4-0.1,0.7-0.2,1c-0.3,0.5-0.5,0.2-0.5-0.3c0-0.4,0.1-0.7,0.2-1
		C217.2,255.9,217.5,256.2,217.5,256.7z"/>
	<path class="st0" d="M218.9,255.2c0,0.4-0.1,0.7-0.2,1c-0.1,0.2-0.2,0.5-0.4,0.2c-0.1-0.2-0.1-0.3-0.1-0.5c0-0.4,0.1-0.7,0.2-1
		c0.1-0.2,0.2-0.5,0.4-0.3C218.9,254.9,218.9,255,218.9,255.2z"/>
	<path class="st0" d="M220.2,253.7c0,0.4-0.1,0.7-0.2,1c-0.1,0.2-0.1,0.5-0.3,0.3c-0.1-0.2-0.1-0.3-0.1-0.5c0-0.3,0.1-0.7,0.2-1
		c0.1-0.2,0.1-0.5,0.3-0.3C220.2,253.3,220.2,253.5,220.2,253.7"/>
	<path class="st0" d="M221.3,252.2c0,0.3,0,0.7-0.2,1c-0.1,0.2-0.1,0.5-0.3,0.3c-0.1-0.2-0.1-0.3-0.1-0.5c0-0.3,0-0.7,0.2-1
		c0.1-0.1,0.1-0.5,0.3-0.3C221.4,251.8,221.3,252,221.3,252.2z"/>
	<path class="st0" d="M222.4,250.6c0,0.3,0,0.7-0.2,1c-0.1,0.1-0.1,0.5-0.3,0.3c-0.1-0.2-0.1-0.3-0.1-0.5c0-0.3,0-0.7,0.2-1
		c0.1-0.1,0.1-0.5,0.3-0.3C222.4,250.3,222.4,250.4,222.4,250.6z"/>
	<path class="st0" d="M218.9,258.5c0,0.4-0.1,0.7-0.2,1c-0.1,0.2-0.2,0.5-0.4,0.2c-0.1-0.2-0.1-0.3-0.1-0.5c0-0.4,0.1-0.7,0.2-1
		c0.1-0.2,0.2-0.5,0.4-0.3C218.9,258.2,218.9,258.3,218.9,258.5z"/>
	<path class="st0" d="M220.2,257c0,0.4-0.1,0.7-0.2,1c-0.1,0.2-0.1,0.5-0.3,0.3c-0.1-0.2-0.1-0.3-0.1-0.5c0-0.3,0.1-0.7,0.2-1
		c0.1-0.2,0.1-0.5,0.3-0.3C220.2,256.7,220.2,256.8,220.2,257"/>
	<path class="st0" d="M221.3,255.5c0,0.3,0,0.7-0.2,1c-0.1,0.2-0.1,0.5-0.3,0.3c-0.1-0.2-0.1-0.3-0.1-0.5c0-0.3,0-0.7,0.2-1
		c0.1-0.1,0.1-0.5,0.3-0.3C221.4,255.1,221.3,255.3,221.3,255.5z"/>
	<path class="st0" d="M222.4,253.9c0,0.3,0,0.7-0.2,1c-0.1,0.1-0.1,0.5-0.3,0.3c-0.1-0.2-0.1-0.3-0.1-0.5c0-0.3,0-0.7,0.2-1
		c0.1-0.1,0.1-0.5,0.3-0.3C222.4,253.6,222.4,253.8,222.4,253.9z"/>
	<path class="st0" d="M221.3,258.8c0,0.3,0,0.7-0.2,1c-0.1,0.2-0.1,0.5-0.3,0.3c-0.1-0.2-0.1-0.3-0.1-0.5c0-0.3,0-0.7,0.2-1
		c0.1-0.1,0.1-0.5,0.3-0.3C221.4,258.5,221.3,258.6,221.3,258.8z"/>
	<path class="st0" d="M222.4,257.3c0,0.3,0,0.7-0.2,1c-0.1,0.1-0.1,0.5-0.3,0.3c-0.1-0.2-0.1-0.3-0.1-0.5c0-0.3,0-0.7,0.2-1
		c0.1-0.1,0.1-0.5,0.3-0.3C222.4,256.9,222.4,257.1,222.4,257.3z"/>
	<path class="st0" d="M226.3,235.7c0,0.1,0,0.3,0,0.4"/>
	<path class="st0" d="M226.2,235.7C226.2,235.7,226.3,235.7,226.2,235.7"/>
	<path class="st0" d="M226.3,236.1c0,0.4,0,0.8,0,1.2"/>
	<path class="st0" d="M226.3,229.1c0,0.1,0,0.3,0,0.4"/>
	<path class="st0" d="M226.2,229.2c0-0.1,0-0.1,0-0.2"/>
	<path class="st0" d="M226.3,229.5c0,0.4,0,0.8,0,1.2"/>
	<path class="st0" d="M226.3,225.8c0,0.1,0,0.3,0,0.4"/>
	<path class="st0" d="M226.2,225.8c0-0.1,0-0.1,0-0.2"/>
	<path class="st0" d="M226.3,226.2c0,0.4,0,0.8,0,1.2"/>
	<path class="st0" d="M226.3,219.8c0,0,0-0.1,0-0.1"/>
	<path class="st0" d="M226.3,222.5c0,0.1,0-0.1,0-0.2c0-0.1,0-0.2,0-0.2c0-0.2,0-0.3,0-0.5c0-0.3,0-0.6,0-0.9"/>
	<path class="st0" d="M226.3,222.7c0,0.1,0,0.1,0,0.2"/>
	<path class="st0" d="M226.3,222.4c0,0.1,0,0.1,0,0.2"/>
	<path class="st0" d="M226.2,222.5c0-0.1-0.1-0.1,0-0.2"/>
	<path class="st0" d="M226.3,222.8c0,0.4,0,0.8,0,1.2"/>
	<path class="st0" d="M226.3,216.3c0-0.1,0-0.3,0-0.4"/>
	<path class="st0" d="M226.3,217.3c0,0,0-0.1,0-0.1"/>
	<path class="st0" d="M226.3,219.1c0,0.1,0,0.3,0,0.4"/>
	<path class="st0" d="M226.2,219.2c0-0.1,0-0.1,0-0.2"/>
	<path class="st0" d="M226.3,219.5c0,0.4,0,0.8,0,1.2"/>
	<path class="st0" d="M223.3,229.1c0,0.3,0,0.6-0.1,1c0,0.1-0.1,0.5-0.2,0.3c-0.1-0.2-0.1-0.3-0.1-0.5c0-0.3,0-0.6,0.1-1
		c0-0.1,0.1-0.5,0.2-0.3C223.3,228.8,223.3,229,223.3,229.1z"/>
	<path class="st0" d="M224.1,227.6c0,0.3,0,0.6-0.1,1c0,0.1-0.1,0.5-0.2,0.3c-0.1-0.2-0.1-0.3-0.1-0.5c0-0.3,0-0.6,0.1-1
		c0-0.1,0.1-0.5,0.2-0.3C224.1,227.3,224.1,227.4,224.1,227.6z"/>
	<path class="st0" d="M224.8,226c0,0.3,0,0.6-0.1,0.9c0,0.1-0.1,0.5-0.2,0.3c-0.1-0.2-0.1-0.3-0.1-0.5c0-0.3,0-0.6,0.1-0.9
		c0-0.1,0.1-0.6,0.2-0.3C224.8,225.7,224.8,225.8,224.8,226z"/>
	<path class="st0" d="M225.3,224.4c0,0.3,0,0.6-0.1,0.9c0,0.1-0.1,0.6-0.2,0.3c-0.1-0.2,0-0.3,0-0.5c0-0.3,0-0.6,0.1-0.9
		c0-0.1,0.1-0.6,0.2-0.3C225.4,224.1,225.3,224.2,225.3,224.4z"/>
	<path class="st0" d="M225.7,222.3c0.1,0.2,0.1,0.3,0.1,0.5"/>
	<path class="st0" d="M225.6,223.9c0-0.3,0-0.6,0-0.8c0-0.1,0-0.3,0-0.4c0-0.1,0-0.1,0-0.2c0-0.1,0-0.1,0.1-0.2"/>
	<path class="st0" d="M225.8,222.8c0,0.2,0,0.4,0,0.7c0,0.1,0,0.2,0,0.3c0,0.1,0.1,0.2-0.1,0.3"/>
	<path class="st0" d="M226.1,220.7c0,0.2,0,0.3,0,0.5"/>
	<path class="st0" d="M226,220.8c0-0.1,0-0.3,0.1-0.2"/>
	<path class="st0" d="M226.1,221.2c0,0.4,0.1,0.9-0.1,1.3"/>
	<path class="st0" d="M223.3,232.5c0,0.3,0,0.6-0.1,1c0,0.1-0.1,0.5-0.2,0.3c-0.1-0.2-0.1-0.3-0.1-0.5c0-0.3,0-0.6,0.1-1
		c0-0.1,0.1-0.5,0.2-0.3C223.3,232.1,223.3,232.3,223.3,232.5z"/>
	<path class="st0" d="M224.1,230.9c0,0.3,0,0.6-0.1,1c0,0.1-0.1,0.5-0.2,0.3c-0.1-0.2-0.1-0.3-0.1-0.5c0-0.3,0-0.6,0.1-1
		c0-0.1,0.1-0.5,0.2-0.3C224.1,230.6,224.1,230.7,224.1,230.9z"/>
	<path class="st0" d="M224.8,229.3c0,0.3,0,0.6-0.1,0.9c0,0.1-0.1,0.5-0.2,0.3c-0.1-0.2-0.1-0.3-0.1-0.5c0-0.3,0-0.6,0.1-0.9
		c0-0.1,0.1-0.6,0.2-0.3C224.8,229,224.8,229.2,224.8,229.3z"/>
	<path class="st0" d="M225.3,227.7c0,0.3,0,0.6-0.1,0.9c0,0.1-0.1,0.6-0.2,0.3c-0.1-0.2,0-0.3,0-0.5c0-0.3,0-0.6,0.1-0.9
		c0-0.1,0.1-0.6,0.2-0.3C225.4,227.4,225.3,227.6,225.3,227.7z"/>
	<path class="st0" d="M225.7,225.6c0.1,0.2,0.1,0.3,0.1,0.5"/>
	<path class="st0" d="M225.6,227.2c0-0.3,0-0.6,0-0.8c0-0.1,0-0.3,0-0.4c0-0.1,0-0.1,0-0.2c0-0.1,0-0.1,0.1-0.2"/>
	<path class="st0" d="M225.8,226.1c0,0.2,0,0.4,0,0.7c0,0.1,0,0.2,0,0.3c0,0.1,0.1,0.2-0.1,0.3"/>
	<path class="st0" d="M226.1,224c0,0.1,0,0.1,0,0.2"/>
	<path class="st0" d="M226,224.2c0-0.1,0-0.3,0.1-0.2"/>
	<path class="st0" d="M226.1,224.5c0,0.4,0.1,0.9-0.1,1.3"/>
	<path class="st0" d="M223.3,235.8c0,0.3,0,0.6-0.1,1c0,0.1-0.1,0.5-0.2,0.3c-0.1-0.2-0.1-0.3-0.1-0.5c0-0.3,0-0.6,0.1-1
		c0-0.1,0.1-0.5,0.2-0.3C223.3,235.5,223.3,235.6,223.3,235.8z"/>
	<path class="st0" d="M224.1,234.2c0,0.3,0,0.6-0.1,1c0,0.1-0.1,0.5-0.2,0.3c-0.1-0.2-0.1-0.3-0.1-0.5c0-0.3,0-0.6,0.1-1
		c0-0.1,0.1-0.5,0.2-0.3C224.1,233.9,224.1,234.1,224.1,234.2z"/>
	<path class="st0" d="M224.8,232.6c0,0.3,0,0.6-0.1,0.9c0,0.1-0.1,0.5-0.2,0.3c-0.1-0.2-0.1-0.3-0.1-0.5c0-0.3,0-0.6,0.1-0.9
		c0-0.1,0.1-0.6,0.2-0.3C224.8,232.3,224.8,232.5,224.8,232.6z"/>
	<path class="st0" d="M225.3,231c0,0.3,0,0.6-0.1,0.9c0,0.1-0.1,0.6-0.2,0.3c-0.1-0.2,0-0.3,0-0.5c0-0.3,0-0.6,0.1-0.9
		c0-0.1,0.1-0.6,0.2-0.3C225.4,230.7,225.3,230.9,225.3,231z"/>
	<path class="st0" d="M225.7,228.9c0.1,0.2,0.1,0.3,0.1,0.5"/>
	<path class="st0" d="M225.6,230.6c0-0.3,0-0.6,0-0.8c0-0.1,0-0.3,0-0.4c0-0.1,0-0.1,0-0.2c0-0.1,0-0.1,0.1-0.2"/>
	<path class="st0" d="M225.8,229.4c0,0.2,0,0.4,0,0.7c0,0.1,0,0.2,0,0.3c0,0.1,0.1,0.2-0.1,0.3"/>
	<path class="st0" d="M226.1,227.3c0,0.2,0,0.3,0,0.5"/>
	<path class="st0" d="M226,227.5c0-0.1,0-0.3,0.1-0.2"/>
	<path class="st0" d="M226.1,227.8c0,0.4,0.1,0.9-0.1,1.3"/>
	<path class="st0" d="M223.3,239.1c0,0.3,0,0.6-0.1,1c0,0.1-0.1,0.5-0.2,0.3c-0.1-0.2-0.1-0.3-0.1-0.5c0-0.3,0-0.6,0.1-1
		c0-0.1,0.1-0.5,0.2-0.3C223.3,238.8,223.3,238.9,223.3,239.1z"/>
	<path class="st0" d="M224.1,237.5c0,0.3,0,0.6-0.1,1c0,0.1-0.1,0.5-0.2,0.3c-0.1-0.2-0.1-0.3-0.1-0.5c0-0.3,0-0.6,0.1-1
		c0-0.1,0.1-0.5,0.2-0.3C224.1,237.2,224.1,237.4,224.1,237.5z"/>
	<path class="st0" d="M224.8,236c0,0.3,0,0.6-0.1,0.9c0,0.1-0.1,0.5-0.2,0.3c-0.1-0.2-0.1-0.3-0.1-0.5c0-0.3,0-0.6,0.1-0.9
		c0-0.1,0.1-0.6,0.2-0.3C224.8,235.6,224.8,235.8,224.8,236z"/>
	<path class="st0" d="M225.3,234.4c0,0.3,0,0.6-0.1,0.9c0,0.1-0.1,0.6-0.2,0.3c-0.1-0.2,0-0.3,0-0.5c0-0.3,0-0.6,0.1-0.9
		c0-0.1,0.1-0.6,0.2-0.3C225.4,234,225.3,234.2,225.3,234.4z"/>
	<path class="st0" d="M225.7,232.2c0.1,0.2,0.1,0.3,0.1,0.5"/>
	<path class="st0" d="M225.6,233.9c0-0.3,0-0.6,0-0.8c0-0.1,0-0.3,0-0.4c0-0.1,0-0.1,0-0.2c0-0.1,0-0.1,0.1-0.2"/>
	<path class="st0" d="M225.8,232.8c0,0.2,0,0.4,0,0.7c0,0.1,0,0.2,0,0.3c0,0.1,0.1,0.2-0.1,0.3"/>
	<path class="st0" d="M226.1,230.6c0,0.2,0,0.3,0,0.5"/>
	<path class="st0" d="M226,230.8c0-0.1,0-0.3,0.1-0.2"/>
	<path class="st0" d="M226.1,231.1c0,0.4,0.1,0.9-0.1,1.3"/>
	<path class="st0" d="M223.3,242.4c0,0.3,0,0.6-0.1,1c0,0.1-0.1,0.5-0.2,0.3c-0.1-0.2-0.1-0.3-0.1-0.5c0-0.3,0-0.6,0.1-1
		c0-0.1,0.1-0.5,0.2-0.3C223.3,242.1,223.3,242.3,223.3,242.4z"/>
	<path class="st0" d="M224.1,240.9c0,0.3,0,0.6-0.1,1c0,0.1-0.1,0.5-0.2,0.3c-0.1-0.2-0.1-0.3-0.1-0.5c0-0.3,0-0.6,0.1-1
		c0-0.1,0.1-0.5,0.2-0.3C224.1,240.5,224.1,240.7,224.1,240.9z"/>
	<path class="st0" d="M224.8,239.3c0,0.3,0,0.6-0.1,0.9c0,0.1-0.1,0.5-0.2,0.3c-0.1-0.2-0.1-0.3-0.1-0.5c0-0.3,0-0.6,0.1-0.9
		c0-0.1,0.1-0.6,0.2-0.3C224.8,239,224.8,239.1,224.8,239.3z"/>
	<path class="st0" d="M225.3,237.7c0,0.3,0,0.6-0.1,0.9c0,0.1-0.1,0.6-0.2,0.3c-0.1-0.2,0-0.3,0-0.5c0-0.3,0-0.6,0.1-0.9
		c0-0.1,0.1-0.6,0.2-0.3C225.4,237.4,225.3,237.5,225.3,237.7z"/>
	<path class="st0" d="M225.7,235.6c0.1,0.2,0.1,0.3,0.1,0.5"/>
	<path class="st0" d="M225.6,237.2c0-0.3,0-0.6,0-0.8c0-0.1,0-0.3,0-0.4c0-0.1,0-0.1,0-0.2c0-0.1,0-0.1,0.1-0.2"/>
	<path class="st0" d="M225.8,236.1c0,0.2,0,0.4,0,0.7c0,0.1,0,0.2,0,0.3c0,0.1,0.1,0.2-0.1,0.3"/>
	<path class="st0" d="M226.1,234c0,0.2,0,0.3,0,0.5"/>
	<path class="st0" d="M226,234.1c0-0.1,0-0.3,0.1-0.2"/>
	<path class="st0" d="M226.1,234.4c0,0.4,0.1,0.9-0.1,1.3"/>
	<path class="st0" d="M223.3,245.7c0,0.3,0,0.6-0.1,1c0,0.1-0.1,0.5-0.2,0.3c-0.1-0.2-0.1-0.3-0.1-0.5c0-0.3,0-0.6,0.1-1
		c0-0.1,0.1-0.5,0.2-0.3C223.3,245.4,223.3,245.6,223.3,245.7z"/>
	<path class="st0" d="M224.1,244.2c0,0.3,0,0.6-0.1,1c0,0.1-0.1,0.5-0.2,0.3c-0.1-0.2-0.1-0.3-0.1-0.5c0-0.3,0-0.6,0.1-1
		c0-0.1,0.1-0.5,0.2-0.3C224.1,243.9,224.1,244,224.1,244.2z"/>
	<path class="st0" d="M224.8,242.6c0,0.3,0,0.6-0.1,0.9c0,0.1-0.1,0.5-0.2,0.3c-0.1-0.2-0.1-0.3-0.1-0.5c0-0.3,0-0.6,0.1-0.9
		c0-0.1,0.1-0.6,0.2-0.3C224.8,242.3,224.8,242.4,224.8,242.6z"/>
	<path class="st0" d="M225.3,241c0,0.3,0,0.6-0.1,0.9c0,0.1-0.1,0.6-0.2,0.3c-0.1-0.2,0-0.3,0-0.5c0-0.3,0-0.6,0.1-0.9
		c0-0.1,0.1-0.6,0.2-0.3C225.4,240.7,225.3,240.8,225.3,241z"/>
	<path class="st0" d="M225.7,238.9c0.1,0.2,0.1,0.3,0.1,0.5"/>
	<path class="st0" d="M225.6,240.5c0-0.3,0-0.6,0-0.8c0-0.1,0-0.3,0-0.4c0-0.1,0-0.1,0-0.2c0-0.1,0-0.1,0.1-0.2"/>
	<path class="st0" d="M225.8,239.4c0,0.2,0,0.4,0,0.7c0,0.1,0,0.2,0,0.3c0,0.1,0.1,0.2-0.1,0.3"/>
	<path class="st0" d="M226.1,237.3c0,0.2,0,0.3,0,0.5"/>
	<path class="st0" d="M226,239.1c-0.1-0.3,0-0.6,0-0.9c0-0.2,0-0.3,0-0.5c0-0.1,0-0.2,0-0.2c0-0.1,0-0.3,0.1-0.2"/>
	<path class="st0" d="M226.1,237.8c0,0.4,0.1,0.9-0.1,1.3"/>
	<path class="st0" d="M223.3,249.1c0,0.3,0,0.6-0.1,1c0,0.1-0.1,0.5-0.2,0.3c-0.1-0.2-0.1-0.3-0.1-0.5c0-0.3,0-0.6,0.1-1
		c0-0.1,0.1-0.5,0.2-0.3C223.3,248.7,223.3,248.9,223.3,249.1z"/>
	<path class="st0" d="M224.1,247.5c0,0.3,0,0.6-0.1,1c0,0.1-0.1,0.5-0.2,0.3c-0.1-0.2-0.1-0.3-0.1-0.5c0-0.3,0-0.6,0.1-1
		c0-0.1,0.1-0.5,0.2-0.3C224.1,247.2,224.1,247.3,224.1,247.5z"/>
	<path class="st0" d="M224.8,245.9c0,0.3,0,0.6-0.1,0.9c0,0.1-0.1,0.5-0.2,0.3c-0.1-0.2-0.1-0.3-0.1-0.5c0-0.3,0-0.6,0.1-0.9
		c0-0.1,0.1-0.6,0.2-0.3C224.8,245.6,224.8,245.8,224.8,245.9z"/>
	<path class="st0" d="M225.3,244.3c0,0.3,0,0.6-0.1,0.9c0,0.1-0.1,0.6-0.2,0.3c-0.1-0.2,0-0.3,0-0.5c0-0.3,0-0.6,0.1-0.9
		c0-0.1,0.1-0.6,0.2-0.3C225.4,244,225.3,244.2,225.3,244.3z"/>
	<path class="st0" d="M225.7,242.2c0.1,0.2,0.1,0.3,0.1,0.5"/>
	<path class="st0" d="M225.8,242.7c0,0.4-0.2,1.8-0.2,1.1c0-0.3,0-0.5,0-0.8c0-0.1,0-0.3,0-0.4c0-0.1,0-0.2,0.1-0.3c0,0,0-0.1,0-0.1
		"/>
	<path class="st0" d="M226.1,240.6c0,0.2,0,0.3,0,0.5"/>
	<path class="st0" d="M226,240.6C226,240.6,226.1,240.6,226,240.6"/>
	<path class="st0" d="M226.1,241.1c0,0.4,0.1,0.9-0.1,1.3"/>
	<path class="st0" d="M223.3,252.4c0,0.3,0,0.6-0.1,1c0,0.1-0.1,0.5-0.2,0.3c-0.1-0.2-0.1-0.3-0.1-0.5c0-0.3,0-0.6,0.1-1
		c0-0.1,0.1-0.5,0.2-0.3C223.3,252.1,223.3,252.2,223.3,252.4z"/>
	<path class="st0" d="M224.1,250.8c0,0.3,0,0.6-0.1,1c0,0.1-0.1,0.5-0.2,0.3c-0.1-0.2-0.1-0.3-0.1-0.5c0-0.3,0-0.6,0.1-1
		c0-0.1,0.1-0.5,0.2-0.3C224.1,250.5,224.1,250.6,224.1,250.8z"/>
	<path class="st0" d="M224.8,249.2c0,0.3,0,0.6-0.1,0.9c0,0.1-0.1,0.5-0.2,0.3c-0.1-0.2-0.1-0.3-0.1-0.5c0-0.3,0-0.6,0.1-0.9
		c0-0.1,0.1-0.6,0.2-0.3C224.8,248.9,224.8,249.1,224.8,249.2z"/>
	<path class="st0" d="M225.3,247.6c0,0.3,0,0.6-0.1,0.9c0,0.1-0.1,0.6-0.2,0.3c-0.1-0.2,0-0.3,0-0.5c0-0.3,0-0.6,0.1-0.9
		c0-0.1,0.1-0.6,0.2-0.3C225.4,247.3,225.3,247.5,225.3,247.6z"/>
	<path class="st0" d="M223.3,255.7c0,0.3,0,0.6-0.1,1c0,0.1-0.1,0.5-0.2,0.3c-0.1-0.2-0.1-0.3-0.1-0.5c0-0.3,0-0.6,0.1-1
		c0-0.1,0.1-0.5,0.2-0.3C223.3,255.4,223.3,255.5,223.3,255.7z"/>
	<path class="st0" d="M224.1,254.1c0,0.3,0,0.6-0.1,1c0,0.1-0.1,0.5-0.2,0.3c-0.1-0.2-0.1-0.3-0.1-0.5c0-0.3,0-0.6,0.1-1
		c0-0.1,0.1-0.5,0.2-0.3C224.1,253.8,224.1,254,224.1,254.1z"/>
	<path class="st0" d="M220.2,260.3c0,0.4-0.1,0.7-0.2,1c-0.1,0.2-0.1,0.5-0.3,0.3c-0.1-0.2-0.1-0.3-0.1-0.5c0-0.3,0.1-0.7,0.2-1
		c0.1-0.2,0.1-0.5,0.3-0.3C220.2,260,220.2,260.1,220.2,260.3z"/>
	<path class="st0" d="M217.5,260c0,0.4-0.1,0.7-0.2,1c-0.3,0.5-0.5,0.2-0.5-0.3c0-0.4,0.1-0.7,0.2-1
		C217.2,259.3,217.5,259.5,217.5,260z"/>
	<path class="st0" d="M212.5,254.4c0,0.4-0.1,0.7-0.3,1c-0.3,0.4-0.6,0.2-0.6-0.3c0-0.4,0.1-0.7,0.3-1
		C212.2,253.7,212.5,253.9,212.5,254.4z"/>
	<path class="st0" d="M210.6,249.2c0,0.4-0.1,0.7-0.4,1c-0.3,0.4-0.7,0.2-0.7-0.3c0-0.4,0.1-0.7,0.4-1
		C210.3,248.5,210.6,248.7,210.6,249.2z"/>
	<path class="st0" d="M226.3,232.4c0,0.1,0,0.3,0,0.4"/>
	<path class="st0" d="M226.2,232.5c0-0.1,0-0.1,0-0.2"/>
	<path class="st0" d="M226.3,232.8c0,0.4,0,0.8,0,1.2"/>
	<path class="st0" d="M226.3,223c0-0.1,0-0.3,0-0.4"/>
	<path class="st0" d="M226.3,224c0,0,0-0.1,0-0.1"/>
	<path class="st0" d="M225.7,245.5c0.1,0.2,0.1,0.3,0.1,0.5"/>
	<path class="st0" d="M225.8,246c0,0.4-0.2,1.8-0.2,1.1c0-0.3,0-0.5,0-0.8c0-0.1,0-0.3,0-0.4c0-0.1,0-0.2,0.1-0.3c0,0,0-0.1,0-0.1"
		/>
	<path class="st0" d="M224.8,252.5c0,0.3,0,0.6-0.1,0.9c0,0.1-0.1,0.5-0.2,0.3c-0.1-0.2-0.1-0.3-0.1-0.5c0-0.3,0-0.6,0.1-0.9
		c0-0.1,0.1-0.6,0.2-0.3C224.8,252.2,224.8,252.4,224.8,252.5z"/>
	<path class="st0" d="M226.3,206.4c0-0.1,0-0.3,0-0.4"/>
	<path class="st0" d="M226.3,207.4c0,0,0-0.1,0-0.1"/>
</g>
</svg>
