<?xml version="1.0" encoding="utf-8"?>
<svg version="1.1" id="Layer_1" xmlns="http://www.w3.org/2000/svg" xmlns:xlink="http://www.w3.org/1999/xlink" x="0px" y="0px"
	 viewBox="0 0 229.1 320.2" style="enable-background:new 0 0 229.1 320.2;" xml:space="preserve">
<style type="text/css">
	.st0{fill:none;stroke:#FFFFFF;stroke-width:0.25;stroke-linecap:round;stroke-linejoin:round;}
</style>
<title>breactor_outline_wht</title>
<g>
	<path class="st0" d="M87.8,297.1c0,1.1-1.7,0.9-1.8-0.2c0-0.5,0.5-0.8,0.9-0.7C87.4,296.2,87.7,296.6,87.8,297.1z"/>
	<path class="st0" d="M211.5,24.1c22.6,17,17.6,36.9-5,51c-17.3,10.8-41.1,16.3-60.7,18.6c-20.8,2.5-43,2.2-63.8-0.8
		c-19.1-2.8-43.5-9.1-59.7-21.3c-22.6-17-17.6-36.9,5-51C44.7,9.8,68.4,4.3,88.1,2c20.8-2.5,43-2.2,63.8,0.8
		C170.9,5.6,195.3,11.9,211.5,24.1z"/>
	<line class="st0" x1="226.1" y1="48" x2="226.1" y2="160.2"/>
	<line class="st0" x1="7.7" y1="160.2" x2="7.7" y2="48.8"/>
	<path class="st0" d="M11.9,160.2c0,4.6,1.6,8.8,4,12.6c3.3,5,7.5,8.6,12.4,12c8.3,5.7,18.3,9.8,27.9,12.7
		c19.2,5.9,40.8,8.4,60.7,8.4c19.9,0,41.5-2.5,60.7-8.4c9.6-3,19.5-7,27.9-12.7c4.8-3.3,9-6.9,12.3-11.9c2.5-3.8,4.1-8.1,4.1-12.7"
		/>
	<path class="st0" d="M222.4,172.5c-2.6,4.2-5.9,7.5-9.7,10.5c-5.1,4-10.6,7.1-16.5,9.8c-10.3,4.7-20.9,7.8-32,10.2
		c-21.6,4.5-45.1,5.7-67,3.9c-21-1.7-45.7-6.5-64.8-16.7c-5.6-3-10.8-6.4-15.4-10.9c-3.6-3.6-6.4-7.3-8.1-12.1
		c-4.1-12,3-22.3,11.5-29.3"/>
	<path class="st0" d="M213.4,137.9c10.8,8.9,17.3,21.1,9,34.6"/>
	<path class="st0" d="M222.4,284.9c-10,16.2-35.7,25.1-51.8,29.1c-19.3,4.8-40.4,6.6-60.2,6.1c-19.7-0.5-40.9-3.4-59.7-9.7
		c-9.4-3.1-19.1-7.4-27.2-13.2c-4.7-3.4-8.7-7-11.9-12c-2.5-4-3.9-7.8-3.9-12.5"/>
	<path class="st0" d="M226.1,272.6c0,4.6-1.3,8.4-3.7,12.3"/>
	<path class="st0" d="M89.6,224.2c0,1.1-1.7,0.9-1.8-0.2c0-0.5,0.5-0.8,0.9-0.7C89.2,223.4,89.5,223.8,89.6,224.2z"/>
	<path class="st0" d="M89.5,224.1c-0.6,0.2-1.2-0.2-1.3-0.8"/>
	<path class="st0" d="M94.9,301.1c0,1.1-1.7,0.9-1.8-0.2c0-0.5,0.5-0.8,0.9-0.7C94.5,300.3,94.9,300.6,94.9,301.1z"/>
	<path class="st0" d="M94.9,301c-0.6,0.2-1.2-0.2-1.3-0.8"/>
	<path class="st0" d="M91.3,300.8c0,1.1-1.7,0.9-1.8-0.2c0-0.5,0.5-0.8,0.9-0.7C91,299.9,91.3,300.3,91.3,300.8z"/>
	<path class="st0" d="M91.3,300.7c-0.6,0.2-1.2-0.2-1.3-0.8"/>
	<path class="st0" d="M98.6,298.1c0,1.1-1.8,1-1.8-0.1c0-0.5,0.5-0.8,0.9-0.8C98.2,297.2,98.5,297.6,98.6,298.1z"/>
	<path class="st0" d="M98.6,298c-0.6,0.2-1.2-0.1-1.3-0.7"/>
	<path class="st0" d="M94.9,297.8c0,1.1-1.7,0.9-1.8-0.2c0-0.5,0.5-0.8,0.9-0.7C94.5,296.9,94.9,297.3,94.9,297.8z"/>
	<path class="st0" d="M94.9,297.7c-0.6,0.2-1.2-0.2-1.3-0.8"/>
	<path class="st0" d="M91.3,297.5c0,1.1-1.7,0.9-1.8-0.2c0-0.5,0.5-0.8,0.9-0.7C91,296.6,91.3,297,91.3,297.5z"/>
	<path class="st0" d="M91.3,297.4c-0.6,0.2-1.2-0.2-1.3-0.8"/>
	<path class="st0" d="M102.2,295c-0.1,1.1-1.8,1-1.8-0.1c0-0.5,0.5-0.8,0.9-0.8C101.8,294.2,102.2,294.5,102.2,295z"/>
	<path class="st0" d="M102.2,294.9c-0.6,0.2-1.2-0.1-1.3-0.7"/>
	<path class="st0" d="M98.6,294.8c0,1.1-1.8,1-1.8-0.1c0-0.5,0.5-0.8,0.9-0.8C98.2,293.9,98.5,294.3,98.6,294.8z"/>
	<path class="st0" d="M98.6,294.7c-0.6,0.2-1.2-0.1-1.3-0.7"/>
	<path class="st0" d="M94.9,294.5c0,1.1-1.7,0.9-1.8-0.2c0-0.5,0.5-0.8,0.9-0.7C94.5,293.6,94.9,294,94.9,294.5z"/>
	<path class="st0" d="M94.9,294.4c-0.6,0.2-1.2-0.2-1.3-0.8"/>
	<path class="st0" d="M91.3,294.1c0,1.1-1.7,0.9-1.8-0.2c0-0.5,0.5-0.8,0.9-0.7C91,293.3,91.3,293.7,91.3,294.1z"/>
	<path class="st0" d="M91.3,294c-0.6,0.2-1.2-0.2-1.3-0.8"/>
	<path class="st0" d="M102.2,291.7c-0.1,1.1-1.8,1-1.8-0.1c0-0.5,0.5-0.8,0.9-0.8C101.8,290.8,102.2,291.2,102.2,291.7z"/>
	<path class="st0" d="M102.2,291.6c-0.6,0.2-1.2-0.1-1.3-0.7"/>
	<path class="st0" d="M98.6,291.5c0,1.1-1.8,1-1.8-0.1c0-0.5,0.5-0.8,0.9-0.8C98.2,290.6,98.5,291,98.6,291.5z"/>
	<path class="st0" d="M98.6,291.4c-0.6,0.2-1.2-0.1-1.3-0.7"/>
	<path class="st0" d="M94.9,291.2c0,1.1-1.7,0.9-1.8-0.2c0-0.5,0.5-0.8,0.9-0.7C94.5,290.3,94.9,290.7,94.9,291.2z"/>
	<path class="st0" d="M94.9,291.1c-0.6,0.2-1.2-0.2-1.3-0.8"/>
	<path class="st0" d="M91.3,290.8c0,1.1-1.7,0.9-1.8-0.2c0-0.5,0.5-0.8,0.9-0.7C91,290,91.3,290.3,91.3,290.8z"/>
	<path class="st0" d="M91.3,290.7c-0.6,0.2-1.2-0.2-1.3-0.8"/>
	<path class="st0" d="M87.8,300.4c0,1.1-1.7,0.9-1.8-0.2c0-0.5,0.5-0.8,0.9-0.7C87.4,299.5,87.7,299.9,87.8,300.4z"/>
	<path class="st0" d="M87.8,300.3c-0.6,0.2-1.2-0.2-1.3-0.8"/>
	<path class="st0" d="M84.2,299.9c0,0.5-0.5,0.8-0.9,0.7c-0.5-0.1-0.8-0.5-0.8-0.9c0-0.5,0.5-0.8,0.9-0.7
		C83.9,299.1,84.2,299.4,84.2,299.9z"/>
	<path class="st0" d="M84.2,299.8c-0.6,0.2-1.2-0.2-1.3-0.8"/>
	<path class="st0" d="M87.8,296.9c-0.6,0.2-1.2-0.2-1.3-0.8"/>
	<path class="st0" d="M84.2,296.6c0,0.5-0.5,0.8-0.9,0.7c-0.5-0.1-0.8-0.5-0.8-0.9c0-0.5,0.5-0.8,0.9-0.7
		C83.9,295.7,84.2,296.1,84.2,296.6z"/>
	<path class="st0" d="M84.2,296.5c-0.6,0.2-1.2-0.2-1.3-0.8"/>
	<path class="st0" d="M80.7,296.1c0,0.5-0.5,0.8-0.9,0.7c-0.5-0.1-0.8-0.5-0.8-1c0-0.5,0.5-0.8,0.9-0.7
		C80.4,295.2,80.7,295.6,80.7,296.1z"/>
	<path class="st0" d="M80.7,296c-0.6,0.2-1.1-0.3-1.2-0.8"/>
	<path class="st0" d="M87.8,293.7c0,1.1-1.7,0.9-1.8-0.2c0-0.5,0.5-0.8,0.9-0.7C87.4,292.9,87.7,293.3,87.8,293.7z"/>
	<path class="st0" d="M87.8,293.6c-0.6,0.2-1.2-0.2-1.3-0.8"/>
	<path class="st0" d="M84.2,293.3c0,0.5-0.5,0.8-0.9,0.7c-0.5-0.1-0.8-0.5-0.8-0.9c0-0.5,0.5-0.8,0.9-0.7
		C83.9,292.4,84.2,292.8,84.2,293.3z"/>
	<path class="st0" d="M84.2,293.2c-0.6,0.2-1.2-0.2-1.3-0.8"/>
	<path class="st0" d="M80.7,292.8c0,0.5-0.5,0.8-0.9,0.7c-0.5-0.1-0.8-0.5-0.8-1c0-0.5,0.5-0.8,0.9-0.7
		C80.4,291.9,80.7,292.3,80.7,292.8z"/>
	<path class="st0" d="M80.7,292.7c-0.6,0.2-1.1-0.3-1.2-0.8"/>
	<path class="st0" d="M77.3,292.2c0,0.5-0.5,0.8-0.9,0.7c-0.4-0.1-0.8-0.5-0.8-1c0-0.5,0.5-0.8,0.9-0.7
		C76.9,291.4,77.2,291.8,77.3,292.2z"/>
	<path class="st0" d="M77.3,292.1c-0.6,0.2-1.1-0.3-1.2-0.8"/>
	<path class="st0" d="M87.8,290.4c0,1.1-1.7,0.9-1.8-0.2c0-0.5,0.5-0.8,0.9-0.7C87.4,289.6,87.7,289.9,87.8,290.4z"/>
	<path class="st0" d="M87.8,290.3c-0.6,0.2-1.2-0.2-1.3-0.8"/>
	<path class="st0" d="M84.2,290c0,0.5-0.5,0.8-0.9,0.7c-0.5-0.1-0.8-0.5-0.8-0.9c0-0.5,0.5-0.8,0.9-0.7
		C83.9,289.1,84.2,289.5,84.2,290z"/>
	<path class="st0" d="M84.2,289.8c-0.6,0.2-1.2-0.2-1.3-0.8"/>
	<path class="st0" d="M80.7,289.5c0,0.5-0.5,0.8-0.9,0.7c-0.5-0.1-0.8-0.5-0.8-1c0-0.5,0.5-0.8,0.9-0.7
		C80.4,288.6,80.7,289,80.7,289.5z"/>
	<line class="st0" x1="7.7" y1="230.1" x2="7.8" y2="230.1"/>
	<line class="st0" x1="7.7" y1="216.9" x2="7.8" y2="216.9"/>
	<line class="st0" x1="7.7" y1="220.2" x2="7.8" y2="220.2"/>
	<line class="st0" x1="7.7" y1="223.5" x2="7.8" y2="223.5"/>
	<line class="st0" x1="7.7" y1="226.8" x2="7.8" y2="226.8"/>
	<line class="st0" x1="7.7" y1="213.5" x2="7.8" y2="213.5"/>
	<line class="st0" x1="7.7" y1="210.2" x2="7.8" y2="210.2"/>
	<line class="st0" x1="7.7" y1="206.9" x2="7.8" y2="206.9"/>
	<line class="st0" x1="7.7" y1="203.6" x2="7.8" y2="203.6"/>
	<line class="st0" x1="7.7" y1="200.3" x2="7.8" y2="200.3"/>
	<line class="st0" x1="7.7" y1="200.9" x2="7.7" y2="161"/>
	<line class="st0" x1="7.7" y1="204.2" x2="7.7" y2="202.1"/>
	<line class="st0" x1="7.7" y1="207.5" x2="7.7" y2="205.4"/>
	<line class="st0" x1="7.7" y1="210.8" x2="7.7" y2="210.1"/>
	<line class="st0" x1="7.7" y1="214.1" x2="7.7" y2="213.4"/>
	<line class="st0" x1="7.7" y1="217.5" x2="7.7" y2="216.7"/>
	<line class="st0" x1="7.7" y1="220.8" x2="7.7" y2="219.6"/>
	<line class="st0" x1="7.7" y1="224.1" x2="7.7" y2="222.9"/>
	<line class="st0" x1="7.7" y1="227.4" x2="7.7" y2="226.2"/>
	<line class="st0" x1="7.7" y1="230.7" x2="7.7" y2="228.6"/>
	<line class="st0" x1="7.7" y1="272.6" x2="7.7" y2="231.9"/>
	<line class="st0" x1="226.1" y1="232.5" x2="226.1" y2="272.6"/>
	<line class="st0" x1="226.1" y1="229.2" x2="226.1" y2="230.7"/>
	<line class="st0" x1="226.1" y1="225.9" x2="226.1" y2="227.4"/>
	<line class="st0" x1="226.1" y1="222.6" x2="226.1" y2="224.1"/>
	<line class="st0" x1="226.1" y1="219.2" x2="226.1" y2="220.7"/>
	<line class="st0" x1="226.1" y1="215.9" x2="226.1" y2="217.4"/>
	<line class="st0" x1="226.1" y1="212.6" x2="226.1" y2="214.1"/>
	<line class="st0" x1="226.1" y1="209.3" x2="226.1" y2="210.8"/>
	<line class="st0" x1="226.1" y1="206" x2="226.1" y2="207.5"/>
	<line class="st0" x1="226.1" y1="202.6" x2="226.1" y2="204.1"/>
	<line class="st0" x1="226.1" y1="160.6" x2="226.1" y2="200.8"/>
	<line class="st0" x1="222" y1="157.5" x2="222" y2="160.2"/>
	<line class="st0" x1="11.9" y1="160.2" x2="11.9" y2="157.7"/>
	<path class="st0" d="M80.7,289.3c-0.6,0.2-1.1-0.3-1.2-0.8"/>
	<path class="st0" d="M77.3,288.9c0,0.5-0.5,0.8-0.9,0.7c-0.4-0.1-0.8-0.5-0.8-1c0-0.5,0.5-0.8,0.9-0.7
		C76.9,288,77.2,288.4,77.3,288.9z"/>
	<path class="st0" d="M77.3,288.8c-0.6,0.2-1.1-0.3-1.2-0.8"/>
	<path class="st0" d="M84.2,276.7c0,0.5-0.5,0.8-0.9,0.7c-0.5-0.1-0.8-0.5-0.8-0.9c0-0.5,0.5-0.8,0.9-0.7
		C83.9,275.8,84.2,276.2,84.2,276.7z"/>
	<path class="st0" d="M162.4,315.8c1.7,0.4,3.4,0.4,5.2,0.1c1.2-0.2,3.8-0.8,4.5-2.2"/>
	<path class="st0" d="M165.3,315.2c2.1,0,5.1-0.4,7-1.7"/>
	<path class="st0" d="M84.2,276.6c-0.6,0.2-1.2-0.2-1.3-0.8"/>
	<path class="st0" d="M87.8,277.1c0,1.1-1.7,0.9-1.8-0.2c0-0.5,0.5-0.8,0.9-0.7C87.4,276.3,87.7,276.7,87.8,277.1z"/>
	<path class="st0" d="M87.8,277c-0.6,0.2-1.2-0.2-1.3-0.8"/>
	<path class="st0" d="M80.7,279.5c0,0.5-0.5,0.8-0.9,0.7c-0.5-0.1-0.8-0.5-0.8-1c0-0.5,0.5-0.8,0.9-0.7
		C80.4,278.6,80.7,279,80.7,279.5z"/>
	<path class="st0" d="M80.7,279.4c-0.6,0.2-1.1-0.3-1.2-0.8"/>
	<path class="st0" d="M84.2,280c0,0.5-0.5,0.8-0.9,0.7c-0.5-0.1-0.8-0.5-0.8-0.9c0-0.5,0.5-0.8,0.9-0.7
		C83.9,279.2,84.2,279.5,84.2,280z"/>
	<path class="st0" d="M84.2,279.9c-0.6,0.2-1.2-0.2-1.3-0.8"/>
	<path class="st0" d="M87.8,280.5c0,1.1-1.7,0.9-1.8-0.2c0-0.5,0.5-0.8,0.9-0.7C87.4,279.6,87.7,280,87.8,280.5z"/>
	<path class="st0" d="M87.8,280.4c-0.6,0.2-1.2-0.2-1.3-0.8"/>
	<path class="st0" d="M77.3,282.3c0,0.5-0.5,0.8-0.9,0.7c-0.4-0.1-0.8-0.5-0.8-1c0-0.5,0.5-0.8,0.9-0.7
		C76.9,281.4,77.2,281.8,77.3,282.3z"/>
	<path class="st0" d="M77.3,282.1c-0.6,0.2-1.1-0.3-1.2-0.8"/>
	<path class="st0" d="M80.7,282.8c0,0.5-0.5,0.8-0.9,0.7c-0.5-0.1-0.8-0.5-0.8-1c0-0.5,0.5-0.8,0.9-0.7
		C80.4,282,80.7,282.4,80.7,282.8z"/>
	<path class="st0" d="M80.7,282.7c-0.6,0.2-1.1-0.3-1.2-0.8"/>
	<path class="st0" d="M84.2,283.3c0,0.5-0.5,0.8-0.9,0.7c-0.5-0.1-0.8-0.5-0.8-0.9c0-0.5,0.5-0.8,0.9-0.7
		C83.9,282.5,84.2,282.9,84.2,283.3z"/>
	<path class="st0" d="M84.2,283.2c-0.6,0.2-1.2-0.2-1.3-0.8"/>
	<path class="st0" d="M87.8,283.8c0,1.1-1.7,0.9-1.8-0.2c0-0.5,0.5-0.8,0.9-0.7C87.4,282.9,87.7,283.3,87.8,283.8z"/>
	<path class="st0" d="M87.8,283.7c-0.6,0.2-1.2-0.2-1.3-0.8"/>
	<path class="st0" d="M77.3,285.6c0,0.5-0.5,0.8-0.9,0.7c-0.4-0.1-0.8-0.5-0.8-1c0-0.5,0.5-0.8,0.9-0.7
		C76.9,284.7,77.2,285.1,77.3,285.6z"/>
	<path class="st0" d="M77.3,285.4c-0.6,0.2-1.1-0.3-1.2-0.8"/>
	<path class="st0" d="M80.7,286.1c0,0.5-0.5,0.8-0.9,0.7c-0.5-0.1-0.8-0.5-0.8-1c0-0.5,0.5-0.8,0.9-0.7
		C80.4,285.3,80.7,285.7,80.7,286.1z"/>
	<path class="st0" d="M80.7,286c-0.6,0.2-1.1-0.3-1.2-0.8"/>
	<path class="st0" d="M84.2,286.6c0,0.5-0.5,0.8-0.9,0.7c-0.5-0.1-0.8-0.5-0.8-0.9c0-0.5,0.5-0.8,0.9-0.7
		C83.9,285.8,84.2,286.2,84.2,286.6z"/>
	<path class="st0" d="M84.2,286.5c-0.6,0.2-1.2-0.2-1.3-0.8"/>
	<path class="st0" d="M87.8,287.1c0,1.1-1.7,0.9-1.8-0.2c0-0.5,0.5-0.8,0.9-0.7C87.4,286.2,87.7,286.6,87.8,287.1z"/>
	<path class="st0" d="M87.8,287c-0.6,0.2-1.2-0.2-1.3-0.8"/>
	<path class="st0" d="M91.3,277.5c0,1.1-1.7,0.9-1.8-0.2c0-0.5,0.5-0.8,0.9-0.7C91,276.7,91.3,277.1,91.3,277.5z"/>
	<path class="st0" d="M91.3,277.4c-0.6,0.2-1.2-0.2-1.3-0.8"/>
	<path class="st0" d="M94.9,277.9c0,1.1-1.7,0.9-1.8-0.2c0-0.5,0.5-0.8,0.9-0.7C94.5,277,94.9,277.4,94.9,277.9z"/>
	<path class="st0" d="M94.9,277.8c-0.6,0.2-1.2-0.2-1.3-0.8"/>
	<path class="st0" d="M91.3,280.9c0,1.1-1.7,0.9-1.8-0.2c0-0.5,0.5-0.8,0.9-0.7C91,280,91.3,280.4,91.3,280.9z"/>
	<path class="st0" d="M91.3,280.8c-0.6,0.2-1.2-0.2-1.3-0.8"/>
	<path class="st0" d="M94.9,281.2c0,1.1-1.7,0.9-1.8-0.2c0-0.5,0.5-0.8,0.9-0.7C94.5,280.4,94.9,280.7,94.9,281.2z"/>
	<path class="st0" d="M94.9,281.1c-0.6,0.2-1.2-0.2-1.3-0.8"/>
	<path class="st0" d="M98.6,281.5c0,1.1-1.8,1-1.8-0.1c0-0.5,0.5-0.8,0.9-0.8C98.2,280.7,98.5,281,98.6,281.5z"/>
	<path class="st0" d="M98.6,281.4c-0.6,0.2-1.2-0.1-1.3-0.7"/>
	<path class="st0" d="M91.3,284.2c0,1.1-1.7,0.9-1.8-0.2c0-0.5,0.5-0.8,0.9-0.7C91,283.3,91.3,283.7,91.3,284.2z"/>
	<path class="st0" d="M91.3,284.1c-0.6,0.2-1.2-0.2-1.3-0.8"/>
	<path class="st0" d="M94.9,284.5c0,1.1-1.7,0.9-1.8-0.2c0-0.5,0.5-0.8,0.9-0.7C94.5,283.7,94.9,284.1,94.9,284.5z"/>
	<path class="st0" d="M94.9,284.4c-0.6,0.2-1.2-0.2-1.3-0.8"/>
	<path class="st0" d="M98.6,284.8c0,1.1-1.8,1-1.8-0.1c0-0.5,0.5-0.8,0.9-0.8C98.2,284,98.5,284.4,98.6,284.8z"/>
	<path class="st0" d="M98.6,284.7c-0.6,0.2-1.2-0.1-1.3-0.7"/>
	<path class="st0" d="M102.2,285.1c-0.1,1.1-1.8,1-1.8-0.1c0-0.5,0.5-0.8,0.9-0.8C101.8,284.2,102.2,284.6,102.2,285.1z"/>
	<path class="st0" d="M102.2,285c-0.6,0.2-1.2-0.1-1.3-0.7"/>
	<path class="st0" d="M91.3,287.5c0,1.1-1.7,0.9-1.8-0.2c0-0.5,0.5-0.8,0.9-0.7C91,286.6,91.3,287,91.3,287.5z"/>
	<path class="st0" d="M91.3,287.4c-0.6,0.2-1.2-0.2-1.3-0.8"/>
	<path class="st0" d="M94.9,287.8c0,1.1-1.7,0.9-1.8-0.2c0-0.5,0.5-0.8,0.9-0.7C94.5,287,94.9,287.4,94.9,287.8z"/>
	<path class="st0" d="M94.9,287.8c-0.6,0.2-1.2-0.2-1.3-0.8"/>
	<path class="st0" d="M98.6,288.1c0,1.1-1.8,1-1.8-0.1c0-0.5,0.5-0.8,0.9-0.8C98.2,287.3,98.5,287.7,98.6,288.1z"/>
	<path class="st0" d="M98.6,288.1c-0.6,0.2-1.2-0.1-1.3-0.7"/>
	<path class="st0" d="M102.2,288.4c-0.1,1.1-1.8,1-1.8-0.1c0-0.5,0.5-0.8,0.9-0.8C101.8,287.5,102.2,287.9,102.2,288.4z"/>
	<path class="st0" d="M102.2,288.3c-0.6,0.2-1.2-0.1-1.3-0.7"/>
	<path class="st0" d="M7.7,200.9c0,0.4,0,0.8,0,1.2"/>
	<path class="st0" d="M7.8,198.6c-0.1,0.5-0.1,1.1,0,1.6"/>
	<path class="st0" d="M7.7,204.2c0,0.4,0,0.8,0,1.2"/>
	<path class="st0" d="M7.8,202.1c0,0.5,0,1,0,1.5"/>
	<path class="st0" d="M7.7,209.1c0-0.1,0-0.2,0-0.3"/>
	<path class="st0" d="M7.8,208.8c0,0.2,0.1,1.5,0,1.7"/>
	<path class="st0" d="M7.8,210.3c0-0.4,0-0.8,0-1.2"/>
	<path class="st0" d="M7.7,207.5c0,0.4,0,0.7,0,1.1"/>
	<path class="st0" d="M7.8,205.4c0,0.5,0,1,0,1.5"/>
	<path class="st0" d="M7.7,212.4c0-0.1,0-0.2,0-0.3"/>
	<path class="st0" d="M7.8,212.1c0,0.2,0.1,1.5,0,1.7"/>
	<path class="st0" d="M7.8,213.6c0-0.4,0-0.8,0-1.2"/>
	<path class="st0" d="M7.7,210.8c0,0.4,0,0.7,0,1.1"/>
	<path class="st0" d="M7.7,215.7c0-0.1,0-0.2,0-0.3"/>
	<path class="st0" d="M7.8,215.4c0,0.2,0.1,1.5,0,1.7"/>
	<path class="st0" d="M7.8,216.9c0-0.4,0-0.8,0-1.2"/>
	<path class="st0" d="M7.7,214.2c0,0.4,0,0.7,0,1.1"/>
	<path class="st0" d="M7.8,232c0,0.2-0.1,1.5,0,1.6"/>
	<path class="st0" d="M7.8,228.7c0,0.5,0,1,0,1.5"/>
	<path class="st0" d="M7.7,227.4c0,0.4,0,0.8,0,1.2"/>
	<path class="st0" d="M7.7,224.1c0,0.3,0,0.7,0,1"/>
	<path class="st0" d="M7.7,220.8c0,0.3,0,0.7,0,1"/>
	<path class="st0" d="M7.7,222.3c0-0.1,0-0.3,0-0.4"/>
	<path class="st0" d="M7.8,221.9c0,0.2,0.1,1.6,0,1.8"/>
	<path class="st0" d="M7.7,223c0-0.2,0-0.4,0-0.7"/>
	<path class="st0" d="M7.7,217.5c0,0.3,0,0.7,0,1"/>
	<path class="st0" d="M7.7,219c0-0.1,0-0.3,0-0.4"/>
	<path class="st0" d="M7.8,218.6c0,0.2,0.1,1.6,0,1.8"/>
	<path class="st0" d="M7.7,219.7c0-0.2,0-0.4,0-0.7"/>
	<path class="st0" d="M7.7,230.8c0,0.4,0,0.8,0,1.2"/>
	<path class="st0" d="M7.7,225.7c0-0.1,0-0.3,0-0.4"/>
	<path class="st0" d="M7.8,225.2c0,0.2,0.1,1.6,0,1.8"/>
	<path class="st0" d="M7.7,226.3c0-0.2,0-0.4,0-0.7"/>
	<path class="st0" d="M224.6,196.2c0,0.3,0,0.6-0.1,0.9c0,0.1-0.1,0.5-0.2,0.3c-0.1-0.2-0.1-0.3-0.1-0.5c0-0.3,0-0.6,0.1-0.9
		c0-0.1,0.1-0.6,0.2-0.3C224.6,195.9,224.6,196,224.6,196.2z"/>
	<path class="st0" d="M225.6,196.3c0,0.2,0,0.4,0,0.7c0,0.1,0,0.2,0,0.3c0,0.1,0.1,0.2-0.1,0.3"/>
	<path class="st0" d="M225.5,195.8C225.5,195.8,225.5,195.8,225.5,195.8"/>
	<path class="st0" d="M225.5,195.8c0.1,0.2,0.1,0.3,0.1,0.5"/>
	<path class="st0" d="M76.4,281.3c0,0.2-0.1,0.3-0.1,0.5"/>
	<path class="st0" d="M76.8,288.1c0.1,0.2,0.2,0.5,0.3,0.7"/>
	<path class="st0" d="M76.1,284.6c0,0.1,0,0.2,0,0.3"/>
	<path class="st0" d="M76.8,292.1c-0.1-0.3-0.3-0.6-0.4-0.8"/>
	<path class="st0" d="M84.2,299.7c-0.4-0.2-0.8-0.5-1.2-0.7"/>
	<path class="st0" d="M225.9,217.4c0,0.1,0,0.1,0,0.2"/>
	<path class="st0" d="M225.8,217.6c0-0.1,0-0.3,0.1-0.2"/>
	<path class="st0" d="M225.9,217.9c0,0.4,0.1,0.9-0.1,1.3"/>
	<path class="st0" d="M225.5,219c0.1,0.2,0.1,0.3,0.1,0.5"/>
	<path class="st0" d="M225.4,220.6c0-0.3,0-0.6,0-0.8c0-0.1,0-0.3,0-0.4c0-0.1,0-0.1,0-0.2c0-0.1,0-0.1,0.1-0.2"/>
	<path class="st0" d="M225.6,219.5c0,0.2,0,0.4,0,0.7c0,0.1,0,0.2,0,0.3c0,0.1,0.1,0.2-0.1,0.3"/>
	<path class="st0" d="M225.1,221.1c0,0.3,0,0.6-0.1,0.9c0,0.1-0.1,0.6-0.2,0.3c-0.1-0.2,0-0.3,0-0.5c0-0.3,0-0.6,0.1-0.9
		c0-0.1,0.1-0.6,0.2-0.3C225.2,220.8,225.1,221,225.1,221.1z"/>
	<path class="st0" d="M224.6,222.7c0,0.3,0,0.6-0.1,0.9c0,0.1-0.1,0.5-0.2,0.3c-0.1-0.2-0.1-0.3-0.1-0.5c0-0.3,0-0.6,0.1-0.9
		c0-0.1,0.1-0.6,0.2-0.3C224.6,222.4,224.6,222.6,224.6,222.7z"/>
	<path class="st0" d="M223.9,224.3c0,0.3,0,0.6-0.1,1c0,0.1-0.1,0.5-0.2,0.3c-0.1-0.2-0.1-0.3-0.1-0.5c0-0.3,0-0.6,0.1-1
		c0-0.1,0.1-0.5,0.2-0.3C223.9,224,223.9,224.2,223.9,224.3z"/>
	<path class="st0" d="M223.1,225.9c0,0.3,0,0.6-0.1,1c0,0.1-0.1,0.5-0.2,0.3c-0.1-0.2-0.1-0.3-0.1-0.5c0-0.3,0-0.6,0.1-1
		c0-0.1,0.1-0.5,0.2-0.3C223.1,225.6,223.1,225.7,223.1,225.9z"/>
	<path class="st0" d="M225.9,214.1c0,0.1,0,0.1,0,0.2"/>
	<path class="st0" d="M225.8,214.3c0-0.1,0-0.3,0.1-0.2"/>
	<path class="st0" d="M225.9,214.6c0,0.4,0.1,0.9-0.1,1.3"/>
	<path class="st0" d="M225.5,215.7c0.1,0.2,0.1,0.3,0.1,0.5"/>
	<path class="st0" d="M225.4,217.3c0-0.3,0-0.6,0-0.8c0-0.1,0-0.3,0-0.4c0-0.1,0-0.1,0-0.2c0-0.1,0-0.1,0.1-0.2"/>
	<path class="st0" d="M225.6,216.2c0,0.2,0,0.4,0,0.7c0,0.1,0,0.2,0,0.3c0,0.1,0.1,0.2-0.1,0.3"/>
	<path class="st0" d="M225.1,217.8c0,0.3,0,0.6-0.1,0.9c0,0.1-0.1,0.6-0.2,0.3c-0.1-0.2,0-0.3,0-0.5c0-0.3,0-0.6,0.1-0.9
		c0-0.1,0.1-0.6,0.2-0.3C225.2,217.5,225.1,217.7,225.1,217.8z"/>
	<path class="st0" d="M224.6,219.4c0,0.3,0,0.6-0.1,0.9c0,0.1-0.1,0.5-0.2,0.3c-0.1-0.2-0.1-0.3-0.1-0.5c0-0.3,0-0.6,0.1-0.9
		c0-0.1,0.1-0.6,0.2-0.3C224.6,219.1,224.6,219.3,224.6,219.4z"/>
	<path class="st0" d="M223.9,221c0,0.3,0,0.6-0.1,1c0,0.1-0.1,0.5-0.2,0.3c-0.1-0.2-0.1-0.3-0.1-0.5c0-0.3,0-0.6,0.1-1
		c0-0.1,0.1-0.5,0.2-0.3C223.9,220.7,223.9,220.8,223.9,221z"/>
	<path class="st0" d="M223.1,222.6c0,0.3,0,0.6-0.1,1c0,0.1-0.1,0.5-0.2,0.3c-0.1-0.2-0.1-0.3-0.1-0.5c0-0.3,0-0.6,0.1-1
		c0-0.1,0.1-0.5,0.2-0.3C223.1,222.2,223.1,222.4,223.1,222.6z"/>
	<path class="st0" d="M225.9,210.8c0,0.1,0,0.1,0,0.2"/>
	<path class="st0" d="M225.8,210.9c0-0.1,0-0.3,0.1-0.2"/>
	<path class="st0" d="M225.9,211.3c0,0.4,0.1,0.9-0.1,1.3"/>
	<path class="st0" d="M225.5,212.4c0.1,0.2,0.1,0.3,0.1,0.5"/>
	<path class="st0" d="M225.4,214c0-0.3,0-0.6,0-0.8c0-0.1,0-0.3,0-0.4c0-0.1,0-0.1,0-0.2c0-0.1,0-0.1,0.1-0.2"/>
	<path class="st0" d="M225.6,212.9c0,0.2,0,0.4,0,0.7c0,0.1,0,0.2,0,0.3c0,0.1,0.1,0.2-0.1,0.3"/>
	<path class="st0" d="M225.1,214.5c0,0.3,0,0.6-0.1,0.9c0,0.1-0.1,0.6-0.2,0.3c-0.1-0.2,0-0.3,0-0.5c0-0.3,0-0.6,0.1-0.9
		c0-0.1,0.1-0.6,0.2-0.3C225.2,214.2,225.1,214.3,225.1,214.5z"/>
	<path class="st0" d="M224.6,216.1c0,0.3,0,0.6-0.1,0.9c0,0.1-0.1,0.5-0.2,0.3c-0.1-0.2-0.1-0.3-0.1-0.5c0-0.3,0-0.6,0.1-0.9
		c0-0.1,0.1-0.6,0.2-0.3C224.6,215.8,224.6,215.9,224.6,216.1z"/>
	<path class="st0" d="M223.9,217.7c0,0.3,0,0.6-0.1,1c0,0.1-0.1,0.5-0.2,0.3c-0.1-0.2-0.1-0.3-0.1-0.5c0-0.3,0-0.6,0.1-1
		c0-0.1,0.1-0.5,0.2-0.3C223.9,217.4,223.9,217.5,223.9,217.7z"/>
	<path class="st0" d="M223.1,219.2c0,0.3,0,0.6-0.1,1c0,0.1-0.1,0.5-0.2,0.3c-0.1-0.2-0.1-0.3-0.1-0.5c0-0.3,0-0.6,0.1-1
		c0-0.1,0.1-0.5,0.2-0.3C223.1,218.9,223.1,219.1,223.1,219.2z"/>
	<path class="st0" d="M225.9,207.5c0,0.1,0,0.1,0,0.2"/>
	<path class="st0" d="M225.8,207.6c0-0.1,0-0.3,0.1-0.2"/>
	<path class="st0" d="M225.9,207.9c0,0.4,0.1,0.9-0.1,1.3"/>
	<path class="st0" d="M225.5,209.1c0.1,0.2,0.1,0.3,0.1,0.5"/>
	<path class="st0" d="M225.4,210.7c0-0.3,0-0.6,0-0.8c0-0.1,0-0.3,0-0.4c0-0.1,0-0.1,0-0.2c0-0.1,0-0.1,0.1-0.2"/>
	<path class="st0" d="M225.6,209.6c0,0.2,0,0.4,0,0.7c0,0.1,0,0.2,0,0.3c0,0.1,0.1,0.2-0.1,0.3"/>
	<path class="st0" d="M225.1,211.2c0,0.3,0,0.6-0.1,0.9c0,0.1-0.1,0.6-0.2,0.3c-0.1-0.2,0-0.3,0-0.5c0-0.3,0-0.6,0.1-0.9
		c0-0.1,0.1-0.6,0.2-0.3C225.2,210.9,225.1,211,225.1,211.2z"/>
	<path class="st0" d="M224.6,212.8c0,0.3,0,0.6-0.1,0.9c0,0.1-0.1,0.5-0.2,0.3c-0.1-0.2-0.1-0.3-0.1-0.5c0-0.3,0-0.6,0.1-0.9
		c0-0.1,0.1-0.6,0.2-0.3C224.6,212.5,224.6,212.6,224.6,212.8z"/>
	<path class="st0" d="M223.9,214.4c0,0.3,0,0.6-0.1,1c0,0.1-0.1,0.5-0.2,0.3c-0.1-0.2-0.1-0.3-0.1-0.5c0-0.3,0-0.6,0.1-1
		c0-0.1,0.1-0.5,0.2-0.3C223.9,214,223.9,214.2,223.9,214.4z"/>
	<path class="st0" d="M223.1,215.9c0,0.3,0,0.6-0.1,1c0,0.1-0.1,0.5-0.2,0.3c-0.1-0.2-0.1-0.3-0.1-0.5c0-0.3,0-0.6,0.1-1
		c0-0.1,0.1-0.5,0.2-0.3C223.1,215.6,223.1,215.8,223.1,215.9z"/>
	<path class="st0" d="M225.9,204.1c0,0.2,0,0.3,0,0.5"/>
	<path class="st0" d="M225.8,204.3c0-0.1,0-0.3,0.1-0.2"/>
	<path class="st0" d="M225.9,204.6c0,0.4,0.1,0.9-0.1,1.3"/>
	<path class="st0" d="M225.5,205.7c0.1,0.2,0.1,0.3,0.1,0.5"/>
	<path class="st0" d="M225.4,207.4c0-0.3,0-0.6,0-0.8c0-0.1,0-0.3,0-0.4c0-0.1,0-0.1,0-0.2c0-0.1,0-0.1,0.1-0.2"/>
	<path class="st0" d="M225.6,206.3c0,0.2,0,0.4,0,0.7c0,0.1,0,0.2,0,0.3c0,0.1,0.1,0.2-0.1,0.3"/>
	<path class="st0" d="M225.1,207.9c0,0.3,0,0.6-0.1,0.9c0,0.1-0.1,0.6-0.2,0.3c-0.1-0.2,0-0.3,0-0.5c0-0.3,0-0.6,0.1-0.9
		c0-0.1,0.1-0.6,0.2-0.3C225.2,207.6,225.1,207.7,225.1,207.9z"/>
	<path class="st0" d="M224.6,209.5c0,0.3,0,0.6-0.1,0.9c0,0.1-0.1,0.5-0.2,0.3c-0.1-0.2-0.1-0.3-0.1-0.5c0-0.3,0-0.6,0.1-0.9
		c0-0.1,0.1-0.6,0.2-0.3C224.6,209.1,224.6,209.3,224.6,209.5z"/>
	<path class="st0" d="M223.9,211c0,0.3,0,0.6-0.1,1c0,0.1-0.1,0.5-0.2,0.3c-0.1-0.2-0.1-0.3-0.1-0.5c0-0.3,0-0.6,0.1-1
		c0-0.1,0.1-0.5,0.2-0.3C223.9,210.7,223.9,210.9,223.9,211z"/>
	<path class="st0" d="M223.1,212.6c0,0.3,0,0.6-0.1,1c0,0.1-0.1,0.5-0.2,0.3c-0.1-0.2-0.1-0.3-0.1-0.5c0-0.3,0-0.6,0.1-1
		c0-0.1,0.1-0.5,0.2-0.3C223.1,212.3,223.1,212.4,223.1,212.6z"/>
	<path class="st0" d="M225.9,200.8c0,0.2,0,0.3,0,0.5"/>
	<path class="st0" d="M225.8,201c0-0.1,0-0.3,0.1-0.2"/>
	<path class="st0" d="M225.9,201.3c0,0.4,0.1,0.9-0.1,1.3"/>
	<path class="st0" d="M225.5,202.4c0.1,0.2,0.1,0.3,0.1,0.5"/>
	<path class="st0" d="M225.4,204.1c0-0.3,0-0.6,0-0.8c0-0.1,0-0.3,0-0.4c0-0.1,0-0.1,0-0.2c0-0.1,0-0.1,0.1-0.2"/>
	<path class="st0" d="M225.6,202.9c0,0.2,0,0.4,0,0.7c0,0.1,0,0.2,0,0.3c0,0.1,0.1,0.2-0.1,0.3"/>
	<path class="st0" d="M225.1,204.5c0,0.3,0,0.6-0.1,0.9c0,0.1-0.1,0.6-0.2,0.3c-0.1-0.2,0-0.3,0-0.5c0-0.3,0-0.6,0.1-0.9
		c0-0.1,0.1-0.6,0.2-0.3C225.2,204.2,225.1,204.4,225.1,204.5z"/>
	<path class="st0" d="M224.6,206.1c0,0.3,0,0.6-0.1,0.9c0,0.1-0.1,0.5-0.2,0.3c-0.1-0.2-0.1-0.3-0.1-0.5c0-0.3,0-0.6,0.1-0.9
		c0-0.1,0.1-0.6,0.2-0.3C224.6,205.8,224.6,206,224.6,206.1z"/>
	<path class="st0" d="M223.9,207.7c0,0.3,0,0.6-0.1,1c0,0.1-0.1,0.5-0.2,0.3c-0.1-0.2-0.1-0.3-0.1-0.5c0-0.3,0-0.6,0.1-1
		c0-0.1,0.1-0.5,0.2-0.3C223.9,207.4,223.9,207.6,223.9,207.7z"/>
	<path class="st0" d="M223.1,209.3c0,0.3,0,0.6-0.1,1c0,0.1-0.1,0.5-0.2,0.3c-0.1-0.2-0.1-0.3-0.1-0.5c0-0.3,0-0.6,0.1-1
		c0-0.1,0.1-0.5,0.2-0.3C223.1,209,223.1,209.1,223.1,209.3z"/>
	<path class="st0" d="M225.9,197.5c0,0.2,0,0.3,0,0.5"/>
	<path class="st0" d="M225.8,197.5C225.8,197.5,225.9,197.5,225.8,197.5"/>
	<path class="st0" d="M225.9,198c0,0.4,0.1,0.9-0.1,1.3"/>
	<path class="st0" d="M225.5,199.1c0.1,0.2,0.1,0.3,0.1,0.5"/>
	<path class="st0" d="M225.4,200.7c0-0.3,0-0.6,0-0.8c0-0.1,0-0.3,0-0.4c0-0.1,0-0.1,0-0.2c0-0.1,0-0.1,0.1-0.2"/>
	<path class="st0" d="M225.6,199.6c0,0.2,0,0.4,0,0.7c0,0.1,0,0.2,0,0.3c0,0.1,0.1,0.2-0.1,0.3"/>
	<path class="st0" d="M225.1,201.2c0,0.3,0,0.6-0.1,0.9c0,0.1-0.1,0.6-0.2,0.3c-0.1-0.2,0-0.3,0-0.5c0-0.3,0-0.6,0.1-0.9
		c0-0.1,0.1-0.6,0.2-0.3C225.2,200.9,225.1,201.1,225.1,201.2z"/>
	<path class="st0" d="M224.6,202.8c0,0.3,0,0.6-0.1,0.9c0,0.1-0.1,0.5-0.2,0.3c-0.1-0.2-0.1-0.3-0.1-0.5c0-0.3,0-0.6,0.1-0.9
		c0-0.1,0.1-0.6,0.2-0.3C224.6,202.5,224.6,202.7,224.6,202.8z"/>
	<path class="st0" d="M223.9,204.4c0,0.3,0,0.6-0.1,1c0,0.1-0.1,0.5-0.2,0.3c-0.1-0.2-0.1-0.3-0.1-0.5c0-0.3,0-0.6,0.1-1
		c0-0.1,0.1-0.5,0.2-0.3C223.9,204.1,223.9,204.2,223.9,204.4z"/>
	<path class="st0" d="M223.1,206c0,0.3,0,0.6-0.1,1c0,0.1-0.1,0.5-0.2,0.3c-0.1-0.2-0.1-0.3-0.1-0.5c0-0.3,0-0.6,0.1-1
		c0-0.1,0.1-0.5,0.2-0.3C223.1,205.7,223.1,205.8,223.1,206z"/>
	<path class="st0" d="M225.1,197.9c0,0.3,0,0.6-0.1,0.9c0,0.1-0.1,0.6-0.2,0.3c-0.1-0.2,0-0.3,0-0.5c0-0.3,0-0.6,0.1-0.9
		c0-0.1,0.1-0.6,0.2-0.3C225.2,197.6,225.1,197.8,225.1,197.9z"/>
	<path class="st0" d="M224.6,199.5c0,0.3,0,0.6-0.1,0.9c0,0.1-0.1,0.5-0.2,0.3c-0.1-0.2-0.1-0.3-0.1-0.5c0-0.3,0-0.6,0.1-0.9
		c0-0.1,0.1-0.6,0.2-0.3C224.6,199.2,224.6,199.3,224.6,199.5z"/>
	<path class="st0" d="M223.9,201.1c0,0.3,0,0.6-0.1,1c0,0.1-0.1,0.5-0.2,0.3c-0.1-0.2-0.1-0.3-0.1-0.5c0-0.3,0-0.6,0.1-1
		c0-0.1,0.1-0.5,0.2-0.3C223.9,200.8,223.9,200.9,223.9,201.1z"/>
	<path class="st0" d="M223.1,202.7c0,0.3,0,0.6-0.1,1c0,0.1-0.1,0.5-0.2,0.3c-0.1-0.2-0.1-0.3-0.1-0.5c0-0.3,0-0.6,0.1-1
		c0-0.1,0.1-0.5,0.2-0.3C223.1,202.3,223.1,202.5,223.1,202.7z"/>
	<path class="st0" d="M223.9,197.8c0,0.3,0,0.6-0.1,1c0,0.1-0.1,0.5-0.2,0.3c-0.1-0.2-0.1-0.3-0.1-0.5c0-0.3,0-0.6,0.1-1
		c0-0.1,0.1-0.5,0.2-0.3C223.9,197.5,223.9,197.6,223.9,197.8z"/>
	<path class="st0" d="M223.1,199.3c0,0.3,0,0.6-0.1,1c0,0.1-0.1,0.5-0.2,0.3c-0.1-0.2-0.1-0.3-0.1-0.5c0-0.3,0-0.6,0.1-1
		c0-0.1,0.1-0.5,0.2-0.3C223.1,199,223.1,199.2,223.1,199.3z"/>
	<path class="st0" d="M226.1,199.3c0,0.1,0,0.3,0,0.4"/>
	<path class="st0" d="M226,199.3C226,199.2,226.1,199.2,226,199.3"/>
	<path class="st0" d="M226.1,199.7c0,0.4,0,0.8,0,1.2"/>
	<path class="st0" d="M226.1,202.6c0,0.1,0,0.3,0,0.4"/>
	<path class="st0" d="M226,202.7c0-0.1,0-0.1,0-0.2"/>
	<path class="st0" d="M226.1,203c0,0.4,0,0.8,0,1.2"/>
	<path class="st0" d="M226.1,206.1c0,0.1,0,0.1,0,0.2"/>
	<path class="st0" d="M226.1,205.8c0,0.1,0,0.1,0,0.2"/>
	<path class="st0" d="M226,206c0-0.1-0.1-0.1,0-0.2"/>
	<path class="st0" d="M226.1,206.3c0,0.4,0,0.8,0,1.2"/>
	<path class="st0" d="M226.1,209.5c0,0.1,0,0.1,0,0.2"/>
	<path class="st0" d="M226.1,209.1c0,0.1,0,0.1,0,0.2"/>
	<path class="st0" d="M226,209.3c0-0.1-0.1-0.1,0-0.2"/>
	<path class="st0" d="M226.1,209.6c0,0.4,0,0.8,0,1.2"/>
	<path class="st0" d="M226.1,212.8c0,0.1,0,0.1,0,0.2"/>
	<path class="st0" d="M226.1,212.5c0,0.1,0,0.1,0,0.2"/>
	<path class="st0" d="M226,212.6c0-0.1-0.1-0.1,0-0.2"/>
	<path class="st0" d="M226.1,212.9c0,0.4,0,0.8,0,1.2"/>
	<path class="st0" d="M226.1,209.7c0-0.1,0-0.3,0-0.4"/>
	<path class="st0" d="M226.1,210.8c0,0,0-0.1,0-0.1"/>
	<path class="st0" d="M226.1,216.1c0,0.1,0,0.1,0,0.2"/>
	<path class="st0" d="M226.1,215.8c0,0.1,0,0.1,0,0.2"/>
	<path class="st0" d="M226,216c0-0.1-0.1-0.1,0-0.2"/>
	<path class="st0" d="M226.1,216.3c0,0.4,0,0.8,0,1.2"/>
	<path class="st0" d="M226.1,213.1c0-0.1,0-0.3,0-0.4"/>
	<path class="st0" d="M226.1,214.1c0,0,0-0.1,0-0.1"/>
	<path class="st0" d="M222.2,227.4c0,0.3,0,0.7-0.2,1c-0.1,0.1-0.1,0.5-0.3,0.3c-0.1-0.2-0.1-0.3-0.1-0.5c0-0.3,0-0.7,0.2-1
		c0.1-0.1,0.1-0.5,0.3-0.3C222.2,227.1,222.2,227.3,222.2,227.4z"/>
	<path class="st0" d="M221.1,229c0,0.3,0,0.7-0.2,1c-0.1,0.2-0.1,0.5-0.3,0.3c-0.1-0.2-0.1-0.3-0.1-0.5c0-0.3,0-0.7,0.2-1
		c0.1-0.1,0.1-0.5,0.3-0.3C221.2,228.6,221.1,228.8,221.1,229z"/>
	<path class="st0" d="M220,230.5c0,0.4-0.1,0.7-0.2,1c-0.1,0.2-0.1,0.5-0.3,0.3c-0.1-0.2-0.1-0.3-0.1-0.5c0-0.3,0.1-0.7,0.2-1
		c0.1-0.2,0.1-0.5,0.3-0.3C220,230.2,220,230.3,220,230.5"/>
	<path class="st0" d="M218.7,232c0,0.4-0.1,0.7-0.2,1c-0.1,0.2-0.2,0.5-0.4,0.2c-0.1-0.2-0.1-0.3-0.1-0.5c0-0.4,0.1-0.7,0.2-1
		c0.1-0.2,0.2-0.5,0.4-0.3C218.7,231.7,218.7,231.8,218.7,232z"/>
	<path class="st0" d="M217.3,233.5c0,0.4-0.1,0.7-0.2,1c-0.3,0.5-0.5,0.2-0.5-0.3c0-0.4,0.1-0.7,0.2-1
		C217,232.8,217.3,233,217.3,233.5z"/>
	<path class="st0" d="M215.7,235c0,0.4-0.1,0.7-0.3,1c-0.3,0.5-0.5,0.2-0.5-0.3c0-0.4,0.1-0.7,0.3-1
		C215.5,234.2,215.7,234.5,215.7,235z"/>
	<path class="st0" d="M222.2,224.1c0,0.3,0,0.7-0.2,1c-0.1,0.1-0.1,0.5-0.3,0.3c-0.1-0.2-0.1-0.3-0.1-0.5c0-0.3,0-0.7,0.2-1
		c0.1-0.1,0.1-0.5,0.3-0.3C222.2,223.8,222.2,223.9,222.2,224.1z"/>
	<path class="st0" d="M221.1,225.7c0,0.3,0,0.7-0.2,1c-0.1,0.2-0.1,0.5-0.3,0.3c-0.1-0.2-0.1-0.3-0.1-0.5c0-0.3,0-0.7,0.2-1
		c0.1-0.1,0.1-0.5,0.3-0.3C221.2,225.3,221.1,225.5,221.1,225.7z"/>
	<path class="st0" d="M220,227.2c0,0.4-0.1,0.7-0.2,1c-0.1,0.2-0.1,0.5-0.3,0.3c-0.1-0.2-0.1-0.3-0.1-0.5c0-0.3,0.1-0.7,0.2-1
		c0.1-0.2,0.1-0.5,0.3-0.3C220,226.8,220,227,220,227.2z"/>
	<path class="st0" d="M218.7,228.7c0,0.4-0.1,0.7-0.2,1c-0.1,0.2-0.2,0.5-0.4,0.2c-0.1-0.2-0.1-0.3-0.1-0.5c0-0.4,0.1-0.7,0.2-1
		c0.1-0.2,0.2-0.5,0.4-0.3C218.7,228.4,218.7,228.5,218.7,228.7z"/>
	<path class="st0" d="M217.3,230.2c0,0.4-0.1,0.7-0.2,1c-0.3,0.5-0.5,0.2-0.5-0.3c0-0.4,0.1-0.7,0.2-1
		C217,229.4,217.3,229.7,217.3,230.2z"/>
	<path class="st0" d="M215.7,231.7c0,0.4-0.1,0.7-0.3,1c-0.3,0.5-0.5,0.2-0.5-0.3c0-0.4,0.1-0.7,0.3-1
		C215.5,230.9,215.7,231.2,215.7,231.7z"/>
	<path class="st0" d="M222.2,220.8c0,0.3,0,0.7-0.2,1c-0.1,0.1-0.1,0.5-0.3,0.3c-0.1-0.2-0.1-0.3-0.1-0.5c0-0.3,0-0.7,0.2-1
		c0.1-0.1,0.1-0.5,0.3-0.3C222.2,220.5,222.2,220.6,222.2,220.8z"/>
	<path class="st0" d="M221.1,222.3c0,0.3,0,0.7-0.2,1c-0.1,0.2-0.1,0.5-0.3,0.3c-0.1-0.2-0.1-0.3-0.1-0.5c0-0.3,0-0.7,0.2-1
		c0.1-0.1,0.1-0.5,0.3-0.3C221.2,222,221.1,222.2,221.1,222.3z"/>
	<path class="st0" d="M220,223.9c0,0.4-0.1,0.7-0.2,1c-0.1,0.2-0.1,0.5-0.3,0.3c-0.1-0.2-0.1-0.3-0.1-0.5c0-0.3,0.1-0.7,0.2-1
		c0.1-0.2,0.1-0.5,0.3-0.3C220,223.5,220,223.7,220,223.9z"/>
	<path class="st0" d="M218.7,225.4c0,0.4-0.1,0.7-0.2,1c-0.1,0.2-0.2,0.5-0.4,0.2c-0.1-0.2-0.1-0.3-0.1-0.5c0-0.4,0.1-0.7,0.2-1
		c0.1-0.2,0.2-0.5,0.4-0.3C218.7,225,218.7,225.2,218.7,225.4z"/>
	<path class="st0" d="M217.3,226.9c0,0.4-0.1,0.7-0.2,1c-0.3,0.5-0.5,0.2-0.5-0.3c0-0.4,0.1-0.7,0.2-1
		C217,226.1,217.3,226.4,217.3,226.9z"/>
	<path class="st0" d="M215.7,228.3c0,0.4-0.1,0.7-0.3,1c-0.3,0.5-0.5,0.2-0.5-0.3c0-0.4,0.1-0.7,0.3-1
		C215.5,227.6,215.7,227.8,215.7,228.3z"/>
	<path class="st0" d="M222.2,217.5c0,0.3,0,0.7-0.2,1c-0.1,0.1-0.1,0.5-0.3,0.3c-0.1-0.2-0.1-0.3-0.1-0.5c0-0.3,0-0.7,0.2-1
		c0.1-0.1,0.1-0.5,0.3-0.3C222.2,217.2,222.2,217.3,222.2,217.5z"/>
	<path class="st0" d="M221.1,219c0,0.3,0,0.7-0.2,1c-0.1,0.2-0.1,0.5-0.3,0.3c-0.1-0.2-0.1-0.3-0.1-0.5c0-0.3,0-0.7,0.2-1
		c0.1-0.1,0.1-0.5,0.3-0.3C221.2,218.7,221.1,218.8,221.1,219z"/>
	<path class="st0" d="M220,220.5c0,0.4-0.1,0.7-0.2,1c-0.1,0.2-0.1,0.5-0.3,0.3c-0.1-0.2-0.1-0.3-0.1-0.5c0-0.3,0.1-0.7,0.2-1
		c0.1-0.2,0.1-0.5,0.3-0.3C220,220.2,220,220.4,220,220.5z"/>
	<path class="st0" d="M218.7,222.1c0,0.4-0.1,0.7-0.2,1c-0.1,0.2-0.2,0.5-0.4,0.2c-0.1-0.2-0.1-0.3-0.1-0.5c0-0.4,0.1-0.7,0.2-1
		c0.1-0.2,0.2-0.5,0.4-0.3C218.7,221.7,218.7,221.9,218.7,222.1z"/>
	<path class="st0" d="M217.3,223.5c0,0.4-0.1,0.7-0.2,1c-0.3,0.5-0.5,0.2-0.5-0.3c0-0.4,0.1-0.7,0.2-1
		C217,222.8,217.3,223,217.3,223.5z"/>
	<path class="st0" d="M215.7,225c0,0.4-0.1,0.7-0.3,1c-0.3,0.5-0.5,0.2-0.5-0.3c0-0.4,0.1-0.7,0.3-1
		C215.5,224.3,215.7,224.5,215.7,225z"/>
	<path class="st0" d="M222.2,214.2c0,0.3,0,0.7-0.2,1c-0.1,0.1-0.1,0.5-0.3,0.3c-0.1-0.2-0.1-0.3-0.1-0.5c0-0.3,0-0.7,0.2-1
		c0.1-0.1,0.1-0.5,0.3-0.3C222.2,213.8,222.2,214,222.2,214.2z"/>
	<path class="st0" d="M221.1,215.7c0,0.3,0,0.7-0.2,1c-0.1,0.2-0.1,0.5-0.3,0.3c-0.1-0.2-0.1-0.3-0.1-0.5c0-0.3,0-0.7,0.2-1
		c0.1-0.1,0.1-0.5,0.3-0.3C221.2,215.4,221.1,215.5,221.1,215.7z"/>
	<path class="st0" d="M220,217.2c0,0.4-0.1,0.7-0.2,1c-0.1,0.2-0.1,0.5-0.3,0.3c-0.1-0.2-0.1-0.3-0.1-0.5c0-0.3,0.1-0.7,0.2-1
		c0.1-0.2,0.1-0.5,0.3-0.3C220,216.9,220,217.1,220,217.2z"/>
	<path class="st0" d="M218.7,218.7c0,0.4-0.1,0.7-0.2,1c-0.1,0.2-0.2,0.5-0.4,0.2c-0.1-0.2-0.1-0.3-0.1-0.5c0-0.4,0.1-0.7,0.2-1
		c0.1-0.2,0.2-0.5,0.4-0.3C218.7,218.4,218.7,218.6,218.7,218.7z"/>
	<path class="st0" d="M217.3,220.2c0,0.4-0.1,0.7-0.2,1c-0.3,0.5-0.5,0.2-0.5-0.3c0-0.4,0.1-0.7,0.2-1
		C217,219.5,217.3,219.7,217.3,220.2z"/>
	<path class="st0" d="M215.7,221.7c0,0.4-0.1,0.7-0.3,1c-0.3,0.5-0.5,0.2-0.5-0.3c0-0.4,0.1-0.7,0.3-1
		C215.5,221,215.7,221.2,215.7,221.7z"/>
	<path class="st0" d="M222.2,210.8c0,0.3,0,0.7-0.2,1c-0.1,0.1-0.1,0.5-0.3,0.3c-0.1-0.2-0.1-0.3-0.1-0.5c0-0.3,0-0.7,0.2-1
		c0.1-0.1,0.1-0.5,0.3-0.3C222.2,210.5,222.2,210.7,222.2,210.8z"/>
	<path class="st0" d="M221.1,212.4c0,0.3,0,0.7-0.2,1c-0.1,0.2-0.1,0.5-0.3,0.3c-0.1-0.2-0.1-0.3-0.1-0.5c0-0.3,0-0.7,0.2-1
		c0.1-0.1,0.1-0.5,0.3-0.3C221.2,212.1,221.1,212.2,221.1,212.4z"/>
	<path class="st0" d="M220,213.9c0,0.4-0.1,0.7-0.2,1c-0.1,0.2-0.1,0.5-0.3,0.3c-0.1-0.2-0.1-0.3-0.1-0.5c0-0.3,0.1-0.7,0.2-1
		c0.1-0.2,0.1-0.5,0.3-0.3C220,213.6,220,213.7,220,213.9z"/>
	<path class="st0" d="M218.7,215.4c0,0.4-0.1,0.7-0.2,1c-0.1,0.2-0.2,0.5-0.4,0.2c-0.1-0.2-0.1-0.3-0.1-0.5c0-0.4,0.1-0.7,0.2-1
		c0.1-0.2,0.2-0.5,0.4-0.3C218.7,215.1,218.7,215.2,218.7,215.4z"/>
	<path class="st0" d="M217.3,216.9c0,0.4-0.1,0.7-0.2,1c-0.3,0.5-0.5,0.2-0.5-0.3c0-0.4,0.1-0.7,0.2-1
		C217,216.2,217.3,216.4,217.3,216.9z"/>
	<path class="st0" d="M215.7,218.4c0,0.4-0.1,0.7-0.3,1c-0.3,0.5-0.5,0.2-0.5-0.3c0-0.4,0.1-0.7,0.3-1
		C215.5,217.6,215.7,217.9,215.7,218.4z"/>
	<path class="st0" d="M222.2,207.5c0,0.3,0,0.7-0.2,1c-0.1,0.1-0.1,0.5-0.3,0.3c-0.1-0.2-0.1-0.3-0.1-0.5c0-0.3,0-0.7,0.2-1
		c0.1-0.1,0.1-0.5,0.3-0.3C222.2,207.2,222.2,207.4,222.2,207.5z"/>
	<path class="st0" d="M221.1,209.1c0,0.3,0,0.7-0.2,1c-0.1,0.2-0.1,0.5-0.3,0.3c-0.1-0.2-0.1-0.3-0.1-0.5c0-0.3,0-0.7,0.2-1
		c0.1-0.1,0.1-0.5,0.3-0.3C221.2,208.7,221.1,208.9,221.1,209.1z"/>
	<path class="st0" d="M220,210.6c0,0.4-0.1,0.7-0.2,1c-0.1,0.2-0.1,0.5-0.3,0.3c-0.1-0.2-0.1-0.3-0.1-0.5c0-0.3,0.1-0.7,0.2-1
		c0.1-0.2,0.1-0.5,0.3-0.3C220,210.3,220,210.4,220,210.6z"/>
	<path class="st0" d="M218.7,212.1c0,0.4-0.1,0.7-0.2,1c-0.1,0.2-0.2,0.5-0.4,0.2c-0.1-0.2-0.1-0.3-0.1-0.5c0-0.4,0.1-0.7,0.2-1
		c0.1-0.2,0.2-0.5,0.4-0.3C218.7,211.8,218.7,211.9,218.7,212.1z"/>
	<path class="st0" d="M217.3,213.6c0,0.4-0.1,0.7-0.2,1c-0.3,0.5-0.5,0.2-0.5-0.3c0-0.4,0.1-0.7,0.2-1
		C217,212.8,217.3,213.1,217.3,213.6z"/>
	<path class="st0" d="M215.7,215.1c0,0.4-0.1,0.7-0.3,1c-0.3,0.5-0.5,0.2-0.5-0.3c0-0.4,0.1-0.7,0.3-1
		C215.5,214.3,215.7,214.6,215.7,215.1z"/>
	<path class="st0" d="M222.2,204.2c0,0.3,0,0.7-0.2,1c-0.1,0.1-0.1,0.5-0.3,0.3c-0.1-0.2-0.1-0.3-0.1-0.5c0-0.3,0-0.7,0.2-1
		c0.1-0.1,0.1-0.5,0.3-0.3C222.2,203.9,222.2,204,222.2,204.2z"/>
	<path class="st0" d="M221.1,205.7c0,0.3,0,0.7-0.2,1c-0.1,0.2-0.1,0.5-0.3,0.3c-0.1-0.2-0.1-0.3-0.1-0.5c0-0.3,0-0.7,0.2-1
		c0.1-0.1,0.1-0.5,0.3-0.3C221.2,205.4,221.1,205.6,221.1,205.7z"/>
	<path class="st0" d="M220,207.3c0,0.4-0.1,0.7-0.2,1c-0.1,0.2-0.1,0.5-0.3,0.3c-0.1-0.2-0.1-0.3-0.1-0.5c0-0.3,0.1-0.7,0.2-1
		c0.1-0.2,0.1-0.5,0.3-0.3C220,206.9,220,207.1,220,207.3z"/>
	<path class="st0" d="M218.7,208.8c0,0.4-0.1,0.7-0.2,1c-0.1,0.2-0.2,0.5-0.4,0.2c-0.1-0.2-0.1-0.3-0.1-0.5c0-0.4,0.1-0.7,0.2-1
		c0.1-0.2,0.2-0.5,0.4-0.3C218.7,208.4,218.7,208.6,218.7,208.8z"/>
	<path class="st0" d="M217.3,210.3c0,0.4-0.1,0.7-0.2,1c-0.3,0.5-0.5,0.2-0.5-0.3c0-0.4,0.1-0.7,0.2-1
		C217,209.5,217.3,209.8,217.3,210.3z"/>
	<path class="st0" d="M222.2,200.9c0,0.3,0,0.7-0.2,1c-0.1,0.1-0.1,0.5-0.3,0.3c-0.1-0.2-0.1-0.3-0.1-0.5c0-0.3,0-0.7,0.2-1
		c0.1-0.1,0.1-0.5,0.3-0.3C222.2,200.6,222.2,200.7,222.2,200.9z"/>
	<path class="st0" d="M221.1,202.4c0,0.3,0,0.7-0.2,1c-0.1,0.2-0.1,0.5-0.3,0.3c-0.1-0.2-0.1-0.3-0.1-0.5c0-0.3,0-0.7,0.2-1
		c0.1-0.1,0.1-0.5,0.3-0.3C221.2,202.1,221.1,202.3,221.1,202.4z"/>
	<path class="st0" d="M220,204c0,0.4-0.1,0.7-0.2,1c-0.1,0.2-0.1,0.5-0.3,0.3c-0.1-0.2-0.1-0.3-0.1-0.5c0-0.3,0.1-0.7,0.2-1
		c0.1-0.2,0.1-0.5,0.3-0.3C220,203.6,220,203.8,220,204z"/>
	<path class="st0" d="M214.1,219.9c0,0.4-0.1,0.7-0.3,1c-0.3,0.5-0.6,0.2-0.6-0.3c0-0.4,0.1-0.7,0.3-1
		C213.8,219.1,214.1,219.4,214.1,219.9z"/>
	<path class="st0" d="M212.3,224.6c0,0.4-0.1,0.7-0.3,1c-0.3,0.4-0.6,0.2-0.6-0.3c0-0.4,0.1-0.7,0.3-1
		C212,223.9,212.3,224.1,212.3,224.6z"/>
	<path class="st0" d="M214.1,223.2c0,0.4-0.1,0.7-0.3,1c-0.3,0.5-0.6,0.2-0.6-0.3c0-0.4,0.1-0.7,0.3-1
		C213.8,222.4,214.1,222.7,214.1,223.2z"/>
	<path class="st0" d="M212.3,228c0,0.4-0.1,0.7-0.3,1c-0.3,0.4-0.6,0.2-0.6-0.3c0-0.4,0.1-0.7,0.3-1
		C212,227.2,212.3,227.4,212.3,228z"/>
	<path class="st0" d="M214.1,226.5c0,0.4-0.1,0.7-0.3,1c-0.3,0.5-0.6,0.2-0.6-0.3c0-0.4,0.1-0.7,0.3-1
		C213.8,225.7,214.1,226,214.1,226.5z"/>
	<path class="st0" d="M210.4,232.7c0,0.4-0.1,0.7-0.4,1c-0.3,0.4-0.7,0.2-0.7-0.3c0-0.4,0.1-0.7,0.4-1
		C210.1,232,210.4,232.2,210.4,232.7z"/>
	<path class="st0" d="M212.3,231.3c0,0.4-0.1,0.7-0.3,1c-0.3,0.4-0.6,0.2-0.6-0.3c0-0.4,0.1-0.7,0.3-1
		C212,230.5,212.3,230.8,212.3,231.3z"/>
	<path class="st0" d="M214.1,229.8c0,0.4-0.1,0.7-0.3,1c-0.3,0.5-0.6,0.2-0.6-0.3c0-0.4,0.1-0.7,0.3-1
		C213.8,229.1,214.1,229.3,214.1,229.8z"/>
	<path class="st0" d="M210.4,236c0,0.4-0.1,0.7-0.4,1c-0.3,0.4-0.7,0.2-0.7-0.3c0-0.4,0.1-0.7,0.4-1
		C210.1,235.3,210.4,235.5,210.4,236z"/>
	<path class="st0" d="M212.3,234.6c0,0.4-0.1,0.7-0.3,1c-0.3,0.4-0.6,0.2-0.6-0.3c0-0.4,0.1-0.7,0.3-1
		C212,233.8,212.3,234.1,212.3,234.6z"/>
	<path class="st0" d="M214.1,233.1c0,0.4-0.1,0.7-0.3,1c-0.3,0.5-0.6,0.2-0.6-0.3c0-0.4,0.1-0.7,0.3-1
		C213.8,232.4,214.1,232.6,214.1,233.1z"/>
	<path class="st0" d="M210.4,239.3c0,0.4-0.1,0.7-0.4,1c-0.3,0.4-0.7,0.2-0.7-0.3c0-0.4,0.1-0.7,0.4-1
		C210.1,238.6,210.4,238.8,210.4,239.3z"/>
	<path class="st0" d="M212.3,237.9c0,0.4-0.1,0.7-0.3,1c-0.3,0.4-0.6,0.2-0.6-0.3c0-0.4,0.1-0.7,0.3-1
		C212,237.2,212.3,237.4,212.3,237.9z"/>
	<path class="st0" d="M214.1,236.5c0,0.4-0.1,0.7-0.3,1c-0.3,0.5-0.6,0.2-0.6-0.3c0-0.4,0.1-0.7,0.3-1
		C213.8,235.7,214.1,235.9,214.1,236.5z"/>
	<path class="st0" d="M214.1,256.4c0,0.4-0.1,0.7-0.3,1c-0.3,0.5-0.6,0.2-0.6-0.3c0-0.4,0.1-0.7,0.3-1
		C213.8,255.6,214.1,255.9,214.1,256.4z"/>
	<path class="st0" d="M214.1,253c0,0.4-0.1,0.7-0.3,1c-0.3,0.5-0.6,0.2-0.6-0.3c0-0.4,0.1-0.7,0.3-1
		C213.8,252.3,214.1,252.5,214.1,253z"/>
	<path class="st0" d="M214.1,249.7c0,0.4-0.1,0.7-0.3,1c-0.3,0.5-0.6,0.2-0.6-0.3c0-0.4,0.1-0.7,0.3-1
		C213.8,249,214.1,249.2,214.1,249.7z"/>
	<path class="st0" d="M212.3,251.2c0,0.4-0.1,0.7-0.3,1c-0.3,0.4-0.6,0.2-0.6-0.3c0-0.4,0.1-0.7,0.3-1
		C212,250.4,212.3,250.7,212.3,251.2"/>
	<path class="st0" d="M214.1,246.4c0,0.4-0.1,0.7-0.3,1c-0.3,0.5-0.6,0.2-0.6-0.3c0-0.4,0.1-0.7,0.3-1
		C213.8,245.7,214.1,245.9,214.1,246.4z"/>
	<path class="st0" d="M212.3,247.9c0,0.4-0.1,0.7-0.3,1c-0.3,0.4-0.6,0.2-0.6-0.3c0-0.4,0.1-0.7,0.3-1
		C212,247.1,212.3,247.3,212.3,247.9z"/>
	<path class="st0" d="M214.1,243.1c0,0.4-0.1,0.7-0.3,1c-0.3,0.5-0.6,0.2-0.6-0.3c0-0.4,0.1-0.7,0.3-1
		C213.8,242.3,214.1,242.6,214.1,243.1z"/>
	<path class="st0" d="M212.3,244.5c0,0.4-0.1,0.7-0.3,1c-0.3,0.4-0.6,0.2-0.6-0.3c0-0.4,0.1-0.7,0.3-1
		C212,243.8,212.3,244,212.3,244.5z"/>
	<path class="st0" d="M210.4,246c0,0.4-0.1,0.7-0.4,1c-0.3,0.4-0.7,0.2-0.7-0.3c0-0.4,0.1-0.7,0.4-1
		C210.1,245.2,210.4,245.5,210.4,246z"/>
	<path class="st0" d="M214.1,239.8c0,0.4-0.1,0.7-0.3,1c-0.3,0.5-0.6,0.2-0.6-0.3c0-0.4,0.1-0.7,0.3-1
		C213.8,239,214.1,239.3,214.1,239.8z"/>
	<path class="st0" d="M212.3,241.2c0,0.4-0.1,0.7-0.3,1c-0.3,0.4-0.6,0.2-0.6-0.3c0-0.4,0.1-0.7,0.3-1
		C212,240.5,212.3,240.7,212.3,241.2z"/>
	<path class="st0" d="M210.4,242.7c0,0.4-0.1,0.7-0.4,1c-0.3,0.4-0.7,0.2-0.7-0.3c0-0.4,0.1-0.7,0.4-1
		C210.1,241.9,210.4,242.1,210.4,242.7z"/>
	<path class="st0" d="M215.7,238.3c0,0.4-0.1,0.7-0.3,1c-0.3,0.5-0.5,0.2-0.5-0.3c0-0.4,0.1-0.7,0.3-1
		C215.5,237.6,215.7,237.8,215.7,238.3z"/>
	<path class="st0" d="M217.3,236.8c0,0.4-0.1,0.7-0.2,1c-0.3,0.5-0.5,0.2-0.5-0.3c0-0.4,0.1-0.7,0.2-1
		C217,236.1,217.3,236.3,217.3,236.8z"/>
	<path class="st0" d="M218.7,235.3c0,0.4-0.1,0.7-0.2,1c-0.1,0.2-0.2,0.5-0.4,0.2c-0.1-0.2-0.1-0.3-0.1-0.5c0-0.4,0.1-0.7,0.2-1
		c0.1-0.2,0.2-0.5,0.4-0.3C218.7,235,218.7,235.1,218.7,235.3z"/>
	<path class="st0" d="M220,233.8c0,0.4-0.1,0.7-0.2,1c-0.1,0.2-0.1,0.5-0.3,0.3c-0.1-0.2-0.1-0.3-0.1-0.5c0-0.3,0.1-0.7,0.2-1
		c0.1-0.2,0.1-0.5,0.3-0.3C220,233.5,220,233.6,220,233.8"/>
	<path class="st0" d="M221.1,232.3c0,0.3,0,0.7-0.2,1c-0.1,0.2-0.1,0.5-0.3,0.3c-0.1-0.2-0.1-0.3-0.1-0.5c0-0.3,0-0.7,0.2-1
		c0.1-0.1,0.1-0.5,0.3-0.3C221.2,232,221.1,232.1,221.1,232.3z"/>
	<path class="st0" d="M222.2,230.8c0,0.3,0,0.7-0.2,1c-0.1,0.1-0.1,0.5-0.3,0.3c-0.1-0.2-0.1-0.3-0.1-0.5c0-0.3,0-0.7,0.2-1
		c0.1-0.1,0.1-0.5,0.3-0.3C222.2,230.4,222.2,230.6,222.2,230.8z"/>
	<path class="st0" d="M215.7,241.6c0,0.4-0.1,0.7-0.3,1c-0.3,0.5-0.5,0.2-0.5-0.3c0-0.4,0.1-0.7,0.3-1
		C215.5,240.9,215.7,241.1,215.7,241.6z"/>
	<path class="st0" d="M217.3,240.1c0,0.4-0.1,0.7-0.2,1c-0.3,0.5-0.5,0.2-0.5-0.3c0-0.4,0.1-0.7,0.2-1
		C217,239.4,217.3,239.6,217.3,240.1z"/>
	<path class="st0" d="M218.7,238.6c0,0.4-0.1,0.7-0.2,1c-0.1,0.2-0.2,0.5-0.4,0.2c-0.1-0.2-0.1-0.3-0.1-0.5c0-0.4,0.1-0.7,0.2-1
		c0.1-0.2,0.2-0.5,0.4-0.3C218.7,238.3,218.7,238.5,218.7,238.6z"/>
	<path class="st0" d="M220,237.1c0,0.4-0.1,0.7-0.2,1c-0.1,0.2-0.1,0.5-0.3,0.3c-0.1-0.2-0.1-0.3-0.1-0.5c0-0.3,0.1-0.7,0.2-1
		c0.1-0.2,0.1-0.5,0.3-0.3C220,236.8,220,237,220,237.1"/>
	<path class="st0" d="M221.1,235.6c0,0.3,0,0.7-0.2,1c-0.1,0.2-0.1,0.5-0.3,0.3c-0.1-0.2-0.1-0.3-0.1-0.5c0-0.3,0-0.7,0.2-1
		c0.1-0.1,0.1-0.5,0.3-0.3C221.2,235.3,221.1,235.4,221.1,235.6z"/>
	<path class="st0" d="M222.2,234.1c0,0.3,0,0.7-0.2,1c-0.1,0.1-0.1,0.5-0.3,0.3c-0.1-0.2-0.1-0.3-0.1-0.5c0-0.3,0-0.7,0.2-1
		c0.1-0.1,0.1-0.5,0.3-0.3C222.2,233.7,222.2,233.9,222.2,234.1z"/>
	<path class="st0" d="M215.7,244.9c0,0.4-0.1,0.7-0.3,1c-0.3,0.5-0.5,0.2-0.5-0.3c0-0.4,0.1-0.7,0.3-1
		C215.5,244.2,215.7,244.4,215.7,244.9z"/>
	<path class="st0" d="M217.3,243.5c0,0.4-0.1,0.7-0.2,1c-0.3,0.5-0.5,0.2-0.5-0.3c0-0.4,0.1-0.7,0.2-1
		C217,242.7,217.3,243,217.3,243.5z"/>
	<path class="st0" d="M218.7,242c0,0.4-0.1,0.7-0.2,1c-0.1,0.2-0.2,0.5-0.4,0.2c-0.1-0.2-0.1-0.3-0.1-0.5c0-0.4,0.1-0.7,0.2-1
		c0.1-0.2,0.2-0.5,0.4-0.3C218.7,241.6,218.7,241.8,218.7,242z"/>
	<path class="st0" d="M220,240.5c0,0.4-0.1,0.7-0.2,1c-0.1,0.2-0.1,0.5-0.3,0.3c-0.1-0.2-0.1-0.3-0.1-0.5c0-0.3,0.1-0.7,0.2-1
		c0.1-0.2,0.1-0.5,0.3-0.3C220,240.1,220,240.3,220,240.5"/>
	<path class="st0" d="M221.1,238.9c0,0.3,0,0.7-0.2,1c-0.1,0.2-0.1,0.5-0.3,0.3c-0.1-0.2-0.1-0.3-0.1-0.5c0-0.3,0-0.7,0.2-1
		c0.1-0.1,0.1-0.5,0.3-0.3C221.2,238.6,221.1,238.8,221.1,238.9z"/>
	<path class="st0" d="M222.2,237.4c0,0.3,0,0.7-0.2,1c-0.1,0.1-0.1,0.5-0.3,0.3c-0.1-0.2-0.1-0.3-0.1-0.5c0-0.3,0-0.7,0.2-1
		c0.1-0.1,0.1-0.5,0.3-0.3C222.2,237.1,222.2,237.2,222.2,237.4z"/>
	<path class="st0" d="M215.7,248.3c0,0.4-0.1,0.7-0.3,1c-0.3,0.5-0.5,0.2-0.5-0.3c0-0.4,0.1-0.7,0.3-1
		C215.5,247.5,215.7,247.8,215.7,248.3z"/>
	<path class="st0" d="M217.3,246.8c0,0.4-0.1,0.7-0.2,1c-0.3,0.5-0.5,0.2-0.5-0.3c0-0.4,0.1-0.7,0.2-1
		C217,246,217.3,246.3,217.3,246.8z"/>
	<path class="st0" d="M218.7,245.3c0,0.4-0.1,0.7-0.2,1c-0.1,0.2-0.2,0.5-0.4,0.2c-0.1-0.2-0.1-0.3-0.1-0.5c0-0.4,0.1-0.7,0.2-1
		c0.1-0.2,0.2-0.5,0.4-0.3C218.7,244.9,218.7,245.1,218.7,245.3z"/>
	<path class="st0" d="M220,243.8c0,0.4-0.1,0.7-0.2,1c-0.1,0.2-0.1,0.5-0.3,0.3c-0.1-0.2-0.1-0.3-0.1-0.5c0-0.3,0.1-0.7,0.2-1
		c0.1-0.2,0.1-0.5,0.3-0.3C220,243.4,220,243.6,220,243.8"/>
	<path class="st0" d="M221.1,242.2c0,0.3,0,0.7-0.2,1c-0.1,0.2-0.1,0.5-0.3,0.3c-0.1-0.2-0.1-0.3-0.1-0.5c0-0.3,0-0.7,0.2-1
		c0.1-0.1,0.1-0.5,0.3-0.3C221.2,241.9,221.1,242.1,221.1,242.2z"/>
	<path class="st0" d="M222.2,240.7c0,0.3,0,0.7-0.2,1c-0.1,0.1-0.1,0.5-0.3,0.3c-0.1-0.2-0.1-0.3-0.1-0.5c0-0.3,0-0.7,0.2-1
		c0.1-0.1,0.1-0.5,0.3-0.3C222.2,240.4,222.2,240.5,222.2,240.7z"/>
	<path class="st0" d="M215.7,251.6c0,0.4-0.1,0.7-0.3,1c-0.3,0.5-0.5,0.2-0.5-0.3c0-0.4,0.1-0.7,0.3-1
		C215.5,250.8,215.7,251.1,215.7,251.6z"/>
	<path class="st0" d="M217.3,250.1c0,0.4-0.1,0.7-0.2,1c-0.3,0.5-0.5,0.2-0.5-0.3c0-0.4,0.1-0.7,0.2-1
		C217,249.3,217.3,249.6,217.3,250.1z"/>
	<path class="st0" d="M218.7,248.6c0,0.4-0.1,0.7-0.2,1c-0.1,0.2-0.2,0.5-0.4,0.2c-0.1-0.2-0.1-0.3-0.1-0.5c0-0.4,0.1-0.7,0.2-1
		c0.1-0.2,0.2-0.5,0.4-0.3C218.7,248.3,218.7,248.4,218.7,248.6z"/>
	<path class="st0" d="M220,247.1c0,0.4-0.1,0.7-0.2,1c-0.1,0.2-0.1,0.5-0.3,0.3c-0.1-0.2-0.1-0.3-0.1-0.5c0-0.3,0.1-0.7,0.2-1
		c0.1-0.2,0.1-0.5,0.3-0.3C220,246.8,220,246.9,220,247.1"/>
	<path class="st0" d="M221.1,245.6c0,0.3,0,0.7-0.2,1c-0.1,0.2-0.1,0.5-0.3,0.3c-0.1-0.2-0.1-0.3-0.1-0.5c0-0.3,0-0.7,0.2-1
		c0.1-0.1,0.1-0.5,0.3-0.3C221.2,245.2,221.1,245.4,221.1,245.6z"/>
	<path class="st0" d="M222.2,244c0,0.3,0,0.7-0.2,1c-0.1,0.1-0.1,0.5-0.3,0.3c-0.1-0.2-0.1-0.3-0.1-0.5c0-0.3,0-0.7,0.2-1
		c0.1-0.1,0.1-0.5,0.3-0.3C222.2,243.7,222.2,243.9,222.2,244z"/>
	<path class="st0" d="M215.7,254.9c0,0.4-0.1,0.7-0.3,1c-0.3,0.5-0.5,0.2-0.5-0.3c0-0.4,0.1-0.7,0.3-1
		C215.5,254.1,215.7,254.4,215.7,254.9z"/>
	<path class="st0" d="M217.3,253.4c0,0.4-0.1,0.7-0.2,1c-0.3,0.5-0.5,0.2-0.5-0.3c0-0.4,0.1-0.7,0.2-1
		C217,252.7,217.3,252.9,217.3,253.4z"/>
	<path class="st0" d="M218.7,251.9c0,0.4-0.1,0.7-0.2,1c-0.1,0.2-0.2,0.5-0.4,0.2c-0.1-0.2-0.1-0.3-0.1-0.5c0-0.4,0.1-0.7,0.2-1
		c0.1-0.2,0.2-0.5,0.4-0.3C218.7,251.6,218.7,251.7,218.7,251.9z"/>
	<path class="st0" d="M220,250.4c0,0.4-0.1,0.7-0.2,1c-0.1,0.2-0.1,0.5-0.3,0.3c-0.1-0.2-0.1-0.3-0.1-0.5c0-0.3,0.1-0.7,0.2-1
		c0.1-0.2,0.1-0.5,0.3-0.3C220,250.1,220,250.2,220,250.4"/>
	<path class="st0" d="M221.1,248.9c0,0.3,0,0.7-0.2,1c-0.1,0.2-0.1,0.5-0.3,0.3c-0.1-0.2-0.1-0.3-0.1-0.5c0-0.3,0-0.7,0.2-1
		c0.1-0.1,0.1-0.5,0.3-0.3C221.2,248.6,221.1,248.7,221.1,248.9z"/>
	<path class="st0" d="M222.2,247.3c0,0.3,0,0.7-0.2,1c-0.1,0.1-0.1,0.5-0.3,0.3c-0.1-0.2-0.1-0.3-0.1-0.5c0-0.3,0-0.7,0.2-1
		c0.1-0.1,0.1-0.5,0.3-0.3C222.2,247,222.2,247.2,222.2,247.3z"/>
	<path class="st0" d="M215.7,258.2c0,0.4-0.1,0.7-0.3,1c-0.3,0.5-0.5,0.2-0.5-0.3c0-0.4,0.1-0.7,0.3-1
		C215.5,257.5,215.7,257.7,215.7,258.2z"/>
	<path class="st0" d="M217.3,256.7c0,0.4-0.1,0.7-0.2,1c-0.3,0.5-0.5,0.2-0.5-0.3c0-0.4,0.1-0.7,0.2-1
		C217,256,217.3,256.2,217.3,256.7z"/>
	<path class="st0" d="M218.7,255.2c0,0.4-0.1,0.7-0.2,1c-0.1,0.2-0.2,0.5-0.4,0.2c-0.1-0.2-0.1-0.3-0.1-0.5c0-0.4,0.1-0.7,0.2-1
		c0.1-0.2,0.2-0.5,0.4-0.3C218.7,254.9,218.7,255.1,218.7,255.2z"/>
	<path class="st0" d="M220,253.7c0,0.4-0.1,0.7-0.2,1c-0.1,0.2-0.1,0.5-0.3,0.3c-0.1-0.2-0.1-0.3-0.1-0.5c0-0.3,0.1-0.7,0.2-1
		c0.1-0.2,0.1-0.5,0.3-0.3C220,253.4,220,253.5,220,253.7"/>
	<path class="st0" d="M221.1,252.2c0,0.3,0,0.7-0.2,1c-0.1,0.2-0.1,0.5-0.3,0.3c-0.1-0.2-0.1-0.3-0.1-0.5c0-0.3,0-0.7,0.2-1
		c0.1-0.1,0.1-0.5,0.3-0.3C221.2,251.9,221.1,252,221.1,252.2z"/>
	<path class="st0" d="M222.2,250.7c0,0.3,0,0.7-0.2,1c-0.1,0.1-0.1,0.5-0.3,0.3c-0.1-0.2-0.1-0.3-0.1-0.5c0-0.3,0-0.7,0.2-1
		c0.1-0.1,0.1-0.5,0.3-0.3C222.2,250.3,222.2,250.5,222.2,250.7z"/>
	<path class="st0" d="M218.7,258.6c0,0.4-0.1,0.7-0.2,1c-0.1,0.2-0.2,0.5-0.4,0.2c-0.1-0.2-0.1-0.3-0.1-0.5c0-0.4,0.1-0.7,0.2-1
		c0.1-0.2,0.2-0.5,0.4-0.3C218.7,258.2,218.7,258.4,218.7,258.6z"/>
	<path class="st0" d="M220,257c0,0.4-0.1,0.7-0.2,1c-0.1,0.2-0.1,0.5-0.3,0.3c-0.1-0.2-0.1-0.3-0.1-0.5c0-0.3,0.1-0.7,0.2-1
		c0.1-0.2,0.1-0.5,0.3-0.3C220,256.7,220,256.9,220,257"/>
	<path class="st0" d="M221.1,255.5c0,0.3,0,0.7-0.2,1c-0.1,0.2-0.1,0.5-0.3,0.3c-0.1-0.2-0.1-0.3-0.1-0.5c0-0.3,0-0.7,0.2-1
		c0.1-0.1,0.1-0.5,0.3-0.3C221.2,255.2,221.1,255.3,221.1,255.5z"/>
	<path class="st0" d="M222.2,254c0,0.3,0,0.7-0.2,1c-0.1,0.1-0.1,0.5-0.3,0.3c-0.1-0.2-0.1-0.3-0.1-0.5c0-0.3,0-0.7,0.2-1
		c0.1-0.1,0.1-0.5,0.3-0.3C222.2,253.7,222.2,253.8,222.2,254z"/>
	<path class="st0" d="M221.1,258.8c0,0.3,0,0.7-0.2,1c-0.1,0.2-0.1,0.5-0.3,0.3c-0.1-0.2-0.1-0.3-0.1-0.5c0-0.3,0-0.7,0.2-1
		c0.1-0.1,0.1-0.5,0.3-0.3C221.2,258.5,221.1,258.7,221.1,258.8z"/>
	<path class="st0" d="M222.2,257.3c0,0.3,0,0.7-0.2,1c-0.1,0.1-0.1,0.5-0.3,0.3c-0.1-0.2-0.1-0.3-0.1-0.5c0-0.3,0-0.7,0.2-1
		c0.1-0.1,0.1-0.5,0.3-0.3C222.2,257,222.2,257.1,222.2,257.3z"/>
	<path class="st0" d="M226.1,235.8c0,0.1,0,0.3,0,0.4"/>
	<path class="st0" d="M226,235.8C226,235.7,226.1,235.7,226,235.8"/>
	<path class="st0" d="M226.1,236.2c0,0.4,0,0.8,0,1.2"/>
	<path class="st0" d="M226.1,229.1c0,0.1,0,0.3,0,0.4"/>
	<path class="st0" d="M226,229.2c0-0.1,0-0.1,0-0.2"/>
	<path class="st0" d="M226.1,229.5c0,0.4,0,0.8,0,1.2"/>
	<path class="st0" d="M226.1,225.8c0,0.1,0,0.3,0,0.4"/>
	<path class="st0" d="M226,225.9c0-0.1,0-0.1,0-0.2"/>
	<path class="st0" d="M226.1,226.2c0,0.4,0,0.8,0,1.2"/>
	<path class="st0" d="M226.1,219.9c0,0,0-0.1,0-0.1"/>
	<path class="st0" d="M226.1,222.6c0,0.1,0-0.1,0-0.2c0-0.1,0-0.2,0-0.2c0-0.2,0-0.3,0-0.5c0-0.3,0-0.6,0-0.9"/>
	<path class="st0" d="M226.1,222.7c0,0.1,0,0.1,0,0.2"/>
	<path class="st0" d="M226.1,222.4c0,0.1,0,0.1,0,0.2"/>
	<path class="st0" d="M226,222.6c0-0.1-0.1-0.1,0-0.2"/>
	<path class="st0" d="M226.1,222.9c0,0.4,0,0.8,0,1.2"/>
	<path class="st0" d="M226.1,216.4c0-0.1,0-0.3,0-0.4"/>
	<path class="st0" d="M226.1,217.4c0,0,0-0.1,0-0.1"/>
	<path class="st0" d="M226.1,219.2c0,0.1,0,0.3,0,0.4"/>
	<path class="st0" d="M226,219.3c0-0.1,0-0.1,0-0.2"/>
	<path class="st0" d="M226.1,219.6c0,0.4,0,0.8,0,1.2"/>
	<path class="st0" d="M223.1,229.2c0,0.3,0,0.6-0.1,1c0,0.1-0.1,0.5-0.2,0.3c-0.1-0.2-0.1-0.3-0.1-0.5c0-0.3,0-0.6,0.1-1
		c0-0.1,0.1-0.5,0.2-0.3C223.1,228.9,223.1,229,223.1,229.2z"/>
	<path class="st0" d="M223.9,227.6c0,0.3,0,0.6-0.1,1c0,0.1-0.1,0.5-0.2,0.3c-0.1-0.2-0.1-0.3-0.1-0.5c0-0.3,0-0.6,0.1-1
		c0-0.1,0.1-0.5,0.2-0.3C223.9,227.3,223.9,227.5,223.9,227.6z"/>
	<path class="st0" d="M224.6,226c0,0.3,0,0.6-0.1,0.9c0,0.1-0.1,0.5-0.2,0.3c-0.1-0.2-0.1-0.3-0.1-0.5c0-0.3,0-0.6,0.1-0.9
		c0-0.1,0.1-0.6,0.2-0.3C224.6,225.7,224.6,225.9,224.6,226z"/>
	<path class="st0" d="M225.1,224.5c0,0.3,0,0.6-0.1,0.9c0,0.1-0.1,0.6-0.2,0.3c-0.1-0.2,0-0.3,0-0.5c0-0.3,0-0.6,0.1-0.9
		c0-0.1,0.1-0.6,0.2-0.3C225.2,224.1,225.1,224.3,225.1,224.5z"/>
	<path class="st0" d="M225.5,222.3c0.1,0.2,0.1,0.3,0.1,0.5"/>
	<path class="st0" d="M225.4,224c0-0.3,0-0.6,0-0.8c0-0.1,0-0.3,0-0.4c0-0.1,0-0.1,0-0.2c0-0.1,0-0.1,0.1-0.2"/>
	<path class="st0" d="M225.6,222.8c0,0.2,0,0.4,0,0.7c0,0.1,0,0.2,0,0.3c0,0.1,0.1,0.2-0.1,0.3"/>
	<path class="st0" d="M225.9,220.7c0,0.2,0,0.3,0,0.5"/>
	<path class="st0" d="M225.8,220.9c0-0.1,0-0.3,0.1-0.2"/>
	<path class="st0" d="M225.9,221.2c0,0.4,0.1,0.9-0.1,1.3"/>
	<path class="st0" d="M223.1,232.5c0,0.3,0,0.6-0.1,1c0,0.1-0.1,0.5-0.2,0.3c-0.1-0.2-0.1-0.3-0.1-0.5c0-0.3,0-0.6,0.1-1
		c0-0.1,0.1-0.5,0.2-0.3C223.1,232.2,223.1,232.4,223.1,232.5z"/>
	<path class="st0" d="M223.9,230.9c0,0.3,0,0.6-0.1,1c0,0.1-0.1,0.5-0.2,0.3c-0.1-0.2-0.1-0.3-0.1-0.5c0-0.3,0-0.6,0.1-1
		c0-0.1,0.1-0.5,0.2-0.3C223.9,230.6,223.9,230.8,223.9,230.9z"/>
	<path class="st0" d="M224.6,229.4c0,0.3,0,0.6-0.1,0.9c0,0.1-0.1,0.5-0.2,0.3c-0.1-0.2-0.1-0.3-0.1-0.5c0-0.3,0-0.6,0.1-0.9
		c0-0.1,0.1-0.6,0.2-0.3C224.6,229.1,224.6,229.2,224.6,229.4z"/>
	<path class="st0" d="M225.1,227.8c0,0.3,0,0.6-0.1,0.9c0,0.1-0.1,0.6-0.2,0.3c-0.1-0.2,0-0.3,0-0.5c0-0.3,0-0.6,0.1-0.9
		c0-0.1,0.1-0.6,0.2-0.3C225.2,227.5,225.1,227.6,225.1,227.8z"/>
	<path class="st0" d="M225.5,225.6c0.1,0.2,0.1,0.3,0.1,0.5"/>
	<path class="st0" d="M225.4,227.3c0-0.3,0-0.6,0-0.8c0-0.1,0-0.3,0-0.4c0-0.1,0-0.1,0-0.2c0-0.1,0-0.1,0.1-0.2"/>
	<path class="st0" d="M225.6,226.2c0,0.2,0,0.4,0,0.7c0,0.1,0,0.2,0,0.3c0,0.1,0.1,0.2-0.1,0.3"/>
	<path class="st0" d="M225.9,224c0,0.1,0,0.1,0,0.2"/>
	<path class="st0" d="M225.8,224.2c0-0.1,0-0.3,0.1-0.2"/>
	<path class="st0" d="M225.9,224.5c0,0.4,0.1,0.9-0.1,1.3"/>
	<path class="st0" d="M223.1,235.8c0,0.3,0,0.6-0.1,1c0,0.1-0.1,0.5-0.2,0.3c-0.1-0.2-0.1-0.3-0.1-0.5c0-0.3,0-0.6,0.1-1
		c0-0.1,0.1-0.5,0.2-0.3C223.1,235.5,223.1,235.7,223.1,235.8z"/>
	<path class="st0" d="M223.9,234.3c0,0.3,0,0.6-0.1,1c0,0.1-0.1,0.5-0.2,0.3c-0.1-0.2-0.1-0.3-0.1-0.5c0-0.3,0-0.6,0.1-1
		c0-0.1,0.1-0.5,0.2-0.3C223.9,233.9,223.9,234.1,223.9,234.3z"/>
	<path class="st0" d="M224.6,232.7c0,0.3,0,0.6-0.1,0.9c0,0.1-0.1,0.5-0.2,0.3c-0.1-0.2-0.1-0.3-0.1-0.5c0-0.3,0-0.6,0.1-0.9
		c0-0.1,0.1-0.6,0.2-0.3C224.6,232.4,224.6,232.5,224.6,232.7z"/>
	<path class="st0" d="M225.1,231.1c0,0.3,0,0.6-0.1,0.9c0,0.1-0.1,0.6-0.2,0.3c-0.1-0.2,0-0.3,0-0.5c0-0.3,0-0.6,0.1-0.9
		c0-0.1,0.1-0.6,0.2-0.3C225.2,230.8,225.1,230.9,225.1,231.1z"/>
	<path class="st0" d="M225.5,229c0.1,0.2,0.1,0.3,0.1,0.5"/>
	<path class="st0" d="M225.4,230.6c0-0.3,0-0.6,0-0.8c0-0.1,0-0.3,0-0.4c0-0.1,0-0.1,0-0.2c0-0.1,0-0.1,0.1-0.2"/>
	<path class="st0" d="M225.6,229.5c0,0.2,0,0.4,0,0.7c0,0.1,0,0.2,0,0.3c0,0.1,0.1,0.2-0.1,0.3"/>
	<path class="st0" d="M225.9,227.4c0,0.2,0,0.3,0,0.5"/>
	<path class="st0" d="M225.8,227.5c0-0.1,0-0.3,0.1-0.2"/>
	<path class="st0" d="M225.9,227.9c0,0.4,0.1,0.9-0.1,1.3"/>
	<path class="st0" d="M223.1,239.2c0,0.3,0,0.6-0.1,1c0,0.1-0.1,0.5-0.2,0.3c-0.1-0.2-0.1-0.3-0.1-0.5c0-0.3,0-0.6,0.1-1
		c0-0.1,0.1-0.5,0.2-0.3C223.1,238.8,223.1,239,223.1,239.2z"/>
	<path class="st0" d="M223.9,237.6c0,0.3,0,0.6-0.1,1c0,0.1-0.1,0.5-0.2,0.3c-0.1-0.2-0.1-0.3-0.1-0.5c0-0.3,0-0.6,0.1-1
		c0-0.1,0.1-0.5,0.2-0.3C223.9,237.3,223.9,237.4,223.9,237.6z"/>
	<path class="st0" d="M224.6,236c0,0.3,0,0.6-0.1,0.9c0,0.1-0.1,0.5-0.2,0.3c-0.1-0.2-0.1-0.3-0.1-0.5c0-0.3,0-0.6,0.1-0.9
		c0-0.1,0.1-0.6,0.2-0.3C224.6,235.7,224.6,235.8,224.6,236z"/>
	<path class="st0" d="M225.1,234.4c0,0.3,0,0.6-0.1,0.9c0,0.1-0.1,0.6-0.2,0.3c-0.1-0.2,0-0.3,0-0.5c0-0.3,0-0.6,0.1-0.9
		c0-0.1,0.1-0.6,0.2-0.3C225.2,234.1,225.1,234.3,225.1,234.4z"/>
	<path class="st0" d="M225.5,232.3c0.1,0.2,0.1,0.3,0.1,0.5"/>
	<path class="st0" d="M225.4,233.9c0-0.3,0-0.6,0-0.8c0-0.1,0-0.3,0-0.4c0-0.1,0-0.1,0-0.2c0-0.1,0-0.1,0.1-0.2"/>
	<path class="st0" d="M225.6,232.8c0,0.2,0,0.4,0,0.7c0,0.1,0,0.2,0,0.3c0,0.1,0.1,0.2-0.1,0.3"/>
	<path class="st0" d="M225.9,230.7c0,0.2,0,0.3,0,0.5"/>
	<path class="st0" d="M225.8,230.8c0-0.1,0-0.3,0.1-0.2"/>
	<path class="st0" d="M225.9,231.2c0,0.4,0.1,0.9-0.1,1.3"/>
	<path class="st0" d="M223.1,242.5c0,0.3,0,0.6-0.1,1c0,0.1-0.1,0.5-0.2,0.3c-0.1-0.2-0.1-0.3-0.1-0.5c0-0.3,0-0.6,0.1-1
		c0-0.1,0.1-0.5,0.2-0.3C223.1,242.1,223.1,242.3,223.1,242.5z"/>
	<path class="st0" d="M223.9,240.9c0,0.3,0,0.6-0.1,1c0,0.1-0.1,0.5-0.2,0.3c-0.1-0.2-0.1-0.3-0.1-0.5c0-0.3,0-0.6,0.1-1
		c0-0.1,0.1-0.5,0.2-0.3C223.9,240.6,223.9,240.7,223.9,240.9z"/>
	<path class="st0" d="M224.6,239.3c0,0.3,0,0.6-0.1,0.9c0,0.1-0.1,0.5-0.2,0.3c-0.1-0.2-0.1-0.3-0.1-0.5c0-0.3,0-0.6,0.1-0.9
		c0-0.1,0.1-0.6,0.2-0.3C224.6,239,224.6,239.2,224.6,239.3z"/>
	<path class="st0" d="M225.1,237.7c0,0.3,0,0.6-0.1,0.9c0,0.1-0.1,0.6-0.2,0.3c-0.1-0.2,0-0.3,0-0.5c0-0.3,0-0.6,0.1-0.9
		c0-0.1,0.1-0.6,0.2-0.3C225.2,237.4,225.1,237.6,225.1,237.7z"/>
	<path class="st0" d="M225.5,235.6c0.1,0.2,0.1,0.3,0.1,0.5"/>
	<path class="st0" d="M225.4,237.2c0-0.3,0-0.6,0-0.8c0-0.1,0-0.3,0-0.4c0-0.1,0-0.1,0-0.2c0-0.1,0-0.1,0.1-0.2"/>
	<path class="st0" d="M225.6,236.1c0,0.2,0,0.4,0,0.7c0,0.1,0,0.2,0,0.3c0,0.1,0.1,0.2-0.1,0.3"/>
	<path class="st0" d="M225.9,234c0,0.2,0,0.3,0,0.5"/>
	<path class="st0" d="M225.8,234.2c0-0.1,0-0.3,0.1-0.2"/>
	<path class="st0" d="M225.9,234.5c0,0.4,0.1,0.9-0.1,1.3"/>
	<path class="st0" d="M223.1,245.8c0,0.3,0,0.6-0.1,1c0,0.1-0.1,0.5-0.2,0.3c-0.1-0.2-0.1-0.3-0.1-0.5c0-0.3,0-0.6,0.1-1
		c0-0.1,0.1-0.5,0.2-0.3C223.1,245.5,223.1,245.6,223.1,245.8z"/>
	<path class="st0" d="M223.9,244.2c0,0.3,0,0.6-0.1,1c0,0.1-0.1,0.5-0.2,0.3c-0.1-0.2-0.1-0.3-0.1-0.5c0-0.3,0-0.6,0.1-1
		c0-0.1,0.1-0.5,0.2-0.3C223.9,243.9,223.9,244.1,223.9,244.2z"/>
	<path class="st0" d="M224.6,242.6c0,0.3,0,0.6-0.1,0.9c0,0.1-0.1,0.5-0.2,0.3c-0.1-0.2-0.1-0.3-0.1-0.5c0-0.3,0-0.6,0.1-0.9
		c0-0.1,0.1-0.6,0.2-0.3C224.6,242.3,224.6,242.5,224.6,242.6z"/>
	<path class="st0" d="M225.1,241c0,0.3,0,0.6-0.1,0.9c0,0.1-0.1,0.6-0.2,0.3c-0.1-0.2,0-0.3,0-0.5c0-0.3,0-0.6,0.1-0.9
		c0-0.1,0.1-0.6,0.2-0.3C225.2,240.7,225.1,240.9,225.1,241z"/>
	<path class="st0" d="M225.5,238.9c0.1,0.2,0.1,0.3,0.1,0.5"/>
	<path class="st0" d="M225.4,240.6c0-0.3,0-0.6,0-0.8c0-0.1,0-0.3,0-0.4c0-0.1,0-0.1,0-0.2c0-0.1,0-0.1,0.1-0.2"/>
	<path class="st0" d="M225.6,239.4c0,0.2,0,0.4,0,0.7c0,0.1,0,0.2,0,0.3c0,0.1,0.1,0.2-0.1,0.3"/>
	<path class="st0" d="M225.9,237.3c0,0.2,0,0.3,0,0.5"/>
	<path class="st0" d="M225.8,239.1c-0.1-0.3,0-0.6,0-0.9c0-0.2,0-0.3,0-0.5c0-0.1,0-0.2,0-0.2c0-0.1,0-0.3,0.1-0.2"/>
	<path class="st0" d="M225.9,237.8c0,0.4,0.1,0.9-0.1,1.3"/>
	<path class="st0" d="M223.1,249.1c0,0.3,0,0.6-0.1,1c0,0.1-0.1,0.5-0.2,0.3c-0.1-0.2-0.1-0.3-0.1-0.5c0-0.3,0-0.6,0.1-1
		c0-0.1,0.1-0.5,0.2-0.3C223.1,248.8,223.1,248.9,223.1,249.1z"/>
	<path class="st0" d="M223.9,247.5c0,0.3,0,0.6-0.1,1c0,0.1-0.1,0.5-0.2,0.3c-0.1-0.2-0.1-0.3-0.1-0.5c0-0.3,0-0.6,0.1-1
		c0-0.1,0.1-0.5,0.2-0.3C223.9,247.2,223.9,247.4,223.9,247.5z"/>
	<path class="st0" d="M224.6,246c0,0.3,0,0.6-0.1,0.9c0,0.1-0.1,0.5-0.2,0.3c-0.1-0.2-0.1-0.3-0.1-0.5c0-0.3,0-0.6,0.1-0.9
		c0-0.1,0.1-0.6,0.2-0.3C224.6,245.6,224.6,245.8,224.6,246z"/>
	<path class="st0" d="M225.1,244.4c0,0.3,0,0.6-0.1,0.9c0,0.1-0.1,0.6-0.2,0.3c-0.1-0.2,0-0.3,0-0.5c0-0.3,0-0.6,0.1-0.9
		c0-0.1,0.1-0.6,0.2-0.3C225.2,244,225.1,244.2,225.1,244.4z"/>
	<path class="st0" d="M225.5,242.2c0.1,0.2,0.1,0.3,0.1,0.5"/>
	<path class="st0" d="M225.6,242.8c0,0.4-0.2,1.8-0.2,1.1c0-0.3,0-0.5,0-0.8c0-0.1,0-0.3,0-0.4c0-0.1,0-0.2,0.1-0.3c0,0,0-0.1,0-0.1
		"/>
	<path class="st0" d="M225.9,240.6c0,0.2,0,0.3,0,0.5"/>
	<path class="st0" d="M225.8,240.6C225.8,240.6,225.9,240.6,225.8,240.6"/>
	<path class="st0" d="M225.9,241.1c0,0.4,0.1,0.9-0.1,1.3"/>
	<path class="st0" d="M223.1,252.4c0,0.3,0,0.6-0.1,1c0,0.1-0.1,0.5-0.2,0.3c-0.1-0.2-0.1-0.3-0.1-0.5c0-0.3,0-0.6,0.1-1
		c0-0.1,0.1-0.5,0.2-0.3C223.1,252.1,223.1,252.3,223.1,252.4z"/>
	<path class="st0" d="M223.9,250.9c0,0.3,0,0.6-0.1,1c0,0.1-0.1,0.5-0.2,0.3c-0.1-0.2-0.1-0.3-0.1-0.5c0-0.3,0-0.6,0.1-1
		c0-0.1,0.1-0.5,0.2-0.3C223.9,250.5,223.9,250.7,223.9,250.9z"/>
	<path class="st0" d="M224.6,249.3c0,0.3,0,0.6-0.1,0.9c0,0.1-0.1,0.5-0.2,0.3c-0.1-0.2-0.1-0.3-0.1-0.5c0-0.3,0-0.6,0.1-0.9
		c0-0.1,0.1-0.6,0.2-0.3C224.6,249,224.6,249.1,224.6,249.3z"/>
	<path class="st0" d="M225.1,247.7c0,0.3,0,0.6-0.1,0.9c0,0.1-0.1,0.6-0.2,0.3c-0.1-0.2,0-0.3,0-0.5c0-0.3,0-0.6,0.1-0.9
		c0-0.1,0.1-0.6,0.2-0.3C225.2,247.4,225.1,247.5,225.1,247.7z"/>
	<path class="st0" d="M223.1,255.7c0,0.3,0,0.6-0.1,1c0,0.1-0.1,0.5-0.2,0.3c-0.1-0.2-0.1-0.3-0.1-0.5c0-0.3,0-0.6,0.1-1
		c0-0.1,0.1-0.5,0.2-0.3C223.1,255.4,223.1,255.6,223.1,255.7z"/>
	<path class="st0" d="M223.9,254.2c0,0.3,0,0.6-0.1,1c0,0.1-0.1,0.5-0.2,0.3c-0.1-0.2-0.1-0.3-0.1-0.5c0-0.3,0-0.6,0.1-1
		c0-0.1,0.1-0.5,0.2-0.3C223.9,253.9,223.9,254,223.9,254.2z"/>
	<path class="st0" d="M220,260.4c0,0.4-0.1,0.7-0.2,1c-0.1,0.2-0.1,0.5-0.3,0.3c-0.1-0.2-0.1-0.3-0.1-0.5c0-0.3,0.1-0.7,0.2-1
		c0.1-0.2,0.1-0.5,0.3-0.3C220,260,220,260.2,220,260.4z"/>
	<path class="st0" d="M217.3,260c0,0.4-0.1,0.7-0.2,1c-0.3,0.5-0.5,0.2-0.5-0.3c0-0.4,0.1-0.7,0.2-1
		C217,259.3,217.3,259.5,217.3,260z"/>
	<path class="st0" d="M212.3,254.5c0,0.4-0.1,0.7-0.3,1c-0.3,0.4-0.6,0.2-0.6-0.3c0-0.4,0.1-0.7,0.3-1
		C212,253.7,212.3,254,212.3,254.5z"/>
	<path class="st0" d="M210.4,249.3c0,0.4-0.1,0.7-0.4,1c-0.3,0.4-0.7,0.2-0.7-0.3c0-0.4,0.1-0.7,0.4-1
		C210.1,248.5,210.4,248.8,210.4,249.3z"/>
	<path class="st0" d="M226.1,232.5c0,0.1,0,0.3,0,0.4"/>
	<path class="st0" d="M226,232.5c0-0.1,0-0.1,0-0.2"/>
	<path class="st0" d="M226.1,232.9c0,0.4,0,0.8,0,1.2"/>
	<path class="st0" d="M226.1,223c0-0.1,0-0.3,0-0.4"/>
	<path class="st0" d="M226.1,224c0,0,0-0.1,0-0.1"/>
	<path class="st0" d="M225.5,245.6c0.1,0.2,0.1,0.3,0.1,0.5"/>
	<path class="st0" d="M225.6,246.1c0,0.4-0.2,1.8-0.2,1.1c0-0.3,0-0.5,0-0.8c0-0.1,0-0.3,0-0.4c0-0.1,0-0.2,0.1-0.3c0,0,0-0.1,0-0.1
		"/>
	<path class="st0" d="M224.6,252.6c0,0.3,0,0.6-0.1,0.9c0,0.1-0.1,0.5-0.2,0.3c-0.1-0.2-0.1-0.3-0.1-0.5c0-0.3,0-0.6,0.1-0.9
		c0-0.1,0.1-0.6,0.2-0.3C224.6,252.3,224.6,252.4,224.6,252.6z"/>
	<path class="st0" d="M226.1,206.4c0-0.1,0-0.3,0-0.4"/>
	<path class="st0" d="M226.1,207.4c0,0,0-0.1,0-0.1"/>
	<path class="st0" d="M162.6,168.4c-0.4,0-0.7-0.1-1,0.2c-0.4,0.3,0.2,0.5,0.6,0.6c0.4,0,0.7,0.1,1-0.2
		C163.6,168.6,163,168.4,162.6,168.4z"/>
	<line class="st0" x1="48.2" y1="137.9" x2="48.2" y2="126.9"/>
	<line class="st0" x1="187.6" y1="88.2" x2="187.6" y2="95.6"/>
	<path class="st0" d="M147.8,176.7c0,0-0.1,0-0.1,0"/>
	<path class="st0" d="M147.6,176.8c-0.6,0.2-1.2,0.2-1.9,0.1"/>
	<line class="st0" x1="145.7" y1="176.9" x2="46.9" y2="165.4"/>
	<path class="st0" d="M46.8,165.3c-0.7-0.1-1.4-0.3-1.9-0.8"/>
	<path class="st0" d="M44.5,164.2c-0.4-0.5-0.6-1-0.7-1.6"/>
	<path class="st0" d="M149.6,175.3c-0.4,0.7-0.9,1-1.6,1.3"/>
	<path class="st0" d="M189.9,109.2c0,0.3-0.1,0.6-0.2,1"/>
	<line class="st0" x1="189.5" y1="110.5" x2="149.7" y2="175.1"/>
	<line class="st0" x1="145.9" y1="153.3" x2="54.8" y2="142.7"/>
	<line class="st0" x1="145.9" y1="142.2" x2="54.8" y2="131.6"/>
	<path class="st0" d="M147.6,152.9c-0.3,0.4-1.3,0.5-1.7,0.4"/>
	<path class="st0" d="M147.6,141.8c-0.3,0.4-1.3,0.5-1.7,0.4"/>
	<line class="st0" x1="187.5" y1="88" x2="147.6" y2="152.9"/>
	<line class="st0" x1="187.5" y1="77" x2="147.6" y2="141.8"/>
	<path class="st0" d="M187.6,87.9c0,0.1,0,0.1,0,0.2"/>
	<path class="st0" d="M186.6,76.2c0.2,0,0.5,0.1,0.7,0.2c0.2,0.1,0.5,0.2,0.3,0.5"/>
	<line class="st0" x1="87.8" y1="64.7" x2="186.6" y2="76.2"/>
	<path class="st0" d="M86.2,65.1c0.3-0.4,1.3-0.5,1.7-0.4"/>
	<line class="st0" x1="48.3" y1="126.7" x2="86.2" y2="65.1"/>
	<path class="st0" d="M48.4,138.2c-0.1-0.1-0.2-0.2-0.2-0.3"/>
	<path class="st0" d="M48.4,127.1c-0.2-0.1-0.3-0.2-0.1-0.4"/>
	<line class="st0" x1="54" y1="142.4" x2="48.4" y2="138.2"/>
	<line class="st0" x1="54" y1="131.3" x2="48.4" y2="127.1"/>
	<path class="st0" d="M54.8,142.7c-0.3,0-0.6-0.1-0.8-0.3"/>
	<line class="st0" x1="145.9" y1="153.6" x2="54.8" y2="143"/>
	<path class="st0" d="M147.6,153.2c-0.3,0.4-1.3,0.5-1.7,0.4"/>
	<line class="st0" x1="187.5" y1="88.3" x2="147.6" y2="153.2"/>
	<line class="st0" x1="54" y1="142.7" x2="48.4" y2="138.5"/>
	<line class="st0" x1="147.7" y1="176.7" x2="147.6" y2="176.8"/>
	<line class="st0" x1="147.8" y1="176.7" x2="147.9" y2="176.7"/>
	<line class="st0" x1="149.6" y1="175.3" x2="149.7" y2="175.1"/>
	<line class="st0" x1="189.9" y1="109.2" x2="189.9" y2="109"/>
	<path class="st0" d="M189.5,110.5c0,0,0.1-0.1,0.1-0.1"/>
	<line class="st0" x1="189.6" y1="110.3" x2="189.7" y2="110.1"/>
	<path class="st0" d="M48.2,140.9c-1.4,2.2-2.7,4.5-4.1,6.7c-0.5,0.8-0.2,1.2,0.5,1.6c0.9,0.5,1.9,0.6,2.9,0.7
		c1.3,0.1,2.6,0.3,3.8,0.4c2.6,0.3,5.1,0.6,7.7,0.9c8.1,0.9,16.2,1.9,24.3,2.8c16.2,1.9,32.4,3.8,48.6,5.7c2.3,0.3,4.6,0.5,7,0.8
		c1.2,0.1,2.3,0.3,3.5,0.4c1.4,0.2,2.8,0.4,4.2,0.4c0.9,0,2.5-0.2,3.2-1.1c0.2-0.3,0.3-0.5,0.5-0.8c0.3-0.5,0.6-1,0.9-1.5
		c0.6-1,1.2-2,1.9-3c4.3-6.9,8.6-13.9,12.8-20.8c4.3-6.9,8.6-13.9,12.8-20.8c1.9-3.1,3.9-6.3,5.8-9.4c1-1.6,1.9-3.1,2.9-4.7
		c0.5-0.8,1-1.6,1.5-2.4c0.2-0.4,0.5-0.8,0.7-1.2c0.9-1.4-0.9-1.9-2.1-2.1"/>
	<path class="st0" d="M187.6,94.4c0.3,0.2,0.5,0.3,0.3,0.7"/>
	<path class="st0" d="M187.5,88c0.1,0.1,0.1,0.2,0,0.3"/>
	<line class="st0" x1="187.5" y1="88" x2="187.5" y2="88"/>
	<line class="st0" x1="48.2" y1="149.1" x2="48.2" y2="138.2"/>
	<path class="st0" d="M48.4,138.5c-0.2-0.1-0.3-0.3-0.1-0.5"/>
	<line class="st0" x1="43.8" y1="162.5" x2="43.8" y2="162.4"/>
	<line class="st0" x1="46.8" y1="165.3" x2="46.9" y2="165.4"/>
	<line class="st0" x1="44.5" y1="164.2" x2="44.9" y2="164.6"/>
	<line class="st0" x1="189.9" y1="94.9" x2="189.9" y2="109"/>
	<line class="st0" x1="43.8" y1="162.4" x2="43.8" y2="148.2"/>
	<path class="st0" d="M15.5,144.2c7.6-12.3,24.6-20.1,37-24.2"/>
	<path class="st0" d="M183.3,120.6c6.9,2.4,13.4,5.3,19.7,9.2c5.1,3.1,9.5,6.6,13.3,11.3c9.8,12.3,6.3,24.8-4.6,34.7
		c-18,16.4-51.1,23-73.2,25c-25.2,2.3-53.4,0.6-77.9-6.2c-12.1-3.3-25.3-8.5-35.4-16.4c-10.8-8.5-17.9-20.6-9.6-34"/>
	<path class="st0" d="M103,171.9c2.6,0.4,5.2,0.7,7.8,0.9"/>
	<path class="st0" d="M168.1,165.7c-0.4,0-0.7-0.1-1,0.2c-0.4,0.3,0.2,0.5,0.6,0.6c0.4,0,0.7,0.1,1-0.2
		C169.1,166,168.5,165.8,168.1,165.7z"/>
	<path class="st0" d="M171.2,154.4c-0.4,0-0.7-0.1-1,0.2c-0.4,0.3,0.2,0.5,0.6,0.6c0.4,0,0.7,0.1,1-0.2
		C172.2,154.7,171.6,154.5,171.2,154.4z"/>
	<path class="st0" d="M170.3,156c-0.4,0-0.7-0.1-1,0.2c-0.4,0.3,0.2,0.5,0.6,0.6c0.4,0,0.7,0.1,1-0.2
		C171.3,156.3,170.6,156,170.3,156z"/>
	<path class="st0" d="M169.3,157.5c-0.4,0-0.7-0.1-1,0.2c-0.4,0.3,0.2,0.5,0.6,0.6c0.4,0,0.7,0.1,1-0.2
		C170.3,157.8,169.7,157.6,169.3,157.5z"/>
	<path class="st0" d="M168.4,159.1c-0.4,0-0.7-0.1-1,0.2c-0.4,0.3,0.2,0.5,0.6,0.6c0.4,0,0.7,0.1,1-0.2
		C169.3,159.4,168.7,159.1,168.4,159.1z"/>
	<path class="st0" d="M167.4,160.6c-0.4,0-0.7-0.1-1,0.2c-0.4,0.3,0.2,0.5,0.6,0.6c0.4,0,0.7,0.1,1-0.2
		C168.4,160.9,167.8,160.7,167.4,160.6z"/>
	<path class="st0" d="M172.9,158c-0.4,0-0.7-0.1-1,0.2c-0.4,0.3,0.2,0.5,0.6,0.6c0.4,0,0.7,0.1,1-0.2
		C173.9,158.2,173.2,158,172.9,158z"/>
	<path class="st0" d="M171.9,159.5c-0.4,0-0.7-0.1-1,0.2c-0.4,0.3,0.2,0.5,0.6,0.6c0.4,0,0.7,0.1,1-0.2
		C172.9,159.8,172.3,159.6,171.9,159.5z"/>
	<path class="st0" d="M171,161.1c-0.4,0-0.7-0.1-1,0.2c-0.4,0.3,0.2,0.5,0.6,0.6c0.4,0,0.7,0.1,1-0.2
		C172,161.3,171.3,161.1,171,161.1z"/>
	<path class="st0" d="M166.4,162.2c-0.4,0-0.7-0.1-1,0.2c-0.4,0.3,0.2,0.5,0.6,0.6c0.4,0,0.7,0.1,1-0.2
		C167.4,162.4,166.8,162.2,166.4,162.2z"/>
	<path class="st0" d="M165.5,163.7c-0.4,0-0.7-0.1-1,0.2c-0.4,0.3,0.2,0.5,0.6,0.6c0.4,0,0.7,0.1,1-0.2
		C166.5,164,165.9,163.8,165.5,163.7z"/>
	<path class="st0" d="M164.5,165.3c-0.4,0-0.7-0.1-1,0.2c-0.4,0.3,0.2,0.5,0.6,0.6c0.4,0,0.7,0.1,1-0.2
		C165.5,165.5,164.9,165.3,164.5,165.3z"/>
	<path class="st0" d="M163.6,166.8c-0.4,0-0.7-0.1-1,0.2c-0.4,0.3,0.2,0.5,0.6,0.6c0.4,0,0.7,0.1,1-0.2
		C164.6,167.1,164,166.9,163.6,166.8z"/>
	<line class="st0" x1="187.6" y1="76.8" x2="187.6" y2="87.9"/>
	<path class="st0" d="M170,162.6c-0.4,0-0.7-0.1-1,0.2c-0.4,0.3,0.2,0.5,0.6,0.6c0.4,0,0.7,0.1,1-0.2
		C171,162.9,170.4,162.7,170,162.6z"/>
	<path class="st0" d="M169.1,164.2c-0.4,0-0.7-0.1-1,0.2c-0.4,0.3,0.2,0.5,0.6,0.6c0.4,0,0.7,0.1,1-0.2
		C170,164.4,169.4,164.2,169.1,164.2z"/>
	<path class="st0" d="M159.1,168c-0.4,0-0.7-0.1-1,0.2c-0.4,0.3,0.2,0.5,0.6,0.6c0.4,0,0.7,0.1,1-0.2
		C160.1,168.2,159.4,168,159.1,168z"/>
	<path class="st0" d="M160,166.4c-0.4,0-0.7-0.1-1,0.2c-0.4,0.3,0.2,0.5,0.6,0.6c0.4,0,0.7,0.1,1-0.2
		C161,166.7,160.4,166.5,160,166.4z"/>
	<path class="st0" d="M161,164.9c-0.4,0-0.7-0.1-1,0.2c-0.4,0.3,0.2,0.5,0.6,0.6c0.4,0,0.7,0.1,1-0.2
		C162,165.1,161.4,164.9,161,164.9z"/>
	<path class="st0" d="M161.9,163.3c-0.4,0-0.7-0.1-1,0.2c-0.4,0.3,0.2,0.5,0.6,0.6c0.4,0,0.7,0.1,1-0.2
		C162.9,163.6,162.3,163.4,161.9,163.3z"/>
	<path class="st0" d="M162.9,161.8c-0.4,0-0.7-0.1-1,0.2c-0.4,0.3,0.2,0.5,0.6,0.6c0.4,0,0.7,0.1,1-0.2
		C163.9,162,163.3,161.8,162.9,161.8z"/>
	<path class="st0" d="M155.5,167.6c-0.4,0-0.7-0.1-1,0.2c-0.4,0.3,0.2,0.5,0.6,0.6c0.4,0,0.7,0.1,1-0.2
		C156.5,167.8,155.9,167.6,155.5,167.6z"/>
	<path class="st0" d="M156.5,166c-0.4,0-0.7-0.1-1,0.2c-0.4,0.3,0.2,0.5,0.6,0.6c0.4,0,0.7,0.1,1-0.2
		C157.5,166.3,156.8,166.1,156.5,166z"/>
	<path class="st0" d="M157.4,164.5c-0.4,0-0.7-0.1-1,0.2c-0.4,0.3,0.2,0.5,0.6,0.6c0.4,0,0.7,0.1,1-0.2
		C158.4,164.7,157.8,164.5,157.4,164.5z"/>
	<path class="st0" d="M158.4,162.9c-0.4,0-0.7-0.1-1,0.2c-0.4,0.3,0.2,0.5,0.6,0.6c0.4,0,0.7,0.1,1-0.2
		C159.4,163.2,158.7,163,158.4,162.9z"/>
	<path class="st0" d="M159.3,161.4c-0.4,0-0.7-0.1-1,0.2c-0.4,0.3,0.2,0.5,0.6,0.6c0.4,0,0.7,0.1,1-0.2
		C160.3,161.6,159.7,161.4,159.3,161.4z"/>
	<path class="st0" d="M163.8,160.2c-0.4,0-0.7-0.1-1,0.2c-0.4,0.3,0.2,0.5,0.6,0.6c0.4,0,0.7,0.1,1-0.2
		C164.8,160.5,164.2,160.3,163.8,160.2z"/>
	<path class="st0" d="M164.8,158.7c-0.4,0-0.7-0.1-1,0.2c-0.4,0.3,0.2,0.5,0.6,0.6c0.4,0,0.7,0.1,1-0.2
		C165.8,158.9,165.2,158.7,164.8,158.7z"/>
	<path class="st0" d="M165.7,157.1c-0.4,0-0.7-0.1-1,0.2c-0.4,0.3,0.2,0.5,0.6,0.6c0.4,0,0.7,0.1,1-0.2
		C166.7,157.4,166.1,157.2,165.7,157.1z"/>
	<path class="st0" d="M166.7,155.6c-0.4,0-0.7-0.1-1,0.2c-0.4,0.3,0.2,0.5,0.6,0.6c0.4,0,0.7,0.1,1-0.2
		C167.7,155.8,167.1,155.6,166.7,155.6z"/>
	<path class="st0" d="M167.7,154c-0.4,0-0.7-0.1-1,0.2c-0.4,0.3,0.2,0.5,0.6,0.6c0.4,0,0.7,0.1,1-0.2
		C168.6,154.3,168,154.1,167.7,154z"/>
	<path class="st0" d="M168.6,152.5c-0.4,0-0.7-0.1-1,0.2c-0.4,0.3,0.2,0.5,0.6,0.6c0.4,0,0.7,0.1,1-0.2
		C169.6,152.7,169,152.5,168.6,152.5z"/>
	<path class="st0" d="M160.3,159.8c-0.4,0-0.7-0.1-1,0.2c-0.4,0.3,0.2,0.5,0.6,0.6c0.4,0,0.7,0.1,1-0.2
		C161.3,160.1,160.7,159.9,160.3,159.8z"/>
	<path class="st0" d="M161.2,158.3c-0.4,0-0.7-0.1-1,0.2c-0.4,0.3,0.2,0.5,0.6,0.6c0.4,0,0.7,0.1,1-0.2
		C162.2,158.5,161.6,158.3,161.2,158.3z"/>
	<path class="st0" d="M162.2,156.7c-0.4,0-0.7-0.1-1,0.2c-0.4,0.3,0.2,0.5,0.6,0.6c0.4,0,0.7,0.1,1-0.2
		C163.2,157,162.6,156.8,162.2,156.7z"/>
	<path class="st0" d="M163.1,155.2c-0.4,0-0.7-0.1-1,0.2c-0.4,0.3,0.2,0.5,0.6,0.6c0.4,0,0.7,0.1,1-0.2
		C164.1,155.4,163.5,155.2,163.1,155.2z"/>
	<path class="st0" d="M164.1,153.6c-0.4,0-0.7-0.1-1,0.2c-0.4,0.3,0.2,0.5,0.6,0.6c0.4,0,0.7,0.1,1-0.2
		C165.1,153.9,164.5,153.7,164.1,153.6z"/>
	<path class="st0" d="M165,152.1c-0.4,0-0.7-0.1-1,0.2c-0.4,0.3,0.2,0.5,0.6,0.6c0.4,0,0.7,0.1,1-0.2
		C166,152.3,165.4,152.1,165,152.1z"/>
	<path class="st0" d="M154.6,169.1c-0.4,0-0.7-0.1-1,0.2c-0.4,0.3,0.2,0.5,0.6,0.6c0.4,0,0.7,0.1,1-0.2
		C155.5,169.4,154.9,169.2,154.6,169.1z"/>
	<path class="st0" d="M158.1,169.5c-0.4,0-0.7-0.1-1,0.2c-0.4,0.3,0.2,0.5,0.6,0.6c0.4,0,0.7,0.1,1-0.2
		C159.1,169.8,158.5,169.6,158.1,169.5z"/>
	<line class="st0" x1="145.8" y1="160.5" x2="47.1" y2="149"/>
	<line class="st0" x1="45.9" y1="148" x2="48.2" y2="144.2"/>
	<line class="st0" x1="187.9" y1="95.1" x2="147.9" y2="159.9"/>
	<path class="st0" d="M47.1,149c-0.3,0-0.6-0.1-0.9-0.2c-0.3-0.2-0.6-0.3-0.4-0.7"/>
	<line class="st0" x1="45.9" y1="148" x2="45.9" y2="148.4"/>
	<path class="st0" d="M147.9,159.9c-0.3,0.6-1.6,0.6-2.1,0.5"/>
	<path class="st0" d="M54.8,143c-0.3,0-0.6-0.1-0.8-0.3"/>
	<path class="st0" d="M56.3,126.9c0.1-0.2,0.2-0.5,0.3-0.7"/>
	<path class="st0" d="M144.3,104.8c0.1-0.2,0.2-0.5,0.3-0.7"/>
	<path class="st0" d="M121.5,101.4c1.8-2.9,7.8-3.4,10.5-3.4c1.9,0,3.8,0.3,5.6,0.8c1.4,0.4,4,1.4,4.4,3.2"/>
	<path class="st0" d="M121.2,102.1c0.1-0.2,0.2-0.5,0.3-0.7"/>
	<path class="st0" d="M98.3,98.7c1.8-2.9,7.8-3.4,10.5-3.4c1.9,0,3.8,0.3,5.6,0.8c1.4,0.4,4,1.4,4.4,3.2"/>
	<path class="st0" d="M98,99.4c0.1-0.2,0.2-0.5,0.3-0.7"/>
	<path class="st0" d="M75.2,96c1.8-2.9,7.8-3.4,10.5-3.4c1.9,0,3.8,0.3,5.6,0.8c1.4,0.4,4,1.4,4.4,3.2"/>
	<path class="st0" d="M74.9,96.7c0.1-0.2,0.2-0.5,0.3-0.7"/>
	<path class="st0" d="M69,106.1c1.8-2.9,7.8-3.4,10.5-3.4c1.9,0,3.8,0.3,5.6,0.8c1.4,0.4,4,1.4,4.4,3.2"/>
	<path class="st0" d="M68.7,106.7c0.1-0.2,0.2-0.5,0.3-0.7"/>
	<path class="st0" d="M92.1,108.8c1.8-2.9,7.8-3.4,10.5-3.4c1.9,0,3.8,0.3,5.6,0.8c1.4,0.4,4,1.4,4.4,3.2"/>
	<path class="st0" d="M91.8,109.4c0.1-0.2,0.2-0.5,0.3-0.7"/>
	<path class="st0" d="M115.3,111.4c1.8-2.9,7.8-3.4,10.5-3.4c1.9,0,3.8,0.3,5.6,0.8c1.4,0.4,4,1.4,4.4,3.2"/>
	<path class="st0" d="M115,112.1c0.1-0.2,0.2-0.5,0.3-0.7"/>
	<path class="st0" d="M138.4,114.1c1.8-2.9,7.8-3.4,10.5-3.4c1.9,0,3.8,0.3,5.6,0.8c1.4,0.4,4,1.4,4.4,3.2"/>
	<path class="st0" d="M138.1,114.8c0.1-0.2,0.2-0.5,0.3-0.7"/>
	<path class="st0" d="M132.2,124.2c1.8-2.9,7.8-3.4,10.5-3.4c1.9,0,3.8,0.3,5.6,0.8c1.4,0.4,4,1.4,4.4,3.2"/>
	<path class="st0" d="M131.9,124.9c0.1-0.2,0.2-0.5,0.3-0.7"/>
	<path class="st0" d="M109.1,121.5c1.8-2.9,7.8-3.4,10.5-3.4c1.9,0,3.8,0.3,5.6,0.8c1.4,0.4,4,1.4,4.4,3.2"/>
	<path class="st0" d="M108.8,122.2c0.1-0.2,0.2-0.5,0.3-0.7"/>
	<path class="st0" d="M85.9,118.8c1.8-2.9,7.8-3.4,10.5-3.4c1.9,0,3.8,0.3,5.6,0.8c1.4,0.4,4,1.4,4.4,3.2"/>
	<path class="st0" d="M85.6,119.5c0.1-0.2,0.2-0.5,0.3-0.7"/>
	<path class="st0" d="M62.8,116.1c1.8-2.9,7.8-3.4,10.5-3.4c1.9,0,3.8,0.3,5.6,0.8c1.4,0.4,4,1.4,4.4,3.2"/>
	<path class="st0" d="M62.5,116.8c0.1-0.2,0.2-0.5,0.3-0.7"/>
	<path class="st0" d="M126,134.3c1.8-2.9,7.8-3.4,10.5-3.4c1.9,0,3.8,0.3,5.6,0.8c1.4,0.4,4,1.4,4.4,3.2"/>
	<path class="st0" d="M125.7,135c0.1-0.2,0.2-0.5,0.3-0.7"/>
	<path class="st0" d="M102.9,131.6c1.8-2.9,7.8-3.4,10.5-3.4c1.9,0,3.8,0.3,5.6,0.8c1.4,0.4,4,1.4,4.4,3.2"/>
	<path class="st0" d="M102.6,132.3c0.1-0.2,0.2-0.5,0.3-0.7"/>
	<path class="st0" d="M79.7,128.9c1.8-2.9,7.8-3.4,10.5-3.4c1.9,0,3.8,0.3,5.6,0.8c1.4,0.4,4,1.4,4.4,3.2"/>
	<path class="st0" d="M79.4,129.6c0.1-0.2,0.2-0.5,0.3-0.7"/>
	<path class="st0" d="M56.6,126.2c1.8-2.9,7.8-3.4,10.5-3.4c1.9,0,3.8,0.3,5.6,0.8c1.4,0.4,4,1.4,4.4,3.2"/>
	<path class="st0" d="M144.6,104.1c1.8-2.9,7.8-3.4,10.5-3.4c1.9,0,3.8,0.3,5.6,0.8c1.4,0.4,4,1.4,4.4,3.2"/>
	<path class="st0" d="M150.5,94.7c0.1-0.2,0.2-0.5,0.3-0.7"/>
	<path class="st0" d="M150.8,94c1.8-2.9,7.8-3.4,10.5-3.4c1.9,0,3.8,0.3,5.6,0.8c1.4,0.4,4,1.4,4.4,3.2"/>
	<path class="st0" d="M127.4,92c0.1-0.2,0.2-0.5,0.3-0.7"/>
	<path class="st0" d="M127.7,91.3c1.8-2.9,7.8-3.4,10.5-3.4c1.9,0,3.8,0.3,5.6,0.8c1.4,0.4,4,1.4,4.4,3.2"/>
	<path class="st0" d="M104.2,89.3c0.1-0.2,0.2-0.5,0.3-0.7"/>
	<path class="st0" d="M104.5,88.6c1.8-2.9,7.8-3.4,10.5-3.4c1.9,0,3.8,0.3,5.6,0.8c1.4,0.4,4,1.4,4.4,3.2"/>
	<path class="st0" d="M81.1,86.6c0.1-0.2,0.2-0.5,0.3-0.7"/>
	<path class="st0" d="M81.4,85.9c1.8-2.9,7.8-3.4,10.5-3.4c1.9,0,3.8,0.3,5.6,0.8c1.4,0.4,4,1.4,4.4,3.2"/>
	<path class="st0" d="M87.3,76.5c0.1-0.2,0.2-0.5,0.3-0.7"/>
	<path class="st0" d="M87.6,75.8c1.8-2.9,7.8-3.4,10.5-3.4c1.9,0,3.8,0.3,5.6,0.8c1.4,0.4,4,1.4,4.4,3.2"/>
	<path class="st0" d="M110.4,79.2c0.1-0.2,0.2-0.5,0.3-0.7"/>
	<path class="st0" d="M110.7,78.5c1.8-2.9,7.8-3.4,10.5-3.4c1.9,0,3.8,0.3,5.6,0.8c1.4,0.4,4,1.4,4.4,3.2"/>
	<path class="st0" d="M133.6,81.9c0.1-0.2,0.2-0.5,0.3-0.7"/>
	<path class="st0" d="M133.9,81.2c1.8-2.9,7.8-3.4,10.5-3.4c1.9,0,3.8,0.3,5.6,0.8c1.4,0.4,4,1.4,4.4,3.2"/>
	<path class="st0" d="M156.7,84.6c0.1-0.2,0.2-0.5,0.3-0.7"/>
	<path class="st0" d="M157,83.9c1.8-2.9,7.8-3.4,10.5-3.4c1.9,0,3.8,0.3,5.6,0.8c1.4,0.4,4,1.4,4.4,3.2"/>
	<path class="st0" d="M155.9,83.7c3.2-4.9,19.1-4.9,22.3,0"/>
	<path class="st0" d="M155.9,81c0.5-0.8,1.2-1.3,2-1.8c1.2-0.7,2.5-1.1,3.8-1.4c2.2-0.5,4.5-0.7,6.8-0.5c2.3,0.1,4.5,0.5,6.6,1.4
		c1.9,0.8,4.7,2.6,3.2,5c-0.5,0.8-1.2,1.3-2,1.8c-1.2,0.7-2.5,1.1-3.8,1.4c-2.2,0.5-4.5,0.7-6.8,0.5c-2.3-0.1-4.5-0.5-6.6-1.4
		C157.2,85.2,154.4,83.4,155.9,81z"/>
	<path class="st0" d="M132.8,81c3.2-4.9,19.1-4.9,22.3,0"/>
	<path class="st0" d="M132.7,78.3c0.5-0.8,1.2-1.3,2-1.8c1.2-0.7,2.5-1.1,3.8-1.4c2.2-0.5,4.5-0.7,6.8-0.5c2.3,0.1,4.5,0.5,6.6,1.4
		c1.9,0.8,4.7,2.6,3.2,5c-0.5,0.8-1.2,1.3-2,1.8c-1.2,0.7-2.5,1.1-3.8,1.4c-2.2,0.5-4.5,0.7-6.8,0.5c-2.3-0.1-4.5-0.5-6.6-1.4
		C134.1,82.5,131.3,80.7,132.7,78.3z"/>
	<path class="st0" d="M109.6,78.3c3.2-4.9,19.1-4.9,22.3,0"/>
	<path class="st0" d="M109.6,75.6c0.5-0.8,1.2-1.3,2-1.8c1.2-0.7,2.5-1.1,3.8-1.4c2.2-0.5,4.5-0.7,6.8-0.5c2.3,0.1,4.5,0.5,6.6,1.4
		c1.9,0.8,4.7,2.6,3.2,5c-0.5,0.8-1.2,1.3-2,1.8c-1.2,0.7-2.5,1.1-3.8,1.4c-2.2,0.5-4.5,0.7-6.8,0.5c-2.3-0.1-4.5-0.5-6.6-1.4
		C110.9,79.8,108.1,78,109.6,75.6z"/>
	<path class="st0" d="M86.5,75.6c3.2-4.9,19.1-4.9,22.3,0"/>
	<path class="st0" d="M86.4,72.9c0.5-0.8,1.2-1.3,2-1.8c1.2-0.7,2.5-1.1,3.8-1.4c2.2-0.5,4.5-0.7,6.8-0.5c2.3,0.1,4.5,0.5,6.6,1.4
		c1.9,0.8,4.7,2.6,3.2,5c-0.5,0.8-1.2,1.3-2,1.8c-1.2,0.7-2.5,1.1-3.8,1.4c-2.2,0.5-4.5,0.7-6.8,0.5c-2.3-0.1-4.5-0.5-6.6-1.4
		C87.8,77.1,85,75.3,86.4,72.9z"/>
	<path class="st0" d="M80.3,85.7c3.2-4.9,19.1-4.9,22.3,0"/>
	<path class="st0" d="M80.2,83c0.5-0.8,1.2-1.3,2-1.8c1.2-0.7,2.5-1.1,3.8-1.4c2.2-0.5,4.5-0.7,6.8-0.5c2.3,0.1,4.5,0.5,6.6,1.4
		c1.9,0.8,4.7,2.6,3.2,5c-0.5,0.8-1.2,1.3-2,1.8c-1.2,0.7-2.5,1.1-3.8,1.4c-2.2,0.5-4.5,0.7-6.8,0.5c-2.3-0.1-4.5-0.5-6.6-1.4
		C81.6,87.2,78.8,85.4,80.2,83z"/>
	<path class="st0" d="M103.4,88.4c3.2-4.9,19.1-4.9,22.3,0"/>
	<path class="st0" d="M103.4,85.7c0.5-0.8,1.2-1.3,2-1.8c1.2-0.7,2.5-1.1,3.8-1.4c2.2-0.5,4.5-0.7,6.8-0.5c2.3,0.1,4.5,0.5,6.6,1.4
		c1.9,0.8,4.7,2.6,3.2,5c-0.5,0.8-1.2,1.3-2,1.8c-1.2,0.7-2.5,1.1-3.8,1.4c-2.2,0.5-4.5,0.7-6.8,0.5c-2.3-0.1-4.5-0.5-6.6-1.4
		C104.7,89.9,101.9,88.1,103.4,85.7z"/>
	<path class="st0" d="M126.6,91.1c3.2-4.9,19.1-4.9,22.3,0"/>
	<path class="st0" d="M126.5,88.4c0.5-0.8,1.2-1.3,2-1.8c1.2-0.7,2.5-1.1,3.8-1.4c2.2-0.5,4.5-0.7,6.8-0.5c2.3,0.1,4.5,0.5,6.6,1.4
		c1.9,0.8,4.7,2.6,3.2,5c-0.5,0.8-1.2,1.3-2,1.8c-1.2,0.7-2.5,1.1-3.8,1.4c-2.2,0.5-4.5,0.7-6.8,0.5c-2.3-0.1-4.5-0.5-6.6-1.4
		C127.9,92.6,125.1,90.8,126.5,88.4z"/>
	<path class="st0" d="M149.7,93.8c3.2-4.9,19.1-4.9,22.3,0"/>
	<path class="st0" d="M149.7,91.1c0.5-0.8,1.2-1.3,2-1.8c1.2-0.7,2.5-1.1,3.8-1.4c2.2-0.5,4.5-0.7,6.8-0.5c2.3,0.1,4.5,0.5,6.6,1.4
		c1.9,0.8,4.7,2.6,3.2,5c-0.5,0.8-1.2,1.3-2,1.8c-1.2,0.7-2.5,1.1-3.8,1.4c-2.2,0.5-4.5,0.7-6.8,0.5c-2.3-0.1-4.5-0.5-6.6-1.4
		C151,95.3,148.2,93.5,149.7,91.1z"/>
	<path class="st0" d="M143.5,103.9c3.2-4.9,19.1-4.9,22.3,0"/>
	<path class="st0" d="M143.5,101.2c0.5-0.8,1.2-1.3,2-1.8c1.2-0.7,2.5-1.1,3.8-1.4c2.2-0.5,4.5-0.7,6.8-0.5c2.3,0.1,4.5,0.5,6.6,1.4
		c1.9,0.8,4.7,2.6,3.2,5c-0.5,0.8-1.2,1.3-2,1.8c-1.2,0.7-2.5,1.1-3.8,1.4c-2.2,0.5-4.5,0.7-6.8,0.5c-2.3-0.1-4.5-0.5-6.6-1.4
		C144.8,105.4,142,103.6,143.5,101.2z"/>
	<path class="st0" d="M120.4,101.2c3.2-4.9,19.1-4.9,22.3,0"/>
	<path class="st0" d="M120.3,98.5c0.5-0.8,1.2-1.3,2-1.8c1.2-0.7,2.5-1.1,3.8-1.4c2.2-0.5,4.5-0.7,6.8-0.5c2.3,0.1,4.5,0.5,6.6,1.4
		c1.9,0.8,4.7,2.6,3.2,5c-0.5,0.8-1.2,1.3-2,1.8c-1.2,0.7-2.5,1.1-3.8,1.4c-2.2,0.5-4.5,0.7-6.8,0.5c-2.3-0.1-4.5-0.5-6.6-1.4
		C121.7,102.7,118.9,100.9,120.3,98.5z"/>
	<path class="st0" d="M97.2,98.5c3.2-4.9,19.1-4.9,22.3,0"/>
	<path class="st0" d="M97.2,95.8c0.5-0.8,1.2-1.3,2-1.8c1.2-0.7,2.5-1.1,3.8-1.4c2.2-0.5,4.5-0.7,6.8-0.5c2.3,0.1,4.5,0.5,6.6,1.4
		c1.9,0.8,4.7,2.6,3.2,5c-0.5,0.8-1.2,1.3-2,1.8c-1.2,0.7-2.5,1.1-3.8,1.4c-2.2,0.5-4.5,0.7-6.8,0.5c-2.3-0.1-4.5-0.5-6.6-1.4
		C98.5,100,95.7,98.2,97.2,95.8z"/>
	<path class="st0" d="M74.1,95.8c3.2-4.9,19.1-4.9,22.3,0"/>
	<path class="st0" d="M74,93.1c0.5-0.8,1.2-1.3,2-1.8c1.2-0.7,2.5-1.1,3.8-1.4c2.2-0.5,4.5-0.7,6.8-0.5c2.3,0.1,4.5,0.5,6.6,1.4
		c1.9,0.8,4.7,2.6,3.2,5c-0.5,0.8-1.2,1.3-2,1.8c-1.2,0.7-2.5,1.1-3.8,1.4c-2.2,0.5-4.5,0.7-6.8,0.5c-2.3-0.1-4.5-0.5-6.6-1.4
		C75.4,97.3,72.6,95.5,74,93.1z"/>
	<path class="st0" d="M61.7,115.9c3.2-4.9,19.1-4.9,22.3,0"/>
	<path class="st0" d="M61.6,113.2c0.5-0.8,1.2-1.3,2-1.8c1.2-0.7,2.5-1.1,3.8-1.4c2.2-0.5,4.5-0.7,6.8-0.5c2.3,0.1,4.5,0.5,6.6,1.4
		c1.9,0.8,4.7,2.6,3.2,5c-0.5,0.8-1.2,1.3-2,1.8c-1.2,0.7-2.5,1.1-3.8,1.4c-2.2,0.5-4.5,0.7-6.8,0.5c-2.3-0.1-4.5-0.5-6.6-1.4
		C63,117.4,60.2,115.6,61.6,113.2z"/>
	<path class="st0" d="M67.9,105.8c3.2-4.9,19.1-4.9,22.3,0"/>
	<path class="st0" d="M67.8,103.2c0.5-0.8,1.2-1.3,2-1.8c1.2-0.7,2.5-1.1,3.8-1.4c2.2-0.5,4.5-0.7,6.8-0.5c2.3,0.1,4.5,0.5,6.6,1.4
		c1.9,0.8,4.7,2.6,3.2,5c-0.5,0.8-1.2,1.3-2,1.8c-1.2,0.7-2.5,1.1-3.8,1.4c-2.2,0.5-4.5,0.7-6.8,0.5c-2.3-0.1-4.5-0.5-6.6-1.4
		C69.2,107.3,66.4,105.5,67.8,103.2z"/>
	<path class="st0" d="M91,108.5c3.2-4.9,19.1-4.9,22.3,0"/>
	<path class="st0" d="M91,105.9c0.5-0.8,1.2-1.3,2-1.8c1.2-0.7,2.5-1.1,3.8-1.4c2.2-0.5,4.5-0.7,6.8-0.5c2.3,0.1,4.5,0.5,6.6,1.4
		c1.9,0.8,4.7,2.6,3.2,5c-0.5,0.8-1.2,1.3-2,1.8c-1.2,0.7-2.5,1.1-3.8,1.4c-2.2,0.5-4.5,0.7-6.8,0.5c-2.3-0.1-4.5-0.5-6.6-1.4
		C92.3,110,89.5,108.2,91,105.9z"/>
	<path class="st0" d="M84.8,118.6c3.2-4.9,19.1-4.9,22.3,0"/>
	<path class="st0" d="M84.8,115.9c0.5-0.8,1.2-1.3,2-1.8c1.2-0.7,2.5-1.1,3.8-1.4c2.2-0.5,4.5-0.7,6.8-0.5c2.3,0.1,4.5,0.5,6.6,1.4
		c1.9,0.8,4.7,2.6,3.2,5c-0.5,0.8-1.2,1.3-2,1.8c-1.2,0.7-2.5,1.1-3.8,1.4c-2.2,0.5-4.5,0.7-6.8,0.5c-2.3-0.1-4.5-0.5-6.6-1.4
		C86.1,120.1,83.3,118.3,84.8,115.9z"/>
	<path class="st0" d="M130.7,123c0,0,0,0.1,0,0.1"/>
	<path class="st0" d="M108,121.3c3.2-4.9,19.1-4.9,22.3,0"/>
	<path class="st0" d="M107.9,118.6c0.5-0.8,1.2-1.3,2-1.8c1.2-0.7,2.5-1.1,3.8-1.4c2.2-0.5,4.5-0.7,6.8-0.5c2.3,0.1,4.5,0.5,6.6,1.4
		c1.9,0.8,4.7,2.6,3.2,5c-0.5,0.8-1.2,1.3-2,1.8c-1.2,0.7-2.5,1.1-3.8,1.4c-2.2,0.5-4.5,0.7-6.8,0.5c-2.3-0.1-4.5-0.5-6.6-1.4
		C109.3,122.8,106.5,121,107.9,118.6z"/>
	<path class="st0" d="M114.2,111.2c3.2-4.9,19.1-4.9,22.3,0"/>
	<path class="st0" d="M114.1,108.6c0.5-0.8,1.2-1.3,2-1.8c1.2-0.7,2.5-1.1,3.8-1.4c2.2-0.5,4.5-0.7,6.8-0.5c2.3,0.1,4.5,0.5,6.6,1.4
		c1.9,0.8,4.7,2.6,3.2,5c-0.5,0.8-1.2,1.3-2,1.8c-1.2,0.7-2.5,1.1-3.8,1.4c-2.2,0.5-4.5,0.7-6.8,0.5c-2.3-0.1-4.5-0.5-6.6-1.4
		C115.5,112.7,112.7,110.9,114.1,108.6z"/>
	<path class="st0" d="M137.3,113.9c3.2-4.9,19.1-4.9,22.3,0"/>
	<path class="st0" d="M137.3,111.3c0.5-0.8,1.2-1.3,2-1.8c1.2-0.7,2.5-1.1,3.8-1.4c2.2-0.5,4.5-0.7,6.8-0.5c2.3,0.1,4.5,0.5,6.6,1.4
		c1.9,0.8,4.7,2.6,3.2,5c-0.5,0.8-1.2,1.3-2,1.8c-1.2,0.7-2.5,1.1-3.8,1.4c-2.2,0.5-4.5,0.7-6.8,0.5c-2.3-0.1-4.5-0.5-6.6-1.4
		C138.6,115.4,135.8,113.6,137.3,111.3z"/>
	<path class="st0" d="M131.1,124c3.2-4.9,19.1-4.9,22.3,0"/>
	<path class="st0" d="M131.1,121.3c0.5-0.8,1.2-1.3,2-1.8c1.2-0.7,2.5-1.1,3.8-1.4c2.2-0.5,4.5-0.7,6.8-0.5c2.3,0.1,4.5,0.5,6.6,1.4
		c1.9,0.8,4.7,2.6,3.2,5c-0.5,0.8-1.2,1.3-2,1.8c-1.2,0.7-2.5,1.1-3.8,1.4c-2.2,0.5-4.5,0.7-6.8,0.5c-2.3-0.1-4.5-0.5-6.6-1.4
		C132.4,125.5,129.6,123.7,131.1,121.3z"/>
	<path class="st0" d="M124.9,134.1c3.2-4.9,19.1-4.9,22.3,0"/>
	<path class="st0" d="M124.9,131.4c0.5-0.8,1.2-1.3,2-1.8c1.2-0.7,2.5-1.1,3.8-1.4c2.2-0.5,4.5-0.7,6.8-0.5c2.3,0.1,4.5,0.5,6.6,1.4
		c1.9,0.8,4.7,2.6,3.2,5c-0.5,0.8-1.2,1.3-2,1.8c-1.2,0.7-2.5,1.1-3.8,1.4c-2.2,0.5-4.5,0.7-6.8,0.5c-2.3-0.1-4.5-0.5-6.6-1.4
		C126.2,135.6,123.4,133.8,124.9,131.4z"/>
	<path class="st0" d="M101.8,131.4c3.2-4.9,19.1-4.9,22.3,0"/>
	<path class="st0" d="M55.4,123.3c0.5-0.8,1.2-1.3,2-1.8c1.2-0.7,2.5-1.1,3.8-1.4c2.2-0.5,4.5-0.7,6.8-0.5c2.3,0.1,4.5,0.5,6.6,1.4
		c1.9,0.8,4.7,2.6,3.2,5c-0.5,0.8-1.2,1.3-2,1.8c-1.2,0.7-2.5,1.1-3.8,1.4c-2.2,0.5-4.5,0.7-6.8,0.5c-2.3-0.1-4.5-0.5-6.6-1.4
		C56.8,127.5,54,125.7,55.4,123.3z"/>
	<path class="st0" d="M55.5,126c3.2-4.9,19.1-4.9,22.3,0"/>
	<path class="st0" d="M78.6,126c0.5-0.8,1.2-1.3,2-1.8c1.2-0.7,2.5-1.1,3.8-1.4c2.2-0.5,4.5-0.7,6.8-0.5c2.3,0.1,4.5,0.5,6.6,1.4
		c1.9,0.8,4.7,2.6,3.2,5c-0.5,0.8-1.2,1.3-2,1.8c-1.2,0.7-2.5,1.1-3.8,1.4c-2.2,0.5-4.5,0.7-6.8,0.5c-2.3-0.1-4.5-0.5-6.6-1.4
		C79.9,130.2,77.1,128.4,78.6,126z"/>
	<path class="st0" d="M78.6,128.7c3.2-4.9,19.1-4.9,22.3,0"/>
	<path class="st0" d="M101.7,128.7c0.5-0.8,1.2-1.3,2-1.8c1.2-0.7,2.5-1.1,3.8-1.4c2.2-0.5,4.5-0.7,6.8-0.5c2.3,0.1,4.5,0.5,6.6,1.4
		c1.9,0.8,4.7,2.6,3.2,5c-0.5,0.8-1.2,1.3-2,1.8c-1.2,0.7-2.5,1.1-3.8,1.4c-2.2,0.5-4.5,0.7-6.8,0.5c-2.3-0.1-4.5-0.5-6.6-1.4
		C103.1,132.9,100.3,131.1,101.7,128.7z"/>
</g>
</svg>
