<?xml version="1.0" encoding="utf-8"?>
<!-- Generator: Adobe Illustrator 21.0.2, SVG Export Plug-In . SVG Version: 6.00 Build 0)  -->
<svg version="1.1" xmlns="http://www.w3.org/2000/svg" xmlns:xlink="http://www.w3.org/1999/xlink" x="0px" y="0px" width="300px"
	 height="320.5px" viewBox="0 0 300 320.5" style="enable-background:new 0 0 300 320.5;" xml:space="preserve">
<style type="text/css">
	.st0{fill:none;stroke:#A7A9AC;stroke-width:0.5;stroke-miterlimit:10;}
	.st1{opacity:0.3;fill:none;stroke:#231F20;stroke-width:0.5;stroke-miterlimit:10;}
	.st2{opacity:0.3;fill:#D3D3D3;}
	.st3{opacity:0.4;fill:#A5A5A5;stroke:#231F20;stroke-width:0.5;stroke-miterlimit:10;}
	.st4{fill:#3B4EFF;}
	.st5{fill:none;stroke:#231F20;stroke-width:0.5;stroke-miterlimit:10;}
	.st6{fill:#231F20;stroke:#231F20;stroke-width:0.5;stroke-miterlimit:10;}
	.st7{fill:#FFFFFF;stroke:#231F20;stroke-width:0.5;stroke-miterlimit:10;}
</style>
<g id="syringe">
</g>
<g id="graphics">
	<path id="XMLID_57_" class="st0" d="M31.6,284.8c0-11.6,53-20.9,118.4-20.9s118.4,9.4,118.4,20.9"/>
	<path id="XMLID_308_" class="st1" d="M268.4,226.2V28.4v-0.6c0,8.2-53,14.9-118.4,14.9S31.5,36.1,31.5,27.8v0.6v197.8"/>
	<path id="XMLID_2_" class="st2" d="M268.4,226.2V28.4v-0.6c0,8.2-53,14.9-118.4,14.9S31.5,36.1,31.5,27.8v0.6v197.8"/>
	<ellipse id="XMLID_307_" class="st3" cx="150" cy="27.9" rx="118.4" ry="14.6"/>
	<ellipse id="XMLID_306_" class="st4" cx="150" cy="185.6" rx="118.4" ry="14.6"/>
	<ellipse id="XMLID_305_" class="st5" cx="147.8" cy="218" rx="100.1" ry="12.4"/>
	<ellipse id="XMLID_303_" class="st5" cx="147.8" cy="218" rx="69.1" ry="8.6"/>
	<path id="XMLID_302_" class="st5" d="M87.9,188.7c0-3,27.1-5.4,60.5-5.4s60.5,2.4,60.5,5.4"/>
	<ellipse id="XMLID_301_" class="st5" cx="147.1" cy="148.7" rx="37" ry="4.6"/>
	<path id="XMLID_300_" class="st5" d="M184.3,148.3v13.5v0.9c0,1.9-16.6,4.8-37,4.8s-37-2.9-37-4.8v-0.9v-13.5v0.8
		c0,1.9,16.6,4.4,37,4.4s37-2.5,37-4.4"/>
	<polygon id="XMLID_296_" class="st5" points="200.3,122 122.8,122 140,98.8 214.5,98.5 207.5,109.9 	"/>
	<polygon id="XMLID_295_" class="st5" points="209.1,82 224.2,82 200.3,122 183.7,122 	"/>
	<polygon id="XMLID_294_" class="st5" points="137.4,98.3 116.7,57.5 116.7,57.5 89.8,57.5 89.8,122 119.8,122 	"/>
	<polyline id="XMLID_293_" class="st5" points="121.4,119.9 117.3,119.9 117.3,117.8 123,117.8 	"/>
	<polyline id="XMLID_292_" class="st5" points="126,117.8 130.6,117.8 130.6,119.9 124.5,119.9 	"/>
	<path id="XMLID_291_" class="st6" d="M126.3,117.4"/>
	<path id="XMLID_290_" class="st6" d="M123.3,117.4"/>
	<polyline id="XMLID_288_" class="st5" points="131.1,86.9 98.4,86.9 98.4,115.8 124.3,115.8 	"/>
	<polyline id="XMLID_287_" class="st5" points="144.2,122 144.2,141.3 137.1,148.4 	"/>
	<polyline id="XMLID_286_" class="st5" points="150,122 150,141.3 157.2,148.4 	"/>
	<path id="XMLID_285_" class="st5" d="M157.1,148.4c0,1.2-4.4,2.2-9.8,2.2c-5.4,0-9.8-1-9.8-2.2"/>
	<path id="XMLID_284_" class="st5" d="M157.1,148.5c0-1.2-4.4-2.2-9.8-2.2c-5.4,0-9.8,1-9.8,2.2"/>
	<ellipse id="XMLID_282_" class="st5" cx="62.7" cy="187.6" rx="4.8" ry="1.2"/>
	<ellipse id="XMLID_279_" class="st5" cx="229.3" cy="187.6" rx="4.8" ry="1.2"/>
	<line id="XMLID_276_" class="st5" x1="47.7" y1="193.6" x2="47.7" y2="241.3"/>
	<line id="XMLID_43_" class="st5" x1="248" y1="193.6" x2="248" y2="241.3"/>
	<path id="XMLID_273_" class="st7" d="M31.6,186.1v54.6v-7.8v51c0,11.6,53,20.9,118.4,20.9s118.4-9.4,118.4-20.9v-51v7.8v-54.6"/>
	<ellipse id="XMLID_1_" class="st7" cx="150" cy="185.6" rx="118.4" ry="14.6"/>
	<ellipse id="XMLID_304_" class="st5" cx="147.8" cy="184.7" rx="69.1" ry="10.1"/>
</g>
<g id="LABELS">
</g>
</svg>
