<svg id="Layer_1" data-name="Layer 1" xmlns="http://www.w3.org/2000/svg" width="75" height="90" viewBox="0 0 75 90"><title>biorealize_node_icon</title><path id="_Compound_Path_" data-name="&lt;Compound Path&gt;" d="M19,59.34V57.7H50.68v1.65Z" fill="#231f20"/><path d="M26.62,31.21c0,.28-.07.57-.1.85h0a2.49,2.49,0,0,1,.15.23l0,0,.14.1c0,.13-.08.25-.13.38h0l.15.24h0c0,.08,0,.16,0,.24l0,0c-.07.3-.12.61-.19,1a2,2,0,0,1,2.23,1.53c.52,1.89,1,3.8,1.55,5.67a9.08,9.08,0,0,0,1.15,2.07.6.6,0,0,0,.6.08,4.8,4.8,0,0,0,2-2.67,4.59,4.59,0,0,0,0-.85c0-.59,0-1.18,0-1.8l.5-.06h0a1.31,1.31,0,0,0,0,.17l.22.4h0l.21-.05.14.14.22.19h0l.3,0h.53l.22-.16.35,0,0,0,.23,0,.27.1v0c0-.06,0-.12,0-.17l.37,1c.12-.65.2-1.13.28-1.61h.27c0,.31.08.63.13,1l.52.32c.21-1.13,1.07-1.23,2-1.2.1-.53.33-.61.76-.33.1.07.28,0,.43,0l2.72.31-1.54,1.71-.25-.71-.14,0c0,.26.1.53.14.82,1.19-.08,1.47-1.17,2.2-1.78A3.72,3.72,0,0,1,45,41.13c0,.13-.11.25-.16.38-.32.9-.65,1.09-1.6.94-.21,0-.43,0-.66-.07l-.11-.21h0l-.25.19h0L41,42.06l.46-1c0-.12.08-.25.15-.48l-2.3.85c-.18-.9-.94-.13-1.34-.59.09-.2.21-.47.36-.79-.68.22-1,.52-.78,1.29A5.55,5.55,0,0,0,39,44a3.57,3.57,0,0,0,2.37,1c-1.37-.09-2.75-.08-4.09-.29a3.8,3.8,0,0,1-2.75-2.33c-1.12.56-2,1.63-1.72,2.13-.83-.17-1.12.48-1.56.91a3.28,3.28,0,0,1-.78.46,2.47,2.47,0,0,1-.28-.8c0-.63-.36-.83-1-.88-.43,1.1-.83,2.23-1.28,3.34a4.25,4.25,0,0,1-2.72,2.86h-.42A3.59,3.59,0,0,1,23.3,47.6c-.11-1.42-.1-2.86-.09-4.29a28.83,28.83,0,0,1,.18-4,8.11,8.11,0,0,1,1-2.07c-.35.69-.3.77.38.87-1,.49-.92,1.48-1,2.32-.1,1.94-.16,3.89-.07,5.84a8.83,8.83,0,0,0,.74,2.8.89.89,0,0,0,1.56.31,5.5,5.5,0,0,0,1.25-1.67,33.35,33.35,0,0,0,1.34-3.51,1,1,0,0,0-.19-.82A5.27,5.27,0,0,1,27,40.1a4.22,4.22,0,0,0-.25-1c.63.16,1.14.31,1.67.43s.76,0,.61-.61c-.26-1-.51-2.08-.78-3.12a1.83,1.83,0,0,0-2.33-1.07c-.86.37-1.75.66-2.61,1-.43.17-.61.08-.66-.42-.1-1-.29-1.89-.39-2.84a.64.64,0,0,1,.36-.48c.89-.34,1.79-.64,2.7-.94.39-.13.78-.21,1.19-.32l.15.45Z" fill="#231f20" fill-rule="evenodd"/><path d="M45.68,26.91l-2.9,2.6a1.43,1.43,0,0,0-.18.26c-.07-.25-.13-.5-.25-1l-.71.72-.6.6L40.86,30a1.11,1.11,0,0,0-1-1.42,1.25,1.25,0,0,1-.41-.24,1.57,1.57,0,0,0-2.07.83c-.7,0-.86.58-1,1.08a1.48,1.48,0,0,0,.18,1.66c.13.13.27.24.41.37a1.67,1.67,0,0,1-1.17-1.58,1.68,1.68,0,0,0-.26-.79,2.55,2.55,0,0,1,.56-3.68v.94l-.13-.09,1.44-2.46a10.41,10.41,0,0,1-1-.66,2.26,2.26,0,0,1-.93-1.82c0-1.07-.22-2.13-.24-3.19a2.73,2.73,0,0,1,1.37-2.24c.24-.18.65-.3.46-.75h0l.75.13a8.24,8.24,0,0,0,.44,3.58c-.52.45-1.12.93-1.68,1.45a1.53,1.53,0,0,0-.48,1.92,5.73,5.73,0,0,0,1.65,1.45c.15.1.55-.17.74-.23.07,1.13.14,2.3.23,3.62.44-.17.84-.3,1.21-.47a2.13,2.13,0,0,1,1.92-.17A4.7,4.7,0,0,0,45.68,26.91Z" fill="#231f20" fill-rule="evenodd"/><path d="M40.56,33.52h4.52l-.26.52c1,.62,1.91,1.25,2.87,1.86a.79.79,0,0,0,.62.1c1.73-.86,3.61-1.51,5-3a4,4,0,0,0-2.68-6.89,5,5,0,0,0-1.88.52,3.34,3.34,0,0,1-2.07.18,2.94,2.94,0,0,0-1,.1c-.57-.13-1.12-.48-1.64.22-.14.2-.67.12-1.08.18-.07-1.11-.14-2.12-.2-3,.78.61,1.56,1.28,2.4,1.81.27.18.75,0,1.14,0h0c.07,0,.16-.06.2,0A1.87,1.87,0,0,0,48.86,26c1.67-1,4.95.09,5.87,2.31a4.8,4.8,0,0,1-1.57,5.64,44.38,44.38,0,0,1-4.34,2.47,9.85,9.85,0,0,1-1.64.38c-.56.17-1.08.44-1.67.68-1.19-.56-2.14-1.83-4-1.9Z" fill="#231f20" fill-rule="evenodd"/><path d="M26.28,24.86c-.05.31-.1.62-.16.93l.09.06.39-.68c2,1,2.51,2.62,1.27,4a5.23,5.23,0,0,0-2.94-1.43,1.29,1.29,0,0,0-.81.28,4,4,0,0,1-2.53.66,1.18,1.18,0,0,1-1.34-1.25c-.08-.86-.18-1.71-.21-2.61a1.87,1.87,0,0,0,2.19.66c.24-.07.4-.32.62-.45a4,4,0,0,1,.62-.24l-.35-.45,1.22.32c.24-.25.64-.69,1-1.11a3.8,3.8,0,0,1,.53-.39l.18,0c0,.07,0,.15-.05.23v0c0,.09,0,.2,0,.29l0,0c0,.1,0,.2,0,.3l0,0c0,.09,0,.2,0,.3l0,0c0,.1,0,.2,0,.3l0,0c0,.1,0,.2,0,.3l0,0Z" fill="#231f20" fill-rule="evenodd"/><path d="M17.13,19.75c.54,1.06,1.32,1.34,2.91,1V19.63L19,19l.1-.22h.71l-.35-.43a5.26,5.26,0,0,1,4.81.34,3.25,3.25,0,0,1,1.41,3.44,3.63,3.63,0,0,0-2.18-1.55,4.52,4.52,0,0,0-2.78,0c.55.34,1.33-.27,1.63.66a8.31,8.31,0,0,0-1,.35c-.76.37-1.49.78-2.24,1.17s-1,.28-1.24-.57c-.15-.58-.37-1.13-.54-1.7C17.21,20.29,17.18,20,17.13,19.75Z" fill="#231f20" fill-rule="evenodd"/><path d="M46.31,26.11h-.89A4.5,4.5,0,0,0,45.19,23a3,3,0,0,0-2.45-1.71,1.31,1.31,0,0,1,1.34-1.12,3.24,3.24,0,0,1,3,2.6A4.56,4.56,0,0,1,46.31,26.11Z" fill="#231f20" fill-rule="evenodd"/><path d="M37.06,16a3,3,0,0,1-3-2.83,3.22,3.22,0,0,1,.76-2.55c.37-.43.65-.93,1-1.38A5.38,5.38,0,0,0,37,5.51c0-.62,0-1.24,0-1.86,0-.14.16-.26.25-.4.09.14.26.27.27.41.09,2.33.1,4.64-1.69,6.49A5.9,5.9,0,0,0,34.61,13a2.19,2.19,0,0,0,1.47,2.63L37,16Z" fill="#231f20" fill-rule="evenodd"/><path d="M38.49,32.77l2.09.76c-.7-.4-1.33,0-2,.14a9,9,0,0,0-4,1.58A12.49,12.49,0,0,0,30.73,40a1.64,1.64,0,0,1-.34.49c.2-2.12,1.5-3.58,3-4.93a8.32,8.32,0,0,1,5.34-2.44C38.59,33,38.54,32.87,38.49,32.77Z" fill="#231f20" fill-rule="evenodd"/><path d="M24.46,37.08c.48-.44,1-.9,1.45-1.33a1.49,1.49,0,0,1,.64-.38c.36-.06.86-.14,1.07,0s.09.7,0,1.06c-.13.75-.48,1.26-1.38,1.06-.16,0-.34.08-.52.12l.81-.54c-.65-.88-.69-.88-1.58-.31C24.82,36.89,24.64,37,24.46,37.08Z" fill="#231f20" fill-rule="evenodd"/><path d="M42.51,22.54l-1.9.56c-.12-1.39,1-1.74,1.91-2.54-.09.34-.13.51-.16.68a2.4,2.4,0,0,0-.09.67A2.63,2.63,0,0,0,42.51,22.54Z" fill="#231f20" fill-rule="evenodd"/><path d="M24.46,37.08c.18-.09.36-.18.53-.29.88-.57.93-.56,1.58.31l-.81.54-1,.5C24,38,24,38,24.35,37.28Z" fill="#231f20" fill-rule="evenodd"/><path d="M42,14l-1.91.83c-.09-.35-.18-.67-.3-1.1C40.08,13.36,40.71,13.37,42,14Z" fill="#231f20" fill-rule="evenodd"/><path d="M35.21,37.87h2.5c-.21.36-.35.61-.5.86l.1-.16v0L37,38.33l0,0-.3,0h0l-.35.05-.22-.2h0l-.35.2-.23-.05h-.39l-.07-.14h0v-.3Z" fill="#231f20" fill-rule="evenodd"/><path d="M44,25.19l-1.39-2,.19-.13a3.18,3.18,0,0,1,1.38,2Z" fill="#231f20" fill-rule="evenodd"/><path d="M35.21,37.87h0l-.16.23,0,0h-.3l0,0s0-.1,0-.15h0v0l-.15.14,0,0h0C34.62,37.56,34.87,37.63,35.21,37.87Z" fill="#231f20" fill-rule="evenodd"/><path d="M26.11,22.64l.26.55v0l-.16-.14-.14-.16,0,0V22.8s0,0,0-.06,0-.07,0-.11Z" fill="#231f20" fill-rule="evenodd"/><path d="M42.43,42.17l.11.21h0Z" fill="#231f20" fill-rule="evenodd"/><path d="M42.52,42.38l-.31,0h0l.16,0Z" fill="#231f20" fill-rule="evenodd"/><path d="M42.52,42.38l-.15,0,0,0h.17Z" fill="#231f20" fill-rule="evenodd"/><path d="M37.21,38.73v0c0,.05,0,.11,0,.17l-.14-.13,0,0c0-.05,0-.1,0-.16l.2,0Z" fill="#231f20" fill-rule="evenodd"/><path d="M26.38,23.41v0l-.15.07,0,0v-.17l0,0Z" fill="#231f20" fill-rule="evenodd"/><path d="M26.28,24.86l-.2-.08.17.09h0Z" fill="#231f20" fill-rule="evenodd"/><path d="M26.38,24.79l-.11.08h0s0-.11,0-.16Z" fill="#231f20" fill-rule="evenodd"/><path d="M26.38,24.79l-.15-.09,0,0s0-.09,0-.15l.17-.07C26.39,24.59,26.38,24.69,26.38,24.79Z" fill="#231f20" fill-rule="evenodd"/><path d="M26.39,24.49l-.17.07,0,0,0-.16.15.09Z" fill="#231f20" fill-rule="evenodd"/><path d="M26.38,24.51l-.15-.09,0,0s0-.1,0-.15l0,0h.14C26.37,24.37,26.37,24.44,26.38,24.51Z" fill="#231f20" fill-rule="evenodd"/><path d="M26.53,24.08l-.17.22h0c0-.05,0-.1,0-.16Z" fill="#231f20" fill-rule="evenodd"/><path d="M26.53,24.08l-.17.07v0a.87.87,0,0,0,0-.16l.16.09Z" fill="#231f20" fill-rule="evenodd"/><path d="M26.52,24.1,26.36,24v-.12Z" fill="#231f20" fill-rule="evenodd"/><path d="M26.38,23.72a1.33,1.33,0,0,1,0,.18v0h-.15l0,0c0-.05,0-.1,0-.15Z" fill="#231f20" fill-rule="evenodd"/><path d="M26.38,23.72l-.15,0,0,0,0-.16.14,0C26.36,23.62,26.37,23.67,26.38,23.72Z" fill="#231f20" fill-rule="evenodd"/><path d="M26.36,23.57l-.14,0,0,0c0-.05,0-.1,0-.15l.15-.07C26.37,23.45,26.36,23.51,26.36,23.57Z" fill="#231f20" fill-rule="evenodd"/><path d="M25.94,22.86l.17-.23h0v.14Z" fill="#231f20" fill-rule="evenodd"/><path d="M25.94,22.86l.17-.09v.16L26,22.84Z" fill="#231f20" fill-rule="evenodd"/><path d="M26,22.84l.15.09,0,0s0,.1,0,.16l-.19.11Z" fill="#231f20" fill-rule="evenodd"/><path d="M26.78,33.21l0,0Z" fill="#231f20" fill-rule="evenodd"/><path d="M25.92,23.18l.19-.11,0,0v.16l0,0-.18,0Z" fill="#231f20" fill-rule="evenodd"/><path d="M26.79,32.85a.9.9,0,0,0,0,.14h0c0-.06,0-.11,0-.17Z" fill="#231f20" fill-rule="evenodd"/><path d="M26.64,32.77h0l.14.09v0Z" fill="#231f20" fill-rule="evenodd"/><path d="M26.78,32.38l-.14-.1.16.09Z" fill="#231f20" fill-rule="evenodd"/><path d="M26.8,32.37l-.16-.09,0,0c0-.06,0-.11,0-.16v0Z" fill="#231f20" fill-rule="evenodd"/><path d="M26.5,32.08h0l.14.1v0Z" fill="#231f20" fill-rule="evenodd"/><path d="M26.62,31.21l0,0Z" fill="#231f20" fill-rule="evenodd"/><path d="M26.38,23.41l-.15-.08v-.15l.16,0v0C26.37,23.26,26.38,23.34,26.38,23.41Z" fill="#231f20" fill-rule="evenodd"/><path d="M35.66,38.91h0l-.22-.16v0l-.16-.14s0-.1,0-.15v0h.28v0l.16.15C35.72,38.72,35.7,38.82,35.66,38.91Z" fill="#231f20" fill-rule="evenodd"/><path d="M35.05,38.62l-.21.05c0-.11,0-.21.07-.32l.29-.18.07.14-.09.19,0,0-.16.15Z" fill="#231f20" fill-rule="evenodd"/><path d="M35.94,38.91h0c0-.1-.06-.19-.09-.29h.3s0,.1,0,.15v0Z" fill="#231f20" fill-rule="evenodd"/><path d="M36.79,38.79l-.35,0v0c0-.05,0-.1,0-.16h.3Z" fill="#231f20" fill-rule="evenodd"/><path d="M35.87,38.63c0,.09.06.19.09.29h-.3c0-.09.06-.19.09-.28h.12Z" fill="#231f20" fill-rule="evenodd"/><path d="M34.63,38.28a1.31,1.31,0,0,1,0-.17l0,0h.16l0,0v.29l0,0Z" fill="#231f20" fill-rule="evenodd"/><path d="M34.63,38.28l.15.07.07.33Z" fill="#231f20" fill-rule="evenodd"/><path d="M34.86,38.67l-.07-.33,0,0h.14c0,.11,0,.21-.07.32Z" fill="#231f20" fill-rule="evenodd"/><path d="M35.47,38.76l.22.16-.3,0Z" fill="#231f20" fill-rule="evenodd"/><path d="M35.94,38.91l.22-.16.08.17Z" fill="#231f20" fill-rule="evenodd"/><path d="M36.24,38.93l-.08-.17v0l.16,0-.09.16Z" fill="#231f20" fill-rule="evenodd"/><path d="M36.22,38.92l.09-.16,0,0h.16v0Z" fill="#231f20" fill-rule="evenodd"/><path d="M37.26,38.86l-.27-.1,0,0h.16l0,0Z" fill="#231f20" fill-rule="evenodd"/><path d="M37.26,38.86l-.15-.11.14.13Z" fill="#231f20" fill-rule="evenodd"/><path d="M42.37,42.34l-.16,0,.25-.19-.11.19Z" fill="#231f20" fill-rule="evenodd"/><path d="M42.34,42.36l.11-.19h0l.07.19Z" fill="#231f20" fill-rule="evenodd"/><path d="M36.79,38.79l-.07-.17,0,0,.15,0-.08.16Z" fill="#231f20" fill-rule="evenodd"/><path d="M36.77,38.78l.08-.16,0,0,.16,0c0,.05,0,.1,0,.16l0,0Z" fill="#231f20" fill-rule="evenodd"/><path d="M35.19,38.76l-.14-.14v0h.14v.13Z" fill="#231f20" fill-rule="evenodd"/><path d="M35.42,38.95l-.22-.19v0h.16l0,0Z" fill="#231f20" fill-rule="evenodd"/><path d="M35.42,38.95l-.09-.19.16,0v0l-.08.19Z" fill="#231f20" fill-rule="evenodd"/><path d="M26.64,32.77l.15.07c0,.05,0,.1,0,.17Z" fill="#231f20" fill-rule="evenodd"/><path d="M26.5,32.08l.16.07c0,.05,0,.1,0,.16A2.49,2.49,0,0,0,26.5,32.08Z" fill="#231f20" fill-rule="evenodd"/><path d="M37.39,29.19a1.57,1.57,0,0,1,2.07-.83,1.25,1.25,0,0,0,.41.24,1.11,1.11,0,0,1,1,1.42l.19.11.6-.6.71-.72c.11.46.18.71.25,1l0,0-.51.19a4.47,4.47,0,0,1-4.67-.81Z" fill="#231f20" fill-rule="evenodd"/><path d="M37.4,29.19a4.47,4.47,0,0,0,4.67.81l.51-.19c-.41.39-.84.76-1.22,1.19s-.73.9-1.12,1.41c-.62-.16.12-.55.06-.76-.48-.07-1,0-1.3-.22A4,4,0,0,1,37.4,29.19Z" fill="#231f20" fill-rule="evenodd"/><path d="M26.22,24.7c0,.05,0,.11,0,.16l-.17-.09,0,0,.16-.07Z" fill="#231f20" fill-rule="evenodd"/><path d="M26.25,24.72l-.16.07c0-.1,0-.2,0-.3l.17.09,0,0C26.23,24.62,26.24,24.67,26.25,24.72Z" fill="#231f20" fill-rule="evenodd"/><path d="M26.24,24.59l-.17-.09,0,0,.16-.08,0,0Z" fill="#231f20" fill-rule="evenodd"/><path d="M26.24,24.44l-.16.08c0-.1,0-.19,0-.3l.18.07C26.25,24.34,26.25,24.39,26.24,24.44Z" fill="#231f20" fill-rule="evenodd"/><path d="M26.25,24.29l-.18-.07,0,0,.15-.09,0,.16Z" fill="#231f20" fill-rule="evenodd"/><path d="M26.24,24.15l-.15.09c0-.1,0-.2,0-.3l.18.07s0,.1,0,.16Z" fill="#231f20" fill-rule="evenodd"/><path d="M26.25,24l-.18-.07,0,0,.16-.08,0,0V24Z" fill="#231f20" fill-rule="evenodd"/><path d="M26.25,23.89l-.16.08c0-.1,0-.19,0-.3l.17.09,0,0S26.24,23.84,26.25,23.89Z" fill="#231f20" fill-rule="evenodd"/><path d="M26.24,23.76l-.17-.09,0,0,.15-.07,0,0Z" fill="#231f20" fill-rule="evenodd"/><path d="M26.25,23.62l-.15.07c0-.1,0-.2,0-.29l.19.09,0,0C26.23,23.51,26.24,23.57,26.25,23.62Z" fill="#231f20" fill-rule="evenodd"/><path d="M26.23,23.19v.15l0,0-.19.09c0-.08,0-.15.05-.23l0,0h.16Z" fill="#231f20" fill-rule="evenodd"/><path d="M26.06,23.41l.19-.09v.17l-.19-.09Z" fill="#231f20" fill-rule="evenodd"/><path d="M35.2,38.17l-.29.18h0l.14-.29,0,0,.16.07Z" fill="#231f20" fill-rule="evenodd"/><path d="M36.44,38.37l.35-.05-.06.19h-.3c0-.05,0-.1,0-.16Z" fill="#231f20" fill-rule="evenodd"/><path d="M35.89,38.37l.35-.2c0,.07,0,.13-.07.2l-.3,0Z" fill="#231f20" fill-rule="evenodd"/><path d="M35.61,38.51h-.28l-.08-.19h.43Z" fill="#231f20" fill-rule="evenodd"/><path d="M37,38.33l.26.26-.19-.1Z" fill="#231f20" fill-rule="evenodd"/><path d="M37,38.33l.07.16H37l0,0,.07-.15Z" fill="#231f20" fill-rule="evenodd"/><path d="M37.06,38.35,37,38.5l-.16,0,0,0c0-.07-.06-.13-.09-.19Z" fill="#231f20" fill-rule="evenodd"/><path d="M36.77,38.32c0,.06.06.12.09.19l-.15,0,0,0,.06-.19Z" fill="#231f20" fill-rule="evenodd"/><path d="M35.66,38.32l.23.05,0,0v.16l0,0h-.16l0,0Z" fill="#231f20" fill-rule="evenodd"/><path d="M35.66,38.32l.09.19-.16,0v0l.08-.19Z" fill="#231f20" fill-rule="evenodd"/><path d="M35.25,38.31l.08.19v0l-.16,0,.09-.19Z" fill="#231f20" fill-rule="evenodd"/><path d="M37.11,38.5l.19.1v0l-.2,0,0,0v-.15Z" fill="#231f20" fill-rule="evenodd"/><path d="M36.22,38.17l.22.2v0l-.16,0C36.26,38.3,36.24,38.24,36.22,38.17Z" fill="#231f20" fill-rule="evenodd"/><path d="M36.22,38.17c0,.07,0,.13.07.2l0,0h-.14c0-.07,0-.13.07-.2Z" fill="#231f20" fill-rule="evenodd"/><path d="M35.2,38.16,35,38.09l.16-.23Z" fill="#231f20" fill-rule="evenodd"/><path d="M35.07,38.07l-.14.29h-.15v-.29Z" fill="#231f20" fill-rule="evenodd"/><path d="M34.79,38.09h-.16l.15-.14h0S34.78,38,34.79,38.09Z" fill="#231f20" fill-rule="evenodd"/><polygon points="34.78 37.95 34.79 37.94 34.76 37.94 34.78 37.95" fill="#231f20" fill-rule="evenodd"/><path d="M26.1,22.8v-.17s0,.08,0,.11S26.11,22.78,26.1,22.8Z" fill="#231f20" fill-rule="evenodd"/><path d="M26.11,23.07c0-.05,0-.11,0-.16l.14.16,0,0h-.16Z" fill="#231f20" fill-rule="evenodd"/><path d="M26.39,23.21l-.16,0,0,0V23l0,0Z" fill="#231f20" fill-rule="evenodd"/><path d="M37,38.78c0-.05,0-.1,0-.16l0,0h.16l0,0c0,.05,0,.1,0,.16Z" fill="#231f20" fill-rule="evenodd"/><path d="M26.22,24.31l0-.16,0,0h.15v0c0,.05,0,.1,0,.16Z" fill="#231f20" fill-rule="evenodd"/><path d="M26.38,24.17h-.15c0-.06,0-.11,0-.16l0,0h.15v0A.87.87,0,0,1,26.38,24.17Z" fill="#231f20" fill-rule="evenodd"/><path d="M26.38,24h-.15v-.16h.15Z" fill="#231f20" fill-rule="evenodd"/><path d="M26.24,23v.16h-.16V23Z" fill="#231f20" fill-rule="evenodd"/><path d="M35.48,38.78l-.16,0,0,0v-.15h0Z" fill="#231f20" fill-rule="evenodd"/><path d="M35.6,38.48l.16,0,0,0v.15h0Z" fill="#231f20" fill-rule="evenodd"/><path d="M35.18,38.5l.16,0c0,.06,0,.11,0,.15H35.2s0-.11,0-.15Z" fill="#231f20" fill-rule="evenodd"/><path d="M35.2,38.48s0,.11,0,.15H35Z" fill="#231f20" fill-rule="evenodd"/><path d="M36.17,38.63h-.28v-.15l0,0h.3l0,0v.15Z" fill="#231f20" fill-rule="evenodd"/><path d="M36.3,38.76l-.16,0c0-.05,0-.1,0-.15h0l.16,0c0,.05,0,.1,0,.16Z" fill="#231f20" fill-rule="evenodd"/><path d="M36.42,38.5h.3l0,0v.16l0,0h-.3l0,0v-.15Z" fill="#231f20" fill-rule="evenodd"/><path d="M36.29,38.78c0-.05,0-.1,0-.16l0,0h.16l0,0c0,.05,0,.1,0,.16Z" fill="#231f20" fill-rule="evenodd"/><path d="M35.89,38.48v.15h-.16v-.15Z" fill="#231f20" fill-rule="evenodd"/><path d="M36.7,38.64v-.16l.15,0,0,0v.15l0,0Z" fill="#231f20" fill-rule="evenodd"/><path d="M36.84,38.64v-.15l.16,0,0,0v.15l0,0Z" fill="#231f20" fill-rule="evenodd"/><path d="M35.18,38.63h.16v.15h-.16Z" fill="#231f20" fill-rule="evenodd"/><path d="M36.29,38.37l.16,0c0,.05,0,.11,0,.16l0,0h-.16l0,0v-.16Z" fill="#231f20" fill-rule="evenodd"/><path d="M36.17,38.5h-.3v-.16l.3,0h0S36.16,38.45,36.17,38.5Z" fill="#231f20" fill-rule="evenodd"/><path d="M37,38.64v-.15h.16v.15Z" fill="#231f20" fill-rule="evenodd"/><path d="M36.17,38.5c0-.05,0-.1,0-.15h.16v.16l-.16,0Z" fill="#231f20" fill-rule="evenodd"/><path d="M36.15,38.48l.16,0,0,0v.15l0,0-.16,0Z" fill="#231f20" fill-rule="evenodd"/><path d="M36.29,38.64v-.15h.16v.15Z" fill="#231f20" fill-rule="evenodd"/><path d="M11.54,72.23h1.77a4.58,4.58,0,0,1,.24,1.82,4.15,4.15,0,0,1,3.82-2.16c2.66,0,4,1.47,4,4.45v8.38H19.5v-8c0-2.21-.79-3.24-2.5-3.24-2.11,0-3.32,1.55-3.32,4.22v7H11.83V75.55A10.34,10.34,0,0,0,11.54,72.23Z" fill="#231f20"/><path d="M24.41,78.48c0-3.9,2.24-6.59,5.46-6.59s5.46,2.69,5.46,6.59S33.08,85,29.87,85,24.41,82.35,24.41,78.48Zm1.9,0c0,3,1.42,5,3.56,5s3.56-2,3.56-5-1.42-5-3.56-5S26.31,75.47,26.31,78.48Z" fill="#231f20"/><path d="M48,67.07V81a13.33,13.33,0,0,0,.26,3.69H46.4a4.85,4.85,0,0,1-.18-1.35v-.45A3.66,3.66,0,0,1,42.71,85c-3,0-5-2.53-5-6.46s2-6.69,4.9-6.69A3.73,3.73,0,0,1,46.14,74V67.07ZM42.89,73.5c-2,0-3.29,1.93-3.29,5s1.27,4.93,3.27,4.93,3.29-1.93,3.29-5S44.9,73.5,42.89,73.5Z" fill="#231f20"/><path d="M61.51,78.8H53c.08,3.06,1.35,4.66,3.61,4.66a2.94,2.94,0,0,0,2.9-1.9l1.71.21A4.55,4.55,0,0,1,56.58,85c-3.35,0-5.48-2.5-5.48-6.43,0-4.09,2.11-6.72,5.38-6.72,3.06,0,5.06,2.5,5.06,6.38A4.66,4.66,0,0,1,61.51,78.8Zm-1.9-1.45c-.21-2.53-1.34-3.9-3.22-3.9s-3,1.34-3.34,3.9Z" fill="#231f20"/></svg>