<?xml version="1.0" encoding="utf-8"?>
<svg version="1.1" id="Layer_1" data-name="Layer 1" xmlns="http://www.w3.org/2000/svg" width="229.05" height="320.21" viewBox="0 0 229.05 320.21">

<style type="text/css">
	.st0{fill:none;stroke:#FFFFFF;stroke-width:0.25;stroke-linecap:round;stroke-linejoin:round;}
</style>
<title>breactor_outline_wht</title>
<g>
	<path class="st0" d="M87.8,296.9c0,1.1-1.7,0.9-1.8-0.2c0-0.5,0.5-0.8,0.9-0.7C87.5,296,87.8,296.4,87.8,296.9z"/>
	<path class="st0" d="M211.6,23.9c22.6,17,17.6,36.9-5,51c-17.3,10.8-41.1,16.3-60.7,18.6c-20.8,2.5-43,2.2-63.8-0.8
		C63,89.9,38.6,83.6,22.4,71.4c-22.6-17-17.6-36.9,5-51C44.7,9.7,68.5,4.2,88.1,1.8c20.8-2.5,43-2.2,63.8,0.8
		C171,5.4,195.4,11.7,211.6,23.9z"/>
	<line class="st0" x1="226.2" y1="47.9" x2="226.2" y2="160"/>
	<line class="st0" x1="7.8" y1="160" x2="7.8" y2="48.7"/>
	<path class="st0" d="M11.9,160c0,4.6,1.6,8.8,4,12.6c3.3,5,7.5,8.6,12.4,12c8.3,5.7,18.3,9.8,27.9,12.7c19.2,5.9,40.8,8.4,60.7,8.4
		c19.9,0,41.5-2.5,60.7-8.4c9.6-3,19.5-7,27.9-12.7c4.8-3.3,9-6.9,12.3-11.9c2.5-3.8,4.1-8.1,4.1-12.7"/>
	<path class="st0" d="M222.5,172.3c-2.6,4.2-5.9,7.5-9.7,10.5c-5.1,4-10.6,7.1-16.5,9.8c-10.3,4.7-20.9,7.8-32,10.2
		c-21.6,4.5-45.1,5.7-67,3.9c-21-1.7-45.7-6.5-64.8-16.7c-5.6-3-10.8-6.4-15.4-10.9c-3.6-3.6-6.4-7.3-8.1-12.1
		c-4.1-12,3-22.3,11.5-29.3"/>
	<path class="st0" d="M213.5,137.8c10.8,8.9,17.3,21.1,9,34.6"/>
	<path class="st0" d="M222.5,284.7c-10,16.2-35.7,25.1-51.8,29.1c-19.3,4.8-40.4,6.6-60.2,6.1c-19.7-0.5-40.9-3.4-59.7-9.7
		c-9.4-3.1-19.1-7.4-27.2-13.2c-4.7-3.4-8.7-7-11.9-12c-2.5-4-3.9-7.8-3.9-12.5"/>
	<path class="st0" d="M226.2,272.4c0,4.6-1.3,8.4-3.7,12.3"/>
	<path class="st0" d="M89.6,224.1c0,1.1-1.7,0.9-1.8-0.2c0-0.5,0.5-0.8,0.9-0.7C89.2,223.2,89.6,223.6,89.6,224.1z"/>
	<path class="st0" d="M89.6,224c-0.6,0.2-1.2-0.2-1.3-0.8"/>
	<path class="st0" d="M95,300.9c0,1.1-1.7,0.9-1.8-0.2c0-0.5,0.5-0.8,0.9-0.7C94.6,300.1,95,300.5,95,300.9z"/>
	<path class="st0" d="M95,300.9c-0.6,0.2-1.2-0.2-1.3-0.8"/>
	<path class="st0" d="M91.4,300.6c0,1.1-1.7,0.9-1.8-0.2c0-0.5,0.5-0.8,0.9-0.7C91,299.7,91.4,300.1,91.4,300.6z"/>
	<path class="st0" d="M91.4,300.5c-0.6,0.2-1.2-0.2-1.3-0.8"/>
	<path class="st0" d="M98.6,297.9c0,1.1-1.8,1-1.8-0.1c0-0.5,0.5-0.8,0.9-0.8C98.2,297.1,98.6,297.5,98.6,297.9z"/>
	<path class="st0" d="M98.6,297.8c-0.6,0.2-1.2-0.1-1.3-0.7"/>
	<path class="st0" d="M95,297.6c0,1.1-1.7,0.9-1.8-0.2c0-0.5,0.5-0.8,0.9-0.7C94.6,296.8,95,297.2,95,297.6z"/>
	<path class="st0" d="M95,297.5c-0.6,0.2-1.2-0.2-1.3-0.8"/>
	<path class="st0" d="M91.4,297.3c0,1.1-1.7,0.9-1.8-0.2c0-0.5,0.5-0.8,0.9-0.7C91,296.4,91.4,296.8,91.4,297.3z"/>
	<path class="st0" d="M91.4,297.2c-0.6,0.2-1.2-0.2-1.3-0.8"/>
	<path class="st0" d="M102.3,294.9c-0.1,1.1-1.8,1-1.8-0.1c0-0.5,0.5-0.8,0.9-0.8C101.9,294,102.3,294.4,102.3,294.9z"/>
	<path class="st0" d="M102.3,294.8c-0.6,0.2-1.2-0.1-1.3-0.7"/>
	<path class="st0" d="M98.6,294.6c0,1.1-1.8,1-1.8-0.1c0-0.5,0.5-0.8,0.9-0.8C98.2,293.8,98.6,294.1,98.6,294.6z"/>
	<path class="st0" d="M98.6,294.5c-0.6,0.2-1.2-0.1-1.3-0.7"/>
	<path class="st0" d="M95,294.3c0,1.1-1.7,0.9-1.8-0.2c0-0.5,0.5-0.8,0.9-0.7C94.6,293.5,95,293.8,95,294.3z"/>
	<path class="st0" d="M95,294.2c-0.6,0.2-1.2-0.2-1.3-0.8"/>
	<path class="st0" d="M91.4,294c0,1.1-1.7,0.9-1.8-0.2c0-0.5,0.5-0.8,0.9-0.7C91,293.1,91.4,293.5,91.4,294z"/>
	<path class="st0" d="M91.4,293.9c-0.6,0.2-1.2-0.2-1.3-0.8"/>
	<path class="st0" d="M102.3,291.5c-0.1,1.1-1.8,1-1.8-0.1c0-0.5,0.5-0.8,0.9-0.8C101.9,290.7,102.3,291.1,102.3,291.5z"/>
	<path class="st0" d="M102.3,291.4c-0.6,0.2-1.2-0.1-1.3-0.7"/>
	<path class="st0" d="M98.6,291.3c0,1.1-1.8,1-1.8-0.1c0-0.5,0.5-0.8,0.9-0.8C98.2,290.4,98.6,290.8,98.6,291.3z"/>
	<path class="st0" d="M98.6,291.2c-0.6,0.2-1.2-0.1-1.3-0.7"/>
	<path class="st0" d="M95,291c0,1.1-1.7,0.9-1.8-0.2c0-0.5,0.5-0.8,0.9-0.7C94.6,290.1,95,290.5,95,291z"/>
	<path class="st0" d="M95,290.9c-0.6,0.2-1.2-0.2-1.3-0.8"/>
	<path class="st0" d="M91.4,290.6c0,1.1-1.7,0.9-1.8-0.2c0-0.5,0.5-0.8,0.9-0.7C91,289.8,91.4,290.2,91.4,290.6z"/>
	<path class="st0" d="M91.4,290.5c-0.6,0.2-1.2-0.2-1.3-0.8"/>
	<path class="st0" d="M87.8,300.2c0,1.1-1.7,0.9-1.8-0.2c0-0.5,0.5-0.8,0.9-0.7C87.5,299.3,87.8,299.7,87.8,300.2z"/>
	<path class="st0" d="M87.8,300.1c-0.6,0.2-1.2-0.2-1.3-0.8"/>
	<path class="st0" d="M84.3,299.7c0,0.5-0.5,0.8-0.9,0.7c-0.5-0.1-0.8-0.5-0.8-0.9c0-0.5,0.5-0.8,0.9-0.7
		C83.9,298.9,84.3,299.3,84.3,299.7z"/>
	<path class="st0" d="M84.3,299.6c-0.6,0.2-1.2-0.2-1.3-0.8"/>
	<path class="st0" d="M87.8,296.8c-0.6,0.2-1.2-0.2-1.3-0.8"/>
	<path class="st0" d="M84.3,296.4c0,0.5-0.5,0.8-0.9,0.7c-0.5-0.1-0.8-0.5-0.8-0.9c0-0.5,0.5-0.8,0.9-0.7
		C83.9,295.6,84.3,296,84.3,296.4z"/>
	<path class="st0" d="M84.3,296.3c-0.6,0.2-1.2-0.2-1.3-0.8"/>
	<path class="st0" d="M80.8,295.9c0,0.5-0.5,0.8-0.9,0.7c-0.5-0.1-0.8-0.5-0.8-1c0-0.5,0.5-0.8,0.9-0.7
		C80.4,295.1,80.8,295.5,80.8,295.9z"/>
	<path class="st0" d="M80.8,295.8c-0.6,0.2-1.1-0.3-1.2-0.8"/>
	<path class="st0" d="M87.8,293.6c0,1.1-1.7,0.9-1.8-0.2c0-0.5,0.5-0.8,0.9-0.7C87.5,292.7,87.8,293.1,87.8,293.6z"/>
	<path class="st0" d="M87.8,293.5c-0.6,0.2-1.2-0.2-1.3-0.8"/>
	<path class="st0" d="M84.3,293.1c0,0.5-0.5,0.8-0.9,0.7c-0.5-0.1-0.8-0.5-0.8-0.9c0-0.5,0.5-0.8,0.9-0.7
		C83.9,292.3,84.3,292.6,84.3,293.1z"/>
	<path class="st0" d="M84.3,293c-0.6,0.2-1.2-0.2-1.3-0.8"/>
	<path class="st0" d="M80.8,292.6c0,0.5-0.5,0.8-0.9,0.7c-0.5-0.1-0.8-0.5-0.8-1c0-0.5,0.5-0.8,0.9-0.7
		C80.4,291.7,80.8,292.1,80.8,292.6z"/>
	<path class="st0" d="M80.8,292.5c-0.6,0.2-1.1-0.3-1.2-0.8"/>
	<path class="st0" d="M77.3,292c0,0.5-0.5,0.8-0.9,0.7c-0.4-0.1-0.8-0.5-0.8-1c0-0.5,0.5-0.8,0.9-0.7C77,291.2,77.3,291.6,77.3,292z
		"/>
	<path class="st0" d="M77.3,291.9c-0.6,0.2-1.1-0.3-1.2-0.8"/>
	<path class="st0" d="M87.8,290.2c0,1.1-1.7,0.9-1.8-0.2c0-0.5,0.5-0.8,0.9-0.7C87.5,289.4,87.8,289.8,87.8,290.2z"/>
	<path class="st0" d="M87.8,290.1c-0.6,0.2-1.2-0.2-1.3-0.8"/>
	<path class="st0" d="M84.3,289.8c0,0.5-0.5,0.8-0.9,0.7c-0.5-0.1-0.8-0.5-0.8-0.9c0-0.5,0.5-0.8,0.9-0.7
		C83.9,288.9,84.3,289.3,84.3,289.8z"/>
	<path class="st0" d="M84.3,289.7c-0.6,0.2-1.2-0.2-1.3-0.8"/>
	<path class="st0" d="M80.8,289.3c0,0.5-0.5,0.8-0.9,0.7c-0.5-0.1-0.8-0.5-0.8-1c0-0.5,0.5-0.8,0.9-0.7
		C80.4,288.4,80.8,288.8,80.8,289.3z"/>
	<line class="st0" x1="7.8" y1="230" x2="7.8" y2="230"/>
	<line class="st0" x1="7.8" y1="216.7" x2="7.8" y2="216.7"/>
	<line class="st0" x1="7.8" y1="220" x2="7.8" y2="220"/>
	<line class="st0" x1="7.8" y1="223.3" x2="7.8" y2="223.3"/>
	<line class="st0" x1="7.8" y1="226.6" x2="7.8" y2="226.6"/>
	<line class="st0" x1="7.8" y1="213.4" x2="7.8" y2="213.4"/>
	<line class="st0" x1="7.8" y1="210" x2="7.8" y2="210"/>
	<line class="st0" x1="7.8" y1="206.7" x2="7.8" y2="206.7"/>
	<line class="st0" x1="7.8" y1="203.4" x2="7.8" y2="203.4"/>
	<line class="st0" x1="7.8" y1="200.1" x2="7.8" y2="200.1"/>
	<line class="st0" x1="7.8" y1="200.7" x2="7.8" y2="160.8"/>
	<line class="st0" x1="7.8" y1="204" x2="7.8" y2="201.9"/>
	<line class="st0" x1="7.8" y1="207.3" x2="7.8" y2="205.2"/>
	<line class="st0" x1="7.8" y1="210.6" x2="7.8" y2="209.9"/>
	<line class="st0" x1="7.8" y1="214" x2="7.8" y2="213.2"/>
	<line class="st0" x1="7.8" y1="217.3" x2="7.8" y2="216.5"/>
	<line class="st0" x1="7.8" y1="220.6" x2="7.8" y2="219.4"/>
	<line class="st0" x1="7.8" y1="223.9" x2="7.8" y2="222.7"/>
	<line class="st0" x1="7.8" y1="227.2" x2="7.8" y2="226"/>
	<line class="st0" x1="7.8" y1="230.6" x2="7.8" y2="228.5"/>
	<line class="st0" x1="7.8" y1="272.4" x2="7.8" y2="231.8"/>
	<line class="st0" x1="226.2" y1="232.3" x2="226.2" y2="272.4"/>
	<line class="st0" x1="226.2" y1="229" x2="226.2" y2="230.5"/>
	<line class="st0" x1="226.2" y1="225.7" x2="226.2" y2="227.2"/>
	<line class="st0" x1="226.2" y1="222.4" x2="226.2" y2="223.9"/>
	<line class="st0" x1="226.2" y1="219.1" x2="226.2" y2="220.5"/>
	<line class="st0" x1="226.2" y1="215.7" x2="226.2" y2="217.2"/>
	<line class="st0" x1="226.2" y1="212.4" x2="226.2" y2="213.9"/>
	<line class="st0" x1="226.2" y1="209.1" x2="226.2" y2="210.6"/>
	<line class="st0" x1="226.2" y1="205.8" x2="226.2" y2="207.3"/>
	<line class="st0" x1="226.2" y1="202.5" x2="226.2" y2="204"/>
	<line class="st0" x1="226.2" y1="160.4" x2="226.2" y2="200.7"/>
	<line class="st0" x1="222" y1="157.3" x2="222" y2="160"/>
	<line class="st0" x1="11.9" y1="160" x2="11.9" y2="157.5"/>
	<path class="st0" d="M80.8,289.2c-0.6,0.2-1.1-0.3-1.2-0.8"/>
	<path class="st0" d="M77.3,288.7c0,0.5-0.5,0.8-0.9,0.7c-0.4-0.1-0.8-0.5-0.8-1c0-0.5,0.5-0.8,0.9-0.7
		C77,287.9,77.3,288.3,77.3,288.7z"/>
	<path class="st0" d="M77.3,288.6c-0.6,0.2-1.1-0.3-1.2-0.8"/>
	<path class="st0" d="M84.3,276.5c0,0.5-0.5,0.8-0.9,0.7c-0.5-0.1-0.8-0.5-0.8-0.9c0-0.5,0.5-0.8,0.9-0.7
		C83.9,275.7,84.3,276,84.3,276.5z"/>
	<path class="st0" d="M162.5,315.6c1.7,0.4,3.4,0.4,5.2,0.1c1.2-0.2,3.8-0.8,4.5-2.2"/>
	<path class="st0" d="M165.4,315c2.1,0,5.1-0.4,7-1.7"/>
	<path class="st0" d="M84.3,276.4c-0.6,0.2-1.2-0.2-1.3-0.8"/>
	<path class="st0" d="M87.8,277c0,1.1-1.7,0.9-1.8-0.2c0-0.5,0.5-0.8,0.9-0.7C87.5,276.1,87.8,276.5,87.8,277z"/>
	<path class="st0" d="M87.8,276.9c-0.6,0.2-1.2-0.2-1.3-0.8"/>
	<path class="st0" d="M80.8,279.3c0,0.5-0.5,0.8-0.9,0.7c-0.5-0.1-0.8-0.5-0.8-1c0-0.5,0.5-0.8,0.9-0.7
		C80.4,278.5,80.8,278.9,80.8,279.3z"/>
	<path class="st0" d="M80.8,279.2c-0.6,0.2-1.1-0.3-1.2-0.8"/>
	<path class="st0" d="M84.3,279.8c0,0.5-0.5,0.8-0.9,0.7c-0.5-0.1-0.8-0.5-0.8-0.9c0-0.5,0.5-0.8,0.9-0.7
		C83.9,279,84.3,279.4,84.3,279.8z"/>
	<path class="st0" d="M84.3,279.7c-0.6,0.2-1.2-0.2-1.3-0.8"/>
	<path class="st0" d="M87.8,280.3c0,1.1-1.7,0.9-1.8-0.2c0-0.5,0.5-0.8,0.9-0.7C87.5,279.4,87.8,279.8,87.8,280.3z"/>
	<path class="st0" d="M87.8,280.2c-0.6,0.2-1.2-0.2-1.3-0.8"/>
	<path class="st0" d="M77.3,282.1c0,0.5-0.5,0.8-0.9,0.7c-0.4-0.1-0.8-0.5-0.8-1c0-0.5,0.5-0.8,0.9-0.7
		C77,281.2,77.3,281.6,77.3,282.1z"/>
	<path class="st0" d="M77.3,282c-0.6,0.2-1.1-0.3-1.2-0.8"/>
	<path class="st0" d="M80.8,282.6c0,0.5-0.5,0.8-0.9,0.7c-0.5-0.1-0.8-0.5-0.8-1c0-0.5,0.5-0.8,0.9-0.7
		C80.4,281.8,80.8,282.2,80.8,282.6z"/>
	<path class="st0" d="M80.8,282.5c-0.6,0.2-1.1-0.3-1.2-0.8"/>
	<path class="st0" d="M84.3,283.2c0,0.5-0.5,0.8-0.9,0.7c-0.5-0.1-0.8-0.5-0.8-0.9c0-0.5,0.5-0.8,0.9-0.7
		C83.9,282.3,84.3,282.7,84.3,283.2z"/>
	<path class="st0" d="M84.3,283c-0.6,0.2-1.2-0.2-1.3-0.8"/>
	<path class="st0" d="M87.8,283.6c0,1.1-1.7,0.9-1.8-0.2c0-0.5,0.5-0.8,0.9-0.7C87.5,282.8,87.8,283.1,87.8,283.6z"/>
	<path class="st0" d="M87.8,283.5c-0.6,0.2-1.2-0.2-1.3-0.8"/>
	<path class="st0" d="M77.3,285.4c0,0.5-0.5,0.8-0.9,0.7c-0.4-0.1-0.8-0.5-0.8-1c0-0.5,0.5-0.8,0.9-0.7
		C77,284.6,77.3,284.9,77.3,285.4z"/>
	<path class="st0" d="M77.3,285.3c-0.6,0.2-1.1-0.3-1.2-0.8"/>
	<path class="st0" d="M80.8,286c0,0.5-0.5,0.8-0.9,0.7c-0.5-0.1-0.8-0.5-0.8-1c0-0.5,0.5-0.8,0.9-0.7
		C80.4,285.1,80.8,285.5,80.8,286z"/>
	<path class="st0" d="M80.8,285.8c-0.6,0.2-1.1-0.3-1.2-0.8"/>
	<path class="st0" d="M84.3,286.5c0,0.5-0.5,0.8-0.9,0.7c-0.5-0.1-0.8-0.5-0.8-0.9c0-0.5,0.5-0.8,0.9-0.7
		C83.9,285.6,84.3,286,84.3,286.5z"/>
	<path class="st0" d="M84.3,286.4c-0.6,0.2-1.2-0.2-1.3-0.8"/>
	<path class="st0" d="M87.8,286.9c0,1.1-1.7,0.9-1.8-0.2c0-0.5,0.5-0.8,0.9-0.7C87.5,286.1,87.8,286.5,87.8,286.9z"/>
	<path class="st0" d="M87.8,286.8c-0.6,0.2-1.2-0.2-1.3-0.8"/>
	<path class="st0" d="M91.4,277.4c0,1.1-1.7,0.9-1.8-0.2c0-0.5,0.5-0.8,0.9-0.7C91,276.5,91.4,276.9,91.4,277.4z"/>
	<path class="st0" d="M91.4,277.3c-0.6,0.2-1.2-0.2-1.3-0.8"/>
	<path class="st0" d="M95,277.7c0,1.1-1.7,0.9-1.8-0.2c0-0.5,0.5-0.8,0.9-0.7C94.6,276.9,95,277.2,95,277.7z"/>
	<path class="st0" d="M95,277.6c-0.6,0.2-1.2-0.2-1.3-0.8"/>
	<path class="st0" d="M91.4,280.7c0,1.1-1.7,0.9-1.8-0.2c0-0.5,0.5-0.8,0.9-0.7C91,279.8,91.4,280.2,91.4,280.7z"/>
	<path class="st0" d="M91.4,280.6c-0.6,0.2-1.2-0.2-1.3-0.8"/>
	<path class="st0" d="M95,281c0,1.1-1.7,0.9-1.8-0.2c0-0.5,0.5-0.8,0.9-0.7C94.6,280.2,95,280.6,95,281z"/>
	<path class="st0" d="M95,280.9c-0.6,0.2-1.2-0.2-1.3-0.8"/>
	<path class="st0" d="M98.6,281.3c0,1.1-1.8,1-1.8-0.1c0-0.5,0.5-0.8,0.9-0.8C98.2,280.5,98.6,280.9,98.6,281.3z"/>
	<path class="st0" d="M98.6,281.2c-0.6,0.2-1.2-0.1-1.3-0.7"/>
	<path class="st0" d="M91.4,284c0,1.1-1.7,0.9-1.8-0.2c0-0.5,0.5-0.8,0.9-0.7C91,283.2,91.4,283.5,91.4,284z"/>
	<path class="st0" d="M91.4,283.9c-0.6,0.2-1.2-0.2-1.3-0.8"/>
	<path class="st0" d="M95,284.4c0,1.1-1.7,0.9-1.8-0.2c0-0.5,0.5-0.8,0.9-0.7C94.6,283.5,95,283.9,95,284.4z"/>
	<path class="st0" d="M95,284.3c-0.6,0.2-1.2-0.2-1.3-0.8"/>
	<path class="st0" d="M98.6,284.7c0,1.1-1.8,1-1.8-0.1c0-0.5,0.5-0.8,0.9-0.8C98.2,283.8,98.6,284.2,98.6,284.7z"/>
	<path class="st0" d="M98.6,284.6c-0.6,0.2-1.2-0.1-1.3-0.7"/>
	<path class="st0" d="M102.3,284.9c-0.1,1.1-1.8,1-1.8-0.1c0-0.5,0.5-0.8,0.9-0.8C101.9,284,102.3,284.4,102.3,284.9z"/>
	<path class="st0" d="M102.3,284.8c-0.6,0.2-1.2-0.1-1.3-0.7"/>
	<path class="st0" d="M91.4,287.3c0,1.1-1.7,0.9-1.8-0.2c0-0.5,0.5-0.8,0.9-0.7C91,286.5,91.4,286.9,91.4,287.3z"/>
	<path class="st0" d="M91.4,287.2c-0.6,0.2-1.2-0.2-1.3-0.8"/>
	<path class="st0" d="M95,287.7c0,1.1-1.7,0.9-1.8-0.2c0-0.5,0.5-0.8,0.9-0.7C94.6,286.8,95,287.2,95,287.7z"/>
	<path class="st0" d="M95,287.6c-0.6,0.2-1.2-0.2-1.3-0.8"/>
	<path class="st0" d="M98.6,288c0,1.1-1.8,1-1.8-0.1c0-0.5,0.5-0.8,0.9-0.8C98.2,287.1,98.6,287.5,98.6,288z"/>
	<path class="st0" d="M98.6,287.9c-0.6,0.2-1.2-0.1-1.3-0.7"/>
	<path class="st0" d="M102.3,288.2c-0.1,1.1-1.8,1-1.8-0.1c0-0.5,0.5-0.8,0.9-0.8C101.9,287.4,102.3,287.7,102.3,288.2z"/>
	<path class="st0" d="M102.3,288.1c-0.6,0.2-1.2-0.1-1.3-0.7"/>
	<path class="st0" d="M7.8,200.7c0,0.4,0,0.8,0,1.2"/>
	<path class="st0" d="M7.9,198.5c-0.1,0.5-0.1,1.1,0,1.6"/>
	<path class="st0" d="M7.8,204c0,0.4,0,0.8,0,1.2"/>
	<path class="st0" d="M7.9,202c0,0.5,0,1,0,1.5"/>
	<path class="st0" d="M7.8,208.9c0-0.1,0-0.2,0-0.3"/>
	<path class="st0" d="M7.8,208.6c0,0.2,0.1,1.5,0,1.7"/>
	<path class="st0" d="M7.8,210.1c0-0.4,0-0.8,0-1.2"/>
	<path class="st0" d="M7.8,207.4c0,0.4,0,0.7,0,1.1"/>
	<path class="st0" d="M7.9,205.3c0,0.5,0,1,0,1.5"/>
	<path class="st0" d="M7.8,212.2c0-0.1,0-0.2,0-0.3"/>
	<path class="st0" d="M7.8,211.9c0,0.2,0.1,1.5,0,1.7"/>
	<path class="st0" d="M7.8,213.5c0-0.4,0-0.8,0-1.2"/>
	<path class="st0" d="M7.8,210.7c0,0.4,0,0.7,0,1.1"/>
	<path class="st0" d="M7.8,215.5c0-0.1,0-0.2,0-0.3"/>
	<path class="st0" d="M7.8,215.2c0,0.2,0.1,1.5,0,1.7"/>
	<path class="st0" d="M7.8,216.8c0-0.4,0-0.8,0-1.2"/>
	<path class="st0" d="M7.8,214c0,0.4,0,0.7,0,1.1"/>
	<path class="st0" d="M7.9,231.8c0,0.2-0.1,1.5,0,1.6"/>
	<path class="st0" d="M7.9,228.5c0,0.5,0,1,0,1.5"/>
	<path class="st0" d="M7.8,227.3c0,0.4,0,0.8,0,1.2"/>
	<path class="st0" d="M7.8,223.9c0,0.3,0,0.7,0,1"/>
	<path class="st0" d="M7.8,220.6c0,0.3,0,0.7,0,1"/>
	<path class="st0" d="M7.8,222.2c0-0.1,0-0.3,0-0.4"/>
	<path class="st0" d="M7.8,221.7c0,0.2,0.1,1.6,0,1.8"/>
	<path class="st0" d="M7.8,222.8c0-0.2,0-0.4,0-0.7"/>
	<path class="st0" d="M7.8,217.3c0,0.3,0,0.7,0,1"/>
	<path class="st0" d="M7.8,218.9c0-0.1,0-0.3,0-0.4"/>
	<path class="st0" d="M7.8,218.4c0,0.2,0.1,1.6,0,1.8"/>
	<path class="st0" d="M7.8,219.5c0-0.2,0-0.4,0-0.7"/>
	<path class="st0" d="M7.8,230.6c0,0.4,0,0.8,0,1.2"/>
	<path class="st0" d="M7.8,225.5c0-0.1,0-0.3,0-0.4"/>
	<path class="st0" d="M7.8,225c0,0.2,0.1,1.6,0,1.8"/>
	<path class="st0" d="M7.8,226.1c0-0.2,0-0.4,0-0.7"/>
	<path class="st0" d="M224.6,196c0,0.3,0,0.6-0.1,0.9c0,0.1-0.1,0.5-0.2,0.3c-0.1-0.2-0.1-0.3-0.1-0.5c0-0.3,0-0.6,0.1-0.9
		c0-0.1,0.1-0.6,0.2-0.3C224.7,195.7,224.6,195.9,224.6,196z"/>
	<path class="st0" d="M225.6,196.1c0,0.2,0,0.4,0,0.7c0,0.1,0,0.2,0,0.3c0,0.1,0.1,0.2-0.1,0.3"/>
	<path class="st0" d="M225.6,195.6C225.6,195.6,225.6,195.6,225.6,195.6"/>
	<path class="st0" d="M225.6,195.6c0.1,0.2,0.1,0.3,0.1,0.5"/>
	<path class="st0" d="M76.4,281.1c0,0.2-0.1,0.3-0.1,0.5"/>
	<path class="st0" d="M76.8,287.9c0.1,0.2,0.2,0.5,0.3,0.7"/>
	<path class="st0" d="M76.2,284.4c0,0.1,0,0.2,0,0.3"/>
	<path class="st0" d="M76.8,291.9c-0.1-0.3-0.3-0.6-0.4-0.8"/>
	<path class="st0" d="M84.3,299.6c-0.4-0.2-0.8-0.5-1.2-0.7"/>
	<path class="st0" d="M225.9,217.2c0,0.1,0,0.1,0,0.2"/>
	<path class="st0" d="M225.9,217.4c0-0.1,0-0.3,0.1-0.2"/>
	<path class="st0" d="M226,217.7c0,0.4,0.1,0.9-0.1,1.3"/>
	<path class="st0" d="M225.6,218.8c0.1,0.2,0.1,0.3,0.1,0.5"/>
	<path class="st0" d="M225.4,220.5c0-0.3,0-0.6,0-0.8c0-0.1,0-0.3,0-0.4c0-0.1,0-0.1,0-0.2c0-0.1,0-0.1,0.1-0.2"/>
	<path class="st0" d="M225.6,219.4c0,0.2,0,0.4,0,0.7c0,0.1,0,0.2,0,0.3c0,0.1,0.1,0.2-0.1,0.3"/>
	<path class="st0" d="M225.2,221c0,0.3,0,0.6-0.1,0.9c0,0.1-0.1,0.6-0.2,0.3c-0.1-0.2,0-0.3,0-0.5c0-0.3,0-0.6,0.1-0.9
		c0-0.1,0.1-0.6,0.2-0.3C225.2,220.7,225.2,220.8,225.2,221z"/>
	<path class="st0" d="M224.6,222.6c0,0.3,0,0.6-0.1,0.9c0,0.1-0.1,0.5-0.2,0.3c-0.1-0.2-0.1-0.3-0.1-0.5c0-0.3,0-0.6,0.1-0.9
		c0-0.1,0.1-0.6,0.2-0.3C224.7,222.2,224.6,222.4,224.6,222.6z"/>
	<path class="st0" d="M224,224.1c0,0.3,0,0.6-0.1,1c0,0.1-0.1,0.5-0.2,0.3c-0.1-0.2-0.1-0.3-0.1-0.5c0-0.3,0-0.6,0.1-1
		c0-0.1,0.1-0.5,0.2-0.3C224,223.8,224,224,224,224.1z"/>
	<path class="st0" d="M223.2,225.7c0,0.3,0,0.6-0.1,1c0,0.1-0.1,0.5-0.2,0.3c-0.1-0.2-0.1-0.3-0.1-0.5c0-0.3,0-0.6,0.1-1
		c0-0.1,0.1-0.5,0.2-0.3C223.2,225.4,223.2,225.5,223.2,225.7z"/>
	<path class="st0" d="M225.9,213.9c0,0.1,0,0.1,0,0.2"/>
	<path class="st0" d="M225.9,214.1c0-0.1,0-0.3,0.1-0.2"/>
	<path class="st0" d="M226,214.4c0,0.4,0.1,0.9-0.1,1.3"/>
	<path class="st0" d="M225.6,215.5c0.1,0.2,0.1,0.3,0.1,0.5"/>
	<path class="st0" d="M225.4,217.2c0-0.3,0-0.6,0-0.8c0-0.1,0-0.3,0-0.4c0-0.1,0-0.1,0-0.2c0-0.1,0-0.1,0.1-0.2"/>
	<path class="st0" d="M225.6,216c0,0.2,0,0.4,0,0.7c0,0.1,0,0.2,0,0.3c0,0.1,0.1,0.2-0.1,0.3"/>
	<path class="st0" d="M225.2,217.6c0,0.3,0,0.6-0.1,0.9c0,0.1-0.1,0.6-0.2,0.3c-0.1-0.2,0-0.3,0-0.5c0-0.3,0-0.6,0.1-0.9
		c0-0.1,0.1-0.6,0.2-0.3C225.2,217.3,225.2,217.5,225.2,217.6z"/>
	<path class="st0" d="M224.6,219.2c0,0.3,0,0.6-0.1,0.9c0,0.1-0.1,0.5-0.2,0.3c-0.1-0.2-0.1-0.3-0.1-0.5c0-0.3,0-0.6,0.1-0.9
		c0-0.1,0.1-0.6,0.2-0.3C224.7,218.9,224.6,219.1,224.6,219.2z"/>
	<path class="st0" d="M224,220.8c0,0.3,0,0.6-0.1,1c0,0.1-0.1,0.5-0.2,0.3c-0.1-0.2-0.1-0.3-0.1-0.5c0-0.3,0-0.6,0.1-1
		c0-0.1,0.1-0.5,0.2-0.3C224,220.5,224,220.7,224,220.8z"/>
	<path class="st0" d="M223.2,222.4c0,0.3,0,0.6-0.1,1c0,0.1-0.1,0.5-0.2,0.3c-0.1-0.2-0.1-0.3-0.1-0.5c0-0.3,0-0.6,0.1-1
		c0-0.1,0.1-0.5,0.2-0.3C223.2,222.1,223.2,222.2,223.2,222.4z"/>
	<path class="st0" d="M225.9,210.6c0,0.1,0,0.1,0,0.2"/>
	<path class="st0" d="M225.9,210.8c0-0.1,0-0.3,0.1-0.2"/>
	<path class="st0" d="M226,211.1c0,0.4,0.1,0.9-0.1,1.3"/>
	<path class="st0" d="M225.6,212.2c0.1,0.2,0.1,0.3,0.1,0.5"/>
	<path class="st0" d="M225.4,213.8c0-0.3,0-0.6,0-0.8c0-0.1,0-0.3,0-0.4c0-0.1,0-0.1,0-0.2c0-0.1,0-0.1,0.1-0.2"/>
	<path class="st0" d="M225.6,212.7c0,0.2,0,0.4,0,0.7c0,0.1,0,0.2,0,0.3c0,0.1,0.1,0.2-0.1,0.3"/>
	<path class="st0" d="M225.2,214.3c0,0.3,0,0.6-0.1,0.9c0,0.1-0.1,0.6-0.2,0.3c-0.1-0.2,0-0.3,0-0.5c0-0.3,0-0.6,0.1-0.9
		c0-0.1,0.1-0.6,0.2-0.3C225.2,214,225.2,214.2,225.2,214.3z"/>
	<path class="st0" d="M224.6,215.9c0,0.3,0,0.6-0.1,0.9c0,0.1-0.1,0.5-0.2,0.3c-0.1-0.2-0.1-0.3-0.1-0.5c0-0.3,0-0.6,0.1-0.9
		c0-0.1,0.1-0.6,0.2-0.3C224.7,215.6,224.6,215.8,224.6,215.9z"/>
	<path class="st0" d="M224,217.5c0,0.3,0,0.6-0.1,1c0,0.1-0.1,0.5-0.2,0.3c-0.1-0.2-0.1-0.3-0.1-0.5c0-0.3,0-0.6,0.1-1
		c0-0.1,0.1-0.5,0.2-0.3C224,217.2,224,217.3,224,217.5z"/>
	<path class="st0" d="M223.2,219.1c0,0.3,0,0.6-0.1,1c0,0.1-0.1,0.5-0.2,0.3c-0.1-0.2-0.1-0.3-0.1-0.5c0-0.3,0-0.6,0.1-1
		c0-0.1,0.1-0.5,0.2-0.3C223.2,218.8,223.2,218.9,223.2,219.1z"/>
	<path class="st0" d="M225.9,207.3c0,0.1,0,0.1,0,0.2"/>
	<path class="st0" d="M225.9,207.5c0-0.1,0-0.3,0.1-0.2"/>
	<path class="st0" d="M226,207.8c0,0.4,0.1,0.9-0.1,1.3"/>
	<path class="st0" d="M225.6,208.9c0.1,0.2,0.1,0.3,0.1,0.5"/>
	<path class="st0" d="M225.4,210.5c0-0.3,0-0.6,0-0.8c0-0.1,0-0.3,0-0.4c0-0.1,0-0.1,0-0.2c0-0.1,0-0.1,0.1-0.2"/>
	<path class="st0" d="M225.6,209.4c0,0.2,0,0.4,0,0.7c0,0.1,0,0.2,0,0.3c0,0.1,0.1,0.2-0.1,0.3"/>
	<path class="st0" d="M225.2,211c0,0.3,0,0.6-0.1,0.9c0,0.1-0.1,0.6-0.2,0.3c-0.1-0.2,0-0.3,0-0.5c0-0.3,0-0.6,0.1-0.9
		c0-0.1,0.1-0.6,0.2-0.3C225.2,210.7,225.2,210.9,225.2,211z"/>
	<path class="st0" d="M224.6,212.6c0,0.3,0,0.6-0.1,0.9c0,0.1-0.1,0.5-0.2,0.3c-0.1-0.2-0.1-0.3-0.1-0.5c0-0.3,0-0.6,0.1-0.9
		c0-0.1,0.1-0.6,0.2-0.3C224.7,212.3,224.6,212.4,224.6,212.6z"/>
	<path class="st0" d="M224,214.2c0,0.3,0,0.6-0.1,1c0,0.1-0.1,0.5-0.2,0.3c-0.1-0.2-0.1-0.3-0.1-0.5c0-0.3,0-0.6,0.1-1
		c0-0.1,0.1-0.5,0.2-0.3C224,213.9,224,214,224,214.2z"/>
	<path class="st0" d="M223.2,215.8c0,0.3,0,0.6-0.1,1c0,0.1-0.1,0.5-0.2,0.3c-0.1-0.2-0.1-0.3-0.1-0.5c0-0.3,0-0.6,0.1-1
		c0-0.1,0.1-0.5,0.2-0.3C223.2,215.4,223.2,215.6,223.2,215.8z"/>
	<path class="st0" d="M225.9,204c0,0.2,0,0.3,0,0.5"/>
	<path class="st0" d="M225.9,204.1c0-0.1,0-0.3,0.1-0.2"/>
	<path class="st0" d="M226,204.5c0,0.4,0.1,0.9-0.1,1.3"/>
	<path class="st0" d="M225.6,205.6c0.1,0.2,0.1,0.3,0.1,0.5"/>
	<path class="st0" d="M225.4,207.2c0-0.3,0-0.6,0-0.8c0-0.1,0-0.3,0-0.4c0-0.1,0-0.1,0-0.2c0-0.1,0-0.1,0.1-0.2"/>
	<path class="st0" d="M225.6,206.1c0,0.2,0,0.4,0,0.7c0,0.1,0,0.2,0,0.3c0,0.1,0.1,0.2-0.1,0.3"/>
	<path class="st0" d="M225.2,207.7c0,0.3,0,0.6-0.1,0.9c0,0.1-0.1,0.6-0.2,0.3c-0.1-0.2,0-0.3,0-0.5c0-0.3,0-0.6,0.1-0.9
		c0-0.1,0.1-0.6,0.2-0.3C225.2,207.4,225.2,207.5,225.2,207.7z"/>
	<path class="st0" d="M224.6,209.3c0,0.3,0,0.6-0.1,0.9c0,0.1-0.1,0.5-0.2,0.3c-0.1-0.2-0.1-0.3-0.1-0.5c0-0.3,0-0.6,0.1-0.9
		c0-0.1,0.1-0.6,0.2-0.3C224.7,209,224.6,209.1,224.6,209.3z"/>
	<path class="st0" d="M224,210.9c0,0.3,0,0.6-0.1,1c0,0.1-0.1,0.5-0.2,0.3c-0.1-0.2-0.1-0.3-0.1-0.5c0-0.3,0-0.6,0.1-1
		c0-0.1,0.1-0.5,0.2-0.3C224,210.6,224,210.7,224,210.9z"/>
	<path class="st0" d="M223.2,212.4c0,0.3,0,0.6-0.1,1c0,0.1-0.1,0.5-0.2,0.3c-0.1-0.2-0.1-0.3-0.1-0.5c0-0.3,0-0.6,0.1-1
		c0-0.1,0.1-0.5,0.2-0.3C223.2,212.1,223.2,212.3,223.2,212.4z"/>
	<path class="st0" d="M225.9,200.6c0,0.2,0,0.3,0,0.5"/>
	<path class="st0" d="M225.9,200.8c0-0.1,0-0.3,0.1-0.2"/>
	<path class="st0" d="M226,201.1c0,0.4,0.1,0.9-0.1,1.3"/>
	<path class="st0" d="M225.6,202.2c0.1,0.2,0.1,0.3,0.1,0.5"/>
	<path class="st0" d="M225.4,203.9c0-0.3,0-0.6,0-0.8c0-0.1,0-0.3,0-0.4c0-0.1,0-0.1,0-0.2c0-0.1,0-0.1,0.1-0.2"/>
	<path class="st0" d="M225.6,202.8c0,0.2,0,0.4,0,0.7c0,0.1,0,0.2,0,0.3c0,0.1,0.1,0.2-0.1,0.3"/>
	<path class="st0" d="M225.2,204.4c0,0.3,0,0.6-0.1,0.9c0,0.1-0.1,0.6-0.2,0.3c-0.1-0.2,0-0.3,0-0.5c0-0.3,0-0.6,0.1-0.9
		c0-0.1,0.1-0.6,0.2-0.3C225.2,204.1,225.2,204.2,225.2,204.4z"/>
	<path class="st0" d="M224.6,206c0,0.3,0,0.6-0.1,0.9c0,0.1-0.1,0.5-0.2,0.3c-0.1-0.2-0.1-0.3-0.1-0.5c0-0.3,0-0.6,0.1-0.9
		c0-0.1,0.1-0.6,0.2-0.3C224.7,205.7,224.6,205.8,224.6,206z"/>
	<path class="st0" d="M224,207.5c0,0.3,0,0.6-0.1,1c0,0.1-0.1,0.5-0.2,0.3c-0.1-0.2-0.1-0.3-0.1-0.5c0-0.3,0-0.6,0.1-1
		c0-0.1,0.1-0.5,0.2-0.3C224,207.2,224,207.4,224,207.5z"/>
	<path class="st0" d="M223.2,209.1c0,0.3,0,0.6-0.1,1c0,0.1-0.1,0.5-0.2,0.3c-0.1-0.2-0.1-0.3-0.1-0.5c0-0.3,0-0.6,0.1-1
		c0-0.1,0.1-0.5,0.2-0.3C223.2,208.8,223.2,209,223.2,209.1z"/>
	<path class="st0" d="M225.9,197.3c0,0.2,0,0.3,0,0.5"/>
	<path class="st0" d="M225.9,197.3C225.9,197.3,225.9,197.3,225.9,197.3"/>
	<path class="st0" d="M226,197.8c0,0.4,0.1,0.9-0.1,1.3"/>
	<path class="st0" d="M225.6,198.9c0.1,0.2,0.1,0.3,0.1,0.5"/>
	<path class="st0" d="M225.4,200.6c0-0.3,0-0.6,0-0.8c0-0.1,0-0.3,0-0.4c0-0.1,0-0.1,0-0.2c0-0.1,0-0.1,0.1-0.2"/>
	<path class="st0" d="M225.6,199.4c0,0.2,0,0.4,0,0.7c0,0.1,0,0.2,0,0.3c0,0.1,0.1,0.2-0.1,0.3"/>
	<path class="st0" d="M225.2,201.1c0,0.3,0,0.6-0.1,0.9c0,0.1-0.1,0.6-0.2,0.3c-0.1-0.2,0-0.3,0-0.5c0-0.3,0-0.6,0.1-0.9
		c0-0.1,0.1-0.6,0.2-0.3C225.2,200.7,225.2,200.9,225.2,201.1z"/>
	<path class="st0" d="M224.6,202.7c0,0.3,0,0.6-0.1,0.9c0,0.1-0.1,0.5-0.2,0.3c-0.1-0.2-0.1-0.3-0.1-0.5c0-0.3,0-0.6,0.1-0.9
		c0-0.1,0.1-0.6,0.2-0.3C224.7,202.3,224.6,202.5,224.6,202.7z"/>
	<path class="st0" d="M224,204.2c0,0.3,0,0.6-0.1,1c0,0.1-0.1,0.5-0.2,0.3c-0.1-0.2-0.1-0.3-0.1-0.5c0-0.3,0-0.6,0.1-1
		c0-0.1,0.1-0.5,0.2-0.3C224,203.9,224,204.1,224,204.2z"/>
	<path class="st0" d="M223.2,205.8c0,0.3,0,0.6-0.1,1c0,0.1-0.1,0.5-0.2,0.3c-0.1-0.2-0.1-0.3-0.1-0.5c0-0.3,0-0.6,0.1-1
		c0-0.1,0.1-0.5,0.2-0.3C223.2,205.5,223.2,205.6,223.2,205.8z"/>
	<path class="st0" d="M225.2,197.7c0,0.3,0,0.6-0.1,0.9c0,0.1-0.1,0.6-0.2,0.3c-0.1-0.2,0-0.3,0-0.5c0-0.3,0-0.6,0.1-0.9
		c0-0.1,0.1-0.6,0.2-0.3C225.2,197.4,225.2,197.6,225.2,197.7z"/>
	<path class="st0" d="M224.6,199.3c0,0.3,0,0.6-0.1,0.9c0,0.1-0.1,0.5-0.2,0.3c-0.1-0.2-0.1-0.3-0.1-0.5c0-0.3,0-0.6,0.1-0.9
		c0-0.1,0.1-0.6,0.2-0.3C224.7,199,224.6,199.2,224.6,199.3z"/>
	<path class="st0" d="M224,200.9c0,0.3,0,0.6-0.1,1c0,0.1-0.1,0.5-0.2,0.3c-0.1-0.2-0.1-0.3-0.1-0.5c0-0.3,0-0.6,0.1-1
		c0-0.1,0.1-0.5,0.2-0.3C224,200.6,224,200.8,224,200.9z"/>
	<path class="st0" d="M223.2,202.5c0,0.3,0,0.6-0.1,1c0,0.1-0.1,0.5-0.2,0.3c-0.1-0.2-0.1-0.3-0.1-0.5c0-0.3,0-0.6,0.1-1
		c0-0.1,0.1-0.5,0.2-0.3C223.2,202.2,223.2,202.3,223.2,202.5z"/>
	<path class="st0" d="M224,197.6c0,0.3,0,0.6-0.1,1c0,0.1-0.1,0.5-0.2,0.3c-0.1-0.2-0.1-0.3-0.1-0.5c0-0.3,0-0.6,0.1-1
		c0-0.1,0.1-0.5,0.2-0.3C224,197.3,224,197.4,224,197.6z"/>
	<path class="st0" d="M223.2,199.2c0,0.3,0,0.6-0.1,1c0,0.1-0.1,0.5-0.2,0.3c-0.1-0.2-0.1-0.3-0.1-0.5c0-0.3,0-0.6,0.1-1
		c0-0.1,0.1-0.5,0.2-0.3C223.2,198.8,223.2,199,223.2,199.2z"/>
	<path class="st0" d="M226.1,199.1c0,0.1,0,0.3,0,0.4"/>
	<path class="st0" d="M226.1,199.1C226.1,199.1,226.1,199,226.1,199.1"/>
	<path class="st0" d="M226.1,199.5c0,0.4,0,0.8,0,1.2"/>
	<path class="st0" d="M226.1,202.4c0,0.1,0,0.3,0,0.4"/>
	<path class="st0" d="M226.1,202.5c0-0.1,0-0.1,0-0.2"/>
	<path class="st0" d="M226.1,202.8c0,0.4,0,0.8,0,1.2"/>
	<path class="st0" d="M226.1,206c0,0.1,0,0.1,0,0.2"/>
	<path class="st0" d="M226.1,205.7c0,0.1,0,0.1,0,0.2"/>
	<path class="st0" d="M226.1,205.8c0-0.1-0.1-0.1,0-0.2"/>
	<path class="st0" d="M226.1,206.1c0,0.4,0,0.8,0,1.2"/>
	<path class="st0" d="M226.1,209.3c0,0.1,0,0.1,0,0.2"/>
	<path class="st0" d="M226.1,209c0,0.1,0,0.1,0,0.2"/>
	<path class="st0" d="M226.1,209.2c0-0.1-0.1-0.1,0-0.2"/>
	<path class="st0" d="M226.1,209.5c0,0.4,0,0.8,0,1.2"/>
	<path class="st0" d="M226.1,212.6c0,0.1,0,0.1,0,0.2"/>
	<path class="st0" d="M226.1,212.3c0,0.1,0,0.1,0,0.2"/>
	<path class="st0" d="M226.1,212.5c0-0.1-0.1-0.1,0-0.2"/>
	<path class="st0" d="M226.1,212.8c0,0.4,0,0.8,0,1.2"/>
	<path class="st0" d="M226.2,209.6c0-0.1,0-0.3,0-0.4"/>
	<path class="st0" d="M226.2,210.6c0,0,0-0.1,0-0.1"/>
	<path class="st0" d="M226.1,215.9c0,0.1,0,0.1,0,0.2"/>
	<path class="st0" d="M226.1,215.6c0,0.1,0,0.1,0,0.2"/>
	<path class="st0" d="M226.1,215.8c0-0.1-0.1-0.1,0-0.2"/>
	<path class="st0" d="M226.1,216.1c0,0.4,0,0.8,0,1.2"/>
	<path class="st0" d="M226.2,212.9c0-0.1,0-0.3,0-0.4"/>
	<path class="st0" d="M226.2,213.9c0,0,0-0.1,0-0.1"/>
	<path class="st0" d="M222.2,227.3c0,0.3,0,0.7-0.2,1c-0.1,0.1-0.1,0.5-0.3,0.3c-0.1-0.2-0.1-0.3-0.1-0.5c0-0.3,0-0.7,0.2-1
		c0.1-0.1,0.1-0.5,0.3-0.3C222.3,226.9,222.2,227.1,222.2,227.3z"/>
	<path class="st0" d="M221.2,228.8c0,0.3,0,0.7-0.2,1c-0.1,0.2-0.1,0.5-0.3,0.3c-0.1-0.2-0.1-0.3-0.1-0.5c0-0.3,0-0.7,0.2-1
		c0.1-0.1,0.1-0.5,0.3-0.3C221.2,228.5,221.2,228.6,221.2,228.8z"/>
	<path class="st0" d="M220,230.3c0,0.4-0.1,0.7-0.2,1c-0.1,0.2-0.1,0.5-0.3,0.3c-0.1-0.2-0.1-0.3-0.1-0.5c0-0.3,0.1-0.7,0.2-1
		c0.1-0.2,0.1-0.5,0.3-0.3C220.1,230,220,230.2,220,230.3"/>
	<path class="st0" d="M218.7,231.8c0,0.4-0.1,0.7-0.2,1c-0.1,0.2-0.2,0.5-0.4,0.2c-0.1-0.2-0.1-0.3-0.1-0.5c0-0.4,0.1-0.7,0.2-1
		c0.1-0.2,0.2-0.5,0.4-0.3C218.8,231.5,218.7,231.7,218.7,231.8z"/>
	<path class="st0" d="M217.3,233.3c0,0.4-0.1,0.7-0.2,1c-0.3,0.5-0.5,0.2-0.5-0.3c0-0.4,0.1-0.7,0.2-1
		C217.1,232.6,217.3,232.8,217.3,233.3z"/>
	<path class="st0" d="M215.8,234.8c0,0.4-0.1,0.7-0.3,1c-0.3,0.5-0.5,0.2-0.5-0.3c0-0.4,0.1-0.7,0.3-1
		C215.6,234.1,215.8,234.3,215.8,234.8z"/>
	<path class="st0" d="M222.2,223.9c0,0.3,0,0.7-0.2,1c-0.1,0.1-0.1,0.5-0.3,0.3c-0.1-0.2-0.1-0.3-0.1-0.5c0-0.3,0-0.7,0.2-1
		c0.1-0.1,0.1-0.5,0.3-0.3C222.3,223.6,222.2,223.8,222.2,223.9z"/>
	<path class="st0" d="M221.2,225.5c0,0.3,0,0.7-0.2,1c-0.1,0.2-0.1,0.5-0.3,0.3c-0.1-0.2-0.1-0.3-0.1-0.5c0-0.3,0-0.7,0.2-1
		c0.1-0.1,0.1-0.5,0.3-0.3C221.2,225.2,221.2,225.3,221.2,225.5z"/>
	<path class="st0" d="M220,227c0,0.4-0.1,0.7-0.2,1c-0.1,0.2-0.1,0.5-0.3,0.3c-0.1-0.2-0.1-0.3-0.1-0.5c0-0.3,0.1-0.7,0.2-1
		c0.1-0.2,0.1-0.5,0.3-0.3C220.1,226.7,220,226.8,220,227z"/>
	<path class="st0" d="M218.7,228.5c0,0.4-0.1,0.7-0.2,1c-0.1,0.2-0.2,0.5-0.4,0.2c-0.1-0.2-0.1-0.3-0.1-0.5c0-0.4,0.1-0.7,0.2-1
		c0.1-0.2,0.2-0.5,0.4-0.3C218.8,228.2,218.7,228.3,218.7,228.5z"/>
	<path class="st0" d="M217.3,230c0,0.4-0.1,0.7-0.2,1c-0.3,0.5-0.5,0.2-0.5-0.3c0-0.4,0.1-0.7,0.2-1
		C217.1,229.3,217.3,229.5,217.3,230z"/>
	<path class="st0" d="M215.8,231.5c0,0.4-0.1,0.7-0.3,1c-0.3,0.5-0.5,0.2-0.5-0.3c0-0.4,0.1-0.7,0.3-1
		C215.6,230.7,215.8,231,215.8,231.5z"/>
	<path class="st0" d="M222.2,220.6c0,0.3,0,0.7-0.2,1c-0.1,0.1-0.1,0.5-0.3,0.3c-0.1-0.2-0.1-0.3-0.1-0.5c0-0.3,0-0.7,0.2-1
		c0.1-0.1,0.1-0.5,0.3-0.3C222.3,220.3,222.2,220.5,222.2,220.6z"/>
	<path class="st0" d="M221.2,222.2c0,0.3,0,0.7-0.2,1c-0.1,0.2-0.1,0.5-0.3,0.3c-0.1-0.2-0.1-0.3-0.1-0.5c0-0.3,0-0.7,0.2-1
		c0.1-0.1,0.1-0.5,0.3-0.3C221.2,221.8,221.2,222,221.2,222.2z"/>
	<path class="st0" d="M220,223.7c0,0.4-0.1,0.7-0.2,1c-0.1,0.2-0.1,0.5-0.3,0.3c-0.1-0.2-0.1-0.3-0.1-0.5c0-0.3,0.1-0.7,0.2-1
		c0.1-0.2,0.1-0.5,0.3-0.3C220.1,223.4,220,223.5,220,223.7z"/>
	<path class="st0" d="M218.7,225.2c0,0.4-0.1,0.7-0.2,1c-0.1,0.2-0.2,0.5-0.4,0.2c-0.1-0.2-0.1-0.3-0.1-0.5c0-0.4,0.1-0.7,0.2-1
		c0.1-0.2,0.2-0.5,0.4-0.3C218.8,224.9,218.7,225,218.7,225.2z"/>
	<path class="st0" d="M217.3,226.7c0,0.4-0.1,0.7-0.2,1c-0.3,0.5-0.5,0.2-0.5-0.3c0-0.4,0.1-0.7,0.2-1
		C217.1,225.9,217.3,226.2,217.3,226.7z"/>
	<path class="st0" d="M215.8,228.2c0,0.4-0.1,0.7-0.3,1c-0.3,0.5-0.5,0.2-0.5-0.3c0-0.4,0.1-0.7,0.3-1
		C215.6,227.4,215.8,227.7,215.8,228.2z"/>
	<path class="st0" d="M222.2,217.3c0,0.3,0,0.7-0.2,1c-0.1,0.1-0.1,0.5-0.3,0.3c-0.1-0.2-0.1-0.3-0.1-0.5c0-0.3,0-0.7,0.2-1
		c0.1-0.1,0.1-0.5,0.3-0.3C222.3,217,222.2,217.1,222.2,217.3z"/>
	<path class="st0" d="M221.2,218.8c0,0.3,0,0.7-0.2,1c-0.1,0.2-0.1,0.5-0.3,0.3c-0.1-0.2-0.1-0.3-0.1-0.5c0-0.3,0-0.7,0.2-1
		c0.1-0.1,0.1-0.5,0.3-0.3C221.2,218.5,221.2,218.7,221.2,218.8z"/>
	<path class="st0" d="M220,220.4c0,0.4-0.1,0.7-0.2,1c-0.1,0.2-0.1,0.5-0.3,0.3c-0.1-0.2-0.1-0.3-0.1-0.5c0-0.3,0.1-0.7,0.2-1
		c0.1-0.2,0.1-0.5,0.3-0.3C220.1,220,220,220.2,220,220.4z"/>
	<path class="st0" d="M218.7,221.9c0,0.4-0.1,0.7-0.2,1c-0.1,0.2-0.2,0.5-0.4,0.2c-0.1-0.2-0.1-0.3-0.1-0.5c0-0.4,0.1-0.7,0.2-1
		c0.1-0.2,0.2-0.5,0.4-0.3C218.8,221.5,218.7,221.7,218.7,221.9z"/>
	<path class="st0" d="M217.3,223.4c0,0.4-0.1,0.7-0.2,1c-0.3,0.5-0.5,0.2-0.5-0.3c0-0.4,0.1-0.7,0.2-1
		C217.1,222.6,217.3,222.9,217.3,223.4z"/>
	<path class="st0" d="M215.8,224.9c0,0.4-0.1,0.7-0.3,1c-0.3,0.5-0.5,0.2-0.5-0.3c0-0.4,0.1-0.7,0.3-1
		C215.6,224.1,215.8,224.4,215.8,224.9z"/>
	<path class="st0" d="M222.2,214c0,0.3,0,0.7-0.2,1c-0.1,0.1-0.1,0.5-0.3,0.3c-0.1-0.2-0.1-0.3-0.1-0.5c0-0.3,0-0.7,0.2-1
		c0.1-0.1,0.1-0.5,0.3-0.3C222.3,213.7,222.2,213.8,222.2,214z"/>
	<path class="st0" d="M221.2,215.5c0,0.3,0,0.7-0.2,1c-0.1,0.2-0.1,0.5-0.3,0.3c-0.1-0.2-0.1-0.3-0.1-0.5c0-0.3,0-0.7,0.2-1
		c0.1-0.1,0.1-0.5,0.3-0.3C221.2,215.2,221.2,215.4,221.2,215.5z"/>
	<path class="st0" d="M220,217.1c0,0.4-0.1,0.7-0.2,1c-0.1,0.2-0.1,0.5-0.3,0.3c-0.1-0.2-0.1-0.3-0.1-0.5c0-0.3,0.1-0.7,0.2-1
		c0.1-0.2,0.1-0.5,0.3-0.3C220.1,216.7,220,216.9,220,217.1z"/>
	<path class="st0" d="M218.7,218.6c0,0.4-0.1,0.7-0.2,1c-0.1,0.2-0.2,0.5-0.4,0.2c-0.1-0.2-0.1-0.3-0.1-0.5c0-0.4,0.1-0.7,0.2-1
		c0.1-0.2,0.2-0.5,0.4-0.3C218.8,218.2,218.7,218.4,218.7,218.6z"/>
	<path class="st0" d="M217.3,220.1c0,0.4-0.1,0.7-0.2,1c-0.3,0.5-0.5,0.2-0.5-0.3c0-0.4,0.1-0.7,0.2-1
		C217.1,219.3,217.3,219.6,217.3,220.1z"/>
	<path class="st0" d="M215.8,221.5c0,0.4-0.1,0.7-0.3,1c-0.3,0.5-0.5,0.2-0.5-0.3c0-0.4,0.1-0.7,0.3-1
		C215.6,220.8,215.8,221,215.8,221.5z"/>
	<path class="st0" d="M222.2,210.7c0,0.3,0,0.7-0.2,1c-0.1,0.1-0.1,0.5-0.3,0.3c-0.1-0.2-0.1-0.3-0.1-0.5c0-0.3,0-0.7,0.2-1
		c0.1-0.1,0.1-0.5,0.3-0.3C222.3,210.3,222.2,210.5,222.2,210.7z"/>
	<path class="st0" d="M221.2,212.2c0,0.3,0,0.7-0.2,1c-0.1,0.2-0.1,0.5-0.3,0.3c-0.1-0.2-0.1-0.3-0.1-0.5c0-0.3,0-0.7,0.2-1
		c0.1-0.1,0.1-0.5,0.3-0.3C221.2,211.9,221.2,212,221.2,212.2z"/>
	<path class="st0" d="M220,213.7c0,0.4-0.1,0.7-0.2,1c-0.1,0.2-0.1,0.5-0.3,0.3c-0.1-0.2-0.1-0.3-0.1-0.5c0-0.3,0.1-0.7,0.2-1
		c0.1-0.2,0.1-0.5,0.3-0.3C220.1,213.4,220,213.6,220,213.7z"/>
	<path class="st0" d="M218.7,215.2c0,0.4-0.1,0.7-0.2,1c-0.1,0.2-0.2,0.5-0.4,0.2c-0.1-0.2-0.1-0.3-0.1-0.5c0-0.4,0.1-0.7,0.2-1
		c0.1-0.2,0.2-0.5,0.4-0.3C218.8,214.9,218.7,215.1,218.7,215.2z"/>
	<path class="st0" d="M217.3,216.7c0,0.4-0.1,0.7-0.2,1c-0.3,0.5-0.5,0.2-0.5-0.3c0-0.4,0.1-0.7,0.2-1
		C217.1,216,217.3,216.2,217.3,216.7z"/>
	<path class="st0" d="M215.8,218.2c0,0.4-0.1,0.7-0.3,1c-0.3,0.5-0.5,0.2-0.5-0.3c0-0.4,0.1-0.7,0.3-1
		C215.6,217.5,215.8,217.7,215.8,218.2z"/>
	<path class="st0" d="M222.2,207.4c0,0.3,0,0.7-0.2,1c-0.1,0.1-0.1,0.5-0.3,0.3c-0.1-0.2-0.1-0.3-0.1-0.5c0-0.3,0-0.7,0.2-1
		c0.1-0.1,0.1-0.5,0.3-0.3C222.3,207,222.2,207.2,222.2,207.4z"/>
	<path class="st0" d="M221.2,208.9c0,0.3,0,0.7-0.2,1c-0.1,0.2-0.1,0.5-0.3,0.3c-0.1-0.2-0.1-0.3-0.1-0.5c0-0.3,0-0.7,0.2-1
		c0.1-0.1,0.1-0.5,0.3-0.3C221.2,208.6,221.2,208.7,221.2,208.9z"/>
	<path class="st0" d="M220,210.4c0,0.4-0.1,0.7-0.2,1c-0.1,0.2-0.1,0.5-0.3,0.3c-0.1-0.2-0.1-0.3-0.1-0.5c0-0.3,0.1-0.7,0.2-1
		c0.1-0.2,0.1-0.5,0.3-0.3C220.1,210.1,220,210.2,220,210.4z"/>
	<path class="st0" d="M218.7,211.9c0,0.4-0.1,0.7-0.2,1c-0.1,0.2-0.2,0.5-0.4,0.2c-0.1-0.2-0.1-0.3-0.1-0.5c0-0.4,0.1-0.7,0.2-1
		c0.1-0.2,0.2-0.5,0.4-0.3C218.8,211.6,218.7,211.7,218.7,211.9z"/>
	<path class="st0" d="M217.3,213.4c0,0.4-0.1,0.7-0.2,1c-0.3,0.5-0.5,0.2-0.5-0.3c0-0.4,0.1-0.7,0.2-1
		C217.1,212.7,217.3,212.9,217.3,213.4z"/>
	<path class="st0" d="M215.8,214.9c0,0.4-0.1,0.7-0.3,1c-0.3,0.5-0.5,0.2-0.5-0.3c0-0.4,0.1-0.7,0.3-1
		C215.6,214.2,215.8,214.4,215.8,214.9z"/>
	<path class="st0" d="M222.2,204c0,0.3,0,0.7-0.2,1c-0.1,0.1-0.1,0.5-0.3,0.3c-0.1-0.2-0.1-0.3-0.1-0.5c0-0.3,0-0.7,0.2-1
		c0.1-0.1,0.1-0.5,0.3-0.3C222.3,203.7,222.2,203.9,222.2,204z"/>
	<path class="st0" d="M221.2,205.6c0,0.3,0,0.7-0.2,1c-0.1,0.2-0.1,0.5-0.3,0.3c-0.1-0.2-0.1-0.3-0.1-0.5c0-0.3,0-0.7,0.2-1
		c0.1-0.1,0.1-0.5,0.3-0.3C221.2,205.2,221.2,205.4,221.2,205.6z"/>
	<path class="st0" d="M220,207.1c0,0.4-0.1,0.7-0.2,1c-0.1,0.2-0.1,0.5-0.3,0.3c-0.1-0.2-0.1-0.3-0.1-0.5c0-0.3,0.1-0.7,0.2-1
		c0.1-0.2,0.1-0.5,0.3-0.3C220.1,206.8,220,206.9,220,207.1z"/>
	<path class="st0" d="M218.7,208.6c0,0.4-0.1,0.7-0.2,1c-0.1,0.2-0.2,0.5-0.4,0.2c-0.1-0.2-0.1-0.3-0.1-0.5c0-0.4,0.1-0.7,0.2-1
		c0.1-0.2,0.2-0.5,0.4-0.3C218.8,208.3,218.7,208.4,218.7,208.6z"/>
	<path class="st0" d="M217.3,210.1c0,0.4-0.1,0.7-0.2,1c-0.3,0.5-0.5,0.2-0.5-0.3c0-0.4,0.1-0.7,0.2-1
		C217.1,209.4,217.3,209.6,217.3,210.1z"/>
	<path class="st0" d="M222.2,200.7c0,0.3,0,0.7-0.2,1c-0.1,0.1-0.1,0.5-0.3,0.3c-0.1-0.2-0.1-0.3-0.1-0.5c0-0.3,0-0.7,0.2-1
		c0.1-0.1,0.1-0.5,0.3-0.3C222.3,200.4,222.2,200.5,222.2,200.7z"/>
	<path class="st0" d="M221.2,202.3c0,0.3,0,0.7-0.2,1c-0.1,0.2-0.1,0.5-0.3,0.3c-0.1-0.2-0.1-0.3-0.1-0.5c0-0.3,0-0.7,0.2-1
		c0.1-0.1,0.1-0.5,0.3-0.3C221.2,201.9,221.2,202.1,221.2,202.3z"/>
	<path class="st0" d="M220,203.8c0,0.4-0.1,0.7-0.2,1c-0.1,0.2-0.1,0.5-0.3,0.3c-0.1-0.2-0.1-0.3-0.1-0.5c0-0.3,0.1-0.7,0.2-1
		c0.1-0.2,0.1-0.5,0.3-0.3C220.1,203.4,220,203.6,220,203.8z"/>
	<path class="st0" d="M214.1,219.7c0,0.4-0.1,0.7-0.3,1c-0.3,0.5-0.6,0.2-0.6-0.3c0-0.4,0.1-0.7,0.3-1
		C213.9,218.9,214.1,219.2,214.1,219.7z"/>
	<path class="st0" d="M212.4,224.5c0,0.4-0.1,0.7-0.3,1c-0.3,0.4-0.6,0.2-0.6-0.3c0-0.4,0.1-0.7,0.3-1
		C212.1,223.7,212.4,223.9,212.4,224.5z"/>
	<path class="st0" d="M214.1,223c0,0.4-0.1,0.7-0.3,1c-0.3,0.5-0.6,0.2-0.6-0.3c0-0.4,0.1-0.7,0.3-1
		C213.9,222.3,214.1,222.5,214.1,223z"/>
	<path class="st0" d="M212.4,227.8c0,0.4-0.1,0.7-0.3,1c-0.3,0.4-0.6,0.2-0.6-0.3c0-0.4,0.1-0.7,0.3-1
		C212.1,227,212.4,227.3,212.4,227.8z"/>
	<path class="st0" d="M214.1,226.3c0,0.4-0.1,0.7-0.3,1c-0.3,0.5-0.6,0.2-0.6-0.3c0-0.4,0.1-0.7,0.3-1
		C213.9,225.6,214.1,225.8,214.1,226.3z"/>
	<path class="st0" d="M210.4,232.5c0,0.4-0.1,0.7-0.4,1c-0.3,0.4-0.7,0.2-0.7-0.3c0-0.4,0.1-0.7,0.4-1
		C210.1,231.8,210.4,232,210.4,232.5z"/>
	<path class="st0" d="M212.4,231.1c0,0.4-0.1,0.7-0.3,1c-0.3,0.4-0.6,0.2-0.6-0.3c0-0.4,0.1-0.7,0.3-1
		C212.1,230.3,212.4,230.6,212.4,231.1z"/>
	<path class="st0" d="M214.1,229.6c0,0.4-0.1,0.7-0.3,1c-0.3,0.5-0.6,0.2-0.6-0.3c0-0.4,0.1-0.7,0.3-1
		C213.9,228.9,214.1,229.1,214.1,229.6z"/>
	<path class="st0" d="M210.4,235.9c0,0.4-0.1,0.7-0.4,1c-0.3,0.4-0.7,0.2-0.7-0.3c0-0.4,0.1-0.7,0.4-1
		C210.1,235.1,210.4,235.3,210.4,235.9z"/>
	<path class="st0" d="M212.4,234.4c0,0.4-0.1,0.7-0.3,1c-0.3,0.4-0.6,0.2-0.6-0.3c0-0.4,0.1-0.7,0.3-1
		C212.1,233.7,212.4,233.9,212.4,234.4z"/>
	<path class="st0" d="M214.1,233c0,0.4-0.1,0.7-0.3,1c-0.3,0.5-0.6,0.2-0.6-0.3c0-0.4,0.1-0.7,0.3-1
		C213.9,232.2,214.1,232.5,214.1,233z"/>
	<path class="st0" d="M210.4,239.2c0,0.4-0.1,0.7-0.4,1c-0.3,0.4-0.7,0.2-0.7-0.3c0-0.4,0.1-0.7,0.4-1
		C210.1,238.4,210.4,238.7,210.4,239.2z"/>
	<path class="st0" d="M212.4,237.7c0,0.4-0.1,0.7-0.3,1c-0.3,0.4-0.6,0.2-0.6-0.3c0-0.4,0.1-0.7,0.3-1
		C212.1,237,212.4,237.2,212.4,237.7z"/>
	<path class="st0" d="M214.1,236.3c0,0.4-0.1,0.7-0.3,1c-0.3,0.5-0.6,0.2-0.6-0.3c0-0.4,0.1-0.7,0.3-1
		C213.9,235.5,214.1,235.8,214.1,236.3z"/>
	<path class="st0" d="M214.1,256.2c0,0.4-0.1,0.7-0.3,1c-0.3,0.5-0.6,0.2-0.6-0.3c0-0.4,0.1-0.7,0.3-1
		C213.9,255.4,214.1,255.7,214.1,256.2z"/>
	<path class="st0" d="M214.1,252.9c0,0.4-0.1,0.7-0.3,1c-0.3,0.5-0.6,0.2-0.6-0.3c0-0.4,0.1-0.7,0.3-1
		C213.9,252.1,214.1,252.4,214.1,252.9z"/>
	<path class="st0" d="M214.1,249.6c0,0.4-0.1,0.7-0.3,1c-0.3,0.5-0.6,0.2-0.6-0.3c0-0.4,0.1-0.7,0.3-1
		C213.9,248.8,214.1,249,214.1,249.6z"/>
	<path class="st0" d="M212.4,251c0,0.4-0.1,0.7-0.3,1c-0.3,0.4-0.6,0.2-0.6-0.3c0-0.4,0.1-0.7,0.3-1
		C212.1,250.3,212.3,250.5,212.4,251"/>
	<path class="st0" d="M214.1,246.2c0,0.4-0.1,0.7-0.3,1c-0.3,0.5-0.6,0.2-0.6-0.3c0-0.4,0.1-0.7,0.3-1
		C213.9,245.5,214.1,245.7,214.1,246.2z"/>
	<path class="st0" d="M212.4,247.7c0,0.4-0.1,0.7-0.3,1c-0.3,0.4-0.6,0.2-0.6-0.3c0-0.4,0.1-0.7,0.3-1
		C212.1,246.9,212.4,247.2,212.4,247.7z"/>
	<path class="st0" d="M214.1,242.9c0,0.4-0.1,0.7-0.3,1c-0.3,0.5-0.6,0.2-0.6-0.3c0-0.4,0.1-0.7,0.3-1
		C213.9,242.2,214.1,242.4,214.1,242.9z"/>
	<path class="st0" d="M212.4,244.4c0,0.4-0.1,0.7-0.3,1c-0.3,0.4-0.6,0.2-0.6-0.3c0-0.4,0.1-0.7,0.3-1
		C212.1,243.6,212.4,243.9,212.4,244.4z"/>
	<path class="st0" d="M210.4,245.8c0,0.4-0.1,0.7-0.4,1c-0.3,0.4-0.7,0.2-0.7-0.3c0-0.4,0.1-0.7,0.4-1
		C210.1,245.1,210.4,245.3,210.4,245.8z"/>
	<path class="st0" d="M214.1,239.6c0,0.4-0.1,0.7-0.3,1c-0.3,0.5-0.6,0.2-0.6-0.3c0-0.4,0.1-0.7,0.3-1
		C213.9,238.8,214.1,239.1,214.1,239.6z"/>
	<path class="st0" d="M212.4,241.1c0,0.4-0.1,0.7-0.3,1c-0.3,0.4-0.6,0.2-0.6-0.3c0-0.4,0.1-0.7,0.3-1
		C212.1,240.3,212.4,240.5,212.4,241.1z"/>
	<path class="st0" d="M210.4,242.5c0,0.4-0.1,0.7-0.4,1c-0.3,0.4-0.7,0.2-0.7-0.3c0-0.4,0.1-0.7,0.4-1
		C210.1,241.7,210.4,242,210.4,242.5z"/>
	<path class="st0" d="M215.8,238.1c0,0.4-0.1,0.7-0.3,1c-0.3,0.5-0.5,0.2-0.5-0.3c0-0.4,0.1-0.7,0.3-1
		C215.6,237.4,215.8,237.6,215.8,238.1z"/>
	<path class="st0" d="M217.3,236.6c0,0.4-0.1,0.7-0.2,1c-0.3,0.5-0.5,0.2-0.5-0.3c0-0.4,0.1-0.7,0.2-1
		C217.1,235.9,217.3,236.1,217.3,236.6z"/>
	<path class="st0" d="M218.7,235.2c0,0.4-0.1,0.7-0.2,1c-0.1,0.2-0.2,0.5-0.4,0.2c-0.1-0.2-0.1-0.3-0.1-0.5c0-0.4,0.1-0.7,0.2-1
		c0.1-0.2,0.2-0.5,0.4-0.3C218.8,234.8,218.7,235,218.7,235.2z"/>
	<path class="st0" d="M220,233.6c0,0.4-0.1,0.7-0.2,1c-0.1,0.2-0.1,0.5-0.3,0.3c-0.1-0.2-0.1-0.3-0.1-0.5c0-0.3,0.1-0.7,0.2-1
		c0.1-0.2,0.1-0.5,0.3-0.3C220.1,233.3,220,233.5,220,233.6"/>
	<path class="st0" d="M221.2,232.1c0,0.3,0,0.7-0.2,1c-0.1,0.2-0.1,0.5-0.3,0.3c-0.1-0.2-0.1-0.3-0.1-0.5c0-0.3,0-0.7,0.2-1
		c0.1-0.1,0.1-0.5,0.3-0.3C221.2,231.8,221.2,231.9,221.2,232.1z"/>
	<path class="st0" d="M222.2,230.6c0,0.3,0,0.7-0.2,1c-0.1,0.1-0.1,0.5-0.3,0.3c-0.1-0.2-0.1-0.3-0.1-0.5c0-0.3,0-0.7,0.2-1
		c0.1-0.1,0.1-0.5,0.3-0.3C222.3,230.3,222.2,230.4,222.2,230.6z"/>
	<path class="st0" d="M215.8,241.4c0,0.4-0.1,0.7-0.3,1c-0.3,0.5-0.5,0.2-0.5-0.3c0-0.4,0.1-0.7,0.3-1
		C215.6,240.7,215.8,240.9,215.8,241.4z"/>
	<path class="st0" d="M217.3,240c0,0.4-0.1,0.7-0.2,1c-0.3,0.5-0.5,0.2-0.5-0.3c0-0.4,0.1-0.7,0.2-1
		C217.1,239.2,217.3,239.5,217.3,240z"/>
	<path class="st0" d="M218.7,238.5c0,0.4-0.1,0.7-0.2,1c-0.1,0.2-0.2,0.5-0.4,0.2c-0.1-0.2-0.1-0.3-0.1-0.5c0-0.4,0.1-0.7,0.2-1
		c0.1-0.2,0.2-0.5,0.4-0.3C218.8,238.1,218.7,238.3,218.7,238.5z"/>
	<path class="st0" d="M220,237c0,0.4-0.1,0.7-0.2,1c-0.1,0.2-0.1,0.5-0.3,0.3c-0.1-0.2-0.1-0.3-0.1-0.5c0-0.3,0.1-0.7,0.2-1
		c0.1-0.2,0.1-0.5,0.3-0.3C220.1,236.6,220,236.8,220,237"/>
	<path class="st0" d="M221.2,235.4c0,0.3,0,0.7-0.2,1c-0.1,0.2-0.1,0.5-0.3,0.3c-0.1-0.2-0.1-0.3-0.1-0.5c0-0.3,0-0.7,0.2-1
		c0.1-0.1,0.1-0.5,0.3-0.3C221.2,235.1,221.2,235.3,221.2,235.4z"/>
	<path class="st0" d="M222.2,233.9c0,0.3,0,0.7-0.2,1c-0.1,0.1-0.1,0.5-0.3,0.3c-0.1-0.2-0.1-0.3-0.1-0.5c0-0.3,0-0.7,0.2-1
		c0.1-0.1,0.1-0.5,0.3-0.3C222.3,233.6,222.2,233.7,222.2,233.9z"/>
	<path class="st0" d="M215.8,244.8c0,0.4-0.1,0.7-0.3,1c-0.3,0.5-0.5,0.2-0.5-0.3c0-0.4,0.1-0.7,0.3-1
		C215.6,244,215.8,244.3,215.8,244.8z"/>
	<path class="st0" d="M217.3,243.3c0,0.4-0.1,0.7-0.2,1c-0.3,0.5-0.5,0.2-0.5-0.3c0-0.4,0.1-0.7,0.2-1
		C217.1,242.5,217.3,242.8,217.3,243.3z"/>
	<path class="st0" d="M218.7,241.8c0,0.4-0.1,0.7-0.2,1c-0.1,0.2-0.2,0.5-0.4,0.2c-0.1-0.2-0.1-0.3-0.1-0.5c0-0.4,0.1-0.7,0.2-1
		c0.1-0.2,0.2-0.5,0.4-0.3C218.8,241.5,218.7,241.6,218.7,241.8z"/>
	<path class="st0" d="M220,240.3c0,0.4-0.1,0.7-0.2,1c-0.1,0.2-0.1,0.5-0.3,0.3c-0.1-0.2-0.1-0.3-0.1-0.5c0-0.3,0.1-0.7,0.2-1
		c0.1-0.2,0.1-0.5,0.3-0.3C220.1,239.9,220,240.1,220,240.3"/>
	<path class="st0" d="M221.2,238.8c0,0.3,0,0.7-0.2,1c-0.1,0.2-0.1,0.5-0.3,0.3c-0.1-0.2-0.1-0.3-0.1-0.5c0-0.3,0-0.7,0.2-1
		c0.1-0.1,0.1-0.5,0.3-0.3C221.2,238.4,221.2,238.6,221.2,238.8z"/>
	<path class="st0" d="M222.2,237.2c0,0.3,0,0.7-0.2,1c-0.1,0.1-0.1,0.5-0.3,0.3c-0.1-0.2-0.1-0.3-0.1-0.5c0-0.3,0-0.7,0.2-1
		c0.1-0.1,0.1-0.5,0.3-0.3C222.3,236.9,222.2,237,222.2,237.2z"/>
	<path class="st0" d="M215.8,248.1c0,0.4-0.1,0.7-0.3,1c-0.3,0.5-0.5,0.2-0.5-0.3c0-0.4,0.1-0.7,0.3-1
		C215.6,247.3,215.8,247.6,215.8,248.1z"/>
	<path class="st0" d="M217.3,246.6c0,0.4-0.1,0.7-0.2,1c-0.3,0.5-0.5,0.2-0.5-0.3c0-0.4,0.1-0.7,0.2-1
		C217.1,245.9,217.3,246.1,217.3,246.6z"/>
	<path class="st0" d="M218.7,245.1c0,0.4-0.1,0.7-0.2,1c-0.1,0.2-0.2,0.5-0.4,0.2c-0.1-0.2-0.1-0.3-0.1-0.5c0-0.4,0.1-0.7,0.2-1
		c0.1-0.2,0.2-0.5,0.4-0.3C218.8,244.8,218.7,244.9,218.7,245.1z"/>
	<path class="st0" d="M220,243.6c0,0.4-0.1,0.7-0.2,1c-0.1,0.2-0.1,0.5-0.3,0.3c-0.1-0.2-0.1-0.3-0.1-0.5c0-0.3,0.1-0.7,0.2-1
		c0.1-0.2,0.1-0.5,0.3-0.3C220.1,243.3,220,243.4,220,243.6"/>
	<path class="st0" d="M221.2,242.1c0,0.3,0,0.7-0.2,1c-0.1,0.2-0.1,0.5-0.3,0.3c-0.1-0.2-0.1-0.3-0.1-0.5c0-0.3,0-0.7,0.2-1
		c0.1-0.1,0.1-0.5,0.3-0.3C221.2,241.7,221.2,241.9,221.2,242.1z"/>
	<path class="st0" d="M222.2,240.5c0,0.3,0,0.7-0.2,1c-0.1,0.1-0.1,0.5-0.3,0.3c-0.1-0.2-0.1-0.3-0.1-0.5c0-0.3,0-0.7,0.2-1
		c0.1-0.1,0.1-0.5,0.3-0.3C222.3,240.2,222.2,240.4,222.2,240.5z"/>
	<path class="st0" d="M215.8,251.4c0,0.4-0.1,0.7-0.3,1c-0.3,0.5-0.5,0.2-0.5-0.3c0-0.4,0.1-0.7,0.3-1
		C215.6,250.7,215.8,250.9,215.8,251.4z"/>
	<path class="st0" d="M217.3,249.9c0,0.4-0.1,0.7-0.2,1c-0.3,0.5-0.5,0.2-0.5-0.3c0-0.4,0.1-0.7,0.2-1
		C217.1,249.2,217.3,249.4,217.3,249.9z"/>
	<path class="st0" d="M218.7,248.4c0,0.4-0.1,0.7-0.2,1c-0.1,0.2-0.2,0.5-0.4,0.2c-0.1-0.2-0.1-0.3-0.1-0.5c0-0.4,0.1-0.7,0.2-1
		c0.1-0.2,0.2-0.5,0.4-0.3C218.8,248.1,218.7,248.2,218.7,248.4z"/>
	<path class="st0" d="M220,246.9c0,0.4-0.1,0.7-0.2,1c-0.1,0.2-0.1,0.5-0.3,0.3c-0.1-0.2-0.1-0.3-0.1-0.5c0-0.3,0.1-0.7,0.2-1
		c0.1-0.2,0.1-0.5,0.3-0.3C220.1,246.6,220,246.7,220,246.9"/>
	<path class="st0" d="M221.2,245.4c0,0.3,0,0.7-0.2,1c-0.1,0.2-0.1,0.5-0.3,0.3c-0.1-0.2-0.1-0.3-0.1-0.5c0-0.3,0-0.7,0.2-1
		c0.1-0.1,0.1-0.5,0.3-0.3C221.2,245.1,221.2,245.2,221.2,245.4z"/>
	<path class="st0" d="M222.2,243.9c0,0.3,0,0.7-0.2,1c-0.1,0.1-0.1,0.5-0.3,0.3c-0.1-0.2-0.1-0.3-0.1-0.5c0-0.3,0-0.7,0.2-1
		c0.1-0.1,0.1-0.5,0.3-0.3C222.3,243.5,222.2,243.7,222.2,243.9z"/>
	<path class="st0" d="M215.8,254.7c0,0.4-0.1,0.7-0.3,1c-0.3,0.5-0.5,0.2-0.5-0.3c0-0.4,0.1-0.7,0.3-1
		C215.6,254,215.8,254.2,215.8,254.7z"/>
	<path class="st0" d="M217.3,253.2c0,0.4-0.1,0.7-0.2,1c-0.3,0.5-0.5,0.2-0.5-0.3c0-0.4,0.1-0.7,0.2-1
		C217.1,252.5,217.3,252.7,217.3,253.2z"/>
	<path class="st0" d="M218.7,251.7c0,0.4-0.1,0.7-0.2,1c-0.1,0.2-0.2,0.5-0.4,0.2c-0.1-0.2-0.1-0.3-0.1-0.5c0-0.4,0.1-0.7,0.2-1
		c0.1-0.2,0.2-0.5,0.4-0.3C218.8,251.4,218.7,251.6,218.7,251.7z"/>
	<path class="st0" d="M220,250.2c0,0.4-0.1,0.7-0.2,1c-0.1,0.2-0.1,0.5-0.3,0.3c-0.1-0.2-0.1-0.3-0.1-0.5c0-0.3,0.1-0.7,0.2-1
		c0.1-0.2,0.1-0.5,0.3-0.3C220.1,249.9,220,250.1,220,250.2"/>
	<path class="st0" d="M221.2,248.7c0,0.3,0,0.7-0.2,1c-0.1,0.2-0.1,0.5-0.3,0.3c-0.1-0.2-0.1-0.3-0.1-0.5c0-0.3,0-0.7,0.2-1
		c0.1-0.1,0.1-0.5,0.3-0.3C221.2,248.4,221.2,248.5,221.2,248.7z"/>
	<path class="st0" d="M222.2,247.2c0,0.3,0,0.7-0.2,1c-0.1,0.1-0.1,0.5-0.3,0.3c-0.1-0.2-0.1-0.3-0.1-0.5c0-0.3,0-0.7,0.2-1
		c0.1-0.1,0.1-0.5,0.3-0.3C222.3,246.8,222.2,247,222.2,247.2z"/>
	<path class="st0" d="M215.8,258c0,0.4-0.1,0.7-0.3,1c-0.3,0.5-0.5,0.2-0.5-0.3c0-0.4,0.1-0.7,0.3-1
		C215.6,257.3,215.8,257.5,215.8,258z"/>
	<path class="st0" d="M217.3,256.6c0,0.4-0.1,0.7-0.2,1c-0.3,0.5-0.5,0.2-0.5-0.3c0-0.4,0.1-0.7,0.2-1
		C217.1,255.8,217.3,256.1,217.3,256.6z"/>
	<path class="st0" d="M218.7,255.1c0,0.4-0.1,0.7-0.2,1c-0.1,0.2-0.2,0.5-0.4,0.2c-0.1-0.2-0.1-0.3-0.1-0.5c0-0.4,0.1-0.7,0.2-1
		c0.1-0.2,0.2-0.5,0.4-0.3C218.8,254.7,218.7,254.9,218.7,255.1z"/>
	<path class="st0" d="M220,253.6c0,0.4-0.1,0.7-0.2,1c-0.1,0.2-0.1,0.5-0.3,0.3c-0.1-0.2-0.1-0.3-0.1-0.5c0-0.3,0.1-0.7,0.2-1
		c0.1-0.2,0.1-0.5,0.3-0.3C220.1,253.2,220,253.4,220,253.6"/>
	<path class="st0" d="M221.2,252c0,0.3,0,0.7-0.2,1c-0.1,0.2-0.1,0.5-0.3,0.3c-0.1-0.2-0.1-0.3-0.1-0.5c0-0.3,0-0.7,0.2-1
		c0.1-0.1,0.1-0.5,0.3-0.3C221.2,251.7,221.2,251.9,221.2,252z"/>
	<path class="st0" d="M222.2,250.5c0,0.3,0,0.7-0.2,1c-0.1,0.1-0.1,0.5-0.3,0.3c-0.1-0.2-0.1-0.3-0.1-0.5c0-0.3,0-0.7,0.2-1
		c0.1-0.1,0.1-0.5,0.3-0.3C222.3,250.2,222.2,250.3,222.2,250.5z"/>
	<path class="st0" d="M218.7,258.4c0,0.4-0.1,0.7-0.2,1c-0.1,0.2-0.2,0.5-0.4,0.2c-0.1-0.2-0.1-0.3-0.1-0.5c0-0.4,0.1-0.7,0.2-1
		c0.1-0.2,0.2-0.5,0.4-0.3C218.8,258,218.7,258.2,218.7,258.4z"/>
	<path class="st0" d="M220,256.9c0,0.4-0.1,0.7-0.2,1c-0.1,0.2-0.1,0.5-0.3,0.3c-0.1-0.2-0.1-0.3-0.1-0.5c0-0.3,0.1-0.7,0.2-1
		c0.1-0.2,0.1-0.5,0.3-0.3C220.1,256.5,220,256.7,220,256.9"/>
	<path class="st0" d="M221.2,255.3c0,0.3,0,0.7-0.2,1c-0.1,0.2-0.1,0.5-0.3,0.3c-0.1-0.2-0.1-0.3-0.1-0.5c0-0.3,0-0.7,0.2-1
		c0.1-0.1,0.1-0.5,0.3-0.3C221.2,255,221.2,255.2,221.2,255.3z"/>
	<path class="st0" d="M222.2,253.8c0,0.3,0,0.7-0.2,1c-0.1,0.1-0.1,0.5-0.3,0.3c-0.1-0.2-0.1-0.3-0.1-0.5c0-0.3,0-0.7,0.2-1
		c0.1-0.1,0.1-0.5,0.3-0.3C222.3,253.5,222.2,253.6,222.2,253.8z"/>
	<path class="st0" d="M221.2,258.7c0,0.3,0,0.7-0.2,1c-0.1,0.2-0.1,0.5-0.3,0.3c-0.1-0.2-0.1-0.3-0.1-0.5c0-0.3,0-0.7,0.2-1
		c0.1-0.1,0.1-0.5,0.3-0.3C221.2,258.3,221.2,258.5,221.2,258.7z"/>
	<path class="st0" d="M222.2,257.1c0,0.3,0,0.7-0.2,1c-0.1,0.1-0.1,0.5-0.3,0.3c-0.1-0.2-0.1-0.3-0.1-0.5c0-0.3,0-0.7,0.2-1
		c0.1-0.1,0.1-0.5,0.3-0.3C222.3,256.8,222.2,257,222.2,257.1z"/>
	<path class="st0" d="M226.1,235.6c0,0.1,0,0.3,0,0.4"/>
	<path class="st0" d="M226.1,235.6C226.1,235.6,226.1,235.5,226.1,235.6"/>
	<path class="st0" d="M226.1,236c0,0.4,0,0.8,0,1.2"/>
	<path class="st0" d="M226.1,229c0,0.1,0,0.3,0,0.4"/>
	<path class="st0" d="M226.1,229c0-0.1,0-0.1,0-0.2"/>
	<path class="st0" d="M226.1,229.4c0,0.4,0,0.8,0,1.2"/>
	<path class="st0" d="M226.1,225.6c0,0.1,0,0.3,0,0.4"/>
	<path class="st0" d="M226.1,225.7c0-0.1,0-0.1,0-0.2"/>
	<path class="st0" d="M226.1,226c0,0.4,0,0.8,0,1.2"/>
	<path class="st0" d="M226.2,219.7c0,0,0-0.1,0-0.1"/>
	<path class="st0" d="M226.2,222.4c0,0.1,0-0.1,0-0.2c0-0.1,0-0.2,0-0.2c0-0.2,0-0.3,0-0.5c0-0.3,0-0.6,0-0.9"/>
	<path class="st0" d="M226.1,222.6c0,0.1,0,0.1,0,0.2"/>
	<path class="st0" d="M226.1,222.2c0,0.1,0,0.1,0,0.2"/>
	<path class="st0" d="M226.1,222.4c0-0.1-0.1-0.1,0-0.2"/>
	<path class="st0" d="M226.1,222.7c0,0.4,0,0.8,0,1.2"/>
	<path class="st0" d="M226.2,216.2c0-0.1,0-0.3,0-0.4"/>
	<path class="st0" d="M226.2,217.2c0,0,0-0.1,0-0.1"/>
	<path class="st0" d="M226.1,219c0,0.1,0,0.3,0,0.4"/>
	<path class="st0" d="M226.1,219.1c0-0.1,0-0.1,0-0.2"/>
	<path class="st0" d="M226.1,219.4c0,0.4,0,0.8,0,1.2"/>
	<path class="st0" d="M223.2,229c0,0.3,0,0.6-0.1,1c0,0.1-0.1,0.5-0.2,0.3c-0.1-0.2-0.1-0.3-0.1-0.5c0-0.3,0-0.6,0.1-1
		c0-0.1,0.1-0.5,0.2-0.3C223.2,228.7,223.2,228.9,223.2,229z"/>
	<path class="st0" d="M224,227.5c0,0.3,0,0.6-0.1,1c0,0.1-0.1,0.5-0.2,0.3c-0.1-0.2-0.1-0.3-0.1-0.5c0-0.3,0-0.6,0.1-1
		c0-0.1,0.1-0.5,0.2-0.3C224,227.1,224,227.3,224,227.5z"/>
	<path class="st0" d="M224.6,225.9c0,0.3,0,0.6-0.1,0.9c0,0.1-0.1,0.5-0.2,0.3c-0.1-0.2-0.1-0.3-0.1-0.5c0-0.3,0-0.6,0.1-0.9
		c0-0.1,0.1-0.6,0.2-0.3C224.7,225.6,224.6,225.7,224.6,225.9z"/>
	<path class="st0" d="M225.2,224.3c0,0.3,0,0.6-0.1,0.9c0,0.1-0.1,0.6-0.2,0.3c-0.1-0.2,0-0.3,0-0.5c0-0.3,0-0.6,0.1-0.9
		c0-0.1,0.1-0.6,0.2-0.3C225.2,224,225.2,224.1,225.2,224.3z"/>
	<path class="st0" d="M225.6,222.2c0.1,0.2,0.1,0.3,0.1,0.5"/>
	<path class="st0" d="M225.4,223.8c0-0.3,0-0.6,0-0.8c0-0.1,0-0.3,0-0.4c0-0.1,0-0.1,0-0.2c0-0.1,0-0.1,0.1-0.2"/>
	<path class="st0" d="M225.6,222.7c0,0.2,0,0.4,0,0.7c0,0.1,0,0.2,0,0.3c0,0.1,0.1,0.2-0.1,0.3"/>
	<path class="st0" d="M225.9,220.6c0,0.2,0,0.3,0,0.5"/>
	<path class="st0" d="M225.9,220.7c0-0.1,0-0.3,0.1-0.2"/>
	<path class="st0" d="M226,221c0,0.4,0.1,0.9-0.1,1.3"/>
	<path class="st0" d="M223.2,232.3c0,0.3,0,0.6-0.1,1c0,0.1-0.1,0.5-0.2,0.3c-0.1-0.2-0.1-0.3-0.1-0.5c0-0.3,0-0.6,0.1-1
		c0-0.1,0.1-0.5,0.2-0.3C223.2,232,223.2,232.2,223.2,232.3z"/>
	<path class="st0" d="M224,230.8c0,0.3,0,0.6-0.1,1c0,0.1-0.1,0.5-0.2,0.3c-0.1-0.2-0.1-0.3-0.1-0.5c0-0.3,0-0.6,0.1-1
		c0-0.1,0.1-0.5,0.2-0.3C224,230.5,224,230.6,224,230.8z"/>
	<path class="st0" d="M224.6,229.2c0,0.3,0,0.6-0.1,0.9c0,0.1-0.1,0.5-0.2,0.3c-0.1-0.2-0.1-0.3-0.1-0.5c0-0.3,0-0.6,0.1-0.9
		c0-0.1,0.1-0.6,0.2-0.3C224.7,228.9,224.6,229,224.6,229.2z"/>
	<path class="st0" d="M225.2,227.6c0,0.3,0,0.6-0.1,0.9c0,0.1-0.1,0.6-0.2,0.3c-0.1-0.2,0-0.3,0-0.5c0-0.3,0-0.6,0.1-0.9
		c0-0.1,0.1-0.6,0.2-0.3C225.2,227.3,225.2,227.4,225.2,227.6z"/>
	<path class="st0" d="M225.6,225.5c0.1,0.2,0.1,0.3,0.1,0.5"/>
	<path class="st0" d="M225.4,227.1c0-0.3,0-0.6,0-0.8c0-0.1,0-0.3,0-0.4c0-0.1,0-0.1,0-0.2c0-0.1,0-0.1,0.1-0.2"/>
	<path class="st0" d="M225.6,226c0,0.2,0,0.4,0,0.7c0,0.1,0,0.2,0,0.3c0,0.1,0.1,0.2-0.1,0.3"/>
	<path class="st0" d="M225.9,223.9c0,0.1,0,0.1,0,0.2"/>
	<path class="st0" d="M225.9,224c0-0.1,0-0.3,0.1-0.2"/>
	<path class="st0" d="M226,224.4c0,0.4,0.1,0.9-0.1,1.3"/>
	<path class="st0" d="M223.2,235.7c0,0.3,0,0.6-0.1,1c0,0.1-0.1,0.5-0.2,0.3c-0.1-0.2-0.1-0.3-0.1-0.5c0-0.3,0-0.6,0.1-1
		c0-0.1,0.1-0.5,0.2-0.3C223.2,235.3,223.2,235.5,223.2,235.7z"/>
	<path class="st0" d="M224,234.1c0,0.3,0,0.6-0.1,1c0,0.1-0.1,0.5-0.2,0.3c-0.1-0.2-0.1-0.3-0.1-0.5c0-0.3,0-0.6,0.1-1
		c0-0.1,0.1-0.5,0.2-0.3C224,233.8,224,233.9,224,234.1z"/>
	<path class="st0" d="M224.6,232.5c0,0.3,0,0.6-0.1,0.9c0,0.1-0.1,0.5-0.2,0.3c-0.1-0.2-0.1-0.3-0.1-0.5c0-0.3,0-0.6,0.1-0.9
		c0-0.1,0.1-0.6,0.2-0.3C224.7,232.2,224.6,232.4,224.6,232.5z"/>
	<path class="st0" d="M225.2,230.9c0,0.3,0,0.6-0.1,0.9c0,0.1-0.1,0.6-0.2,0.3c-0.1-0.2,0-0.3,0-0.5c0-0.3,0-0.6,0.1-0.9
		c0-0.1,0.1-0.6,0.2-0.3C225.2,230.6,225.2,230.8,225.2,230.9z"/>
	<path class="st0" d="M225.6,228.8c0.1,0.2,0.1,0.3,0.1,0.5"/>
	<path class="st0" d="M225.4,230.4c0-0.3,0-0.6,0-0.8c0-0.1,0-0.3,0-0.4c0-0.1,0-0.1,0-0.2c0-0.1,0-0.1,0.1-0.2"/>
	<path class="st0" d="M225.6,229.3c0,0.2,0,0.4,0,0.7c0,0.1,0,0.2,0,0.3c0,0.1,0.1,0.2-0.1,0.3"/>
	<path class="st0" d="M225.9,227.2c0,0.2,0,0.3,0,0.5"/>
	<path class="st0" d="M225.9,227.4c0-0.1,0-0.3,0.1-0.2"/>
	<path class="st0" d="M226,227.7c0,0.4,0.1,0.9-0.1,1.3"/>
	<path class="st0" d="M223.2,239c0,0.3,0,0.6-0.1,1c0,0.1-0.1,0.5-0.2,0.3c-0.1-0.2-0.1-0.3-0.1-0.5c0-0.3,0-0.6,0.1-1
		c0-0.1,0.1-0.5,0.2-0.3C223.2,238.7,223.2,238.8,223.2,239z"/>
	<path class="st0" d="M224,237.4c0,0.3,0,0.6-0.1,1c0,0.1-0.1,0.5-0.2,0.3c-0.1-0.2-0.1-0.3-0.1-0.5c0-0.3,0-0.6,0.1-1
		c0-0.1,0.1-0.5,0.2-0.3C224,237.1,224,237.3,224,237.4z"/>
	<path class="st0" d="M224.6,235.8c0,0.3,0,0.6-0.1,0.9c0,0.1-0.1,0.5-0.2,0.3c-0.1-0.2-0.1-0.3-0.1-0.5c0-0.3,0-0.6,0.1-0.9
		c0-0.1,0.1-0.6,0.2-0.3C224.7,235.5,224.6,235.7,224.6,235.8z"/>
	<path class="st0" d="M225.2,234.2c0,0.3,0,0.6-0.1,0.9c0,0.1-0.1,0.6-0.2,0.3c-0.1-0.2,0-0.3,0-0.5c0-0.3,0-0.6,0.1-0.9
		c0-0.1,0.1-0.6,0.2-0.3C225.2,233.9,225.2,234.1,225.2,234.2z"/>
	<path class="st0" d="M225.6,232.1c0.1,0.2,0.1,0.3,0.1,0.5"/>
	<path class="st0" d="M225.4,233.7c0-0.3,0-0.6,0-0.8c0-0.1,0-0.3,0-0.4c0-0.1,0-0.1,0-0.2c0-0.1,0-0.1,0.1-0.2"/>
	<path class="st0" d="M225.6,232.6c0,0.2,0,0.4,0,0.7c0,0.1,0,0.2,0,0.3c0,0.1,0.1,0.2-0.1,0.3"/>
	<path class="st0" d="M225.9,230.5c0,0.2,0,0.3,0,0.5"/>
	<path class="st0" d="M225.9,230.7c0-0.1,0-0.3,0.1-0.2"/>
	<path class="st0" d="M226,231c0,0.4,0.1,0.9-0.1,1.3"/>
	<path class="st0" d="M223.2,242.3c0,0.3,0,0.6-0.1,1c0,0.1-0.1,0.5-0.2,0.3c-0.1-0.2-0.1-0.3-0.1-0.5c0-0.3,0-0.6,0.1-1
		c0-0.1,0.1-0.5,0.2-0.3C223.2,242,223.2,242.1,223.2,242.3z"/>
	<path class="st0" d="M224,240.7c0,0.3,0,0.6-0.1,1c0,0.1-0.1,0.5-0.2,0.3c-0.1-0.2-0.1-0.3-0.1-0.5c0-0.3,0-0.6,0.1-1
		c0-0.1,0.1-0.5,0.2-0.3C224,240.4,224,240.6,224,240.7z"/>
	<path class="st0" d="M224.6,239.1c0,0.3,0,0.6-0.1,0.9c0,0.1-0.1,0.5-0.2,0.3c-0.1-0.2-0.1-0.3-0.1-0.5c0-0.3,0-0.6,0.1-0.9
		c0-0.1,0.1-0.6,0.2-0.3C224.7,238.8,224.6,239,224.6,239.1z"/>
	<path class="st0" d="M225.2,237.6c0,0.3,0,0.6-0.1,0.9c0,0.1-0.1,0.6-0.2,0.3c-0.1-0.2,0-0.3,0-0.5c0-0.3,0-0.6,0.1-0.9
		c0-0.1,0.1-0.6,0.2-0.3C225.2,237.2,225.2,237.4,225.2,237.6z"/>
	<path class="st0" d="M225.6,235.4c0.1,0.2,0.1,0.3,0.1,0.5"/>
	<path class="st0" d="M225.4,237.1c0-0.3,0-0.6,0-0.8c0-0.1,0-0.3,0-0.4c0-0.1,0-0.1,0-0.2c0-0.1,0-0.1,0.1-0.2"/>
	<path class="st0" d="M225.6,235.9c0,0.2,0,0.4,0,0.7c0,0.1,0,0.2,0,0.3c0,0.1,0.1,0.2-0.1,0.3"/>
	<path class="st0" d="M225.9,233.8c0,0.2,0,0.3,0,0.5"/>
	<path class="st0" d="M225.9,234c0-0.1,0-0.3,0.1-0.2"/>
	<path class="st0" d="M226,234.3c0,0.4,0.1,0.9-0.1,1.3"/>
	<path class="st0" d="M223.2,245.6c0,0.3,0,0.6-0.1,1c0,0.1-0.1,0.5-0.2,0.3c-0.1-0.2-0.1-0.3-0.1-0.5c0-0.3,0-0.6,0.1-1
		c0-0.1,0.1-0.5,0.2-0.3C223.2,245.3,223.2,245.5,223.2,245.6z"/>
	<path class="st0" d="M224,244c0,0.3,0,0.6-0.1,1c0,0.1-0.1,0.5-0.2,0.3c-0.1-0.2-0.1-0.3-0.1-0.5c0-0.3,0-0.6,0.1-1
		c0-0.1,0.1-0.5,0.2-0.3C224,243.7,224,243.9,224,244z"/>
	<path class="st0" d="M224.6,242.5c0,0.3,0,0.6-0.1,0.9c0,0.1-0.1,0.5-0.2,0.3c-0.1-0.2-0.1-0.3-0.1-0.5c0-0.3,0-0.6,0.1-0.9
		c0-0.1,0.1-0.6,0.2-0.3C224.7,242.2,224.6,242.3,224.6,242.5z"/>
	<path class="st0" d="M225.2,240.9c0,0.3,0,0.6-0.1,0.9c0,0.1-0.1,0.6-0.2,0.3c-0.1-0.2,0-0.3,0-0.5c0-0.3,0-0.6,0.1-0.9
		c0-0.1,0.1-0.6,0.2-0.3C225.2,240.6,225.2,240.7,225.2,240.9z"/>
	<path class="st0" d="M225.6,238.7c0.1,0.2,0.1,0.3,0.1,0.5"/>
	<path class="st0" d="M225.4,240.4c0-0.3,0-0.6,0-0.8c0-0.1,0-0.3,0-0.4c0-0.1,0-0.1,0-0.2c0-0.1,0-0.1,0.1-0.2"/>
	<path class="st0" d="M225.6,239.3c0,0.2,0,0.4,0,0.7c0,0.1,0,0.2,0,0.3c0,0.1,0.1,0.2-0.1,0.3"/>
	<path class="st0" d="M225.9,237.1c0,0.2,0,0.3,0,0.5"/>
	<path class="st0" d="M225.8,239c-0.1-0.3,0-0.6,0-0.9c0-0.2,0-0.3,0-0.5c0-0.1,0-0.2,0-0.2c0-0.1,0-0.3,0.1-0.2"/>
	<path class="st0" d="M226,237.6c0,0.4,0.1,0.9-0.1,1.3"/>
	<path class="st0" d="M223.2,248.9c0,0.3,0,0.6-0.1,1c0,0.1-0.1,0.5-0.2,0.3c-0.1-0.2-0.1-0.3-0.1-0.5c0-0.3,0-0.6,0.1-1
		c0-0.1,0.1-0.5,0.2-0.3C223.2,248.6,223.2,248.8,223.2,248.9z"/>
	<path class="st0" d="M224,247.4c0,0.3,0,0.6-0.1,1c0,0.1-0.1,0.5-0.2,0.3c-0.1-0.2-0.1-0.3-0.1-0.5c0-0.3,0-0.6,0.1-1
		c0-0.1,0.1-0.5,0.2-0.3C224,247,224,247.2,224,247.4z"/>
	<path class="st0" d="M224.6,245.8c0,0.3,0,0.6-0.1,0.9c0,0.1-0.1,0.5-0.2,0.3c-0.1-0.2-0.1-0.3-0.1-0.5c0-0.3,0-0.6,0.1-0.9
		c0-0.1,0.1-0.6,0.2-0.3C224.7,245.5,224.6,245.6,224.6,245.8z"/>
	<path class="st0" d="M225.2,244.2c0,0.3,0,0.6-0.1,0.9c0,0.1-0.1,0.6-0.2,0.3c-0.1-0.2,0-0.3,0-0.5c0-0.3,0-0.6,0.1-0.9
		c0-0.1,0.1-0.6,0.2-0.3C225.2,243.9,225.2,244,225.2,244.2z"/>
	<path class="st0" d="M225.6,242.1c0.1,0.2,0.1,0.3,0.1,0.5"/>
	<path class="st0" d="M225.6,242.6c0,0.4-0.2,1.8-0.2,1.1c0-0.3,0-0.5,0-0.8c0-0.1,0-0.3,0-0.4c0-0.1,0-0.2,0.1-0.3c0,0,0-0.1,0-0.1
		"/>
	<path class="st0" d="M225.9,240.5c0,0.2,0,0.3,0,0.5"/>
	<path class="st0" d="M225.9,240.5C225.9,240.5,225.9,240.4,225.9,240.5"/>
	<path class="st0" d="M226,241c0,0.4,0.1,0.9-0.1,1.3"/>
	<path class="st0" d="M223.2,252.3c0,0.3,0,0.6-0.1,1c0,0.1-0.1,0.5-0.2,0.3c-0.1-0.2-0.1-0.3-0.1-0.5c0-0.3,0-0.6,0.1-1
		c0-0.1,0.1-0.5,0.2-0.3C223.2,251.9,223.2,252.1,223.2,252.3z"/>
	<path class="st0" d="M224,250.7c0,0.3,0,0.6-0.1,1c0,0.1-0.1,0.5-0.2,0.3c-0.1-0.2-0.1-0.3-0.1-0.5c0-0.3,0-0.6,0.1-1
		c0-0.1,0.1-0.5,0.2-0.3C224,250.4,224,250.5,224,250.7z"/>
	<path class="st0" d="M224.6,249.1c0,0.3,0,0.6-0.1,0.9c0,0.1-0.1,0.5-0.2,0.3c-0.1-0.2-0.1-0.3-0.1-0.5c0-0.3,0-0.6,0.1-0.9
		c0-0.1,0.1-0.6,0.2-0.3C224.7,248.8,224.6,248.9,224.6,249.1z"/>
	<path class="st0" d="M225.2,247.5c0,0.3,0,0.6-0.1,0.9c0,0.1-0.1,0.6-0.2,0.3c-0.1-0.2,0-0.3,0-0.5c0-0.3,0-0.6,0.1-0.9
		c0-0.1,0.1-0.6,0.2-0.3C225.2,247.2,225.2,247.4,225.2,247.5z"/>
	<path class="st0" d="M223.2,255.6c0,0.3,0,0.6-0.1,1c0,0.1-0.1,0.5-0.2,0.3c-0.1-0.2-0.1-0.3-0.1-0.5c0-0.3,0-0.6,0.1-1
		c0-0.1,0.1-0.5,0.2-0.3C223.2,255.2,223.2,255.4,223.2,255.6z"/>
	<path class="st0" d="M224,254c0,0.3,0,0.6-0.1,1c0,0.1-0.1,0.5-0.2,0.3c-0.1-0.2-0.1-0.3-0.1-0.5c0-0.3,0-0.6,0.1-1
		c0-0.1,0.1-0.5,0.2-0.3C224,253.7,224,253.8,224,254z"/>
	<path class="st0" d="M220,260.2c0,0.4-0.1,0.7-0.2,1c-0.1,0.2-0.1,0.5-0.3,0.3c-0.1-0.2-0.1-0.3-0.1-0.5c0-0.3,0.1-0.7,0.2-1
		c0.1-0.2,0.1-0.5,0.3-0.3C220.1,259.9,220,260,220,260.2z"/>
	<path class="st0" d="M217.3,259.9c0,0.4-0.1,0.7-0.2,1c-0.3,0.5-0.5,0.2-0.5-0.3c0-0.4,0.1-0.7,0.2-1
		C217.1,259.1,217.3,259.4,217.3,259.9z"/>
	<path class="st0" d="M212.4,254.3c0,0.4-0.1,0.7-0.3,1c-0.3,0.4-0.6,0.2-0.6-0.3c0-0.4,0.1-0.7,0.3-1
		C212.1,253.6,212.4,253.8,212.4,254.3z"/>
	<path class="st0" d="M210.4,249.1c0,0.4-0.1,0.7-0.4,1c-0.3,0.4-0.7,0.2-0.7-0.3c0-0.4,0.1-0.7,0.4-1
		C210.1,248.4,210.4,248.6,210.4,249.1z"/>
	<path class="st0" d="M226.1,232.3c0,0.1,0,0.3,0,0.4"/>
	<path class="st0" d="M226.1,232.4c0-0.1,0-0.1,0-0.2"/>
	<path class="st0" d="M226.1,232.7c0,0.4,0,0.8,0,1.2"/>
	<path class="st0" d="M226.2,222.8c0-0.1,0-0.3,0-0.4"/>
	<path class="st0" d="M226.2,223.9c0,0,0-0.1,0-0.1"/>
	<path class="st0" d="M225.6,245.4c0.1,0.2,0.1,0.3,0.1,0.5"/>
	<path class="st0" d="M225.6,245.9c0,0.4-0.2,1.8-0.2,1.1c0-0.3,0-0.5,0-0.8c0-0.1,0-0.3,0-0.4c0-0.1,0-0.2,0.1-0.3c0,0,0-0.1,0-0.1
		"/>
	<path class="st0" d="M224.6,252.4c0,0.3,0,0.6-0.1,0.9c0,0.1-0.1,0.5-0.2,0.3c-0.1-0.2-0.1-0.3-0.1-0.5c0-0.3,0-0.6,0.1-0.9
		c0-0.1,0.1-0.6,0.2-0.3C224.7,252.1,224.6,252.3,224.6,252.4z"/>
	<path class="st0" d="M226.2,206.2c0-0.1,0-0.3,0-0.4"/>
	<path class="st0" d="M226.2,207.3c0,0,0-0.1,0-0.1"/>
	<path class="st0" d="M162.7,168.2c-0.4,0-0.7-0.1-1,0.2c-0.4,0.3,0.2,0.5,0.6,0.6c0.4,0,0.7,0.1,1-0.2
		C163.7,168.5,163.1,168.3,162.7,168.2z"/>
	<line class="st0" x1="48.3" y1="137.7" x2="48.3" y2="126.7"/>
	<line class="st0" x1="187.6" y1="88.1" x2="187.6" y2="95.4"/>
	<path class="st0" d="M147.9,176.5c0,0-0.1,0-0.1,0"/>
	<path class="st0" d="M147.6,176.6c-0.6,0.2-1.2,0.2-1.9,0.1"/>
	<line class="st0" x1="145.7" y1="176.7" x2="47" y2="165.2"/>
	<path class="st0" d="M46.9,165.2c-0.7-0.1-1.4-0.3-1.9-0.8"/>
	<path class="st0" d="M44.5,164c-0.4-0.5-0.6-1-0.7-1.6"/>
	<path class="st0" d="M149.6,175.2c-0.4,0.7-0.9,1-1.6,1.3"/>
	<path class="st0" d="M190,109c0,0.3-0.1,0.6-0.2,1"/>
	<line class="st0" x1="189.6" y1="110.3" x2="149.8" y2="174.9"/>
	<line class="st0" x1="146" y1="153.1" x2="54.9" y2="142.5"/>
	<line class="st0" x1="146" y1="142.1" x2="54.9" y2="131.4"/>
	<path class="st0" d="M147.6,152.7c-0.3,0.4-1.3,0.5-1.7,0.4"/>
	<path class="st0" d="M147.6,141.7c-0.3,0.4-1.3,0.5-1.7,0.4"/>
	<line class="st0" x1="187.6" y1="87.8" x2="147.6" y2="152.7"/>
	<line class="st0" x1="187.6" y1="76.8" x2="147.6" y2="141.7"/>
	<path class="st0" d="M187.6,87.7c0,0.1,0,0.1,0,0.2"/>
	<path class="st0" d="M186.6,76.1c0.2,0,0.5,0.1,0.7,0.2c0.2,0.1,0.5,0.2,0.3,0.5"/>
	<line class="st0" x1="87.9" y1="64.5" x2="186.6" y2="76.1"/>
	<path class="st0" d="M86.2,65c0.3-0.4,1.3-0.5,1.7-0.4"/>
	<line class="st0" x1="48.3" y1="126.5" x2="86.2" y2="65"/>
	<path class="st0" d="M48.5,138c-0.1-0.1-0.2-0.2-0.2-0.3"/>
	<path class="st0" d="M48.5,126.9c-0.2-0.1-0.3-0.2-0.1-0.4"/>
	<line class="st0" x1="54.1" y1="142.2" x2="48.5" y2="138"/>
	<line class="st0" x1="54.1" y1="131.2" x2="48.5" y2="126.9"/>
	<path class="st0" d="M54.9,142.5c-0.3,0-0.6-0.1-0.8-0.3"/>
	<line class="st0" x1="146" y1="153.5" x2="54.9" y2="142.8"/>
	<path class="st0" d="M147.6,153c-0.3,0.4-1.3,0.5-1.7,0.4"/>
	<line class="st0" x1="187.6" y1="88.2" x2="147.6" y2="153"/>
	<line class="st0" x1="54.1" y1="142.6" x2="48.5" y2="138.3"/>
	<line class="st0" x1="147.8" y1="176.6" x2="147.6" y2="176.6"/>
	<line class="st0" x1="147.9" y1="176.5" x2="148" y2="176.5"/>
	<line class="st0" x1="149.6" y1="175.2" x2="149.8" y2="174.9"/>
	<line class="st0" x1="190" y1="109" x2="190" y2="108.9"/>
	<path class="st0" d="M189.6,110.3c0,0,0.1-0.1,0.1-0.1"/>
	<line class="st0" x1="189.6" y1="110.2" x2="189.7" y2="110"/>
	<path class="st0" d="M48.3,140.7c-1.4,2.2-2.7,4.5-4.1,6.7c-0.5,0.8-0.2,1.2,0.5,1.6c0.9,0.5,1.9,0.6,2.9,0.7
		c1.3,0.1,2.6,0.3,3.8,0.4c2.6,0.3,5.1,0.6,7.7,0.9c8.1,0.9,16.2,1.9,24.3,2.8c16.2,1.9,32.4,3.8,48.6,5.7c2.3,0.3,4.6,0.5,7,0.8
		c1.2,0.1,2.3,0.3,3.5,0.4c1.4,0.2,2.8,0.4,4.2,0.4c0.9,0,2.5-0.2,3.2-1.1c0.2-0.3,0.3-0.5,0.5-0.8c0.3-0.5,0.6-1,0.9-1.5
		c0.6-1,1.2-2,1.9-3c4.3-6.9,8.6-13.9,12.8-20.8c4.3-6.9,8.6-13.9,12.8-20.8c1.9-3.1,3.9-6.3,5.8-9.4c1-1.6,1.9-3.1,2.9-4.7
		c0.5-0.8,1-1.6,1.5-2.4c0.2-0.4,0.5-0.8,0.7-1.2c0.9-1.4-0.9-1.9-2.1-2.1"/>
	<path class="st0" d="M187.6,94.2c0.3,0.2,0.5,0.3,0.3,0.7"/>
	<path class="st0" d="M187.6,87.9c0.1,0.1,0.1,0.2,0,0.3"/>
	<line class="st0" x1="187.6" y1="87.8" x2="187.6" y2="87.8"/>
	<line class="st0" x1="48.3" y1="148.9" x2="48.3" y2="138.1"/>
	<path class="st0" d="M48.5,138.3c-0.2-0.1-0.3-0.3-0.1-0.5"/>
	<line class="st0" x1="43.9" y1="162.4" x2="43.9" y2="162.2"/>
	<line class="st0" x1="46.9" y1="165.2" x2="47" y2="165.2"/>
	<line class="st0" x1="44.5" y1="164" x2="44.9" y2="164.4"/>
	<line class="st0" x1="190" y1="94.7" x2="190" y2="108.9"/>
	<line class="st0" x1="43.9" y1="162.2" x2="43.9" y2="148.1"/>
	<path class="st0" d="M15.5,144c7.6-12.3,24.6-20.1,36.9-24.2"/>
	<path class="st0" d="M183.3,120.4c6.9,2.4,13.4,5.3,19.7,9.2c5.1,3.1,9.5,6.6,13.3,11.3c9.8,12.3,6.3,24.8-4.6,34.7
		c-18,16.4-51.1,23-73.2,25c-25.2,2.3-53.4,0.6-77.9-6.2c-12.1-3.3-25.3-8.5-35.4-16.4c-10.8-8.5-17.9-20.6-9.6-34"/>
	<path class="st0" d="M103,171.7c2.6,0.4,5.2,0.7,7.8,0.9"/>
	<path class="st0" d="M168.2,165.5c-0.4,0-0.7-0.1-1,0.2c-0.4,0.3,0.2,0.5,0.6,0.6c0.4,0,0.7,0.1,1-0.2
		C169.1,165.8,168.5,165.6,168.2,165.5z"/>
	<path class="st0" d="M171.3,154.3c-0.4,0-0.7-0.1-1,0.2c-0.4,0.3,0.2,0.5,0.6,0.6c0.4,0,0.7,0.1,1-0.2
		C172.3,154.5,171.6,154.3,171.3,154.3z"/>
	<path class="st0" d="M170.3,155.8c-0.4,0-0.7-0.1-1,0.2c-0.4,0.3,0.2,0.5,0.6,0.6c0.4,0,0.7,0.1,1-0.2
		C171.3,156.1,170.7,155.9,170.3,155.8z"/>
	<path class="st0" d="M169.4,157.4c-0.4,0-0.7-0.1-1,0.2c-0.4,0.3,0.2,0.5,0.6,0.6c0.4,0,0.7,0.1,1-0.2
		C170.4,157.6,169.7,157.4,169.4,157.4z"/>
	<path class="st0" d="M168.4,158.9c-0.4,0-0.7-0.1-1,0.2c-0.4,0.3,0.2,0.5,0.6,0.6c0.4,0,0.7,0.1,1-0.2
		C169.4,159.2,168.8,159,168.4,158.9z"/>
	<path class="st0" d="M167.5,160.5c-0.4,0-0.7-0.1-1,0.2c-0.4,0.3,0.2,0.5,0.6,0.6c0.4,0,0.7,0.1,1-0.2
		C168.4,160.7,167.8,160.5,167.5,160.5z"/>
	<path class="st0" d="M172.9,157.8c-0.4,0-0.7-0.1-1,0.2c-0.4,0.3,0.2,0.5,0.6,0.6c0.4,0,0.7,0.1,1-0.2
		C173.9,158,173.3,157.8,172.9,157.8z"/>
	<path class="st0" d="M172,159.3c-0.4,0-0.7-0.1-1,0.2c-0.4,0.3,0.2,0.5,0.6,0.6c0.4,0,0.7,0.1,1-0.2
		C173,159.6,172.3,159.4,172,159.3z"/>
	<path class="st0" d="M171,160.9c-0.4,0-0.7-0.1-1,0.2c-0.4,0.3,0.2,0.5,0.6,0.6c0.4,0,0.7,0.1,1-0.2
		C172,161.1,171.4,160.9,171,160.9z"/>
	<path class="st0" d="M166.5,162c-0.4,0-0.7-0.1-1,0.2c-0.4,0.3,0.2,0.5,0.6,0.6c0.4,0,0.7,0.1,1-0.2
		C167.5,162.3,166.9,162.1,166.5,162z"/>
	<path class="st0" d="M165.5,163.6c-0.4,0-0.7-0.1-1,0.2c-0.4,0.3,0.2,0.5,0.6,0.6c0.4,0,0.7,0.1,1-0.2
		C166.5,163.8,165.9,163.6,165.5,163.6z"/>
	<path class="st0" d="M164.6,165.1c-0.4,0-0.7-0.1-1,0.2c-0.4,0.3,0.2,0.5,0.6,0.6c0.4,0,0.7,0.1,1-0.2
		C165.6,165.4,165,165.2,164.6,165.1z"/>
	<path class="st0" d="M163.6,166.7c-0.4,0-0.7-0.1-1,0.2c-0.4,0.3,0.2,0.5,0.6,0.6c0.4,0,0.7,0.1,1-0.2
		C164.6,166.9,164,166.7,163.6,166.7z"/>
	<line class="st0" x1="187.6" y1="76.7" x2="187.6" y2="87.7"/>
	<path class="st0" d="M170.1,162.4c-0.4,0-0.7-0.1-1,0.2c-0.4,0.3,0.2,0.5,0.6,0.6c0.4,0,0.7,0.1,1-0.2
		C171.1,162.7,170.4,162.5,170.1,162.4z"/>
	<path class="st0" d="M169.1,164c-0.4,0-0.7-0.1-1,0.2c-0.4,0.3,0.2,0.5,0.6,0.6c0.4,0,0.7,0.1,1-0.2
		C170.1,164.2,169.5,164,169.1,164z"/>
	<path class="st0" d="M159.1,167.8c-0.4,0-0.7-0.1-1,0.2c-0.4,0.3,0.2,0.5,0.6,0.6c0.4,0,0.7,0.1,1-0.2
		C160.1,168.1,159.5,167.8,159.1,167.8z"/>
	<path class="st0" d="M160.1,166.3c-0.4,0-0.7-0.1-1,0.2c-0.4,0.3,0.2,0.5,0.6,0.6c0.4,0,0.7,0.1,1-0.2
		C161.1,166.5,160.5,166.3,160.1,166.3z"/>
	<path class="st0" d="M161,164.7c-0.4,0-0.7-0.1-1,0.2c-0.4,0.3,0.2,0.5,0.6,0.6c0.4,0,0.7,0.1,1-0.2C162,165,161.4,164.8,161,164.7
		z"/>
	<path class="st0" d="M162,163.2c-0.4,0-0.7-0.1-1,0.2c-0.4,0.3,0.2,0.5,0.6,0.6c0.4,0,0.7,0.1,1-0.2
		C163,163.4,162.4,163.2,162,163.2z"/>
	<path class="st0" d="M162.9,161.6c-0.4,0-0.7-0.1-1,0.2c-0.4,0.3,0.2,0.5,0.6,0.6c0.4,0,0.7,0.1,1-0.2
		C163.9,161.9,163.3,161.7,162.9,161.6z"/>
	<path class="st0" d="M155.6,167.4c-0.4,0-0.7-0.1-1,0.2c-0.4,0.3,0.2,0.5,0.6,0.6c0.4,0,0.7,0.1,1-0.2
		C156.6,167.6,155.9,167.4,155.6,167.4z"/>
	<path class="st0" d="M156.5,165.8c-0.4,0-0.7-0.1-1,0.2c-0.4,0.3,0.2,0.5,0.6,0.6c0.4,0,0.7,0.1,1-0.2
		C157.5,166.1,156.9,165.9,156.5,165.8z"/>
	<path class="st0" d="M157.5,164.3c-0.4,0-0.7-0.1-1,0.2c-0.4,0.3,0.2,0.5,0.6,0.6c0.4,0,0.7,0.1,1-0.2
		C158.5,164.5,157.9,164.3,157.5,164.3z"/>
	<path class="st0" d="M158.4,162.7c-0.4,0-0.7-0.1-1,0.2c-0.4,0.3,0.2,0.5,0.6,0.6c0.4,0,0.7,0.1,1-0.2
		C159.4,163,158.8,162.8,158.4,162.7z"/>
	<path class="st0" d="M159.4,161.2c-0.4,0-0.7-0.1-1,0.2c-0.4,0.3,0.2,0.5,0.6,0.6c0.4,0,0.7,0.1,1-0.2
		C160.4,161.4,159.8,161.2,159.4,161.2z"/>
	<path class="st0" d="M163.9,160.1c-0.4,0-0.7-0.1-1,0.2c-0.4,0.3,0.2,0.5,0.6,0.6c0.4,0,0.7,0.1,1-0.2
		C164.9,160.3,164.3,160.1,163.9,160.1z"/>
	<path class="st0" d="M164.8,158.5c-0.4,0-0.7-0.1-1,0.2c-0.4,0.3,0.2,0.5,0.6,0.6c0.4,0,0.7,0.1,1-0.2
		C165.8,158.8,165.2,158.6,164.8,158.5z"/>
	<path class="st0" d="M165.8,157c-0.4,0-0.7-0.1-1,0.2c-0.4,0.3,0.2,0.5,0.6,0.6c0.4,0,0.7,0.1,1-0.2
		C166.8,157.2,166.2,157,165.8,157z"/>
	<path class="st0" d="M166.8,155.4c-0.4,0-0.7-0.1-1,0.2c-0.4,0.3,0.2,0.5,0.6,0.6c0.4,0,0.7,0.1,1-0.2
		C167.7,155.7,167.1,155.5,166.8,155.4z"/>
	<path class="st0" d="M167.7,153.9c-0.4,0-0.7-0.1-1,0.2c-0.4,0.3,0.2,0.5,0.6,0.6c0.4,0,0.7,0.1,1-0.2
		C168.7,154.1,168.1,153.9,167.7,153.9z"/>
	<path class="st0" d="M168.7,152.3c-0.4,0-0.7-0.1-1,0.2c-0.4,0.3,0.2,0.5,0.6,0.6c0.4,0,0.7,0.1,1-0.2
		C169.7,152.6,169,152.4,168.7,152.3z"/>
	<path class="st0" d="M160.3,159.6c-0.4,0-0.7-0.1-1,0.2c-0.4,0.3,0.2,0.5,0.6,0.6c0.4,0,0.7,0.1,1-0.2
		C161.3,159.9,160.7,159.7,160.3,159.6z"/>
	<path class="st0" d="M161.3,158.1c-0.4,0-0.7-0.1-1,0.2c-0.4,0.3,0.2,0.5,0.6,0.6c0.4,0,0.7,0.1,1-0.2
		C162.3,158.3,161.7,158.1,161.3,158.1z"/>
	<path class="st0" d="M162.2,156.5c-0.4,0-0.7-0.1-1,0.2c-0.4,0.3,0.2,0.5,0.6,0.6c0.4,0,0.7,0.1,1-0.2
		C163.2,156.8,162.6,156.6,162.2,156.5z"/>
	<path class="st0" d="M163.2,155c-0.4,0-0.7-0.1-1,0.2c-0.4,0.3,0.2,0.5,0.6,0.6c0.4,0,0.7,0.1,1-0.2
		C164.2,155.2,163.6,155,163.2,155z"/>
	<path class="st0" d="M164.1,153.4c-0.4,0-0.7-0.1-1,0.2c-0.4,0.3,0.2,0.5,0.6,0.6c0.4,0,0.7,0.1,1-0.2
		C165.1,153.7,164.5,153.5,164.1,153.4z"/>
	<path class="st0" d="M165.1,151.9c-0.4,0-0.7-0.1-1,0.2c-0.4,0.3,0.2,0.5,0.6,0.6c0.4,0,0.7,0.1,1-0.2
		C166.1,152.2,165.5,151.9,165.1,151.9z"/>
	<path class="st0" d="M154.6,168.9c-0.4,0-0.7-0.1-1,0.2c-0.4,0.3,0.2,0.5,0.6,0.6c0.4,0,0.7,0.1,1-0.2
		C155.6,169.2,155,169,154.6,168.9z"/>
	<path class="st0" d="M158.2,169.4c-0.4,0-0.7-0.1-1,0.2c-0.4,0.3,0.2,0.5,0.6,0.6c0.4,0,0.7,0.1,1-0.2
		C159.2,169.6,158.5,169.4,158.2,169.4z"/>
	<line class="st0" x1="145.9" y1="160.3" x2="47.1" y2="148.8"/>
	<line class="st0" x1="45.9" y1="147.9" x2="48.3" y2="144"/>
	<line class="st0" x1="187.9" y1="94.9" x2="148" y2="159.8"/>
	<path class="st0" d="M47.1,148.8c-0.3,0-0.6-0.1-0.9-0.2c-0.3-0.2-0.6-0.3-0.4-0.7"/>
	<line class="st0" x1="45.9" y1="147.9" x2="45.9" y2="148.3"/>
	<path class="st0" d="M148,159.8c-0.3,0.6-1.6,0.6-2.1,0.5"/>
	<path class="st0" d="M54.9,142.8c-0.3,0-0.6-0.1-0.8-0.3"/>
	<path class="st0" d="M48.5,126.9c-0.2-0.1-0.3-0.2-0.1-0.4"/>
	<path class="st0" d="M104.9,126.3c-0.3,0.4-0.4,0.8-0.6,1.3"/>
	<path class="st0" d="M151,127.5c-1.2-3.9-6.9-6.2-10.1-7.1c-4.2-1.2-8.3-1.7-12.6-1.8c-4.3-0.1-8.5,0.3-12.6,1.4
		c-3.4,0.9-8.7,2.8-10.8,6.2"/>
	<path class="st0" d="M104.9,123.5c-3,4.8,2.7,8.5,6.5,10.1c4.4,1.8,8.8,2.5,13.5,2.8c4.7,0.2,9.2-0.1,13.7-1.1
		c2.7-0.6,5.3-1.4,7.7-2.8c1.7-0.9,3.1-1.9,4.1-3.6c3-4.8-2.7-8.5-6.5-10.1c-4.4-1.8-8.8-2.5-13.5-2.8c-4.7-0.2-9.2,0.1-13.7,1.1
		c-2.7,0.6-5.3,1.4-7.7,2.8C107.4,120.8,105.9,121.8,104.9,123.5z"/>
	<path class="st0" d="M117.3,106.1c-0.3,0.4-0.4,0.8-0.6,1.3"/>
	<path class="st0" d="M163.4,107.4c-1.2-3.9-6.9-6.2-10.1-7.1c-4.2-1.2-8.3-1.7-12.6-1.8c-4.3-0.1-8.5,0.3-12.6,1.4
		c-3.4,0.9-8.7,2.8-10.8,6.2"/>
	<path class="st0" d="M117.3,103.3c-3,4.8,2.7,8.5,6.5,10.1c4.4,1.8,8.8,2.5,13.5,2.8c4.7,0.2,9.2-0.1,13.7-1.1
		c2.7-0.6,5.3-1.4,7.7-2.8c1.7-0.9,3.1-1.9,4.1-3.6c3-4.8-2.7-8.5-6.5-10.1c-4.4-1.8-8.8-2.5-13.5-2.8c-4.7-0.2-9.2,0.1-13.7,1.1
		c-2.7,0.6-5.3,1.4-7.7,2.8C119.8,100.7,118.3,101.6,117.3,103.3z"/>
	<path class="st0" d="M129.7,86c-0.3,0.4-0.4,0.8-0.6,1.3"/>
	<path class="st0" d="M175.8,87.2c-1.2-3.9-6.9-6.2-10.1-7.1c-4.2-1.2-8.3-1.7-12.6-1.8c-4.3-0.1-8.5,0.3-12.6,1.4
		c-3.4,0.9-8.7,2.8-10.8,6.2"/>
	<path class="st0" d="M129.7,83.2c-3,4.8,2.7,8.5,6.5,10.1c4.4,1.8,8.8,2.5,13.5,2.8c4.7,0.2,9.2-0.1,13.7-1.1
		c2.7-0.6,5.3-1.4,7.7-2.8c1.7-0.9,3.1-1.9,4.1-3.6c3-4.8-2.7-8.5-6.5-10.1c-4.4-1.8-8.8-2.5-13.5-2.8c-4.7-0.2-9.2,0.1-13.7,1.1
		c-2.7,0.6-5.3,1.4-7.7,2.8C132.2,80.5,130.7,81.5,129.7,83.2z"/>
	<path class="st0" d="M83.4,80.6c-0.3,0.4-0.4,0.8-0.6,1.3"/>
	<path class="st0" d="M129.6,81.8c-1.2-3.9-6.9-6.2-10.1-7.1c-4.2-1.2-8.3-1.7-12.6-1.8c-4.3-0.1-8.5,0.3-12.6,1.4
		c-3.4,0.9-8.7,2.8-10.8,6.2"/>
	<path class="st0" d="M83.4,77.8c-3,4.8,2.7,8.5,6.5,10.1c4.4,1.8,8.8,2.5,13.5,2.8c4.7,0.2,9.2-0.1,13.7-1.1
		c2.7-0.6,5.3-1.4,7.7-2.8c1.7-0.9,3.1-1.9,4.1-3.6c3-4.8-2.7-8.5-6.5-10.1c-4.4-1.8-8.8-2.5-13.5-2.8c-4.7-0.2-9.2,0.1-13.7,1.1
		c-2.7,0.6-5.3,1.4-7.7,2.8C85.9,75.1,84.4,76.1,83.4,77.8z"/>
	<path class="st0" d="M71,100.7c-0.3,0.4-0.4,0.8-0.6,1.3"/>
	<path class="st0" d="M117.2,102c-1.2-3.9-6.9-6.2-10.1-7.1c-4.2-1.2-8.3-1.7-12.6-1.8c-4.3-0.1-8.5,0.3-12.6,1.4
		c-3.4,0.9-8.7,2.8-10.8,6.2"/>
	<path class="st0" d="M71,97.9c-3,4.8,2.7,8.5,6.5,10.1c4.4,1.8,8.8,2.5,13.5,2.8c4.7,0.2,9.2-0.1,13.7-1.1c2.7-0.6,5.3-1.4,7.7-2.8
		c1.7-0.9,3.1-1.9,4.1-3.6c3-4.8-2.7-8.5-6.5-10.1c-4.4-1.8-8.8-2.5-13.5-2.8c-4.7-0.2-9.2,0.1-13.7,1.1c-2.7,0.6-5.3,1.4-7.7,2.8
		C73.5,95.3,72,96.3,71,97.9z"/>
	<path class="st0" d="M58.6,120.9c-0.3,0.4-0.4,0.8-0.6,1.3"/>
	<path class="st0" d="M104.8,122.1c-1.2-3.9-6.9-6.2-10.1-7.1c-4.2-1.2-8.3-1.7-12.6-1.8c-4.3-0.1-8.5,0.3-12.6,1.4
		c-3.4,0.9-8.7,2.8-10.8,6.2"/>
	<path class="st0" d="M58.6,118.1c-3,4.8,2.7,8.5,6.5,10.1c4.4,1.8,8.8,2.5,13.5,2.8c4.7,0.2,9.2-0.1,13.7-1.1
		c2.7-0.6,5.3-1.4,7.7-2.8c1.7-0.9,3.1-1.9,4.1-3.6c3-4.8-2.7-8.5-6.5-10.1c-4.4-1.8-8.8-2.5-13.5-2.8c-4.7-0.2-9.2,0.1-13.7,1.1
		c-2.7,0.6-5.3,1.4-7.7,2.8C61.1,115.4,59.7,116.4,58.6,118.1z"/>
	<path class="st0" d="M59.7,121c-0.6,0.9-0.8,1.8-0.7,3"/>
	<path class="st0" d="M103.8,124c0.2-2.3-1.3-4-2.9-5.3c-1.7-1.3-3.6-2.1-5.6-2.8c-4.1-1.4-8.1-2-12.4-2.1
		c-4.2-0.1-8.3,0.2-12.5,1.2c-3.3,0.8-8.7,2.6-10.7,6"/>
	<path class="st0" d="M72.1,100.8c-0.6,0.9-0.8,1.8-0.7,3"/>
	<path class="st0" d="M116.2,103.8c0.2-2.3-1.3-4-2.9-5.3c-1.7-1.3-3.6-2.1-5.6-2.8c-4.1-1.4-8.1-2-12.4-2.1
		c-4.2-0.1-8.3,0.2-12.5,1.2c-3.3,0.8-8.7,2.6-10.7,6"/>
	<path class="st0" d="M84.5,80.7c-0.6,0.9-0.8,1.8-0.7,3"/>
	<path class="st0" d="M128.6,83.7c0.2-2.3-1.3-4-2.9-5.3c-1.7-1.3-3.6-2.1-5.6-2.8c-4.1-1.4-8.1-2-12.4-2.1
		c-4.2-0.1-8.3,0.2-12.5,1.2c-3.3,0.8-8.7,2.6-10.7,6"/>
	<path class="st0" d="M130.8,86.1c-0.6,0.9-0.8,1.8-0.7,3"/>
	<path class="st0" d="M174.9,89.1c0.2-2.3-1.3-4-2.9-5.3c-1.7-1.3-3.6-2.1-5.6-2.8c-4.1-1.4-8.1-2-12.4-2.1
		c-4.2-0.1-8.3,0.2-12.5,1.2c-3.3,0.8-8.7,2.6-10.7,6"/>
	<path class="st0" d="M118.4,106.2c-0.6,0.9-0.8,1.8-0.7,3"/>
	<path class="st0" d="M162.5,109.2c0.2-2.3-1.3-4-2.9-5.3c-1.7-1.3-3.6-2.1-5.6-2.8c-4.1-1.4-8.1-2-12.4-2.1
		c-4.2-0.1-8.3,0.2-12.5,1.2c-3.3,0.8-8.7,2.6-10.7,6"/>
	<path class="st0" d="M106,126.4c-0.6,0.9-0.8,1.8-0.7,3"/>
	<path class="st0" d="M150.1,129.4c0.2-2.3-1.3-4-2.9-5.3c-1.7-1.3-3.6-2.1-5.6-2.8c-4.1-1.4-8.1-2-12.4-2.1
		c-4.2-0.1-8.3,0.2-12.5,1.2c-3.3,0.8-8.7,2.6-10.7,6"/>
</g>
</svg>
