<?xml version="1.0" encoding="utf-8"?>
<!-- Generator: Adobe Illustrator 19.0.0, SVG Export Plug-In . SVG Version: 6.00 Build 0)  -->
<svg version="1.1" id="Layer_1" xmlns="http://www.w3.org/2000/svg" xmlns:xlink="http://www.w3.org/1999/xlink" x="0px" y="0px"
	 viewBox="0 0 75 75" style="enable-background:new 0 0 75 75;" xml:space="preserve">
<style type="text/css">
	.st0{fill:none;stroke:#000000;stroke-width:0.25;stroke-linecap:round;stroke-linejoin:round;stroke-miterlimit:10;}
	.st1{fill:none;stroke:#000000;stroke-width:0.1;stroke-linecap:round;stroke-linejoin:round;stroke-miterlimit:10;}
	.st2{fill:none;stroke:#000000;stroke-width:0.35;stroke-miterlimit:10;}
</style>
<line id="XMLID_111_" class="st0" x1="74.7" y1="-0.5" x2="74.7" y2="-0.5"/>
<rect id="XMLID_110_" x="4" y="33.1" class="st0" width="10.7" height="10.7"/>
<circle id="XMLID_109_" class="st0" cx="9.3" cy="38.4" r="4.9"/>
<rect id="XMLID_108_" x="7.9" y="31.3" class="st0" width="3" height="1.8"/>
<rect id="XMLID_107_" x="12.8" y="53.3" transform="matrix(0.7071 -0.7071 0.7071 0.7071 -36.1502 29.9916)" class="st0" width="10.7" height="10.7"/>
<circle id="XMLID_106_" class="st0" cx="18.1" cy="58.6" r="4.9"/>
<rect id="XMLID_105_" x="12.3" y="53.3" transform="matrix(0.7071 -0.7071 0.7071 0.7071 -34.2938 25.6023)" class="st0" width="3" height="1.8"/>
<rect id="XMLID_104_" x="33.3" y="61.4" class="st0" width="10.7" height="10.7"/>
<circle id="XMLID_103_" class="st0" cx="38.6" cy="66.7" r="4.9"/>
<rect id="XMLID_102_" x="31.5" y="65.2" class="st0" width="1.8" height="3"/>
<rect id="XMLID_101_" x="53.5" y="52.6" transform="matrix(-0.707 -0.7072 0.7072 -0.707 59.4487 140.4421)" class="st0" width="10.7" height="10.7"/>
<circle id="XMLID_100_" class="st0" cx="58.8" cy="57.9" r="4.9"/>
<rect id="XMLID_99_" x="52.9" y="61.4" transform="matrix(-0.7071 -0.7071 0.7071 -0.7071 48.7978 144.7656)" class="st0" width="3" height="1.8"/>
<rect id="XMLID_98_" x="61.5" y="32.1" class="st0" width="10.7" height="10.7"/>
<path id="XMLID_97_" class="st0" d="M62,37.4c0-2.7,2.2-4.9,4.9-4.9c2.7,0,4.9,2.2,4.9,4.9c0,2.7-2.2,4.9-4.9,4.9
	C64.2,42.3,62,40.1,62,37.4z"/>
<rect id="XMLID_96_" x="65.3" y="42.7" class="st0" width="3" height="1.8"/>
<rect id="XMLID_95_" x="52.8" y="11.9" transform="matrix(-0.7073 0.7069 -0.7069 -0.7073 111.3467 -11.667)" class="st0" width="10.7" height="10.7"/>
<path id="XMLID_94_" class="st0" d="M54.6,20.7c-1.9-1.9-1.9-5,0-6.9c1.9-1.9,5-1.9,6.9,0c1.9,1.9,1.9,5,0,6.9
	C59.6,22.6,56.5,22.6,54.6,20.7z"/>
<rect id="XMLID_93_" x="61" y="20.8" transform="matrix(-0.7073 0.7069 -0.7069 -0.7073 121.9462 -7.1872)" class="st0" width="3" height="1.8"/>
<rect id="XMLID_92_" x="32.3" y="3.8" class="st0" width="10.7" height="10.7"/>
<path id="XMLID_91_" class="st0" d="M37.6,14c-2.7,0-4.9-2.2-4.9-4.9c0-2.7,2.2-4.9,4.9-4.9c2.7,0,4.9,2.2,4.9,4.9
	C42.5,11.9,40.3,14,37.6,14z"/>
<rect id="XMLID_90_" x="42.9" y="7.7" class="st0" width="1.8" height="3"/>
<rect id="XMLID_89_" x="12.1" y="12.6" transform="matrix(0.7071 0.7071 -0.7071 0.7071 17.787 -7.0494)" class="st0" width="10.7" height="10.7"/>
<path id="XMLID_88_" class="st0" d="M20.9,21.4c-1.9,1.9-5,1.9-6.9,0c-1.9-1.9-1.9-5,0-6.9c1.9-1.9,5-1.9,6.9,0
	C22.8,16.4,22.8,19.5,20.9,21.4z"/>
<rect id="XMLID_87_" x="20.3" y="12.7" transform="matrix(0.7075 0.7067 -0.7067 0.7075 15.9804 -11.4631)" class="st0" width="3" height="1.8"/>
<circle id="XMLID_41_" class="st0" cx="37.5" cy="37.5" r="37"/>
<circle id="XMLID_40_" class="st1" cx="37.5" cy="37.5" r="36.4"/>
<circle id="XMLID_83_" class="st0" cx="37.4" cy="37.4" r="20.7"/>
<circle id="XMLID_82_" class="st2" cx="37.4" cy="37.4" r="13.5"/>
<circle id="XMLID_81_" class="st0" cx="37.4" cy="37.4" r="5.4"/>
<circle id="XMLID_80_" class="st0" cx="37.4" cy="37.4" r="0.9"/>
<line id="XMLID_79_" class="st0" x1="39.6" y1="42.6" x2="42.8" y2="50"/>
<line id="XMLID_78_" class="st0" x1="32" y1="25" x2="35.1" y2="32.2"/>
<g id="XMLID_132_">
	<path id="XMLID_133_" d="M36,7.7V7.1c0.8,0,1.2-0.3,1.4-1.1h0.8v5.9H37V7.7H36z"/>
</g>
<g id="XMLID_129_">
	<path id="XMLID_130_" d="M57.4,15.8h-0.9v-0.1c0-1,0.7-1.7,1.9-1.7c1.1,0,1.8,0.6,1.8,1.6c0,0.3-0.1,0.6-0.3,0.9
		c-0.2,0.3-0.4,0.6-0.8,1.1c-0.3,0.4-0.8,0.9-1.1,1.2c0,0-0.1,0.1-0.1,0.2h2.3v1h-3.8l0-0.9l0.1-0.1c0.6-0.7,0.7-0.8,1.3-1.5
		c0.2-0.3,0.4-0.5,0.6-0.7c0.4-0.5,0.6-0.9,0.6-1.1c0-0.4-0.3-0.6-0.7-0.6C57.8,15,57.5,15.2,57.4,15.8z"/>
</g>
<g id="XMLID_126_">
	<path id="XMLID_127_" d="M65.9,36.2h-0.9c0-1.1,0.7-1.7,1.9-1.7c1.1,0,1.7,0.6,1.7,1.6c0,0.6-0.3,1.1-0.9,1.3c0.7,0.2,1,0.6,1,1.4
		c0,1.1-0.8,1.8-2,1.8c-1.3,0-2-0.7-2-1.8h1c0,0.6,0.4,0.9,1,0.9c0.6,0,0.9-0.3,0.9-0.9c0-0.6-0.4-0.8-1.5-0.8h-0.1V37
		c0.1,0,0.2,0,0.2,0c0.9,0,1.3-0.3,1.3-0.8c0-0.4-0.3-0.7-0.8-0.7C66.2,35.4,65.9,35.7,65.9,36.2z"/>
</g>
<g id="XMLID_122_">
	<path id="XMLID_123_" d="M60,58.3h1.1v0.9h-1v1.3h-1.1v-1.3h-2.4v-0.9l2.2-3.8H60V58.3z M59,58.3v-2.5l-1.4,2.5H59z"/>
</g>
<g id="XMLID_119_">
	<path id="XMLID_120_" d="M37.3,63.9h2.9l-0.1,1h-2.1L37.9,66c0.3-0.2,0.5-0.3,0.9-0.3c1.1,0,1.8,0.8,1.8,1.9c0,1.3-0.9,2.1-2.1,2.1
		c-1.1,0-1.9-0.7-2-1.8h1.1c0.1,0.5,0.4,0.8,0.9,0.8c0.6,0,0.9-0.4,0.9-1.1c0-0.6-0.4-1.1-0.9-1.1c-0.4,0-0.6,0.1-0.9,0.5l-1-0.1
		L37.3,63.9z"/>
</g>
<g id="XMLID_115_">
	<path id="XMLID_116_" d="M17.9,55.4h1.2l-0.1,0.1c-0.8,1-1.1,1.3-1.4,1.8c0.2,0,0.3,0,0.4,0c1.1,0,1.8,0.8,1.8,2
		c0,1.3-0.8,2.2-2,2.2c-1.2,0-2.1-0.9-2.1-2.2c0-0.7,0.2-1.4,0.8-2.2c0.2-0.3,0.4-0.6,0.7-0.9c0,0,0.2-0.2,0.5-0.6L17.9,55.4z
		 M17.9,60.5c0.5,0,0.9-0.5,0.9-1.2c0-0.7-0.4-1.2-0.9-1.2S17,58.6,17,59.3C17,60,17.3,60.5,17.9,60.5z"/>
</g>
<g id="XMLID_112_">
	<path id="XMLID_113_" d="M7.4,35.2h4V36l-2.8,5H7.4l2.7-4.8H7.4V35.2z"/>
</g>
<g id="XMLID_42_">
	<path id="XMLID_69_" d="M15.9,18c-0.5-0.3-0.7-0.6-0.7-1.2c0-1,0.8-1.7,1.9-1.7c1.1,0,1.9,0.7,1.9,1.7c0,0.5-0.2,0.9-0.6,1.2
		c0.5,0.3,0.8,0.7,0.8,1.3c0,1.1-0.9,1.9-2.1,1.9c-1.2,0-2.1-0.8-2.1-1.9C15.2,18.7,15.4,18.3,15.9,18z M17.2,18.5
		c-0.5,0-0.9,0.4-0.9,0.9s0.4,0.9,0.9,0.9c0.5,0,0.9-0.4,0.9-0.9S17.8,18.5,17.2,18.5z M17.2,16c-0.5,0-0.8,0.3-0.8,0.8
		s0.3,0.8,0.8,0.8c0.5,0,0.8-0.3,0.8-0.8S17.7,16,17.2,16z"/>
</g>
</svg>
