<?xml version="1.0" encoding="utf-8"?>
<!-- Generator: Adobe Illustrator 19.0.0, SVG Export Plug-In . SVG Version: 6.00 Build 0)  -->
<svg version="1.1" id="Layer_1" xmlns="http://www.w3.org/2000/svg" xmlns:xlink="http://www.w3.org/1999/xlink" x="0px" y="0px"
	 width="118px" height="28px" viewBox="0 0 118 28" style="enable-background:new 0 0 118 28;" xml:space="preserve">
<style type="text/css">
	.st0{fill:none;stroke:#000000;stroke-width:0.25;stroke-linecap:round;stroke-linejoin:round;stroke-miterlimit:10;}
	.st1{fill:none;stroke:#000000;stroke-width:0.1;stroke-linecap:round;stroke-linejoin:round;stroke-miterlimit:10;}
	.st2{fill:#FFFFFF;stroke:#000000;stroke-width:0.1417;stroke-miterlimit:10;}
</style>
<g id="XMLID_106_">
	<line id="XMLID_303_" class="st0" x1="114.9" y1="19.9" x2="81.1" y2="27.4"/>
	<g id="XMLID_107_">
		<polyline id="XMLID_302_" class="st0" points="7.1,15.7 7.1,15.6 7.1,15.2 7.1,14.6 7.1,13.8 		"/>
		<polyline id="XMLID_301_" class="st0" points="7.1,13.8 7.1,13.1 7.1,12.5 7.1,12.1 7.1,12 		"/>
		<polyline id="XMLID_300_" class="st0" points="7.8,11.5 7.8,11.5 7.8,11.7 7.8,12.3 7.8,13 7.8,13.8 		"/>
		<polyline id="XMLID_299_" class="st0" points="7.8,13.8 7.8,14.7 7.8,15.4 7.8,15.9 7.8,16.2 7.8,16.2 		"/>
		<polyline id="XMLID_298_" class="st0" points="77.3,20.8 77.3,20.8 77.3,20.5 77.3,19.9 77.3,19 77.3,18 77.3,16.7 77.3,15.4 
			77.3,13.9 77.3,12.5 77.3,11.1 77.3,9.9 77.3,8.8 77.3,8 77.3,7.4 77.3,7.4 		"/>
		<line id="XMLID_297_" class="st0" x1="117.2" y1="14" x2="117.2" y2="19"/>
		<line id="XMLID_296_" class="st0" x1="107.1" y1="20.2" x2="108.8" y2="19.8"/>
		<line id="XMLID_295_" class="st0" x1="108.8" y1="8.1" x2="107.2" y2="7.7"/>
		<line id="XMLID_294_" class="st0" x1="78.1" y1="1" x2="77.8" y2="1"/>
		<line id="XMLID_293_" class="st0" x1="108.8" y1="16.7" x2="103.6" y2="16.7"/>
		<line id="XMLID_292_" class="st0" x1="108.8" y1="11.2" x2="103.6" y2="11.2"/>
		<polyline id="XMLID_291_" class="st0" points="0,15.5 0,15.3 0,15 0,14.5 0,13.8 0,13.2 0,12.7 0,12.3 0,12.2 		"/>
		<polyline id="XMLID_290_" class="st0" points="10,20.5 10,20.5 10,20.2 10,19.6 10,18.8 10,17.8 10,16.6 10,15.2 10,13.9 10,12.5 
			10,11.1 10,9.9 10,8.9 10,8.1 10,7.5 10.1,7.2 10.1,7.2 		"/>
		<polyline id="XMLID_289_" class="st0" points="116.2,8.4 116.5,8.5 116.6,8.7 116.7,8.7 116.7,8.8 116.7,8.9 		"/>
		<line id="XMLID_288_" class="st0" x1="116.7" y1="14" x2="116.7" y2="8.9"/>
		<polyline id="XMLID_287_" class="st0" points="116.7,8.9 116.4,8.8 116.2,8.7 116.2,8.7 		"/>
		<polyline id="XMLID_286_" class="st0" points="117.2,19 117.2,19 117.6,19.2 117.8,19.2 		"/>
		<polyline id="XMLID_285_" class="st0" points="116.2,19.2 116.2,19.2 116.4,19.2 116.7,19.1 117.2,19 		"/>
		<polyline id="XMLID_284_" class="st1" points="87.7,20.6 87.4,20.7 87.1,20.9 86.9,21.2 86.8,21.5 86.9,21.9 87.1,22.2 87.4,22.4 
			87.7,22.5 87.8,22.5 		"/>
		<polyline id="XMLID_283_" class="st1" points="87.8,7.3 87.8,7.3 87.4,7.2 87.1,7 86.9,6.7 86.8,6.4 86.9,6 87.1,5.7 87.4,5.5 
			87.7,5.4 		"/>
		<polyline id="XMLID_282_" class="st1" points="87.7,20.6 87.4,20.7 87.1,20.9 86.9,21.2 86.8,21.5 86.9,21.9 87.1,22.2 87.4,22.4 
			87.7,22.5 88.1,22.4 88.4,22.2 88.6,21.9 88.7,21.5 88.6,21.2 88.4,20.9 88.1,20.7 87.7,20.6 		"/>
		<polyline id="XMLID_281_" class="st1" points="87.7,20.2 87.2,20.3 86.8,20.6 86.5,21 86.4,21.5 86.5,22.1 86.8,22.5 87.2,22.8 
			87.7,22.9 88.2,22.8 88.7,22.5 89,22.1 89.1,21.5 89,21 88.7,20.6 88.2,20.3 87.7,20.2 		"/>
		<polyline id="XMLID_280_" class="st1" points="87.7,7.3 87.4,7.2 87.1,7 86.9,6.7 86.8,6.4 86.9,6 87.1,5.7 87.4,5.5 87.7,5.4 
			88.1,5.5 88.4,5.7 88.6,6 88.7,6.4 88.6,6.7 88.4,7 88.1,7.2 87.7,7.3 		"/>
		<polyline id="XMLID_279_" class="st1" points="87.7,7.7 87.2,7.6 86.8,7.3 86.5,6.9 86.4,6.4 86.5,5.8 86.8,5.4 87.2,5.1 87.7,5 
			88.3,5.1 88.7,5.4 89,5.8 89.1,6.4 89,6.9 88.7,7.3 88.3,7.6 87.7,7.7 		"/>
		<line id="XMLID_278_" class="st0" x1="103.6" y1="19.6" x2="103.6" y2="19.6"/>
		<line id="XMLID_277_" class="st0" x1="78.1" y1="0.4" x2="78.2" y2="0.4"/>
		<line id="XMLID_276_" class="st0" x1="78.2" y1="0.4" x2="81.2" y2="0.5"/>
		<line id="XMLID_275_" class="st0" x1="81.1" y1="27.4" x2="78.1" y2="27.4"/>
		<polyline id="XMLID_274_" class="st0" points="78.1,2.4 78.1,2 78.1,1.6 78.1,1.3 78.1,1 78.1,0.8 78.1,0.6 78.1,0.5 78.1,0.4 		
			"/>
		<line id="XMLID_273_" class="st0" x1="78.1" y1="0.4" x2="81.1" y2="0.5"/>
		<line id="XMLID_272_" class="st0" x1="106.1" y1="6.1" x2="81.2" y2="0.5"/>
		<line id="XMLID_271_" class="st0" x1="81.2" y1="0.5" x2="81.1" y2="0.5"/>
		<polyline id="XMLID_270_" class="st0" points="116.2,8.4 115.7,8.3 115.1,8.1 114.5,8 113.9,7.9 113.4,7.8 112.9,7.7 112.5,7.6 
			112.1,7.5 111.9,7.4 111.8,7.4 		"/>
		<polyline id="XMLID_269_" class="st0" points="117.8,19.2 117.1,19.4 116.6,19.5 116.2,19.6 115.9,19.6 115.8,19.6 		"/>
		<line id="XMLID_268_" class="st0" x1="81.2" y1="27.4" x2="106.1" y2="21.8"/>
		<line id="XMLID_267_" class="st0" x1="116.9" y1="19.4" x2="115.9" y2="19.6"/>
		<line id="XMLID_266_" class="st0" x1="108.8" y1="20.2" x2="103.6" y2="20.2"/>
		<polyline id="XMLID_265_" class="st1" points="87.7,19.9 87.1,20 86.5,20.4 86.2,20.9 86,21.5 86.2,22.2 86.5,22.7 87.1,23.1 
			87.7,23.2 88.4,23.1 88.9,22.7 89.3,22.2 89.4,21.5 89.3,20.9 88.9,20.4 88.4,20 87.7,19.9 		"/>
		<polyline id="XMLID_264_" class="st1" points="87.7,8 87.1,7.9 86.6,7.5 86.2,7 86.1,6.4 86.2,5.7 86.6,5.2 87.1,4.8 87.7,4.7 
			88.4,4.8 88.9,5.2 89.3,5.7 89.4,6.4 89.3,7 88.9,7.5 88.4,7.9 87.7,8 		"/>
		<polyline id="XMLID_263_" class="st0" points="108.8,20.2 108.8,19.9 108.8,19.6 108.8,19.2 		"/>
		<polyline id="XMLID_262_" class="st0" points="104.3,20.2 105.9,20.2 107.4,20.2 108.8,20.2 		"/>
		<polyline id="XMLID_261_" class="st0" points="108.8,8.7 108.8,8.4 108.8,8 108.8,7.7 		"/>
		<line id="XMLID_260_" class="st0" x1="81.1" y1="0.5" x2="114.9" y2="8.1"/>
		<line id="XMLID_259_" class="st0" x1="81.1" y1="0.5" x2="81.1" y2="0.5"/>
		<polyline id="XMLID_258_" class="st0" points="80.9,2.4 80.9,1.9 81,1.5 81,1.2 81.1,0.9 81.1,0.6 81.1,0.5 81.1,0.5 		"/>
		<polyline id="XMLID_257_" class="st0" points="108.8,7.7 107.4,7.7 105.9,7.7 104.3,7.7 		"/>
		<polyline id="XMLID_256_" class="st0" points="115.7,19.7 115.2,19.8 114.9,19.8 114.9,19.9 		"/>
		<polyline id="XMLID_255_" class="st0" points="114.9,19.9 114.8,19.8 114.8,19.7 114.8,19.5 114.7,19.2 114.7,18.8 114.6,18.4 
			114.6,17.9 		"/>
		<polyline id="XMLID_254_" class="st0" points="115.8,19.6 115.9,19.6 116,19.5 116.1,19.4 116.1,19.2 116.1,19.2 		"/>
		<polyline id="XMLID_253_" class="st0" points="115.7,19.7 115.7,19.5 115.7,19.4 115.7,19.2 115.7,19 115.7,18.7 115.7,18.5 
			115.7,18.2 115.7,17.9 		"/>
		<polyline id="XMLID_252_" class="st0" points="114.9,8.1 115,8.1 115.2,8.2 115.7,8.3 		"/>
		<polyline id="XMLID_251_" class="st0" points="114.6,10 114.6,9.6 114.7,9.2 114.7,8.8 114.8,8.5 114.8,8.3 114.9,8.2 114.9,8.1 
					"/>
		<polyline id="XMLID_250_" class="st0" points="115.8,8.3 115.9,8.4 116,8.5 116.1,8.6 116.1,8.7 116.1,8.7 		"/>
		<polyline id="XMLID_249_" class="st0" points="115.7,10.1 115.7,9.8 115.7,9.5 115.7,9.2 115.7,9 115.7,8.8 115.7,8.6 115.7,8.4 
			115.7,8.3 		"/>
		<line id="XMLID_248_" class="st0" x1="116.2" y1="19.2" x2="116.2" y2="8.7"/>
		<polyline id="XMLID_247_" class="st0" points="116.1,8.7 116.1,8.8 116.1,9 116.1,9.1 116.1,9.3 116.1,9.5 116.1,9.7 116.1,9.9 
			116.1,10.1 		"/>
		<polyline id="XMLID_246_" class="st0" points="116.1,17.8 116.1,18.1 116.1,18.3 116.1,18.5 116.1,18.7 116.1,18.8 116.1,19 
			116.1,19.1 116.1,19.2 		"/>
		<polyline id="XMLID_245_" class="st1" points="87.7,19.8 87.4,19.8 87.1,19.9 86.8,20 86.6,20.2 86.3,20.4 86.2,20.7 86,20.9 
			86,21.2 85.9,21.5 86,21.8 86,22.1 86.2,22.4 86.3,22.7 86.6,22.9 86.8,23.1 87.1,23.2 87.4,23.3 87.7,23.3 88,23.3 88.3,23.2 
			88.6,23.1 88.8,22.9 89.1,22.7 89.2,22.4 89.4,22.1 89.5,21.8 89.5,21.5 89.5,21.2 89.4,20.9 89.2,20.7 89.1,20.4 88.8,20.2 
			88.6,20 88.3,19.9 88,19.8 87.7,19.8 		"/>
		<line id="XMLID_244_" class="st0" x1="78.1" y1="25.5" x2="78.1" y2="14.5"/>
		<line id="XMLID_243_" class="st0" x1="78.1" y1="25.5" x2="80.8" y2="25.5"/>
		<line id="XMLID_242_" class="st0" x1="80.8" y1="25.5" x2="104.3" y2="20.2"/>
		<line id="XMLID_241_" class="st0" x1="104.3" y1="20.2" x2="103.6" y2="20.2"/>
		<polyline id="XMLID_240_" class="st1" points="87.7,8.1 88,8.1 88.3,8 88.6,7.9 88.9,7.7 89.1,7.5 89.3,7.2 89.4,7 89.5,6.7 
			89.5,6.4 89.5,6.1 89.4,5.8 89.3,5.5 89.1,5.2 88.9,5 88.6,4.8 88.3,4.7 88,4.6 87.7,4.6 87.4,4.6 87.1,4.7 86.8,4.8 86.6,5 
			86.4,5.2 86.2,5.5 86.1,5.8 86,6.1 86,6.4 86,6.7 86.1,7 86.2,7.2 86.4,7.5 86.6,7.7 86.8,7.9 87.1,8 87.4,8.1 87.7,8.1 		"/>
		<line id="XMLID_239_" class="st0" x1="104.3" y1="7.7" x2="80.9" y2="2.4"/>
		<line id="XMLID_238_" class="st0" x1="80.9" y1="2.4" x2="78.1" y2="2.4"/>
		<line id="XMLID_237_" class="st0" x1="78.1" y1="13.4" x2="78.1" y2="2.4"/>
		<line id="XMLID_236_" class="st0" x1="104.3" y1="7.7" x2="103.6" y2="7.7"/>
		<line id="XMLID_235_" class="st0" x1="108.8" y1="19.2" x2="108.8" y2="14.5"/>
		<line id="XMLID_234_" class="st0" x1="114.6" y1="17.9" x2="115.7" y2="17.9"/>
		<line id="XMLID_233_" class="st0" x1="108.8" y1="19.2" x2="114.6" y2="17.9"/>
		<line id="XMLID_232_" class="st0" x1="108.8" y1="8.7" x2="108.8" y2="13.4"/>
		<line id="XMLID_231_" class="st0" x1="115.7" y1="10.1" x2="114.6" y2="10"/>
		<line id="XMLID_230_" class="st0" x1="114.6" y1="10" x2="108.8" y2="8.7"/>
		<polyline id="XMLID_229_" class="st0" points="115.7,17.9 115.8,17.9 115.9,17.9 115.9,17.9 116,17.9 116,17.9 116.1,17.9 
			116.1,17.8 116.1,17.8 		"/>
		<line id="XMLID_228_" class="st0" x1="116.1" y1="14.5" x2="116.1" y2="17.8"/>
		<line id="XMLID_227_" class="st0" x1="115.7" y1="17.9" x2="115.7" y2="14.5"/>
		<line id="XMLID_226_" class="st0" x1="116.1" y1="10.1" x2="116.1" y2="13.5"/>
		<polyline id="XMLID_225_" class="st0" points="115.7,10.1 115.8,10.1 115.9,10.1 115.9,10.1 116,10.1 116.1,10.1 116.1,10.1 
			116.1,10.1 116.1,10.1 		"/>
		<line id="XMLID_224_" class="st0" x1="115.7" y1="13.4" x2="115.7" y2="10.1"/>
		<polyline id="XMLID_223_" class="st0" points="78.1,14.5 78.1,14.4 78.1,14.2 78.1,14.1 78.1,13.9 78.1,13.8 78.1,13.7 78.1,13.5 
			78.1,13.4 		"/>
		<line id="XMLID_222_" class="st0" x1="103.6" y1="14.5" x2="78.1" y2="14.5"/>
		<line id="XMLID_221_" class="st0" x1="78.1" y1="13.4" x2="103.6" y2="13.4"/>
		<line id="XMLID_220_" class="st0" x1="103.6" y1="20.2" x2="103.6" y2="20.2"/>
		<line id="XMLID_219_" class="st0" x1="103.6" y1="20.2" x2="103.6" y2="19.6"/>
		<line id="XMLID_218_" class="st0" x1="103.6" y1="19.6" x2="103.6" y2="19.6"/>
		<line id="XMLID_217_" class="st0" x1="103.6" y1="19.6" x2="103.6" y2="8.4"/>
		<line id="XMLID_216_" class="st0" x1="103.6" y1="8.4" x2="103.6" y2="8.3"/>
		<line id="XMLID_215_" class="st0" x1="103.6" y1="8.3" x2="103.6" y2="7.7"/>
		<line id="XMLID_214_" class="st0" x1="103.6" y1="7.7" x2="103.6" y2="13.4"/>
		<polyline id="XMLID_213_" class="st0" points="103.6,13.4 103.6,13.5 103.6,13.7 103.6,13.8 103.6,14 103.6,14.1 103.6,14.3 
			103.6,14.4 103.6,14.5 		"/>
		<line id="XMLID_212_" class="st0" x1="103.6" y1="20.2" x2="103.6" y2="14.5"/>
		<line id="XMLID_211_" class="st0" x1="115.7" y1="14.5" x2="108.8" y2="14.5"/>
		<line id="XMLID_210_" class="st0" x1="108.8" y1="13.4" x2="115.7" y2="13.4"/>
		<polyline id="XMLID_209_" class="st0" points="108.8,14.5 108.8,14.4 108.8,14.3 108.8,14.1 108.8,14 108.8,13.8 108.8,13.7 
			108.8,13.6 108.8,13.4 		"/>
		<polyline id="XMLID_208_" class="st0" points="115.7,14.5 115.8,14.5 115.9,14.5 115.9,14.5 116,14.5 116,14.5 116.1,14.5 
			116.1,14.5 116.1,14.5 		"/>
		<polyline id="XMLID_207_" class="st0" points="116.1,13.5 116.1,13.6 116.1,13.8 116.1,13.9 116.1,14 116.1,14.1 116.1,14.2 
			116.1,14.3 116.1,14.5 		"/>
		<polyline id="XMLID_206_" class="st0" points="115.7,13.4 115.8,13.4 115.9,13.4 115.9,13.4 116,13.5 116,13.5 116.1,13.5 
			116.1,13.5 116.1,13.5 		"/>
		<polyline id="XMLID_205_" class="st0" points="115.7,14.5 115.7,14.4 115.7,14.3 115.7,14.1 115.7,14 115.7,13.8 115.7,13.7 
			115.7,13.6 115.7,13.4 		"/>
		<line id="XMLID_204_" class="st0" x1="77.8" y1="0.4" x2="77.9" y2="0.5"/>
		<polyline id="XMLID_203_" class="st0" points="77.9,0.5 77.9,0.5 77.9,0.5 77.8,0.5 77.8,0.4 77.8,0.4 77.8,0.4 77.8,0.4 
			77.8,0.4 		"/>
		<polyline id="XMLID_202_" class="st0" points="77.8,0.4 77.8,0.4 77.8,0.4 77.8,0.4 77.8,0.4 77.8,0.5 77.9,0.5 77.9,0.5 
			77.9,0.5 		"/>
		<polyline id="XMLID_201_" class="st0" points="77.8,0.7 77.8,0.6 77.8,0.6 77.8,0.6 77.8,0.5 77.8,0.5 77.8,0.5 77.8,0.5 
			77.8,0.4 		"/>
		<polyline id="XMLID_200_" class="st0" points="77.8,0.8 77.8,0.7 77.9,0.6 77.9,0.5 77.9,0.5 		"/>
		<polyline id="XMLID_199_" class="st0" points="118,14 118,14 117.8,14 117.2,14 116.7,14 		"/>
		<line id="XMLID_198_" class="st0" x1="77.9" y1="0.5" x2="77.9" y2="0.5"/>
		<line id="XMLID_197_" class="st0" x1="77.9" y1="0.5" x2="78.1" y2="0.5"/>
		<polyline id="XMLID_196_" class="st0" points="116.7,9.2 117.1,9.3 117.5,9.3 117.8,9.4 117.9,9.4 118,9.4 118,9.4 117.9,9.4 
			117.6,9.4 117.3,9.3 117,9.2 116.7,9.2 		"/>
		<line id="XMLID_195_" class="st0" x1="77.9" y1="0.5" x2="78.1" y2="0.5"/>
		<polyline id="XMLID_194_" class="st0" points="77.9,0.5 77.9,0.5 77.9,0.5 		"/>
		<polyline id="XMLID_193_" class="st0" points="38.2,20.5 72.7,20.5 74.2,20.5 		"/>
		<polyline id="XMLID_192_" class="st0" points="76.2,20.5 76.3,20.5 76.5,20.5 76.7,20.5 76.7,20.5 77.2,20.5 77.6,20.5 		"/>
		<line id="XMLID_191_" class="st0" x1="74.2" y1="20.5" x2="76.2" y2="20.5"/>
		<polyline id="XMLID_190_" class="st0" points="38.2,20.5 42.6,20.5 47.1,20.5 51.6,20.5 56.1,20.5 		"/>
		<line id="XMLID_189_" class="st0" x1="37.5" y1="20.5" x2="38.2" y2="20.5"/>
		<polyline id="XMLID_188_" class="st0" points="37.5,20.5 37.5,20.5 37.5,20.5 		"/>
		<polyline id="XMLID_187_" class="st0" points="37.6,7.3 37.6,7.3 37.6,7.3 37.6,7.2 37.6,7.2 		"/>
		<line id="XMLID_186_" class="st0" x1="38.2" y1="7.3" x2="37.6" y2="7.3"/>
		<polyline id="XMLID_185_" class="st0" points="56.1,7.3 51.7,7.3 47.2,7.3 42.7,7.3 38.2,7.3 		"/>
		<line id="XMLID_184_" class="st0" x1="37.6" y1="25.1" x2="37.5" y2="22.8"/>
		<line id="XMLID_183_" class="st0" x1="77.7" y1="27.4" x2="37.6" y2="25.1"/>
		<line id="XMLID_182_" class="st0" x1="77.8" y1="0.9" x2="77.8" y2="0.8"/>
		<polyline id="XMLID_181_" class="st0" points="77.8,0.8 77.8,0.7 77.8,0.7 		"/>
		<polyline id="XMLID_180_" class="st0" points="77.8,0.7 77.7,0.6 77.6,0.5 77.4,0.5 77.4,0.5 		"/>
		<polyline id="XMLID_179_" class="st0" points="77.3,0.5 77.3,0.5 77.3,0.5 77.4,0.5 77.4,0.5 		"/>
		<line id="XMLID_178_" class="st0" x1="77.4" y1="0.5" x2="77.8" y2="0.4"/>
		<line id="XMLID_177_" class="st0" x1="77.8" y1="0.4" x2="77.8" y2="0.4"/>
		<polyline id="XMLID_176_" class="st0" points="77.8,0.4 77.8,0.4 77.8,0.4 		"/>
		<line id="XMLID_175_" class="st0" x1="77.8" y1="0.4" x2="37.6" y2="2.6"/>
		<line id="XMLID_174_" class="st0" x1="37.6" y1="5.2" x2="37.6" y2="2.6"/>
		<line id="XMLID_173_" class="st0" x1="77.3" y1="27.4" x2="37.5" y2="22.8"/>
		<line id="XMLID_172_" class="st0" x1="38.9" y1="20.6" x2="37.5" y2="20.5"/>
		<polyline id="XMLID_171_" class="st0" points="37.5,22.8 37.5,22.5 37.5,22 37.5,21.3 37.5,20.5 		"/>
		<line id="XMLID_170_" class="st0" x1="37.6" y1="5.2" x2="77.3" y2="0.5"/>
		<polyline id="XMLID_169_" class="st0" points="37.6,6.4 37.6,6 37.6,5.6 37.6,5.3 37.6,5.2 		"/>
		<polyline id="XMLID_168_" class="st0" points="77.3,0.5 77.4,0.5 77.5,0.5 77.6,0.6 77.6,0.6 77.7,0.7 77.7,0.7 77.8,0.8 
			77.8,0.9 		"/>
		<polyline id="XMLID_167_" class="st0" points="77.3,2.4 77.3,2.4 77.3,1.7 77.3,1.1 77.3,0.6 77.3,0.5 		"/>
		<line id="XMLID_166_" class="st0" x1="77.8" y1="6.9" x2="77.8" y2="1"/>
		<line id="XMLID_165_" class="st0" x1="77.8" y1="1" x2="77.8" y2="0.9"/>
		<polyline id="XMLID_164_" class="st0" points="77.8,0.9 77.8,0.9 77.8,0.9 77.8,0.9 77.8,0.9 		"/>
		<polyline id="XMLID_163_" class="st0" points="77.8,0.9 77.8,1 77.8,1.4 77.8,1.9 77.8,2.5 		"/>
		<polyline id="XMLID_162_" class="st0" points="77.8,20.9 77.8,21.5 77.8,21.8 77.8,21.7 77.8,21.4 77.8,20.8 		"/>
		<polyline id="XMLID_161_" class="st0" points="77.8,7 77.8,6.4 77.8,6.1 77.8,6.1 77.8,6.4 77.8,6.9 		"/>
		<line id="XMLID_160_" class="st0" x1="77.8" y1="26.9" x2="77.8" y2="21"/>
		<line id="XMLID_159_" class="st0" x1="77.3" y1="20.5" x2="56.1" y2="20.5"/>
		<polyline id="XMLID_158_" class="st0" points="56.1,20.5 55.9,20.5 55.8,20.5 55.8,20.5 55.8,20.5 55.8,20.5 		"/>
		<polyline id="XMLID_157_" class="st0" points="55.8,7.3 55.8,7.3 55.8,7.3 55.8,7.3 55.9,7.3 56.1,7.3 		"/>
		<line id="XMLID_156_" class="st0" x1="77.4" y1="7.4" x2="56.1" y2="7.3"/>
		<line id="XMLID_155_" class="st0" x1="38.9" y1="20.6" x2="77.3" y2="25.5"/>
		<polyline id="XMLID_154_" class="st0" points="55.7,21 47.3,20.8 38.9,20.6 		"/>
		<line id="XMLID_153_" class="st0" x1="77.8" y1="20.8" x2="77.7" y2="21.8"/>
		<polyline id="XMLID_152_" class="st0" points="77.6,20.5 77.7,20.6 77.7,20.7 77.7,20.7 77.7,20.8 77.8,20.8 77.8,20.8 		"/>
		<polyline id="XMLID_151_" class="st0" points="77.3,20.5 77.4,20.5 77.5,20.5 77.6,20.5 		"/>
		<line id="XMLID_150_" class="st0" x1="77.3" y1="21.4" x2="77.3" y2="20.5"/>
		<line id="XMLID_149_" class="st0" x1="77.8" y1="6.1" x2="77.8" y2="7"/>
		<line id="XMLID_148_" class="st0" x1="77.4" y1="7.4" x2="77.3" y2="6.5"/>
		<polyline id="XMLID_147_" class="st0" points="77.6,7.4 77.5,7.4 77.4,7.4 77.4,7.4 		"/>
		<polyline id="XMLID_146_" class="st0" points="77.8,7 77.8,7.1 77.8,7.1 77.7,7.2 77.7,7.2 77.7,7.3 77.6,7.4 		"/>
		<line id="XMLID_145_" class="st0" x1="77.3" y1="2.4" x2="37.6" y2="6.4"/>
		<line id="XMLID_144_" class="st0" x1="37.6" y1="7.2" x2="37.6" y2="6.4"/>
		<polyline id="XMLID_143_" class="st0" points="37.6,7.2 46.7,7 55.8,6.9 		"/>
		<polyline id="XMLID_142_" class="st0" points="77.8,6.1 77.8,6.1 77.7,6.3 77.6,6.4 		"/>
		<line id="XMLID_141_" class="st0" x1="77.8" y1="2.5" x2="77.8" y2="6.1"/>
		<polyline id="XMLID_140_" class="st0" points="77.3,2.4 77.4,2.4 77.5,2.4 77.5,2.4 77.6,2.4 77.7,2.4 77.7,2.5 77.8,2.5 
			77.8,2.5 		"/>
		<polyline id="XMLID_139_" class="st0" points="77.3,6 77.3,5.2 77.3,2.4 		"/>
		<polyline id="XMLID_138_" class="st0" points="77.3,25.5 77.3,24.6 77.2,21.9 		"/>
		<polyline id="XMLID_137_" class="st0" points="77.7,21.8 77.7,22 77.7,25.4 		"/>
		<polyline id="XMLID_136_" class="st0" points="77.6,21.5 77.7,21.6 77.7,21.8 77.7,21.8 		"/>
		<line id="XMLID_135_" class="st0" x1="77.2" y1="21.9" x2="55.7" y2="21"/>
		<polyline id="XMLID_134_" class="st0" points="77.2,21.9 77.2,21.9 77.3,21.8 77.4,21.7 77.6,21.5 		"/>
		<polyline id="XMLID_133_" class="st0" points="77.3,21.4 77.5,21.4 77.6,21.5 77.6,21.5 		"/>
		<line id="XMLID_132_" class="st0" x1="55.8" y1="20.5" x2="77.3" y2="21.4"/>
		<polyline id="XMLID_131_" class="st0" points="55.7,21 55.8,20.8 55.8,20.7 55.8,20.6 55.8,20.5 		"/>
		<polyline id="XMLID_130_" class="st0" points="77.6,6.4 77.6,6.4 77.5,6.5 77.3,6.5 		"/>
		<polyline id="XMLID_129_" class="st0" points="77.6,6.4 77.6,6.3 77.4,6.2 77.3,6 		"/>
		<line id="XMLID_128_" class="st0" x1="55.8" y1="6.9" x2="77.3" y2="6"/>
		<polyline id="XMLID_127_" class="st0" points="55.8,7.3 55.8,7.3 55.8,7.2 55.8,7 55.8,6.9 		"/>
		<line id="XMLID_126_" class="st0" x1="77.3" y1="6.5" x2="55.8" y2="7.3"/>
		<line id="XMLID_125_" class="st1" x1="87.4" y1="20.7" x2="87.5" y2="20.7"/>
		<line id="XMLID_124_" class="st1" x1="87.6" y1="5.5" x2="87.4" y2="5.5"/>
		<polyline id="XMLID_123_" class="st1" points="87.4,20.7 87.6,20.7 87.9,20.7 88.2,20.9 88.4,21.2 88.5,21.6 88.4,21.9 88.2,22.2 
			87.9,22.4 87.9,22.4 		"/>
		<polyline id="XMLID_122_" class="st1" points="87.4,5.5 87.6,5.5 87.9,5.6 88.2,5.8 88.4,6.1 88.5,6.4 88.4,6.8 88.2,7.1 
			87.9,7.2 87.9,7.3 		"/>
		<line id="XMLID_121_" class="st0" x1="103.6" y1="19" x2="108.8" y2="19"/>
		<line id="XMLID_120_" class="st0" x1="108.8" y1="9" x2="103.6" y2="9"/>
		<line id="XMLID_119_" class="st0" x1="0" y1="15.5" x2="7.1" y2="15.7"/>
		<line id="XMLID_118_" class="st0" x1="7.1" y1="12" x2="0" y2="12.2"/>
		<polyline id="XMLID_117_" class="st0" points="7.1,15.7 7.3,15.8 7.5,15.9 7.7,16 7.8,16.1 7.8,16.2 		"/>
		<polyline id="XMLID_116_" class="st0" points="7.8,11.5 7.8,11.6 7.6,11.8 7.4,11.9 7.1,12 		"/>
		<line id="XMLID_115_" class="st0" x1="7.8" y1="16.2" x2="10" y2="20.5"/>
		<line id="XMLID_114_" class="st0" x1="10.1" y1="7.2" x2="7.8" y2="11.5"/>
		<line id="XMLID_113_" class="st0" x1="10" y1="20.5" x2="37.5" y2="20.6"/>
		<line id="XMLID_112_" class="st0" x1="37.6" y1="7.1" x2="10.1" y2="7.2"/>
		<polyline id="XMLID_111_" class="st0" points="77.8,21 77.9,21.1 78,21.2 78,21.3 		"/>
		<polyline id="XMLID_110_" class="st0" points="78.1,6.6 78,6.7 77.8,6.9 77.7,7 		"/>
		<line id="XMLID_109_" class="st0" x1="117.9" y1="19.2" x2="117.9" y2="14"/>
		<line id="XMLID_108_" class="st0" x1="118" y1="14" x2="118" y2="9.5"/>
	</g>
</g>
<polyline id="XMLID_429_" class="st0" points="70.6,17.7 70.6,17.7 70.6,17.6 70.6,17.4 70.6,17.1 70.6,16.7 70.6,16.3 70.6,15.8 
	70.6,15.3 70.6,14.8 70.7,14.2 70.7,13.7 70.7,13.1 70.7,12.6 70.7,12 70.7,11.6 70.7,11.2 70.7,10.8 70.7,10.5 70.7,10.3 
	70.7,10.2 70.7,10.1 "/>
<polyline id="XMLID_428_" class="st0" points="73.9,8.1 73.9,8.2 73.9,8.3 73.9,8.5 73.9,8.8 73.9,9.2 73.9,9.6 73.9,10.1 
	73.9,10.6 73.9,11.2 73.9,11.9 73.9,12.6 73.9,13.2 73.9,13.9 73.9,14.6 73.9,15.3 73.9,16 73.9,16.7 73.8,17.3 73.8,17.8 
	73.8,18.3 73.8,18.7 73.8,19.1 73.8,19.4 73.8,19.6 73.8,19.7 73.8,19.8 "/>
<line id="XMLID_393_" class="st0" x1="23.5" y1="-15.7" x2="23.6" y2="-15.6"/>
<line id="XMLID_347_" class="st0" x1="70.7" y1="12.3" x2="10" y2="12.1"/>
<line id="XMLID_330_" class="st0" x1="10.1" y1="15.5" x2="70.6" y2="15.6"/>
<line id="XMLID_329_" class="st0" x1="70.6" y1="17.7" x2="73.8" y2="17.7"/>
<line id="XMLID_328_" class="st0" x1="73.9" y1="10.2" x2="70.7" y2="10.1"/>
<line id="XMLID_327_" class="st0" x1="76.9" y1="8.1" x2="73.9" y2="8.1"/>
<line id="XMLID_326_" class="st0" x1="73.8" y1="19.8" x2="76.9" y2="19.8"/>
<circle id="XMLID_4_" class="st2" cx="95.4" cy="14.1" r="5.9"/>
<g id="XMLID_8_">
	<path id="XMLID_6_" d="M96.9,12.6v-1.7h1.2v1.7h2.3v1.5h-2.3v4h-1.2l-6.5-3.8v-1.7H96.9z M96.9,14h-4.6l4.6,2.7V14z"/>
</g>
</svg>
